<svg width="100%" height="100%" viewBox="0 0 10 20" version="1.1" xmlns="http://www.w3.org/2000/svg" xmlns:xlink="http://www.w3.org/1999/xlink" xml:space="preserve" xmlns:serif="http://www.serif.com/" style="fill-rule:evenodd;clip-rule:evenodd;stroke-linejoin:round;stroke-miterlimit:2;">
    <g transform="matrix(1,0,0,1,-481.323,-321.627)">
        <g transform="matrix(0.844038,0,0,0.794998,75.1979,66.1049)">
            <rect x="482.156" y="322.46" width="9.07" height="23.041" style="fill:rgb(166,166,166);"/>
            <path d="M492.214,322.46L492.214,345.501C492.214,346.08 491.772,346.55 491.227,346.55L482.156,346.55C481.611,346.55 481.169,346.08 481.169,345.501L481.169,322.46C481.169,321.881 481.611,321.412 482.156,321.412L491.227,321.412C491.772,321.412 492.214,321.881 492.214,322.46ZM491.227,322.46L482.156,322.46L482.156,345.501L491.227,345.501L491.227,322.46Z"/>
            <g transform="matrix(0.717368,0,0,1,137.555,0)">
                <rect x="482.156" y="322.46" width="9.07" height="23.041" style="fill:rgb(199,199,199);"/>
                <clipPath id="_clip1">
                    <rect x="482.156" y="322.46" width="9.07" height="23.041"/>
                </clipPath>
                <g clip-path="url(#_clip1)">
                    <g transform="matrix(2.78138,0,0,1.99527,-792.598,-360.912)">
                        <path d="M459.445,354.564C459.99,354.386 461.914,351.884 462.065,351.548" style="fill:none;stroke:white;stroke-width:0.25px;stroke-linecap:round;stroke-miterlimit:1.5;"/>
                    </g>
                    <g transform="matrix(2.78138,0,0,1.99527,-791.331,-360.149)">
                        <path d="M459.445,354.564C459.99,354.386 461.914,351.884 462.065,351.548" style="fill:none;stroke:white;stroke-width:0.25px;stroke-linecap:round;stroke-miterlimit:1.5;"/>
                    </g>
                    <g transform="matrix(2.78138,0,0,1.99527,-799.459,-381.391)">
                        <path d="M459.445,354.564C459.99,354.386 461.914,351.884 462.065,351.548" style="fill:none;stroke:white;stroke-width:0.25px;stroke-linecap:round;stroke-miterlimit:1.5;"/>
                    </g>
                    <g transform="matrix(2.78138,0,0,1.99527,-798.266,-380.037)">
                        <path d="M459.445,354.564C459.99,354.386 461.914,351.884 462.065,351.548" style="fill:none;stroke:white;stroke-width:0.25px;stroke-linecap:round;stroke-miterlimit:1.5;"/>
                    </g>
                </g>
            </g>
        </g>
    </g>
</svg>