<svg width="100%" height="100%" viewBox="0 0 14 32" version="1.1" xmlns="http://www.w3.org/2000/svg" xmlns:xlink="http://www.w3.org/1999/xlink" xml:space="preserve" xmlns:serif="http://www.serif.com/" style="fill-rule:evenodd;clip-rule:evenodd;stroke-linecap:round;stroke-miterlimit:1;">
    <g transform="matrix(1,0,0,1,-451.883,-320.173)">
        <g>
            <g transform="matrix(1,0,0,0.720875,0.697405,91.1847)">
                <path d="M461.649,323.45C459.967,328.512 458.663,333.472 457.87,338.727C457.462,341.432 456.985,344.12 457.206,346.86" style="fill:none;stroke:rgb(188,122,4);stroke-width:1.15px;stroke-linejoin:round;stroke-miterlimit:1.5;"/>
            </g>
            <g transform="matrix(1.99527,0,0,1.99527,-459.359,-357.565)">
                <path d="M456.775,350.922L458.532,349.165L461.017,349.165L462.775,350.922L462.775,353.408L461.017,355.165L458.532,355.165L456.775,353.408L456.775,350.922Z" style="fill:rgb(0,235,255);"/>
                <g transform="matrix(0.75,0,0,0.75,114.944,88.0412)">
                    <path d="M456.775,350.922L458.532,349.165L461.017,349.165L462.775,350.922L462.775,353.408L461.017,355.165L458.532,355.165L456.775,353.408L456.775,350.922Z" style="fill:rgb(141,246,255);"/>
                    <clipPath id="_clip1">
                        <path d="M456.775,350.922L458.532,349.165L461.017,349.165L462.775,350.922L462.775,353.408L461.017,355.165L458.532,355.165L456.775,353.408L456.775,350.922Z"/>
                    </clipPath>
                    <g clip-path="url(#_clip1)">
                        <g transform="matrix(1.33333,0,0,1.33333,-153.258,-117.388)">
                            <path d="M459.445,354.564C459.99,354.386 461.914,351.884 462.065,351.548" style="fill:none;stroke:white;stroke-width:0.21px;stroke-linejoin:round;stroke-miterlimit:1.5;"/>
                        </g>
                        <g transform="matrix(1.33333,0,0,1.33333,-152.599,-116.902)">
                            <path d="M459.445,354.564C459.99,354.386 461.914,351.884 462.065,351.548" style="fill:none;stroke:white;stroke-width:0.21px;stroke-linejoin:round;stroke-miterlimit:1.5;"/>
                        </g>
                    </g>
                </g>
                <path d="M457.525,351.233L456.775,350.922" style="fill:none;stroke:white;stroke-width:0.1px;"/>
                <path d="M457.525,353.097L456.775,353.408" style="fill:none;stroke:white;stroke-width:0.1px;"/>
                <path d="M458.843,354.415L458.532,355.165" style="fill:none;stroke:white;stroke-width:0.1px;"/>
                <path d="M460.707,354.415L461.017,355.165" style="fill:none;stroke:white;stroke-width:0.1px;"/>
                <path d="M462.025,353.097L462.775,353.408" style="fill:none;stroke:white;stroke-width:0.1px;"/>
                <path d="M462.025,351.233L462.775,350.922" style="fill:none;stroke:white;stroke-width:0.1px;"/>
                <path d="M460.707,349.915L461.017,349.165" style="fill:none;stroke:white;stroke-width:0.1px;"/>
                <path d="M458.532,349.165L458.843,349.915" style="fill:none;stroke:white;stroke-width:0.1px;"/>
            </g>
            <g transform="matrix(1,0,0,1,-0.553729,-1.10255)">
                <ellipse cx="462.982" cy="324.4" rx="3.063" ry="3.125" style="fill:rgb(188,122,4);"/>
            </g>
        </g>
    </g>
</svg>