<?xml version="1.0" encoding="UTF-8" standalone="no"?>
<!-- Created with Inkscape (http://www.inkscape.org/) -->

<svg
   xmlns:dc="http://purl.org/dc/elements/1.1/"
   xmlns:cc="http://creativecommons.org/ns#"
   xmlns:rdf="http://www.w3.org/1999/02/22-rdf-syntax-ns#"
   xmlns:svg="http://www.w3.org/2000/svg"
   xmlns="http://www.w3.org/2000/svg"
   xmlns:sodipodi="http://sodipodi.sourceforge.net/DTD/sodipodi-0.dtd"
   xmlns:inkscape="http://www.inkscape.org/namespaces/inkscape"
   width="600"
   height="400"
   viewBox="0 0 158.75 105.83334"
   version="1.1"
   id="svg8"
   inkscape:version="0.92.2 (5c3e80d, 2017-08-06)"
   sodipodi:docname="brown-shifty.svg">
  <defs
     id="defs2" />
  <sodipodi:namedview
     id="base"
     pagecolor="#ffffff"
     bordercolor="#666666"
     borderopacity="1.0"
     inkscape:pageopacity="0.0"
     inkscape:pageshadow="2"
     inkscape:zoom="0.7"
     inkscape:cx="368.34202"
     inkscape:cy="207.20084"
     inkscape:document-units="mm"
     inkscape:current-layer="g4753"
     showgrid="false"
     inkscape:window-width="958"
     inkscape:window-height="1138"
     inkscape:window-x="2873"
     inkscape:window-y="0"
     inkscape:window-maximized="0"
     units="px" />
  <metadata
     id="metadata5">
    <rdf:RDF>
      <cc:Work
         rdf:about="">
        <dc:format>image/svg+xml</dc:format>
        <dc:type
           rdf:resource="http://purl.org/dc/dcmitype/StillImage" />
        <dc:title></dc:title>
      </cc:Work>
    </rdf:RDF>
  </metadata>
  <g
     inkscape:label="Layer 1"
     inkscape:groupmode="layer"
     id="layer1"
     transform="translate(0,-191.16665)">
    <g
       id="g3710">
      <g
         id="g3811"
         transform="matrix(4.0579015,0,0,4.0579015,-251.62294,-736.76684)">
        <g
           id="g4753"
           transform="translate(-1.3971859,0.18629145)">
          <path
             style="fill:#ffffff;stroke-width:0.13869981"
             d="m 80.034179,246.33226 c -1.442118,-0.16526 -1.469486,-0.18226 -1.379071,-0.85635 0.04198,-0.31299 0.128064,-0.61584 0.191298,-0.673 0.06323,-0.0572 0.48946,-0.0549 0.947169,0.005 1.077687,0.14119 6.134704,0.14119 7.212391,0 0.457709,-0.06 0.889046,-0.0571 0.958525,0.006 0.06948,0.0634 0.131895,0.37938 0.1387,0.70215 0.0118,0.55953 -0.01022,0.59227 -0.473076,0.70327 -0.691376,0.16581 -6.394003,0.25033 -7.595936,0.11258 z m 0.722286,-2.50432 c -0.843539,-0.0658 -2.154252,-0.24748 -2.912696,-0.40368 -2.557348,-0.52667 -2.756538,-0.62739 -2.915405,-1.47422 -0.116378,-0.62036 0.379821,-1.37815 1.467066,-2.2405 1.810542,-1.43604 3.865526,-2.03229 7.00434,-2.03229 2.212806,0 3.650817,0.24663 5.122648,0.87855 1.002052,0.43023 2.359811,1.4465 2.931759,2.1944 0.417633,0.54611 0.487041,0.73173 0.42274,1.13055 -0.04231,0.26243 -0.193464,0.59369 -0.335894,0.73612 -0.849662,0.84966 -6.821713,1.5203 -10.784558,1.21107 z"
             id="path4759"
             inkscape:connector-curvature="0" />
          <ellipse
             style="fill:#6c5353;stroke:none;stroke-width:0.37362775;stroke-miterlimit:4;stroke-dasharray:none;stroke-opacity:1"
             id="path4763"
             cx="83.404243"
             cy="240.62218"
             rx="3.4221919"
             ry="3.003036" />
          <path
             style="fill:#000000;stroke-width:0.29571935;stroke-miterlimit:4;stroke-dasharray:none;stroke:#040404;stroke-opacity:1"
             d="m 79.95682,246.3318 c -1.442118,-0.16526 -1.469486,-0.18226 -1.379071,-0.85635 0.04198,-0.31299 0.128064,-0.61584 0.191298,-0.673 0.06323,-0.0572 0.48946,-0.0549 0.947169,0.005 1.077687,0.14119 6.134704,0.14119 7.212391,0 0.457709,-0.06 0.889046,-0.0571 0.958525,0.006 0.06948,0.0634 0.131895,0.37938 0.1387,0.70215 0.0118,0.55953 -0.01022,0.59227 -0.473076,0.70327 -0.691376,0.16581 -6.394003,0.25033 -7.595936,0.11258 z m 0.799645,-2.50386 c -2.609919,-0.21605 -5.204568,-0.78975 -5.613022,-1.24109 -0.123325,-0.13627 -0.258176,-0.45836 -0.299668,-0.71575 -0.06251,-0.38774 0.01022,-0.57999 0.42423,-1.12136 0.571948,-0.7479 1.929708,-1.76417 2.931759,-2.1944 1.460965,-0.62726 2.908647,-0.87436 5.122647,-0.87436 2.214,0 3.661682,0.2471 5.122648,0.87436 1.002052,0.43023 2.359811,1.4465 2.931759,2.1944 0.417633,0.54611 0.487041,0.73173 0.42274,1.13055 -0.115283,0.71503 -0.44955,0.94676 -1.892986,1.31227 -2.371109,0.60041 -6.287384,0.87236 -9.150107,0.63538 z m 1.968313,-1.59601 c 0.04001,-0.04 -0.168037,-0.31354 -0.462332,-0.60783 -0.584876,-0.58488 -0.678126,-1.06315 -0.327033,-1.67732 0.109021,-0.19071 0.200432,-0.40229 0.203135,-0.47018 0.0068,-0.17066 -1.49538,-9.7e-4 -1.732336,0.19569 -0.105817,0.0878 -0.253598,0.12185 -0.328402,0.0756 -0.362992,-0.22434 -3.06624,1.22751 -3.06624,1.64681 0,0.20411 0.759015,0.40609 2.403155,0.63948 0.55847,0.0793 0.873042,0.0731 0.904454,-0.0178 0.03097,-0.0896 0.10544,-0.0918 0.208606,-0.006 0.238023,0.19755 2.039388,0.37938 2.196993,0.22178 z m 3.392816,-0.22225 c 0.102784,-0.0853 0.177089,-0.0818 0.20805,0.01 0.03286,0.0973 0.33466,0.0981 0.949712,0.003 1.790178,-0.27762 2.357897,-0.42747 2.357897,-0.62236 0,-0.41333 -2.707291,-1.8739 -3.06437,-1.65321 -0.07583,0.0469 -0.224455,0.0134 -0.330272,-0.0745 -0.236956,-0.19666 -1.739132,-0.36635 -1.732336,-0.19569 0.0027,0.0679 0.09411,0.27947 0.203135,0.47018 0.351093,0.61417 0.257843,1.09244 -0.327033,1.67732 -0.294295,0.29429 -0.497143,0.5739 -0.450774,0.62134 0.12139,0.12421 1.995823,-0.078 2.185991,-0.23576 z"
             id="path4755"
             inkscape:connector-curvature="0" />
        </g>
      </g>
    </g>
  </g>
</svg>
