<svg xmlns="http://www.w3.org/2000/svg" viewBox="0 0 75 50" width="75" height="50">
	<style>
		tspan { white-space:pre }
		.white { fill: #f4f2ee } 
		.black { fill: #000000 } 
		.blackLine { fill: none;stroke: #000000;stroke-width: 4.367 } 
		.blackLine2 { fill: none;stroke: #000000;stroke-width: 3.333 } 
	</style>
	<g id="eye">
		<path id="white" class="white" d="M13.33 9.67L13.33 21L18.33 33.33L34 40L49 39.33L59 32.33L65 21.67L66.67 12L40 13.33L13.33 9.67Z" />
		<path id="black" class="black" d="M39.93 37.15C33.54 37.15 28.36 31.99 28.36 25.58C28.36 19.18 33.54 14.02 39.93 14.02C46.33 14.02 51.49 19.18 51.49 25.58C51.49 31.99 46.33 37.15 39.93 37.15Z" />
		<path id="blackLine" class="blackLine" d="M13.33 10C13.33 10 6.67 40 40 40C66.67 40 66.67 11.84 66.67 11.84" />
		<path id="blackLine2" class="blackLine2" d="M6.67 6.67C6.67 6.67 20 13.33 40 13.33C60 13.33 73.33 10.73 73.33 10.73" />
	</g>
</svg>