<svg xmlns="http://www.w3.org/2000/svg" viewBox="0 0 400 600" width="400" height="600">
	<style>
		tspan { white-space:pre }
		.shp0 { fill: none;stroke: #000000;stroke-linecap:round;stroke-linejoin:round;stroke-width: 5 } 
		.shp1 { fill: #ffffff;stroke: #000000;stroke-linecap:round;stroke-linejoin:round;stroke-width: 5 } 
		.shp2 { fill: #000000;stroke: #000000;stroke-linecap:round;stroke-linejoin:round;stroke-width: 4 } 
	</style>
	<g id="Eyes">
		<g id="Eye 3">
			<path id="Shape 7" class="shp0" d="M265 360C251.17 360 240 348.82 240 335C240 321.17 251.17 310 265 310C278.82 310 290 321.17 290 335C290 348.82 278.82 360 265 360Z" />
			<path id="Shape 7" class="shp1" d="M265 360C251.17 360 240 348.82 240 335C240 330 240 330 240 330L290 330C290 330 290 330 290 335C290 348.82 278.82 360 265 360Z" />
			<path id="Shape 7" class="shp1" d="" />
			<path id="Shape 7" class="shp2" d="M265 330C255 330 255 345 265 345C275 345 275 330 265 330Z" />
		</g>
	</g>
</svg>