<?xml version="1.0" encoding="UTF-8" standalone="no"?>
<!-- Created with Inkscape (http://www.inkscape.org/) -->

<svg
   xmlns:dc="http://purl.org/dc/elements/1.1/"
   xmlns:cc="http://creativecommons.org/ns#"
   xmlns:rdf="http://www.w3.org/1999/02/22-rdf-syntax-ns#"
   xmlns:svg="http://www.w3.org/2000/svg"
   xmlns="http://www.w3.org/2000/svg"
   xmlns:sodipodi="http://sodipodi.sourceforge.net/DTD/sodipodi-0.dtd"
   xmlns:inkscape="http://www.inkscape.org/namespaces/inkscape"
   width="600"
   height="400"
   viewBox="0 0 158.75 105.83334"
   version="1.1"
   id="svg8"
   inkscape:version="0.92.2 (5c3e80d, 2017-08-06)"
   sodipodi:docname="green-semi.svg">
  <defs
     id="defs2" />
  <sodipodi:namedview
     id="base"
     pagecolor="#ffffff"
     bordercolor="#666666"
     borderopacity="1.0"
     inkscape:pageopacity="0.0"
     inkscape:pageshadow="2"
     inkscape:zoom="0.7"
     inkscape:cx="184.17052"
     inkscape:cy="403.03819"
     inkscape:document-units="mm"
     inkscape:current-layer="g3811"
     showgrid="false"
     inkscape:window-width="1920"
     inkscape:window-height="1147"
     inkscape:window-x="1912"
     inkscape:window-y="-8"
     inkscape:window-maximized="1"
     units="px" />
  <metadata
     id="metadata5">
    <rdf:RDF>
      <cc:Work
         rdf:about="">
        <dc:format>image/svg+xml</dc:format>
        <dc:type
           rdf:resource="http://purl.org/dc/dcmitype/StillImage" />
        <dc:title></dc:title>
      </cc:Work>
    </rdf:RDF>
  </metadata>
  <g
     inkscape:label="Layer 1"
     inkscape:groupmode="layer"
     id="layer1"
     transform="translate(0,-191.16665)">
    <g
       id="g3710">
      <g
         id="g3811"
         transform="matrix(4.0579015,0,0,4.0579015,-251.62294,-736.76684)">
        <path
           style="fill:#008000;stroke-width:0.14294352"
           d="m 74.029855,250.37644 c -1.289665,-0.3122 -2.736017,-1.1468 -3.757362,-2.16814 -1.481081,-1.48108 -2.446031,-3.88475 -2.312355,-5.76001 l 0.04537,-0.63646 h 7.933366 7.933365 l 0.04585,0.78619 c 0.20342,3.48821 -2.506301,6.92964 -6.128508,7.7834 -1.131065,0.26659 -2.646159,0.26458 -3.759724,-0.005 z"
           id="path3817"
           inkscape:connector-curvature="0" />
        <path
           style="fill:#ffffff;stroke-width:0.14294352"
           d="m 74.029855,250.37644 c -1.289665,-0.3122 -2.736017,-1.1468 -3.757362,-2.16814 -1.481081,-1.48108 -2.446031,-3.88475 -2.312355,-5.76001 l 0.04537,-0.63646 h 7.933366 7.933365 l 0.04585,0.78619 c 0.20342,3.48821 -2.506301,6.92964 -6.128508,7.7834 -1.131065,0.26659 -2.646159,0.26458 -3.759724,-0.005 z m 3.984287,-3.76661 c 0.973206,-0.47911 1.600245,-1.11598 2.08799,-2.12074 0.436105,-0.89837 0.321967,-1.0334 -0.873477,-1.0334 -1.004316,0 -1.009405,0.002 -1.6126,0.63054 -1.023144,1.06617 -2.378611,1.03644 -3.406282,-0.0747 -0.504319,-0.54528 -0.533339,-0.55583 -1.528207,-0.55583 -0.557769,0 -1.053423,0.0636 -1.101452,0.14129 -0.153901,0.24902 0.493672,1.48268 1.113633,2.12153 1.464025,1.50864 3.4057,1.83392 5.320395,0.89132 z"
           id="path3815"
           inkscape:connector-curvature="0" />
        <path
           style="fill:#0a100d;stroke-width:0.41400709;stroke:#000000;stroke-opacity:1;stroke-miterlimit:4;stroke-dasharray:none"
           d="m 74.029855,250.37644 c -1.289665,-0.3122 -2.736017,-1.1468 -3.757362,-2.16814 -1.481081,-1.48108 -2.446031,-3.88475 -2.312355,-5.76001 l 0.04537,-0.63646 h 7.933366 7.933365 l 0.04585,0.78619 c 0.20342,3.48821 -2.506301,6.92964 -6.128508,7.7834 -1.131065,0.26659 -2.646159,0.26458 -3.759724,-0.005 z m 3.558572,-1.70937 c 2.178794,-0.56382 4.191264,-2.65117 4.455513,-4.62129 l 0.07663,-0.57133 -1.954401,-0.004 -1.954401,-0.004 -0.600408,0.62565 c -1.018125,1.06091 -2.37601,1.02927 -3.401283,-0.0793 l -0.513777,-0.5555 -1.916263,0.0354 -1.916264,0.0354 0.02249,0.47751 c 0.03457,0.73422 0.849863,2.23949 1.641999,3.03163 0.740923,0.74092 2.021735,1.4784 2.946038,1.6963 0.853727,0.20126 2.192009,0.1731 3.114132,-0.0655 z"
           id="path3813"
           inkscape:connector-curvature="0" />
      </g>
    </g>
  </g>
</svg>
