<?xml version="1.0" encoding="UTF-8" standalone="no"?>
<!-- Created with Inkscape (http://www.inkscape.org/) -->

<svg
   xmlns:dc="http://purl.org/dc/elements/1.1/"
   xmlns:cc="http://creativecommons.org/ns#"
   xmlns:rdf="http://www.w3.org/1999/02/22-rdf-syntax-ns#"
   xmlns:svg="http://www.w3.org/2000/svg"
   xmlns="http://www.w3.org/2000/svg"
   xmlns:sodipodi="http://sodipodi.sourceforge.net/DTD/sodipodi-0.dtd"
   xmlns:inkscape="http://www.inkscape.org/namespaces/inkscape"
   width="600"
   height="400"
   viewBox="0 0 158.75 105.83334"
   version="1.1"
   id="svg8"
   inkscape:version="0.92.2 (5c3e80d, 2017-08-06)"
   sodipodi:docname="green-lazy.svg">
  <defs
     id="defs2" />
  <sodipodi:namedview
     id="base"
     pagecolor="#ffffff"
     bordercolor="#666666"
     borderopacity="1.0"
     inkscape:pageopacity="0.0"
     inkscape:pageshadow="2"
     inkscape:zoom="0.7"
     inkscape:cx="430.43478"
     inkscape:cy="207.20084"
     inkscape:document-units="mm"
     inkscape:current-layer="g4753"
     showgrid="false"
     inkscape:window-width="798"
     inkscape:window-height="838"
     inkscape:window-x="793"
     inkscape:window-y="0"
     inkscape:window-maximized="0"
     units="px" />
  <metadata
     id="metadata5">
    <rdf:RDF>
      <cc:Work
         rdf:about="">
        <dc:format>image/svg+xml</dc:format>
        <dc:type
           rdf:resource="http://purl.org/dc/dcmitype/StillImage" />
        <dc:title></dc:title>
      </cc:Work>
    </rdf:RDF>
  </metadata>
  <g
     inkscape:label="Layer 1"
     inkscape:groupmode="layer"
     id="layer1"
     transform="translate(0,-191.16665)">
    <g
       id="g3710">
      <g
         id="g3811"
         transform="matrix(4.0579015,0,0,4.0579015,-251.62294,-736.76684)">
        <g
           id="g4753"
           transform="translate(-1.3971859,0.18629145)">
          <path
             style="fill:#ffffff;stroke-width:0.13869981"
             d="m 80.034179,246.33226 c -1.442118,-0.16526 -1.469486,-0.18226 -1.379071,-0.85635 0.04198,-0.31299 0.128064,-0.61584 0.191298,-0.673 0.06323,-0.0572 0.48946,-0.0549 0.947169,0.005 1.077687,0.14119 6.134704,0.14119 7.212391,0 0.457709,-0.06 0.889046,-0.0571 0.958525,0.006 0.06948,0.0634 0.131895,0.37938 0.1387,0.70215 0.0118,0.55953 -0.01022,0.59227 -0.473076,0.70327 -0.691376,0.16581 -6.394003,0.25033 -7.595936,0.11258 z m 0.722286,-2.50432 c -0.843539,-0.0658 -2.154252,-0.24748 -2.912696,-0.40368 -2.557348,-0.52667 -2.756538,-0.62739 -2.915405,-1.47422 -0.116378,-0.62036 0.379821,-1.37815 1.467066,-2.2405 1.810542,-1.43604 3.865526,-2.03229 7.00434,-2.03229 2.212806,0 3.650817,0.24663 5.122648,0.87855 1.002052,0.43023 2.359811,1.4465 2.931759,2.1944 0.417633,0.54611 0.487041,0.73173 0.42274,1.13055 -0.04231,0.26243 -0.193464,0.59369 -0.335894,0.73612 -0.849662,0.84966 -6.821713,1.5203 -10.784558,1.21107 z"
             id="path4759"
             inkscape:connector-curvature="0" />
          <path
             inkscape:connector-curvature="0"
             id="path4782"
             d="m 79.830235,248.57265 c -2.384349,-0.51174 -5.653662,-2.01534 -5.653662,-2.60022 0,-0.17611 0.226463,-0.65376 0.503253,-1.06109 0.724625,-1.06638 0.546948,-1.29945 -0.990637,-1.29945 -0.94889,0 -1.307998,-0.0744 -1.38999,-0.28824 -0.192047,-0.50043 0.461366,-3.1615 1.003401,-4.08642 0.286263,-0.48848 0.916099,-1.23637 1.39963,-1.66199 1.463286,-1.28803 2.270463,-1.47919 7.759881,-1.83754 6.723674,-0.43893 7.758593,-0.42138 8.967873,0.1519 1.85976,0.88178 3.319016,3.04202 3.546985,5.25082 l 0.107251,1.03908 -1.339728,0.18 c -1.333015,0.1791 -1.340615,0.18359 -1.516451,0.89517 -0.156526,0.6335 -0.10459,0.82761 0.454479,1.69883 0.347157,0.54101 0.573574,1.07688 0.503148,1.19086 -0.277621,0.44918 -3.389568,1.82234 -5.131229,2.26417 -1.505514,0.38188 -2.306564,0.46411 -4.398856,0.45143 -1.406976,-0.009 -3.128379,-0.13784 -3.825339,-0.28734 z"
             style="fill:#008000;stroke-width:0.1949538" />
          <path
             inkscape:connector-curvature="0"
             id="path4780"
             d="m 79.830235,248.57265 c -2.384349,-0.51174 -5.653662,-2.01534 -5.653662,-2.60022 0,-0.17611 0.226463,-0.65376 0.503253,-1.06109 0.724625,-1.06638 0.546948,-1.29945 -0.990637,-1.29945 -0.94889,0 -1.307998,-0.0744 -1.38999,-0.28824 -0.192047,-0.50043 0.461366,-3.1615 1.003401,-4.08642 0.286263,-0.48848 0.916099,-1.23637 1.39963,-1.66199 1.463286,-1.28803 2.270463,-1.47919 7.759881,-1.83754 6.723674,-0.43893 7.758593,-0.42138 8.967873,0.1519 1.85976,0.88178 3.319016,3.04202 3.546985,5.25082 l 0.107251,1.03908 -1.339728,0.18 c -1.333015,0.1791 -1.340615,0.18359 -1.516451,0.89517 -0.156526,0.6335 -0.10459,0.82761 0.454479,1.69883 0.347157,0.54101 0.573574,1.07688 0.503148,1.19086 -0.277621,0.44918 -3.389568,1.82234 -5.131229,2.26417 -1.505514,0.38188 -2.306564,0.46411 -4.398856,0.45143 -1.406976,-0.009 -3.128379,-0.13784 -3.825339,-0.28734 z m 6.804632,-3.6175 c 2.02763,-1.01322 3.332964,-3.12028 3.332964,-5.38003 0,-1.03107 -0.351382,-1.22018 -1.949538,-1.04924 l -1.072246,0.11481 -0.09747,1.07224 c -0.122291,1.34532 -0.697157,2.18602 -1.795182,2.62537 -1.742215,0.69709 -3.555256,-0.21677 -4.054047,-2.04312 -0.131381,-0.48106 -0.271671,-0.98883 -0.311776,-1.12831 -0.05526,-0.19226 -0.368708,-0.22126 -1.293673,-0.1205 -0.671422,0.0733 -1.286563,0.17043 -1.366981,0.21648 -0.308266,0.17581 -0.122291,1.76072 0.31743,2.70502 0.658313,1.41373 1.531841,2.31928 2.893886,2.99989 1.015166,0.50729 1.407257,0.594 2.686036,0.594 1.285415,0 1.669079,-0.0858 2.710603,-0.60629 z"
             style="fill:#ffffff;stroke-width:0.1949538;stroke:#ffffff;stroke-opacity:1" />
          <path
             inkscape:connector-curvature="0"
             id="path4778"
             d="m 80.025189,248.60904 c -2.55863,-0.59444 -5.527042,-1.90594 -5.77473,-2.55142 -0.119929,-0.31249 0.706408,-1.66002 1.020112,-1.66352 0.119181,-0.001 0.952616,0.33886 1.852064,0.75593 2.388831,1.10771 3.956205,1.44925 6.606675,1.43963 2.613867,-0.009 4.550192,-0.44692 6.716322,-1.51722 0.757743,-0.3744 1.474667,-0.68073 1.593166,-0.68073 0.118494,0 0.465253,0.36044 0.770567,0.80102 0.545393,0.787 0.548416,0.80619 0.172732,1.09574 -0.651078,0.50179 -3.441824,1.75797 -4.67137,2.10269 -1.54532,0.43325 -6.7674,0.57058 -8.285535,0.21797 z m -7.694505,-5.18211 c -0.06288,-0.10166 -0.02093,-0.76882 0.09296,-1.48241 0.467617,-2.92718 2.349853,-5.1384 4.872205,-5.72384 0.989791,-0.22963 9.305665,-0.79785 11.635683,-0.79495 1.186729,0.001 1.74091,0.10315 2.505895,0.45929 1.777697,0.82778 3.215619,2.98192 3.532185,5.29152 0.06213,0.45337 0.03684,0.86895 -0.05621,0.92349 -0.09305,0.0544 -0.75803,0.16056 -1.477719,0.23531 l -1.308531,0.13605 -0.118403,-0.55085 c -0.334877,-1.55791 -1.090769,-2.95397 -1.660504,-3.06681 -0.155599,-0.0308 -0.502245,-0.14292 -0.770307,-0.24937 -0.268053,-0.10644 -0.969895,-0.14172 -1.55963,-0.0786 l -1.072246,0.11481 -0.09747,1.07224 c -0.122291,1.34532 -0.697157,2.18602 -1.795182,2.62537 -1.742215,0.69709 -3.555256,-0.21677 -4.054047,-2.04312 -0.131381,-0.48106 -0.271671,-0.98883 -0.311776,-1.12831 -0.09119,-0.31727 -2.4107,-0.11721 -2.709391,0.23382 -0.107222,0.12588 -0.334835,0.20003 -0.5058,0.16475 -0.577315,-0.1193 -1.678599,1.36756 -1.93608,2.61409 -0.129526,0.62709 -0.334918,1.20458 -0.456438,1.28337 -0.324471,0.21049 -2.61549,0.18059 -2.749173,-0.0359 z"
             style="fill:#000000;stroke-width:0.49064769;stroke:#040404;stroke-opacity:1;stroke-miterlimit:4;stroke-dasharray:none" />
        </g>
      </g>
    </g>
  </g>
</svg>
