<svg width="100%" height="100%" viewBox="0 0 115 16" version="1.1" xmlns="http://www.w3.org/2000/svg" xmlns:xlink="http://www.w3.org/1999/xlink" xml:space="preserve" xmlns:serif="http://www.serif.com/" style="fill-rule:evenodd;clip-rule:evenodd;">
    <g transform="matrix(1,0,0,1,-190.896,-282.721)">
        <g transform="matrix(-0.956305,0.292372,0.292372,0.956305,297.766,240.752)">
            <g transform="matrix(-1.32472,0.405006,0.292372,0.956305,113.611,-0.790788)">
                <path d="M12.93,15.05C11.42,15.72 8.75,17.34 6.99,18.66C5.23,19.98 3.61,21.46 3.38,21.95C3.16,22.44 3.22,22.91 3.51,22.99C3.81,23.07 7.95,22.71 12.72,22.2C17.49,21.68 24.3,21.14 27.85,20.99C31.4,20.84 39.48,20.71 45.79,20.7C52.11,20.69 60.35,20.82 64.11,20.99C67.86,21.16 72.5,21.24 74.4,21.18C76.31,21.13 78.96,20.91 80.29,20.71C82.38,20.39 82.62,20.18 82.13,19.14C81.71,18.23 80.39,17.59 76.95,16.61C74.41,15.88 69.09,14.89 65.12,14.39C61.15,13.9 54.13,13.2 49.52,12.84C44.9,12.48 37.61,12.12 33.3,12.03C27.17,11.92 24.39,12.09 20.57,12.86C17.88,13.39 14.44,14.38 12.93,15.05Z" fill='$[hairColor]' style="fill-rule:nonzero;"/>
            </g>
        </g>
    </g>
</svg>