<svg xmlns="http://www.w3.org/2000/svg" viewBox="0 0 69 22" width="69" height="22">
	<path id="eyebrow12" d="M12.93 8.33C11.42 9.56 8.75 12.57 6.99 15C5.23 17.43 3.61 20.16 3.38 21.06C3.16 21.97 3.22 22.83 3.51 22.98C3.81 23.12 7.95 22.47 12.72 21.52C17.49 20.57 24.3 19.56 27.85 19.29C31.4 19.01 39.48 18.77 45.79 18.76C52.11 18.74 60.35 18.98 64.11 19.29C67.86 19.6 72.5 19.76 74.4 19.65C76.31 19.54 78.96 19.15 80.29 18.78C82.38 18.19 82.62 17.81 82.13 15.87C81.71 14.21 80.39 13.02 76.95 11.21C74.41 9.87 69.09 8.03 65.12 7.12C61.15 6.2 54.13 4.91 49.52 4.25C44.9 3.59 37.61 2.92 33.3 2.76C27.17 2.55 24.39 2.88 20.57 4.28C17.88 5.27 14.44 7.09 12.93 8.33Z" fill="$[hairColor]" stroke="#000" stroke-width="1"/>
</svg>