<svg xmlns="http://www.w3.org/2000/svg" viewBox="0 0 69 22" width="69" height="22">
	<style>	
		.eyebrowPlacement { fill: none } 
	</style>
	<path id="eyebrow12" d="M22.1 6.48C21.14 7.22 19.39 8.81 18.2 9.98C16.97 11.15 15.73 12.61 15.5 13.11C15.27 13.63 15.24 14.07 15.45 14.07C15.65 14.07 18.51 13.02 21.46 12.42C24.18 12.31 27.88 12.69 29.76 13.08C31.63 13.51 35.83 14.75 39.11 15.85C42.5 16.93 47.05 18.35 49.17 19.04C51.4 19.65 54.47 20.06 55.87 20.03C57.3 19.97 59.4 19.68 60.49 19.42C62.17 19.01 62.39 18.8 62.21 17.77C62.09 16.86 61.36 16.14 59.45 14.87C58.09 13.87 55.15 12.21 52.89 11.15C50.63 10.02 46.56 8.05 43.86 6.8C41.15 5.49 36.84 3.78 34.29 3.07C30.69 2.26 29.05 2.42 26.76 3.58C25.15 4.35 23.05 5.67 22.1 6.48Z" fill="$[hairColor]" stroke="#000" stroke-width="1"/>
	<path id="placement" class="eyebrowPlacement" d="M0 10L5 10L5 15L0 15L0 10Z" />
</svg>