<svg id="Capa_1" data-name="Capa 1" xmlns="http://www.w3.org/2000/svg" viewBox="0 0 400 600">
  <defs>
    <style>
      .cls-1 {
        fill: #fff;
      }
    </style>
  </defs>
  <title>eyebrown_1</title>
  <g>
    <path fill="$[hairColor]" d="M99.84,276.69l1,1.42c1.16-.26,2.32-.49,3.47-.8,6-1.61,11.88-4.06,18-4.73,15.61-1.71,31.31-2.56,46.95-4,2.15-.2,4.18-1.73,6.26-2.65-1.86-1.8-3.63-3.71-5.64-5.34-.65-.52-1.89-.37-2.87-.43A131,131,0,0,0,122.7,265c-6.51,1.86-12.66,5-18.85,7.88C102.27,273.6,101.17,275.39,99.84,276.69Z"/>
    <path d="M99.84,276.69c1.33-1.3,2.43-3.09,4-3.82,6.19-2.85,12.34-6,18.85-7.88A131,131,0,0,1,167,260.18c1,.06,2.22-.09,2.87.43,2,1.63,3.78,3.54,5.64,5.34-2.08.92-4.11,2.45-6.26,2.65-15.64,1.42-31.34,2.27-46.95,4-6.09.67-12,3.12-18,4.73-1.15.31-2.31.54-3.47.8Z"/>
  </g>
</svg>
