<svg id="Capa_1" data-name="Capa 1" xmlns="http://www.w3.org/2000/svg" viewBox="0 0 400 600">
  <defs>
    <style>
      .cls-1 {
        fill: #fff;
      }
    </style>
  </defs>
  <title>eyebrown</title>
  <g>
    <path d="M100.82,273.11c15.6-15.4,34-18,53-7,7.7,4.5,14.7,10,22,15v1c-1.8-.3-3.8-.2-5.4-.9a103.37,103.37,0,0,0-59.3-8.2c-1.6.3-3.1,1.3-4.7,1.4a35.68,35.68,0,0,1-5.6-.3Zm7.1-2.8c18.8-3.4,36.2-1.1,53.9,4C144.72,259.31,124.22,257.71,107.92,270.31Z"/>
    <path fill="$[hairColor]" d="M107.92,270.31c16.3-12.6,36.9-11,53.9,4C144,269.21,126.72,266.91,107.92,270.31Z"/>
  </g>
</svg>
