<?xml version="1.0" encoding="utf-8"?>
<!-- Generator: Adobe Illustrator 27.2.0, SVG Export Plug-In . SVG Version: 6.00 Build 0)  -->
<svg version="1.1" id="Layer_2_00000033343132828573980410000009886992368204559745_"
	 xmlns="http://www.w3.org/2000/svg" xmlns:xlink="http://www.w3.org/1999/xlink" x="0px" y="0px" viewBox="0 0 400 600"
	 style="enable-background:new 0 0 400 600;" xml:space="preserve">
<style type="text/css">
	.st0{stroke:#000000;}
	.st1{fill:none;}
</style>
<path class="st0" fill="$[hairColor]" stroke="#000" stroke-width="1" d="M212.2,211.3c0,2-1.6,3.4-2.9,4.5c-3.1,2.8-6.5,2.4-7.4,2.3c-3.9-0.5-6.5-3.5-7.4-4.5c-3.1-3.6-2.8-6.3-5.7-8.3
	c-2.7-1.9-5.1-0.9-5.1-1.5c-0.1-1,5.9-3.9,12.5-3c3.3,0.5,5.6,1.7,8,3C207.9,205.7,212.2,208.1,212.2,211.3z"/>
<path class="st1" d="M152.2,200.6c-0.5,0.3-1.4,1-2,2c-0.8,1.3-1,2.6-1,3.2"/>
</svg>
