<svg id="Capa_1" data-name="Capa 1" xmlns="http://www.w3.org/2000/svg" viewBox="0 0 400 600">
  <defs>
    <style>
      .cls-1 {
        fill: #fff;
      }
    </style>
  </defs>
  <title>eyebrown_2</title>
  <g>
    <path d="M169.63,281.29c-16.3-9.2-34.2-9.9-52.2-9.6-4,.1-7.9.6-11.9.8-1.3.1-2.7-.5-4-.7-.1-.5-.3-1.1-.4-1.6,3.4-1.7,6.7-4.3,10.2-4.9a148.23,148.23,0,0,1,50.6-.5,17.75,17.75,0,0,1,7.2,3.1c8.2,5.3,8.3,6.7,1.4,13.5A2.48,2.48,0,0,0,169.63,281.29Zm1.1-4.8c.2-.7.3-1.3.5-2-7.8-7.1-17.6-5.8-27-6,4.6,1.4,9.3,2.1,13.8,3.4C162.33,273.09,166.53,275,170.73,276.49Z"/>
    <path fill="$[hairColor]" d="M170.73,276.49c-4.2-1.6-8.4-3.4-12.7-4.6-4.6-1.3-9.3-2-13.8-3.4,9.4.2,19.2-1.1,27,6A14.62,14.62,0,0,1,170.73,276.49Z"/>
  </g>
</svg>
