<?xml version="1.0" encoding="utf-8"?>
<!-- Generator: Adobe Illustrator 27.2.0, SVG Export Plug-In . SVG Version: 6.00 Build 0)  -->
<svg version="1.1" xmlns="http://www.w3.org/2000/svg" xmlns:xlink="http://www.w3.org/1999/xlink" x="0px" y="0px"
	 viewBox="0 0 400 600" style="enable-background:new 0 0 400 600;" xml:space="preserve">
<style type="text/css">
	.st0{fill:none;stroke:#000000;}
	.st1{display:none;}
	.st2{display:inline;}
</style>
<g id="Layer_2">
	<path class="st0" d="M219.5,190.5c-2.4-6.4-6.1-10.2-8.2-12c0,0-10-8.8-25.1-7.4c-1.4,0.1-2.8,0.4-2.8,0.4s-5.2,1-9.9,4
		c-7.7,4.8-11.4,13.6-12,15"/>
</g>
<g id="Layer_3" class="st1">
	<g class="st2">
		<g>
			<path d="M228.6,172.3c1.9,0,1.9-3,0-3C226.6,169.3,226.6,172.3,228.6,172.3L228.6,172.3z"/>
		</g>
	</g>
	<g class="st2">
		<g>
			<path d="M221.5,166.4c-0.1,0-0.2,0-0.3-0.1c-0.2-0.1-0.4-0.1-0.6,0c-0.2,0-0.4,0.1-0.6,0.2c-0.2,0.1-0.3,0.2-0.4,0.4
				c-0.1,0.1-0.2,0.3-0.3,0.5c0,0.1,0,0.3-0.1,0.4c0,0.3,0.1,0.5,0.2,0.8c0.1,0.1,0.2,0.2,0.2,0.3c0.2,0.2,0.4,0.3,0.7,0.4
				c0.1,0,0.2,0,0.3,0.1c0.2,0.1,0.4,0.1,0.6,0c0.2,0,0.4-0.1,0.6-0.2c0.2-0.1,0.3-0.2,0.4-0.4c0.1-0.1,0.2-0.3,0.3-0.5
				c0-0.1,0-0.3,0.1-0.4c0-0.3-0.1-0.5-0.2-0.8c-0.1-0.1-0.2-0.2-0.2-0.3C222,166.6,221.8,166.5,221.5,166.4L221.5,166.4z"/>
		</g>
	</g>
	<g class="st2">
		<g>
			<path d="M209.6,166.1c1.9,0,1.9-3,0-3C207.6,163.1,207.6,166.1,209.6,166.1L209.6,166.1z"/>
		</g>
	</g>
	<g class="st2">
		<g>
			<path d="M196.1,164.2c1.9,0,1.9-3,0-3C194.2,161.2,194.2,164.2,196.1,164.2L196.1,164.2z"/>
		</g>
	</g>
	<g class="st2">
		<g>
			<path d="M182.7,165.5c0,0.1,0,0.2-0.1,0.3c-0.1,0.2-0.1,0.4,0,0.6c0,0.2,0.1,0.4,0.2,0.6c0.1,0.2,0.2,0.3,0.4,0.4
				c0.1,0.1,0.3,0.2,0.5,0.3c0.1,0,0.3,0,0.4,0.1c0.3,0,0.5-0.1,0.8-0.2c0.1-0.1,0.2-0.2,0.3-0.2c0.2-0.2,0.3-0.4,0.4-0.7
				c0-0.1,0-0.2,0.1-0.3c0.1-0.2,0.1-0.4,0-0.6c0-0.2-0.1-0.4-0.2-0.6c-0.1-0.2-0.2-0.3-0.4-0.4c-0.1-0.1-0.3-0.2-0.5-0.3
				c-0.1,0-0.3,0-0.4-0.1c-0.3,0-0.5,0.1-0.8,0.2c-0.1,0.1-0.2,0.2-0.3,0.2C182.9,165.1,182.8,165.3,182.7,165.5L182.7,165.5z"/>
		</g>
	</g>
	<g class="st2">
		<g>
			<path d="M175.3,168.2c-0.1,0-0.2,0-0.3-0.1c-0.2-0.1-0.4-0.1-0.6,0c-0.2,0-0.4,0.1-0.6,0.2c-0.2,0.1-0.3,0.2-0.4,0.4
				c-0.1,0.1-0.2,0.3-0.3,0.5c0,0.1,0,0.3-0.1,0.4c0,0.3,0.1,0.5,0.2,0.8c0.1,0.1,0.2,0.2,0.2,0.3c0.2,0.2,0.4,0.3,0.7,0.4
				c0.1,0,0.2,0,0.3,0.1c0.2,0.1,0.4,0.1,0.6,0c0.2,0,0.4-0.1,0.6-0.2c0.2-0.1,0.3-0.2,0.4-0.4c0.1-0.1,0.2-0.3,0.3-0.5
				c0-0.1,0-0.3,0.1-0.4c0-0.3-0.1-0.5-0.2-0.8c-0.1-0.1-0.2-0.2-0.2-0.3C175.8,168.4,175.6,168.2,175.3,168.2L175.3,168.2z"/>
		</g>
	</g>
	<g class="st2">
		<g>
			<path d="M166.6,175.6c1.9,0,1.9-3,0-3C164.7,172.6,164.7,175.6,166.6,175.6L166.6,175.6z"/>
		</g>
	</g>
</g>
</svg>
