<?xml version="1.0" encoding="utf-8"?>
<!-- Generator: Adobe Illustrator 27.2.0, SVG Export Plug-In . SVG Version: 6.00 Build 0)  -->
<svg version="1.1" id="Layer_3" xmlns="http://www.w3.org/2000/svg" xmlns:xlink="http://www.w3.org/1999/xlink" x="0px" y="0px"
	 viewBox="0 0 400 600" style="enable-background:new 0 0 400 600;" xml:space="preserve">
<style type="text/css">
	.st0{stroke:#000000;}
</style>
<path class="st0" fill="$[hairColor]" stroke="#000" stroke-width="1" d="M231.4,124.3c1.5,1.9-0.6,5.3-0.9,5.9c-0.9,1.4-2,2.4-2.8,2.9c-6.5,0.1-11.4-0.7-14.8-1.5
	c-1-0.2-3.8-0.9-9.2-2.2c-9.9-2.4-11.2-2.8-13.9-2.9c-1.3-0.1-5.3-0.2-10.2,0.7c-7.1,1.4-11.7,4.4-13.9,5.9
	c-6.1,4.1-7.7,7.6-8.3,7.4c-1.2-0.5,3.3-13.3,15.7-22.1c3.9-2.8,8-4.7,8.3-4.4c0.3,0.3-2.6,2.4-5.5,6.6c-1.7,2.4-2,2.8-1.8,2.9
	c0.8,0.6,6.9-6.4,15.7-6.6c0.8,0,2.4,0.2,5.5,0.7c4.2,0.7,6.9,1.3,11.1,2.2c8.5,1.9,12.8,2.8,13.9,2.9
	C227.1,123.6,230.1,122.6,231.4,124.3z"/>
</svg>
