<?xml version="1.0" encoding="utf-8"?>
<!-- Generator: Adobe Illustrator 27.2.0, SVG Export Plug-In . SVG Version: 6.00 Build 0)  -->
<svg version="1.1" xmlns="http://www.w3.org/2000/svg" xmlns:xlink="http://www.w3.org/1999/xlink" x="0px" y="0px"
	 viewBox="0 0 400 600" style="enable-background:new 0 0 400 600;" xml:space="preserve">
<g id="Layer_2">
	<path fill="$[hairColor]" stroke="#000" stroke-width="1" d="M178.5,145.6c6.5,0.4,6.1,3.9,15,5.9c4.3,0.9,10.2,0.6,22,0c3.2-0.2,5.5-0.4,8-1c1.6-0.4,2.2-0.7,4-1
		c3-0.5,3.8-0.2,4.3-1c1-1.5-1-4.8-1.8-5.8c-0.7-1-1.8-1.7-3.6-2.2c-6.8-1.7-24.9,0.9-34.4,0.7c-6.3-0.1-7.8-1.8-10.6-2.2
		c0,0-1.4-0.2-3.1,0.1c-5.6,0.8-19.8,12.2-19,13.7C160.1,154,167.5,145,178.5,145.6z"/>
</g>
<g id="Layer_3">
</g>
</svg>
