<?xml version="1.0" encoding="utf-8"?>
<!-- Generator: Adobe Illustrator 27.2.0, SVG Export Plug-In . SVG Version: 6.00 Build 0)  -->
<svg version="1.1" id="Layer_2" xmlns="http://www.w3.org/2000/svg" xmlns:xlink="http://www.w3.org/1999/xlink" x="0px" y="0px"
	 viewBox="0 0 400 600" style="enable-background:new 0 0 400 600;" xml:space="preserve">
<path fill="$[hairColor]" stroke="#000" stroke-width="1" d="M154.4,146.6c-0.2-1.7-0.3-2.7,0-3.4c0.8-2.2,5.8-2,9.2-2c4.6,0,8.9-0.3,15.1,0c10,0.4,19.5,0.5,22.3,3.4
	c2.6,2.7,2.6,5.5,2.6,5.5c0,0,0.2,0.6,1.3,4.8c-1.2,0.1-3.1,0.1-5.3,0c-4.2-0.3-6.5-1.1-10.5-2c-6-1.4-10.8-1.9-13.1-2
	c-10.1-0.7-15.1-1-17.1-0.7c-0.7,0.1-2.9,0.5-3.9-0.7C154.7,148.8,154.6,148,154.4,146.6z"/>
<path fill="$[hairColor]" stroke="#000" stroke-width="1" d="M149.8,144.5c0.3,0.3,0.2,0.7,0.4,1.8c0.1,1.2,0.2,1.3,0.3,1.6c0.4,2.1,0.7,2.3,0.7,2.7c-0.3,1.4-3.7,1.2-6.6,2
	c-6.1,1.7-8.3,7.4-9.2,6.8c-0.8-0.5,0.8-6.5,5.3-10.9C143.7,145.6,148.3,143.2,149.8,144.5z"/>
</svg>
