<svg xmlns="http://www.w3.org/2000/svg" viewBox="0 0 400 600">
  <defs>
    <style>
      .cls-1 {
        fill: #fff;
      }
    </style>
  </defs>
  <title>faceStandarF</title>
  <g id="Capa_2" data-name="Capa 2">
    <g>
      <path id="lines" d="M337.17,233.92c-1,31.88-1.61,53.83-2.44,75.78-.57,14.85-4.61,28.81-11.06,42.19a29.32,29.32,0,0,0-2.37,10.66c-.89,13.87-6.72,26.24-11.06,39.12-7,20.82-22.8,34.52-38.18,48.46-12.19,11.05-25.12,21.34-38.16,31.41-11.31,8.72-23.87,14.1-38.87,12.73-11.58-1.06-20.89-6.62-29.73-13.1A486.85,486.85,0,0,1,106.63,430C95.05,418.26,90,403.23,85,388.32c-3.42-10.17-4.89-21-7.42-31.46A67,67,0,0,0,74.18,347a120,120,0,0,1-9-42.78c-.63-23.29-.18-46.64-1.66-69.87A325.43,325.43,0,0,1,67,160.65C72.14,129,86,101.47,112.41,81.73c9.42-7.06,19-14.17,29.44-19.52,8.13-4.18,17.48-6.57,26.58-8.1,11.59-2,23.54-3.57,35.21-3,22.62,1.13,45.4,3.19,64.93,16.66,16.88,11.65,33.75,23.54,44.62,41.53,12.36,20.47,21.09,42.21,21.72,66.66C335.5,198.58,336.66,221.17,337.17,233.92ZM79.38,299.11h-.69c0,6-.11,12,0,18,.22,9.95-.35,20,1.13,29.81,2,13.1,4.57,26.32,8.84,38.83s8.74,25.95,17,35.78C125.2,444.94,149,464.23,174,481.74c3.64,2.54,7.84,5.1,12.08,5.8,17,2.76,33.1,1.27,46.89-10.77,15.28-13.35,31.11-26.07,46.2-39.63,8.85-8,18.16-15.85,22.65-27.52,3.93-10.23,8.73-20.25,11.45-30.8,3.68-14.3,7.36-28.93,8.12-43.57,1.13-22.08-.42-44.28-.52-66.44a59.4,59.4,0,0,0-6.37-26.39c-10.48-21.44-25.81-39.43-40-58.28-8.65-11.46-19.2-18-33.36-19.11-27.78-2.09-55.57-2.4-83.3.23-8.18.78-17.09,1.74-23,8.36-17.16,19.27-33.7,39.09-46,61.95-4.49,8.32-9.34,16.66-9.41,26.57C79.32,274.46,79.38,286.79,79.38,299.11Zm245.44,34.61.94.17c.56-1.28,1.24-2.52,1.67-3.84a147.42,147.42,0,0,0,6.72-44.26c.34-36.45,2.05-72.86-2-109.3C328,139.9,314,109,285.07,85.52,273.54,76.19,262,66.76,247.52,62.24c-27.69-8.65-55.78-8.52-84-3.26-18.64,3.48-33.33,14.33-48,25.6-24.76,19.09-38.19,44.92-45.11,74.48a170.39,170.39,0,0,0-4,34.7c-.67,29.12-.61,58.26-.57,87.4a168.14,168.14,0,0,0,6.76,48.3,44.55,44.55,0,0,0,1.86,4.48c1.78-20.36,2.35-40.33,3-60.3.2-6.28-.13-12.69,1-18.81,3-15.78,12.09-28.83,21-41.6,8.37-12,18-23.08,27.45-34.23,3.81-4.48,8.09-9.46,13.25-11.7a65,65,0,0,1,23.18-5.39q34.66-1.16,69.39-.32c8.17.2,16.38,2.67,24.36,4.87a23.3,23.3,0,0,1,9.46,6c4.36,4.29,8,9.3,12.09,13.9,11.72,13.23,22.66,27,31.46,42.44,7,12.27,13.13,24.64,12.81,39.33-.24,11.14,0,22.3.29,33.44C323.59,312.28,324.3,323,324.82,333.72Z"/>
      <path fill="$[skinColor]" stroke="#000000"  id="skin"   d="M79.38,299.11c0-12.32-.06-24.65,0-37,.07-9.91,4.92-18.25,9.41-26.57,12.33-22.86,28.87-42.68,46-61.95,5.9-6.62,14.81-7.58,23-8.36,27.73-2.63,55.52-2.32,83.3-.23,14.16,1.07,24.71,7.65,33.36,19.11,14.23,18.85,29.56,36.84,40,58.28a59.4,59.4,0,0,1,6.37,26.39c.1,22.16,1.65,44.36.52,66.44-.76,14.64-4.44,29.27-8.12,43.57-2.72,10.55-7.52,20.57-11.45,30.8-4.49,11.67-13.8,19.56-22.65,27.52-15.09,13.56-30.92,26.28-46.2,39.63-13.79,12-29.93,13.53-46.89,10.77-4.24-.7-8.44-3.26-12.08-5.8-25.05-17.51-48.83-36.8-68.39-60.22-8.22-9.83-12.7-23.3-17-35.78S81.83,360,79.84,346.91c-1.48-9.77-.91-19.86-1.13-29.81-.13-6,0-12,0-18Z"/>
      <path id="head"  fill="$[hairColor]"  d="M324.82,333.72c-.52-10.72-1.23-21.44-1.53-32.17-.32-11.14-.53-22.3-.29-33.44.32-14.69-5.82-27.06-12.81-39.33-8.8-15.43-19.74-29.21-31.46-42.44-4.07-4.6-7.73-9.61-12.09-13.9a23.3,23.3,0,0,0-9.46-6c-8-2.2-16.19-4.67-24.36-4.87q-34.68-.84-69.39.32a65,65,0,0,0-23.18,5.39c-5.16,2.24-9.44,7.22-13.25,11.7-9.47,11.15-19.08,22.27-27.45,34.23-8.93,12.77-18,25.82-21,41.6-1.16,6.12-.83,12.53-1,18.81-.65,20-1.22,39.94-3,60.3a44.55,44.55,0,0,1-1.86-4.48,168.14,168.14,0,0,1-6.76-48.3c0-29.14-.1-58.28.57-87.4a170.39,170.39,0,0,1,4-34.7c6.92-29.56,20.35-55.39,45.11-74.48,14.62-11.27,29.31-22.12,48-25.6,28.22-5.26,56.31-5.39,84,3.26,14.48,4.52,26,13.95,37.55,23.28,29,23.43,42.95,54.38,47.05,91,4.08,36.44,2.37,72.85,2,109.3a147.42,147.42,0,0,1-6.72,44.26c-.43,1.32-1.11,2.56-1.67,3.84Z"/>
    </g>
  </g>
</svg>
