<svg xmlns="http://www.w3.org/2000/svg" viewBox="0 0 400 600">
  <defs>
    <style>
      .cls-1 {
        fill: #fff;
      }

      .cls-2 {
        opacity: 0.51;
      }

      .cls-3 {
        fill: #fefefe;
      }

      .cls-4 {
        fill: #6b6b6b;
      }

      .cls-5 {
        fill: #fcfcfc;
      }

      .cls-6 {
        fill: #7c7c7c;
      }

      .cls-7 {
        fill: #737373;
      }

      .cls-8 {
        fill: #717171;
      }

      .cls-9 {
        fill: #787878;
      }

      .cls-10 {
        fill: #919191;
      }
    </style>
  </defs>
  <title>FaceChubbyF</title>
  <g id="Capa_2" data-name="Capa 2">
    <g>
      <path id="s" d="M216.73,91.39c6.67,1.23,13.38,2.29,20,3.7,20.39,4.35,36.5,16.2,51.71,29.66C327.12,159,341.14,202.6,337.6,253c-.7,9.94-1,19.91-1.41,29.87-1.28,30-1.71,60.17-9.7,89.49a90.55,90.55,0,0,1-13.8,28.23c-22.16,31.52-50.78,55.63-84.84,73.36-10.35,5.38-21.7,5-32.94,4.59a53.85,53.85,0,0,1-25.33-7.36c-31.34-17.86-58.11-40.74-79.14-70.26-10.31-14.45-15.33-30.67-18.09-47.87C68.24,327.48,67,301.71,67,275.84c0-8.31-1.2-16.63-1.79-24.94-2.7-38.36,5.84-73.76,29.08-104.78,12.41-16.56,28.13-29.88,45.81-40.64,13.05-7.94,27.52-11.82,42.67-13.32a30.88,30.88,0,0,0,3.53-.77ZM335.31,243.67c-1.25-47.32-14.87-86.44-49.71-116.35-11.24-9.66-22.65-19.06-36.74-24.38-11.34-4.29-23.18-6.17-35.25-6.66-17.24-.7-34.43-.46-51.28,4-11.7,3.07-21.87,9.07-31.61,16.11C89.34,146.25,69,187.08,68.23,237.69c-.23,14.54,1.27,29.11,2.22,43.66,1.8,27.41,3.53,54.82,8.55,81.92a94.76,94.76,0,0,0,17.15,39.05c21.7,29.85,50,51.77,82.09,69.3a11.33,11.33,0,0,0,4.64,1.48c9.68.41,19.38.91,29.06.8,4.29,0,9.09-.44,12.74-2.4,33.21-17.81,62.2-40.68,84.07-71.84a85.81,85.81,0,0,0,14.81-34.36c3.21-17.64,5.84-35.32,6.62-53.27.48-10.92,1.71-21.8,2.39-32.72.27-4.21-.4-8.49,0-12.69C333.36,258.08,334.59,249.58,335.31,243.67Z"/>
      <path id="skin"  fill="$[skinColor]" d="M335.31,243.67c-.72,5.91-1.95,14.41-2.75,23-.39,4.2.28,8.48,0,12.69-.68,10.92-1.91,21.8-2.39,32.72-.78,18-3.41,35.63-6.62,53.27a85.81,85.81,0,0,1-14.81,34.36c-21.87,31.16-50.86,54-84.07,71.84-3.65,2-8.45,2.35-12.74,2.4-9.68.11-19.38-.39-29.06-.8a11.33,11.33,0,0,1-4.64-1.48c-32.06-17.53-60.39-39.45-82.09-69.3A94.76,94.76,0,0,1,79,363.27c-5-27.1-6.75-54.51-8.55-81.92-1-14.55-2.45-29.12-2.22-43.66.81-50.61,21.11-91.44,62.49-121.35,9.74-7,19.91-13,31.61-16.11,16.85-4.41,34-4.65,51.28-4,12.07.49,23.91,2.37,35.25,6.66,14.09,5.32,25.5,14.72,36.74,24.38C320.44,157.23,334.06,196.35,335.31,243.67Z"/>
    </g>
   
  </g>
</svg>
