<svg id="Capa_1" data-name="Capa 1" xmlns="http://www.w3.org/2000/svg" viewBox="0 0 400 600">
  <defs>
    <style>
      .cls-1 {
        fill: #fff;
      }
    </style>
  </defs>
  <title>facef_3</title>
  <g>
    <path id="lines" d="M338.3,240.9c-.25,8-.5,15.32-.8,22.17C335,296,330,329,319,361a230,230,0,0,1-9.94,26C294,431,252,458,206,462c-55,4-108-31-120-84.9-2.31-6.94-4.29-14-6-21.1-3-9-7-18-9-28-5-17-5-35-5.1-51.77-.42-11.58-.7-23.23-1.45-34.88a323.8,323.8,0,0,1,3.4-73.7C73,136,86.9,108.4,113.3,88.7c9.4-7.1,19-14.2,29.4-19.5,8.1-4.2,17.5-6.6,26.6-8.1,11.6-2,23.5-3.6,35.2-3,22.6,1.1,45.4,3.2,64.9,16.7,16.9,11.6,33.8,23.5,44.6,41.5,12.4,20.5,21.1,42.2,21.7,66.7C336.6,205.6,337.8,228.2,338.3,240.9ZM81.65,305.81A195.61,195.61,0,0,0,82,334.57a198.35,198.35,0,0,0,4.52,28.13C94,425,155,465,216,458c43-5,78-39,91.22-79.19q4-10.25,7-20.76c9.94-35,11.24-72.12,1.55-108.6a205.93,205.93,0,0,0-18.62-30.09c-6.91-9.54-14.28-18.76-21.38-28.21-8.7-11.5-19.2-18-33.4-19.1-27.8-2.1-55.6-2.4-83.3.2-8.2.8-17.1,1.7-23,8.4-17.2,19.3-33.7,39.1-46,61.9-4.5,8.3-9.3,16.7-9.37,26.59C80.64,281.44,81.13,293.64,81.65,305.81ZM320.73,339C334,317,335,290,335.37,265.42q.45-13.59.44-27.27a509.66,509.66,0,0,0-2.61-54.65c-4.1-36.6-18.1-67.5-47-91-11.5-9.3-23.1-18.8-37.6-23.3-27.7-8.6-55.8-8.5-84-3.3-18.6,3.5-33.3,14.3-47.9,25.6C91.9,110.6,78.5,136.4,71.6,166a175.79,175.79,0,0,0-4,34.7c-.35,14.55-.5,29.12-.57,43.7q0,10.93,0,21.84C67,291,67,317,79,340c1-26-2-52,.75-78.15A74,74,0,0,1,88,239.87,229,229,0,0,1,100.7,220.2c8.4-12,18-23.1,27.4-34.2,3.8-4.5,8.1-9.5,13.3-11.7a66.6,66.6,0,0,1,23.2-5.4c23.1-.8,46.3-.9,69.4-.3,8.2.2,16.4,2.7,24.4,4.9a24,24,0,0,1,9.5,6c4.4,4.3,8,9.3,12.1,13.9,11.7,13.2,22.7,27,31.5,42.4a125.59,125.59,0,0,1,9.13,18.75C327,272,323,290,322.32,307.77,321.51,318.28,321.24,328.66,320.73,339Z"/>
    <path id="skin" fill="$[skinColor]"  d="M81.65,305.81c-.52-12.17-1-24.37-1.12-36.72.07-9.89,4.87-18.29,9.37-26.59,12.3-22.9,28.9-42.7,46-61.9,5.9-6.6,14.8-7.6,23-8.4,27.7-2.6,55.5-2.3,83.3-.2,14.2,1.1,24.7,7.6,33.4,19.1,7.1,9.4,14.5,18.6,21.42,28.14A198.37,198.37,0,0,1,315.6,249.4c9.31,36.48,8,73.56-1.89,108.6q-3,10.51-6.93,20.76C295,411,274,439,241,451c-66,24-146-15-154.44-88.26a210.28,210.28,0,0,1-5.64-56.88Z"/>
    <path id="head" fill="$[hairColor]"  d="M320.73,339C319,311,329,282,320.43,254.51a122.4,122.4,0,0,0-9.13-18.71c-8.8-15.4-19.7-29.2-31.5-42.4-4.1-4.6-7.7-9.6-12.1-13.9a23.3,23.3,0,0,0-9.5-6c-8-2.2-16.2-4.7-24.4-4.9-23.1-.6-46.3-.5-69.4.3a66.6,66.6,0,0,0-23.2,5.4c-5.2,2.2-9.4,7.2-13.3,11.7-9.5,11.1-19.1,22.3-27.4,34.2a229,229,0,0,0-12.72,19.67A74,74,0,0,0,79.5,261.8C77,288,80,314,79,340c-11-23-12-49-12.09-73.71q-.09-10.9,0-21.84c.07-14.58.22-29.15.57-43.7a175.79,175.79,0,0,1,4-34.7c6.9-29.6,20.4-55.4,45.1-74.5,14.6-11.3,29.3-22.1,47.9-25.6,28.2-5.3,56.3-5.4,84,3.3,14.5,4.5,26,14,37.6,23.3,29,23.4,42.9,54.4,47,91a494.64,494.64,0,0,1,2.68,54.65q0,13.66-.45,27.27C334,290,335,317,321.41,339.23,321.32,339.13,321,339.13,320.73,339Z"/>
  </g>
</svg>
