<svg xmlns="http://www.w3.org/2000/svg" viewBox="0 0 400 600">
  <defs>
    <style>
      .cls-1 {
        isolation: isolate;
      }

      .cls-2 {
        fill: #fff;
      }

      .cls-3 {
        opacity: 0.34;
        mix-blend-mode: multiply;
      }

      .cls-4 {
        fill: #ff7373;
      }
    </style>
  </defs>
  <title>facef_2</title>
  <g class="cls-1">
    <g id="Capa_1" data-name="Capa 1">
      <g>
        <path id="lines" d="M216.29,97.54c6.7,1.2,13.4,2.3,20,3.7,20.4,4.3,36.5,16.2,51.7,29.7,38.7,34.2,52.7,77.9,49.1,128.3-.7,9.9-1,19.9-1.4,29.9-1.3,30-1.7,60.2-9.7,89.5a89.22,89.22,0,0,1-13.8,28.2c-22.2,31.5-50.8,55.6-84.8,73.4-10.3,5.4-21.7,5-32.9,4.6a53.84,53.84,0,0,1-25.3-7.4c-31.3-17.9-58.1-40.7-79.1-70.3-10.3-14.5-15.3-30.7-18.1-47.9-4.1-25.6-5.3-51.3-5.3-77.2,0-8.3-1.2-16.6-1.8-24.9-2.7-38.4,5.8-73.8,29.1-104.8,12.4-16.6,28.1-29.9,45.8-40.6,13-7.9,27.5-11.8,42.7-13.3a19.82,19.82,0,0,0,3.5-.8C196.09,97.54,206.19,97.54,216.29,97.54Zm118.6,152.3c-1.3-47.3-14.9-86.4-49.7-116.4-11.2-9.7-22.7-19.1-36.7-24.4-11.3-4.3-23.2-6.2-35.2-6.7-17.2-.7-34.4-.5-51.3,4-11.7,3.1-21.9,9.1-31.6,16.1-41.5,29.9-61.8,70.8-62.6,121.4-.2,14.5,1.3,29.1,2.2,43.7,1.8,27.4,3.5,54.8,8.5,81.9a94.56,94.56,0,0,0,17.2,39c21.7,29.9,50,51.8,82.1,69.3a11.33,11.33,0,0,0,4.6,1.5c9.7.4,19.4.9,29.1.8,4.3,0,9.1-.4,12.7-2.4,33.2-17.8,62.2-40.7,84.1-71.8,7.3-10.5,12.5-21.7,14.8-34.4,3.2-17.6,5.8-35.3,6.6-53.3.5-10.9,1.7-21.8,2.4-32.7.3-4.2-.4-8.5,0-12.7C333,264.24,334.19,255.74,334.89,249.84Z"/>
        <path id="skin" fill="$[skinColor]" d="M334.89,249.84c-.7,5.9-2,14.4-2.8,23-.4,4.2.3,8.5,0,12.7-.7,10.9-1.9,21.8-2.4,32.7-.8,17.9-3.4,35.6-6.6,53.3-2.3,12.6-7.5,23.9-14.8,34.4-21.9,31.2-50.9,54-84.1,71.8-3.6,2-8.5,2.3-12.7,2.4-9.7.1-19.4-.4-29.1-.8a10.86,10.86,0,0,1-4.6-1.5c-32.1-17.5-60.4-39.4-82.1-69.3a95.14,95.14,0,0,1-17.2-39c-5-27.1-6.7-54.5-8.5-81.9-1-14.5-2.5-29.1-2.2-43.7.8-50.6,21.1-91.4,62.5-121.4,9.7-7,19.9-13,31.6-16.1,16.9-4.4,34-4.6,51.3-4,12.1.5,23.9,2.4,35.2,6.7,14.1,5.3,25.5,14.7,36.7,24.4C320,163.34,333.69,202.54,334.89,249.84Z"/>
      </g>
      <g class="cls-3">
        <ellipse class="cls-4" cx="131.07" cy="291.29" rx="45.85" ry="25.67"/>
        <ellipse class="cls-4" cx="268.95" cy="291.45" rx="46" ry="25.5"/>
      </g>
    </g>
  </g>
</svg>
