<svg xmlns="http://www.w3.org/2000/svg" viewBox="0 0 400 600">
  <defs>
    <style>
      .cls-1 {
        fill: #fff;
      }
    </style>
  </defs>
  <title>faceRoundF</title>
  <g id="Capa_2" data-name="Capa 2">
    <g id="skin">
      <path d="M192.81,485.06c-6.91-1.81-13.93-3.26-20.7-5.5-26.9-8.88-47.28-26.14-62.42-49.78-16.47-25.7-29.94-52.64-35-83.22-1.58-9.46-6-18.55-6.85-28C66,299.35,65.49,280,65,260.75c-.56-20.64-1-41.31-.58-61.94.29-13.29,1.17-26.77,3.77-39.77,6.16-30.85,19.36-58.1,45.41-77.39,9.73-7.2,19.67-14.36,30.35-20,7.5-3.94,16.25-6.11,24.7-7.48,11.79-1.91,23.87-3.66,35.72-3.1,22.62,1.06,45.33,3.2,65,16.43,22.79,15.33,42.81,32.85,54.38,59,8.08,18.24,11.92,37,12.87,56.58.72,14.94,1.05,29.92,1.07,44.89,0,21.82,0,43.65-.72,65.45-.54,16.28-1.57,32.59-7.74,48.09-1.82,4.58-2.3,9.7-3.53,14.53-9.36,36.66-25.95,69.55-52.19,97-16.54,17.31-37.59,26.58-60.87,31.1a23.44,23.44,0,0,0-2.8.91ZM322.09,299.57h-.31c0-10.32-.24-20.65.07-31,.27-9.27-2.1-17.66-6.13-25.93-11.18-23-27.7-42.18-43.19-62.17-7.74-10-17.81-14.3-29.58-15.33a461.83,461.83,0,0,0-84.3.1c-8.17.78-17.21,1.72-22.88,8.53C123.21,188.86,110.64,204,99.41,220c-11.89,17-21,34.81-19.12,57.33,1.65,19.46-.62,39.26-1.22,58.9-.13,4.22-1.39,8.6-.65,12.63,6,32.11,20.74,60.37,39.78,86.4a119.12,119.12,0,0,0,22.45,23.29c25.53,20,54.55,26.83,86.06,18.07a98.11,98.11,0,0,0,45.37-27.19c21.16-22.29,35.32-48.78,45.55-77.38,3.27-9.17,6.55-18.27,5-29.16C320.53,328.75,322.09,314.05,322.09,299.57Zm4,31.53,1.46.22a11,11,0,0,0,1.37-2.85c2.17-14.27,5.67-28.51,6.09-42.84,1.06-36.43,2.3-72.88-1.81-109.32s-18-67.24-46.81-90.62c-11.64-9.46-23.32-19-38-23.54-27.54-8.56-55.48-8.42-83.54-3.25C146,62.37,131.17,73.32,116.42,84.73c-24.73,19.13-38.31,45-44.91,74.61-3.09,13.89-4.15,28.4-4.58,42.68-.73,24-.81,48,0,72,.55,16.24,3,32.43,4.83,48.62.35,3,1.78,6,2.71,9l1.52-.3a14.93,14.93,0,0,0,.76-3.1c.47-12.81.87-25.63,1.31-38.45.39-11.44-.2-23,1.48-34.26,2.39-16.05,12-29.21,21-42.13,8.36-12,18-23.09,27.44-34.24,3.82-4.5,8.08-9.5,13.24-11.75a65,65,0,0,1,23.18-5.42q34.68-1.15,69.41-.33c8.18.2,16.39,2.66,24.37,4.86a23.15,23.15,0,0,1,9.48,6c4.37,4.29,8,9.3,12.1,13.91,11.72,13.24,22.67,27,31.47,42.45,7,12.28,12.86,24.65,12.88,39.33,0,19.46.9,38.91,1.44,58.37C325.61,328,325.89,329.54,326.06,331.1Z"/>
      <path  fill="$[skinColor]" d="M322.09,299.57c0,14.48-1.56,29.18.5,43.36,1.59,10.89-1.69,20-5,29.16-10.23,28.6-24.39,55.09-45.55,77.38a98.11,98.11,0,0,1-45.37,27.19c-31.51,8.76-60.53,1.91-86.06-18.07A119.12,119.12,0,0,1,118.2,435.3c-19-26-33.81-54.29-39.78-86.4-.74-4,.52-8.41.65-12.63.6-19.64,2.87-39.44,1.22-58.9C78.39,254.85,87.52,237,99.41,220c11.23-16,23.8-31.18,36.36-46.24,5.67-6.81,14.71-7.75,22.88-8.53a461.83,461.83,0,0,1,84.3-.1c11.77,1,21.84,5.32,29.58,15.33,15.49,20,32,39.17,43.19,62.17,4,8.27,6.4,16.66,6.13,25.93-.31,10.32-.07,20.65-.07,31Z"/>
      <path id="head"  fill="$[hairColor]"  d="M326.06,331.1c-.17-1.56-.45-3.11-.5-4.66-.54-19.46-1.41-38.91-1.44-58.37,0-14.68-5.89-27-12.88-39.33-8.8-15.44-19.75-29.21-31.47-42.45-4.08-4.61-7.73-9.62-12.1-13.91a23.15,23.15,0,0,0-9.48-6c-8-2.2-16.19-4.66-24.37-4.86q-34.68-.83-69.41.33a65,65,0,0,0-23.18,5.42c-5.16,2.25-9.42,7.25-13.24,11.75-9.46,11.15-19.08,22.27-27.44,34.24-9,12.92-18.62,26.08-21,42.13-1.68,11.24-1.09,22.82-1.48,34.26-.44,12.82-.84,25.64-1.31,38.45a14.93,14.93,0,0,1-.76,3.1l-1.52.3c-.93-3-2.36-5.91-2.71-9-1.83-16.19-4.28-32.38-4.83-48.62-.81-24-.73-48,0-72,.43-14.28,1.49-28.79,4.58-42.68,6.6-29.64,20.18-55.48,44.91-74.61C131.17,73.32,146,62.37,164.83,58.9c28.06-5.17,56-5.31,83.54,3.25,14.67,4.56,26.35,14.08,38,23.54,28.77,23.38,42.7,54.2,46.81,90.62S336,249.2,335,285.63c-.42,14.33-3.92,28.57-6.09,42.84a11,11,0,0,1-1.37,2.85Z"/>
    </g>
  </g>
</svg>
