<?xml version="1.0" encoding="utf-8"?>
<!-- Generator: Adobe Illustrator 27.2.0, SVG Export Plug-In . SVG Version: 6.00 Build 0)  -->
<svg version="1.1" id="Layer_1" xmlns="http://www.w3.org/2000/svg" xmlns:xlink="http://www.w3.org/1999/xlink" x="0px" y="0px"
	 viewBox="0 0 400 600" style="enable-background:new 0 0 400 600;" xml:space="preserve">
<path id="head_1_00000089567859523160578520000009673457217093082788_" fill="$[skinColor]" stroke="#000" stroke-width="6" d="M196.8,102.9c14.2-0.4,66-1.9,105.3,33.1
	c0,0,52,46.2,47.9,164.3c-0.3,7.9-0.9,15.9-0.9,15.9c0,0,0,0,0,0c-0.7,8.8-1.9,16.5-4.1,34.8c-5.6,46.5-9.3,54.3-12,59
	c-10.1,17.8-17.4,12.8-44,39c-27.7,27.3-27.5,40.5-48,48c-10.2,3.8-19.5,3.8-38,4c-19.9,0.2-30.4,0.3-42-4
	c-19.5-7.1-19.5-18.2-50-46c-26-23.7-29.7-19-39-33c-4.5-6.8-9.2-16.3-16-65c-2.9-21.1-4.3-28.8-5.1-37.2c0,0-0.7-8-0.9-15.5
	c-4.5-119.5,56.4-167.9,56.4-167.9C141.4,104.4,182.1,103.3,196.8,102.9z"/>
</svg>
