<?xml version="1.0" encoding="UTF-8"?><svg id="Layer_2" xmlns="http://www.w3.org/2000/svg" viewBox="0 0 400 600"><path class="cls-1" fill="$[skinColor]" stroke="#000000" stroke-width="6" d="M350,300c0,24.17-1.16,48.73-8.9,71.83-10.41,31.06-31.72,57.34-55.55,79.26-22.3,20.51-51.44,47.78-83.37,48.87-.68,.03-1.37,.04-2.06,.04h-.24c-.69,0-1.38-.01-2.06-.04-31.93-1.09-61.07-28.36-83.37-48.87-23.83-21.92-45.14-48.2-55.55-79.26-7.74-23.1-8.9-47.66-8.9-71.83,0-139.94,49.96-199.95,149.88-200h.24c99.92,.05,149.88,60.06,149.88,200Z"/></svg>