<?xml version="1.0" encoding="utf-8"?>
<!-- Generator: Adobe Illustrator 27.2.0, SVG Export Plug-In . SVG Version: 6.00 Build 0)  -->
<svg version="1.1" xmlns="http://www.w3.org/2000/svg" xmlns:xlink="http://www.w3.org/1999/xlink" x="0px" y="0px"
	 viewBox="0 0 400 600" style="enable-background:new 0 0 400 600;" xml:space="preserve">
<g id="Layer_2">
	<path fill="$[skinColor]" stroke="#000" stroke-width="6" d="M200,100.3c10.8,0.2,55,2,93,33.7
		c51.3,42.8,54.4,109.2,57,166.3c0.8,18-0.1,33.6-5,50.7c-4.2,14.6-13,35.4-40,65c-40.6,44.4-67.5,73.8-106,74
		c-43.4,0.2-74.9-36.7-106-73c-26.1-30.5-34.2-54.4-37-64c-5.3-18.1-6.4-34.2-6-52.7c1.5-67.5,2.5-114.8,38-153.3
		C131,100.3,193.4,100.2,200,100.3z"/>
</g>
</svg>
