<svg xmlns="http://www.w3.org/2000/svg" viewBox="0 0 400 600" width="400" height="600">
	<path id="head 12" class="head" d="M200 100C300 100 350 160 350 300C350 420 350 440 250 480C240 490 220 500 200 500C180 500 160 490 150 480C50 440 50 420 50 300C50 160 100 100 200 100Z" fill="$[skinColor]" stroke="#000000" stroke-width="6"/>
	<path id="headShave" class="headShave" d="M60 300L50 300C50 160 100 100 200 100C300 100 350 160 350 300L340 300C340 300 340 295 340 290C340 285 330 270 325 265C320 260 320 210 310 200C270 160 250 200 200 200C150 200 130 160 90 200C80 210 80 260 75 265C70 270 60 285 60 290C60 295 60 300 60 300Z" fill="$[headShave]"/>
	<path id="faceShave" class="faceShave" d="M200 410C230 410 250 420 250 420C280 420 340 405 340 300L350 300C350 420 350 440 250 480C236.87 485.25 220 500 200 500C180 500 163.13 485.25 150 480C50 440 50 420 50 300L60 300C60 405 120 420 150 420C150 420 170 410 200 410Z"  fill="$[faceShave]"/>
</svg>