<?xml version="1.0" encoding="UTF-8" standalone="no"?>
<!-- Created with Inkscape (http://www.inkscape.org/) -->

<svg
   xmlns:dc="http://purl.org/dc/elements/1.1/"
   xmlns:cc="http://creativecommons.org/ns#"
   xmlns:rdf="http://www.w3.org/1999/02/22-rdf-syntax-ns#"
   xmlns:svg="http://www.w3.org/2000/svg"
   xmlns="http://www.w3.org/2000/svg"
   xmlns:sodipodi="http://sodipodi.sourceforge.net/DTD/sodipodi-0.dtd"
   xmlns:inkscape="http://www.inkscape.org/namespaces/inkscape"
   width="600"
   height="400"
   viewBox="0 0 158.75 105.83334"
   version="1.1"
   id="svg8"
   inkscape:version="0.92.2 (5c3e80d, 2017-08-06)"
   sodipodi:docname="grimmace.svg">
  <defs
     id="defs2" />
  <sodipodi:namedview
     id="base"
     pagecolor="#ffffff"
     bordercolor="#666666"
     borderopacity="1.0"
     inkscape:pageopacity="0.0"
     inkscape:pageshadow="2"
     inkscape:zoom="3.959798"
     inkscape:cx="356.93777"
     inkscape:cy="234.71112"
     inkscape:document-units="mm"
     inkscape:current-layer="g3811"
     showgrid="false"
     inkscape:window-width="1920"
     inkscape:window-height="1147"
     inkscape:window-x="1912"
     inkscape:window-y="-8"
     inkscape:window-maximized="1"
     units="px" />
  <metadata
     id="metadata5">
    <rdf:RDF>
      <cc:Work
         rdf:about="">
        <dc:format>image/svg+xml</dc:format>
        <dc:type
           rdf:resource="http://purl.org/dc/dcmitype/StillImage" />
        <dc:title></dc:title>
      </cc:Work>
    </rdf:RDF>
  </metadata>
  <g
     inkscape:label="Layer 1"
     inkscape:groupmode="layer"
     id="layer1"
     transform="translate(0,-191.16665)">
    <g
       id="g3710">
      <g
         id="g3811"
         transform="matrix(4.0579015,0,0,4.0579015,-251.62294,-736.76684)">
        <path
           style="fill:#ffffff;stroke-width:5.16661415;stroke:#ffffff;stroke-opacity:1;stroke-miterlimit:4;stroke-dasharray:none"
           d="m 267.53927,148.00304 c -11.08109,-0.24838 -16.41498,-0.77815 -16.41498,-1.63037 0,-0.77796 5.72298,-1.64461 14.14214,-2.14158 27.32967,-1.61324 82.93903,-1.00233 93.97359,1.03237 1.85421,0.34191 3.21238,0.89465 3.00857,1.22442 -0.51332,0.83057 -5.18841,1.23089 -17.82275,1.52614 -11.75825,0.27478 -64.47388,0.26725 -76.88657,-0.011 z"
           id="path3881"
           inkscape:connector-curvature="0"
           transform="matrix(0.06520201,0,0,0.06520201,62.008144,228.67324)" />
        <path
           style="fill:#ffffff;stroke:#ffffff;stroke-width:3.94960629;stroke-miterlimit:4;stroke-dasharray:none;stroke-opacity:1"
           d="m 193.09103,229.0295 c -0.40109,-0.40109 -0.38228,-1.10239 0.091,-3.3938 1.01706,-4.92391 2.50143,-8.73242 4.36634,-11.2029 3.2925,-4.36165 9.19556,-7.07263 26.08126,-11.97781 24.93166,-7.24247 39.88919,-8.77782 85.83095,-8.81029 30.44779,-0.0215 42.49016,0.61663 56.69482,3.00438 12.9433,2.17572 34.84107,8.27211 41.66879,11.60069 6.30841,3.07541 8.59756,6.14798 11.75716,15.78086 0.83416,2.54314 1.48474,4.70459 1.44574,4.80322 -0.039,0.0986 -3.99157,-1.39534 -8.78348,-3.31993 -15.78994,-6.34177 -26.7719,-9.56727 -40.27984,-11.83058 -17.64132,-2.95586 -40.37313,-4.40218 -69.19545,-4.40258 -20.74741,-2.9e-4 -32.95379,0.72113 -46.97209,2.77614 -17.32837,2.54024 -29.19632,5.75205 -56.02723,15.16258 -3.31358,1.16219 -6.10349,2.11307 -6.19981,2.11307 -0.0963,0 -0.3115,-0.13637 -0.47818,-0.30305 z"
           id="path4688"
           inkscape:connector-curvature="0"
           transform="matrix(0.06520201,0,0,0.06520201,62.008144,228.67324)" />
        <path
           style="fill:#000000;stroke-width:0.13578901"
           d="m 71.203965,247.39376 c -0.293291,-0.29329 -0.3333,-0.45287 -0.3333,-1.32936 0,-1.03172 0.262808,-2.29891 0.607692,-2.93013 0.186815,-0.34191 0.198075,-0.29494 0.189532,0.7907 -0.01108,1.40849 0.09283,2.0042 0.426673,2.44594 0.245373,0.32469 0.305838,0.33613 1.565201,0.29621 0.815919,-0.0259 1.27948,0.008 1.22913,0.0893 -0.04446,0.0719 -0.534767,0.31977 -1.08957,0.55074 -1.283479,0.53431 -2.119764,0.56222 -2.595358,0.0866 z m 19.16131,-0.0756 c -1.419113,-0.60524 -1.436206,-0.72401 -0.09179,-0.63775 0.672525,0.0431 1.26749,0.0146 1.452367,-0.0696 0.498427,-0.2271 0.734572,-1.03014 0.740699,-2.51881 0.0049,-1.19826 0.0228,-1.28928 0.192084,-0.97819 0.333112,0.61216 0.617213,1.98184 0.617213,2.97565 0,0.84993 -0.04157,1.01261 -0.333301,1.30434 -0.471599,0.4716 -1.354925,0.44568 -2.577277,-0.0756 z m -13.194012,-0.83515 c -0.139053,-0.22499 0.404034,-0.62125 1.158547,-0.84531 0.353486,-0.10498 1.325093,-0.26622 2.159128,-0.35832 2.335355,-0.25789 5.329187,0.13612 6.153704,0.80987 0.240116,0.19621 0.28066,0.29975 0.163925,0.41863 -0.117792,0.11995 -0.411751,0.0978 -1.222101,-0.0922 -1.464163,-0.34326 -5.778149,-0.34612 -7.151989,-0.005 -1.098674,0.273 -1.135721,0.27512 -1.261214,0.0721 z m -2.890137,-1.69296 c -0.950737,-0.47378 -1.074284,-0.76666 -0.780434,-1.85015 0.310242,-1.14392 1.514488,-3.55004 2.565231,-5.1254 0.979744,-1.46891 1.657342,-2.01345 3.034863,-2.43892 1.016792,-0.31406 1.313876,-0.24721 2.11401,0.47566 0.285875,0.25827 0.641631,0.46958 0.790568,0.46958 0.148938,0 0.504694,-0.21131 0.790569,-0.46958 0.907728,-0.82008 1.375359,-0.85798 2.800365,-0.22697 1.059356,0.4691 1.48893,0.8749 2.426033,2.29181 1.370833,2.07271 2.176278,3.82834 2.454214,5.34943 0.07502,0.4106 0.03112,0.56516 -0.258245,0.90905 -0.191752,0.22788 -0.559151,0.54443 -0.816443,0.70345 l -0.467802,0.28912 -0.908302,-0.36338 c -3.296078,-1.31864 -7.484522,-1.5177 -10.70511,-0.50878 -0.597471,0.18717 -1.313021,0.45548 -1.590111,0.59623 -0.633873,0.32198 -0.594812,0.32471 -1.449406,-0.10115 z m 1.885311,-1.68083 c 1.946953,-0.65047 3.755648,-0.85841 6.721273,-0.77272 2.764282,0.0799 4.184422,0.3153 5.773273,0.95707 l 0.822277,0.33213 -0.08985,-0.29166 c -0.256821,-0.83369 -0.455464,-1.02532 -1.348909,-1.30128 -2.09125,-0.64592 -2.982449,-0.75607 -6.03914,-0.74643 -3.065535,0.01 -4.019776,0.13005 -6.010224,0.75824 -0.968404,0.30563 -1.211961,0.52655 -1.38102,1.25262 -0.07877,0.33828 -0.0582,0.37767 0.153582,0.29412 0.13449,-0.0531 0.763921,-0.27 1.398735,-0.48209 z m 9.437336,-4.92543 c -0.38397,-0.23414 -6.812847,-0.23414 -7.196817,0 -0.217717,0.13277 0.495955,0.16561 3.598408,0.16561 3.102455,0 3.816125,-0.0328 3.598409,-0.16561 z"
           id="path3873"
           inkscape:connector-curvature="0" />
      </g>
    </g>
  </g>
</svg>
