<?xml version="1.0" encoding="UTF-8" standalone="no"?>
<!-- Created with Inkscape (http://www.inkscape.org/) -->

<svg
   xmlns:dc="http://purl.org/dc/elements/1.1/"
   xmlns:cc="http://creativecommons.org/ns#"
   xmlns:rdf="http://www.w3.org/1999/02/22-rdf-syntax-ns#"
   xmlns:svg="http://www.w3.org/2000/svg"
   xmlns="http://www.w3.org/2000/svg"
   xmlns:sodipodi="http://sodipodi.sourceforge.net/DTD/sodipodi-0.dtd"
   xmlns:inkscape="http://www.inkscape.org/namespaces/inkscape"
   width="600"
   height="400"
   viewBox="0 0 158.75 105.83334"
   version="1.1"
   id="svg8"
   inkscape:version="0.92.2 (5c3e80d, 2017-08-06)"
   sodipodi:docname="open-stern.svg">
  <defs
     id="defs2" />
  <sodipodi:namedview
     id="base"
     pagecolor="#ffffff"
     bordercolor="#666666"
     borderopacity="1.0"
     inkscape:pageopacity="0.0"
     inkscape:pageshadow="2"
     inkscape:zoom="0.7"
     inkscape:cx="416.31338"
     inkscape:cy="403.03819"
     inkscape:document-units="mm"
     inkscape:current-layer="g3811"
     showgrid="false"
     inkscape:window-width="1920"
     inkscape:window-height="1147"
     inkscape:window-x="1912"
     inkscape:window-y="-8"
     inkscape:window-maximized="1"
     units="px" />
  <metadata
     id="metadata5">
    <rdf:RDF>
      <cc:Work
         rdf:about="">
        <dc:format>image/svg+xml</dc:format>
        <dc:type
           rdf:resource="http://purl.org/dc/dcmitype/StillImage" />
        <dc:title></dc:title>
      </cc:Work>
    </rdf:RDF>
  </metadata>
  <g
     inkscape:label="Layer 1"
     inkscape:groupmode="layer"
     id="layer1"
     transform="translate(0,-191.16665)">
    <g
       id="g3710">
      <g
         id="g3811"
         transform="matrix(4.0579015,0,0,4.0579015,-251.62294,-736.76684)">
        <path
           style="fill:#ffffff;stroke-width:0.12027596"
           d="m 73.77508,238.84693 c 0.421622,-0.68496 2.121658,-2.60018 2.616043,-2.94718 0.873596,-0.61317 1.473061,-0.60803 3.205243,0.0273 1.357025,0.49781 1.624009,0.55038 2.805212,0.55233 1.188325,0.001 1.440089,-0.0474 2.80616,-0.55006 2.490981,-0.91657 3.164297,-0.62038 5.377994,2.36579 0.521151,0.70301 0.601957,0.86538 0.400871,0.80546 -1.744537,-0.51968 -4.147188,-0.93196 -6.492019,-1.11393 -3.053521,-0.23696 -6.823096,0.10937 -9.654638,0.8869 -1.285003,0.35288 -1.298321,0.35255 -1.064866,-0.0266 z"
           id="path3858"
           inkscape:connector-curvature="0" />
        <path
           style="fill:#000000;stroke-width:0.17726797"
           d="m 79.230008,249.37287 c -0.62472,-0.52567 -0.744386,-0.94142 -0.151426,-0.5261 0.600004,0.42026 1.076459,0.33564 1.929875,-0.34276 0.615081,-0.48894 0.938204,-0.61908 1.540528,-0.62044 0.83762,-0.002 1.53916,0.29352 2.057671,0.86647 0.408848,0.45177 1.113045,0.47979 1.705343,0.0679 l 0.438297,-0.30483 -0.285083,0.43778 c -0.156797,0.24078 -0.485196,0.55189 -0.72978,0.69135 -0.398851,0.22743 -0.537329,0.21372 -1.343191,-0.13295 -1.118067,-0.48098 -2.357411,-0.49129 -3.378197,-0.0281 -0.994029,0.45105 -1.129041,0.44285 -1.784037,-0.10829 z m -2.461165,-4.62993 c -0.457542,-0.47565 -1.285067,-1.38815 -1.838945,-2.02777 -1.596478,-1.84363 -2.699476,-2.16934 -4.045168,-1.19453 -0.671939,0.48675 -0.85692,0.53928 -1.559808,0.44294 -0.990851,-0.13581 -1.368594,-0.40459 -1.071577,-0.76248 0.420968,-0.50723 0.843549,-0.61801 1.255854,-0.32922 0.214991,0.15058 0.543925,0.27379 0.730965,0.27379 0.367121,0 6.62109,-6.25507 6.709538,-6.71072 0.06839,-0.35231 0.494025,-0.47861 0.494025,-0.1466 0,0.18233 0.190215,0.26295 0.620438,0.26295 0.430224,0 0.620438,-0.0806 0.620438,-0.26295 0,-0.14462 0.09971,-0.22808 0.221585,-0.18547 0.121872,0.0426 0.201549,0.19399 0.17706,0.33638 -0.02495,0.14506 0.220589,0.38532 0.558405,0.54642 0.579562,0.27637 0.60659,0.27352 0.697348,-0.0735 0.122613,-0.46887 0.472818,-0.25143 0.472818,0.29357 0,0.26905 0.127827,0.45702 0.354536,0.52134 0.194994,0.0553 0.514077,0.14584 0.709072,0.20116 0.288591,0.0819 0.354536,0.0159 0.354536,-0.35454 0,-0.28637 0.09859,-0.45511 0.265901,-0.45511 0.163414,0 0.265902,0.16604 0.265902,0.43079 0,0.39737 0.04259,0.41858 0.548985,0.27335 0.715001,-0.20506 1.046427,-0.49109 1.046427,-0.90312 0,-0.18305 0.07977,-0.33283 0.177268,-0.33283 0.0975,0 0.177268,0.11966 0.177268,0.26591 0,0.3316 0.06866,0.33117 0.717875,-0.005 0.287651,-0.14875 0.523001,-0.38806 0.523001,-0.5318 0,-0.3259 0.333875,-0.34419 0.456362,-0.025 0.04988,0.12999 0.186979,0.23711 0.304655,0.23804 0.117675,9.2e-4 0.393441,0.0595 0.61281,0.13012 0.326426,0.10512 0.398853,0.0619 0.398853,-0.23804 0,-0.20156 0.07977,-0.36648 0.177268,-0.36648 0.0975,0 0.179285,0.17948 0.181751,0.39885 0.0059,0.5265 5.976928,6.69187 6.480908,6.69187 0.19205,0 0.52507,-0.12321 0.74007,-0.27379 0.4123,-0.28879 0.83488,-0.17801 1.25585,0.32922 0.29844,0.3596 -0.0819,0.62682 -1.08836,0.76478 -0.73005,0.10007 -0.88662,0.0543 -1.5144,-0.44294 -1.20727,-0.95617 -2.31318,-0.63734 -3.8056,1.09715 -0.50639,0.58853 -1.330509,1.49782 -1.831376,2.02065 l -0.910666,0.9506 -1.21655,-0.13994 c -1.597804,-0.18379 -5.861438,-0.17905 -7.386741,0.008 l -1.206688,0.14815 -0.831893,-0.86482 z m 3.196386,-6.94746 c 1.338078,-0.0781 3.491884,-0.081 4.786236,-0.006 2.187728,0.12617 5.462602,0.585 5.890212,0.82526 0.41532,0.23336 -0.940467,-1.08681 -1.788262,-1.74128 -1.219967,-0.94178 -2.148204,-1.05732 -3.964433,-0.49348 -1.730414,0.53719 -3.233089,0.53719 -4.963503,0 -1.816229,-0.56384 -2.744466,-0.4483 -3.964433,0.49348 -0.50074,0.38655 -1.133069,0.93545 -1.405177,1.21978 l -0.49474,0.51696 1.735616,-0.33612 c 0.954589,-0.18486 2.830407,-0.40006 4.168484,-0.47822 z m 1.210931,-4.84846 c -0.690296,-0.73651 -0.682256,-0.91284 0.03451,-0.75697 0.803008,0.17462 1.714324,0.17933 2.393117,0.0123 0.717838,-0.17658 0.726323,0.006 0.03451,0.74462 -0.761034,0.81199 -1.701107,0.81199 -2.462141,0 z"
           id="path3856"
           inkscape:connector-curvature="0" />
      </g>
    </g>
  </g>
</svg>
