<?xml version="1.0" encoding="UTF-8" standalone="no"?>
<!-- Created with Inkscape (http://www.inkscape.org/) -->

<svg
   xmlns:dc="http://purl.org/dc/elements/1.1/"
   xmlns:cc="http://creativecommons.org/ns#"
   xmlns:rdf="http://www.w3.org/1999/02/22-rdf-syntax-ns#"
   xmlns:svg="http://www.w3.org/2000/svg"
   xmlns="http://www.w3.org/2000/svg"
   xmlns:sodipodi="http://sodipodi.sourceforge.net/DTD/sodipodi-0.dtd"
   xmlns:inkscape="http://www.inkscape.org/namespaces/inkscape"
   width="600"
   height="400"
   viewBox="0 0 158.75 105.83334"
   version="1.1"
   id="svg8"
   inkscape:version="0.92.2 (5c3e80d, 2017-08-06)"
   sodipodi:docname="say-cheese.svg">
  <defs
     id="defs2" />
  <sodipodi:namedview
     id="base"
     pagecolor="#ffffff"
     bordercolor="#666666"
     borderopacity="1.0"
     inkscape:pageopacity="0.0"
     inkscape:pageshadow="2"
     inkscape:zoom="0.7"
     inkscape:cx="648.26925"
     inkscape:cy="207.20084"
     inkscape:document-units="mm"
     inkscape:current-layer="g4753"
     showgrid="false"
     inkscape:window-width="798"
     inkscape:window-height="838"
     inkscape:window-x="793"
     inkscape:window-y="0"
     inkscape:window-maximized="0"
     units="px" />
  <metadata
     id="metadata5">
    <rdf:RDF>
      <cc:Work
         rdf:about="">
        <dc:format>image/svg+xml</dc:format>
        <dc:type
           rdf:resource="http://purl.org/dc/dcmitype/StillImage" />
        <dc:title></dc:title>
      </cc:Work>
    </rdf:RDF>
  </metadata>
  <g
     inkscape:label="Layer 1"
     inkscape:groupmode="layer"
     id="layer1"
     transform="translate(0,-191.16665)">
    <g
       id="g3710">
      <g
         id="g3811"
         transform="matrix(4.0579015,0,0,4.0579015,-251.62294,-736.76684)">
        <g
           id="g4753"
           transform="translate(-1.3971859,0.18629145)">
          <path
             style="fill:#ffffff;stroke:#ffffff;stroke-width:0.70092529;stroke-miterlimit:4;stroke-dasharray:none;stroke-opacity:1"
             d="m 93.26354,240.10936 v -3.54131 l 0.39587,7e-4 c 1.797065,0.003 3.330581,0.85093 4.00034,2.2114 1.061044,2.15529 -0.352617,4.08055 -3.433507,4.67609 -0.298951,0.0578 -0.637857,0.12518 -0.753125,0.14975 l -0.209578,0.0447 z"
             id="path4817"
             inkscape:connector-curvature="0" />
          <path
             style="fill:#ffffff;stroke:#ffffff;stroke-width:0.70092529;stroke-miterlimit:4;stroke-dasharray:none;stroke-opacity:1"
             d="m 86.463902,240.67966 v -3.43319 l 1.932774,-0.0496 c 1.063025,-0.0273 2.048041,-0.095 2.188924,-0.15062 l 0.256151,-0.10103 v 3.44232 3.44231 l -0.209578,0.0451 c -0.413148,0.089 -2.493261,0.23786 -3.322702,0.23786 h -0.845569 z"
             id="path4819"
             inkscape:connector-curvature="0" />
          <path
             style="fill:#ffffff;stroke:#ffffff;stroke-width:0.70092529;stroke-miterlimit:4;stroke-dasharray:none;stroke-opacity:1"
             d="m 81.620324,244.0155 c -0.537917,-0.0364 -1.135214,-0.0712 -1.327327,-0.0775 l -0.349296,-0.0114 v -3.49066 -3.49066 l 0.25615,0.10103 c 0.140883,0.0556 1.125899,0.12334 2.188925,0.15062 l 1.932774,0.0496 v 3.43319 3.43319 l -0.861598,-0.0156 c -0.473879,-0.009 -1.301712,-0.0454 -1.839628,-0.0817 z"
             id="path4821"
             inkscape:connector-curvature="0" />
          <path
             style="fill:#ffffff;stroke:#ffffff;stroke-width:0.70092529;stroke-miterlimit:4;stroke-dasharray:none;stroke-opacity:1"
             d="m 76.279979,243.4072 c -1.149992,-0.28468 -1.95131,-0.66281 -2.555238,-1.20579 -0.655332,-0.5892 -0.94895,-1.21282 -0.94895,-2.01547 0,-2.0351 1.899351,-3.61282 4.354562,-3.61719 l 0.39587,-7e-4 v 2.967 c 0,3.13626 -0.05317,4.11598 -0.222848,4.10601 -0.05674,-0.003 -0.517268,-0.10857 -1.023396,-0.23386 z"
             id="path4823"
             inkscape:connector-curvature="0" />
          <path
             style="fill:#000000;stroke-width:0.21194595"
             d="m 78.815035,246.48075 c -4.176305,-0.46084 -6.062891,-1.14359 -7.419907,-2.68524 -1.066932,-1.2121 -1.332291,-2.06654 -1.23572,-3.97895 0.06659,-1.31843 0.176967,-1.69838 0.716487,-2.466 1.565647,-2.22766 3.565349,-2.98048 6.667465,-2.5101 0.990847,0.15023 2.326107,0.34665 2.967243,0.43646 1.508934,0.2114 8.240579,0.2114 9.749516,0 0.641135,-0.0898 1.976396,-0.28622 2.967243,-0.43646 3.102115,-0.47038 5.101816,0.28244 6.667464,2.5101 0.539524,0.76762 0.649904,1.14757 0.716484,2.466 0.0966,1.91241 -0.16878,2.76685 -1.235716,3.97895 -1.045726,1.18799 -2.871082,2.02467 -5.284457,2.42216 -2.229734,0.36727 -12.698169,0.54753 -15.276102,0.26308 z m 5.510596,-5.81208 v -3.49711 l -1.748554,-0.003 c -0.961705,-0.001 -1.96315,-0.0603 -2.225433,-0.13072 l -0.476879,-0.12783 v 3.50964 3.50964 l 0.900772,0.081 c 0.495423,0.0446 1.496866,0.0978 2.225432,0.11817 l 1.324662,0.037 z m 5.267558,3.36094 1.302766,-0.13614 v -3.49165 -3.49163 l -0.476877,0.12783 c -0.262285,0.0703 -1.263729,0.12904 -2.225433,0.13073 l -1.748555,0.003 v 3.49712 3.4971 h 0.922666 c 0.507467,0 1.508911,-0.0612 2.225433,-0.13615 z M 77.54336,240.11255 v -3.62933 l -1.152946,0.0956 c -2.789243,0.2313 -4.596663,3.04686 -3.244213,5.05376 0.607117,0.9009 1.636745,1.5018 3.121484,1.82171 0.643337,0.13853 1.193545,0.26003 1.222689,0.26979 0.02914,0.01 0.05298,-1.61542 0.05298,-3.61156 z m 18.749014,2.71194 c 1.025958,-0.56243 1.811337,-1.67541 1.805089,-2.55807 -0.01339,-1.90169 -1.640041,-3.51532 -3.717156,-3.68757 l -1.152945,-0.0956 v 3.6004 3.60039 l 1.112715,-0.19964 c 0.611995,-0.10987 1.490527,-0.40675 1.952297,-0.65989 z"
             id="path4815"
             inkscape:connector-curvature="0" />
        </g>
      </g>
    </g>
  </g>
</svg>
