<?xml version="1.0" encoding="UTF-8" standalone="no"?>
<!-- Created with Inkscape (http://www.inkscape.org/) -->

<svg
   xmlns:dc="http://purl.org/dc/elements/1.1/"
   xmlns:cc="http://creativecommons.org/ns#"
   xmlns:rdf="http://www.w3.org/1999/02/22-rdf-syntax-ns#"
   xmlns:svg="http://www.w3.org/2000/svg"
   xmlns="http://www.w3.org/2000/svg"
   xmlns:sodipodi="http://sodipodi.sourceforge.net/DTD/sodipodi-0.dtd"
   xmlns:inkscape="http://www.inkscape.org/namespaces/inkscape"
   width="600"
   height="400"
   viewBox="0 0 158.75 105.83334"
   version="1.1"
   id="svg8"
   inkscape:version="0.92.2 (5c3e80d, 2017-08-06)"
   sodipodi:docname="stern.svg">
  <defs
     id="defs2" />
  <sodipodi:namedview
     id="base"
     pagecolor="#ffffff"
     bordercolor="#666666"
     borderopacity="1.0"
     inkscape:pageopacity="0.0"
     inkscape:pageshadow="2"
     inkscape:zoom="0.7"
     inkscape:cx="416.31338"
     inkscape:cy="403.03819"
     inkscape:document-units="mm"
     inkscape:current-layer="g3710"
     showgrid="false"
     inkscape:window-width="1920"
     inkscape:window-height="1147"
     inkscape:window-x="1912"
     inkscape:window-y="-8"
     inkscape:window-maximized="1"
     units="px" />
  <metadata
     id="metadata5">
    <rdf:RDF>
      <cc:Work
         rdf:about="">
        <dc:format>image/svg+xml</dc:format>
        <dc:type
           rdf:resource="http://purl.org/dc/dcmitype/StillImage" />
        <dc:title />
      </cc:Work>
    </rdf:RDF>
  </metadata>
  <g
     inkscape:label="Layer 1"
     inkscape:groupmode="layer"
     id="layer1"
     transform="translate(0,-191.16665)">
    <g
       id="g3710">
      <path
         style="fill:#000000;stroke-width:0.61561215"
         d="m 33.567557,272.93232 c -2.285626,-0.47453 -9.252522,-4.46067 -9.252522,-5.29385 0,-0.13495 1.038847,0.28379 2.308546,0.93047 3.329255,1.69572 8.615545,3.15849 11.414409,3.15849 1.330159,0 6.197079,-1.27628 10.815382,-2.83618 7.942109,-2.68255 8.680336,-2.82129 13.629619,-2.56138 4.228628,0.22197 6.354902,0.72659 11.081023,2.6293 7.18352,2.89204 10.959424,3.0486 18.035315,0.74781 5.449192,-1.77185 5.481862,-0.88114 0.06493,1.76914 -4.915328,2.40483 -9.421522,2.55434 -18.708888,0.62075 -9.170258,-1.90922 -13.647228,-1.99338 -21.861177,-0.41095 -7.929918,1.5277 -14.069037,1.9643 -17.526605,1.2464 z M 11.043134,261.56719 c -1.1629941,-0.90126 -1.1461095,-0.96652 0.630819,-2.43762 1.55214,-1.285 1.967361,-1.38777 2.770255,-0.68578 2.856708,2.49774 3.805439,2.02489 13.375335,-6.66643 6.612399,-6.00534 11.29738,-8.66327 14.147222,-8.02622 0.95703,0.21383 4.510308,1.32051 7.896176,2.45902 8.806751,2.96134 10.218842,3.07896 16.005918,1.33331 2.708694,-0.81708 7.042507,-2.1284 9.630684,-2.91404 l 4.705782,-1.42844 3.297172,1.62314 c 1.899484,0.93509 6.2621,4.36338 10.291479,8.08742 3.84688,3.55534 7.549104,6.64035 8.227174,6.85556 0.77842,0.24706 1.86742,-0.0779 2.9545,-0.88159 l 1.72166,-1.27288 1.59391,1.25376 c 2.95924,2.32774 1.63795,3.60086 -3.75536,3.61845 -2.28926,0.007 -3.39913,-0.60327 -9.878603,-5.43595 -4.014774,-2.9944 -8.117697,-5.96725 -9.117617,-6.60636 -1.567925,-1.00214 -1.500436,-0.85716 0.490514,1.05386 1.269692,1.21872 2.297281,2.73719 2.283524,3.37438 -0.02072,0.96255 -0.307187,0.8389 -1.692929,-0.73089 -3.446841,-3.90463 -5.81509,-5.1901 -9.561882,-5.1901 h -3.468458 l 0.702412,1.54164 c 1.032122,2.26527 0.04887,2.68333 -1.561363,0.66388 -1.071958,-1.34435 -1.705181,-1.64899 -2.743014,-1.3196 -0.756195,0.24003 -1.349334,0.93527 -1.349334,1.58168 0,1.65142 -1.029976,2.06211 -1.421054,0.56663 -0.29053,-1.11099 -0.610481,-1.20257 -2.686338,-0.76901 -2.961935,0.61863 -6.02586,0.62659 -8.898965,0.0233 -1.961621,-0.41201 -2.274708,-0.31013 -2.57492,0.83788 -0.206057,0.78797 -0.623957,1.1325 -1.052443,0.86768 -0.390876,-0.24156 -0.579742,-0.93992 -0.419707,-1.55192 0.21062,-0.80543 -0.154052,-1.2244 -1.320675,-1.51719 -1.293729,-0.3247 -1.881654,-0.0659 -2.98036,1.31201 -1.489571,1.8681 -2.766087,1.53157 -1.553783,-0.40964 0.410413,-0.65718 0.746208,-1.33714 0.746208,-1.51105 0,-0.1738 -1.566749,-0.31614 -3.481663,-0.31614 -3.761265,0 -6.12406,1.28074 -9.575077,5.1901 -1.23407,1.39796 -1.674421,1.62151 -1.692933,0.85946 -0.01373,-0.56648 0.875314,-1.93692 1.975722,-3.04542 2.708453,-2.72839 1.482781,-1.95759 -7.606662,4.78366 -7.340883,5.44441 -7.925442,5.75565 -10.809453,5.75565 -1.773995,0 -3.548574,-0.38723 -4.243873,-0.92606 z m 24.352092,-24.34332 c 3.377926,-3.12777 6.710617,-4.89561 9.229035,-4.89561 1.039456,0 3.612972,0.75125 5.718941,1.66945 3.326622,1.45041 4.636767,1.66891 9.985143,1.66539 5.413228,-0.004 6.578532,-0.20498 9.656451,-1.66945 1.925179,-0.91596 4.526575,-1.66539 5.780876,-1.66539 2.930192,0 6.978237,2.0323 9.796191,4.91816 l 2.219826,2.2733 -4.359645,-2.16402 c -5.89258,-2.92495 -10.812933,-3.07222 -16.552321,-0.49542 -5.91714,2.6566 -7.72137,2.712 -12.991518,0.39893 -6.356941,-2.79009 -10.035236,-2.79374 -15.711897,-0.0163 -5.887283,2.8812 -5.903908,2.8811 -2.771082,-0.0186 z"
         id="path3798"
         inkscape:connector-curvature="0" />
    </g>
  </g>
</svg>
