<svg xmlns="http://www.w3.org/2000/svg" viewBox="0 0 400 600" width="400" height="600">
	<path id="headband" d="M350 300C340 300 320 250 200 250C80 250 60 300 50 300C40 290 40 260 50 250C50 250 80 200 200 200C320 200 350 250 350 250C360 260 360 290 350 300Z" fill="$[color]" stroke="#000" stroke-width="4"/>
	<path id="stripe" d="M45 280L45 270C45 270 80 220 200 220C320 220 355 270 355 270L355 280C350 280 320 230 200 230C80 230 50 280 45 280Z" fill="#fff" stroke="#000" stroke-width="1"/>
	<path id="frame" d="M50 300L80 300C80 300 100 290 130 290C160 290 195 300 195 300L205 300C205 300 240 290 270 290C300 290 320 300 320 300L350 300L350 310L320 315C320 315 300 300 270 300C240 300 210 310 210 310C210 310 205 325 210 335C210 335 205 325 200 325C195 325 190 335 190 335C195 325 190 310 190 310C190 310 160 300 130 300C100 300 80 315 80 315L50 310L50 300Z" fill="#333" stroke="#000" stroke-width="2"/>
	<path id="lens" d="M155 355C190 355 190 360 190 335C195 325 190 310 190 310C190 310 160 300 130 300C100 300 80 315 80 315C80 315 75 355 85 360C95 365 125 355 155 355ZM245 355C210 355 210 360 210 335C205 325 210 310 210 310C210 310 240 300 270 300C300 300 320 315 320 315C320 315 325 355 315 360C305 365 275 355 245 355Z" fill="rgba(150,150,175,.5)" stroke="none"/>
	<path id="glare" d="M275 345L290 310M285 345L300 310M135 345L150 310M145 345L160 310" stroke="#fff" stroke-width="2"/>
</svg>