<?xml version="1.0" encoding="UTF-8" standalone="no"?>
<svg
   xmlns:dc="http://purl.org/dc/elements/1.1/"
   xmlns:cc="http://creativecommons.org/ns#"
   xmlns:rdf="http://www.w3.org/1999/02/22-rdf-syntax-ns#"
   xmlns:svg="http://www.w3.org/2000/svg"
   xmlns="http://www.w3.org/2000/svg"
   id="svg8"
   version="1.1"
   viewBox="0 0 158.75 105.83334"
   height="400"
   width="600">
  <defs
     id="defs2" />
  <metadata
     id="metadata5">
    <rdf:RDF>
      <cc:Work
         rdf:about="">
        <dc:format>image/svg+xml</dc:format>
        <dc:type
           rdf:resource="http://purl.org/dc/dcmitype/StillImage" />
        <dc:title></dc:title>
      </cc:Work>
    </rdf:RDF>
  </metadata>
  <g
     transform="translate(0,-191.16665)"
     id="layer1">
    <g
       id="g3710">
      <path
         id="path3785"
         d="m 72.264783,284.6776 c -3.872094,-1.28232 -6.356906,-2.86261 -9.157912,-5.82427 -2.463904,-2.60521 -3.075075,-2.96968 -5.550478,-3.31014 -8.74169,-1.20229 -14.819859,-5.24512 -17.93649,-11.93026 -1.156018,-2.47966 -1.376296,-3.71323 -1.383327,-7.74688 -0.0076,-4.35033 0.153325,-5.126 1.726185,-8.32093 1.196316,-2.43007 2.81135,-4.53068 5.204717,-6.76954 1.908592,-1.78541 3.659365,-3.24617 3.890606,-3.24617 0.231243,0 0.722067,-2.30548 1.090723,-5.12326 0.794048,-6.06926 3.101921,-15.6973 5.273384,-21.99964 1.637853,-4.75361 3.308968,-9.04095 3.523969,-9.04095 0.807433,0 7.43869,3.17635 7.353099,3.52212 -0.06352,0.25657 -1.07412,3.15334 -2.245781,6.43723 -3.436794,9.63253 -5.389769,18.20916 -6.161861,27.06028 l -0.376036,4.31078 -2.311273,1.12291 c -5.320086,2.5847 -8.732862,7.29707 -8.732862,12.05837 0,7.11747 5.83262,11.43416 15.449599,11.43416 h 4.112305 l 0.816137,2.03972 c 2.007494,5.01723 5.834725,7.50971 11.531252,7.50971 5.69651,0 9.52374,-2.49248 11.53124,-7.50971 l 0.81614,-2.03972 h 4.1123 c 9.616981,0 15.449601,-4.31669 15.449601,-11.43416 0,-4.7613 -3.41278,-9.47367 -8.73286,-12.05837 l -2.311271,-1.12291 -0.37604,-4.31078 c -0.77209,-8.85112 -2.72506,-17.42775 -6.16186,-27.06028 -1.17166,-3.28389 -2.18226,-6.18066 -2.24578,-6.43723 -0.0856,-0.34577 6.54567,-3.52212 7.35309,-3.52212 0.215,0 1.88612,4.28734 3.523981,9.04095 2.17146,6.30234 4.47933,15.93038 5.27338,21.99964 0.36865,2.81778 0.86375,5.12326 1.10021,5.12326 0.23646,0 2.07554,1.55238 4.08682,3.44973 5.10951,4.82005 6.70552,8.36255 6.71205,14.89811 0.004,4.03885 -0.20995,5.24701 -1.37018,7.73568 -3.11549,6.68272 -9.19519,10.72801 -17.928291,11.92913 -2.48211,0.34138 -3.08174,0.70462 -5.70749,3.45744 -4.13745,4.33767 -8.00328,6.0174 -14.32731,6.22525 -2.96608,0.0975 -5.595427,-0.11055 -6.913686,-0.54715 z"
         style="fill:#000000;stroke-width:0.53182143" />
    </g>
  </g>
</svg>
