<svg xmlns="http://www.w3.org/2000/svg" viewBox="0 0 400 600" width="400" height="600">
	<g id="Nose">
		<path id="Nose 6" class="nose" d="M190 325C190 325 185 345 185 370C165 365 170 385 170 390C190 390 185 400 200 400C215 400 210 390 230 390C230 385 235 365 215 370C215 345 210 325 210 325" fill="$[skinColor]" stroke="#000" stroke-width="5"/>
		<path id="nose-6-tone" class="nose-6-tone" d="M190 325C190 325 185 345 185 370C165 365 170 385 170 390C190 390 185 400 200 400C215 400 210 390 230 390C230 385 235 365 215 370C215 345 210 325 210 325" mix-blend-mode="color-burn" fill="$[skinTone]" />
	</g>
</svg>