<svg id="Capa_1" data-name="Capa 1" xmlns="http://www.w3.org/2000/svg" viewBox="0 0 400 600">
  <defs>
    <style>
      .cls-1 {
        fill: #fff;
      }
    </style>
  </defs>
  <title>earf</title>
  <g>
    <path d="M83.59,386.76c-2.9-3.1-5.7-6.3-8.7-9.2-19.6-18.8-25.7-41.6-20.6-67.9,1.4-7.2,2.3-14.5,4.2-21.5a11.23,11.23,0,0,1,5.9-6.4c5.1-1.9,6.9.1,7.5,5.5,3.4,30,3,60.5,10.4,90.1.7,3,1.5,5.9,2.3,8.9A9.25,9.25,0,0,1,83.59,386.76Zm-6.2-14.1c-9.2-22.9-9.1-47.4-13.2-71.1h-1.3c-1.1,9.4-2.2,18.8-3.2,28-2.5-6.6.8-30.5,5.5-35.3,2.5,18.3,5,36,7.4,53.7.8-.6,1-1.1.9-1.5-1.1-19.8-2.2-39.5-3.4-59.3-.1-1.1-.7-3-1.4-3.2-1.3-.4-3.4-.2-4.2.6-1.7,1.9-3.6,4.1-4.1,6.5-1.3,6-1.2,12.3-2.8,18.1-2.7,9.8-2.2,19.5-.7,29.2A51.14,51.14,0,0,0,77.39,372.66Z"/>
    <path fill="$[skinColor]" d="M77.39,372.66c-11.6-8.8-18.4-20.3-20.5-34.3-1.5-9.7-1.9-19.4.7-29.2,1.6-5.8,1.5-12.1,2.8-18.1.5-2.4,2.4-4.6,4.1-6.5.8-.8,2.9-1,4.2-.6.7.2,1.3,2.1,1.4,3.2q1.8,29.55,3.4,59.3a1.58,1.58,0,0,1-.9,1.5c-2.4-17.7-4.9-35.4-7.4-53.7-4.8,4.7-8.1,28.6-5.5,35.3,1.1-9.2,2.2-18.6,3.2-28h1.3C68.29,325.26,68.19,349.76,77.39,372.66Z"/>
  </g>
</svg>
