<svg id="Capa_1" data-name="Capa 1" xmlns="http://www.w3.org/2000/svg" viewBox="0 0 400 600">
  <defs>
    <style>
      .cls-1 {
        fill: #fff;
      }
    </style>
  </defs>
  <title>earf_1</title>
  <g>
    <path d="M80.58,379.59c-2.6-1.9-4.2-3-5.7-4.2-6.2-5-12.2-10.3-18.7-14.9-5.3-3.7-7.5-8.3-7.9-14.6-1-15.9-2.6-31.8-4-47.7-.1-1-.1-2-.2-3-.4-11.5,5.5-15.3,15.7-9.6,8.6,4.9,13.8,12.1,14.4,22.7.7,11.6,3,23.1,4.1,34.6C79.38,354.59,79.78,366.39,80.58,379.59Zm-3.9-5.8a21.05,21.05,0,0,0,.8-3.2c-1.7-21.6-3.3-43.1-5.2-64.7-.8-8.7-10.6-18.7-19.1-20.1-3.9-.6-6.1,1.1-6.4,5a41.7,41.7,0,0,0,0,5c1.4,17.6,2.8,35.1,4.5,52.7.2,2.3,1.1,5.2,2.8,6.6C61.28,361.49,68.88,367.39,76.68,373.79Z"/>
    <path fill="$[skinColor]" d="M76.68,373.79c-7.8-6.4-15.4-12.3-22.6-18.7-1.6-1.4-2.6-4.3-2.8-6.6-1.6-17.6-3-35.1-4.5-52.7a27.83,27.83,0,0,1,0-5c.3-3.9,2.5-5.6,6.4-5,8.5,1.4,18.3,11.4,19.1,20.1,1.9,21.6,3.5,43.1,5.2,64.7C77.58,371.49,77.08,372.39,76.68,373.79ZM63.48,318c.8,1.2,2,2.4,2.3,3.7.9,4.9,1.6,9.8,2.3,14.8,1.1,7.9,2.1,15.7,3.2,23.6q1.05-.75.9-1.5c-2.2-16.7-4.3-33.3-6.8-49.9-.9-5.6-4.8-9.8-9.1-14.8-4.7,12-2.2,22.8-1.7,33.5h1.8v-30.2c6.4,6.8,9.2,13.2,7.3,21.1-1.2,7.5-2.6,15-3.5,22.5-.2,1.8.9,3.7,1.5,5.6.9-5.3.7-10.4.9-15.5C62.58,326.49,63.08,322.29,63.48,318Z"/>
    <path d="M63.58,318.09c1.9-7.9-.8-14.2-7.3-21v30.2h-1.8c-.4-10.7-3-21.4,1.7-33.5,4.3,5,8.2,9.2,9.1,14.8,2.5,16.6,4.6,33.3,6.8,49.9.1.5-.2.9-.9,1.5-1.1-7.9-2.1-15.7-3.2-23.6-.7-4.9-1.4-9.9-2.3-14.8-.2-1.2-1.4-2.3-2.1-3.5Z"/>
    <path d="M63.48,318c-.4,4.2-.9,8.5-1,12.7-.2,5,0,10.1-.9,15.5-.5-1.9-1.7-3.8-1.5-5.6,1-7.5,2.3-15,3.5-22.5Z"/>
  </g>
</svg>
