<svg xmlns="http://www.w3.org/2000/svg" viewBox="0 0 69 22" width="69" height="22">
	<style>	
		.eyebrowPlacement { fill: none } 
	</style>
	<path id="eyebrow12" d="M25.63 10.05C24.44 10.72 22.34 12.34 20.95 13.66C19.56 14.98 18.29 16.46 18.11 16.95C17.93 17.44 17.98 17.91 18.21 17.99C18.44 18.07 21.71 17.71 25.47 17.2C29.23 16.68 34.6 16.14 37.39 15.99C40.19 15.84 46.56 15.71 51.53 15.7C56.51 15.69 63.01 15.82 65.97 15.99C68.93 16.16 72.58 16.24 74.09 16.18C75.59 16.13 77.68 15.91 78.72 15.71C80.37 15.39 80.57 15.18 80.18 14.14C79.85 13.23 78.8 12.59 76.09 11.61C74.09 10.88 69.9 9.89 66.77 9.39C63.64 8.9 58.1 8.2 54.47 7.84C50.83 7.48 45.08 7.12 41.69 7.03C36.86 6.92 34.67 7.09 31.65 7.86C29.53 8.39 26.82 9.38 25.63 10.05Z" fill="$[hairColor]" stroke="#000" stroke-width="1"/>
	<path id="placement" class="eyebrowPlacement" d="M0 10L5 10L5 15L0 15L0 10Z" />
</svg>