<?xml version="1.0" encoding="UTF-8" standalone="no"?>
<!-- Created with Inkscape (http://www.inkscape.org/) -->

<svg
   xmlns:dc="http://purl.org/dc/elements/1.1/"
   xmlns:cc="http://creativecommons.org/ns#"
   xmlns:rdf="http://www.w3.org/1999/02/22-rdf-syntax-ns#"
   xmlns:svg="http://www.w3.org/2000/svg"
   xmlns="http://www.w3.org/2000/svg"
   xmlns:sodipodi="http://sodipodi.sourceforge.net/DTD/sodipodi-0.dtd"
   xmlns:inkscape="http://www.inkscape.org/namespaces/inkscape"
   width="600"
   height="400"
   viewBox="0 0 158.75 105.83334"
   version="1.1"
   id="svg8"
   inkscape:version="0.92.2 (5c3e80d, 2017-08-06)"
   sodipodi:docname="strong.svg">
  <defs
     id="defs2" />
  <sodipodi:namedview
     id="base"
     pagecolor="#ffffff"
     bordercolor="#666666"
     borderopacity="1.0"
     inkscape:pageopacity="0.0"
     inkscape:pageshadow="2"
     inkscape:zoom="0.7"
     inkscape:cx="282.93384"
     inkscape:cy="207.20084"
     inkscape:document-units="mm"
     inkscape:current-layer="g3811"
     showgrid="false"
     inkscape:window-width="958"
     inkscape:window-height="1138"
     inkscape:window-x="2873"
     inkscape:window-y="0"
     inkscape:window-maximized="0"
     units="px" />
  <metadata
     id="metadata5">
    <rdf:RDF>
      <cc:Work
         rdf:about="">
        <dc:format>image/svg+xml</dc:format>
        <dc:type
           rdf:resource="http://purl.org/dc/dcmitype/StillImage" />
        <dc:title></dc:title>
      </cc:Work>
    </rdf:RDF>
  </metadata>
  <g
     inkscape:label="Layer 1"
     inkscape:groupmode="layer"
     id="layer1"
     transform="translate(0,-191.16665)">
    <g
       id="g3710">
      <g
         id="g3811"
         transform="matrix(4.0579015,0,0,4.0579015,-251.62294,-736.76684)">
        <path
           style="fill:$[color];stroke-width:0.16733962"
           d="m 71.896416,246.61379 c -0.155811,-0.18761 -0.05569,-0.5175 0.481528,-1.58601 0.373037,-0.74194 0.678251,-1.37304 0.678251,-1.40245 0,-0.0295 -0.49809,-0.0205 -1.106864,0.018 -0.817223,0.0521 -1.14497,0.0103 -1.252485,-0.15938 -0.221385,-0.34951 -0.20999,-0.36696 0.685953,-1.05021 0.460185,-0.35094 0.836426,-0.68645 0.836095,-0.74556 -3.36e-4,-0.059 -0.640409,-0.35884 -1.422387,-0.66605 -1.093751,-0.42968 -1.421783,-0.63238 -1.421783,-0.87853 0,-0.17606 0.01899,-0.31999 0.04201,-0.31999 0.0231,0 1.623286,-0.30474 3.555968,-0.67719 l 3.513967,-0.67722 7.530281,0.10523 c 4.141656,0.0577 7.665501,0.14269 7.830761,0.18889 0.25444,0.0708 0.29289,0.23997 0.251,1.10405 l -0.0495,1.0203 -6.860924,1.11681 -6.860923,1.11682 -3.042438,1.86535 c -1.673342,1.02595 -3.076049,1.86534 -3.117128,1.86534 -0.04109,0 -0.163228,-0.10677 -0.271412,-0.23714 z"
           id="path4701"
           inkscape:connector-curvature="0" />
      </g>
    </g>
  </g>
</svg>
