<svg xmlns="http://www.w3.org/2000/svg" viewBox="0 0 400 600" width="400" height="600">
	<style>
		.lips { opacity: 0.05;mix-blend-mode: multiply;fill: #501414 } 
		.teeth { fill: #ffffff } 
		.mouth-05-stroke { fill: none;stroke: #000000;stroke-width: 3 } 
	</style>
	<g id="lips copy">
		<path id="lips" class="lips" d="M168 384C168 384 177 370.23 200 369.97C217.4 369.77 232 383.17 232 383.17C232 383.17 227.71 406.41 200 406.98C172.71 407.54 168 384 168 384Z" />
		<path id="teeth" class="teeth" d="M168 384C180 380 216 380 232 384C212 388 222 388 200 388C180 388 184 388 168 384Z" />
		<path id="mouth-05-stroke" class="mouth-05-stroke" d="M168 384C180 380 216 380 232 384C212 388 222 388 200 388C180 388 184 388 168 384ZM181.71 402.12C196.23 407.78 206.43 407.83 219.43 401.41M220.29 374.88C205.77 369.22 193 368.54 180 374.97" />
	</g>
</svg>