<svg xmlns="http://www.w3.org/2000/svg" viewBox="0 0 70 28" width="70" height="28">
	<style>
		.lips { opacity: 0.05;mix-blend-mode: multiply;fill: #501414 } 
		.teeth { fill: #ffffff } 
		.mouth-03-stroke { fill: none;stroke: #000000;stroke-width: 4 } 
	</style>
	<g id="lips">
		<path id="lips" class="lips" d="M1 3C1 3 12 1.14 35 1C51.67 0.9 69 3 69 3C69 3 57.67 26.31 35 27C12.68 27.68 1 3 1 3Z" />
		<path id="teeth" class="teeth" d="M11 5C11 5 25 6.71 35 6.71C45 6.71 59 5 59 5C59 5 51 15 35 15C19 15 11 5 11 5Z" />
		<path id="mouth-03-stroke" class="mouth-03-stroke" d="M11 5C11 5 25 6.71 35 6.71C45 6.71 59 5 59 5C59 5 51 15 35 15C19 15 11 5 11 5ZM1 3C1 3 6 6.19 11 5M69 3C69 3 64 6.19 59 5M20.71 23.69C35.86 27.83 37 27.55 49.86 23.12" />
	</g>
</svg>