<svg id="Capa_1" data-name="Capa 1" xmlns="http://www.w3.org/2000/svg" viewBox="0 0 400 600">
  <title>mouthf_7</title>
  <g>
    <path d="M205.67,431.93c-3-.5-6-1-9-1.4,0-.6-.1-1.3-.1-1.9,3.1-.2,6.3-.7,9.4-.3,1,.1,1.8,2.4,2.7,3.7C207.67,431.93,206.67,431.93,205.67,431.93Z"/>
    <path d="M237.27,429.93c-1-.3-2.4-.3-3.1-1-6.1-7-14.6-6.5-22.5-7.2-7-.6-14-.4-20.9-.9-4.6-.3-8.5.7-12,3.8a11.52,11.52,0,0,1-3.7,2.5c-1.2.4-2.6-.1-4-.1.6-1.1.9-2.4,1.7-3.1,5.8-5.3,12.2-8,20.4-7,11.7,1.4,23.5,2,35.2,3.3,5.1.6,7.6,4.7,9.8,8.7A9,9,0,0,0,237.27,429.93Z"/>
  </g>
</svg>
