<svg id="Capa_1" data-name="Capa 1" xmlns="http://www.w3.org/2000/svg" viewBox="0 0 400 600">
  <title>mouthf_2</title>
  <g>
    <path d="M209.78,438.13c-3.8-.8-7.5-1.7-11.8-2.7,3.3-3.4,19.3-3.7,25.8-.8-1.5,1.3-2.8,2.4-4.1,3.5Z"/>
    <path d="M167.28,423.73c-1.9,2-3.4,3.6-4.9,5.2a45.63,45.63,0,0,1-.2-6.4,66.37,66.37,0,0,1,1.8-7.4h1.6c.5,1.7,1,3.4,1.3,4.4h76.2c.6-1.5,1.3-3,2-4.8,4.8,5.2,5.4,8.9,2.5,16.4-.6-.3-1.6-.5-1.6-.8-.5-5.9-5-5.2-8.8-5.3-22.3-.5-44.6-.9-66.9-1.4C169,423.73,167.68,423.73,167.28,423.73Z"/>
  </g>
</svg>
