<svg id="Capa_1" data-name="Capa 1" xmlns="http://www.w3.org/2000/svg" viewBox="0 0 400 600">
  <defs>
    <style>
      .cls-1 {
        fill: #fff;
      }
    </style>
  </defs>
  <title>mouthf_3</title>
  <g>
    <path d="M162.09,426c9.2-13.7,65.4-13.8,76.8-1.4-5.8,0-11.9-.5-17.8.1s-11.9,2.5-17.9,3.8l-.6-2.4,16.4-4.5a64.91,64.91,0,0,0-36.8,0c5.5,1.4,10.9,2.9,16.4,4.3-.2.8-.3,1.5-.5,2.3C186.19,427.14,174.49,420.44,162.09,426Z"/>
    <path d="M188.39,443.34c6.9-5,17.5-5,24.3,0Z"/>
    <path class="cls-1" d="M181.2,422s18.8-7.93,37.79-.38l-15,5.12-8.33-.9Z"/>
  </g>
</svg>
