<svg id="Capa_1" data-name="Capa 1" xmlns="http://www.w3.org/2000/svg" viewBox="0 0 400 600">
  <defs>
    <style>
      .cls-1 {
        fill: #fff;
      }
    </style>
  </defs>
  <title>mouthf_5</title>
  <g>
    <path d="M230.07,436.16c-3.5,5.5-8.5,7.3-14.9,6.9-10.8-.8-21-3.2-29.7-10.3-4.2-3.5-4.5-7.5-.8-11.6,10.1-11.3,23-12.6,34.3-2.5,4.4,4,7.4,9.6,11.1,14.4Zm-13.4,2.9c6.2.1,9.4-2.2,8.7-6.1-.9-4.5-4.1-6.7-8.7-6.8-8.6-.2-17.1-1-25.7-1.4a18.42,18.42,0,0,0-4.7.7c.7,1.5,1,3.4,2.1,4.3C196.57,436.56,206.37,438.46,216.67,439.06Zm.4-16.6c-8.2-8.5-19.8-8.9-26,0Z"/>
    <path class="cls-1" d="M216.67,439.06c-10.3-.6-20.2-2.5-28.3-9.3-1.1-.9-1.4-2.8-2.1-4.3,1.6-.2,3.2-.8,4.7-.7,8.6.4,17.1,1.1,25.7,1.4,4.6.1,7.8,2.3,8.7,6.8C226.17,436.86,223,439.16,216.67,439.06Z"/>
    <path class="cls-1" d="M217.07,422.46h-26C197.27,413.56,208.87,414,217.07,422.46Z"/>
  </g>
</svg>
