<svg xmlns="http://www.w3.org/2000/svg" viewBox="0 0 400 600" width="400" height="600">
	<style>
		<!-- opacity: 0.2 for lip color -->
		.lips { opacity: 0.05;mix-blend-mode: multiply;fill: #501414 } 
		.mouth { fill: #000000;stroke: #000000 } 
		.teeth { fill: #ffffff } 
		.mouth-15-stroke { fill: none;stroke: #000000;stroke-width: 4 } 
	</style>
	<g id="lips copy">
		<path id="lips" class="lips" d="M168 384C168 384 177 370.23 200 369.97C217.4 369.77 232 383.17 232 383.17C232 383.17 227.71 411.43 200 412C172.71 412.56 168 384 168 384Z" />
		<path id="mouth" class="mouth" d="M168 384C180 380 216 380 232 384C224 392 222 400 200 400C180 400 176 392 168 384Z" />
		<path id="teeth" class="teeth" d="M168 384C182.08 378.27 221.75 380.27 232.25 384.6C212.25 389.27 201.75 386.6 201.75 386.6L201.92 381.43L197.25 381.1L197.42 386.27C197.42 386.27 184 388 168 384ZM172.42 390.6C172.42 390.6 194 393.77 200 393.77C206 393.77 226.92 390.77 226.92 390.77C226.92 390.77 216 400 200 400C188 400 172.42 390.6 172.42 390.6Z" />
		<path id="mouth-15-stroke" class="mouth-15-stroke" d="M168 384C180 380 216 380 232 384C224 392 222 400 200 400C180 400 176 392 168 384ZM184 408C196 414 204 414 216 408" />
	</g>
</svg>