<svg id="Capa_1" data-name="Capa 1" xmlns="http://www.w3.org/2000/svg" viewBox="0 0 400 600">
  <defs>
    <style>
      .cls-1 {
        fill: #fff;
      }
    </style>
  </defs>
  <title>mouthf_6</title>
  <g>
    <path d="M201,444.17c-6-2.7-12.9-5.5-19.4-8.9-4.4-2.3-8.1-5.8-12.2-8.6-2-1.3-4.5-1.9-6.5-3.3a22.5,22.5,0,0,1-3.8-4.3c1.8-.8,3.8-2.7,5.2-2.3,18.3,5.6,37.1,3.5,55.7,3.1,7.1-.2,14.6.9,21.4-3,1-.6,3.5,1.3,5.2,2.1-.9,1.4-1.4,3.3-2.6,4.1-4.4,2.8-8.9,5.4-13.5,7.9-7.6,4-15.2,7.9-22.9,11.7C206,443.47,204,443.57,201,444.17ZM168.29,422c10.1,9.7,59.3,9.6,69.3,0A292.09,292.09,0,0,1,168.29,422Zm8.8,6.6c14,14.5,40.1,14.3,51.4,0C211.39,434,194.49,433.87,177.09,428.57Z"/>
    <path class="cls-1" d="M168.29,422a292.09,292.09,0,0,0,69.3,0C227.59,431.57,178.39,431.57,168.29,422Z"/>
    <path class="cls-1" d="M177.09,428.57c17.4,5.3,34.3,5.4,51.4,0C217.19,442.87,191.09,443.07,177.09,428.57Z"/>
  </g>
</svg>
