<svg id="Capa_1" data-name="Capa 1" xmlns="http://www.w3.org/2000/svg" viewBox="0 0 400 600">
  <title>mouthf_1</title>
  <g>
    <path d="M161.33,422.66c1.7-.6,3.4-1.4,5.2-1.9,7.1-1.9,14.2-3.7,21.2-5.5,1.1-.3,2.5-.6,3.2-1.4,3.8-4.2,8.5-3.9,13.6-3.9s9.1,1.5,13.7,3.8c7.3,3.6,15.8,4.8,23.8,7.1,1.9.5,3.6,1.3,5.5,2-.1.7-.1,1.4-.2,2.1-2.4.3-4.9.9-7.2.7-9.7-.9-19.4-2.9-29.1-3-11.5-.1-23.1,1.1-34.6,1.9-3.1.2-6.2,1.1-9.4,1.2-1.8.1-3.6-.6-5.4-1A15.17,15.17,0,0,1,161.33,422.66Z"/>
    <path d="M213.13,434.16c-3.9,4.7-14.1,4.6-17.2,0C199.73,431.16,208.63,431.06,213.13,434.16Z"/>
    <path d="M233.13,443.76c-6.9-2.3-12.7-4.2-18.5-6.1C219.83,435.06,229.63,437.76,233.13,443.76Z"/>
    <path d="M194.63,437.56c-6.3,2.1-12.1,4-18.3,6C178.33,438.16,188,435.16,194.63,437.56Z"/>
  </g>
</svg>
