<svg xmlns="http://www.w3.org/2000/svg" viewBox="0 0 400 600" width="400" height="600">
	<style>
		.lips { opacity: 0.05;mix-blend-mode: multiply;fill: #501414 } 
		.mouth-06-stroke { fill: none;stroke: #000000;stroke-width: 4 } 
	</style>
	<g id="lips copy">
		<path id="Shape 4 copy" class="lips" d="M168 384C168 384 177 370.23 200 369.97C217.4 369.77 232 383.17 232 383.17C232 383.17 227.71 406.41 200 406.98C172.71 407.54 168 384 168 384Z" />
		<path id="mouth-06-stroke" class="mouth-06-stroke" d="M181.71 402.12C196.23 407.78 206.43 407.83 219.43 401.41M220.29 374.88C205.77 369.22 193 368.54 180 374.97M176 384C184 381.83 192 384 200 384C208 384 216 381.83 224 384M236 380C236 380 236 384 224 384M164 380C164 380 164 384 176 384" />
	</g>
</svg>