<svg id="Capa_1" data-name="Capa 1" xmlns="http://www.w3.org/2000/svg" viewBox="0 0 400 600">
  <defs>
    <style>
      .cls-1 {
        fill: #fff;
      }
    </style>
  </defs>
  <title>mouthf</title>
  <g>
    <path d="M201.11,433.14c-4.9-2.6-9.5-6.2-14.7-7.6-5.6-1.5-11.8-1.4-17.7-1.1-3.1.2-6,.6-7-2.6-.5-1.4.8-4.2,2.1-5.2a4.88,4.88,0,0,1,7.7,1.6c1.5,3,3.8,3.3,6.5,3.3h50.3c2.9,0,5.2-.3,7.1-3.3,1-1.5,4.6-2.3,6.8-1.9,1.3.3,3.3,3.7,2.9,5-.5,1.5-3.3,3.1-5.1,3.3-5.7.4-11.5,0-17.3,0a6,6,0,0,0-2.3.6c-5.1,2.6-10.1,5.2-15.2,7.9Zm13.6-6.9h-21.8C200.21,429.84,207.51,430.14,214.71,426.24Z"/>
    <path class="cls-1" d="M214.71,426.24c-7.2,3.9-14.5,3.6-21.8,0Z"/>
  </g>
</svg>
