<svg xmlns="http://www.w3.org/2000/svg" viewBox="0 0 400 600" width="400" height="600">
	<style>
		.lips { opacity: 0.05;mix-blend-mode: multiply;fill: #501414 } 
		.teeth { fill: #ffffff } 
		.stroke { fill: none;stroke: #000000;stroke-width: 4 } 
		.thin-stroke { fill: none;stroke: #000000;stroke-width: 1 } 
	</style>
	<g id="mouth-02">
		<path id="color" class="lips" d="M167 382C167 382 177 373.14 200 373C216.67 372.9 234 382 234 382C234 382 222.67 403.31 200 404C177.68 404.68 167 382 167 382Z" />
		<path id="teeth" class="teeth" d="M176 384C176 384 190 380 200 380C210 380 224 384 224 384C224 384 216 392 200 392C184 392 176 384 176 384Z" />
		<path id="stroke" class="stroke" d="M176 384C176 384 190 380 200 380C210 380 224 384 224 384C224 384 216 392 200 392C184 392 176 384 176 384Z" />
		<path id="Shape 1" class="thin-stroke" d="M180 376C196 372 204 372 220 376" />
		<path id="Shape 2" class="stroke" d="M166 382C166 382 171 385.19 176 384M234 382C234 382 229 385.19 224 384" />
		<path id="Shape 3" class="thin-stroke" d="M185.71 400.69C200.86 404.83 202 404.55 214.86 400.12" />
	</g>
</svg>