<svg id="Capa_1" data-name="Capa 1" xmlns="http://www.w3.org/2000/svg" viewBox="0 0 400 600">
  <title>mouthf_4</title>
  <path d="M198.19,431.84c-7.3-1.3-14.7-2.5-22-3.9a67,67,0,0,1-10.6-3c-4.5-1.6-8.6-3.4-11.8,2.2-.5.9-3.1.6-4.7.9.2-1.5-.1-3.2.6-4.5,2.2-4.6,4.6-9.1,7.1-13.5.7-1.2,2.1-2.1,3.2-3.1.6,1.4,1.7,2.8,1.6,4.1a53.4,53.4,0,0,1-1.7,8.1c27.8,8.4,55.3,8.3,83.4.2-.1-1.3-.2-2.8-.2-4.2s.2-2.8.5-5.8c2,2.2,3.2,3.2,3.9,4.5,2,3.8,4,7.6,5.7,11.6.5,1.2.2,2.7.3,4-1.5-.2-3.3.1-4.4-.7-1.6-1.1-2.6-2.9-3.3-3.6-12.7,2.3-24.7,4.6-36.8,6.8C205.49,431.84,201.89,431.84,198.19,431.84Z"/>
</svg>
