<svg version="1.2" xmlns="http://www.w3.org/2000/svg" viewBox="0 0 400 600" width="400" height="600">
	<title>baseball</title>
	<g id="baseball">
		<path id="undershirt" class="s0" d="m120 505c0 0 35 40 80 40c45 0 80-40 80-40v95h-160z" fill="$[primary]" stroke="#000000" stroke-width="3"/>
		<path id="baseball-left" class="s0" d="m120 504.6c10 45.4 80 55.4 90 65.4c10 10 10 40 10 40h-225c0 0 5-40 5-50c0-10 10-30 40-40c30-10 50 0 80-15.4z" fill="$[accent]" stroke="#000000" stroke-width="6" />
		<path id="baseball-right" class="s0" d="m360 520c30 10 40 30 40 40c0 10 10 50 10 50h-230c0 0 0-40 10-50c10-10 80-10 90-55c30 15 50 5 80 15z" fill="$[accent]" stroke="#000000" stroke-width="6" />
		<path id="Button" class="s1" d="m196 597c-2.8 0-5-2.2-5-5c0-2.8 2.2-5 5-5c2.8 0 5 2.2 5 5c0 2.8-2.2 5-5 5zm-2-5h1m2 0h1" fill="$[primary]" stroke="#000000" stroke-width="1.5"/>
	</g>
	<g id="collar-stripe">
		<path id="baseball-collar-outline" class="s3" d="m293.8 513c0.6 0 1.2 0.6 1.2 1.2c0 0.7-1.5 4.4-3.4 8.3c-1.9 3.8-5.4 9-7.8 11.3c-2.4 2.4-7 5.9-10.3 7.7c-3.3 1.9-10.3 5.3-15.5 7.5c-5.2 2.3-13.8 5.8-19 7.7c-5.2 2-11.3 4.8-13.5 6.3c-2.2 1.5-5.7 4.7-7.8 7.1c-2.2 2.5-4.4 6.5-5.2 9.4c-0.8 2.7-1.8 10.1-2.2 16.3c-0.5 6.7-1.2 11.1-1.8 10.9c-0.6-0.3-0.9-4.8-0.7-11.8c0.2-7.2 0.9-13.4 2-16.9c1.2-3.8 3.2-7.2 6.8-11c2.8-3 7.8-6.9 11-8.6c3.2-1.8 7.7-3.7 9.9-4.4c2.2-0.7 7.8-2.8 12.5-4.7c4.7-2 13-5.8 18.4-8.7c6.8-3.5 11.2-6.5 14-9.7c2.3-2.5 5.4-7.5 7.1-11.2c1.6-3.6 3.6-6.7 4.2-6.7zm6.4 1c1.1 0 1.9 0.7 1.9 1.7c0 1-1.7 5.4-3.9 9.8c-2.3 4.6-6 10-8.8 12.9c-2.6 2.6-7.7 6.5-11.3 8.6c-3.6 2.1-10.6 5.6-15.5 7.8c-5 2.2-13.4 5.6-18.8 7.6c-5.3 2-11.4 4.7-13.5 5.9c-2 1.3-5.2 4-7 6c-1.7 2.1-3.6 5.4-4.1 7.4c-0.5 2.1-1.2 8.6-1.5 14.5c-0.6 9.9-0.8 10.8-2.6 10.8c-1.9 0-2-0.5-1.4-10.8c0.3-5.9 1.2-13.1 2-16c1-3.9 2.6-6.4 6.1-9.8c2.7-2.6 6.4-5.5 8.3-6.4c1.9-1 10-4.4 18-7.5c8-3.1 18.3-7.6 23-10c4.7-2.4 10.3-5.9 12.5-7.8c2.2-1.8 5.9-6.2 8.2-9.8c2.3-3.5 4.7-8.3 5.4-10.7c0.8-3.1 1.6-4.2 3-4.2zm6.9 1c1.1 0 2 0.7 2 1.5c0 0.8-2.1 5.7-4.7 10.7c-3.4 6.9-6.4 11-11.2 15.8c-4.8 4.7-9.3 7.9-16.6 11.7c-5.5 2.8-15 7.1-21 9.6c-6.1 2.4-13.3 5.2-16 6.2c-2.8 1.1-6.9 3.7-9.3 5.9c-2.5 2.4-4.7 5.6-5.3 7.6c-0.5 1.9-0.9 5.7-0.9 8.5c0 2.7-0.3 7.1-0.7 9.8c-0.5 2.7-1.3 4.7-2.1 4.7c-0.9 0-1.1-2.4-0.6-10.3c0.3-5.6 1.1-11.8 1.6-13.7c0.6-1.9 2-4.6 3.1-6c1-1.4 3.6-3.7 5.6-5.1c2-1.5 9.2-4.8 16.1-7.4c6.9-2.6 16.5-6.7 21.5-9.1c4.9-2.3 11.8-6.1 15.2-8.3c3.5-2.3 8.2-6.5 10.4-9.4c2.3-2.8 5.7-8.4 7.6-12.2c1.8-3.9 3.3-7.8 3.3-8.8c0-1 0.8-1.7 2-1.7zm-196.8-5c0.7 0 2.2 1.9 3.2 4.2c1.1 2.4 3.8 7.4 6 11.2c2.3 3.8 6.3 9.2 9.1 11.9c2.8 2.7 9.9 8.4 16 12.7c6 4.3 13.2 9.8 15.9 12.2c3.3 2.9 5.9 6.4 7.9 10.8c2.7 5.9 3 7.8 3.6 20.3c0.6 12.6 0.5 13.7-1.2 13.7c-1.5 0-1.7-1.1-1.7-9.8c0-5.3-0.4-12.2-1-15.2c-0.6-3-2-7.3-3.1-9.5c-1.1-2.2-3.5-5.5-5.2-7.3c-1.8-1.8-7.5-6.2-12.7-9.7c-5.2-3.5-12.5-8.8-16.3-11.9c-3.7-3.1-8.4-8.2-10.6-11.4c-2.1-3.1-5.2-8.4-6.8-11.7c-1.7-3.3-3.4-7-3.8-8.3c-0.5-1.5-0.3-2.2 0.7-2.2zm-5 1c0.4 0 3 4.8 5.7 10.7c3.6 8.2 6.3 12.4 10.7 17.2c3.3 3.5 10.6 9.8 16.4 14c5.8 4.2 11.6 8.4 13 9.2c1.4 0.9 4 3.1 5.9 5c1.9 1.9 4.5 5.6 5.8 8.4c1.8 4 2.4 7.6 3.8 31.5h-2.3c-2.1 0-2.2-0.3-2.5-12.3c-0.3-10-0.7-13.1-2.6-17.2c-1.2-2.8-3.2-6.1-4.4-7.4c-1.2-1.2-6.7-5.4-12.2-9.1c-5.5-3.8-13.2-9.6-17-12.8c-3.9-3.3-9-8.8-11.5-12.3c-2.4-3.5-6.2-10.2-8.3-14.9c-3.1-6.7-3.6-8.7-2.5-9.2c0.7-0.4 1.6-0.8 2-0.8zm-7.5 3c0.5-0.1 3.5 5.2 6.8 11.7c4.3 8.5 7.7 13.6 12 18.2c3.3 3.5 9.4 9 13.5 12.1c4.1 3.1 10.8 7.9 14.8 10.6c4 2.7 8.4 6.6 9.8 8.6c1.7 2.7 2.7 6.2 3.4 12c0.5 4.6 1 10.9 1 14c0 4-0.4 5.8-1.3 5.8c-0.8 0-1.4-3.5-2-12c-0.4-6.6-1.3-13.4-2.1-15.3c-0.8-1.7-2.1-3.9-2.8-4.7c-0.7-0.9-6.4-5.1-12.7-9.5c-6.3-4.4-14.8-11.2-18.9-15c-4.1-3.9-9.3-9.7-11.5-13c-2.2-3.3-5.6-9.2-7.4-13c-1.8-3.9-3.3-7.8-3.3-8.8c0-0.9 0.3-1.7 0.7-1.7z" fill="#000" stroke="#000" />
		<path id="baseball-collar-color" class="s4" d="m296.4 513c0.9 0 1.2 1 1 3.2c-0.3 1.8-1.7 5.8-3.2 8.8c-1.5 3-5.2 7.9-8.2 11c-3.7 3.8-8.5 7.1-14.5 10.2c-5 2.6-15.5 7.2-23.5 10.3c-8 3.1-16.1 6.5-18 7.5c-1.9 0.9-5.6 3.8-8.3 6.4c-3.5 3.4-5.1 5.9-6.1 9.8c-0.8 2.9-1.7 10.1-2 16c-0.5 9.4-0.8 10.8-2.4 10.8c-1.6 0-1.6-0.9-0.9-11.2c0.4-6.2 1.4-13.6 2.2-16.3c0.8-2.9 3-6.9 5.2-9.4c2.1-2.4 5.6-5.6 7.8-7.1c2.2-1.5 8.3-4.3 13.5-6.3c5.2-1.9 13.8-5.4 19-7.7c5.2-2.2 12.2-5.6 15.5-7.5c3.3-1.8 7.9-5.3 10.3-7.7c2.4-2.3 5.9-7.5 7.8-11.3c1.9-3.9 3.4-7.6 3.4-8.3c0-0.6 0.6-1.2 1.4-1.2zm7.1 1c0.9 0 1.5 0.9 1.5 2.2c0 1.3-1.5 5.4-3.3 9.3c-1.9 3.8-5.3 9.4-7.6 12.2c-2.2 2.9-6.9 7.1-10.4 9.4c-3.4 2.2-10.3 6-15.2 8.3c-5 2.4-14.6 6.5-21.5 9.1c-6.9 2.6-14.1 5.9-16.1 7.4c-2 1.4-4.6 3.7-5.6 5.1c-1.1 1.4-2.5 4.1-3.2 6c-0.6 1.9-1.1 6-1.1 9c0 3-0.3 7.6-0.7 10.3c-0.5 2.7-1.3 4.7-2.1 4.7c-0.9 0-1.1-2.5-0.6-10.8c0.3-5.9 1-12.4 1.5-14.5c0.5-2 2.4-5.3 4.1-7.4c1.8-2 5-4.7 7-6c2.1-1.2 8.2-3.9 13.6-5.9c5.3-2 13.7-5.4 18.7-7.6c4.9-2.2 11.9-5.7 15.5-7.8c3.6-2.1 8.7-6 11.3-8.6c2.8-2.9 6.5-8.3 8.8-12.9c2.2-4.4 3.9-8.8 3.9-9.8c0-0.9 0.7-1.7 1.5-1.7zm-196.3-4c0.7 0 2.6 3 4.3 6.7c1.6 3.8 5.1 10.1 7.7 14c2.9 4.4 7.5 9.5 11.5 12.9c3.8 3.1 11.1 8.4 16.3 11.9c5.2 3.5 10.9 7.9 12.7 9.7c1.7 1.8 4.1 5.1 5.2 7.3c1.1 2.2 2.5 6.5 3.1 9.5c0.6 3 1 9.9 1 15.2c0 7.2-0.3 9.8-1.3 9.8c-0.8 0-1.4-3.7-2-13.2c-0.6-10.7-1.2-14.3-3-18.3c-1.3-2.8-3.9-6.5-5.8-8.4c-1.9-1.9-4.5-4.1-5.9-5c-1.4-0.8-7.2-5-13-9.2c-5.8-4.2-13.1-10.5-16.4-14c-3.8-4.1-7.6-9.9-10.7-16.2c-2.7-5.3-4.9-10.4-4.9-11.2c0-0.8 0.6-1.5 1.2-1.5zm-1.7 10.8c2.2 4.8 6.1 11.6 8.5 15.1c2.5 3.5 7.6 9 11.5 12.3c3.8 3.2 11.5 9 17 12.8c5.5 3.7 11 7.9 12.2 9.1c1.2 1.3 3.2 4.6 4.4 7.4c1.9 4.1 2.3 7.2 2.6 17.2c0.3 10.4 0.1 12.3-1.2 12.3c-1.2 0-1.5-1.3-1.5-5.8c0-3.1-0.5-9.4-1-14c-0.7-5.8-1.7-9.3-3.4-12c-1.4-2-5.8-5.9-9.8-8.6c-4-2.7-10.7-7.5-14.8-10.6c-4.1-3.1-10.2-8.6-13.5-12.1c-4.4-4.6-7.7-9.7-12-18.2c-4.9-9.7-5.7-12-4.6-12.7c1.2-0.7 2.4 1 5.6 7.8z" fill="$[secondary]" stroke="$[secondary]" />
	</g>
	<g id="baseball-stroke">
		<path id="baseball-left" class="s5" d="m120 504.6c6.9 37.6 62.2 49.3 67.9 57c-7.8 11.2-8 48.4-8 48.4h-184.9c0 0 5-40 5-50c0-10 10-30 40-40c30-10 50 0 80-15.4z"  fill="none" stroke="#000000" stroke-width="6"/>
		<path id="baseball-right" class="s5" d="m360 520c30 10 40 30 40 40c0 10 10 50 10 50h-230c0 0 0-40 10-50c10-10 80-10 90-55c30 15 50 5 80 15z"  fill="none" stroke="#000000" stroke-width="6"/>
	</g>
</svg>