<svg xmlns="http://www.w3.org/2000/svg" viewBox="0 0 400 600" width="400" height="600">
    <g id="football5">
        <path id="footballWhite" d="M120,505C120,540 170,530 200,550C230,530 280,540 280,505C310,480 370,490 380,500C390,510 390.07,520.41 395,550C400,580 400,570 400,610L0,610C0,570 0,580.41 5,550.41C9.93,520.82 10,511.03 20,500C29.5,489.52 90,480 120,505Z" style="fill:white;fill-rule:nonzero;stroke:black;stroke-width:6px;"/>
        <g transform="matrix(-1,0,0,1,400.837,0)">
            <path d="M388.812,518.932C388.393,515.594 391.606,529.63 395,550C400,580 400,570 400,610L342.837,610L388.812,518.932Z" style="fill:$[primary];"/>
        </g>
        <path d="M388.812,518.932C388.393,515.594 391.606,529.63 395,550C400,580 400,570 400,610L342.837,610L388.812,518.932Z" style="fill:$[primary];"/>
        <path d="M28.441,497.904L57.812,610.86L11.403,518.932C13.145,505.054 18.471,497.428 28.441,497.904Z" style="fill:$[secondary];stroke:black;stroke-width:1px;stroke-linecap:round;stroke-linejoin:round;stroke-miterlimit:1.5;"/>
        <g transform="matrix(-1,0,0,1,400.215,0)">
            <path d="M28.441,497.904L57.812,610.86L11.403,518.932C13.145,505.054 18.471,497.428 28.441,497.904Z" style="fill:$[secondary];stroke:black;stroke-width:1px;stroke-linecap:round;stroke-linejoin:round;stroke-miterlimit:1.5;"/>
        </g>
        <path id="collarPrimary" d="M120,505C120,540 170,530 200,550C230,530 280,540 280,505L295,495C300,555 240,540 200,570C160,540 100,555 105,495L120,505Z" style="fill:$[primary];fill-rule:nonzero;stroke:black;stroke-width:2px;"/>
        <path id="footballStroke" d="M120,505C120,540 170,530 200,550C230,530 280,540 280,505C310,480 370,490 380,500C390,510 390.07,520.41 395,550C400,580 400,570 400,610L0,610C0,570 0,580 5,550C9.93,520.41 10,511.03 20,500C29.5,489.52 90,480 120,505Z" style="fill:none;fill-rule:nonzero;stroke:black;stroke-width:6px;"/>
        <path id="shoulderpads" d="M19.5,570C19.5,570 92,567.89 101,550M381,570C381,570 310,567.89 301,550" style="fill:none;fill-rule:nonzero;stroke:black;stroke-width:2px;"/>
    </g>
</svg>
