<svg id="Capa_1" data-name="Capa 1" xmlns="http://www.w3.org/2000/svg" viewBox="0 0 400 600">
  <defs>
    <style>
      .cls-1 {
        fill: #fff;
      }
    </style>
  </defs>
  <title>Bodyf_1</title>
  <g>
    <path d="M391.79,600.15c3,0,4.29-.68,5-2.86l1,.38c-.52,1.43-1.05,2.86-1.5,4.21-.15.53-1.35,1-2.11,1-1.5.15-3,0-4.51,0H10.46c-6.4,0-6.62,0-8.73-5.41l1.43-.46C4.29,599.62,7,600,13,600Q202.29,600,391.79,600.15Z"/>
    <path d="M346.05,539.43c8.05,2.78,16.25,5.11,24.15,8.2,6,2.33,12.11,5.27,16.18,10.53C393.22,567,399.7,576.37,400,588c.07,3.24-1.06,6.48-2.26,9.64l-1-.38c.15-.53.3-1.13.45-1.81,1.81-10-1.95-18.43-6.47-26.78-7.3-13.55-19.86-19.79-33.71-23.63-21.07-5.87-40.7-14.67-59.59-25.51-9.18-5.19-18.44-10.08-27.62-15.2-1.27-.75-2.48-1.65-4.13-2.78.3,1.58.52,2.86.75,4.06l-1.21.45c-1.35-3.68-2.93-7.29-4.13-11.06l1.5-.37a9.71,9.71,0,0,0,4.52,5.64C292.55,515.12,318,529.87,346.05,539.43Z"/>
    <path d="M261,458.16c-2,11.89-2,23.71,1.28,35.44.08.38.23.68.3,1.06l-1.5.37c-.3-.82-.53-1.73-.76-2.63-1.28-4.67-1.8-9.56-2.78-15.43-3.69,17.39-4.21,34.09-4.44,50.72-.3,0-.68.07-1,.07-.22-1.58-.52-3.16-.68-4.74s-.22-3.23-.22-4.89c-.08-17.53,2.63-34.68,5.94-51.84,1.66-8.35,3-16.78,4.52-25.13a10.08,10.08,0,0,1,.3-1.51c.6-2.4,2.48-5.34,1.73-7a23.65,23.65,0,0,0-7-8.43L258,423c2.33,2,4.59,3.92,6.85,5.8.15-.3.83-1.51,1.43-2.71.3.15.6.23.83.38C265.08,437.1,262.83,447.63,261,458.16Z"/>
    <path d="M215.2,572.23c.15.53.37,1.13.52,1.66-5,1.88-9.93,5.19-14.89,5.19-5.42,0-10.84-3-16.18-4.74.07-.45.15-.9.22-1.43a6.64,6.64,0,0,1,2-.38,9.68,9.68,0,0,1,3.24,1c6.84,3.92,13.61,3.69,20.46-.07C211.81,572.61,213.62,572.61,215.2,572.23Z"/>
    <path d="M191.5,401.43c8.87-2.48,16.85-.23,24.9,2.11A141.27,141.27,0,0,1,252.22,419a63.89,63.89,0,0,1,5.72,4.14l-1.28,1.2a81.18,81.18,0,0,0-13.17-7.9,153,153,0,0,0-37.4-13.32c-5.79-1.2-11.21-.07-16.7,1.28a137.15,137.15,0,0,0-42.06,17.69c-3.39,2.1-5.87,5.64-8.73,8.5-.38.38-.83.75-1.28,1.13-.3-.23-.68-.45-1-.68,1.21-2,2.11-4.29,3.69-5.87a43.51,43.51,0,0,1,8.12-6.09C161.7,411.14,176.3,405.64,191.5,401.43Z"/>
    <path d="M137.62,494.43c4.21-13.62,3.46-27.46.75-41.31-1.43-7.22-2.93-14.52-4.29-21.74a20.26,20.26,0,0,1-.22-3.16,9.45,9.45,0,0,1,1.5,2.63c6.7,15.65,16.11,86.38,12.49,96.61-1.35-16.4-2.63-33-4-49.58-.53,0-1.06-.08-1.66-.08A65.41,65.41,0,0,1,139.13,495Z"/>
    <path fill="$[skinColor]" d="M136.27,430.93c.3.22.67.45,1,.67a14.49,14.49,0,0,0,1.28-1.13c2.86-2.86,5.35-6.39,8.73-8.5a142.66,142.66,0,0,1,42.06-17.68c5.5-1.36,10.91-2.48,16.71-1.28a152.5,152.5,0,0,1,37.39,13.32,85.22,85.22,0,0,1,13.17,7.9,23.65,23.65,0,0,1,7,8.43c.83,1.73-1.05,4.66-1.73,7-.15.45-.15,1-.3,1.51-1.51,8.35-2.86,16.78-4.52,25.13-3.31,17.16-5.94,34.31-5.94,51.84,0,1.66.07,3.24.22,4.89s.46,3.16.68,4.74a4.62,4.62,0,0,0,1-.07c.23-16.71.75-33.33,4.44-50.72,1,5.87,1.58,10.76,2.78,15.43.23.9.53,1.73.76,2.63,1.2,3.77,2.78,7.38,4.13,11.06l1.21-.45c-.23-1.2-.45-2.48-.75-4.06a38.41,38.41,0,0,0,4.13,2.78c9.18,5.12,18.51,10,27.62,15.2,18.88,10.76,38.52,19.64,59.59,25.51,13.92,3.84,26.41,10.08,33.71,23.63,4.52,8.42,8.28,16.78,6.47,26.78-.15.68-.3,1.28-.45,1.81-.75,2.18-2.11,2.86-5,2.86q-189.39-.23-378.85-.15c-6,0-8.73-.38-9.86-2.94-.75-1.65-.75-4.21-.6-8.2a11.61,11.61,0,0,1,.22-2.26c3.69-19.11,14.37-32.43,32.81-39.05,2.71-1,5.49-1.88,8.2-2.78l5-1.58c4.44-1.36,8.88-2.71,13.24-4.21,17.83-6,33.93-15.5,50.34-24.38,7.37-4,14.67-8.21,22-12.34-.15,1.13-.3,2.25-.53,3.38a42.35,42.35,0,0,0,5.27-10.83,68,68,0,0,0,3.08-17.16c.53,0,1.06.08,1.66.08,1.35,16.55,2.71,33.18,4,49.58,3.68-10.23-5.72-81-12.49-96.61Zm79.45,143c-.15-.53-.37-1.13-.52-1.66-1.58.38-3.31.38-4.74,1.13-6.85,3.84-13.62,4.07-20.47.08a9.46,9.46,0,0,0-3.24-1,6,6,0,0,0-1.95.38c-.08.45-.15.9-.23,1.42C190,576,195.41,579,200.75,579,205.72,579,210.76,575.77,215.72,573.89Z"/>
    <path d="M112.41,514.75c-16.4,8.88-32.5,18.36-50.33,24.38-4.37,1.5-8.81,2.86-13.25,4.21l-.67-2c14.59-4.74,29-9.85,42.58-17.3,14.45-8,28.9-16.11,43.12-24.38a9.5,9.5,0,0,0,3.76-5.19l1.51.52a47.81,47.81,0,0,1-5.27,10.84c.15-1.13.37-2.33.53-3.39C127.09,506.55,119.79,510.76,112.41,514.75Z"/>
    <path d="M48.16,541.31l.67,2-5,1.58-.61-2C44.92,542.36,46.58,541.83,48.16,541.31Z"/>
    <path d="M18.89,553.87a75.81,75.81,0,0,1,20.54-9.78c1.28-.37,2.56-.83,3.83-1.2l.61,2c-2.79.91-5.5,1.81-8.2,2.79-18.44,6.62-29.12,19.94-32.81,39a11.55,11.55,0,0,0-.23,2.26c-.15,4-.15,6.54.6,8.2l-1.42.45c-.08-.15-.16-.38-.23-.53A22.11,22.11,0,0,1,.9,582.62C4.29,571.41,9.1,560.72,18.89,553.87Z"/>
  </g>
</svg>
