<svg version="1.2" xmlns="http://www.w3.org/2000/svg" viewBox="0 0 400 600" width="400" height="600">
	<title>body3-svg</title>
	<g id="Body">
		<path id="Body" d="m10 600c0 0-10-70 50-70c10 0 0-10 60-20c0 0 50-210 80-210c30 0 80 210 80 210c60 10 50 20 60 20c60 0 50 70 50 70"  fill="$[skinColor]" stroke="#000" stroke-width="6"/>
		<path id="collar-bone" d="m71 545c0 0 46.9-3 82.1 10m175.9-10c0 0-46.9-3-82.1 10" />
		<path id="shoulder-def" d="m324 537c0 0 5.5-7.5 22-7m-271 7c0 0-5.5-7.5-22-7" />
	</g>
</svg>