<svg id="Capa_1" data-name="Capa 1" xmlns="http://www.w3.org/2000/svg" viewBox="0 0 400 600">
  <defs>
    <style>
      .cls-1 {
        fill: #fff;
      }
    </style>
  </defs>
  <title>Bodyf</title>
  <g>
    <path d="M399.48,574.9c-1.48,6.28-3.32,12.49-4.44,18.84-2.54,14-10.52,24.49-21.39,32.67-17.43,13.13-36.13,24.21-57.15,30.7C282.91,667.48,249.67,679,215,685.34c-4.37.77-9,1.12-13,2.82s-6.85,1.34-10.87.07c-7.48-2.4-15.45-3.39-23.21-5-33-6.85-64.85-17.5-96.75-28-19.4-6.35-36.76-17.07-52.78-29.63C7.84,617.38.22,607-2.11,593.39c-1.19-7.13-3-14.11-4.58-21.17v-4A40.75,40.75,0,0,1-.27,549.85,29.2,29.2,0,0,1,16.45,537a153.69,153.69,0,0,1,24.7-4.45C68,530,94.92,527.34,119.34,514.21a119.48,119.48,0,0,0,13.48-8.11,16.28,16.28,0,0,0,6.91-11.86c.71-10.79,1.48-21.66.85-32.46-.57-9.94-3-19.82-4.52-29.7-1-6.42-.07-12.63,5.08-16.94a88.71,88.71,0,0,1,15.67-10.8c11.22-5.85,23.57-8.32,36-10.23a18.91,18.91,0,0,0,2.82-.77h2c4.59.91,9.11,1.83,13.69,2.75,10.59,2.12,20.89,5.29,30.14,11a62.53,62.53,0,0,1,11.43,9.24,15.07,15.07,0,0,1,3.53,16c-2.62,6.84-3.74,13.83-4.45,21-1.34,13.26-2.05,26.6,0,39.87,1.06,7.12,5.15,12,11.22,15.8,21.17,13.06,44.39,19.2,68.87,21.6,11.57,1.12,23.15,2.32,34.65,4.16,17.15,2.82,28.22,12.63,32.18,29.85.07.28.28.56.42.92C399.48,568.69,399.48,571.8,399.48,574.9ZM-5.77,569.54c1.69,7.9,3.52,15.8,5.08,23.78C1.92,606.8,9.68,617,20.19,625.14a166.47,166.47,0,0,0,49.54,26.61c34.93,11.5,69.93,23.14,106.13,30.27,6.42,1.27,12.84,2.75,19.34,4.09a8.16,8.16,0,0,0,2.61.07L223,680.89c33.94-7.13,66.75-18.07,99.64-28.79a169.47,169.47,0,0,0,49.89-26.6c10.65-8.12,18.62-18.35,21.24-32,.84-4.38,1.9-8.75,3-13,3.24-12.71,1.55-24.07-8.82-33.24-4.94-4.38-10.09-8.26-16.66-9.53-6.28-1.2-12.56-2.18-18.84-3-14.11-1.91-28.22-3.39-42.26-5.58-18.21-2.82-34.44-11-50.25-19.82-7.19-4-9.73-11.72-10.3-19.76a177.82,177.82,0,0,1,3-48.13c.78-3.74,1.91-7.34,2.4-11.08.78-5.57-1.41-10.3-5.43-14.18-7.27-7.06-16.3-11.22-25.9-13.62-9.45-2.4-19.26-5.22-28.93-5.08-13,.21-25.9,3.95-37.75,9.88A70.34,70.34,0,0,0,143,417c-4.73,4.16-6,10.16-4.73,16.09a212.71,212.71,0,0,1,4.8,51.3,50.59,50.59,0,0,1-1.2,10.3c-2,7.48-5.22,14.11-13.69,16.3-19.62,12.84-41.49,18.49-64.5,21.24-13.69,1.62-27.38,3.17-40.93,5.22S-5.7,553.38-5.77,569.54Z"/>
    <path  fill="$[skinColor]" d="M-5.77,569.54c.07-16.16,14.88-30.2,28.57-32.25s27.31-3.6,40.93-5.22c22.94-2.68,44.88-8.4,64.5-21.24,8.47-2.12,11.71-8.82,13.69-16.3a45.55,45.55,0,0,0,1.2-10.31,212.81,212.81,0,0,0-4.8-51.3c-1.27-5.92-.07-11.92,4.73-16.09a64.89,64.89,0,0,1,14-9.66c11.85-5.93,24.7-9.67,37.75-9.88,9.6-.14,19.41,2.68,28.93,5.08s18.56,6.56,25.9,13.62c4,3.88,6.21,8.54,5.43,14.18-.49,3.74-1.62,7.41-2.39,11.08a177.43,177.43,0,0,0-3,48.13c.57,8,3.11,15.73,10.3,19.75,15.81,8.9,32,17,50.25,19.83,14,2.19,28.15,3.67,42.26,5.58,6.28.84,12.64,1.83,18.85,3,6.56,1.27,11.71,5.15,16.65,9.53,10.37,9.17,12.07,20.46,8.82,33.23-1.13,4.31-2.12,8.68-3,13.06-2.62,13.62-10.59,23.85-21.24,32A170.91,170.91,0,0,1,322.71,652c-32.89,10.79-65.7,21.66-99.64,28.79L197.88,686a6.56,6.56,0,0,1-2.61-.07c-6.43-1.34-12.85-2.75-19.34-4.09-36.2-7.13-71.2-18.77-106.13-30.28A167.29,167.29,0,0,1,20.26,625C9.75,616.89,2,606.66-.62,593.18-2.25,585.34-4.08,577.44-5.77,569.54Zm308.08-20.11c.07-.43.07-.78.14-1.2-1,0-2-.07-3,0-20,1.34-40,2.61-60,4-9.17.63-18.28,1.62-27,5.15-3.74,1.48-5.71,4.23-6.91,8,2.26-6.28,8-7.48,13.26-8.39,9.46-1.7,19.06-2.83,28.58-3.6C265.76,551.83,284,550.7,302.31,549.43ZM186.52,565.59c.35-.43.7-.85,1-1.34-2.32-2.19-4.37-5.09-7.19-6.43a37.35,37.35,0,0,0-12.49-3.74c-15.95-1.55-31.9-2.68-47.85-4-9.88-.77-19.76-1.41-29.63-2.11a15.92,15.92,0,0,0,4.51,1.27c12.92,1.12,25.83,2.11,38.81,3.24,12.35,1.06,24.77,1.84,37.05,3.67C176.92,557.19,183.76,558.18,186.52,565.59Z"/>
    <path d="M302.31,549.43c-18.27,1.27-36.62,2.4-54.9,4-9.59.77-19.12,1.9-28.58,3.6-5.22.91-10.93,2.11-13.26,8.39,1.2-3.66,3.17-6.49,6.91-8,8.68-3.46,17.79-4.45,27-5.15,20-1.41,40-2.68,60-4,1-.07,2.05,0,3,0C302.38,548.65,302.38,549,302.31,549.43Z"/>
    <path d="M186.52,565.59c-2.76-7.41-9.6-8.4-15.67-9.32-12.28-1.76-24.7-2.54-37-3.67-12.91-1.13-25.82-2.11-38.81-3.24a15,15,0,0,1-4.51-1.27c9.88.7,19.75,1.34,29.63,2.11,16,1.2,31.9,2.33,47.85,3.95a37.84,37.84,0,0,1,12.49,3.74c2.75,1.35,4.8,4.24,7.19,6.43A16.17,16.17,0,0,0,186.52,565.59Z"/>
  </g>
</svg>
