<svg id="Capa_1" data-name="Capa 1" xmlns="http://www.w3.org/2000/svg" viewBox="0 0 400 600">
  <defs>
    <style>
      .cls-1 {
        fill: #fff;
      }
    </style>
  </defs>
  <title>Bodyf_3</title>
  <g>
    <path d="M373.9,562.63c9.59,3.31,19.36,6.09,28.77,9.76,7.16,2.78,14.42,6.27,19.26,12.55,8.15,10.57,15.86,21.68,16.22,35.57.09,3.85-1.26,7.7-2.69,11.46l-1.17-.44c.18-.63.36-1.35.54-2.15,2.15-11.92-2.33-22-7.7-31.9-8.7-16.13-23.66-23.56-40.14-28.13-25.09-7-48.48-17.48-71-30.38-10.94-6.18-22-12-32.89-18.1-1.52-.89-2.95-2-4.92-3.31.35,1.88.62,3.4.89,4.84-.45.18-1,.36-1.43.53-1.61-4.39-3.5-8.69-4.93-13.17l1.79-.44a11.63,11.63,0,0,0,5.38,6.72C310.2,533.69,340.49,551.25,373.9,562.63Z"/>
    <path d="M272.66,465.86c-2.42,14.16-2.42,28.22,1.52,42.2.09.45.27.81.36,1.26l-1.79.44a31.76,31.76,0,0,1-.9-3.13c-1.52-5.56-2.15-11.38-3.31-18.37-4.39,20.7-5,40.59-5.29,60.39-.36,0-.8.09-1.16.09-.27-1.88-.63-3.76-.81-5.65s-.27-3.85-.27-5.82c-.09-20.88,3.14-41.3,7.08-61.73,2-10,3.58-20,5.38-29.93a12.9,12.9,0,0,1,.36-1.79c.71-2.87,2.95-6.36,2.06-8.33a28.26,28.26,0,0,0-8.34-10l1.53-1.43c2.77,2.33,5.46,4.66,8.15,6.9.18-.36,1-1.79,1.7-3.23a10.56,10.56,0,0,1,1,.45C277.5,440.77,274.81,453.32,272.66,465.86Z"/>
    <path d="M189.87,398.31c10.58-3,20.07-.27,29.66,2.5,15,4.31,29.39,10.13,42.65,18.37a74.58,74.58,0,0,1,6.81,4.93l-1.53,1.43a94.78,94.78,0,0,0-15.68-9.4,181.58,181.58,0,0,0-44.53-15.86c-6.89-1.44-13.35-.09-19.89,1.52-17.83,4.39-34.67,11.11-50.08,21.06-4,2.5-7,6.72-10.39,10.12-.45.45-1,.9-1.53,1.34-.35-.27-.8-.53-1.16-.8,1.43-2.33,2.51-5.11,4.39-7a51.33,51.33,0,0,1,9.68-7.26C154.39,409.86,171.77,403.32,189.87,398.31Z"/>
    <path d="M125.72,509.05c5-16.22,4.12-32.71.9-49.19-1.7-8.6-3.5-17.29-5.11-25.89a23.93,23.93,0,0,1-.27-3.77,11.31,11.31,0,0,1,1.79,3.14c8,18.63,19.18,102.86,14.88,115-1.62-19.53-3.14-39.33-4.75-59-.63,0-1.26-.09-2-.09a77.68,77.68,0,0,1-3.68,20.42Z"/>
    <path  fill="$[skinColor]" d="M124.11,433.43c.36.27.81.54,1.16.8.54-.44,1.08-.89,1.53-1.34,3.4-3.4,6.36-7.62,10.39-10.12,15.5-9.86,32.34-16.58,50.08-21.06,6.55-1.61,13-3,19.9-1.52a181.51,181.51,0,0,1,44.52,15.86,101.39,101.39,0,0,1,15.68,9.4,28.26,28.26,0,0,1,8.34,10c1,2.06-1.26,5.55-2.06,8.33-.18.54-.18,1.17-.36,1.79-1.79,9.95-3.41,20-5.38,29.93-3.94,20.43-7.08,40.85-7.08,61.73,0,2,.09,3.85.27,5.82s.54,3.77.81,5.65a5,5,0,0,0,1.16-.09c.27-19.89.9-39.69,5.29-60.39,1.25,7,1.88,12.81,3.31,18.37.27,1.07.63,2.06.9,3.13,1.43,4.48,3.32,8.78,4.93,13.17.45-.17,1-.35,1.43-.53-.27-1.44-.54-3-.89-4.84a47.21,47.21,0,0,0,4.92,3.31c10.93,6.1,22,11.92,32.89,18.1,22.48,12.82,45.87,23.39,71,30.38,16.57,4.57,31.45,12,40.14,28.13,5.37,10,9.85,20,7.7,31.9-.18.8-.36,1.52-.54,2.15-.89,2.59-2.5,3.4-6,3.4Q202.6,634.66-23,634.75c-7.17,0-10.39-.45-11.74-3.49-.89-2-.89-5-.71-9.77a13.71,13.71,0,0,1,.27-2.69c4.39-22.75,17.11-38.61,39.06-46.5,3.23-1.16,6.54-2.24,9.77-3.31l5.91-1.88c5.29-1.62,10.57-3.23,15.77-5,21.23-7.08,40.41-18.46,59.94-29,8.78-4.75,17.47-9.77,26.16-14.69-.18,1.34-.36,2.68-.63,4a50.61,50.61,0,0,0,6.28-12.9,81.61,81.61,0,0,0,3.67-20.43c.63,0,1.25.09,2,.09,1.61,19.71,3.23,39.51,4.75,59,4.39-12.18-6.81-96.41-14.87-115Zm94.61,170.23c-.18-.63-.44-1.34-.62-2-1.89.45-3.95.45-5.65,1.34-8.15,4.57-16.22,4.84-24.37.09a11.48,11.48,0,0,0-3.85-1.16,7.6,7.6,0,0,0-2.33.45c-.09.53-.18,1.07-.27,1.7,6.45,2.06,12.9,5.64,19.26,5.64C206.81,609.75,212.81,605.9,218.72,603.66Z"/>
    <path d="M95.71,533.24c-19.54,10.57-38.71,21.86-59.94,29-5.2,1.79-10.49,3.4-15.77,5L19.19,565c17.38-5.65,34.59-11.74,50.71-20.61,17.21-9.5,34.41-19.18,51.34-29a11.28,11.28,0,0,0,4.48-6.18l1.79.62a57.18,57.18,0,0,1-6.27,12.91c.18-1.35.45-2.78.63-4C113.18,523.47,104.49,528.49,95.71,533.24Z"/>
    <path d="M19.19,564.87,20,567.2l-5.92,1.88-.71-2.33C15.34,566.12,17.31,565.49,19.19,564.87Z"/>
    <path d="M-15.66,579.83A90.39,90.39,0,0,1,8.8,568.18c1.52-.45,3-1,4.57-1.43l.71,2.33c-3.31,1.07-6.54,2.15-9.76,3.31-21.95,7.89-34.68,23.75-39.07,46.5a13.62,13.62,0,0,0-.26,2.69c-.18,4.75-.18,7.8.71,9.77l-1.7.53c-.09-.17-.18-.44-.27-.62a26.42,26.42,0,0,1-.81-17.21C-33,600.7-27.31,588-15.66,579.83Z"/>
  </g>
</svg>
