<svg xmlns="http://www.w3.org/2000/svg" viewBox="0 0 400 600" width="400" height="600">
	<path id="longHairBg" class="longHairBg" d="M63 243C63 243 51.75 288.2 43 315C34.25 341.8 20.77 396.18 55 417C72.75 427.8 111.25 430.8 111.25 430.8L308 437C308 437 352.75 431.8 360 379C366.01 335.21 366.25 300 328 254" fill="$[hairColor]" stroke="#000" stroke-width="4"/>
	<path id="longHairBg" class="longHairBg" d="M341 393C341 393 334.49 425.08 329.75 439.3C327.25 446.8 322.75 458.8 331 475C317.7 472.12 301 453 301 453C301 453 289.3 488.32 256.7 495.32C264.7 480.52 264 461 264 461M55 393C55 393 61.51 425.08 66.25 439.3C68.75 446.8 73.25 458.8 65 475C78.3 472.12 95 453 95 453C95 453 106.7 488.32 139.3 495.32C131.3 480.52 132 461 132 461" fill="$[hairColor]" stroke="#000" stroke-width="4"/>
</svg>