<svg xmlns="http://www.w3.org/2000/svg" viewBox="0 0 400 600" width="400" height="600">
	<path id="shaggyBg" class="shaggyBg" d="M59.75 313.8C59.75 313.8 51.25 344.49 54.5 374.2C65.75 354.49 79.5 341.86 79.5 341.86C79.5 341.86 64.17 391.7 69.17 416.2C85.67 388.2 95.83 374.53 95.83 374.53C95.83 374.53 86.5 427.7 91.5 460.2C109.5 427.2 125.17 412.53 125.17 412.53C125.17 412.53 110.87 452.65 116.87 487.65C138.37 441.65 198.25 454.8 198.25 454.8L196 325L59.75 313.8ZM341.25 313.8C341.25 313.8 349.75 344.49 346.5 374.2C335.25 354.49 321.5 341.86 321.5 341.86C321.5 341.86 336.83 391.7 331.83 416.2C315.33 388.2 305.17 374.53 305.17 374.53C305.17 374.53 314.5 427.7 309.5 460.2C291.5 427.2 275.83 412.53 275.83 412.53C275.83 412.53 290.13 452.65 284.13 487.65C262.63 441.65 202.75 454.8 202.75 454.8L205 325L341.25 313.8Z" fill="$[hairColor]" stroke="#000" stroke-width="4"/>
</svg>