<svg xmlns="http://www.w3.org/2000/svg" viewBox="0 0 400 600" width="400" height="600">
	<path id="beard-point" fill-rule="evenodd" class="shp0" d="M200 410C255 410 255 425 255 440C325 440 340 405 340 300L350 300C350 430 336.97 437.37 320 460C290 500 210 580 200 580C190 580 110 500 80 460C63.03 437.37 50 430 50 300L60 300C60 405 75 440 145 440C145 425 145 410 200 410ZM155 440C155 460 160 470 180 470C190 470 190 460 200 460C210 460 210 470 220 470C240 470 245 460 245 440C245 420 230 420 200 420C170 420 155 420 155 440Z" fill="$[hairColor]" stroke="#000" stroke-width="1"/>
</svg>