<svg xmlns="http://www.w3.org/2000/svg" viewBox="0 0 400 600" width="400" height="600">
	<path id="beard1" fill-rule="evenodd" class="shp0" d="M200 410C245 410 250 420 250 420C280 420 340 405 340 300L350 300C350 430 320 450 310 460C300 470 250 520 200 520C150 520 100 470 90 460C80 450 50 430 50 300L60 300C60 405 120 420 150 420C150 420 155 410 200 410ZM155 440C155 460 160 470 180 470C190 470 190 460 200 460C210 460 210 470 220 470C240 470 245 460 245 440C245 420 230 420 200 420C170 420 155 420 155 440Z" fill="$[hairColor]" stroke="#000" stroke-width="1"/>
</svg>