<svg xmlns="http://www.w3.org/2000/svg" viewBox="0 0 400 600" width="400" height="600">
	<path id="beard2" fill-rule="evenodd" class="shp0" d="M200 410C255 410 255 425 255 450C255 450 285 450 300 430C300 490 265 500 255 505C245 510 215 515 200 515C185 515 155 510 145 505C135 500 100 490 100 430C115 450 145 450 145 450C145 425 145 410 200 410ZM155 440C155 460 160 470 180 470C190 470 180 450 200 450C220 450 210 470 220 470C240 470 245 460 245 440C245 420 230 420 200 420C170 420 155 420 155 440Z" fill="$[hairColor]" stroke="#000" stroke-width="1"/>
</svg>