<svg xmlns="http://www.w3.org/2000/svg" viewBox="0 0 400 600" width="400" height="600">
	<path id="fullgoatee" fill-rule="evenodd" class="shp0" d="M200 405C255 405 265 425 265 440C265 455 260 480 250 495C245 500 215 510 200 510C185 510 153.33 500 150 495C140 480 135 455 135 440C135 425 145 405 200 405ZM150 440C155 460 160 470 180 470C190 470 190 455 200 455C210 455 210 470 220 470C240 470 245 460 250 440C254.85 420.6 230 420 200 420C170 420 145.15 420.6 150 440Z" fill="$[hairColor]" stroke="#000" stroke-width="1"/>
</svg>