<svg xmlns="http://www.w3.org/2000/svg" viewBox="0 0 400 600" width="400" height="600">
	<path id="goatee3" class="shp0" d="M175 485C175 485 185 480 200 480C215 480 225 485 225 485C210 515 210 530 210 530L205 520L200 540L195 520L190 530C190 530 190 515 175 485Z M150 425C145 420 175 405 185 405C190 405 195 410 200 410C205 410 210 405 215 405C225 405 255 420 250 425C245 430 245 420 200 420C155 420 155 430 150 425Z M188 458C190 456 210 456 212 458C214 460 204 474 200 474C196 474 186 460 188 458Z" fill="$[hairColor]" stroke="#000" stroke-width="1"/>
</svg>