<?xml version="1.0" encoding="UTF-8" standalone="no"?>
<svg
   xmlns:dc="http://purl.org/dc/elements/1.1/"
   xmlns:cc="http://creativecommons.org/ns#"
   xmlns:rdf="http://www.w3.org/1999/02/22-rdf-syntax-ns#"
   xmlns:svg="http://www.w3.org/2000/svg"
   xmlns="http://www.w3.org/2000/svg"
   xmlns:sodipodi="http://sodipodi.sourceforge.net/DTD/sodipodi-0.dtd"
   xmlns:inkscape="http://www.inkscape.org/namespaces/inkscape"
   inkscape:version="1.0 (4035a4fb49, 2020-05-01)"
   sodipodi:docname="goatee4-stache.svg"
   id="svg1115"
   version="1.1"
   height="600"
   width="400"
   viewBox="0 0 400 600">
  <metadata
     id="metadata1121">
    <rdf:RDF>
      <cc:Work
         rdf:about="">
        <dc:format>image/svg+xml</dc:format>
        <dc:type
           rdf:resource="http://purl.org/dc/dcmitype/StillImage" />
        <dc:title></dc:title>
      </cc:Work>
    </rdf:RDF>
  </metadata>
  <defs
     id="defs1119" />
  <sodipodi:namedview
     inkscape:current-layer="svg1115"
     inkscape:window-maximized="1"
     inkscape:window-y="-8"
     inkscape:window-x="1912"
     inkscape:cy="493.69468"
     inkscape:cx="197.16194"
     inkscape:zoom="19.00703"
     showgrid="false"
     id="namedview1117"
     inkscape:window-height="1417"
     inkscape:window-width="2560"
     inkscape:pageshadow="2"
     inkscape:pageopacity="0"
     guidetolerance="10"
     gridtolerance="10"
     objecttolerance="10"
     borderopacity="1"
     bordercolor="#666666"
     pagecolor="#ffffff" />
  <path
     sodipodi:nodetypes="ccsssssccsssssss"
     id="goatee1_stache"
     class="shp0"
     d="m 200.54243,480.14187 10.05261,0.0962 c 0,0 -0.59524,-0.2381 9.40476,-0.2381 10,0 30,-5 30,0 0,20 -30,30 -50,30 -20,0 -50,-10 -50,-30 0,-5 20,0 30,0 10,0 11.2957,0.18549 11.2957,0.18549 z M 149.9998,425 c -5,-5 25,-20 35,-20 5,0 10,5 15,5 5,0 10,-5 15,-5 10,0 40,15 35,20 -5,5 -5,-5 -50,-5 -45,0 -45,10 -50,5 z"
     fill="$[hairColor]"
     stroke="#000000"
     stroke-width="1" />
</svg>
