<svg xmlns="http://www.w3.org/2000/svg" viewBox="0 0 400 600" width="400" height="600">
	<path id="honest_abe_stache" d="M340 300C340 405 255 440 255 440C255 440 250 470 240 470C210 470 210 460 200 460C190 460 190 470 160 470C150 470 145 440 145 440C145 440 60 405 60 300L50 300C50 405 70 440 70 440C70 440 125 520 200 520C275 520 330 440 330 440C330 440 350 405 350 300L340 300Z M150 425C145 420 175 405 185 405C190 405 195 410 200 410C205 410 210 405 215 405C225 405 255 420 250 425C245 430 245 420 200 420C155 420 155 430 150 425Z" fill="$[hairColor]" stroke="#000" stroke-width="1"/>
</svg>