<svg xmlns="http://www.w3.org/2000/svg" viewBox="0 0 400 600" width="400" height="600">
	<path id="mustache1" class="shp0" d="M150 425C145 420 175 405 185 405C190 405 195 410 200 410C205 410 210 405 215 405C225 405 255 420 250 425C245 430 245 420 200 420C155 420 155 430 150 425Z M60 300L50 300C50 300 41.15 385.38 70 395C85 400 70 360.9 70 360.9C70 360.9 65 355 60 300ZM339 300L349 300C349 300 357.85 385.38 329 395C314 400 329 360.9 329 360.9C329 360.9 334 355 339 300Z" fill="$[hairColor]" stroke="#000" stroke-width="1"/>
</svg>