<svg xmlns="http://www.w3.org/2000/svg" viewBox="0 0 400 600" width="400" height="600">
	<path id="beard-point" fill-rule="evenodd" class="shp0" d="M60 300L50 300C50 300 40 370 60 430C70 450 90 485 150 485C160 475 150 440 140 430C130 420 110 430 80 400C60 380 60 330 60 300ZM321 400C291 430 271 420 261 430C251 440 241 475 251 485C311 485 331 450 341 430C361 370 351 300 351 300L341 300C341 330 341 380 321 400Z " fill="$[hairColor]" stroke="#000" stroke-width="1"/>
	<path id="goatee5" d="M200 460C210 460 210 480 220 480C230 480 240 460 240 460C240 460 250 460 250 465C250 505 240 515 200 515C160 515 150 505 150 465C150 460 160 460 160 460C160 460 170 480 180 480C190 480 190 460 200 460Z" fill="$[hairColor]" stroke="#000" stroke-width="1"/>
</svg>