<svg xmlns="http://www.w3.org/2000/svg" viewBox="0 0 400 600" width="400" height="600">
	<path id="beard-point" fill-rule="evenodd" class="shp0" d="M60 300L50 300C50 300 40 370 60 430C70 450 90 485 150 485C160 475 150 440 140 430C130 420 110 430 80 400C60 380 60 330 60 300ZM321 400C291 430 271 420 261 430C251 440 241 475 251 485C311 485 331 450 341 430C361 370 351 300 351 300L341 300C341 330 341 380 321 400Z M200 458.02L190 460C180 470 170 500 170 500C170 500 180 510 200 510C220 510 230 500 230 500C230 500 220 470 210 460L200 458.02Z" fill="$[hairColor]" stroke="#000" stroke-width="1"/>
</svg>