<svg xmlns="http://www.w3.org/2000/svg" viewBox="0 0 400 600" width="400" height="600">
	<path id="goatee2" class="shp0" d="M200 450C220 450 210 480 220 480C230 480 255 475 265 465C285 445 295 435 305 435C305 505 240 515 200 515C160 515 95 505 95 435C105 435 115 445 135 465C145 475 170 480 180 480C190 480 180 450 200 450Z M150 425C145 420 175 405 185 405C190 405 195 410 200 410C205 410 210 405 215 405C225 405 255 420 250 425C245 430 245 420 200 420C155 420 155 430 150 425Z" fill="$[hairColor]" stroke="#000" stroke-width="1"/>
</svg>