<svg xmlns="http://www.w3.org/2000/svg" viewBox="0 0 400 600" width="400" height="600">
	<path id="wilt-sideburns" fill-rule="evenodd" class="shp0" d="M200 405C255 405 255 425 255 440C255 440 260 480 250 495C245 500 215 510 200 510C185 510 153.33 500 150 495C140 480 145 440 145 440C145 425 145 405 200 405ZM155 440C155 445 160 445 180 445C190 445 190 440 200 440C210 440 210 445 220 445C240 445 245 445 245 440C245 420 230 425 200 425C170 425 155 420 155 440Z M60 300L50 300C50 300 46.15 400.38 75 410C90 415 110 425 115 420C135 400 110 395 110 395C110 395 60 375 60 300ZM340 300L350 300C350 300 353.85 400.38 325 410C310 415 290 425 285 420C265 400 290 395 290 395C290 395 340 375 340 300Z" fill="$[hairColor]" stroke="#000" stroke-width="1"/>
</svg>