<svg xmlns="http://www.w3.org/2000/svg" viewBox="0 0 400 600" width="400" height="600">
	<path id="wilt" fill-rule="evenodd" class="shp0" d="M200 405C255 405 255 425 255 440C255 440 260 480 250 495C245 500 215 510 200 510C185 510 153.33 500 150 495C140 480 145 440 145 440C145 425 145 405 200 405ZM155 440C155 445 160 445 180 445C190 445 190 440 200 440C210 440 210 445 220 445C240 445 245 445 245 440C245 420 230 425 200 425C170 425 155 420 155 440Z M60 300L50 300C50 300 41.15 385.38 70 395C85 400 70 360.9 70 360.9C70 360.9 65 355 60 300ZM339 300L349 300C349 300 357.85 385.38 329 395C314 400 329 360.9 329 360.9C329 360.9 334 355 339 300Z" fill="$[hairColor]" stroke="#000" stroke-width="1"/>
</svg>