<svg xmlns="http://www.w3.org/2000/svg" viewBox="0 0 400 600" width="400" height="600">
	<style>
		.shp0 { opacity: 0.251;mix-blend-mode: multiply;fill: #8b6135 } 
	</style>
	<path id="freckles1" class="shp0" d="M144 363C142.34 363 141 361.66 141 360C141 358.34 142.34 357 144 357C145.66 357 147 358.34 147 360C147 361.66 145.66 363 144 363ZM129 362C127.89 362 127 361.11 127 360C127 358.89 127.89 358 129 358C130.11 358 131 358.89 131 360C131 361.11 130.11 362 129 362ZM114 363C112.34 363 111 361.66 111 360C111 358.34 112.34 357 114 357C115.66 357 117 358.34 117 360C117 361.66 115.66 363 114 363ZM99 362C97.89 362 97 361.11 97 360C97 358.89 97.89 358 99 358C100.11 358 101 358.89 101 360C101 361.11 100.11 362 99 362ZM104 373C102.34 373 101 371.66 101 370C101 368.34 102.34 367 104 367C105.66 367 107 368.34 107 370C107 371.66 105.66 373 104 373ZM114 372C112.89 372 112 371.11 112 370C112 368.89 112.89 368 114 368C115.11 368 116 368.89 116 370C116 371.11 115.11 372 114 372ZM124 373C122.34 373 121 371.66 121 370C121 368.34 122.34 367 124 367C125.66 367 127 368.34 127 370C127 371.66 125.66 373 124 373ZM134 372C132.89 372 132 371.11 132 370C132 368.89 132.89 368 134 368C135.11 368 136 368.89 136 370C136 371.11 135.11 372 134 372ZM144 383C142.34 383 141 381.66 141 380C141 378.34 142.34 377 144 377C145.66 377 147 378.34 147 380C147 381.66 145.66 383 144 383ZM129 382C127.89 382 127 381.11 127 380C127 378.89 127.89 378 129 378C130.11 378 131 378.89 131 380C131 381.11 130.11 382 129 382ZM119 382C117.89 382 117 381.11 117 380C117 378.89 117.89 378 119 378C120.11 378 121 378.89 121 380C121 381.11 120.11 382 119 382ZM109 383C107.34 383 106 381.66 106 380C106 378.34 107.34 377 109 377C110.66 377 112 378.34 112 380C112 381.66 110.66 383 109 383ZM99 382C97.89 382 97 381.11 97 380C97 378.89 97.89 378 99 378C100.11 378 101 378.89 101 380C101 381.11 100.11 382 99 382ZM144 372C142.89 372 142 371.11 142 370C142 368.89 142.89 368 144 368C145.11 368 146 368.89 146 370C146 371.11 145.11 372 144 372ZM94 372C92.89 372 92 371.11 92 370C92 368.89 92.89 368 94 368C95.11 368 96 368.89 96 370C96 371.11 95.11 372 94 372ZM154 377C152.89 377 152 376.11 152 375C152 373.89 152.89 373 154 373C155.11 373 156 373.89 156 375C156 376.11 155.11 377 154 377ZM154 367C152.89 367 152 366.11 152 365C152 363.89 152.89 363 154 363C155.11 363 156 363.89 156 365C156 366.11 155.11 367 154 367ZM106 352C104.89 352 104 351.11 104 350C104 348.89 104.89 348 106 348C107.11 348 108 348.89 108 350C108 351.11 107.11 352 106 352ZM121 354C118.79 354 117 352.21 117 350C117 347.79 118.79 346 121 346C123.21 346 125 347.79 125 350C125 352.21 123.21 354 121 354ZM136 352C134.89 352 134 351.11 134 350C134 348.89 134.89 348 136 348C137.11 348 138 348.89 138 350C138 351.11 137.11 352 136 352ZM121 393C119.34 393 118 391.66 118 390C118 388.34 119.34 387 121 387C122.66 387 124 388.34 124 390C124 391.66 122.66 393 121 393ZM136 392C134.89 392 134 391.11 134 390C134 388.89 134.89 388 136 388C137.11 388 138 388.89 138 390C138 391.11 137.11 392 136 392ZM106 392C104.89 392 104 391.11 104 390C104 388.89 104.89 388 106 388C107.11 388 108 388.89 108 390C108 391.11 107.11 392 106 392ZM256 363C254.34 363 253 361.66 253 360C253 358.34 254.34 357 256 357C257.66 357 259 358.34 259 360C259 361.66 257.66 363 256 363ZM271 362C269.89 362 269 361.11 269 360C269 358.89 269.89 358 271 358C272.11 358 273 358.89 273 360C273 361.11 272.11 362 271 362ZM286 363C284.34 363 283 361.66 283 360C283 358.34 284.34 357 286 357C287.66 357 289 358.34 289 360C289 361.66 287.66 363 286 363ZM301 362C299.89 362 299 361.11 299 360C299 358.89 299.89 358 301 358C302.11 358 303 358.89 303 360C303 361.11 302.11 362 301 362ZM296 373C294.34 373 293 371.66 293 370C293 368.34 294.34 367 296 367C297.66 367 299 368.34 299 370C299 371.66 297.66 373 296 373ZM286 372C284.89 372 284 371.11 284 370C284 368.89 284.89 368 286 368C287.11 368 288 368.89 288 370C288 371.11 287.11 372 286 372ZM276 373C274.34 373 273 371.66 273 370C273 368.34 274.34 367 276 367C277.66 367 279 368.34 279 370C279 371.66 277.66 373 276 373ZM266 372C264.89 372 264 371.11 264 370C264 368.89 264.89 368 266 368C267.11 368 268 368.89 268 370C268 371.11 267.11 372 266 372ZM256 383C254.34 383 253 381.66 253 380C253 378.34 254.34 377 256 377C257.66 377 259 378.34 259 380C259 381.66 257.66 383 256 383ZM271 382C269.89 382 269 381.11 269 380C269 378.89 269.89 378 271 378C272.11 378 273 378.89 273 380C273 381.11 272.11 382 271 382ZM281 382C279.89 382 279 381.11 279 380C279 378.89 279.89 378 281 378C282.11 378 283 378.89 283 380C283 381.11 282.11 382 281 382ZM291 383C289.34 383 288 381.66 288 380C288 378.34 289.34 377 291 377C292.66 377 294 378.34 294 380C294 381.66 292.66 383 291 383ZM301 382C299.89 382 299 381.11 299 380C299 378.89 299.89 378 301 378C302.11 378 303 378.89 303 380C303 381.11 302.11 382 301 382ZM256 372C254.89 372 254 371.11 254 370C254 368.89 254.89 368 256 368C257.11 368 258 368.89 258 370C258 371.11 257.11 372 256 372ZM306 372C304.89 372 304 371.11 304 370C304 368.89 304.89 368 306 368C307.11 368 308 368.89 308 370C308 371.11 307.11 372 306 372ZM246 377C244.89 377 244 376.11 244 375C244 373.89 244.89 373 246 373C247.11 373 248 373.89 248 375C248 376.11 247.11 377 246 377ZM246 367C244.89 367 244 366.11 244 365C244 363.89 244.89 363 246 363C247.11 363 248 363.89 248 365C248 366.11 247.11 367 246 367ZM294 352C292.89 352 292 351.11 292 350C292 348.89 292.89 348 294 348C295.11 348 296 348.89 296 350C296 351.11 295.11 352 294 352ZM279 354C276.79 354 275 352.21 275 350C275 347.79 276.79 346 279 346C281.21 346 283 347.79 283 350C283 352.21 281.21 354 279 354ZM264 352C262.89 352 262 351.11 262 350C262 348.89 262.89 348 264 348C265.11 348 266 348.89 266 350C266 351.11 265.11 352 264 352ZM279 393C277.34 393 276 391.66 276 390C276 388.34 277.34 387 279 387C280.66 387 282 388.34 282 390C282 391.66 280.66 393 279 393ZM264 392C262.89 392 262 391.11 262 390C262 388.89 262.89 388 264 388C265.11 388 266 388.89 266 390C266 391.11 265.11 392 264 392ZM294 392C292.89 392 292 391.11 292 390C292 388.89 292.89 388 294 388C295.11 388 296 388.89 296 390C296 391.11 295.11 392 294 392Z" />
</svg>