<svg version="1.2" xmlns="http://www.w3.org/2000/svg" viewBox="0 0 400 600" width="400" height="600">
	<title>hat</title>
	<g id="hat">
		<path id="hatOutline" d="m199 65c4.7 0 12.8 0.5 18 1.2c5.2 0.6 13.3 2.1 18 3.1c4.7 1 15.9 4 25 6.7c9.1 2.6 24.6 6.9 34.5 9.6c9.9 2.7 20.7 6.1 23.9 7.6c3.3 1.5 7.5 4.3 9.4 6.3c1.9 1.9 5 6.2 6.8 9.6c1.9 3.4 4.3 9.7 5.4 14c1.1 4.3 2.4 13.8 3 21c0.8 10.6 2 17.3 6.5 34.5c4.6 18 5.6 23.7 6.5 35.5c0.5 7.7 1.1 17.6 1.2 21.9c0.3 7.8 0.4 8.1 3.9 11.4c2 1.9 3.9 4.8 4.3 6.5c0.5 2 0.2 4.5-0.8 7.2c-1.4 3.6-2.1 4.3-5.4 5c-2 0.5-4.3 0.9-5 0.9c-0.6 0-6.2-3.8-12.3-8.5c-6-4.7-15.2-11.3-20.4-14.7c-5.1-3.4-14.7-8.9-21.2-12.3c-6.5-3.4-16.8-8.1-22.8-10.6c-6.1-2.5-15.7-5.9-21.5-7.6c-5.8-1.6-15.2-3.9-21-4.9c-5.8-1-16.1-2.2-23-2.8c-9-0.6-15.8-0.6-24.5 0c-6.6 0.6-16.7 1.8-22.5 2.8c-5.8 1-15.2 3.3-21 4.9c-5.8 1.7-15.5 5.1-21.5 7.6c-6.1 2.5-16.3 7.2-22.8 10.6c-6.5 3.4-16.4 9.2-22 12.9c-5.6 3.6-14.8 10.2-20.5 14.6c-5.6 4.4-10.8 8-11.5 8c-0.6 0-2.9-0.4-5-0.9c-3.2-0.7-3.9-1.4-5.3-5c-1-2.7-1.3-5.2-0.8-7.2c0.4-1.7 2.3-4.6 4.3-6.5c3.5-3.3 3.6-3.6 3.9-11.4c0.1-4.3 0.7-14.2 1.2-21.9c0.9-11.8 1.9-17.5 6.5-35.5c4.5-17.2 5.7-23.9 6.5-34.5c0.6-7.2 1.9-16.7 3-21c1.1-4.3 3.5-10.6 5.4-14c1.8-3.4 4.9-7.7 6.8-9.6c1.9-2 6.1-4.8 9.4-6.3c3.2-1.5 14-4.9 23.9-7.6c9.9-2.7 25.4-7 34.5-9.6c9.1-2.7 20.3-5.7 25-6.7c4.7-1.1 12.3-2.4 17-3.1c4.7-0.6 12.3-1.2 17-1.2z" />
		<path id="hatBrim" d="m202 191.4c1.9 0.2 7.3 0.7 12 1.3c4.7 0.5 13.9 1.9 20.5 3.1c6.6 1.2 15.8 3.2 20.5 4.4c4.7 1.2 13 3.6 18.5 5.3c5.5 1.7 15.4 5.4 22 8.1c6.6 2.8 15.4 6.8 19.5 9c4.1 2.1 11.5 6.4 16.5 9.4c4.9 3.1 13.2 8.5 18.2 12c7.1 4.8 9.5 7.1 10.1 9.2c0.5 1.6 0.7 3.4 0.5 4c-0.1 0.6-0.6 1.1-1.1 1.1c-0.4 0-4.5-3-9.2-6.6c-4.7-3.6-13.5-9.7-19.5-13.5c-6.1-3.8-16-9.3-22-12.2c-6.1-3-16-7.2-22-9.5c-6.1-2.2-13.5-4.8-16.5-5.7c-3-1-12.5-3.3-21-5.1c-8.5-1.9-22.9-4.3-48.5-7.3l-17 1.9c-9.4 1.1-24 3.5-32.5 5.4c-8.5 1.8-18 4.1-21 5.1c-3 0.9-10.5 3.5-16.5 5.7c-6.1 2.3-16 6.5-22 9.5c-6.1 2.9-16 8.4-22 12.2c-6.1 3.8-14.8 9.9-19.5 13.5c-4.7 3.6-8.8 6.6-9.3 6.6c-0.4 0-0.9-0.5-1-1.1c-0.2-0.6 0-2.4 0.5-4c0.6-2.1 3-4.4 10-9.2c5.1-3.5 13.3-8.9 18.3-12c4.9-3 12.4-7.3 16.5-9.4c4.1-2.2 12.9-6.2 19.5-9c6.6-2.7 16.5-6.4 22-8.1c5.5-1.7 13.1-4 17-5c3.8-1 12.2-2.9 18.5-4.1c6.3-1.2 17.1-2.9 24-3.8c6.9-0.9 14.1-1.4 16-1.2z" fill="$[primary]" />
		<path id="hatSides" d="m62.3 161.1c0.5 0 1.4 1.7 1.9 3.8c0.5 2 1.3 5.1 1.9 6.7c0.5 1.7 1.6 5.9 2.5 9.2c0.9 3.4 2.2 9.7 2.9 14c0.7 4.4 1.2 12.8 1.1 18.7c-0.1 10.5-0.2 10.9-2.6 12.5c-1.4 0.9-6.4 4.2-11.3 7.3c-6 3.9-8.9 5.4-9.4 4.6c-0.3-0.6-0.3-7.8 0.1-16c0.4-8.1 1.4-18.2 2.2-22.3c0.8-4.1 2.6-11.3 3.9-16.1c1.3-4.9 3.1-11.8 4.1-15.6c1-3.7 2.2-6.8 2.7-6.8zm275.8 0c0.5 0 1.6 3.1 2.5 6.8c0.8 3.8 2.6 10.7 3.9 15.6c1.3 4.8 3.1 12 3.9 16.1c0.8 4.1 1.8 14.2 2.2 22.3c0.4 8.2 0.4 15.4 0.1 16c-0.5 0.8-3.4-0.7-9.5-4.6c-4.8-3.1-9.8-6.4-11.2-7.3c-2.4-1.6-2.5-2-2.6-12.5c-0.1-5.9 0.4-14.3 1.1-18.7c0.7-4.3 2-10.6 2.9-14c0.9-3.3 2-7.5 2.5-9.2c0.6-1.6 1.5-4.7 2.1-6.7c0.7-2.1 1.6-3.8 2.1-3.8z" fill="$[primary]"/>
		<path id="hatMain" d="m198.5 71.1c2.7 0 8.8 0.3 13.5 0.9c4.7 0.5 12.3 1.7 17 2.6c4.7 1 16.8 4.1 27 6.9c10.2 2.8 22.8 6.2 28 7.5c5.2 1.3 14.2 3.7 20 5.3c8.3 2.4 11.5 3.8 15.5 6.8c2.7 2.1 6.4 6.1 8.2 8.9c1.8 2.9 4.4 9.2 5.8 14c1.6 5.6 2.6 11.3 2.6 16.1c0.1 6.4-0.7 10.5-6 28.9c-5.5 19.3-6.2 22.9-7.3 36.3c-0.6 8.2-1.3 15-1.5 15.1c-0.2 0.1-5.1-2.1-11.1-4.9c-5.9-2.7-15.4-6.9-21.2-9.1c-5.8-2.3-16.6-5.8-24-8c-7.4-2.1-20.3-5.1-28.5-6.5c-8.3-1.5-20-3.2-26-3.8c-8.5-0.8-13.4-0.8-21.5 0c-5.8 0.6-17.3 2.3-25.5 3.8c-8.3 1.4-21.1 4.4-28.5 6.5c-7.4 2.2-18.2 5.7-24 8c-5.8 2.2-15.3 6.4-21.3 9.1c-5.9 2.8-10.8 5-11 4.9c-0.2-0.1-0.9-6.9-1.5-15.1c-1.1-13.4-1.8-17-7.3-36.3c-5.3-18.4-6.1-22.5-6-28.9c0-4.8 1-10.5 2.6-16.1c1.4-4.8 4-11.1 5.8-14c1.8-2.8 5.4-6.8 8.2-8.9c4-3 7.2-4.4 15.5-6.8c5.8-1.6 14.8-4 20-5.3c5.2-1.3 17.8-4.7 28-7.5c10.2-2.8 21.6-5.8 25.5-6.6c3.8-0.9 10.8-2 15.5-2.6c4.7-0.6 10.7-1.1 13.5-1.2z" fill="$[primary]"/>
	</g>
</svg>