<svg version="1.2" xmlns="http://www.w3.org/2000/svg" viewBox="0 0 400 600" width="400" height="600">
	<title>hat</title>
	<style type="text/css">
	.s0{stroke:#000000;stroke-width:2;}
	.s1{stroke:#000000;stroke-width:6;}
	.s2{stroke:#000000;stroke-width:4;}
</style>
	<g id="hat2">
	<path id="hat-button" fill="$[primary]" class="s0" d="M201.4,21.2c5.4,0.9,13.3,4.3,11.3,7.6c-4,5.7-14,1.4-22,1.8c-1-1.1-4-3.2,1.8-7.5
		C194,22,198,21.2,201.4,21.2z"/>
	<path fill="$[secondary]" id="hat" class="s1" d="M199.3,30.7C297,45,351,140,349.5,233.5c0,6.1-0.3,11.8-0.7,12.7c-0.6,1.5-1.1,1.4-4.9-1.1
		C291,219,238,172,174,188c-38,10-71,30-105.4,49.6c-6.6,3.7-13.2,7.5-14.6,8.5c-2.3,1.6-2.7,1.7-3.1,0.4c-0.3-0.8-0.5-6.1-0.5-11.7
		C53,196,59,156,74,120C95,73,146,37,199.3,30.7L199.3,30.7z"/>
	<path id="hatSides" fill="$[secondary]"  class="s2" d="M69.6,237.6c-6.6,3.7-13.2,7.5-14.7,8.5c-2.2,1.6-2.7,1.7-3.1,0.4c-0.2-0.8-0.4-6.1-0.4-11.7
		C50,209,60,185,64,159C67,185,74,212,69.6,237.6L69.6,237.6z M336.7,159.7C341,185,351,209,349.6,234.8c0,5.6-0.2,10.9-0.5,11.7
		c-0.4,1.3-0.8,1.2-3.1-0.4c-1.4-1-8-4.8-14.6-8.5C327,212,334,186,336.7,159.7L336.7,159.7z"/>
	<path fill="$[primary]" id="hatBrim" class="s1" d="M195.9,180.3C250,182,297,214,344.3,238.5c5.8,3.4,12.4,7.5,14.6,9.2c3.2,2.4,4.1,3.6,4.1,5.6
		c0,1.6-0.7,3.3-1.9,4.2c-1.1,0.9-3.2,1.6-4.8,1.6c-2.1,0-5.1-1.4-10.8-5.1c-4.3-2.8-13.3-8-19.9-11.7C249,187,151,185,74.4,242.3
		c-6.6,3.7-15.6,8.9-19.9,11.7c-6.3,4.1-8.6,5.1-11.3,5.1c-1.8,0-4-0.5-4.8-1.2c-0.8-0.6-1.4-2.4-1.4-4c0-2.2,0.8-3.4,3.8-5.9
		c2.1-1.8,7.4-5.3,11.7-7.8C99,216,143,185,195.9,180.3L195.9,180.3z"/>
</g>
</svg>