<svg version="1.2" xmlns="http://www.w3.org/2000/svg" viewBox="0 0 400 600" width="400" height="600">
	<title>hat</title>
	<style type="text/css">
	.s0{stroke:#000000;stroke-width:2;}
	.s1{stroke:#000000;stroke-width:6;}
	.s2{stroke:#000000;stroke-width:4;}
</style>
	<g id="hat3">
		<path id="hat-button" class="s0" d="m199.8 82c3.4 0 7.2 0.6 8.8 1.5c1.6 0.8 2.9 2 2.9 2.5c0 0.5 0.2 1.7 0.5 2.5c0.4 1.3-1.3 1.5-12 1.5c-10.7 0-12.4-0.2-12-1.5c0.3-0.8 0.4-1.9 0.3-2.5c-0.1-0.5 1.1-1.6 2.7-2.4c1.5-0.9 5.4-1.5 8.8-1.6z" fill="$[accent]" stroke="#000" stroke-width="2"/>
		<path id="hat" d="m197.8 90.1c13.3-0.1 23 0.5 34.6 1.9c8.8 1.1 20.8 3 26.6 4.1c5.8 1.1 15.5 3.3 21.6 5c6 1.6 14.4 4.3 18.7 6c4.2 1.7 10.2 4.5 13.3 6.2c3.1 1.8 7.4 5 9.5 7.2c2.3 2.3 5.3 7.1 7.1 11.3c2 4.7 4 12 5.6 21c1.4 7.5 3.5 17.8 4.7 22.7c1.2 4.9 3.2 11.7 4.3 15c1.2 3.3 3 11.8 4 19c0.9 7.2 1.7 17.9 1.7 24c0 6.1-0.3 11.8-0.7 12.7c-0.6 1.5-1.1 1.4-4.9-1.1c-2.4-1.5-8.9-5.3-14.4-8.4c-5.6-3-16.4-8.3-24-11.7c-7.7-3.5-20.8-8.6-29.3-11.5c-8.4-3-21.8-6.7-29.7-8.4c-7.9-1.6-18.6-3.5-23.7-4.1c-5.2-0.5-15.4-1-22.8-1c-7.4 0-17.6 0.5-22.8 1c-5.1 0.6-15.8 2.5-23.7 4.1c-7.9 1.7-22 5.7-31.2 8.9c-9.2 3.2-22.4 8.3-29.2 11.5c-6.9 3.1-17.9 8.6-24.5 12.2c-6.6 3.6-13.2 7.4-14.6 8.4c-2.3 1.6-2.7 1.7-3.1 0.4c-0.3-0.8-0.5-6.1-0.5-11.7c0-5.7 0.6-15.5 1.3-21.8c0.8-6.3 1.9-13.5 2.5-16c0.7-2.5 2.4-8.3 3.9-13c1.5-4.7 3.8-14.6 5.1-22c1.3-7.4 3.1-16.4 4-20c0.9-3.6 2.7-8.9 4.1-11.9c1.4-3 4.3-7.3 6.5-9.5c2.1-2.3 7.3-6 11.5-8.2c4.2-2.3 10.8-5.3 14.8-6.7c4-1.4 11.5-3.7 16.8-5.1c5.3-1.4 13.5-3.3 18.2-4.2c4.7-0.9 15.8-2.7 24.5-3.9c11.2-1.6 21.1-2.3 34.2-2.4z" fill="$[secondary]" stroke="#000" stroke-width="6"/>
		<path id="hatSides" d="m69.6 237.7c-6.6 3.6-13.2 7.4-14.7 8.4c-2.2 1.6-2.7 1.7-3.1 0.4c-0.2-0.8-0.4-6.1-0.4-11.7c-0.1-5.7 0.6-15.5 1.3-21.8c0.7-6.3 1.9-13.5 2.5-16c0.6-2.5 2.4-8.3 3.9-13c1.5-4.7 3.8-14.6 5.1-22c0 0 12 72.1 5.4 75.7zm267.2-75.7c1.3 7.4 3.6 17.3 5.1 22c1.5 4.7 3.2 10.5 3.9 13c0.6 2.5 1.7 9.7 2.5 16c0.7 6.3 1.3 16.1 1.3 21.8c0 5.6-0.2 10.9-0.5 11.7c-0.4 1.3-0.8 1.2-3.1-0.4c-1.4-1-8-4.8-14.6-8.4c-6.6-3.6 5.4-75.7 5.4-75.7z" fill="$[primary]" stroke="#000" stroke-width="4" />
		<path id="hatBrim" d="m196.2 197c9.2 0 20.8 0.3 25.9 0.7c5 0.4 13.6 1.5 19.1 2.4c5.6 1 14.4 2.8 19.7 4.1c5.3 1.3 13.7 3.7 18.7 5.2c5 1.6 14.7 5.1 21.6 7.9c6.8 2.7 17 7.3 22.5 10c5.6 2.8 14.9 7.9 20.6 11.2c5.8 3.4 12.4 7.5 14.6 9.2c3.2 2.4 4.1 3.6 4.1 5.6c0 1.6-0.7 3.3-1.9 4.2c-1.1 0.9-3.2 1.6-4.8 1.6c-2.1 0-5.1-1.4-10.8-5.1c-4.3-2.8-13.3-8-19.9-11.6c-6.6-3.6-19.3-9.5-28.3-13.1c-8.9-3.7-20.6-8-25.9-9.6c-5.2-1.5-13.4-3.7-18.2-4.9c-4.7-1.1-14.9-2.9-22.5-4c-11.3-1.7-17.1-2-30.7-2c-13.6 0-19.4 0.3-30.7 2c-7.6 1.1-17.8 2.9-22.5 4c-4.8 1.2-13 3.4-18.2 4.9c-5.3 1.6-17 5.9-25.9 9.6c-9 3.6-21.7 9.5-28.3 13.1c-6.6 3.6-15.6 8.8-19.9 11.6c-6.3 4.1-8.6 5.1-11.3 5.1c-1.8 0-4-0.5-4.8-1.2c-0.8-0.6-1.4-2.4-1.4-4c0-2.2 0.8-3.4 3.8-5.9c2.1-1.8 7.4-5.3 11.7-7.8c4.3-2.5 12.8-7.2 18.9-10.4c6.1-3.2 17.6-8.4 25.5-11.7c7.9-3.2 18.7-7.2 24-8.8c5.3-1.7 14.7-4.2 21.1-5.7c6.3-1.5 17.3-3.6 24.4-4.6c10.3-1.5 16.5-2 29.8-2z" fill="$[accent]" stroke="#000" stroke-width="6" />
	</g>
	<g id="hat3">
	<path id="hat-button" fill="$[accent]" class="s0" d="M201.4,21.2c5.4,0.9,13.3,4.3,11.3,7.6c-4,5.7-14,1.4-22,1.8c-1-1.1-4-3.2,1.8-7.5
		C194,22,198,21.2,201.4,21.2z"/>
	<path fill="$[secondary]" id="hat" class="s1" d="M199.3,30.7C297,45,351,140,349.5,233.5c0,6.1-0.3,11.8-0.7,12.7c-0.6,1.5-1.1,1.4-4.9-1.1
		C291,219,238,172,174,188c-38,10-71,30-105.4,49.6c-6.6,3.7-13.2,7.5-14.6,8.5c-2.3,1.6-2.7,1.7-3.1,0.4c-0.3-0.8-0.5-6.1-0.5-11.7
		C53,196,59,156,74,120C95,73,146,37,199.3,30.7L199.3,30.7z"/>
	<path id="hatSides" fill="$[primary]"  class="s2" d="M69.6,237.6c-6.6,3.7-13.2,7.5-14.7,8.5c-2.2,1.6-2.7,1.7-3.1,0.4c-0.2-0.8-0.4-6.1-0.4-11.7
		C50,209,60,185,64,159C67,185,74,212,69.6,237.6L69.6,237.6z M336.7,159.7C341,185,351,209,349.6,234.8c0,5.6-0.2,10.9-0.5,11.7
		c-0.4,1.3-0.8,1.2-3.1-0.4c-1.4-1-8-4.8-14.6-8.5C327,212,334,186,336.7,159.7L336.7,159.7z"/>
	<path fill="$[accent]" id="hatBrim" class="s1" d="M195.9,180.3C250,182,297,214,344.3,238.5c5.8,3.4,12.4,7.5,14.6,9.2c3.2,2.4,4.1,3.6,4.1,5.6
		c0,1.6-0.7,3.3-1.9,4.2c-1.1,0.9-3.2,1.6-4.8,1.6c-2.1,0-5.1-1.4-10.8-5.1c-4.3-2.8-13.3-8-19.9-11.7C249,187,151,185,74.4,242.3
		c-6.6,3.7-15.6,8.9-19.9,11.7c-6.3,4.1-8.6,5.1-11.3,5.1c-1.8,0-4-0.5-4.8-1.2c-0.8-0.6-1.4-2.4-1.4-4c0-2.2,0.8-3.4,3.8-5.9
		c2.1-1.8,7.4-5.3,11.7-7.8C99,216,143,185,195.9,180.3L195.9,180.3z"/>
</g>
</svg>