<svg xmlns="http://www.w3.org/2000/svg" viewBox="0 0 400 600" width="400" height="600">
	<path id="facemask" fill-rule="evenodd" class="facemask" d="M200 210C250 210 300 220 310 230C320 240 330 310 330 310C330 310 330 370 320 380C310 390 270 390 240 390C230 390 220 380 200 380C180 380 170 390 160 390C130 390 90 390 80 380C70 370 70 310 70 310C70 310 80 240 90 230C100 220 150 210 200 210ZM130 300C100 300 85 310 85 330C85 355 100 360 130 360C160 360 190 355 190 330C190 305 160 300 130 300ZM270 360C300 360 315 355 315 330C315 310 300 300 270 300C240 300 210 305 210 330C210 355 240 360 270 360Z" fill="rgba(150,150,175,.5)" stroke="#000000" stroke-width="2"/>
	<path id="straps" class="straps" d="M350 335L350 305L330 305L330 335L350 335ZM70 335L70 305L50 305L50 335L70 335Z" fill="#333" stroke="#000" stroke-width="2"/>
	<path id="glare" class="glare" d="M260 290L270 260M270 295L280 265M120 290L130 260M130 295L140 265M260 380L265 365M265 385L270 370M120 380L125 365M125 385L130 370" fill="none" stroke="#fff" stroke-width="2"/>
</svg>