<svg xmlns="http://www.w3.org/2000/svg" viewBox="0 0 400 600" width="400" height="600">
    <g transform="translate(0 -15)">
	<path id="frame" class="frame" d="M195 300L205 300C205 300 240 290 270 290C300 290 320 300 320 300C320 300 320 305 330 305L330 335C320 335 320 340 320 340C320 340 300 360 270 360C210 360 205 325 205 325C205 320 195 320 195 325C195 325 190 360 130 360C100 360 80 340 80 340C80 340 80 335 70 335L70 305C80 305 80 300 80 300C80 300 100 290 130 290C160 290 195 300 195 300ZM90 310C90 330 90 350 130 350C180 350 180 320 180 320L180 310C180 310 160 300 130 300C90 300 90 310 90 310ZM220 320C220 320 220 350 270 350C310 350 310 330 310 310C310 310 310 300 270 300C240 300 220 310 220 310L220 320Z" fill="#333" stroke="#000000" stroke-width="2"/>
	<path id="lens" class="lens" d="M90 310C90 310 90 300 130 300C160 300 180 310 180 310L180 320C180 320 180 350 130 350C90 350 90 330 90 310ZM270 350C220 350 220 320 220 320L220 310C220 310 240 300 270 300C310 300 310 310 310 310C310 330 310 350 270 350Z" fill="rgba(150,150,175,.5)"/>
	<path id="straps" class="straps" d="M350 335L350 305L330 305L330 335L350 335ZM70 335L70 305L50 305L50 335L70 335Z" fill="$[primary]" stroke="#000" stroke-width="2"/>
	<path id="glare" class="glare" d="M280 330L290 310M290 330L300 310M140 330L150 310M150 330L160 310" fill="none" stroke="#fff" stroke-width="2"/>
	</g>
</svg>