<svg xmlns="http://www.w3.org/2000/svg" viewBox="0 0 400 600" width="400" height="600">
	<path id="head 10" class="head" d="M200 100C300 100 350 160 350 300C340 460 350 410 250 490C240 500 220 510 200 500C180 510.9 160 500 150 490C50 410 60 460 50 300C50 160 100 100 200 100Z" fill="$[skinColor]" stroke="#000000" stroke-width="6"/>
	<path id="faceShave" class="faceShave" d="M200 410C230 410 250 420 250 420C280 420 340 405 340 300L350 300C340 460 350 410 250 490C240 500 220 510 200 500C180 510 161.04 498.83 150 490C50 410 60 460 50 300L60 300C60 405 120 420 150 420C150 420 170 410 200 410Z" fill="$[faceShave]" />
	<path id="headShave" class="headShave" d="M60 300L50 300C50 160 100 100 200 100C300 100 350 160 350 300L340 300C340 300 340 295 340 290C340 285 330 270 325 265C320 260 320 210 310 200C270 160 250 200 200 200C150 200 130 160 90 200C80 210 80 260 75 265C70 270 60 285 60 290C60 295 60 300 60 300Z" fill="$[headShave]" />
</svg>