<svg xmlns="http://www.w3.org/2000/svg" viewBox="0 0 400 600" width="400" height="600">
	<path id="Head 2" d="M200 100C300 100 350 160 350 300C350 370 320 420 310 430C300 440 250 490 250 490C250 490 230 500 200 500C170 500 150 490 150 490C150 490 100 440 90 430C80 420 50 370 50 300C50 160 100 100 200 100Z" fill="$[color]" stroke="#000" stroke-width="6"/>
	<path id="Head 2 shave" d="M200 410C230 410 250 420 250 420C280 420 340 405 340 300L350 300C350 370 320 420 310 430C300 440 250 490 250 490C250 490 230 500 200 500C170 500 150 490 150 490C150 490 100 440 90 430C80 420 50 370 50 300L60 300C60 405 120 420 150 420C150 420 170 410 200 410Z" fill="$[shave]" stroke="none" stroke-width="none"/>
</svg>