<?xml version="1.0" encoding="UTF-8" standalone="no"?>
<svg>
 
  <path
     d="m 196.82324,96.949 c -27.01358,0.13275 -136.690586,6.6418 -171.082508,143.72 -16.415344,65.417 37.007618,161.56 63.24157,200.11 23.035468,33.847 57.891288,48.456 90.018348,51.232 0.33075,4.4711 12.24037,13.092 22.15935,5.0176 9.91899,8.0749 21.82898,-0.5465 22.15935,-5.0176 32.12804,-2.7762 66.98288,-17.386 90.01835,-51.232 26.23395,-38.546 79.65692,-134.69 63.24156,-200.11 -34.39776,-137.08 -144.06794,-143.59 -171.0825,-143.72 -2.79444,-0.01373 -4.33598,0.07422 -4.33598,0.07422 0,0 -1.54154,-0.08795 -4.33598,-0.07422 z"
     fill="$[color]"
    
     />
</svg>
