<svg xmlns="http://www.w3.org/2000/svg" viewBox="0 0 400 600" width="400" height="600">
	<style>
		tspan { white-space:pre }
		.freckles1 { opacity: 0.25;mix-blend-mode: multiply;fill: #501414 } 
	</style>
	<path id="Path 0" class="freckles1" d="M108.03 362.04C106.72 363.16 105.72 364.85 105.8 365.79C105.87 366.73 106.74 368.28 107.72 369.22C108.7 370.17 110.26 370.96 111.18 370.97C112.1 370.99 113.56 370.32 114.43 369.5C115.29 368.68 116.01 366.99 116.03 365.75C116.05 364.51 115.26 362.72 114.28 361.78C113.3 360.83 112.03 360.04 111.45 360.03C110.87 360.01 109.33 360.92 108.03 362.04ZM126.03 362.04C124.72 363.16 123.72 364.85 123.8 365.79C123.87 366.73 124.74 368.28 125.72 369.22C126.7 370.17 128.26 370.96 129.18 370.97C130.1 370.99 131.56 370.32 132.43 369.5C133.29 368.68 134.01 366.99 134.03 365.75C134.05 364.51 133.26 362.72 132.28 361.78C131.3 360.83 130.03 360.04 129.45 360.03C128.87 360.01 127.33 360.92 126.03 362.04ZM144.03 362.04C142.72 363.16 141.72 364.85 141.8 365.79C141.87 366.73 142.74 368.28 143.72 369.22C144.7 370.17 146.26 370.96 147.18 370.97C148.1 370.99 149.56 370.32 150.43 369.5C151.29 368.68 152.01 366.99 152.03 365.75C152.05 364.51 151.26 362.72 150.28 361.78C149.3 360.83 148.03 360.04 147.45 360.03C146.87 360.01 145.33 360.92 144.03 362.04ZM249.03 362.04C247.72 363.16 246.72 364.85 246.8 365.79C246.87 366.73 247.74 368.28 248.72 369.22C249.7 370.17 251.26 370.96 252.18 370.97C253.1 370.99 254.56 370.32 255.43 369.5C256.29 368.68 257.01 366.99 257.03 365.75C257.05 364.51 256.26 362.72 255.28 361.78C254.3 360.83 253.03 360.04 252.45 360.03C251.87 360.01 250.33 360.92 249.03 362.04ZM267.03 362.04C265.72 363.16 264.72 364.85 264.8 365.79C264.87 366.73 265.74 368.28 266.72 369.22C267.7 370.17 269.26 370.96 270.18 370.97C271.1 370.99 272.56 370.32 273.43 369.5C274.29 368.68 275.01 366.99 275.03 365.75C275.05 364.51 274.26 362.72 273.28 361.78C272.3 360.83 271.03 360.04 270.45 360.03C269.87 360.01 268.33 360.92 267.03 362.04ZM285.03 362.04C283.72 363.16 282.72 364.85 282.8 365.79C282.87 366.73 283.74 368.32 284.72 369.33C285.89 370.53 287.36 370.99 289 370.65C290.38 370.36 292.18 368.98 293 367.57C294.4 365.18 294.34 364.85 292 362.48C290.63 361.09 289.03 359.96 288.45 359.97C287.87 359.99 286.33 360.92 285.03 362.04ZM117.56 376.52C116.62 377.41 115.87 378.9 115.9 379.82C115.92 380.74 116.74 382.32 117.72 383.33C118.96 384.61 120.33 384.99 122.25 384.58C124.2 384.17 125.18 383.2 125.63 381.25C125.98 379.74 125.83 377.82 125.28 377C124.74 376.18 123.17 375.36 121.78 375.2C120.4 375.03 118.5 375.62 117.56 376.52ZM135.56 376.52C134.62 377.41 133.87 378.9 133.9 379.82C133.92 380.74 134.74 382.32 135.72 383.33C136.96 384.61 138.33 384.99 140.25 384.58C142.2 384.17 143.18 383.2 143.63 381.25C143.98 379.74 143.83 377.82 143.28 377C142.74 376.18 141.17 375.36 139.78 375.2C138.4 375.03 136.5 375.62 135.56 376.52ZM258.56 376.52C257.62 377.41 256.87 378.9 256.9 379.82C256.92 380.74 257.74 382.32 258.72 383.33C259.96 384.61 261.33 384.99 263.25 384.58C265.2 384.17 266.18 383.2 266.63 381.25C266.98 379.74 266.83 377.82 266.28 377C265.74 376.18 264.17 375.36 262.78 375.2C261.4 375.03 259.5 375.62 258.56 376.52ZM276.56 376.52C275.62 377.41 274.87 378.9 274.9 379.82C274.92 380.74 275.74 382.32 276.72 383.33C277.96 384.61 279.33 384.99 281.25 384.58C283.2 384.17 284.18 383.2 284.63 381.25C284.98 379.74 284.83 377.82 284.28 377C283.74 376.18 282.17 375.36 280.78 375.2C279.4 375.03 277.5 375.62 276.56 376.52Z" />
</svg>