<?xml version="1.0" encoding="UTF-8" standalone="no"?>
<svg
   viewBox="0 0 400 600"
   width="400"
   height="600"
   version="1.1"
   id="svg17316"
   sodipodi:docname="afrobg.svg"
   inkscape:version="1.1.2 (b8e25be8, 2022-02-05)"
   xmlns:inkscape="http://www.inkscape.org/namespaces/inkscape"
   xmlns:sodipodi="http://sodipodi.sourceforge.net/DTD/sodipodi-0.dtd"
   xmlns="http://www.w3.org/2000/svg"
   xmlns:svg="http://www.w3.org/2000/svg">
  <defs
     id="defs17320" />
  <sodipodi:namedview
     id="namedview17318"
     pagecolor="#ffffff"
     bordercolor="#666666"
     borderopacity="1.0"
     inkscape:pageshadow="2"
     inkscape:pageopacity="0.0"
     inkscape:pagecheckerboard="0"
     showgrid="false"
     inkscape:snap-global="false"
     inkscape:zoom="1.1655912"
     inkscape:cx="105.09688"
     inkscape:cy="352.61076"
     inkscape:window-width="1296"
     inkscape:window-height="762"
     inkscape:window-x="0"
     inkscape:window-y="25"
     inkscape:window-maximized="0"
     inkscape:current-layer="svg17316" />
  <path
     d="m 347.84975,286.26908 c -0.64648,-0.47166 -2.5988,-0.81319 -4.33868,-0.77676 -1.92327,0.0555 -3.98201,-0.55351 -5.2465,-1.53795 -1.14413,-0.87684 -3.63772,-4.28215 -5.54519,-7.53524 -10.07914,12.69018 -20.16835,25.37348 -30.05508,38.21297 -5.38706,6.99595 -10.71058,14.03963 -16.04631,21.07474 -5.12752,7.47287 -10.25382,14.94662 -15.38687,22.41461 0.17596,0.29022 0.51434,0.70288 0.63538,0.94557 1.08831,2.18805 1.46437,4.77221 1.10637,7.50386 -0.29484,2.28893 -1.91425,7.75858 -3.57979,12.15137 -1.67377,4.38708 -6.00611,13.87863 -9.63986,21.08058 -3.61983,7.19942 -7.01175,14.61716 -7.535,16.48049 -0.51757,1.85511 -0.78672,6.89922 -0.59476,11.19102 0.1945,4.30572 -0.0621,10.70593 -0.57553,14.24211 -0.92384,6.41394 -0.92824,6.43636 -7.43412,15.78551 l -6.51676,9.36612 c 5.8138,4.02301 7.94084,6.02843 8.48625,7.05035 0.5454,1.02192 2.11088,7.10431 3.49486,13.52215 1.38399,6.41786 3.04814,12.04446 3.70599,12.49969 0.65786,0.45522 2.46874,0.68756 4.02771,0.52594 l 2.833,-0.31501 c 2.32904,-6.986 3.17507,-9.24617 3.36854,-9.52576 0.20169,-0.2739 2.50704,0.98189 5.13846,2.80278 3.78521,2.63143 4.91892,3.09947 5.48225,2.28536 0.38694,-0.55917 0.82354,-1.96117 0.97381,-3.10974 0.14204,-1.15426 0.13121,-4.44459 -0.0294,-7.34055 -0.21275,-3.89272 0.0299,-5.2081 0.95777,-5.12545 0.67296,0.0643 1.92483,0.59117 2.77751,1.16904 0.87166,0.60318 2.69417,0.65916 4.23156,0.14209 1.46781,-0.50439 2.9384,-1.31126 3.25452,-1.78567 0.40463,-0.6199 1.04995,-0.30732 2.27153,1.07305 1.46894,1.67316 1.82815,1.75235 2.62543,0.56509 0.50704,-0.76791 1.55694,-3.21602 2.33626,-5.44939 0.77932,-2.23338 1.84895,-4.25256 2.36625,-4.49047 0.52552,-0.23224 1.62812,-0.26114 2.46237,-0.0608 0.83427,0.20026 1.89363,-0.17297 2.3514,-0.81691 0.45521,-0.65785 1.48838,-3.46886 2.29101,-6.24551 0.78866,-2.77413 1.50333,-5.12483 1.57415,-5.2096 0.0765,-0.093 2.28299,1.32326 4.90619,3.13846 3.78521,2.63143 4.9194,3.10219 5.48274,2.28808 0.38693,-0.55917 0.82193,-1.96228 0.9722,-3.11085 0.14457,-1.14036 0.13277,-4.44379 -0.0254,-7.32586 -0.21527,-3.90663 0.026,-5.22299 0.94815,-5.13212 0.68686,0.0618 1.94035,0.58975 2.77912,1.17016 0.88556,0.60063 2.70635,0.65569 4.23551,0.13296 1.47604,-0.49871 3.15733,-1.6101 3.7213,-2.46025 0.57787,-0.85268 1.16202,-2.38115 1.30158,-3.39121 0.14778,-1.00437 -0.60993,-5.16551 -1.674,-9.23385 l -1.93448,-7.39523 c 7.19531,-0.62711 9.83117,-0.27318 10.80657,0.4261 0.92607,0.66513 3.24704,1.24838 5.16024,1.29538 2.62597,0.0538 3.88763,-0.43496 5.16863,-2.005 1.45109,-1.78068 1.48632,-2.65468 0.24086,-6.17972 -0.79045,-2.24946 -3.60273,-9.08373 -6.24334,-15.17938 -4.71359,-10.84999 -4.77404,-11.11232 -2.94157,-12.81152 1.02627,-0.95586 2.05959,-1.7116 2.29488,-1.68256 0.24097,0.0208 1.62242,2.90943 3.07342,6.41861 1.45669,3.50094 3.18396,6.75106 3.83044,7.22272 0.65216,0.46344 2.34732,0.61601 3.77788,0.3412 1.43055,-0.27481 3.08226,-1.18703 3.67088,-2.02011 0.70244,-0.99754 0.61854,-3.00235 -0.25107,-5.8052 -0.73038,-2.35383 -2.92464,-8.51551 -4.88199,-13.70058 -1.97126,-5.18253 -4.03176,-11.5706 -4.5965,-14.19895 -0.55083,-2.6309 -0.84467,-4.99969 -0.63475,-5.2679 0.2156,-0.27643 2.68483,1.44438 5.49283,3.80091 4.61779,3.88858 5.18194,4.18156 5.93306,3.0961 0.4413,-0.65532 0.88025,-4.55909 0.95143,-8.6688 l 0.13236,-7.48512 c 6.25953,9.03766 8.99341,12.29171 10.11998,13.07127 1.12658,0.77957 2.22389,1.19943 2.43381,0.93123 0.20991,-0.26821 -0.0261,-2.3898 -0.52691,-4.70636 -0.50648,-2.30836 -2.22043,-6.91238 -3.81937,-10.20774 -1.59326,-3.30359 -6.14834,-12.13362 -10.12691,-19.61721 -6.61067,-12.46674 -7.10114,-13.74327 -5.84223,-15.15835 0.75243,-0.84134 5.13183,-2.79632 9.74082,-4.32536 4.59508,-1.52652 9.63933,-3.59394 11.20443,-4.59041 1.55689,-1.00215 2.94544,-1.97401 3.07632,-2.16314 0.1309,-0.18913 -0.84411,-1.0826 -2.15413,-2.00126 -1.30749,-0.90475 -5.62828,-2.53235 -9.59845,-3.61359 -3.96448,-1.08947 -7.4526,-2.44529 -7.74492,-3.02455 -0.29802,-0.57104 -1.20841,-3.68332 -2.02627,-6.91246 -0.82354,-3.2209 -2.01542,-6.24646 -2.66189,-6.71813 z"
     id="path2014"
     style="fill:$[hairColor];stroke:#000000;stroke-opacity:1;stroke-width:3.77952756;stroke-miterlimit:4;stroke-dasharray:none" />
  <path
     d="m 50.19562,286.2111 c 0.64648,-0.47166 2.5988,-0.81319 4.33868,-0.77676 1.92327,0.0555 3.98201,-0.55351 5.2465,-1.53795 1.14413,-0.87684 3.63772,-4.28215 5.54519,-7.53524 10.07914,12.69018 20.16835,25.37348 30.05508,38.21297 5.38706,6.99595 10.71058,14.03963 16.04631,21.07474 5.12752,7.47287 10.25382,14.94662 15.38687,22.41461 -0.17596,0.29022 -0.51434,0.70288 -0.63538,0.94557 -1.08831,2.18805 -1.46437,4.77221 -1.10637,7.50386 0.29484,2.28893 1.91425,7.75858 3.57979,12.15137 1.67377,4.38708 6.00611,13.87863 9.63986,21.08058 3.61983,7.19942 7.01175,14.61716 7.535,16.48049 0.51757,1.85511 0.78672,6.89922 0.59476,11.19102 -0.1945,4.30572 0.0621,10.70593 0.57553,14.24211 0.92384,6.41394 0.92824,6.43636 7.43412,15.78551 l 6.51676,9.36612 c -5.8138,4.02301 -7.94084,6.02843 -8.48625,7.05035 -0.5454,1.02192 -2.11088,7.10431 -3.49486,13.52215 -1.38399,6.41786 -3.04814,12.04446 -3.70599,12.49969 -0.65786,0.45522 -2.46874,0.68756 -4.02771,0.52594 l -2.833,-0.31501 c -2.32904,-6.986 -3.17507,-9.24617 -3.36854,-9.52576 -0.20169,-0.2739 -2.50704,0.98189 -5.13846,2.80278 -3.78521,2.63143 -4.91892,3.09947 -5.48225,2.28536 -0.38694,-0.55917 -0.82354,-1.96117 -0.97381,-3.10974 -0.14204,-1.15426 -0.13121,-4.44459 0.0294,-7.34055 0.21275,-3.89272 -0.0299,-5.2081 -0.95777,-5.12545 -0.67296,0.0643 -1.92483,0.59117 -2.77751,1.16904 -0.87166,0.60318 -2.69417,0.65916 -4.23156,0.14209 -1.46781,-0.50439 -2.9384,-1.31126 -3.25452,-1.78567 -0.40463,-0.6199 -1.04995,-0.30732 -2.27153,1.07305 -1.46894,1.67316 -1.82815,1.75235 -2.62543,0.56509 -0.50704,-0.76791 -1.55694,-3.21602 -2.33626,-5.44939 -0.77932,-2.23338 -1.84895,-4.25256 -2.36625,-4.49047 -0.52552,-0.23224 -1.62812,-0.26114 -2.46237,-0.0608 -0.83427,0.20026 -1.89363,-0.17297 -2.3514,-0.81691 -0.45521,-0.65785 -1.48838,-3.46886 -2.29101,-6.24551 -0.78866,-2.77413 -1.50333,-5.12483 -1.57415,-5.2096 -0.0765,-0.093 -2.28299,1.32326 -4.90619,3.13846 -3.78521,2.63143 -4.9194,3.10219 -5.48274,2.28808 -0.38693,-0.55917 -0.82193,-1.96228 -0.9722,-3.11085 -0.14457,-1.14036 -0.13277,-4.44379 0.0254,-7.32586 0.21527,-3.90663 -0.026,-5.22299 -0.94815,-5.13212 -0.68686,0.0618 -1.94035,0.58975 -2.77912,1.17016 -0.88556,0.60063 -2.70635,0.65569 -4.23551,0.13296 -1.47604,-0.49871 -3.15733,-1.6101 -3.7213,-2.46025 -0.57787,-0.85268 -1.16202,-2.38115 -1.30158,-3.39121 -0.14778,-1.00437 0.60993,-5.16551 1.674,-9.23385 l 1.93448,-7.39523 c -7.19531,-0.62711 -9.83117,-0.27318 -10.80657,0.4261 -0.92607,0.66513 -3.24704,1.24838 -5.16024,1.29538 -2.62597,0.0538 -3.88763,-0.43496 -5.16863,-2.005 -1.45109,-1.78068 -1.48632,-2.65468 -0.24086,-6.17972 0.79045,-2.24946 3.60273,-9.08373 6.24334,-15.17938 4.71359,-10.84999 4.77404,-11.11232 2.94157,-12.81152 -1.02627,-0.95586 -2.05959,-1.7116 -2.29488,-1.68256 -0.24097,0.0208 -1.62242,2.90943 -3.07342,6.41861 -1.45669,3.50094 -3.18396,6.75106 -3.83044,7.22272 -0.65216,0.46344 -2.34732,0.61601 -3.77788,0.3412 -1.43055,-0.27481 -3.08226,-1.18703 -3.67088,-2.02011 -0.70244,-0.99754 -0.61854,-3.00235 0.25107,-5.8052 0.73038,-2.35383 2.92464,-8.51551 4.88199,-13.70058 1.97126,-5.18253 4.03176,-11.5706 4.5965,-14.19895 0.55083,-2.6309 0.84467,-4.99969 0.63475,-5.2679 -0.2156,-0.27643 -2.68483,1.44438 -5.49283,3.80091 -4.61779,3.88858 -5.18194,4.18156 -5.93306,3.0961 -0.4413,-0.65532 -0.88025,-4.55909 -0.95143,-8.6688 l -0.13236,-7.48512 c -6.25953,9.03766 -8.99341,12.29171 -10.11998,13.07127 -1.12658,0.77957 -2.22389,1.19943 -2.43381,0.93123 -0.20991,-0.26821 0.0261,-2.3898 0.52691,-4.70636 0.50648,-2.30836 2.22043,-6.91238 3.81937,-10.20774 1.59326,-3.30359 6.14834,-12.13362 10.12691,-19.61721 6.61067,-12.46674 7.10114,-13.74327 5.84223,-15.15835 -0.75243,-0.84134 -5.13183,-2.79632 -9.74082,-4.32536 -4.59508,-1.52652 -9.63933,-3.59394 -11.20443,-4.59041 -1.55689,-1.00215 -2.94544,-1.97401 -3.07632,-2.16314 -0.1309,-0.18913 0.84411,-1.0826 2.15413,-2.00126 1.30749,-0.90475 5.62828,-2.53235 9.59845,-3.61359 3.96448,-1.08947 7.4526,-2.44529 7.74492,-3.02455 0.29802,-0.57104 1.20841,-3.68332 2.02627,-6.91246 0.82354,-3.2209 2.01542,-6.24646 2.66189,-6.71813 z"
     id="path2014-3"
     style="fill:$[hairColor];stroke:#000000;stroke-opacity:1;stroke-width:3.77952756;stroke-miterlimit:4;stroke-dasharray:none" />
</svg>
