<?xml version="1.0" encoding="UTF-8" standalone="no"?>
<svg
   viewBox="0 0 400 600"
   width="400"
   height="600"
   version="1.1"
   id="svg17316"
   sodipodi:docname="afrobg2.svg"
   inkscape:version="1.1.2 (b8e25be8, 2022-02-05)"
   xmlns:inkscape="http://www.inkscape.org/namespaces/inkscape"
   xmlns:sodipodi="http://sodipodi.sourceforge.net/DTD/sodipodi-0.dtd"
   xmlns="http://www.w3.org/2000/svg"
   xmlns:svg="http://www.w3.org/2000/svg">
  <defs
     id="defs17320" />
  <sodipodi:namedview
     id="namedview17318"
     pagecolor="#ffffff"
     bordercolor="#666666"
     borderopacity="1.0"
     inkscape:pageshadow="2"
     inkscape:pageopacity="0.0"
     inkscape:pagecheckerboard="0"
     showgrid="false"
     inkscape:snap-global="false"
     inkscape:zoom="2.2870259"
     inkscape:cx="96.413427"
     inkscape:cy="355.04627"
     inkscape:window-width="1296"
     inkscape:window-height="762"
     inkscape:window-x="0"
     inkscape:window-y="25"
     inkscape:window-maximized="0"
     inkscape:current-layer="svg17316" />
  <path
     d="m 376.21014,272.55295 c -0.58213,-0.54912 -2.4761,-1.13311 -4.20678,-1.31546 -1.91502,-0.18648 -3.88099,-1.04919 -5.01184,-2.18463 -1.02496,-1.01358 -3.07117,-4.70507 -4.55502,-8.17195 -11.59297,11.32399 -23.19507,22.63989 -34.61591,34.13617 -6.22296,6.26407 -12.38887,12.58346 -18.56583,18.89283 -6.02536,6.76979 -12.04963,13.54062 -18.07987,20.30489 0.13812,0.31002 0.422,0.76191 0.5116,1.01788 0.80493,2.30739 0.85349,4.91832 0.15529,7.58338 -0.57995,2.23379 -2.87342,7.45678 -5.07741,11.60563 -2.21145,4.14216 -7.70143,13.01452 -12.21083,19.70314 -4.49527,6.68785 -8.79185,13.62091 -9.54496,15.40378 -0.74643,1.77543 -1.64689,6.74581 -1.9954,11.02774 -0.34778,4.29606 -1.40606,10.61338 -2.35949,14.05709 -1.72199,6.24715 -1.72916,6.26884 -9.35761,14.72697 l -7.64136,8.47361 c 5.26258,4.72126 7.12094,6.9779 7.5337,8.06023 0.41275,1.08232 1.20202,7.31316 1.76909,13.85399 0.56708,6.54085 1.51148,12.33189 2.10695,12.86613 0.59549,0.53423 2.36285,0.99214 3.92978,1.02757 l 2.85013,0.0433 c 3.1879,-6.63821 4.31106,-8.77425 4.53811,-9.02733 0.23449,-0.2464 2.36389,1.28895 4.74581,3.42587 3.4248,3.08595 4.49075,3.69265 5.15186,2.95573 0.4541,-0.50615 1.0633,-1.84223 1.35662,-2.96283 0.28586,-1.12729 0.68832,-4.39293 0.89265,-7.28614 0.27812,-3.88859 0.68369,-5.16311 1.59384,-4.96459 0.65956,0.1483 1.83535,0.8282 2.60871,1.50858 0.78902,0.70787 2.59007,0.99227 4.18023,0.67236 1.51952,-0.31606 3.07979,-0.93188 3.45299,-1.36283 0.47928,-0.56418 1.08024,-0.17304 2.11879,1.34981 1.24721,1.84438 1.59362,1.96806 2.53369,0.89032 0.59945,-0.69816 1.94847,-2.99504 3.0021,-5.11287 1.05361,-2.11783 2.36834,-3.98671 2.91142,-4.15777 0.55053,-0.16441 1.64803,-0.0546 2.45051,0.24892 0.80252,0.30343 1.90037,0.0662 2.43537,-0.51516 0.53423,-0.59548 1.91222,-3.25449 3.05719,-5.90837 1.13079,-2.65313 2.135,-4.89547 2.2159,-4.97067 0.0876,-0.0826 2.09874,1.59948 4.47323,3.72973 3.42479,3.08594 4.49089,3.6954 5.15199,2.95848 0.45409,-0.50615 1.06185,-1.84353 1.35517,-2.96413 0.28663,-1.11318 0.68976,-4.39194 0.89478,-7.27106 0.27713,-3.90273 0.68168,-5.17838 1.58513,-4.97242 0.67366,0.14758 1.85093,0.82874 2.61017,1.50989 0.80312,0.70709 2.60259,0.99036 4.18528,0.6638 1.52698,-0.3094 3.33453,-1.20086 4.0008,-1.97345 0.68037,-0.77336 1.45184,-2.21638 1.71714,-3.20092 0.27274,-0.97786 0.0436,-5.20121 -0.50116,-9.37096 l -0.99049,-7.57962 c 7.2171,0.28143 9.78765,0.96357 10.66751,1.7798 0.83521,0.77616 3.06457,1.64626 4.95672,1.93314 2.59843,0.38314 3.91148,0.0567 5.3795,-1.34005 1.66322,-1.58436 1.80793,-2.44701 1.015,-6.10054 -0.50171,-2.33093 -2.43348,-9.46426 -4.28771,-15.84326 -3.31374,-11.35603 -3.34076,-11.62387 -1.30941,-13.0795 1.13817,-0.81941 2.25822,-1.4394 2.488,-1.38104 0.23645,0.0509 1.24421,3.09013 2.24305,6.75375 1.00551,3.65616 2.31096,7.09745 2.89309,7.64656 0.5888,0.54167 2.25138,0.90591 3.70513,0.81292 1.45373,-0.093 3.20692,-0.79056 3.8955,-1.54313 0.82215,-0.90143 0.99068,-2.9009 0.47992,-5.79077 -0.429,-2.42692 -1.83211,-8.81537 -3.12283,-14.2052 -1.30484,-5.38905 -2.54683,-11.98531 -2.77702,-14.66377 -0.21609,-2.67924 -0.21013,-5.06618 0.0318,-5.30591 0.24861,-0.24716 2.48219,1.77011 4.97203,4.46061 4.09291,4.4377 4.6158,4.7992 5.49729,3.81666 0.5201,-0.59472 1.4458,-4.41246 2.03252,-8.48069 l 1.07128,-7.40925 c 5.07504,9.75218 7.37863,13.32379 8.39839,14.23866 1.01976,0.91486 2.05566,1.46921 2.2976,1.22949 0.24193,-0.23973 0.27421,-2.37416 0.0683,-4.73527 -0.21258,-2.35369 -1.3348,-7.1365 -2.50725,-10.60657 -1.16578,-3.47752 -4.57594,-12.80967 -7.58323,-20.73364 -4.99277,-13.19821 -5.31906,-14.52622 -3.89241,-15.77202 0.85213,-0.74019 5.44236,-2.12972 10.20688,-3.06787 4.7504,-0.93739 10.01436,-2.35498 11.6922,-3.14703 1.67041,-0.7987 3.17001,-1.58849 3.32361,-1.75969 0.15361,-0.17119 -0.70148,-1.18003 -1.88577,-2.25593 -1.18351,-1.06179 -5.26571,-3.2191 -9.06866,-4.79035 -3.79628,-1.5787 -7.08653,-3.36182 -7.30379,-3.97321 -0.22395,-0.60394 -0.73629,-3.80591 -1.14217,-7.11219 -0.41254,-3.29882 -1.21504,-6.45011 -1.79716,-6.99922 z"
     id="path2014"
     style="fill:$[hairColor];stroke:#000000;stroke-width:3.77953;stroke-miterlimit:4;stroke-dasharray:none;stroke-opacity:1" />
  <path
     d="m 22.310254,272.97079 c 0.577489,-0.55399 2.466482,-1.1539 4.195568,-1.35082 1.913377,-0.20257 3.872009,-1.08181 4.993267,-2.22673 1.016393,-1.02216 3.031465,-4.73075 4.486083,-8.20999 11.687869,11.22601 23.384796,22.44386 34.901985,33.84361 6.27546,6.21147 12.49435,12.47875 18.72418,18.7359 6.08213,6.71885 12.163173,13.43873 18.250133,20.15201 -0.13551,0.31117 -0.41558,0.76543 -0.50302,1.02214 -0.78548,2.31409 -0.81207,4.92534 -0.0915,7.58443 0.59873,2.22883 2.93607,7.43233 5.17491,11.56249 2.24623,4.1234 7.8107,12.94924 12.37623,19.59966 4.5514,6.64978 8.90618,13.54644 9.67426,15.3229 0.76135,1.76909 1.70361,6.73171 2.08816,11.01056 0.38389,4.29298 1.49532,10.60117 2.47771,14.03673 1.7745,6.23243 1.78186,6.25406 9.48122,14.64769 l 7.71241,8.409 c -5.22265,4.76538 -7.06196,7.03759 -7.46559,8.12335 -0.40363,1.08576 -1.14042,7.32301 -1.65243,13.86838 -0.51201,6.5454 -1.40763,12.34418 -1.99859,12.88341 -0.59097,0.53923 -2.35442,1.012 -3.92099,1.06062 l -2.84967,0.0672 c -3.24365,-6.61115 -4.38475,-8.73765 -4.61392,-8.98882 -0.23656,-0.24442 -2.35296,1.3088 -4.71681,3.4657 -3.3987,3.11466 -4.45952,3.73031 -5.1268,2.99898 -0.45834,-0.50231 -1.07877,-1.83321 -1.38151,-2.95131 -0.29534,-1.12484 -0.72527,-4.38698 -0.95394,-7.27836 -0.3105,-3.88614 -0.72713,-5.15718 -1.63557,-4.95101 -0.65829,0.15385 -1.82832,0.84363 -2.59593,1.53049 -0.78302,0.71448 -2.58162,1.01404 -4.17441,0.70752 -1.52213,-0.30327 -3.08754,-0.90592 -3.46434,-1.33372 -0.48401,-0.56013 -1.08165,-0.16394 -2.10736,1.36759 -1.23163,1.85482 -1.577,1.9814 -2.5261,0.91161 -0.60532,-0.69309 -1.97362,-2.97853 -3.04502,-5.08741 -1.07141,-2.1089 -2.401823,-3.96664 -2.946323,-4.13312 -0.55189,-0.15977 -1.64843,-0.0408 -2.44833,0.26952 -0.79994,0.31018 -1.89974,0.0822 -2.43962,-0.49464 -0.53921,-0.59096 -1.93954,-3.23829 -3.1068,-5.88243 -1.15308,-2.64352 -2.17613,-4.87733 -2.25766,-4.95185 -0.0883,-0.0819 -2.08521,1.61709 -4.44168,3.76724 -3.3987,3.11466 -4.45962,3.73308 -5.126919,3.00175 -0.458331,-0.50232 -1.077323,-1.83453 -1.380061,-2.95263 -0.29599,-1.11072 -0.726706,-4.38598 -0.955941,-7.26327 -0.309863,-3.90026 -0.725253,-5.17245 -1.626926,-4.9589 -0.672396,0.15323 -1.843888,0.8443 -2.597371,1.53181 -0.797143,0.71382 -2.594157,1.01223 -4.179548,0.699 -1.529532,-0.29654 -3.344519,-1.17275 -4.017264,-1.93971 -0.68686,-0.76761 -1.470447,-2.20408 -1.744022,-3.18635 -0.280958,-0.97553 -0.08735,-5.20066 0.422281,-9.37486 l 0.92665,-7.58768 c -7.214476,0.34217 -9.779191,1.04591 -10.652154,1.86952 -0.82865,0.78317 -3.0506,1.672 -4.940271,1.9748 -2.595108,0.405 -3.91086,0.0896 -5.390587,-1.29473 -1.676495,-1.57031 -1.828457,-2.43171 -1.066306,-6.0918 0.482071,-2.33505 2.35374,-9.48439 4.154205,-15.87877 3.218048,-11.38351 3.242821,-11.65158 1.199294,-13.09006 -1.145038,-0.8098 -2.270262,-1.42035 -2.499543,-1.36006 -0.236014,0.0529 -1.21816,3.1005 -2.186124,6.7724 -0.974705,3.66448 -2.251144,7.11665 -2.828634,7.67064 -0.584219,0.54661 -2.243675,0.92482 -3.698152,0.84408 -1.454466,-0.0807 -3.213466,-0.76355 -3.908353,-1.51029 -0.829707,-0.89448 -1.015056,-2.89247 -0.528651,-5.78653 0.408565,-2.43044 1.757858,-8.83048 3.003167,-14.23098 1.259434,-5.39984 2.445853,-12.00632 2.653505,-14.68662 0.193525,-2.68097 0.167479,-5.06777 -0.07647,-5.30546 -0.250678,-0.24506 -2.467206,1.79094 -4.934313,4.5023 -4.055414,4.47198 -4.575245,4.83788 -5.464968,3.86279 -0.525088,-0.59032 -1.482894,-4.40013 -2.103824,-8.46329 l -1.133609,-7.39996 c -4.992777,9.79455 -7.266232,13.38542 -8.278251,14.30883 -1.012027,0.92342 -2.043223,1.48646 -2.28717,1.24879 -0.243939,-0.23768 -0.294188,-2.37177 -0.108134,-4.73453 0.192771,-2.3554 1.27469,-7.14748 2.417896,-10.62729 1.136476,-3.48721 4.467963,-12.84773 7.408456,-20.79673 4.881516,-13.23977 5.196608,-14.57048 3.759525,-15.80422 -0.858327,-0.73299 -5.460096,-2.08385 -10.232342,-2.98186 -4.758124,-0.89737 -10.0338107,-2.27062 -11.7182637,-3.04851 -1.677077,-0.78461 -3.183274,-1.56176 -3.338304,-1.73166 -0.15505,-0.16989 0.691519,-1.18589 1.866707,-2.27172 1.174543,-1.0717 5.238434,-3.2633 9.0280337,-4.8665 3.782859,-1.6106 7.057979,-3.42135 7.270088,-4.03454 0.218859,-0.60581 0.704237,-3.81198 1.082269,-7.12156 0.384763,-3.30217 1.160709,-6.4601 1.738188,-7.0141 z"
     id="path2014-3"
     style="fill:$[hairColor];stroke:#000000;stroke-width:3.77953;stroke-miterlimit:4;stroke-dasharray:none;stroke-opacity:1" />
</svg>
