<?xml version="1.0" encoding="utf-8"?>
<!-- Generator: Adobe Illustrator 27.2.0, SVG Export Plug-In . SVG Version: 6.00 Build 0)  -->
<svg version="1.1" id="Layer_1" xmlns="http://www.w3.org/2000/svg" xmlns:xlink="http://www.w3.org/1999/xlink" x="0px" y="0px"
	 viewBox="0 0 400 600" style="enable-background:new 0 0 400 600;" xml:space="preserve">
<style type="text/css">
	.st0{stroke:#000000;stroke-width:4;}
</style>
<path class="st0" fill="$[hairColor]" stroke="#000000" stroke-width="4" d="M51.1,551.5c1.1-31.5,2-62.4,3.1-93.4c1.3-37.9-1.3-75.6-4.8-113.2c-0.4-4.2-0.2-8.6-1-12.8
	c-1.6-8.9,2.9-14.7,10.4-18.2c6.4-2.8,13.1-4.8,20-6.2c33.5-6.6,67.3-12.3,101.5-7.7c29.3,3.9,58.3,10.2,87.4,15.6
	c19.1,3.6,38.1,7.3,56.9,11.6c7.3,1.6,14.2,4.8,21.2,7.7c1.1,0.4,1.5,3.2,1.6,4.8c1.1,33.7,1.9,67.3,2.9,101
	c1.1,35,2.1,70.1,3.2,105.1c0.1,1.8,0.3,3.7,0.6,5.5c-13.8,8.9-28.6,12-45.1,12.1c-40.6,0.1-80.9-3.2-121.3-5.3
	c-44.1-2.4-88.2-4.3-132.2-6.5C54.2,551.7,52.8,551.6,51.1,551.5z M84.8,537.4L84.8,537.4c-1.2-1.6-2.8-4-4.5-7.1
	c-7.3-13.9-6.7-27.1-6.4-40.4c0.2-12.6-0.4-25.2-0.5-37.8c-0.1-19.6-0.8-22-3-72.9c-0.6-14.6-1.1-27.3-1.5-37.4
	c-0.4,2.7-0.6,5.4-0.4,8.2c1.4,23.4,3.3,46.7,4.1,70.1c0.8,24.4,0.7,48.9,1.3,73.3c0.2,12.5,1.4,24.9,6.4,36.8
	C81.2,532.9,83.2,535.1,84.8,537.4z M277.4,368.4l-0.2,5c-3,92.5-0.4,164.2-0.4,164.2c0.1,1.5,0.1,3.4,0.2,5.6c0.3,1,0.7,2,1.3,2.8
	c-0.4-0.9-0.8-1.8-1.3-2.8c-0.6-15.2-1.3-39-1.3-68.3C275.5,420,277.6,368.4,277.4,368.4z M337,544.7c-0.4,0.5-0.8,1-1.3,1.4
	C336.2,545.6,337,545.1,337,544.7c-1.8-55.3-3.7-110.6-5.6-165.9h-1.2C332.5,434.1,334.8,489.4,337,544.7z M95.6,540.2
	c-0.9-30.7-2-61.8-3.3-93.1c-1.3-31.5-2.8-62.6-4.5-93.3c-0.3,1.7-0.6,4.6-0.5,8.3c0.2,4.8,1.1,8.3,1.3,9.1
	c3.1,12.7,3.5,94.2,5.6,144C94.4,520,94.9,528.9,95.6,540.2z M233.5,538.5c1.6-27.1,2.4-56.3,1.9-87.3c-0.6-32.1-2.5-62.1-5.3-89.9
	C235.6,420.2,237.6,479.3,233.5,538.5z M318.7,377.1c0.8,56.8,1.6,113.7,2.3,170.5l0,0C322.7,490.6,318.5,433.8,318.7,377.1z"/>
</svg>
