<?xml version="1.0" encoding="UTF-8"?><svg id="Backs" xmlns="http://www.w3.org/2000/svg" viewBox="0 0 400 600"><defs><style>.cls-1{stroke-linecap:round;stroke-linejoin:round;}</style></defs><path fill="$[hairColor]" stroke="#000" stroke-width="4" d="M342.49,518.25s-.07,.05-.1,.07c-.69,.39-.08,.54,.1-.07Z"/><path fill="$[hairColor]" stroke="#000" stroke-width="4" d="M367.6,427.93c.74-2.63-.24-7.28-.37-9.26,2.18-4.69,.19-6.1-1.5-9.21,3.1-3.02-1.43-5.94-1.37-9.72,4.25-2.85-2.7-9.07-1.73-10.57,.02-1.91-1.33-3.84-1.3-5.74,.05-3.31-.92-5.98-2.61-8.06-.69-4.1-1-7.95-2.06-11.54-.6-2.03-2.5-3.25-3.09-5.86-.88-3.83-1.54-7.8-2.82-11.51-.57-1.65-1.35-3.07-1.46-4.98-.2-3.27-.41-6.74-1.59-9.67-.69-1.7-1.27-3.18-1.32-5.03-.09-3.39,.63-7.37-.76-10.02-.03-.05-.05-.11-.07-.16v-5.8c.49-1.43,1.03-2.81,.85-4.32-.18-1.5-.57-2.98-.71-4.48-.03-.38-.09-.76-.14-1.15v-6.45H52.57c.18,.68,.43,1.38,.76,2.09v6.69c-.06,.39-.12,.78-.16,1.15-.15,1.5-.59,2.98-.8,4.48-.21,1.51,.41,2.89,.96,4.32v5.8c-.03,.05-.05,.11-.08,.16-1.57,2.66-.76,6.63-.86,10.02-.05,1.85-.72,3.33-1.5,5.03-1.33,2.93-1.58,6.4-1.8,9.67-.13,1.91-1.01,3.33-1.66,4.98-1.45,3.71-2.2,7.68-3.19,11.51-.68,2.61-2.82,3.83-3.5,5.86-1.2,3.59-1.55,7.43-2.33,11.54-1.9,2.07-3,4.74-2.95,8.06,.03,1.91-1.49,3.83-1.47,5.74,1.09,1.5-6.77,7.71-1.96,10.57,.08,3.78-5.05,6.7-1.54,9.72-1.9,3.12-4.15,4.53-1.69,9.21-.15,1.98-1.26,6.63-.42,9.26-2.16,4.27-4.2,3.67-1.8,9.81-1.21,3.23,3,4.65,2.58,8.69,1.55,2.91-.77,5.59,1.04,8.56-.97,3.42,.47,4.12,.35,7.79-1.17,4.12,2.02,3.16,.5,6.65-.76,2.76,2.23,5.55,3.05,9.4-.8,1.88-.04,5,1.8,6.52,1.57,2.77,2.45,5.45,3.4,7.79,.54,1.03,1.45,3,2.63,5.45,1.18,2.45,2.63,5.36,4.25,8.27-2.03,2.12,2.11,4.91,3.5,5.78,3.21,3.7,0,2.45,3.46,5.68,1-.76,2.83-.62,3.61-.07-.12-.37-.08-1.02,.56-2.07,.62,.89-.41-5.69-3.35-7.47,2.14-2.81-5.72-4.73-5.09-9.2-.42-4.04-.1-7.11-3.73-9.74,.16-2.68-1.87-5.81-3.06-8.93-6.36-3.82-5.46-8.23-1.57-9.31,3.45-3.51-3.97-1.93-1.57-4.94-.58,1.05-1.65-4.62-1.53-8.01-1.8,1.25-2.74-5.29-.19-8.15,1.68,1.22-2.71-6.52,0-5.6,1.01-2.44-.63-6.05-.1-8.48,.39-1.59,.67-5.07,.41-7.24-.64-5.1-1.68-5.66,.94-7.82,.63-1.59,.29-5.21,.78-7.82-.55-4.61-.93-8.12,1.5-12.15-4.51-3.25,.16-4.83,3.91-11.2,.55-3.24,1.6-6.31,2.74-9.34,1.13-3.03,2.35-6.04,3.25-9.14,.14-.49-.18-1.25,.1-1.55,4.66-4.93,4.61-11.79,7.79-17.72h7.42c-.01,.05-.03,.11-.06,.15-2.26,3.57-1.42,7.53-1.64,11.24-3.63,2.62-4.07,6.52-4.95,10.18-.3,1.27,.55,3.17-.14,3.91-2.94,3.15-3.96,6.88-4.66,10.7-.7,3.82-.68,6.67-2.74,11.25,.54,1.4-2.61,2.87-.81,5.24,2.56,4.26,.98,7.31-1.88,10.51,1.19,4.33-.71,5.56-1.58,8.19,1.28,3.39,.39,6.16-.03,12.17-1.16,2.14-.77,6.74,.09,12.16,2.85,4.17,1.14,3.73,.56,9.14-.77,3.87-.53,5.14,1.16,9.1-.87,2.65,2.17,3.87,1.49,8.17,2.17,2.91,2.07,4.48,2.13,8.01-2.25,2.57-.2,7.85,2.61,7.95,4.03,1.58,1.21,5.61,2.74,7.9-1.01,1.97,.57,7.2,3.11,8.37,2.66,3.52,3.96,5.57,3.65,7.04,1.96,3.41,1.44,7.59,3.5,6.19,2.81,1.95,4.64,2.15,3.42,6.26,4.92,2.27,4.19,.96,3.95,5.65-.27,.26,2.52,5.53,4.08,5.61-.77,6.52,4.09,7.58,6.22,8.63-2.9,.25,9.86,6.27,7.52,7.55,1.31,2.51-1.22,4.29,2.97,2.57,4.39-3.67-2.27-4.53,1.7-3.92-.42,.6,.48-.82,1.13,.53-.51-.44,6.77,8.65,5.06,8.4,1.84,2.87,1.14,7.02,5.04,8.42-3.11-.31,3.14,1.72,3.35,0-2.55,.48,4.71-4.76,1.46-2.7-.88-3.21-4.43-6.43-4.4-8.36-3.79-7.68-2.71-5.33-4.43-7.93,.4-3.01-1.75-4.13-2.96-6.53,.22-2.23-2.96-2.76-3.42-5.36,.44-.35-2.9-4.42-1.87-5.87-.45-1.86-3.33-5.14-3.75-6.34-3.56-1.66-4.29-3.48-2.9-6.55-.88-.51-3.71-4.33-2.73-5.66-2.21-1.86-1.05-2.36-1.95-6.43,.07-.7,1.9-4.71-1.87-6.48,.36-4.25-.21-1.48-2.02-6.85-1.07-1.15-.59-3.98-2.01-6.78-3.57-1.12-5.15-5.9-2.09-6.6,1.81-4.09-4.51-4.98-.3-6.88-.4-.49-.76-.74-1.05-.86,.27-.15,.61-.38,1.04-.74-.61-1.62,.09-5.01-1.87-6.68,.65-4.01-1.88-1.26,.21-6.28,2.23-2.81-3.04-2.24-.61-6.18-.84-2.64,1.97-6.03,2.17-6.8-1.11-1.69,2.89-4.34-1.13-8.1,4.1-1.61,1.96-5.62,2.98-11.52-1.55-2.51,.42-6,.54-6.16,3.21-.79-.24-6.58,2.43-6.9-1.3-3.09-1.41-4.12,.3-7.13,2.41-2.09,3.14-4.52,3.33-7.03,.19-2.51-.14-5.1,.14-7.5,1.17-1.12,2.16-2.06,3.15-3.01-.07-.89,0-1.75,.16-2.61,2.3,2.65,4.83,5.21,7.57,7.66-.02,.15-.05,.29-.07,.44-.57,4.23-2.87,7.97-4.07,11.99-1,3.34-1.98,6.7-2.96,10.05,.95,3.69-.66,6.87-2.98,10.05-3.27,1.9-3.36,6.08-2.86,8.5-3,3.07-2.45,6.55-1.36,8.97-.06,.61,2.63-.31,4.52,0-1.7-1.69,1.78-6.9,2.69-9.07,1.75-.58,2.99-8.53,2.91-8.88-1.48-5.56,2.23-6.08,3.39-9.1s2.38-6.01,3.74-8.89c1.38-2.94,2.23-6.02,3.13-9.05,2.95,2.24,6.09,4.37,9.4,6.39-1.8,5.17-2.64,10.62-4.37,15.82-1.3,3.89-3.21,7.65-4.72,11.51s-1.09,7.61-2.27,12.19c-3.17,4.16-5.38,7.54-3.98,7.77-3.83,1.81,1.58,6.19-1.33,8.56-.72,3.95-4.24,7.72-3.02,10.55-.58,3.95-.38,8.25-1.73,10.81,0,2.62-.04,5.24-.06,7.85s-1.18,4.35,.12,7.82c-.07,4.84-2.87,5.17,.92,8.14,.44,3.24-.02,4.25,2.11,7.09,.85-2.28,3.39,5.57,4.1,2.52,2.02,.19-2.26-1.24,1.2,0,1.62,1.06-2.31-5.58-.08-4.91-1.84-1.9-2.79-6.43-2.31-8.08-3.42-2.63-3.09-6.74-.81-8.26-.09-2.41-.12-4.96,.11-7.43,.24-2.47,.75-4.86,1.76-6.97,1.69-3.51,.26-6.79,1.51-9.84,1.99-4.87,3.66-9.77,5.07-14.85,1.46-5.23,5.06-9.89,4.93-15.65,4.53-5.68,5.37-12.86,8.43-19.09,1.64-3.34,2.54-6.95,3.65-10.47,20.94,10.44,47.27,16.66,75.86,16.66,33.56,0,63.98-8.57,86.26-22.47,1.6,4.57,2.37,9.49,4.3,13.95,2.71,6.24,3.44,13.41,7.45,19.09-.11,5.75,3.07,10.42,4.36,15.65,1.25,5.07,2.73,9.97,4.49,14.85,1.1,3.05-.16,6.32,1.33,9.84,.9,2.1,1.35,4.5,1.56,6.97,.21,2.47,.17,5.02,.1,7.43,2.02,1.52,2.31,5.63-.71,8.26,.42,1.65-.42,6.18-2.04,8.08,1.97-.67-1.51,5.97-.07,4.91,3.06-1.24-.73,.19,1.06,0,.63,3.06,2.88-4.8,3.63-2.52,1.89-2.84,1.48-3.85,1.87-7.09,3.35-2.97,.87-3.3,.81-8.14,1.15-3.47,.13-5.2,.11-7.82-.02-2.62-.06-5.24-.06-7.85-1.19-2.56-1.02-6.86-1.53-10.81,1.08-2.83-2.04-6.59-2.68-10.55-2.58-2.37,2.22-6.74-1.18-8.56,1.24-.23-.72-3.61-3.52-7.77-1.04-4.57-.67-8.32-2-12.19s-3.03-7.62-4.17-11.51c-1.91-6.48-2.62-13.36-5.25-19.59,3.01-2.26,5.82-4.62,8.42-7.09,1.44,4.4,2.23,9.12,4.05,13.51,1.2,2.89,2.28,5.87,3.31,8.89s4.31,3.54,3,9.1c-.06,.36,1.03,8.3,2.58,8.88,.8,2.17,3.88,7.37,2.38,9.07,1.67-.31,4.05,.61,4,0,.96-2.42,1.45-5.9-1.2-8.97,.44-2.41,.37-6.6-2.53-8.5-2.05-3.17-3.48-6.35-2.64-10.05-.87-3.35-1.73-6.7-2.62-10.05-1.06-4.02-3.1-7.76-3.6-11.99-.23-1.9-.73-3.74-1.3-5.56,2.44-2.79,4.62-5.68,6.52-8.66,.52,2.91,1.76,5.72,1.55,8.73,.88,.94,1.75,1.89,2.79,3.01,.25,2.4-.04,4.99,.13,7.5,.17,2.51,.81,4.95,2.95,7.03,1.51,3.01,1.42,4.05,.26,7.13,2.37,.32-.69,6.11,2.15,6.9,.11,.16,1.85,3.64,.48,6.16,.9,5.91-.99,9.91,2.63,11.52-3.55,3.76-.02,6.41-1,8.1,.17,.78,2.66,4.17,1.92,6.8,2.15,3.93-2.51,3.37-.54,6.18,1.84,5.02-.39,2.28,.18,6.28-1.74,1.67-1.12,5.05-1.66,6.68,.38,.37,.68,.59,.92,.74-.26,.12-.57,.37-.93,.86,3.72,1.9-1.87,2.79-.27,6.88,2.71,.7,1.31,5.48-1.85,6.6-1.26,2.8-.83,5.63-1.78,6.78-1.59,5.37-2.11,2.6-1.78,6.85-3.33,1.77-1.71,5.78-1.65,6.48-.8,4.07,.23,4.56-1.72,6.43,.87,1.32-1.63,5.14-2.41,5.66,1.23,3.07,.58,4.89-2.57,6.55-.36,1.2-2.91,4.48-3.31,6.34,.91,1.45-2.04,5.53-1.65,5.87-.4,2.6-3.22,3.12-3.02,5.36-1.07,2.4-2.97,3.51-2.62,6.53-1.51,2.6-.56,.25-3.92,7.93,.02,1.93-3.12,5.15-3.9,8.36-2.87-2.05,3.55,3.19,1.29,2.7,.19,1.72,5.72-.31,2.97,0,3.44-1.4,2.83-5.55,4.46-8.42-1.51,.25,4.93-8.84,4.48-8.4,.58-1.35,1.37,.07,1-.53,3.51-.61-2.38,.25,1.5,3.92,3.71,1.72,1.46-.06,2.62-2.57-2.06-1.28,9.22-7.3,6.66-7.55,1.88-1.05,6.18-2.1,5.5-8.63,1.39-.08,3.85-5.35,3.61-5.61-.21-4.69-.86-3.38,3.49-5.65-1.08-4.11,.54-4.31,3.03-6.26,1.83,1.4,1.36-2.78,3.1-6.19-.27-1.48,.88-3.53,3.23-7.04,2.25-1.17,3.64-6.4,2.75-8.37,1.35-2.29-1.15-6.32,2.42-7.9,2.48-.09,4.3-5.38,2.3-7.95,.05-3.54-.03-5.1,1.88-8.01-.6-4.3,2.08-5.51,1.31-8.17,1.5-3.96,1.7-5.23,1.02-9.1-.51-5.41-2.03-4.98,.49-9.14,.76-5.42,1.1-10.02,.08-12.16-.37-6-1.16-8.77-.03-12.17-.76-2.64-2.45-3.87-1.39-8.19-2.53-3.2-3.93-6.25-1.66-10.51,1.59-2.37-1.2-3.84-.72-5.24-1.83-4.58-1.81-7.43-2.43-11.25-.62-3.82-1.52-7.54-4.12-10.7-.61-.75,.14-2.65-.13-3.91-.78-3.66-1.17-7.56-4.38-10.18-.2-3.72,.54-7.67-1.46-11.24-.03-.05-.04-.1-.05-.15h6.56c2.81,5.94,2.77,12.79,6.89,17.72,.25,.3-.04,1.05,.09,1.55,.79,3.11,1.87,6.11,2.88,9.14,1,3.03,1.93,6.1,2.42,9.34,3.32,6.37,7.45,7.95,3.46,11.2,2.15,4.03,1.82,7.54,1.33,12.15,.43,2.61,.13,6.23,.69,7.82,2.32,2.16,1.4,2.72,.83,7.82-.23,2.17,.02,5.65,.36,7.24,.47,2.42-.98,6.04-.09,8.48,2.39-.92-1.49,6.82,0,5.6,2.25,2.86,1.42,9.4-.17,8.15,.1,3.38-.84,9.06-1.35,8.01,2.13,3.02-4.43,1.43-1.39,4.94,3.44,1.08,4.24,5.49-1.39,9.31-1.05,3.11-2.84,6.24-2.71,8.93-3.21,2.63-2.93,5.7-3.3,9.74,.55,4.47-6.4,6.38-4.51,9.2-2.6,1.78-3.51,8.36-2.96,7.47,.57,1.05,.61,1.7,.5,2.07,.69-.54,2.31-.69,3.2,.07,3.06-3.23,.23-1.98,3.06-5.68,1.23-.86,4.88-3.66,3.09-5.78,1.43-2.9,2.71-5.82,3.76-8.27,1.05-2.45,1.85-4.42,2.33-5.45,.84-2.35,1.63-5.02,3.01-7.79,1.62-1.52,2.3-4.64,1.59-6.52,.72-3.85,3.37-6.64,2.7-9.4-1.35-3.49,1.47-2.53,.44-6.65-.11-3.67,1.17-4.37,.31-7.79,1.61-2.96-.45-5.65,.92-8.56-.37-4.04,3.35-5.46,2.28-8.69,2.12-6.14,.32-5.54-1.59-9.81Zm-289.93-45.05c.24,.88-.2,2.01-.55,2.95-.85,2.33-2.21,4.55-2.64,6.94-.46,2.59-.11,5.32-.11,8.16-2.25,3.07-3.79,6.46-3.4,10.53,.29,3.06,.17,6.09-1.57,8.97-1.78,2.95-2.41,6.39-1.64,9.7,.79,3.37-1.98,5.84-1.79,8.97,.14,2.39-.88,5.45,.32,7.03,2.12,2.79-1.41,4.42-.46,6.92,.8,2.12,0,4.76,.23,7.15,.13,1.44,.86,2.83,1.12,3.64-.27,2.59-1.07,4.86-.58,6.83,1.03,4.15,2.68,8.13,2.84,12.5,.07,1.93,1.1,3.82,1.58,5.75,1.31,5.19,2.81,10.35,4.53,15.42,2.39,1.86,3.36,4.03,3.98,6.52-.19,3.17,1.2,6.65,1.89,8.38-.44,3.26,5.87,6.62,4.36,10.71,7.59,4.88,3.21,5.2,6.04,10.06,1.65,2.36-1.73,3.18,3.05,8-5.87-.58-6.35-5.13-6.69-6.85-.42-1.65-3.79-4.44-3.98-5-3.57-2.8,.43-2.11-3.65-5.47,.49,.05-1.39-3.75-4.06-5.72-4.64-1.64-3.72-3.73-2.1-5.58-.48-1.12-3.46-3.21-3.14-6.32-.97-2.44-1.97-5.22-3.28-8.37-1.9-4.98-3.65-10.03-5.48-15.04-1.77-4.86-2.2-9.97-2.8-14.78-.69-5.6-2.27-11.18-2.13-16.91,.15-5.87,.03-11.75,.03-17.62,0-2.94-.72-6.1,.21-8.74,.88-2.53-.71-4.61-.11-6.72,.73-2.59,2.66-4.93,3.13-7.53,.56-3.11,.13-6.39,.13-9.59,.24,.08,.49,.15,.73,.23,1.43-4.22,3.46-8.36,4.08-12.68,.38-2.64,1.07-5.17,2.44-7.06,2.51-3.45,3.09-7.01,2.74-11.13,4.31-2.05,5.17-6,5.77-9.76,.74,2.24,1.63,4.44,2.66,6.61-.97,2.89-2.61,5.71-1.71,8.97Zm256.87,10.05c.54,4.32,2.34,8.46,3.61,12.68,.22-.08,.43-.15,.65-.23,0,3.2-.38,6.48,.12,9.59,.42,2.6,2.12,4.93,2.77,7.53,.53,2.11-.88,4.19-.1,6.72,.82,2.64,.18,5.81,.18,8.74,0,5.87-.1,11.75,.03,17.62,.13,5.73-1.27,11.31-1.88,16.91-.52,4.81-.91,9.92-2.47,14.78-1.62,5.02-3.16,10.06-4.85,15.04-1.16,3.16-2.04,5.93-2.9,8.37,.28,3.11-2.35,5.2-2.78,6.32,1.43,1.85,2.24,3.94-1.86,5.58-2.36,1.98-4.03,5.78-3.59,5.72-3.61,3.36-.07,2.67-3.23,5.47-.17,.56-3.15,3.36-3.52,5-.3,1.72-.72,6.27-5.92,6.85,4.23-4.83,1.24-5.65,2.7-8,2.5-4.85-1.37-5.18,5.35-10.06-1.34-4.09,4.25-7.45,3.85-10.71,.61-1.73,1.84-5.22,1.67-8.38,.55-2.48,1.41-4.65,3.52-6.52,1.52-5.07,2.85-10.23,4.01-15.42,.43-1.93,1.34-3.82,1.4-5.75,.14-4.38,1.6-8.35,2.51-12.5,.43-1.97-.28-4.24-.52-6.83,.24-.82,.88-2.2,.99-3.64,.2-2.38-.51-5.02,.2-7.15,.84-2.5-2.28-4.12-.41-6.92,1.06-1.58,.15-4.64,.28-7.03,.17-3.13-2.28-5.6-1.58-8.97,.68-3.3,.12-6.74-1.45-9.7-1.54-2.88-1.65-5.91-1.39-8.97,.34-4.07-1.02-7.45-3.01-10.53,0-2.83,.32-5.56-.09-8.16-.38-2.39-1.58-4.61-2.33-6.94-.3-.94-.7-2.07-.48-2.95,.93-3.82-1.22-7.03-1.9-10.46-.31-1.56-1.13-3.26-1.11-5.04,.02-1.73-.2-3.38-.57-4.97,.47-2.55,.75-5.14,.82-7.76,.95,3.06,2.42,5.96,3.06,9.17,.9,4.53,.61,10.54,5.64,13.25-.31,4.12,.2,7.68,2.42,11.13,1.22,1.89,1.83,4.42,2.16,7.06Z"/><path fill="$[hairColor]" stroke="#000" stroke-width="4" d="M56.89,520.65s-.08-.05-.11-.07c.21,.62,.89,.46,.11,.07Z"/></svg>