<?xml version="1.0" encoding="UTF-8"?><svg id="Backs" xmlns="http://www.w3.org/2000/svg" viewBox="0 0 400 600"><path fill="$[hairColor]" stroke="#000" stroke-width="4" d="M381.6,499.45h-8.54c-6.42-8.94-6.07-18.61-6.09-28.3,0-3.88,1.74-6.86,3.98-9.24,7.64-8.15,8.67-12.74,5.59-23.14-1.49-5.01-5.01-10.54-2.47-15.44,2.26-4.36,1.52-8.4,1.9-12.61,.06-.63-.39-1.31-.76-2.44-1.05-.92-2.44-2.13-4.31-3.77,1.67-4.86,3.36-9.75,4.73-13.72-.95-3.38-1.69-6.02-2.78-9.87-2.18-1.95-5.21-4.65-7.86-7.02v-11.02c3.67-5.35,5.46-10.51,4.07-15.89-3.86-5.04-7.33-9.57-11.48-15,1.21-3.54,2.67-7.77,4.12-12,.93-5.27,1.14-10.85,.83-16.39-.13-2.33-1.23-4.66-2.16-6.87-2.01-4.74-4.56-9.29-6.23-14.14-2.58-7.49-5.19-15.95-1.67-22.99,3.17-6.33,2.94-12.31,3.54-18.66,.68-7.09,.18-14.11-.54-21.02h-12.25v-2.61H43.04v2.61h-9.27c.07,2.21,.6,4.39,1.47,8.43,.72,3.29-.41,6.96-.55,10.47-.26,6.47-1.44,13.13-.3,19.36,.99,5.39,1.48,9.75-.47,15.26-3.07,8.63-4.89,17.98,.15,27.27-3.13,5.75-7.77,11.2-9,17.33-1.37,6.8-7.92,12.51-3.76,21.52,1.2,1.81,3.23,4.85,4.81,7.22-4,5.26-7.63,10.03-11.42,15.02,6.29,8.83,2.54,15.29-3.26,20.8v10.17c1.79,4.01,3.45,6.73,4.18,9.69,.58,2.36-.84,4.66-1.66,7.01-1.22,3.48-.75,8.1,.46,11.75,1.68,5.05,1.95,9.43-.13,14.45-1.16,2.81-.9,6.46-.45,9.61,.38,2.63,2.12,5.04,2.97,7.65,.97,2.96,2.22,6.03,2.22,9.04,0,2.41,.36,4.47,1.12,6.69,2.34,6.77,3.9,13.55,.16,20.5-.76,1.4-.11,3.56-.11,5.02l4.92,4.92c-.93,5.43-1.95,11.36-2.96,17.23,1.52,1.48,2.65,3.13,4.22,3.99,4.65,2.57,4.55,7.89,6.79,11.78,1.34,2.32,.4,5.82-1.4,9.13-1.48,2.73-1.26,7.33,1.61,11.26,4.57,6.25,2.88,12.66-2.56,18.06-5.81,5.77-6.67,12.83-4.59,20.65,1.22-4.94,2.43-9.89,3.94-16.01,2.07-1.93,5.04-4.71,7.41-6.92,1.03-4.17,3.59-8.62,2.3-10.7-2.16-3.51-.71-7.21-2.37-10.24-1.91-3.49,1.45-6.16,.7-9.57-.77-3.47-.17-7.23-.17-10.7,3.56,3.56,6.85,6.85,10.78,10.78,.62,2.4,1.57,6.12,2.54,9.9q-2.36,4.67-1.28,14.53c4.92-8.4,3.27-17.32,3.61-26.06-3.92-5.56-7.71-10.93-11.69-16.58,4.87-5.09,1.82-11.14,2.68-15.67-1.68-3.26-2.89-5.6-3.73-7.23,2.07-5.05,3.88-9.47,5.75-14.04-1.91-3.74-3.96-7.73-6.79-13.25,.98-2.81,2.45-7.03,3.92-11.25,.3,.1,.59,.21,.89,.31v-14.5c-3.34-.19-1.89-2.77-2.33-4.34-.71-.4-1.32-.92-1.92-1.44l.7-.7c.52,.61,1.04,1.22,1.55,1.82-.15,.15-.29,.29-.33,.32,3.44,.07,2,2.65,2.33,4.34,5.49,2.24,6.87,7.28,6.31,12.08-.23,1.97-.89,5.17-2.07,6.74-5.02,6.71-.72,11.32,2.88,16.07,1.94,2.56,4.53,4.64,6.26,6.37,0,1.42,.1,1.83-.02,2.16-.46,1.29-1.01,2.54-1.5,3.82-4.12,10.76-3.89,14.27,1.96,23.4,2.06,3.21,4.49,6.19,6.48,8.89-7.39,14.04,5.29,18.74,10.91,26.86v14.61c-3.99,4.69-7.71,9.05-11.14,13.08,0,3.27-.08,5.84,.02,8.41,.09,2.26,.39,4.51,.59,6.76,1.97-11.4,4.3-16.41,10.98-21.41,2.5-1.88,5.13-3.63,7.86-5.15,9.46-5.27,12.87-14.13,14.64-24.27,1.21-1.13,2.56-2.39,3.82-3.57v-23.18c-7.34-6.7-3.66-13.33-1.51-20.14,3.65-2.84,7.3-6.18,13.5-3.58-3.11,5.89-8.39,8.95-11.99,13.53v10.18c4.22,2.48,8.98,4.67,10.61,9.1-.97,3.05-1.37,5.91-2.75,8.17-1.39,2.27-3.75,3.94-5.69,5.88,6.96-.13,9.28-5.99,13.26-8.76v-10.97c-2.44-4.19-8.07-5.67-6.54-11,4.12-3.1,7.97-5.99,13.4-10.07,0,12.1,0,22.57,1.08,33.04,1.28-4.5,2.56-9,3.87-13.59,2.55,2.29,4.46,4.01,6.14,5.52v7.92c-5.56,5.56-11.55,11.54-17.63,17.63,.88,2-2.3,5.64,2.08,6.96v-5.81c3.57-2.16,5.58-6.05,9.98-7.99,3.33-1.46,5.87-4.69,8.26-7.36,.15,.55,.32,1.11,.54,1.67,1.22-3.48,2.43-6.97,3.94-11.28l.78-.52c-.26,.43-.56,.86-.91,1.27-1.19,1.45,.06,4.91,.2,7.46,2.29-3.01,3.34-5.94,3.91-8.97,.13-.69,.23-1.39,.33-2.09,1.06-.7,2.12-1.4,3.09-2.03,1.03-2.94,3.59-6.07,2.3-7.54-1.09-1.24-1.26-2.52-1.38-3.75,2.37-.45,4.51-.85,6.57-1.24,4.86,3.25,.91,8.58,3.97,13.49,1.87-4.39,3.38-7.93,4.96-11.65l-.63-.82c.61-3.67,.11-7.39,.31-11.07-3.92-3.92-7.71-7.7-11.69-11.68,4.87-3.59,1.82-7.85,2.68-11.04-1.68-2.3-2.89-3.95-3.73-5.09,2.07-3.56,3.88-6.67,5.75-9.89-1.4-1.93-2.87-3.95-4.67-6.42,1.06-2.68,1.26-5.39,.75-8.71,.35-.7,.7-1.42,1.05-2.13,.3,.07,.59,.15,.89,.22v-10.21c-3.34-.13-1.89-1.95-2.33-3.06-.71-.28-1.32-.65-1.92-1.01l.7-.5c.52,.43,1.04,.86,1.55,1.28-.15,.1-.29,.2-.33,.22,3.44,.05,2,1.87,2.33,3.06,5.49,1.58,6.87,5.13,6.31,8.51-.23,1.39-.89,3.64-2.07,4.75-5.02,4.73-.72,7.98,2.88,11.32,1.94,1.81,4.53,3.27,6.26,4.49,0,1,.1,1.29-.02,1.52-.46,.91-1.01,1.79-1.5,2.69-4.12,7.58-3.89,10.06,1.96,16.49,2.06,2.26,4.49,4.36,6.48,6.27-7.39,9.89,5.29,13.2,10.91,18.93v10.29c-3.99,3.3-7.71,6.38-11.14,9.22,0,2.3-.08,4.12,.02,5.93,.09,1.59,.39,3.17,.59,4.76,1.97-8.03,4.3-11.56,10.98-15.09,2.5-1.32,5.13-2.56,7.86-3.63,9.46-3.71,12.87-9.95,14.64-17.1,1.21-.8,2.56-1.68,3.82-2.51v-16.33c-7.34-4.72-3.66-9.39-1.51-14.19,3.65-2,7.3-4.35,13.5-2.52-3.11,4.15-8.39,6.3-11.99,9.54v7.17c4.22,1.75,8.98,3.29,10.61,6.41-.97,2.15-1.37,4.17-2.75,5.76-1.39,1.6-3.75,2.78-5.69,4.14,6.96-.09,9.28-4.22,13.26-6.17v-7.73c-2.44-2.95-8.07-4-6.54-7.75,4.12-2.18,7.97-4.22,13.4-7.1,0,8.53,0,15.9,1.08,23.28,1.28-3.17,2.56-6.34,3.87-9.57,.31,.2,.61,.39,.91,.57-.36,1.49-.91,2.98-1.71,4.48-.76,1.4-.11,3.56-.11,5.02l2.56,2.56c-4.24,2.99-8.66,6.1-13.13,9.25,.88,1.41-2.3,3.97,2.08,4.91v-4.09c3.57-1.52,5.58-4.26,9.98-5.63,1.21-.37,2.3-.92,3.33-1.54-.91,5.29-1.89,11.01-2.86,16.69,1.52,1.48,2.65,3.13,4.22,3.99,4.65,2.57,4.55,7.89,6.79,11.78,1.34,2.32,.4,5.82-1.4,9.13-1.48,2.73-1.26,7.33,1.61,11.26,4.57,6.25,2.88,12.66-2.56,18.06-5.81,5.77-6.67,12.83-4.59,20.65,1.22-4.94,2.43-9.89,3.94-16.01,2.07-1.93,5.04-4.71,7.41-6.92,1.03-4.17,3.59-8.62,2.3-10.7-2.16-3.51-.71-7.21-2.37-10.24-1.91-3.49,1.45-6.16,.7-9.57-.77-3.47-.17-7.23-.17-10.7,3.56,3.56,6.85,6.85,10.78,10.78,.62,2.4,1.57,6.12,2.54,9.9q-2.36,4.67-1.28,14.53c4.92-8.4,3.27-17.32,3.61-26.06-3.92-5.56-7.71-10.93-11.69-16.58,4.87-5.09,1.82-11.14,2.68-15.67-1.68-3.26-2.89-5.6-3.73-7.23,2.07-5.05,3.88-9.47,5.75-14.04-.82-1.59-1.66-3.24-2.57-5.02,1.83-.24,3.54-.47,5.2-.69,4.86,2.29,.91,6.04,3.97,9.5,.79-1.31,1.52-2.51,2.21-3.66,.94,.89,1.85,1.7,2.6,2.45,0,1.42,.1,1.83-.02,2.16-.46,1.29-1.01,2.54-1.5,3.82-4.12,10.76-3.89,14.27,1.96,23.4,2.06,3.21,4.49,6.19,6.48,8.89-7.39,14.04,5.29,18.74,10.91,26.86v14.61c-3.99,4.69-7.71,9.05-11.14,13.08,0,3.27-.08,5.84,.02,8.41,.09,2.26,.39,4.51,.59,6.76,1.97-11.4,4.3-16.41,10.98-21.41,2.5-1.88,5.13-3.63,7.86-5.15,9.46-5.27,12.87-14.13,14.64-24.27,1.21-1.13,2.56-2.39,3.82-3.57v-23.18c-7.34-6.7-3.66-13.33-1.51-20.14,3.65-2.84,7.3-6.18,13.5-3.58-3.11,5.89-8.39,8.95-11.99,13.53v10.18c4.22,2.48,8.98,4.67,10.61,9.1-.97,3.05-1.37,5.91-2.75,8.17-1.39,2.27-3.75,3.94-5.69,5.88,6.96-.13,9.28-5.99,13.26-8.76v-10.97c-2.44-4.19-8.07-5.67-6.54-11,4.12-3.1,7.97-5.99,13.4-10.07,0,12.1,0,22.57,1.08,33.04,1.28-4.5,2.56-9,3.87-13.59,2.55,2.29,4.46,4.01,6.14,5.52v7.92c-5.56,5.56-11.55,11.54-17.63,17.63,.88,2-2.3,5.64,2.08,6.96v-5.81c3.57-2.16,5.58-6.05,9.98-7.99,4.12-1.81,7.04-6.33,9.95-9.13v-13.94c-2.31-3.42-4.46-6.61-7.03-10.42,.91-1.89,1.96-4.06,2.97-6.16,6.13,2.17,6.22,7.99,8.15,12.13,1.45,3.12,1.68,7.56-1.42,11.32-1.19,1.45,.06,4.91,.2,7.46,2.29-3.01,3.34-5.94,3.91-8.97,.63-3.34,.81-6.77,1.24-10.68-.28-.73-.86-2.22-1.49-3.87,4.32-.81,7.85-1.48,11.16-2.1,4.86,3.25,.91,8.58,3.97,13.49,1.87-4.39,3.38-7.93,4.96-11.65-2.56-3.31-5.12-6.62-7.5-9.71ZM27.91,466.17c-.34-.61-.95-1.21-.96-1.82-.09-3.71,.44-7.51-.19-11.12-.57-3.32-2.25-6.47-3.6-9.62-1.09-2.53-.33-4.37,.71-6.92,4.08-10.05,3.79-10.17-1.53-21.66,3.78-4.62,2.43-10.28,2.18-15.56-.23-4.86-1.75-9.66-.87-13.52,1.68-2.38,3.37-4.76,5.91-8.36-.15-.36-.15-2.42-.15-4.92q2.07,3.7,0,6.27c-2.94,10.99-2.92,11.1,4.73,20.75-1.66,3.7-3.48,7.76-5.46,12.15,1.67,3.39,3.34,6.78,5.29,10.73-1.33,2.83-2.79,5.94-4.99,10.64-1.34,6.02,2.08,12.07,7.49,17.19-2.29,5.71-4.33,10.77-6.38,15.87-.73-.04-1.46-.07-2.19-.11Zm4.3,10.21c1.88,2.9,3.24,5,4.97,7.67-1.68,2.93-4.09,7.12-6.91,12.04-3.19-7.43,.97-12.7,1.94-19.72Zm3.13,41.83c-1.37-1.38-3.27-3.28-5.91-5.94,1.3-3.06,2.89-6.81,4.7-11.06,4.39,6.4,5.83,12.11,1.21,16.99ZM345.14,232.49c.46-.03,.92-.06,1.38-.1,.18,2.71,.36,5.42,.55,8.13-.64,.04-1.29,.07-1.93,.11v-8.15Zm1.11,61.84c1.34,2.11,2.4,3.78,3.45,5.43-3.5,3.11-4.8,.38-6.49-1.28v-1.28c.83-.78,1.73-1.64,3.04-2.87Zm-13.58,98.15h-8.18c.43-1.76,.77-3.11,1.38-5.6,2.49,2.05,4.03,3.32,6.8,5.6Zm-26.14,35.12v7.11c-1.64,.12-3.62,.26-5.24,.38-2.37-2.55-2.08-2.97,5.24-7.48Zm-13.06-43.11v.74h-2.23v-.74h2.23Zm-20.45,71.56c-.23,1.97-.89,5.17-2.07,6.74-2.45,3.28-2.67,6.06-1.84,8.6h-4.91c-.82-.81-1.53-1.63-2.15-2.45,.97-2.8,2.36-6.78,3.76-10.79,.3,.1,.59,.21,.89,.31v-14.5c-1.26-.07-1.83-.48-2.09-1.05,.79-.68,1.46-1.33,2.04-1.97,.21,.9-.13,2.09,.05,3.02,5.49,2.24,6.87,7.28,6.31,12.08Zm-49.21-60.02h-8.18c.43-1.24,.77-2.19,1.38-3.94,2.49,1.45,4.03,2.34,6.8,3.94Zm-26.14,24.74v5.01c-1.64,.08-3.62,.18-5.24,.27-2.37-1.79-2.08-2.09,5.24-5.27Zm-4.19-55.66c.64-.03,1.27-.06,1.91-.09v2.61l-1.1,.1c-.27-.88-.54-1.75-.81-2.63Zm-8.86,25.29v.52h-2.23v-.52h2.23Zm-73.91,2.08h-8.18c.43-1.76,.77-3.11,1.38-5.6,2.49,2.05,4.03,3.32,6.8,5.6Zm-26.14,35.12v7.11c-1.64,.12-3.62,.26-5.24,.38-2.37-2.55-2.08-2.97,5.24-7.48Zm-13.06-43.11v.74h-2.23v-.74h2.23Zm186.92,65.91c-.1,.25-.2,.49-.3,.73,.02-.31,.05-.62,.11-.92,.06,.06,.12,.12,.19,.18Zm-5.45-53.76c-2.2-2.35-6.08-3.03-5.96-6,1.19-.08,2.16-.13,2.95-.11,.5,1.55,1.48,3.11,3.08,5.24-.02,.28-.04,.56-.07,.86Zm-5.44,14.27c1.29-1.31,2.86-2.35,4.65-2.49-.5,1.12-1.01,2.26-1.54,3.43,.4,.81,.79,1.61,1.19,2.42-1.26-.98-2.77-2.16-4.3-3.36Zm15.01-23.94c-.13-.08-.25-.16-.38-.24,1.22-2.62,2.45-5.27,3.9-8.36,3.99,6.02,4.07,6.18-3.51,8.61Zm-122.68,6.37c-.69-1.05-1.56-1.87-2.41-2.63,.79-.78,1.6-1.59,2.52-2.51,.08,1.26,.02,2.93-.11,5.14Zm-4.29,18.79c1.77-1.94,3.95-2.92,6.41-1.21,1.37,2.73,2.27,4.54,3.76,7.51-1.39,.59-3.11,1.32-5.04,2.14-.32-.35-.69-.76-1.1-1.22-.4-1.73-1.73-3.71-4.04-7.22Zm7.62,35.88c-.48-.02-.95-.03-1.43-.05,.53-.5,1.12-.75,1.99-.93-.19,.33-.37,.65-.56,.98Zm-11.81-85.84c-.25,.49-.49,.97-.73,1.46-1.03-.53-1.9-1.01-2.65-1.46h3.39Zm-6.31,15.94c-1.51,1.51-2.29,2.29-3.47,3.47-1.91-2.68-5.52-4.04-5.57-8.83,4.89-.81,6.19,3.5,9.03,5.36Zm2.98,23.47h-.24v-.42c.08,.14,.17,.28,.24,.42Zm20.38,83.02c-.84-.59-1.88-1.33-3.17-2.24-.17-2.01-.24-4.04-.26-6.07,.7-1.15,1.43-2.37,2.21-3.67,4.39,4.51,5.83,8.53,1.21,11.97Zm83.29-122.43c-.14,.19-.29,.38-.41,.54-.35-.18-.69-.36-1.04-.54h1.45Zm1.67,20.55v4.57c-1.9-1.32-4.21-2.47-4.24-5.16,1.83-.21,3.15,.08,4.24,.59Zm6.42-13.57c.21,1.66,.06,3.23-.39,4.72-2.22-1.28-1.86-2.42,.39-4.72Zm14.35,107.22c1.46,2.26,2.61,4.03,3.87,5.97,.39,.75,.64,1.59,.67,2.46-1.35,2.35-3.09,5.39-5.11,8.9v-8.81c-.43-.45-.84-.88-1.26-1.32,.69-2.29,1.47-4.63,1.83-7.2Zm89.03-136.88l.04,.04-.04,.07v-.11ZM40.01,387.16c1.29-2.76,2.58-5.53,4.1-8.79q4.1,6.18-4.1,8.79Zm15.23,45.53c1.71-3.51,3.64-7.45,6.05-12.4,3.24,2.69,5.65,4.69,8.05,6.69-4.81,4.99-.54,11.35-3.64,18.24-3.71-4.44-6.73-8.06-10.47-12.53Zm4.8,36.7c1.29-2.81,2.29-4.99,3.43-7.48,4.39,3.4,8.71,6.75,13.06,10.12-1.63,3.1-2.87,5.46-4.42,8.41-5.05-3.22-8.16-7.69-12.07-11.05Zm10.61,23.03c.71,1.84,1.32,3.44,2.37,6.19-.75,1.7-2.34,5.34-4.19,9.57-5.28-5.48-5.1-5.75,1.82-15.76Zm-1.32,16.6c3.07,.22,1.88,2.53,2.19,4.09-3.1-.18-2.08-2.42-2.19-4.09Zm2.22,27.92c.22-5.22-.66-10.05,1.89-14.97,1.07-2.06-1.18-5.86-1.93-8.87,2.25,1.75,4.5,3.49,7.19,5.57-.92,4.09-2.43,8.12-2.55,12.19-.1,3.58,1.2,7.2,1.96,10.81-2.34-1.47-4.5-3.13-6.56-4.73Zm6.65,5.13v.03c.81,.28,1.42,.8,2.03,1.32-.23,.23-.47,.47-.7,.7-.52-.61-1.04-1.22-1.55-1.82l.23-.23Zm13.24-7.72c1.12,11.8-1.56,21.45-12.81,27.5,1.84-5.81,3.68-11.61,5.91-18.68-1.04-4.52-6.29-9.65-2.17-16.97,1.74-3.09,.29-7.96,.29-11.99-1.35-1.35-2.65-2.65-4.45-4.45-.93-6.99,6.38-15.45-2.19-22.06,1.92-3.01,3.76-5.91,6.41-10.07v-8.67h7.31c-3.74,8.42-4.33,16.48,2.03,23.22-8.2,23.68-10.27,22.3-.33,42.15Zm8.07,1.46c-1.72-6.24-3.25-11.78-4.9-17.76,.37-.08,1.58-.33,2.99-.63,.75,6.15,4.91,11.35,1.91,18.39Zm5.88-56.54l-.12-1.13c1.95-.28,3.9-.56,5.84-.84l.2,1.98h-5.92Zm3.77-22.46c-.91,.17-2.02,.15-2.88,.6-.94,.49-1.64,1.41-2.25,1.97-2.43-1.42-4.82-2.83-6.98-4.09-4.03-7.53,3.51-11.76,3.81-17.8h12.98c-.77,3.55-1.42,6.82-2.2,10.05-.72,3-1.59,5.97-2.49,9.27Zm10.33,13.49c-1.84-.95-3.69-1.9-5.72-2.94,1.16-.99,2.27-1.93,3.36-2.85,1.59,.76,3.4,1.61,6.67,3.16-2.18,.28-3.75,.47-5.32,.67,.34,.65,.68,1.3,1.01,1.95Zm6.29-17.61c.85-4.37,1.26-8.92,4.37-13.62,.82,1.7,1.74,3.45,1.94,5.19-1.73,3.34-4.52,5.64-6.32,8.43Zm7.44,20.28h-.74v-2.23h.74v2.23Zm10.73,48.5c-1.44,1.01-2.58,2.08-3.44,3.19v-6.03c-2.31-3.42-4.46-6.61-7.03-10.42,.91-1.89,1.96-4.06,2.97-6.16,6.13,2.17,6.22,7.99,8.15,12.13,.81,1.73,1.23,3.87,.92,6.08-.48,.41-1,.82-1.57,1.22Zm4.18-4.17c.12-1.29,.24-2.6,.4-3.99-.28-.73-.86-2.22-1.49-3.87l.1-.02c2.38,2.66,2.52,5.35,.99,7.88Zm13.81-18.87c.62,1.69,1.57,4.31,2.54,6.98l-.13,.18c-1.61-2.09-3.21-4.15-4.72-6.11h-8.23c.05-.35,.04-.72-.08-1.09-.77-2.44-.17-5.1-.17-7.54,3.56,2.51,6.85,4.82,10.78,7.6Zm-11.65-37.87c-.98,1.2-2.21,2.72-3.62,4.45,.65-1.13,1.44-2.16,2.32-3.09,.45-.48,.87-.94,1.27-1.4l.04,.04Zm2.85-68.27l.03-.08c1.27-1.92,2.54-3.84,4.04-6.11q4.09,4.35-4.07,6.19Zm15.2,32.08c1.71-2.47,3.64-5.25,6.05-8.74,3.24,1.9,5.65,3.3,8.05,4.71-4.81,3.52-.54,7.99-3.64,12.85-3.71-3.13-6.73-5.68-10.47-8.83Zm4.8,25.86c1.29-1.98,2.29-3.52,3.43-5.27,4.39,2.39,8.71,4.75,13.06,7.13-1.63,2.18-2.87,3.85-4.42,5.92-5.05-2.27-8.16-5.42-12.07-7.78Zm10.61,16.23c.71,1.3,1.32,2.42,2.37,4.36-.75,1.2-2.34,3.76-4.19,6.74-5.28-3.86-5.1-4.05,1.82-11.1Zm-1.32,11.69c3.07,.15,1.88,1.78,2.19,2.88-3.1-.12-2.08-1.7-2.19-2.88Zm2.22,19.67c.22-3.68-.66-7.08,1.89-10.55,1.07-1.45-1.18-4.13-1.93-6.25,2.25,1.23,4.5,2.46,7.19,3.92-.92,2.88-2.43,5.72-2.55,8.59-.1,2.52,1.2,5.07,1.96,7.61-2.34-1.03-4.5-2.21-6.56-3.34Zm6.65,3.62v.02c.81,.2,1.42,.57,2.03,.93-.23,.17-.47,.33-.7,.5-.52-.43-1.04-.86-1.55-1.28l.23-.16Zm13.24-5.44c1.12,8.31-1.56,15.11-12.81,19.38,1.84-4.09,3.68-8.18,5.91-13.16-1.04-3.18-6.29-6.8-2.17-11.95,1.74-2.17,.29-5.61,.29-8.45-1.35-.95-2.65-1.87-4.45-3.13-.93-4.93,6.38-10.89-2.19-15.54,1.92-2.12,3.76-4.17,6.41-7.09v-6.11h7.31c-3.74,5.94-4.33,11.61,2.03,16.36-8.2,16.68-10.27,15.71-.33,29.7Zm8.07,1.03c-1.72-4.4-3.25-8.3-4.9-12.52,.37-.06,1.58-.23,2.99-.44,.75,4.33,4.91,8,1.91,12.96Zm5.88-39.84l-.12-.8c1.95-.2,3.9-.4,5.84-.59l.2,1.39h-5.92Zm3.77-15.83c-.91,.12-2.02,.1-2.88,.42-.94,.34-1.64,1-2.25,1.39-2.43-1-4.82-1.99-6.98-2.88-4.03-5.3,3.51-8.29,3.81-12.54h12.98c-.77,2.5-1.42,4.8-2.2,7.08-.72,2.11-1.59,4.2-2.49,6.53Zm10.33,9.5c-1.84-.67-3.69-1.34-5.72-2.07,1.16-.69,2.27-1.36,3.36-2.01,1.59,.53,3.4,1.14,6.67,2.23-2.18,.19-3.75,.33-5.32,.47,.34,.46,.68,.92,1.01,1.38Zm20.02,44.59c-.13,.22-.25,.43-.38,.66-.04-.1-.07-.19-.11-.28,.16-.13,.32-.25,.48-.37Zm4.69,22.77c-1.37-1.38-3.27-3.28-5.91-5.94,1.3-3.06,2.89-6.81,4.7-11.06,4.39,6.4,5.84,12.11,1.21,16.99Zm19.89-85.52c1.71-3.51,3.64-7.45,6.05-12.4,3.24,2.69,5.65,4.69,8.05,6.69-4.81,4.99-.54,11.35-3.64,18.24-3.71-4.44-6.73-8.06-10.47-12.53Zm4.8,36.7c1.29-2.81,2.29-4.99,3.43-7.48,4.39,3.4,8.71,6.75,13.06,10.12-1.63,3.1-2.87,5.46-4.41,8.41-5.05-3.22-8.16-7.69-12.07-11.05Zm10.61,23.03c.71,1.84,1.32,3.44,2.37,6.19-.75,1.7-2.34,5.34-4.19,9.57-5.28-5.48-5.1-5.75,1.82-15.76Zm-1.32,16.6c3.07,.22,1.88,2.53,2.19,4.09-3.1-.18-2.08-2.42-2.19-4.09Zm2.22,27.92c.22-5.22-.66-10.05,1.89-14.97,1.07-2.06-1.18-5.86-1.93-8.87,2.25,1.75,4.5,3.49,7.19,5.57-.91,4.09-2.43,8.12-2.55,12.19-.1,3.58,1.2,7.2,1.96,10.81-2.34-1.47-4.5-3.13-6.56-4.73Zm6.65,5.13v.03c.81,.28,1.42,.8,2.03,1.32l-.7,.7c-.52-.61-1.04-1.22-1.55-1.82l.23-.23Zm13.24-7.72c1.12,11.8-1.56,21.45-12.81,27.5,1.84-5.81,3.68-11.61,5.91-18.68-1.04-4.52-6.29-9.65-2.17-16.97,1.74-3.09,.29-7.96,.29-11.99-1.35-1.35-2.65-2.65-4.45-4.45-.93-6.99,6.38-15.45-2.19-22.06,1.92-3.01,3.76-5.91,6.41-10.07v-8.67h7.31c-3.74,8.42-4.33,16.48,2.03,23.22-8.2,23.68-10.27,22.3-.33,42.15Zm8.07,1.46c-1.72-6.24-3.25-11.78-4.9-17.76,.37-.08,1.58-.33,2.99-.63,.75,6.15,4.91,11.35,1.91,18.39Zm5.88-56.54l-.12-1.13c1.95-.28,3.9-.56,5.84-.84l.2,1.98h-5.92Zm3.76-22.46c-.91,.17-2.02,.15-2.88,.6-.94,.49-1.64,1.41-2.25,1.97-2.43-1.42-4.82-2.83-6.98-4.09-4.03-7.53,3.51-11.76,3.81-17.8h12.98c-.77,3.55-1.42,6.82-2.2,10.05-.72,3-1.59,5.97-2.49,9.27Zm10.33,13.49c-1.84-.95-3.69-1.9-5.72-2.94,1.16-.99,2.27-1.93,3.36-2.85,1.59,.76,3.4,1.61,6.67,3.16-2.18,.28-3.75,.47-5.32,.67,.34,.65,.68,1.3,1.01,1.95Zm2.14-88.71c-1.91-2.68-5.52-4.04-5.57-8.83,4.89-.81,6.19,3.5,9.03,5.36-1.51,1.51-2.29,2.29-3.47,3.47Zm5.45-27.76c1.36-1.91,2.68-3.85,4.44-6.39,1.65,1.35,3.24,2.65,5.18,4.24-2.34,4.65-4.19,8.3-6.03,11.96-6.76-3.47-7.2-4.71-3.59-9.8Zm1.87,43.3v4.46h-1.12v-4.46h1.12Zm4.27,75.83h-.74v-2.23h.74v2.23Zm-7.44-20.28c1.09-5.59,1.43-11.48,7.68-17.59,1.35,9.53-4.62,12.84-7.68,17.59Zm14.09-59.34c-2.2-3.34-6.08-4.29-5.96-8.51,5.97-.58,6.48-.02,5.96,8.51Zm-5.44,20.25c1.94-2.82,4.54-4.77,7.56-2.68,1.37,2.73,2.27,4.54,3.76,7.51-1.39,.59-3.11,1.32-5.04,2.14-1.4-1.55-3.81-4.23-6.29-6.97Zm4.79,39.01c2.14-4.86,2.48-5.27,5.45-5.74-2.44,1.19-.26,7.48-5.45,5.74Z"/></svg>