<?xml version="1.0" encoding="UTF-8" standalone="no"?>
<!-- Generator: Adobe Illustrator 27.2.0, SVG Export Plug-In . SVG Version: 6.00 Build 0)  -->

<svg
   xmlns:dc="http://purl.org/dc/elements/1.1/"
   xmlns:cc="http://creativecommons.org/ns#"
   xmlns:rdf="http://www.w3.org/1999/02/22-rdf-syntax-ns#"
   xmlns:svg="http://www.w3.org/2000/svg"
   xmlns="http://www.w3.org/2000/svg"
   xmlns:sodipodi="http://sodipodi.sourceforge.net/DTD/sodipodi-0.dtd"
   xmlns:inkscape="http://www.inkscape.org/namespaces/inkscape"
   version="1.1"
   id="Layer_1"
   x="0px"
   y="0px"
   viewBox="0 0 400 600"
   style="enable-background:new 0 0 400 600;"
   xml:space="preserve"
   sodipodi:docname="female4.svg"
   inkscape:version="0.92.5 (2060ec1f9f, 2020-04-08)"><metadata
   id="metadata33"><rdf:RDF><cc:Work
       rdf:about=""><dc:format>image/svg+xml</dc:format><dc:type
         rdf:resource="http://purl.org/dc/dcmitype/StillImage" /></cc:Work></rdf:RDF></metadata><defs
   id="defs31" /><sodipodi:namedview
   pagecolor="#ffffff"
   bordercolor="#666666"
   borderopacity="1"
   objecttolerance="10"
   gridtolerance="10"
   guidetolerance="10"
   inkscape:pageopacity="0"
   inkscape:pageshadow="2"
   inkscape:window-width="756"
   inkscape:window-height="480"
   id="namedview29"
   showgrid="false"
   inkscape:zoom="0.39333333"
   inkscape:cx="200"
   inkscape:cy="300"
   inkscape:window-x="0"
   inkscape:window-y="28"
   inkscape:window-maximized="0"
   inkscape:current-layer="Layer_1" />
<g
   id="Layer_2_00000169539075583753106510000016229512370500165015_"
   transform="translate(8)">
	<path
      fill="$[hairColor]"
   d="m 50.5,207.2 c 1.8,-8.5 3.4,-17 5,-25.5 l 0.8,0.1 c -0.3,1.9 -0.3,3.8 0.2,5.6 l 2.6,-3.9 c 2.3,-3.4 4.1,-7.5 7.1,-10.1 6.6,-5.6 13.4,-10.9 20.6,-15.7 15,-10.2 30.2,-20.1 45.4,-29.9 5.7,-3.7 11.7,-7 17.9,-9.8 24.6,-11 50.5,-10.7 76.6,-8.8 33.8,2.4 57.8,18.6 74.1,48.4 13.9,25.4 24.6,51.6 31.3,79.7 2.6,10.9 5.7,21.6 8.7,32.4 1.4,4.9 2.7,9.8 3.9,14.7 2.2,8.7 3.1,17.7 5.1,26.5 9.1,40.2 13.4,81.1 16.2,122.2 0.6,8.6 -1.5,15.6 -8.5,22.5 -1.6,-2.8 -3.4,-5.1 -4.4,-7.7 -8.4,-21.2 -16.6,-42.5 -25,-63.7 -0.5,-1.2 -2,-2.1 -3.1,-3.1 -0.4,1.3 -1.2,2.7 -1,3.9 3.2,24.3 6.6,48.5 9.8,72.8 0.3,2.1 0.3,4.1 0.5,7.7 -7.7,-5.3 -14.6,-9.2 -20.6,-14.4 -7.5,-6.6 -17.1,-10.5 -27.1,-11 -3.2,-0.2 -4.8,0.8 -6,3.8 -2.3,5.7 -4.4,11.8 -8.1,16.5 -3.7,4.7 -9.1,9.7 -14.7,11 -6.4,1.5 -21.2,10.9 -35.6,4.8 0,0 -2.2,-0.9 -4.3,-2.3 -16.2,-10.6 -19,-47.8 -23.1,-77.4 -4.8,-34.9 -13.2,-72.4 -10.4,-73.1 0.6,-0.1 1.9,1.1 2,1 0,-0.1 -1.2,-1.5 -2,-1 -0.7,0.5 -1.2,1.4 -1.4,2.3 -0.1,0.9 0.5,1.9 0.6,2.9 3.8,22.6 8.3,45.2 11.2,67.9 2.9,22.7 5.1,45.3 13.4,66.8 l -1.6,0.6 c -10.6,-0.9 -22.2,-1.3 -34.8,-1 -14.1,0.3 -27,1.5 -38.5,3.1 -3.1,-17.4 -4.8,-31.5 -5.7,-40.4 -4.1,-40.1 -6,-103.9 -7.5,-112 -0.1,-0.5 -0.6,-3.2 -0.8,-6.9 -0.1,-2.1 0,-3.9 0,-4.9 -0.3,1.4 -0.4,2.9 -0.4,4.4 2,17.3 4.7,34.6 5.9,52 1.5,22.4 1.7,44.9 2.8,67.4 0.4,9.3 1.4,18.5 2.2,27.7 -16.7,-0.2 -33.4,-0.4 -50,-0.6 -1.9,-5.3 -3.6,-11.2 -4.9,-17.7 -4.5,-23.3 -1.2,-43.5 2.4,-56.9 -1.6,3.8 -2,5 -2,5 -0.4,1.1 -0.7,2.3 -1,3.4 -4.2,16.2 -2.7,32.5 0.6,48.5 2.7,13.5 6.3,26.8 9.5,40.4 -0.6,-0.5 -1.2,-1 -1.8,-1.6 C 69.9,459 59.1,443.1 53,424.4 43,393.5 37.7,361.2 37.2,328.7 36.4,288 41.9,247.4 50.5,207.2 Z"
   id="path17"
   inkscape:connector-curvature="0"
   style="stroke:#000000;stroke-width:4;stroke-miterlimit:10" />
	<path
      fill="$[hairColor]"
   d="M 366.2,433.2 C 363.3,392.1 359,351.2 350,311 c -2,-8.8 -2.9,-17.8 -5.1,-26.5 -1.2,-4.9 -2.6,-9.8 -3.9,-14.7 l 0.9,-0.2 c 0.5,2 1.2,4 2.1,5.9 0.1,-2.4 0.3,-4.7 0.4,-6.1 6,30.9 13,62.4 17.9,94.3 3.8,24.8 5,50 7.5,75.1 0.7,7.6 -3.7,13 -7.9,18.3 -2.7,3.3 -6.4,1.5 -8.6,-1.3 -1.7,-2.5 -3.1,-5.2 -4,-8 -3.3,-10.3 -8.3,-25.1 -17,-44.9 -1,-2.2 -2.6,-5.9 -5,-10.6 6.7,43 10.4,66.1 10.4,66.1 v 0 c 0,0 -0.3,2.7 -1,8.1 l -2.1,-0.7 c -0.2,-3.5 -0.3,-5.6 -0.5,-7.7 -3.3,-24.2 -6.6,-48.5 -9.8,-72.8 -0.2,-1.2 0.7,-2.6 1,-3.9 1,1 2.6,1.9 3.1,3.1 8.4,21.2 16.6,42.5 25,63.7 1,2.6 2.8,4.9 4.4,7.7 6.9,-7.1 9,-14.1 8.4,-22.7 z"
   id="path19"
   inkscape:connector-curvature="0"
   style="stroke:#000000;stroke-width:4;stroke-miterlimit:10" />
	<path
      fill="$[hairColor]"
   d="m 212.1,473.9 c -0.6,-1.2 -0.5,-2.6 -1.7,-3.2 -1.3,-0.7 -3.8,-0.3 -6.8,0.2 -0.6,0.1 -1.3,0 -2.2,-1 l 8.1,-2.6 c 0,-0.9 -0.1,-1.9 -0.3,-2.8 -0.1,-0.3 -0.3,-0.7 -0.4,-1 -8.3,-21.5 -10.5,-44.2 -13.4,-66.8 -2.9,-22.6 -7.4,-45.3 -11.2,-67.9 -0.2,-1 -0.7,-2 -0.6,-2.9 0.1,-1.1 0.9,-2.4 1.4,-2.3 2,0.2 1.8,7.7 1.5,5.7 v 0 c 0,0 8.1,39.9 12.6,83.4 2.1,20.3 4.4,51.6 19.4,61.4 2.1,1.3 4.3,2.3 4.3,2.3 11.9,-1.3 24,-1.9 35.6,-4.8 5.5,-1.4 10.8,-6.4 14.7,-11 3.9,-4.6 5.8,-10.8 8.1,-16.5 1.2,-3 2.8,-4 6,-3.8 10,0.5 19.6,4.4 27.1,11 6,5.2 12.9,9.1 20.6,14.4 l 2.1,0.7 c -0.2,0.7 -0.3,1.5 -0.4,2.2 -1.6,-1.2 -3.9,-3 -6.8,-5.2 -8.7,-6.7 -13.7,-10.8 -15.5,-12.1 -5.2,-4 -14,-8.7 -29.4,-10.9 -3.6,9.7 -8.5,16.3 -11.8,20.2 -2.4,2.8 -5.3,6 -10.1,9 -4.1,2.5 -7.9,3.6 -15.4,5.6 -9.8,2.6 -15.1,4 -22.3,3.6 -3.9,-0.3 -11.4,-0.8 -13.2,-4.9 z"
   id="path21"
   inkscape:connector-curvature="0"
   style="stroke:#000000;stroke-width:4;stroke-miterlimit:10" />
	<path
      fill="$[hairColor]"
   d="m 56.6,187.4 c -0.5,-1.8 -0.5,-3.8 -0.2,-5.6 0.6,-2.8 2.1,-5.4 4.3,-7.2 7.6,-6.9 15.6,-13.4 24,-19.4 14.7,-10.3 30.1,-19.7 44.8,-30 17,-11.9 36.1,-17.4 56.3,-20.1 3.8,-0.5 7.6,-0.8 11.4,-1.1 h 4 c 9.6,0.7 19.3,1.2 28.9,2 31.1,2.7 54,17.4 70.2,44.7 21.3,35.9 32.9,74.8 40.7,115.2 0.2,1.2 0.5,2.4 0.8,3.6 l -0.9,0.2 c -3,-10.8 -6.1,-21.5 -8.7,-32.4 -6.7,-28.1 -17.4,-54.3 -31.3,-79.7 -16.3,-29.8 -40.3,-46 -74.1,-48.4 -26.1,-1.8 -52.1,-2.1 -76.6,8.9 -6.2,2.8 -12.2,6.1 -17.9,9.8 -15.3,9.8 -30.4,19.7 -45.4,29.9 -7.2,4.8 -14,10 -20.6,15.7 -3,2.6 -4.8,6.7 -7.1,10.1 z"
   id="path23"
   inkscape:connector-curvature="0"
   style="stroke:#000000;stroke-width:4;stroke-miterlimit:10" />
	<path
      fill="$[hairColor]"
   d="m 46.8,214.3 c 2.9,-12.1 5.7,-24.2 9.5,-36.2 -0.2,1.2 -0.5,2.4 -0.7,3.6 -1.6,8.5 -3.2,17.1 -5,25.5 -14.9,69.5 -13.3,121.9 -13.3,121.9 0.2,24.9 0.6,64.1 14.3,97.2 12.1,29.2 31.7,52.8 31.7,52.8 1.7,2 3.1,3.7 4.1,4.8 -6.9,-19.3 -10.3,-35.9 -12.2,-48.4 0,0 -3.2,-21.1 -0.6,-48.5 0.2,-2 0.8,-3.8 0.8,-3.9 0.2,-0.5 0.7,-2 2.2,-4.5 0.9,-1.5 2.3,-3.5 4.4,-5.7 -3.5,8.3 -8.3,23 -8.2,41.9 0.2,18.8 5.3,33.3 8.9,41.5 15.9,-0.8 31.8,-1.7 47.7,-2.5 -0.8,-9.2 -1.8,-18.4 -2.2,-27.7 -1,-22.5 -1.2,-45 -2.8,-67.4 -1.2,-17.4 -4,-34.7 -5.9,-52 0,-1.5 0.1,-2.9 0.4,-4.4 4,23.7 5.2,43 5.5,56.4 0.2,6.4 1,43.3 2.8,67.4 0.2,2.9 0.7,8.7 2.2,16.2 1.9,9.5 4.5,17.1 6.5,22.1 11.6,0.5 23.6,0.8 36.1,0.7 11.8,0 23.2,-0.3 34.2,-0.7 l 0.2,1.4 c -1.2,0.4 -2.5,0.6 -3.8,0.8 -20.8,0.7 -41.6,1.2 -62.4,2 -2.9,0.1 -5.2,-0.2 -6.8,-1.6 -1,-0.8 -1.4,-2.1 -2.2,-4.6 -2.3,-6.6 -2.4,-6.9 -2.5,-7.1 0,0 0,0 0,0 -0.5,-1.1 -42.4,-7.4 -45.6,4.1 -0.4,1.4 -0.1,2.8 0.1,3.5 1.5,7.3 3.7,15.2 7,23.4 0.7,1.7 1.3,3.3 2,4.8 -2,-1.1 -4.5,-1.7 -5.9,-3.3 C 81,480.5 74.7,473.1 68.9,465.4 50.9,442 43.2,414.5 38.4,386 28.6,328 33.2,270.9 46.8,214.3 Z"
   id="path25"
   inkscape:connector-curvature="0"
   style="stroke:#000000;stroke-width:4;stroke-miterlimit:10" />
</g>
</svg>