<?xml version="1.0" encoding="UTF-8" standalone="no"?>
<!-- Generator: Adobe Illustrator 23.0.5, SVG Export Plug-In . SVG Version: 6.00 Build 0)  -->

<svg
   xmlns:dc="http://purl.org/dc/elements/1.1/"
   xmlns:cc="http://creativecommons.org/ns#"
   xmlns:rdf="http://www.w3.org/1999/02/22-rdf-syntax-ns#"
   xmlns:svg="http://www.w3.org/2000/svg"
   xmlns="http://www.w3.org/2000/svg"
   xmlns:sodipodi="http://sodipodi.sourceforge.net/DTD/sodipodi-0.dtd"
   xmlns:inkscape="http://www.inkscape.org/namespaces/inkscape"
   version="1.1"
   id="Capa_1"
   x="0px"
   y="0px"
   viewBox="0 0 400 600"
   style="enable-background:new 0 0 400 600;"
   xml:space="preserve"
   sodipodi:docname="female2.svg"
   inkscape:version="0.92.5 (2060ec1f9f, 2020-04-08)"><metadata
   id="metadata39"><rdf:RDF><cc:Work
       rdf:about=""><dc:format>image/svg+xml</dc:format><dc:type
         rdf:resource="http://purl.org/dc/dcmitype/StillImage" /></cc:Work></rdf:RDF></metadata><defs
   id="defs37" /><sodipodi:namedview
   pagecolor="#ffffff"
   bordercolor="#666666"
   borderopacity="1"
   objecttolerance="10"
   gridtolerance="10"
   guidetolerance="10"
   inkscape:pageopacity="0"
   inkscape:pageshadow="2"
   inkscape:window-width="1920"
   inkscape:window-height="997"
   id="namedview35"
   showgrid="false"
   inkscape:zoom="0.90509668"
   inkscape:cx="617.38024"
   inkscape:cy="236.06192"
   inkscape:window-x="0"
   inkscape:window-y="28"
   inkscape:window-maximized="1"
   inkscape:current-layer="Capa_1" />
<style
   type="text/css"
   id="style2">
	.st0{fill:none;stroke:#000000;stroke-width:2;stroke-miterlimit:10;}
</style>
<title
   id="title4">longhair</title>
<g
   id="g32"
   transform="translate(12)">
			<path
   fill="$[hairColor]"
   d="m 389.1,549.5 -1.8,0.7 c -0.6,-1.2 -1.5,-2.4 -2.2,-3.6 -0.1,-0.2 -0.2,-0.3 -0.2,-0.5 -0.2,-0.5 -0.4,-1.1 -0.4,-1.7 -0.7,-21.9 -8.4,-42.1 -16.3,-62 -18,-45.3 -29.3,-92.3 -37.9,-140.1 -3.2,-17.5 -6.1,-35.1 -9.3,-52.7 l 1.8,-0.3 c 5.1,26.5 10.3,52.9 15.7,79.4 8.4,41.8 21.1,82.2 36.9,121.8 6.7,16.9 12.4,34.1 12.7,52.6 0.1,2.1 0.4,4.3 1,6.4 z"
   id="path6"
   inkscape:connector-curvature="0" />
			<path
   fill="$[hairColor]"
   d="m 384.9,546.1 -0.6,0.3 c -2.2,-0.2 -4.4,-0.6 -6.6,-0.7 -16.5,-0.6 -33,-0.5 -49.4,-1.8 -24.7,-2 -49.3,-5.4 -74.1,-7.6 -14.9,-1.3 -30,-1 -44.9,-2.3 -28.6,-2.3 -57.1,-4.9 -85.6,-7.8 -11.8,-1.2 -23.6,-2.4 -35,-5.3 C 77,518 65.5,516.6 53.6,518 c -10.8,1.2 -21.7,0.6 -32.3,-1.8 -1.7,-4.9 -2.4,-9.6 -4.9,-13.1 -5.2,-7.4 -6,-15.4 -4.9,-23.8 1,-8.1 2,-16.3 4.2,-24.1 5.4,-19.7 9.3,-39.5 8.8,-60.1 -0.1,-3.3 -0.1,-6.6 -0.1,-9.8 0,-3.2 0,-6.6 0.1,-9.8 C 26,342 35,309 51,280 l -0.7,-0.5 c 6.8,-9.8 10.8,-19.7 16.7,-29.5 2.3,-3.2 4.8,-6.3 7.7,-9.1 l 2.1,0.2 c -0.6,0.6 -1.2,1.2 -1.8,1.9 12,-7 26,-9 40.1,-9.5 3.7,-0.2 7.4,-0.5 11,-0.6 3.7,-0.2 7.4,-0.3 11.1,-0.4 33.6,-1.1 66.8,4 100.2,6.2 23.1,1.5 42.9,10.9 62,22.2 6.7,4 12,10.4 17.7,16.1 1.5,1.5 2.4,4.1 2.8,6.3 0.4,2.1 0.8,4.2 1.1,6.3 l 1.8,-0.3 v 0 l -1.8,0.3 c 3.1,17.6 6.1,35.2 9.3,52.7 8.6,47.8 19.9,94.9 37.9,140.1 7.9,19.9 15.6,40.1 16.3,62 0,0.6 0.1,1.1 0.4,1.7 z m -18.7,-11.5 c -0.3,-2.8 -0.2,-4.3 -0.6,-5.5 -4,-12 -8.1,-23.9 -12.3,-35.8 -3,-8.3 -6.6,-16.4 -9.4,-24.7 -9.1,-27.1 -18.1,-54.3 -26.9,-81.6 -6.1,-19 -11.6,-38.2 -17.4,-57.3 -0.6,-2.5 -1.1,-5 -1.4,-7.5 -1.4,15 58.6,202.8 68,212.4 z M 56.6,351.4 C 57,332 63,313 62.4,292.8 c -0.7,3.1 -1.1,4.7 -1.4,6.2 -3,20 -5,39 -6.3,58.6 -0.4,3.9 -0.8,7.8 -1.2,11.7 -0.9,7.8 -1.9,15.6 -3.1,23.4 -3.7,24.1 -7.2,48.1 -7.2,72.5 0,11.3 4.9,22.4 2.4,34 0,0.1 0.5,0.4 0.7,0.5 3.1,-5.6 3.3,-15.8 0.8,-24.1 -0.9,-2.8 -1.8,-5.9 -1.6,-8.8 0.9,-15.8 1.6,-31.6 3.3,-47.3 1.9,-18.2 4.2,-36.4 6.4,-54.6 0.4,-4.4 0.9,-9 1.4,-13.5 z"
   id="path8"
   inkscape:connector-curvature="0" />
			<path
   fill="$[hairColor]"
   d="m 384.3,546.7 c 0.1,0.6 0.2,1.2 0.3,1.7 -2.2,0.6 -4.5,1.9 -6.7,1.8 -17.8,-0.6 -35.7,-0.8 -53.4,-2.3 -37.5,-3.2 -74.7,-8.8 -112.5,-9.6 -25.9,-0.6 -51.8,-4.1 -77.7,-6.4 C 122,530.8 109.7,530 97.5,528.2 90,527.1 82.8,523 75.4,522.5 c -11.7,-0.8 -23.6,0.2 -35.4,0.3 -6.8,0 -13.7,-0.2 -20.5,-0.4 -3.9,-0.1 -6.4,-0.9 -4.6,-6.1 0.8,-2.9 0.4,-6 -1.2,-8.6 -10.1,-14.4 -7.1,-29.9 -4,-45.3 1.2,-6.2 2.9,-12.3 4.9,-18.3 4.6,-13.6 6.9,-27.9 6.7,-42.2 -0.1,-6.8 -0.1,-13.5 0,-20.2 0.1,-3.4 0.2,-6.7 0.3,-10.1 C 24,340 34,308 51,280 c -16,29 -25,62 -26.6,95.5 -0.1,3.3 -0.1,6.6 -0.1,9.8 0,3.2 0.1,6.6 0.1,9.8 0.5,20.6 -3.3,40.4 -8.8,60.1 -2.2,7.8 -3.2,16 -4.2,24.1 -1.1,8.4 -0.3,16.4 4.9,23.8 2.5,3.5 3.1,8.3 4.9,13.1 10.6,2.4 21.5,3 32.3,1.8 11.9,-1.4 23.4,0 35.1,2.9 11.4,2.9 23.2,4.1 35,5.3 28.5,2.9 57,5.5 85.6,7.8 14.9,1.2 30,0.9 44.9,2.3 24.7,2.2 49.3,5.6 74.1,7.6 16.4,1.4 32.9,1.2 49.4,1.8 2.2,0.1 4.4,0.4 6.6,0.7 z"
   id="path10"
   inkscape:connector-curvature="0" />
			<path
   fill="$[hairColor]"
   d="m 365.6,529 c 0.4,1.3 0.3,2.8 0.6,5.5 -9.4,-9.5 -69.4,-197.3 -68,-212.4 0.3,2.5 0.8,5.1 1.4,7.5 5.7,19.1 11.3,38.3 17.4,57.3 8.7,27.3 17.8,54.4 26.9,81.6 2.8,8.3 6.5,16.4 9.4,24.7 4.2,11.9 8.2,23.9 12.3,35.8 z"
   id="path12"
   inkscape:connector-curvature="0" />
			<path
   fill="$[hairColor]"
   d="m 322.8,280.8 c 0.6,2.7 -0.5,5.7 0,8.4 v 0 0 l -1.8,0.3 c -0.4,-2.1 -0.8,-4.2 -1.1,-6.3 -0.4,-2.2 -1.3,-4.7 -2.8,-6.3 -5.6,-5.6 -10.9,-12.1 -17.7,-16.1 -19.1,-11.3 -38.9,-20.7 -62,-22.2 -33.4,-2.2 -66.6,-7.4 -100.2,-6.2 -3.7,0.1 -7.4,0.3 -11.1,0.4 -3.7,0.2 -7.4,0.4 -11,0.6 C 101,234 87,236 75,243 c 0.6,-0.7 1.2,-1.3 1.8,-1.9 9.2,-8.9 24,-7.3 35.2,-10.1 5,-0.5 10.2,-0.8 15.3,-1.1 30.8,-1.5 61.6,0.9 92.3,4.2 9.8,1.1 19.6,1.7 29.3,3 26.1,3.4 47.6,16.1 66.8,33.5 3.3,3 6.1,6 7.1,10.2 z"
   id="path14"
   inkscape:connector-curvature="0" />
			<path
   fill="$[hairColor]"
   d="m 70.3,243.5 c 1.4,-0.9 2.8,-1.8 4.3,-2.6 -2.9,2.8 -5.4,5.8 -7.7,9.1 -5.9,9.8 -9.9,19.7 -16.7,29.5 -0.1,0.2 -0.2,0.3 -0.3,0.5 6.1,-12 9.1,-26 20.4,-36.5 z"
   id="path16"
   inkscape:connector-curvature="0" />
			<path
   fill="$[hairColor]"
   d="M 62.4,292.8 C 63,313 57,332 56.6,351.4 c -0.5,4.6 -1,9.1 -1.6,13.6 -2.2,18.2 -4.5,36.4 -6.4,54.6 -1.6,15.7 -2.4,31.5 -3.3,47.3 -0.2,2.9 0.8,5.9 1.6,8.8 2.5,8.4 2.3,18.5 -0.8,24.1 -0.3,-0.2 -0.7,-0.4 -0.7,-0.5 2.5,-11.6 -2.4,-22.7 -2.4,-34 0,-24.4 3.4,-48.4 7.2,-72.5 1.2,-7.8 2.3,-15.6 3.1,-23.4 0.4,-3.9 0.9,-7.8 1.2,-11.7 C 56,338 58,319 61,299 c 0.3,-1.5 0.7,-3.1 1.4,-6.2 z"
   id="path18"
   inkscape:connector-curvature="0" />
			<path
   class="st0"
   d="m 322.8,289.2 c 5.1,26.5 10.3,52.9 15.7,79.4 8.4,41.8 21.1,82.2 36.9,121.8 6.7,16.9 12.4,34.1 12.7,52.6 0.2,2.2 0.5,4.4 1.1,6.5 l -1.8,0.7 c -0.6,-1.2 -1.5,-2.4 -2.2,-3.6 -0.1,-0.2 -0.2,-0.3 -0.2,-0.5 -0.2,-0.5 -0.4,-1.1 -0.4,-1.7 -0.7,-21.9 -8.4,-42.1 -16.3,-62 -18,-45.3 -29.3,-92.3 -37.9,-140.1 -3.2,-17.5 -6.1,-35.1 -9.3,-52.7 z"
   id="path20"
   inkscape:connector-curvature="0"
   style="fill:none;stroke:#000000;stroke-width:2;stroke-miterlimit:10" />
			<path
   class="st0"
   d="m 384.3,546.4 v 0.3 c 0.1,0.6 0.2,1.2 0.3,1.7 -2.2,0.6 -4.5,1.9 -6.7,1.8 -17.8,-0.6 -35.7,-0.8 -53.4,-2.3 -37.5,-3.2 -74.7,-8.8 -112.5,-9.6 -25.9,-0.6 -51.8,-4.1 -77.7,-6.4 C 122,530.8 109.7,530 97.5,528.2 90,527.1 82.8,523 75.4,522.5 c -11.7,-0.8 -23.6,0.2 -35.4,0.3 -6.8,0 -13.7,-0.2 -20.5,-0.4 -3.9,-0.1 -6.4,-0.9 -4.6,-6.1 0.8,-2.9 0.4,-6 -1.2,-8.6 -10.1,-14.4 -7.1,-29.9 -4,-45.3 1.2,-6.2 2.9,-12.3 4.9,-18.3 4.6,-13.6 6.9,-27.9 6.7,-42.2 -0.1,-6.8 -0.1,-13.5 0,-20.2 0.1,-3.4 0.2,-6.7 0.3,-10.1 C 24,340 34,308 51,280 c -16,29 -25,62 -26.6,95.5 -0.1,3.3 -0.1,6.6 -0.1,9.8 0,3.2 0.1,6.6 0.1,9.8 0.5,20.6 -3.3,40.4 -8.8,60.1 -2.2,7.8 -3.2,16 -4.2,24.1 -1.1,8.4 -0.3,16.4 4.9,23.8 2.5,3.5 3.1,8.3 4.9,13.1 10.6,2.4 21.5,3 32.3,1.8 11.9,-1.4 23.4,0 35.1,2.9 11.4,2.9 23.2,4.1 35,5.3 28.5,2.9 57,5.5 85.6,7.8 14.9,1.2 30,0.9 44.9,2.3 24.7,2.2 49.3,5.6 74.1,7.6 16.4,1.4 32.9,1.2 49.4,1.8 2.3,0.1 4.5,0.4 6.7,0.7 z"
   id="path22"
   inkscape:connector-curvature="0"
   style="fill:none;stroke:#000000;stroke-width:2;stroke-miterlimit:10" />
			<path
   class="st0"
   d="m 76.8,241.1 c 9.2,-8.9 24,-7.3 35.2,-10.1 5,-0.5 10.2,-0.8 15.3,-1.1 30.8,-1.5 61.6,0.9 92.3,4.2 9.8,1.1 19.6,1.7 29.3,3 26.1,3.4 47.6,16.1 66.8,33.5 3.3,3 6.1,6 7,10.2 0.6,2.7 -0.5,5.7 0,8.4 v 0 0 l -1.8,0.3 c -0.4,-2.1 -0.8,-4.2 -1.1,-6.3 -0.4,-2.2 -1.3,-4.7 -2.8,-6.3 -5.6,-5.6 -10.9,-12.1 -17.7,-16.1 -19.1,-11.3 -38.9,-20.7 -62,-22.2 -33.4,-2.2 -66.6,-7.4 -100.2,-6.2 -3.7,0.1 -7.4,0.3 -11.1,0.4 -3.7,0.2 -7.4,0.4 -11,0.6 -14,0.6 -28,2.6 -40,9.6 0.6,-0.7 1.2,-1.3 1.8,-1.9 z"
   id="path24"
   inkscape:connector-curvature="0"
   style="fill:none;stroke:#000000;stroke-width:2;stroke-miterlimit:10" />
			<path
   class="st0"
   d="m 74.7,240.9 c -2.9,2.8 -5.4,5.8 -7.7,9.1 -5.9,9.8 -9.9,19.7 -16.7,29.5 -0.1,0.2 -0.2,0.3 -0.3,0.5 6,-12 9,-26 20.3,-36.5 1.4,-0.9 2.9,-1.7 4.4,-2.6 z"
   id="path26"
   inkscape:connector-curvature="0"
   style="fill:none;stroke:#000000;stroke-width:2;stroke-miterlimit:10" />
			<path
   class="st0"
   d="m 366.2,534.6 c -9.4,-9.5 -69.4,-197.3 -68,-212.4 0.3,2.5 0.8,5.1 1.4,7.5 5.7,19.1 11.3,38.3 17.4,57.3 8.7,27.3 17.8,54.4 26.9,81.6 2.8,8.3 6.5,16.4 9.4,24.7 4.3,11.9 8.3,23.8 12.3,35.8 0.4,1.2 0.3,2.7 0.6,5.5 z"
   id="path28"
   inkscape:connector-curvature="0"
   style="fill:none;stroke:#000000;stroke-width:2;stroke-miterlimit:10" />
			<path
   class="st0"
   d="M 62.4,292.8 C 63,313 57,332 56.6,351.4 c -0.5,4.6 -1,9.1 -1.6,13.6 -2.2,18.2 -4.5,36.4 -6.4,54.6 -1.6,15.7 -2.4,31.5 -3.3,47.3 -0.2,2.9 0.8,5.9 1.6,8.8 2.5,8.4 2.3,18.5 -0.8,24.1 -0.3,-0.2 -0.7,-0.4 -0.7,-0.5 2.5,-11.6 -2.4,-22.7 -2.4,-34 0,-24.4 3.4,-48.4 7.2,-72.5 1.2,-7.8 2.3,-15.6 3.1,-23.4 0.4,-3.9 0.9,-7.8 1.2,-11.7 C 56,338 58,319 61,299 c 0.3,-1.5 0.7,-3.1 1.4,-6.2 z"
   id="path30"
   inkscape:connector-curvature="0"
   style="fill:none;stroke:#000000;stroke-width:2;stroke-miterlimit:10" />
</g>
</svg>