<?xml version="1.0" encoding="utf-8"?>
<!-- Generator: Adobe Illustrator 27.2.0, SVG Export Plug-In . SVG Version: 6.00 Build 0)  -->
<svg version="1.1" xmlns="http://www.w3.org/2000/svg" xmlns:xlink="http://www.w3.org/1999/xlink" x="0px" y="0px"
	 viewBox="0 0 400 600" style="enable-background:new 0 0 400 600;" xml:space="preserve">
<g id="Layer_2">
	<g>
		<path fill="$[hairColor]" stroke="#000000" stroke-width="4" d="M164.1,292.8c0.3,86.5,1.5,176.8,39.7,190.4c3.2,1.2,5.2,1.2,44.2-4.5c47.2-6.9,70.8-10.4,73.7-12.8
			c44.8-38.1-99.8-318.1-144.9-303.2C163.6,167.1,163.8,209,164.1,292.8z"/>
		<path fill="$[hairColor]" stroke="#000000" stroke-width="4" d="M80.8,466.6c5.3,1.8,24.3,0.8,62.2-1.3c11.4-0.6,12.7-0.9,14.1-1.9c26.6-19.7-46.1-199.1-80.8-192.9
			C43.1,276.3,40.1,452.4,80.8,466.6z"/>
		<path fill="$[hairColor]" stroke="#000000" stroke-width="4" d="M89.1,324.9c7.2,28.3,22.6,68.2,30.8,99.4c8.9,33.7,13.3,50.5,13.5,51.2c0,0,0,0,0,0c0.5,1.7,7.3,1,8.8,0.8
			c14.2-1.2,48,5.2,60.3-1.7c32.2-18.1-18-163.2-67.9-264.5c-15.1-30.7-24-44.9-32.1-43.6C84.4,169.4,70.4,251.6,89.1,324.9z"/>
		<path fill="$[hairColor]" stroke="#000000" stroke-width="4" d="M59,440.9c1.1,13.2,1.7,19.8,4.5,26.9c11.5,28.9,49.9,39.7,50.6,38.5c0.3-0.6-7.2-4-15.4-14.1
			c-3.2-3.9-7.1-8.8-9.2-16.3c-1.2-4.4-1.6-8.9-1.1-15.3c1.2-14.7,5.9-25.8,7.1-28.7c3.6-8.9,5-21.8,7.7-47.4
			c3.6-33.7-2-51.8-3.2-78.2c-3.3-73.7,31.8-119.8,16.7-129.5c-6.2-3.9-18.2,0.4-42.3,9c-10.9,3.9-16.4,5.9-19.9,8.3
			c-27.3,19.3-13.9,89.3-3.8,141.7c5.9,31,11,44.4,9,67.3C59.1,409.3,57.4,422.6,59,440.9z"/>
		<path fill="$[hairColor]" stroke="#000000" stroke-width="4" d="M202.6,246.7c18.5,27.1,7.7,24.7,41.7,101.3c25.9,58.4,26.1,46.3,35.3,73.1c4.6,13.6,8,26.9,20.5,37.8
			c9,7.9,16.2,8.8,25.6,19.2c11.7,13,12.6,24.7,14.7,24.4c5-0.9,0.5-64.1-13.5-138.5c-12.4-65.8-21.7-84.8-25.6-92.3
			c-7.6-14.7-23.3-33.5-54.5-71.2c-38-45.9-47.5-52.7-56.4-50.6c-12.6,2.9-20.6,22.9-20.5,39.1C169.9,211.1,184.9,220.8,202.6,246.7
			z"/>
		<path fill="$[hairColor]" stroke="#000000" stroke-width="4" d="M288.8,362.7c15.1,11,26.6,21.5,35.9,36.5c15.3,24.7,19.9,54,22.4,69.9c1.4,8.7,2.8,22.5,5.8,35.3
			c0.7,3.1,1.5,6.2,1.9,10.9c0.8,9.3-0.9,14.7,0.6,15.4c1.7,0.7,6.2-4.4,9-9.6c13.7-25.3,14.7-59.8,14.7-64.1
			c0.6-30.5-0.4-45.7-2.6-65.4c-7.6-70.1,1.3-66.7-5.5-121.4c-7.2-57.3-11.9-91-39.1-118.6c-20.8-21.1-47.3-31.1-55.1-34
			c-23.8-8.7-43.4-9.6-57.9-10.1c-16.8-0.6-48.5-1.3-84.6,14.1c-7.9,3.4-25.6,11.6-44.6,27.4c-19.3,16-30.4,31.9-37.4,42.1
			c-10.1,14.6-22.2,32.4-28.9,58.1c-5.6,21.5-4.2,38.1-2.6,71.2c0.3,6.4,0.2,1.6,6.2,56.9c3.3,31.2,5,46.9,5.4,53.3
			c0.6,11.2,1,23.1,3.2,41c2,15.5,3.8,23.5,8.3,32.1c2.2,4.1,6.5,12.2,15.4,19.2c7.3,5.8,14.3,8.3,21.8,10.9
			c4.6,1.6,20.4,7.7,21.8,5.1c1.4-2.6-15.2-9.4-23.7-26.3c-4.6-9.1-5.3-18.2-5.1-25c0-18.2,1-32.9,1.9-42.9
			c1.5-16.8,2.7-19.9,3.8-37.2c1-14.2,1.7-25.6,0.6-40.4c-0.9-12.5-2.8-23.7-3.8-29.5c-2.2-12.7-4.4-21.7-3.8-35.3
			c0.3-6.6,0.4-10,1.3-11.5C86.4,268.2,214.5,308.6,288.8,362.7z"/>
	</g>
</g>
</svg>
