<?xml version="1.0" encoding="utf-8"?>
<!-- Generator: Adobe Illustrator 27.2.0, SVG Export Plug-In . SVG Version: 6.00 Build 0)  -->
<svg version="1.1" xmlns="http://www.w3.org/2000/svg" xmlns:xlink="http://www.w3.org/1999/xlink" x="0px" y="0px"
	 viewBox="0 0 400 600" style="enable-background:new 0 0 400 600;" xml:space="preserve">
<style type="text/css">
	.st0{display:none;}
	.st1{display:inline;}
	.st2{stroke:#000000;stroke-width:4;stroke-miterlimit:10;}
</style>
<g id="Capa_1" class="st0">
	<g class="st1">
		<path class="st2" d="M315,563.3h-56c-12.6-1-25.2-2.3-37.8-3c-55.4-3.2-110.8-6.3-166.1-9.3c-2.1-0.1-4-0.4-3-3.6
			c1.1-3.3,1.8-6.6,2-10.1c0.7-14.5,1.2-29,1.5-43.5c0.7-31.6,1.9-63.3,1.8-94.9c-0.1-21.8-2.1-43.6-3.2-65.4
			c-0.1-1,0.1-2.3-0.4-2.9c-3-3.6-0.8-6.7,0.8-9.6c4.2-7.4,11.2-11.5,19.1-13.4c13.3-3.1,26.7-5.8,40.1-8.1
			c11-1.9,22.1-2.9,33.2-4.2h22c1.5,0.3,2.9,0.7,4.4,0.8c31.6,2.9,62.5,9.1,93.3,16.6c16,3.9,32.2,6.9,48.3,10.5
			c5.2,1.1,10.3,2.5,15.3,4.1c4.1,1.4,8,3.1,11.9,5c1.2,0.6,2.1,1.8,3.7,3.3l-5,1.1c1.3,22.6,2.9,44.9,3.8,67.2
			c1.9,45.4,3.4,90.9,5.1,136.3c0.2,2,0.5,3.9,1,5.9c0.7,3.2,1.2,6-3.8,5.8c-2,0-4,0.6-5.7,1.7C333.5,559.2,324.5,562.5,315,563.3z
			 M59,546.4c1.6,0.1,2.9,0.2,4.2,0.2c41.6,2.1,83.2,4,124.7,6.3c38.1,2.1,76.1,5.3,114.3,5.2c15.5-0.1,29.5-3.1,42.5-11.8
			c-0.3-1.8-0.5-3.6-0.6-5.4c-1-34.1-2-68.2-3-102.4c-0.9-32.8-1.8-65.6-2.7-98.4c0-1.6-0.5-4.3-1.5-4.7c-6.5-2.8-13.1-5.9-20-7.5
			c-17.8-4.1-35.7-7.8-53.7-11.3c-27.4-5.3-54.8-11.3-82.4-15.2c-32.2-4.5-64.1,1-95.7,7.5c-6.5,1.3-12.8,3.3-18.8,6
			c-7.1,3.3-11.3,9-9.8,17.7c0.7,4.1,0.5,8.3,0.9,12.5c3.2,36.7,5.7,73.4,4.5,110.3C60.9,485.6,60,515.7,59,546.4z"/>
		<path class="st2" d="M59,546.4c1-30.7,1.9-60.8,2.9-91c1.2-36.9-1.2-73.6-4.5-110.3c-0.4-4.1-0.2-8.4-0.9-12.5
			c-1.5-8.7,2.7-14.3,9.8-17.7c6-2.7,12.4-4.7,18.9-6c31.6-6.4,63.5-12,95.7-7.5c27.6,3.8,55,9.9,82.4,15.2
			c18,3.5,35.9,7.1,53.7,11.3c6.9,1.6,13.4,4.7,20,7.5c1,0.4,1.4,3.1,1.5,4.7c1,32.8,1.8,65.6,2.7,98.4c1,34.1,2,68.3,3,102.4
			c0.1,1.8,0.3,3.6,0.6,5.4c-13,8.7-27,11.7-42.5,11.8c-38.3,0.1-76.3-3.1-114.4-5.2c-41.6-2.3-83.2-4.2-124.7-6.3
			C61.9,546.6,60.6,546.5,59,546.4z M90.7,532.7l2-1.3c-1.3-2.9-2.8-5.8-3.9-8.8c-4.6-12.7-5.4-26-5.9-39.3
			c-1.3-35.1-2.5-70.2-4-105.3c-0.5-11.9-2-23.8-3.1-35.7c-0.4,2.6-0.6,5.3-0.4,8c1.3,22.8,3.1,45.5,3.9,68.3
			c0.8,23.8,0.7,47.6,1.2,71.4c0.2,12.2,1.3,24.3,6,35.8C87.3,528.3,89.2,530.4,90.7,532.7z M272.4,368.1c-0.1,1.6-0.2,3.3-0.2,4.9
			c-0.1,53.3-0.3,106.6-0.4,159.9c0,1.8,0,3.7,0.2,5.5c0.3,1,0.7,1.9,1.2,2.7l1.4-0.2C276.1,483.3,272.6,425.7,272.4,368.1z
			 M325.3,541l2.1,0.2c0.4-0.5,1.2-1,1.2-1.4c-1.7-53.9-3.5-107.7-5.3-161.6h-1.1L325.3,541z M100.9,535.4l1.7-0.2
			c-8.9-60.2-5.6-121-9.1-181.4c-0.4,5.4-0.6,10.8-0.4,16.2c1.3,47.4,2.6,94.8,4.2,142.2C97.5,519.9,99.7,527.6,100.9,535.4
			L100.9,535.4z M231,533.7c6.7-16,3.7-153.4-3.2-172.6C232.9,418.5,234.8,476.1,231,533.7z M311.3,376.5v166.1h2.2
			C315.1,487.1,311.1,431.8,311.3,376.5L311.3,376.5z"/>
		<path class="st2" d="M90.7,532.7c-1.5-2.3-3.4-4.4-4.4-6.9c-4.7-11.5-5.7-23.6-6-35.8c-0.5-23.8-0.3-47.6-1.2-71.4
			c-0.8-22.8-2.6-45.5-3.9-68.3c-0.2-2.7,0-5.4,0.4-8c1.1,11.9,2.6,23.8,3.1,35.7c1.6,35.1,2.7,70.2,4,105.3
			c0.5,13.4,1.3,26.6,5.9,39.3c1.1,3,2.6,5.9,3.9,8.8L90.7,532.7z"/>
		<path class="st2" d="M272.4,368.1c0.3,57.6,3.8,115.1,2.1,172.7l-1.4,0.2c-0.5-0.8-0.9-1.8-1.1-2.7c-0.2-1.8-0.2-3.7-0.2-5.5
			c0.1-53.3,0.2-106.6,0.4-159.9C272.1,371.4,272.3,369.8,272.4,368.1z"/>
		<path class="st2" d="M325.3,541l-3.2-162.7h1.1c1.8,53.9,3.6,107.7,5.3,161.6c0,0.5-0.8,0.9-1.2,1.4L325.3,541z"/>
		<path class="st2" d="M100.9,535.4c-1.3-7.7-3.4-15.5-3.7-23.2c-1.6-47.4-2.9-94.8-4.2-142.2c-0.2-5.4,0-10.8,0.4-16.2
			c3.5,60.4,0.2,121.2,9.1,181.4L100.9,535.4z"/>
		<path class="st2" d="M231,533.7c3.7-57.6,1.9-115.2-3.2-172.6C234.8,380.3,237.8,517.7,231,533.7z"/>
		<path class="st2" d="M311.3,376.5c-0.2,55.3,3.8,110.7,2.2,166.1h-2.2V376.5z"/>
	</g>
</g>
<g id="Layer_2">
	<path class="st2" fill="$[hairColor]" stroke="#000000" stroke-width="4" d="M51.1,551.5c1.1-31.5,2-62.4,3.1-93.4c1.3-37.9-1.3-75.6-4.8-113.2c-0.4-4.2-0.2-8.6-1-12.8
		c-1.6-8.9,2.9-14.7,10.4-18.2c6.4-2.8,13.1-4.8,20-6.2c33.5-6.6,67.3-12.3,101.5-7.7c29.3,3.9,58.3,10.2,87.4,15.6
		c19.1,3.6,38.1,7.3,56.9,11.6c7.3,1.6,14.2,4.8,21.2,7.7c1.1,0.4,1.5,3.2,1.6,4.8c1.1,33.7,1.9,67.3,2.9,101
		c1.1,35,2.1,70.1,3.2,105.1c0.1,1.8,0.3,3.7,0.6,5.5c-13.8,8.9-28.6,12-45.1,12.1c-40.6,0.1-80.9-3.2-121.3-5.3
		c-44.1-2.4-88.2-4.3-132.2-6.5C54.2,551.7,52.8,551.6,51.1,551.5z M84.8,537.4L84.8,537.4c-1.2-1.6-2.8-4-4.5-7.1
		c-7.3-13.9-6.7-27.1-6.4-40.4c0.2-12.6-0.4-25.2-0.5-37.8c-0.1-19.6-0.8-22-3-72.9c-0.6-14.6-1.1-27.3-1.5-37.4
		c-0.4,2.7-0.6,5.4-0.4,8.2c1.4,23.4,3.3,46.7,4.1,70.1c0.8,24.4,0.7,48.9,1.3,73.3c0.2,12.5,1.4,24.9,6.4,36.8
		C81.2,532.9,83.2,535.1,84.8,537.4z M277.4,368.4c0,0-0.2,5-0.2,5c-3,92.5-0.4,164.2-0.4,164.2c0.1,1.5,0.1,3.4,0.2,5.6
		c0.3,1,0.7,2,1.3,2.8c-0.4-0.9-0.8-1.8-1.3-2.8c-0.6-15.2-1.3-39-1.3-68.3C275.5,420,277.6,368.4,277.4,368.4z M337,544.7
		c-0.4,0.5-0.8,1-1.3,1.4C336.2,545.6,337,545.1,337,544.7c-1.8-55.3-3.7-110.6-5.6-165.9h-1.2C332.5,434.1,334.8,489.4,337,544.7z
		 M95.6,540.2c-0.9-30.7-2-61.8-3.3-93.1c-1.3-31.5-2.8-62.6-4.5-93.3c-0.3,1.7-0.6,4.6-0.5,8.3c0.2,4.8,1.1,8.3,1.3,9.1
		c3.1,12.7,3.5,94.2,5.6,144C94.4,520,94.9,528.9,95.6,540.2z M233.5,538.5c1.6-27.1,2.4-56.3,1.9-87.3c-0.6-32.1-2.5-62.1-5.3-89.9
		C235.6,420.2,237.6,479.3,233.5,538.5z M318.7,377.1c0.8,56.8,1.6,113.7,2.3,170.5l0,0C322.7,490.6,318.5,433.8,318.7,377.1z"/>
	<path class="st2" fill="$[hairColor]" stroke="#000000" stroke-width="4" d="M90.7,532.9c-1.1-1.5-2.7-3.8-4.4-6.9c-11.2-20.6-5.4-39.7-4.7-72.5c0-0.8-0.4-11.9-1.2-34
		c-1.1-28.6-1.8-45.4-3.8-66.7c-0.4-4.4-0.8-8-1-10.3c0.9,8.8,2,21,3.1,35.7c2.9,40.4,4.4,60.7,2.9,75.3c-0.5,5.4-3.4,32.2-1.8,50
		c0.4,4.1,1.3,11.6,5.3,20C87,527.6,89.1,530.8,90.7,532.9z"/>
	<path class="st2" fill="$[hairColor]" stroke="#000000" stroke-width="4" d="M272.4,368.3c0.2,0-0.3,43-0.4,85.9c-0.1,20.1-0.1,49.8,0.2,86.5c-0.1-0.7-0.1-1.4-0.2-2.2
		c-0.2-1.8-0.2-3.7-0.2-5.5c0.1-53.3,0.2-106.6,0.4-159.9C272.2,372.2,272.3,368.3,272.4,368.3z"/>
	<path class="st2" fill="$[hairColor]" stroke="#000000" stroke-width="4" d="M325.3,541.2l-3.2-162.7h1.1c1.8,53.9,3.6,107.7,5.3,161.6c0,0.5-0.8,0.9-1.2,1.4L325.3,541.2z"/>
	<path class="st2" fill="$[hairColor]" stroke="#000000" stroke-width="4" d="M100.9,535.6c-1.3-7.7-3.4-15.5-3.7-23.2c-1.6-47.4-2.9-94.8-4.2-142.2c-0.2-5.4,0-10.8,0.4-16.2
		c3.5,60.4,0.2,121.2,9.1,181.4L100.9,535.6z"/>
	<path class="st2" fill="$[hairColor]" stroke="#000000" stroke-width="4" d="M231,533.9c3.7-57.6,1.9-115.2-3.2-172.6c2.6,27.2,4.4,56.6,4.9,87.8C233.2,479.2,232.5,507.5,231,533.9z"/>
	<path class="st2" fill="$[hairColor]" stroke="#000000" stroke-width="4" d="M311.3,376.7c-0.2,55.3,3.8,110.7,2.2,166.1h-2.2V376.7z"/>
</g>
</svg>
