<?xml version="1.0" encoding="UTF-8"?><svg id="Fronts" xmlns="http://www.w3.org/2000/svg" viewBox="0 0 400 600"><defs><style>.cls-1{stroke:#000;stroke-linecap:round;stroke-linejoin:round;stroke-width:6px;}</style></defs><path class="cls-1" d="M379.25,406.81c-2.67,.33-5.5,.67-9.54,1.17-1.66,2.28-3.83,5.25-6.69,9.17-4.61-2.48-8.29-4.46-12.2-6.56,2.47-5.32,7.89-6.77,13.45-10.38,.47-2.78,1.2-7.04,1.92-11.32-4.82-2.38-8.92-4.4-14.02-6.92-6.81,.58-15.32,1.52-19.22-6.12,.56-6.32,6.51-9.94,11.21-11.15,9.53-2.47,14.37-7.93,19.63-13.6-.45-2.29-.89-4.57-1.54-7.89-5.07-2.88-10.84-6.15-16.62-9.43,.48-6.12,8.43-7.54,12.09-12.17-.66-3.42-1.39-7.16-2.2-11.31-4.12-2.89-8.7-6.09-13.27-9.3,4.32-.53,8.65-1.06,14.11-1.73,2.06,2.6,4.35,5.51,7.49,9.49-.74-3.83-1.24-6.38-1.81-9.3-3.47-3.72-9.3-4.65-17.67-4.44,.96-.83,1.86-1.61,2.72-2.35h-9.42c.47,2.4,.89,4.57,1.4,7.23-2.43-1.84-3.79-3.47-5.46-4.88-.92-.78-1.92-1.51-3.12-2.35h-69.3c-.07,.49-55.07,.99-55.17,1.49H70.27v1.49h-7.62c-.92,.81-1.69,1.52-2.4,2.27-1.28,1.36-2.32,2.94-4.19,4.72,.4-2.57,.72-4.67,1.08-6.99h-7.24c.66,.72,1.35,1.47,2.09,2.28-6.43-.2-10.92,.7-13.58,4.3-.44,2.82-.82,5.29-1.39,9,2.42-3.86,4.18-6.66,5.76-9.18,4.2,.65,7.53,1.16,10.85,1.68-3.52,3.1-7.03,6.2-10.2,9-.62,4.01-1.18,7.63-1.69,10.94,2.81,4.48,8.92,5.85,9.29,11.77-4.44,3.17-8.88,6.34-12.78,9.12-.5,3.21-.84,5.42-1.18,7.63,4.04,5.49,7.77,10.78,15.09,13.16,3.61,1.18,8.19,4.67,8.62,10.79-3,7.39-9.54,6.48-14.78,5.92-3.92,2.44-7.07,4.4-10.78,6.7,.56,4.14,1.12,8.26,1.48,10.95,4.28,3.5,8.44,4.9,10.34,10.05-3.01,2.04-5.84,3.95-9.38,6.35-2.2-3.79-3.87-6.66-5.15-8.87-3.11-.48-5.28-.82-7.34-1.13-3.12,2.6-7.62,3.97-6.64,9.36,1.02,1.39,1.88,3.19,3.29,4.32,1.4,1.12,1.08,4.52,4.97,3.38-1.45-3.09-2.77-5.88-4.53-9.62,1.78-.62,3.54-1.23,5.31-1.85,2.77,3.64,5.59,8.93,11.45,10.09,5.19-1.26,9.88-2.4,14.5-3.52-1.52-3.2-1.49-6.6,.86-10.39,3.04,5.64,5.72,10.62,8.63,16.01-7.34,3.69-14.21,7.15-19.4,9.76-4.98,10.62-.66,19.39-.45,29.1,2.16,2.4,4.91,5.45,7.55,8.39-2.91,1.95-7.04,3.24-7.53,5.37-.9,3.91-3.64,5.26-5.56,6.94-.57,3.7-1.07,6.93-1.42,9.19,2.95,2.72,5.05,5.1,7.59,6.86,2.7,1.87,5.82,3.13,8.94,4.76-3.45,5.46-7.63,7.43-14.08,6.4,5.52,4.88,9.88,1.49,14.27,.92,1.49-2.72,2.98-5.45,4.29-7.87-1.53-2.55-2.69-4.5-4.74-7.91,5.68,1.77,6.93,5.28,9.04,8.2-2.27,3.19-4.48,6.28-6.58,9.22,3.31,4.86,6.56,9.24,4.96,14.32-3.93,3.44-7.22,6.32-10.51,9.21,1.41-.05,3.11,.4,4.17-.24,3.82-2.29,7.42-4.94,10.12-6.78,2.38-6.85,1.44-12.24-1.26-17.26,1.83-1.34,3.34-2.44,3.89-2.85,3.93-6.94,.94-12.58-.8-17.54,1.73-3.4,3.13-6.14,4.18-8.21,3.63,3.33,6.91,7.32,11.08,9.88,3.58,2.2,4.33,4.53,3.31,8.99-4.43,2.9-9.41,6.17-14.1,9.24q7.09,2.9,6.25,9.04c-3.62,2.19-6.64,4.01-8.88,5.36-.63,4.06-1.12,7.27-1.63,10.53,4.15,3.24,8.01,6.25,12.51,9.76-3.24,1.46-5.67,2.56-8.36,3.78,3.97,1.91,7.64,3.01,11.32-.69,.35-2.27,.73-4.75,1.09-7.06-3.38-3.46-6.57-6.73-9.83-10.07,1.69-1.24,2.9-2.12,4.35-3.19,3.46,1.33,7.02,3.69,10.69,3.84,3.59,.15,7.27-1.93,11.27-3.14-.34-4.57-.62-8.4-.71-9.6,1.71-2.97,2.67-4.64,3.08-5.37,8.04,3.02,10.18,8.98,12.98,15.16,.54-3.48,1.08-6.97,1.58-10.22,2.52,.39,4.26,.66,5.86,.91,.55,2.24,1.01,4.14,1.47,6.04-1.93,2.07-3.51,5.06-5.88,5.94-2.74,1.01-6.44-.65-8.42,2.94,10.86,2.87,13.18,1.85,22.03-9.99-1.94-3.84-4.01-7.91-5.9-11.66-2.22-.34-3.67-.57-5.12-.79,.6-.46,1.2-.93,1.79-1.39-1.58-.73-3.16-1.46-4.74-2.19,.4-.3,.8-.6,1.21-.91,3.21,.5,6.43,.99,9.01,1.39,3.8,4.6,9.65,7.45,8.42,13.21-2.56,5.31-4.66,9.68-6.77,14.04,1.88-1.05,4.37-1.64,5.52-3.22,4.67-6.43,11.72-9.85,17.64-14.8q1.34-8.03,5.7-11.01c2.76,10.64,3.04,11.11,11.06,16.99,.44,.32,1.37-.02,2.39-.06,.28-.88,.6-1.86,.98-3.04-1.33-.71-2.54-1.36-4.02-2.15,.59-3.84,1.2-7.8,1.72-11.13,2.76-2.96,5.18-5.56,7.7-8.27,.29-1.89,.59-3.84,.89-5.78,.45,.27,.9,.55,1.38,.84,.57,2.93,1.16,5.96,1.72,8.85,3.29,2.8,6.43,5.49,10.02,8.55,.67,3.44,1.46,7.53,2.24,11.5-1.93,.82-3.5,1.48-5.24,2.22,.49,1.22,.91,2.23,1.28,3.14,1.32,.05,2.53,.4,3.1,.06,10.43-6.08,10.79-6.56,14.39-17.56q5.68,3.07,7.42,11.38c7.69,5.11,16.86,8.65,22.94,15.3,1.49,1.63,4.74,2.24,7.18,3.33-2.74-4.51-5.47-9.02-8.8-14.51-1.6-5.96,6.01-8.9,10.96-13.66,3.36-.41,7.54-.93,11.72-1.44,.52,.31,1.05,.62,1.57,.94-2.05,.75-4.11,1.51-6.16,2.26,.78,.48,1.56,.96,2.33,1.44-1.89,.23-3.78,.46-6.66,.82-2.46,3.87-5.15,8.08-7.68,12.05,11.5,12.24,14.53,13.29,28.65,10.33-2.58-3.71-7.38-1.99-10.95-3.04-3.08-.9-5.13-4-7.64-6.14,.6-1.97,1.2-3.93,1.91-6.24,2.09-.26,4.35-.53,7.63-.94,.65,3.36,1.35,6.96,2.05,10.56,3.64-6.38,6.43-12.54,16.88-15.67,.54,.75,1.79,2.48,4.01,5.55-.12,1.25-.48,5.2-.92,9.93,5.2,1.25,9.99,3.41,14.65,3.25,4.76-.16,9.4-2.59,13.9-3.97,1.89,1.1,3.45,2.01,5.66,3.29-4.23,3.45-8.39,6.83-12.78,10.41,.47,2.39,.96,4.95,1.42,7.3,4.79,3.83,9.57,2.69,14.73,.71-3.5-1.26-6.66-2.39-10.87-3.91,5.86-3.63,10.88-6.74,16.28-10.09-.65-3.37-1.3-6.68-2.12-10.88-2.91-1.4-6.84-3.28-11.54-5.54q-1.1-6.35,8.12-9.34c-6.1-3.18-12.58-6.55-18.34-9.55-1.32-4.61-.35-7.02,4.31-9.29,5.42-2.64,9.69-6.76,14.41-10.21,1.37,2.14,3.19,4.98,5.44,8.49-2.27,5.12-6.16,10.95-1.04,18.13,.72,.42,2.68,1.56,5.06,2.94-3.52,5.19-4.74,10.76-1.64,17.84,3.51,1.9,8.19,4.64,13.16,7.01,1.38,.66,3.6,.19,5.43,.25-4.28-2.98-8.56-5.96-13.67-9.52-2.08-5.25,2.15-9.77,6.45-14.8-2.73-3.04-5.61-6.24-8.56-9.53,2.74-3.02,4.37-6.64,11.76-8.47-2.66,3.52-4.17,5.54-6.16,8.18,1.71,2.49,3.65,5.32,5.59,8.13,5.72,.59,11.38,4.09,18.57-.95-8.39,1.06-13.83-.97-18.31-6.62,4.07-1.68,8.12-2.99,11.63-4.92,3.3-1.81,6.03-4.28,9.87-7.09-.45-2.33-1.1-5.67-1.85-9.5-2.5-1.74-6.07-3.13-7.24-7.18-.63-2.2-6.01-3.53-9.8-5.55,3.44-3.04,7.02-6.2,9.82-8.67,.27-10.04,5.89-19.1-.58-30.08-6.74-2.69-15.68-6.27-25.23-10.09,3.78-5.57,7.27-10.72,11.22-16.55,3.06,3.91,3.1,7.43,1.12,10.73,6.01,1.16,12.1,2.34,18.85,3.64,7.62-1.19,11.28-6.66,14.89-10.43,2.3,.64,4.59,1.27,6.91,1.91-2.29,3.86-4,6.75-5.89,9.94,5.06,1.17,4.65-2.33,6.47-3.5,1.83-1.17,2.95-3.03,4.28-4.46,1.28-5.57-4.58-6.99-8.64-9.67Zm-29.22-60.57c1.98,.69,3.39,1.17,4.67,1.62-3,2.87-5.46,5.21-8.65,8.26,1.46-3.61,2.61-6.48,3.98-9.87Zm-305.98,2.81c.98-.43,2.07-.9,3.59-1.57,1.05,3.29,1.94,6.06,3.06,9.55-2.45-2.95-4.34-5.21-6.65-7.99Zm-1.12,45.66c3.21-1.66,5.11-2.65,7.81-4.04,.06,2.28,.1,3.54,.15,5.27-2.49-.38-4.44-.69-7.96-1.23Zm12.69,11.05l-1.11-.02c-.08-1.29-.16-2.58-.24-3.86,.64,.07,1.28,.14,1.92,.21-.19,1.23-.38,2.45-.57,3.68Zm4.56,33.06c-.12-.17-.24-.33-.37-.5-2.51,1.46-4.99,3.01-7.27,4.44,.82-3.5,3.29-5.05,6.9-4.32,.98-.65,1.58-1.17,2.19-1.69,.2,.27,.39,.54,.59,.81-.68,.42-1.37,.84-2.05,1.27Zm271.63-.32c.79,.54,1.58,1.08,2.85,1.75,4.69-.75,7.9,.84,8.98,4.46-2.97-1.48-6.18-3.07-9.45-4.59l-.48,.52c-.89-.44-1.78-.87-2.67-1.31,.26-.28,.51-.56,.77-.83Zm-43.74,19.67c-7.09-1.77-8.8-4.44-7.29-9.7,2.58,3.43,4.51,6,7.29,9.7Zm-58.73-5.89c-.91,1.15-1.93,2.42-2.95,3.7-1.77-1.03-3.33-1.94-4.6-2.68-.39-2.02-.74-3.81-.99-5.11,2.83,1.35,5.79,2.77,8.54,4.09Zm-64.39,24.78c-1.24-.02-2.49-.04-3.73-.05,.06-.67,.12-1.33,.19-2,1.73,.27,3.46,.53,5.19,.8-.55,.42-1.11,.84-1.65,1.25Zm-69.68-21.28c2.14-3.58,3.63-6.07,5.61-9.39,1.16,5.09-.15,7.68-5.61,9.39Zm79.18-5.88c1.48-1.64,2.44-2.81,3.21-3.68,.36,.1,.69,.22,.99,.38,.75,.42,1.41,.94,2.21,1.66-1.6,.44-3.5,.96-6.18,1.69l-.23-.05Zm-27.46-3.78c-.2,1.27-.46,3-.76,4.95-.97,.71-2.18,1.6-3.54,2.59-.78-1.24-1.57-2.47-2.27-3.58,2.11-1.27,4.39-2.65,6.57-3.96Zm29.13,42.27c-3.45-4.38,3.59-7.78,2.29-12.25,1.31-.05,2.76-.11,4.5-.18-5.54,3.75-2.68,6.68-.49,9.59-1.79,1.57-3.51,3.09-6.3,2.84Zm2.48-25.16c.96-.32,1.93-.64,2.9-.93,.25,.78,.49,1.5,.57,1.75-.49,.37-.97,.74-1.46,1.11-.67-.64-1.34-1.28-2.02-1.93Zm23.44,14.81c.08,.69,.16,1.38,.24,2.07-2.6,.03-5.2,.06-7.8,.09-.03-.41-.06-.81-.1-1.22,2.55-.31,5.1-.63,7.65-.94ZM64.28,314.08c3.06,1.57,4.97,2.01,5.99,3.19v4.96c-.49,1.03-1.16,2.34-2.05,4.1-1.54-4.78-2.43-7.55-3.94-12.25Zm18.45,153.48c-3.25,2.6-6.12,4.89-9.64,7.71-1.01-7.86-8.28-13.47-5.92-21.91,8.04,.34,10.73,7.42,16.14,10.43-.23,1.47-.45,2.94-.58,3.76Zm.42-36.77l-.74-.11c.11-.74,.23-1.48,.34-2.22l.74,.11c-.11,.74-.23,1.48-.34,2.22Zm7.65-15.27c-1.48-.23-2.95-.46-4.43-.68l.17-1.11c1.48,.23,2.95,.46,4.43,.68-.06,.37-.11,.74-.17,1.11Zm4.4,88.97c-.74-.11-1.48-.23-2.22-.34l.11-.74,2.22,.34-.11,.74Zm9.02-12.86c.27,.53,.53,1.06,.8,1.59-3.24-1.66-6.47-3.32-10.56-5.41,2.92-2.52,5.3-4.57,8.49-7.32,2.34,2.9,4.47,5.54,7.89,9.77-2.87,.59-4.74,.98-6.62,1.37Zm12.68,9.49c-.16-6.12,1.92-8.72,7.16-8.74-2.06,2.51-4.12,5.03-7.16,8.74Zm14.74-27.17c.79-3.73,2.73-5.53,7.21-5.16-2.62,1.88-4.78,3.43-7.21,5.16Zm10.17,49.89c.12-8.47-5.02-13.93-8.94-19.29,5.66-5.16,7.49,1.71,11.56,1.34-.32,2.06-.58,3.75-.85,5.48,1.71,1.16,3.09,2.09,4.96,3.36-2.29,3.09-4.51,6.1-6.74,9.11Zm-1.86-34.16c4.56,.7,7.78,1.2,10.93,1.69,.5,3.6,.96,7,1.7,12.33-4.54-5.39-11.6-5.68-12.63-14.02Zm28.29,10.23c-1.56,.95-3.98,2.43-6.4,3.9-.51-.69-1.17-1.6-2.16-2.95,.32-2.07,.7-4.54,1.36-8.79,2.78-.23,5.4-.44,8.52-.7-.48,3.12-.81,5.26-1.32,8.53Zm14.66-8.03c-1.2,.08-2.24-.04-3.19-.29,1.72-1.32,3.11-2.41,4.26-3.37,.37,1.17,.2,2.37-1.07,3.66Zm18.57,15.93c-3.15-1.53-6.29-3.05-8.32-4.03-.66-3.38-1.09-5.59-1.71-8.82,4.05,.26,7.46,.49,11.08,.72,.85,4.39,1.35,6.94,1.77,9.09-1.29,1.4-2.15,2.33-2.81,3.05Zm4.01-70.88c.76-.87,1.39-1.87,1.9-2.96,2.99-1.75,5.56-3.46,9.8-1.2-3.79,1.22-6.32,4.63-11.7,4.16Zm8.04,70.76c.95-5.51,1.56-9.02,2.21-12.75,4.1-.5,8.28-1.02,14.22-1.75-1.33,8.62-10.52,8.92-16.42,14.49Zm14,20.82c-2.89-3.11-5.79-6.22-8.76-9.42,2.43-1.31,4.22-2.27,6.45-3.47-.35-1.79-.69-3.54-1.1-5.67,5.3,.38,7.69-6.72,15.04-1.38-5.1,5.54-11.79,11.18-11.63,19.93Zm3.85-56.9c5.83-.38,8.35,1.49,9.38,5.34-3.16-1.8-5.97-3.4-9.38-5.34Zm28.55,33.42c-3.96-3.84-6.63-6.44-9.31-9.03,6.82,.02,9.52,2.71,9.31,9.03Zm15.46-8.17c.35-.55,.69-1.1,1.04-1.64-2.43-.4-4.87-.8-8.61-1.42,4.44-4.38,7.21-7.1,10.26-10.1,4.14,2.84,7.24,4.96,11.04,7.57-5.32,2.16-9.53,3.88-13.74,5.59Zm12.77,11.65c-.05-.25-.1-.51-.15-.76,.96-.12,1.92-.24,2.88-.35,.05,.25,.1,.51,.15,.76-.96,.12-1.92,.24-2.88,.35Zm5.73-91.96c-.07-.38-.15-.76-.22-1.15,1.92-.24,3.84-.47,5.76-.71l.22,1.15c-1.92,.24-3.84,.47-5.76,.71Zm9.51,13.49l.96-.12c.15,.76,.3,1.53,.45,2.29l-.96,.12c-.15-.76-.3-1.53-.45-2.29Zm13.53,48.26c-4.59-2.91-8.32-5.28-12.54-7.97-.17-.85-.46-2.37-.76-3.89,7.04-3.11,10.54-10.43,21-10.78,3.07,8.71-6.38,14.52-7.7,22.64Zm6.32-153.93c-2.05-3.23-3.22-5.03-3.71-6.23v-1.98c.21-.35,.55-.7,1-1.13,1.31-1.24,3.82-1.69,7.83-3.33-1.97,4.86-3.13,7.72-5.13,12.66Zm17.84,82.07l-1.45,.02c-.25-1.27-.49-2.53-.74-3.8,.83-.07,1.66-.14,2.5-.22-.1,1.33-.21,2.66-.31,3.99Zm4.91-15.58c3.51,1.44,5.98,2.46,10.15,4.18-4.57,.56-7.11,.87-10.35,1.27,.06-1.79,.11-3.09,.19-5.45Z"/></svg>