<?xml version="1.0" encoding="UTF-8"?><svg id="Fronts" xmlns="http://www.w3.org/2000/svg" viewBox="0 0 400 600"><path fill="$[hairColor]" stroke="#000" stroke-width="4" d="M74.16,211.35c-21.23,12.29-61.02,62.74-59.35,73.85,1.68,11.11,8.8,16.66,3.35,27.34-5.45,10.68-10.9,11.53-5.03,16.23s10.9-2.14,6.71,10.25c-4.19,12.39-5.87,4.27-4.19,12.39,1.68,8.12-.42-1.28,1.68,8.12,2.1,9.4-2.1,16.23-2.51,20.51s8.38,16.23,8.38,16.23c0,0,3.35,5.13,.84,13.67-2.51,8.54-6.29,12.82-7.54,15.38-1.26,2.56-5.45-2.56-5.03,5.13,.42,7.69,13.41,20.51,13.41,20.51,0,0,3.77,4.7,.84,11.11-2.93,6.41-13.41,6.84-11.74,13.67,1.68,6.84,2.1,14.52,10.06,15.38,7.96,.85,12.99-7.26,17.6,.85,4.61,8.12,6.29,8.54,14.25,7.69,7.96-.85,15.51,0,17.6-5.13s14.25-6.84,14.25-6.84c10.48,2.14,25.15,1.71,25.15,1.71,0,0-6.71-1.28,6.71,3.42s15.51,6.84,17.6,4.27-2.51-2.99,7.54-5.13,12.99-11.96,23.47-7.69,21.61,16.2,31.13,7.68c9.53-8.53,2.82-13.23,17.49-11.95,14.67,1.28,19.7,1.71,23.47,2.56s17.6-.43,23.47,4.27c5.87,4.7,14.67,6.84,19.28,5.98s-.42-6.41,13.41-1.71,20.12,3.42,20.12,3.42c0,0,15.32-10.03,19.14-4.41,6.01,8.83,17.19-11.25,26.13,4.41,3.07,5.38,27.52-1.42,13.83-10.39-2.49-1.63-8.95-6.98-1.26-4.7,3.35,1,18.68,2.66,12.71-2.71-7.13-6.41,8.51-17.67,9.08-23.21,.84-8.12-9.6-6.31-12.02-9.26-2.85-3.47,6.15-16.09,1.12-18.08-9.38-3.72,.2-9.59,1.96-10.82,8.1-5.7,.96-21.22,.84-24.49-.14-3.74-8.68,.75-3.35-9.83,2.79-5.55-.28-12.67-4.47-16.38-7.92-6.99-.04-12,1.82-15.38,1.11-2.03,.42-2.85-.84-9.26-1.26-6.41,1.96-12.67-1.4-17.8s1.37-9.9,1.12-14.67c-.18-3.28-5.27-8.68-5.31-11.96-.05-3.64,4.47-10.82,4.47-13.81s-3.49-12.39-3.49-12.39l-4.29-13.05-3.82-20.7-31.13-25.78-263.3,1.49Z"/></svg>