<?xml version="1.0" encoding="utf-8"?>
<!-- Generator: Adobe Illustrator 23.0.5, SVG Export Plug-In . SVG Version: 6.00 Build 0)  -->
<svg version="1.1" id="Backs" xmlns="http://www.w3.org/2000/svg" xmlns:xlink="http://www.w3.org/1999/xlink" x="0px" y="0px"
	 viewBox="0 0 400 600" style="enable-background:new 0 0 400 600;" xml:space="preserve">
<path fill="$[hairColor]" stroke="#000000" stroke-width="4" d="M381.6,499.5h-8.5c-6.4-8.9-6.1-18.6-6.1-28.3c0-3.9,1.7-6.9,4-9.2c7.6-8.1,8.7-12.7,5.6-23.1
	c-1.5-5-5-10.5-2.5-15.4c2.3-4.4,1.5-8.4,1.9-12.6c0.1-0.6-0.4-1.3-0.8-2.4c-1-0.9-2.4-2.1-4.3-3.8c1.7-4.9,3.4-9.8,4.7-13.7
	c-1-3.4-1.7-6-2.8-9.9c-2.2-2-5.2-4.6-7.9-7v-11c3.7-5.4,5.5-10.5,4.1-15.9c-3.9-5-7.3-9.6-11.5-15c1.2-3.5,2.7-7.8,4.1-12
	c0.9-5.3,1.1-10.9,0.8-16.4c-4.9-13.2-9.5-26.6-13.2-41c-1.2-4.8-2.4-9.6-3.4-14.6c-5-36-28-102-60-88c-23,10-30,64-70.4,57.3
	c-4.2,0-8.4,0-12.6,0c-6.3,0-12.7,0-19,0c-6.3,0-12.6,0-18.7-0.1C154,217,140,218,132,207c-11-17,4-40-14-52c0,1,0,2,0,3
	c-3,0-5-1-7-3c-1,7-4,12-8,18c-25,36-54,65-66,106c-1.2,4.3-2.4,8.4-3.5,12.6C30.2,304,27,316,21.1,328c-1.3,3.4-1.9,7.1,0.2,11.6
	c1.2,1.8,3.2,4.9,4.8,7.2c-4,5.3-7.6,10-11.4,15c6.3,8.8,2.5,15.3-3.3,20.8v10.2c1.8,4,3.4,6.7,4.2,9.7c0.6,2.4-0.8,4.7-1.7,7
	c-1.2,3.5-0.8,8.1,0.5,11.8c1.7,5,1.9,9.4-0.1,14.5c-1.2,2.8-0.9,6.5-0.4,9.6c0.4,2.6,2.1,5,3,7.6c1,3,2.2,6,2.2,9
	c0,2.4,0.4,4.5,1.1,6.7c2.3,6.8,3.9,13.5,0.2,20.5c-0.8,1.4-0.1,3.6-0.1,5l4.9,4.9c-0.9,5.4-2,11.4-3,17.2c1.5,1.5,2.6,3.1,4.2,4
	c4.6,2.6,4.6,7.9,6.8,11.8c1.3,2.3,0.4,5.8-1.4,9.1c-1.5,2.7-1.3,7.3,1.6,11.3c4.6,6.3,2.9,12.7-2.6,18.1
	c-5.8,5.8-6.7,12.8-4.6,20.7c1.2-4.9,2.4-9.9,3.9-16c2.1-1.9,5-4.7,7.4-6.9c1-4.2,3.6-8.6,2.3-10.7c-2.2-3.5-0.7-7.2-2.4-10.2
	c-1.9-3.5,1.5-6.2,0.7-9.6c-0.8-3.5-0.2-7.2-0.2-10.7c3.6,3.6,6.8,6.8,10.8,10.8c0.6,2.4,1.6,6.1,2.5,9.9c-1.6,3.1-2,8-1.3,14.5
	c4.9-8.4,3.3-17.3,3.6-26.1c-3.9-5.6-7.7-10.9-11.7-16.6c4.9-5.1,1.8-11.1,2.7-15.7c-1.7-3.3-2.9-5.6-3.7-7.2c2.1-5,3.9-9.5,5.8-14
	c-1.9-3.7-4-7.7-6.8-13.3c1-2.8,2.5-7,3.9-11.3c0.3,0.1,0.6,0.2,0.9,0.3V444c-3.3-0.2-1.9-2.8-2.3-4.3c-0.7-0.4-1.3-0.9-1.9-1.4
	l0.7-0.7c0.5,0.6,1,1.2,1.5,1.8c-0.2,0.1-0.3,0.3-0.3,0.3c3.4,0.1,2,2.6,2.3,4.3c5.5,2.2,6.9,7.3,6.3,12.1c-0.2,2-0.9,5.2-2.1,6.7
	c-5,6.7-0.7,11.3,2.9,16.1c1.9,2.6,4.5,4.6,6.3,6.4c0,1.4,0.1,1.8,0,2.2c-0.5,1.3-1,2.5-1.5,3.8c-4.1,10.8-3.9,14.3,2,23.4
	c2.1,3.2,4.5,6.2,6.5,8.9c-7.4,14,5.3,18.7,10.9,26.9V565c-4,4.7-7.7,9-11.1,13.1c0,3.3-0.1,5.8,0,8.4c0.1,2.3,0.4,4.5,0.6,6.8
	c2-11.4,4.3-16.4,11-21.4c2.5-1.9,5.1-3.6,7.9-5.2c9.5-5.3,12.9-14.1,14.6-24.3c1.2-1.1,2.6-2.4,3.8-3.6v-23.2
	c-7.3-6.7-3.7-13.3-1.5-20.1c3.7-2.8,7.3-6.2,13.5-3.6c-3.1,5.9-8.4,9-12,13.5v10.2c4.2,2.5,9,4.7,10.6,9.1c-1,3-1.4,5.9-2.8,8.2
	c-1.4,2.3-3.8,3.9-5.7,5.9c7-0.1,9.3-6,13.3-8.8v-11c-2.4-4.2-8.1-5.7-6.5-11c4.1-3.1,8-6,13.4-10.1c0,12.1,0,22.6,1.1,33
	c1.3-4.5,2.6-9,3.9-13.6c2.6,2.3,4.5,4,6.1,5.5v7.9c-5.6,5.6-11.6,11.5-17.6,17.6c0.9,2-2.3,5.6,2.1,7v-5.8c3.6-2.2,5.6-6,10-8
	c3.3-1.5,5.9-4.7,8.3-7.4c0.1,0.5,0.3,1.1,0.5,1.7c1.2-3.5,2.4-7,3.9-11.3l0.8-0.5c-0.3,0.4-0.6,0.9-0.9,1.3
	c-1.2,1.5,0.1,4.9,0.2,7.5c2.3-3,3.3-5.9,3.9-9c0.1-0.7,0.2-1.4,0.3-2.1c1.1-0.7,2.1-1.4,3.1-2c1-2.9,3.6-6.1,2.3-7.5
	c-1.1-1.2-1.3-2.5-1.4-3.8c2.4-0.5,4.5-0.9,6.6-1.2c4.9,3.3,0.9,8.6,4,13.5c1.9-4.4,3.4-7.9,5-11.6l-0.6-0.8
	c0.6-3.7,0.1-7.4,0.3-11.1c-3.9-3.9-7.7-7.7-11.7-11.7c4.9-3.6,1.8-7.9,2.7-11c-1.7-2.3-2.9-4-3.7-5.1c2.1-3.6,3.9-6.7,5.8-9.9
	c-1.4-1.9-2.9-4-4.7-6.4c1.1-2.7,1.3-5.4,0.8-8.7c0.4-0.7,0.7-1.4,1.1-2.1c0.3,0.1,0.6,0.1,0.9,0.2v-10.2c-3.3-0.1-1.9-2-2.3-3.1
	c-0.7-0.3-1.3-0.6-1.9-1l0.7-0.5c0.5,0.4,1,0.9,1.6,1.3c-0.1,0.1-0.3,0.2-0.3,0.2c3.4,0,2,1.9,2.3,3.1c5.5,1.6,6.9,5.1,6.3,8.5
	c-0.2,1.4-0.9,3.6-2.1,4.8c-5,4.7-0.7,8,2.9,11.3c1.9,1.8,4.5,3.3,6.3,4.5c0,1,0.1,1.3,0,1.5c-0.5,0.9-1,1.8-1.5,2.7
	c-4.1,7.6-3.9,10.1,2,16.5c2.1,2.3,4.5,4.4,6.5,6.3c-7.4,9.9,5.3,13.2,10.9,18.9v10.3c-4,3.3-7.7,6.4-11.1,9.2c0,2.3-0.1,4.1,0,5.9
	c0.1,1.6,0.4,3.2,0.6,4.8c2-8,4.3-11.6,11-15.1c2.5-1.3,5.1-2.6,7.9-3.6c9.5-3.7,12.9-10,14.6-17.1c1.2-0.8,2.6-1.7,3.8-2.5v-16.3
	c-7.3-4.7-3.7-9.4-1.5-14.2c3.6-2,7.3-4.4,13.5-2.5c-3.1,4.1-8.4,6.3-12,9.5v7.2c4.2,1.8,9,3.3,10.6,6.4c-1,2.1-1.4,4.2-2.8,5.8
	c-1.4,1.6-3.8,2.8-5.7,4.1c7-0.1,9.3-4.2,13.3-6.2v-7.7c-2.4-3-8.1-4-6.5-7.8c4.1-2.2,8-4.2,13.4-7.1c0,8.5,0,15.9,1.1,23.3
	c1.3-3.2,2.6-6.3,3.9-9.6c0.3,0.2,0.6,0.4,0.9,0.6c-0.4,1.5-0.9,3-1.7,4.5c-0.8,1.4-0.1,3.6-0.1,5l2.6,2.6c-4.2,3-8.7,6.1-13.1,9.3
	c0.9,1.4-2.3,4,2.1,4.9v-4.1c3.6-1.5,5.6-4.3,10-5.6c1.2-0.4,2.3-0.9,3.3-1.5c-0.9,5.3-1.9,11-2.9,16.7c1.5,1.5,2.6,3.1,4.2,4
	c4.6,2.6,4.6,7.9,6.8,11.8c1.3,2.3,0.4,5.8-1.4,9.1c-1.5,2.7-1.3,7.3,1.6,11.3c4.6,6.3,2.9,12.7-2.6,18.1
	c-5.8,5.8-6.7,12.8-4.6,20.7c1.2-4.9,2.4-9.9,3.9-16c2.1-1.9,5-4.7,7.4-6.9c1-4.2,3.6-8.6,2.3-10.7c-2.2-3.5-0.7-7.2-2.4-10.2
	c-1.9-3.5,1.5-6.2,0.7-9.6c-0.8-3.5-0.2-7.2-0.2-10.7c3.6,3.6,6.9,6.8,10.8,10.8c0.6,2.4,1.6,6.1,2.5,9.9c-1.6,3.1-2,8-1.3,14.5
	c4.9-8.4,3.3-17.3,3.6-26.1c-3.9-5.6-7.7-10.9-11.7-16.6c4.9-5.1,1.8-11.1,2.7-15.7c-1.7-3.3-2.9-5.6-3.7-7.2c2.1-5,3.9-9.5,5.8-14
	c-0.8-1.6-1.7-3.2-2.6-5c1.8-0.2,3.5-0.5,5.2-0.7c4.9,2.3,0.9,6,4,9.5c0.8-1.3,1.5-2.5,2.2-3.7c0.9,0.9,1.9,1.7,2.6,2.5
	c0,1.4,0.1,1.8,0,2.2c-0.5,1.3-1,2.5-1.5,3.8c-4.1,10.8-3.9,14.3,2,23.4c2.1,3.2,4.5,6.2,6.5,8.9c-7.4,14,5.3,18.7,10.9,26.9V565
	c-4,4.7-7.7,9-11.1,13.1c0,3.3-0.1,5.8,0,8.4c0.1,2.3,0.4,4.5,0.6,6.8c2-11.4,4.3-16.4,11-21.4c2.5-1.9,5.1-3.6,7.9-5.2
	c9.5-5.3,12.9-14.1,14.6-24.3c1.2-1.1,2.6-2.4,3.8-3.6v-23.2c-7.3-6.7-3.7-13.3-1.5-20.1c3.6-2.8,7.3-6.2,13.5-3.6
	c-3.1,5.9-8.4,9-12,13.5v10.2c4.2,2.5,9,4.7,10.6,9.1c-1,3-1.4,5.9-2.8,8.2c-1.4,2.3-3.8,3.9-5.7,5.9c7-0.1,9.3-6,13.3-8.8v-11
	c-2.4-4.2-8.1-5.7-6.5-11c4.1-3.1,8-6,13.4-10.1c0,12.1,0,22.6,1.1,33c1.3-4.5,2.6-9,3.9-13.6c2.5,2.3,4.5,4,6.1,5.5v7.9
	c-5.6,5.6-11.5,11.5-17.6,17.6c0.9,2-2.3,5.6,2.1,7v-5.8c3.6-2.2,5.6-6,10-8c4.1-1.8,7-6.3,10-9.1v-13.9c-2.3-3.4-4.5-6.6-7-10.4
	c0.9-1.9,2-4.1,3-6.2c6.1,2.2,6.2,8,8.1,12.1c1.5,3.1,1.7,7.6-1.4,11.3c-1.2,1.5,0.1,4.9,0.2,7.5c2.3-3,3.3-5.9,3.9-9
	c0.6-3.3,0.8-6.8,1.2-10.7c-0.3-0.7-0.9-2.2-1.5-3.9c4.3-0.8,7.9-1.5,11.2-2.1c4.9,3.3,0.9,8.6,4,13.5c1.9-4.4,3.4-7.9,5-11.6
	c-2.6-3.3-5.1-6.6-7.5-9.7L381.6,499.5z M27.9,466.2c-0.3-0.6-1-1.2-1-1.8c-0.1-3.7,0.4-7.5-0.2-11.1c-0.6-3.3-2.3-6.5-3.6-9.6
	c-1.1-2.5-0.3-4.4,0.7-6.9c4.1-10,3.8-10.2-1.5-21.7c3.8-4.6,2.4-10.3,2.2-15.6c-0.2-4.9-1.8-9.7-0.9-13.5c1.7-2.4,3.4-4.8,5.9-8.4
	c-0.1-0.4-0.1-2.4-0.1-4.9c1.4,2.5,1.4,4.6,0,6.3c-2.9,11-2.9,11.1,4.7,20.8c-1.7,3.7-3.5,7.8-5.5,12.1c1.7,3.4,3.3,6.8,5.3,10.7
	c-1.3,2.8-2.8,5.9-5,10.6c-1.3,6,2.1,12.1,7.5,17.2c-2.3,5.7-4.3,10.8-6.4,15.9C29.4,466.2,28.6,466.2,27.9,466.2L27.9,466.2z
	 M32.2,476.4c1.9,2.9,3.2,5,5,7.7c-1.7,2.9-4.1,7.1-6.9,12C27.1,488.7,31.2,483.4,32.2,476.4L32.2,476.4z M35.3,518.2
	c-1.4-1.4-3.3-3.3-5.9-5.9c1.3-3.1,2.9-6.8,4.7-11.1C38.5,507.6,40,513.3,35.3,518.2L35.3,518.2z M319.5,201.5
	C328,204,325,215,330,220C323,216,324,207,319.5,201.5L319.5,201.5z M346.2,294.3c0.8,1.7,2.8,3.7,3.8,5.7c-3,2-6,0-7-2
	S345,295,346.2,294.3L346.2,294.3z M332.7,392.5h-8.2c0.4-1.8,0.8-3.1,1.4-5.6C328.4,388.9,329.9,390.2,332.7,392.5z M306.5,427.6
	v7.1c-1.6,0.1-3.6,0.3-5.2,0.4C298.9,432.5,299.2,432.1,306.5,427.6L306.5,427.6z M293.5,384.5v0.7h-2.2v-0.7H293.5z M273,456
	c-0.2,2-0.9,5.2-2.1,6.7c-2.5,3.3-2.7,6.1-1.8,8.6h-4.9c-0.8-0.8-1.5-1.6-2.1-2.5c1-2.8,2.4-6.8,3.8-10.8c0.3,0.1,0.6,0.2,0.9,0.3
	V444c-1.3-0.1-1.8-0.5-2.1-1c0.8-0.7,1.5-1.3,2-2c0.2,0.9-0.1,2.1,0,3C272.2,446.2,273.6,451.2,273,456L273,456z M223.8,396h-8.2
	c0.4-1.2,0.8-2.2,1.4-3.9C219.5,393.5,221,394.4,223.8,396L223.8,396z M197.7,420.8v5c-1.6,0.1-3.6,0.2-5.2,0.3
	C190.1,424.3,190.4,424,197.7,420.8L197.7,420.8z M193.5,365.1c0.6,0,1.3-0.1,1.9-0.1v2.6l-1.1,0.1C194,366.8,193.8,366,193.5,365.1
	L193.5,365.1z M184.6,390.4v0.5h-2.2v-0.5H184.6z M110.7,392.5h-8.2c0.4-1.8,0.8-3.1,1.4-5.6C106.4,388.9,107.9,390.2,110.7,392.5z
	 M84.6,427.6v7.1c-1.6,0.1-3.6,0.3-5.2,0.4C77,432.5,77.3,432.1,84.6,427.6L84.6,427.6z M71.5,384.5v0.7h-2.2v-0.7H71.5z
	 M258.4,450.4c-0.1,0.3-0.2,0.5-0.3,0.7c0-0.3,0-0.6,0.1-0.9C258.3,450.3,258.4,450.3,258.4,450.4L258.4,450.4z M253,396.6
	c-2.2-2.4-6.1-3-6-6c1.2-0.1,2.2-0.1,2.9-0.1c0.5,1.5,1.5,3.1,3.1,5.2C253,396,253,396.3,253,396.6L253,396.6z M247.5,410.9
	c1.3-1.3,2.9-2.4,4.6-2.5c-0.5,1.1-1,2.3-1.5,3.4c0.4,0.8,0.8,1.6,1.2,2.4C250.6,413.3,249.1,412.1,247.5,410.9L247.5,410.9z
	 M262.6,387c-0.1-0.1-0.3-0.2-0.4-0.2c1.2-2.6,2.5-5.3,3.9-8.4C270.1,384.4,270.1,384.5,262.6,387L262.6,387z M139.9,393.3
	c-0.7-1-1.6-1.9-2.4-2.6c0.8-0.8,1.6-1.6,2.5-2.5C140.1,389.5,140,391.1,139.9,393.3z M135.6,412.1c1.8-1.9,3.9-2.9,6.4-1.2
	c1.4,2.7,2.3,4.5,3.8,7.5c-1.4,0.6-3.1,1.3-5,2.1c-0.3-0.4-0.7-0.8-1.1-1.2C139.2,417.6,137.9,415.6,135.6,412.1L135.6,412.1z
	 M143.2,448c-0.5,0-0.9,0-1.4,0c0.5-0.5,1.1-0.8,2-0.9C143.6,447.4,143.4,447.7,143.2,448L143.2,448z M131.4,362.2
	c-0.3,0.5-0.5,1-0.7,1.5c-1-0.5-1.9-1-2.6-1.5H131.4L131.4,362.2z M125.1,378.1c-1.5,1.5-2.3,2.3-3.5,3.5c-1.9-2.7-5.5-4-5.6-8.8
	C120.9,371.9,122.2,376.3,125.1,378.1L125.1,378.1z M128.1,401.6h-0.2v-0.4C127.9,401.3,128,401.4,128.1,401.6z M148.4,484.6
	c-0.8-0.6-1.9-1.3-3.2-2.2c-0.2-2-0.2-4-0.3-6.1c0.7-1.1,1.4-2.4,2.2-3.7C151.6,477.1,153.1,481.1,148.4,484.6L148.4,484.6z
	 M231.7,362.2c-0.1,0.2-0.3,0.4-0.4,0.5c-0.4-0.2-0.7-0.4-1-0.5H231.7z M233.4,382.7v4.6c-1.9-1.3-4.2-2.5-4.2-5.2
	C231,381.9,232.3,382.2,233.4,382.7z M239.8,369.1c0.2,1.7,0.1,3.2-0.4,4.7C237.2,372.6,237.6,371.4,239.8,369.1z M254.2,476.4
	c1.5,2.3,2.6,4,3.9,6c0.4,0.8,0.6,1.6,0.7,2.5c-1.4,2.4-3.1,5.4-5.1,8.9v-8.8c-0.4-0.5-0.8-0.9-1.3-1.3
	C253,481.3,253.8,478.9,254.2,476.4L254.2,476.4z M343.2,339.5L343.2,339.5v0.1V339.5L343.2,339.5z M40,387.2
	c1.3-2.8,2.6-5.5,4.1-8.8C46.8,382.5,45.5,385.4,40,387.2z M55.2,432.7c1.7-3.5,3.6-7.5,6-12.4c3.2,2.7,5.6,4.7,8,6.7
	c-4.8,5-0.5,11.4-3.6,18.2C62,440.8,59,437.2,55.2,432.7L55.2,432.7z M60,469.4c1.3-2.8,2.3-5,3.4-7.5c4.4,3.4,8.7,6.8,13.1,10.1
	c-1.6,3.1-2.9,5.5-4.4,8.4C67.1,477.2,64,472.8,60,469.4z M70.6,492.4c0.7,1.8,1.3,3.4,2.4,6.2c-0.8,1.7-2.3,5.3-4.2,9.6
	C63.5,502.7,63.7,502.4,70.6,492.4z M69.3,509c3.1,0.2,1.9,2.5,2.2,4.1C68.4,512.9,69.4,510.7,69.3,509L69.3,509z M71.5,536.9
	c0.2-5.2-0.7-10,1.9-15c1.1-2.1-1.2-5.9-1.9-8.9c2.3,1.8,4.5,3.5,7.2,5.6c-0.9,4.1-2.4,8.1-2.6,12.2c-0.1,3.6,1.2,7.2,2,10.8
	C75.8,540.2,73.6,538.5,71.5,536.9L71.5,536.9z M78.2,542.1L78.2,542.1c0.8,0.3,1.4,0.8,2,1.4c-0.2,0.2-0.5,0.5-0.7,0.7
	c-0.5-0.6-1-1.2-1.6-1.8L78.2,542.1L78.2,542.1z M91.4,534.4c1.1,11.8-1.6,21.5-12.8,27.5c1.8-5.8,3.7-11.6,5.9-18.7
	c-1-4.5-6.3-9.7-2.2-17c1.7-3.1,0.3-8,0.3-12c-1.3-1.3-2.7-2.6-4.4-4.5c-0.9-7,6.4-15.5-2.2-22.1c1.9-3,3.8-5.9,6.4-10.1V469h7.3
	c-3.7,8.4-4.3,16.5,2,23.2C83.6,515.9,81.5,514.5,91.4,534.4L91.4,534.4z M99.5,535.8c-1.7-6.2-3.3-11.8-4.9-17.8
	c0.4-0.1,1.6-0.3,3-0.6C98.3,523.6,102.5,528.8,99.5,535.8z M105.4,479.3l-0.1-1.1c1.9-0.3,3.9-0.6,5.8-0.8l0.2,2L105.4,479.3
	L105.4,479.3z M109.2,456.8c-0.9,0.2-2,0.1-2.9,0.6c-0.9,0.5-1.6,1.4-2.3,2c-2.4-1.4-4.8-2.8-7-4.1c-4-7.5,3.5-11.8,3.8-17.8h13
	c-0.8,3.5-1.4,6.8-2.2,10C110.9,450.5,110,453.5,109.2,456.8L109.2,456.8z M119.5,470.3c-1.8-1-3.7-1.9-5.7-2.9
	c1.2-1,2.3-1.9,3.4-2.9c1.6,0.8,3.4,1.6,6.7,3.2c-2.2,0.3-3.8,0.5-5.3,0.7C118.8,469,119.2,469.6,119.5,470.3L119.5,470.3z
	 M125.8,452.7c0.8-4.4,1.3-8.9,4.4-13.6c0.8,1.7,1.7,3.5,1.9,5.2C130.4,447.6,127.6,449.9,125.8,452.7L125.8,452.7z M133.2,473h-0.7
	v-2.2h0.7V473z M143.9,521.5c-1.4,1-2.6,2.1-3.4,3.2v-6c-2.3-3.4-4.5-6.6-7-10.4c0.9-1.9,2-4.1,3-6.2c6.1,2.2,6.2,8,8.1,12.1
	c0.8,1.7,1.2,3.9,0.9,6.1C145,520.7,144.5,521.1,143.9,521.5L143.9,521.5z M148.1,517.3c0.1-1.3,0.2-2.6,0.4-4
	c-0.3-0.7-0.9-2.2-1.5-3.9l0.1,0C149.5,512.1,149.7,514.8,148.1,517.3z M161.9,498.4c0.6,1.7,1.6,4.3,2.5,7l-0.1,0.2
	c-1.6-2.1-3.2-4.1-4.7-6.1h-8.2c0.1-0.4,0-0.7-0.1-1.1c-0.8-2.4-0.2-5.1-0.2-7.5C154.7,493.4,158,495.7,161.9,498.4L161.9,498.4z
	 M150.3,460.6c-1,1.2-2.2,2.7-3.6,4.5c0.6-1.1,1.4-2.2,2.3-3.1C149.4,461.4,149.9,461,150.3,460.6L150.3,460.6L150.3,460.6z
	 M153.1,392.3L153.1,392.3c1.3-2,2.6-3.9,4.1-6.2C159.9,389,158.6,391.1,153.1,392.3L153.1,392.3z M168.3,424.4
	c1.7-2.5,3.6-5.3,6.1-8.7c3.2,1.9,5.6,3.3,8.1,4.7c-4.8,3.5-0.5,8-3.6,12.9C175.1,430.1,172.1,427.5,168.3,424.4L168.3,424.4z
	 M173.1,450.2c1.3-2,2.3-3.5,3.4-5.3c4.4,2.4,8.7,4.8,13.1,7.1c-1.6,2.2-2.9,3.9-4.4,5.9C180.2,455.7,177,452.6,173.1,450.2
	L173.1,450.2z M183.7,466.5c0.7,1.3,1.3,2.4,2.4,4.4c-0.8,1.2-2.3,3.8-4.2,6.7C176.6,473.7,176.8,473.5,183.7,466.5L183.7,466.5z
	 M182.4,478.2c3.1,0.1,1.9,1.8,2.2,2.9C181.5,480.9,182.5,479.3,182.4,478.2z M184.6,497.8c0.2-3.7-0.7-7.1,1.9-10.5
	c1.1-1.5-1.2-4.1-1.9-6.3c2.3,1.2,4.5,2.5,7.2,3.9c-0.9,2.9-2.4,5.7-2.6,8.6c-0.1,2.5,1.2,5.1,2,7.6
	C188.9,500.1,186.7,498.9,184.6,497.8L184.6,497.8z M191.3,501.4L191.3,501.4c0.8,0.2,1.4,0.6,2,0.9c-0.2,0.2-0.5,0.3-0.7,0.5
	c-0.5-0.4-1-0.9-1.6-1.3L191.3,501.4L191.3,501.4z M204.5,496c1.1,8.3-1.6,15.1-12.8,19.4c1.8-4.1,3.7-8.2,5.9-13.2
	c-1-3.2-6.3-6.8-2.2-12c1.7-2.2,0.3-5.6,0.3-8.5c-1.4-1-2.6-1.9-4.4-3.1c-0.9-4.9,6.4-10.9-2.2-15.5c1.9-2.1,3.8-4.2,6.4-7.1V450
	h7.3c-3.7,5.9-4.3,11.6,2,16.4C196.7,483,194.6,482,204.5,496L204.5,496z M212.6,497c-1.7-4.4-3.3-8.3-4.9-12.5
	c0.4-0.1,1.6-0.2,3-0.4C211.4,488.4,215.6,492.1,212.6,497L212.6,497z M218.5,457.2l-0.1-0.8c1.9-0.2,3.9-0.4,5.8-0.6l0.2,1.4
	L218.5,457.2L218.5,457.2z M222.3,441.4c-0.9,0.1-2,0.1-2.9,0.4c-0.9,0.3-1.6,1-2.3,1.4c-2.4-1-4.8-2-7-2.9c-4-5.3,3.5-8.3,3.8-12.5
	h13c-0.8,2.5-1.4,4.8-2.2,7.1C224,436.9,223.1,439,222.3,441.4L222.3,441.4z M232.6,450.9c-1.8-0.7-3.7-1.3-5.7-2.1
	c1.2-0.7,2.3-1.4,3.4-2c1.6,0.5,3.4,1.1,6.7,2.2c-2.2,0.2-3.8,0.3-5.3,0.5C231.9,449.9,232.3,450.4,232.6,450.9L232.6,450.9z
	 M252.6,495.5c-0.1,0.2-0.3,0.4-0.4,0.7c0-0.1-0.1-0.2-0.1-0.3C252.3,495.7,252.4,495.6,252.6,495.5L252.6,495.5z M257.3,518.2
	c-1.4-1.4-3.3-3.3-5.9-5.9c1.3-3.1,2.9-6.8,4.7-11.1C260.5,507.6,261.9,513.3,257.3,518.2L257.3,518.2z M277.2,432.7
	c1.7-3.5,3.6-7.5,6-12.4c3.2,2.7,5.6,4.7,8,6.7c-4.8,5-0.5,11.4-3.6,18.2C283.9,440.8,280.9,437.2,277.2,432.7L277.2,432.7z
	 M282,469.4c1.3-2.8,2.3-5,3.4-7.5c4.4,3.4,8.7,6.8,13.1,10.1c-1.6,3.1-2.9,5.5-4.4,8.4C289,477.2,285.9,472.8,282,469.4L282,469.4z
	 M292.6,492.4c0.7,1.8,1.3,3.4,2.4,6.2c-0.8,1.7-2.3,5.3-4.2,9.6C285.5,502.7,285.7,502.4,292.6,492.4z M291.3,509
	c3.1,0.2,1.9,2.5,2.2,4.1C290.4,512.9,291.4,510.7,291.3,509z M293.5,537c0.2-5.2-0.7-10,1.9-15c1.1-2.1-1.2-5.9-1.9-8.9
	c2.3,1.8,4.5,3.5,7.2,5.6c-0.9,4.1-2.4,8.1-2.5,12.2c-0.1,3.6,1.2,7.2,2,10.8C297.7,540.2,295.6,538.6,293.5,537L293.5,537z
	 M300.1,542.1L300.1,542.1c0.8,0.3,1.4,0.8,2,1.4l-0.7,0.7c-0.5-0.6-1-1.2-1.5-1.8L300.1,542.1L300.1,542.1z M313.4,534.4
	c1.1,11.8-1.6,21.5-12.8,27.5c1.8-5.8,3.7-11.6,5.9-18.7c-1-4.5-6.3-9.7-2.2-17c1.7-3.1,0.3-8,0.3-12c-1.4-1.3-2.6-2.6-4.5-4.5
	c-0.9-7,6.4-15.5-2.2-22.1c1.9-3,3.8-5.9,6.4-10.1V469h7.3c-3.7,8.4-4.3,16.5,2,23.2C305.5,515.9,303.4,514.5,313.4,534.4
	L313.4,534.4z M321.5,535.8c-1.7-6.2-3.3-11.8-4.9-17.8c0.4-0.1,1.6-0.3,3-0.6C320.3,523.6,324.5,528.8,321.5,535.8z M327.3,479.3
	l-0.1-1.1c2-0.3,3.9-0.6,5.8-0.8l0.2,2L327.3,479.3L327.3,479.3z M331.1,456.8c-0.9,0.2-2,0.1-2.9,0.6c-0.9,0.5-1.6,1.4-2.3,2
	c-2.4-1.4-4.8-2.8-7-4.1c-4-7.5,3.5-11.8,3.8-17.8h13c-0.8,3.5-1.4,6.8-2.2,10C332.9,450.6,332,453.5,331.1,456.8L331.1,456.8z
	 M341.4,470.3c-1.8-1-3.7-1.9-5.7-2.9c1.2-1,2.3-1.9,3.4-2.9c1.6,0.8,3.4,1.6,6.7,3.2c-2.2,0.3-3.8,0.5-5.3,0.7
	C340.8,469,341.1,469.7,341.4,470.3L341.4,470.3z M343.6,381.6c-1.9-2.7-5.5-4-5.6-8.8c4.9-0.8,6.2,3.5,9,5.4
	C345.5,379.6,344.7,380.4,343.6,381.6L343.6,381.6z M349,353.8c1.4-1.9,2.7-3.9,4.4-6.4c1.6,1.4,3.2,2.6,5.2,4.2
	c-2.3,4.6-4.2,8.3-6,12C345.8,360.2,345.4,358.9,349,353.8L349,353.8z M350.9,397.1v4.5h-1.1v-4.5H350.9z M355.2,473h-0.7v-2.2h0.7
	V473z M347.7,452.7c1.1-5.6,1.4-11.5,7.7-17.6C356.7,444.6,350.8,447.9,347.7,452.7z M361.8,393.4c-2.2-3.3-6.1-4.3-6-8.5
	C361.8,384.3,362.3,384.8,361.8,393.4z M356.4,413.6c1.9-2.8,4.5-4.8,7.6-2.7c1.4,2.7,2.3,4.5,3.8,7.5c-1.4,0.6-3.1,1.3-5,2.1
	C361.2,419,358.8,416.3,356.4,413.6L356.4,413.6z M361.2,452.6c2.1-4.9,2.5-5.3,5.5-5.7C364.2,448.1,366.3,454.4,361.2,452.6z"/>
</svg>
