<?xml version="1.0" encoding="utf-8"?>
<!-- Generator: Adobe Illustrator 27.2.0, SVG Export Plug-In . SVG Version: 6.00 Build 0)  -->
<svg version="1.1" xmlns="http://www.w3.org/2000/svg" xmlns:xlink="http://www.w3.org/1999/xlink" x="0px" y="0px"
	 viewBox="0 0 400 600" style="enable-background:new 0 0 400 600;" xml:space="preserve">
<style type="text/css">
	.st0{display:none;}
	.st1{display:inline;opacity:0.46;}
	.st2{stroke:#000000;stroke-width:4;stroke-miterlimit:10;}
</style>
<g id="Layer_1" xmlns:svg="http://www.w3.org/2000/svg" xmlns:rdf="http://www.w3.org/1999/02/22-rdf-syntax-ns#" xmlns:sodipodi="http://sodipodi.sourceforge.net/DTD/sodipodi-0.dtd" xmlns:inkscape="http://www.inkscape.org/namespaces/inkscape" xmlns:cc="http://creativecommons.org/ns#" xmlns:dc="http://purl.org/dc/elements/1.1/" class="st0">
	
		<sodipodi:namedview  bordercolor="#666666" borderopacity="1" gridtolerance="10" guidetolerance="10" id="namedview29" inkscape:current-layer="Layer_1" inkscape:cx="200" inkscape:cy="300" inkscape:pageopacity="0" inkscape:pageshadow="2" inkscape:window-height="480" inkscape:window-maximized="0" inkscape:window-width="756" inkscape:window-x="0" inkscape:window-y="28" inkscape:zoom="0.39333333" objecttolerance="10" pagecolor="#ffffff" showgrid="false">
		</sodipodi:namedview>
	<g id="Layer_2_00000169539075583753106510000016229512370500165015_" transform="translate(8)" class="st1">
		<path id="path17" inkscape:connector-curvature="0" class="st2" fill="$[hairColor]" stroke="#000000" stroke-width="4" d="M50.5,207.2c1.8-8.5,3.4-17,5-25.5l0.8,0.1
			c-0.3,1.9-0.3,3.8,0.2,5.6l2.6-3.9c2.3-3.4,4.1-7.5,7.1-10.1c6.6-5.6,13.4-10.9,20.6-15.7c15-10.2,30.2-20.1,45.4-29.9
			c5.7-3.7,11.7-7,17.9-9.8c24.6-11,50.5-10.7,76.6-8.8c33.8,2.4,57.8,18.6,74.1,48.4c13.9,25.4,24.6,51.6,31.3,79.7
			c2.6,10.9,5.7,21.6,8.7,32.4c1.4,4.9,2.7,9.8,3.9,14.7c2.2,8.7,3.1,17.7,5.1,26.5c9.1,40.2,13.4,81.1,16.2,122.2
			c0.6,8.6-1.5,15.6-8.5,22.5c-1.6-2.8-3.4-5.1-4.4-7.7c-8.4-21.2-16.6-42.5-25-63.7c-0.5-1.2-2-2.1-3.1-3.1c-0.4,1.3-1.2,2.7-1,3.9
			c3.2,24.3,6.6,48.5,9.8,72.8c0.3,2.1,0.3,4.1,0.5,7.7c-7.7-5.3-14.6-9.2-20.6-14.4c-7.5-6.6-17.1-10.5-27.1-11
			c-3.2-0.2-4.8,0.8-6,3.8c-2.3,5.7-4.4,11.8-8.1,16.5s-9.1,9.7-14.7,11c-6.4,1.5-21.2,10.9-35.6,4.8c0,0-2.2-0.9-4.3-2.3
			c-16.2-10.6-19-47.8-23.1-77.4c-4.8-34.9-13.2-72.4-10.4-73.1c0.6-0.1,1.9,1.1,2,1c0-0.1-1.2-1.5-2-1c-0.7,0.5-1.2,1.4-1.4,2.3
			c-0.1,0.9,0.5,1.9,0.6,2.9c3.8,22.6,8.3,45.2,11.2,67.9c2.9,22.7,5.1,45.3,13.4,66.8l-1.6,0.6c-10.6-0.9-22.2-1.3-34.8-1
			c-14.1,0.3-27,1.5-38.5,3.1c-3.1-17.4-4.8-31.5-5.7-40.4c-4.1-40.1-6-103.9-7.5-112c-0.1-0.5-0.6-3.2-0.8-6.9
			c-0.1-2.1,0-3.9,0-4.9c-0.3,1.4-0.4,2.9-0.4,4.4c2,17.3,4.7,34.6,5.9,52c1.5,22.4,1.7,44.9,2.8,67.4c0.4,9.3,1.4,18.5,2.2,27.7
			c-16.7-0.2-33.4-0.4-50-0.6c-1.9-5.3-3.6-11.2-4.9-17.7c-4.5-23.3-1.2-43.5,2.4-56.9c-1.6,3.8-2,5-2,5c-0.4,1.1-0.7,2.3-1,3.4
			c-4.2,16.2-2.7,32.5,0.6,48.5c2.7,13.5,6.3,26.8,9.5,40.4c-0.6-0.5-1.2-1-1.8-1.6C69.9,459,59.1,443.1,53,424.4
			c-10-30.9-15.3-63.2-15.8-95.7C36.4,288,41.9,247.4,50.5,207.2z"/>
		<path id="path19" inkscape:connector-curvature="0" class="st2" fill="$[hairColor]" stroke="#000000" stroke-width="4" d="M366.2,433.2c-2.9-41.1-7.2-82-16.2-122.2
			c-2-8.8-2.9-17.8-5.1-26.5c-1.2-4.9-2.6-9.8-3.9-14.7l0.9-0.2c0.5,2,1.2,4,2.1,5.9c0.1-2.4,0.3-4.7,0.4-6.1
			c6,30.9,13,62.4,17.9,94.3c3.8,24.8,5,50,7.5,75.1c0.7,7.6-3.7,13-7.9,18.3c-2.7,3.3-6.4,1.5-8.6-1.3c-1.7-2.5-3.1-5.2-4-8
			c-3.3-10.3-8.3-25.1-17-44.9c-1-2.2-2.6-5.9-5-10.6c6.7,43,10.4,66.1,10.4,66.1l0,0c0,0-0.3,2.7-1,8.1l-2.1-0.7
			c-0.2-3.5-0.3-5.6-0.5-7.7c-3.3-24.2-6.6-48.5-9.8-72.8c-0.2-1.2,0.7-2.6,1-3.9c1,1,2.6,1.9,3.1,3.1c8.4,21.2,16.6,42.5,25,63.7
			c1,2.6,2.8,4.9,4.4,7.7C364.7,448.8,366.8,441.8,366.2,433.2L366.2,433.2z"/>
		<path id="path21" inkscape:connector-curvature="0" class="st2" fill="$[hairColor]" stroke="#000000" stroke-width="4" d="M212.1,473.9c-0.6-1.2-0.5-2.6-1.7-3.2
			c-1.3-0.7-3.8-0.3-6.8,0.2c-0.6,0.1-1.3,0-2.2-1l8.1-2.6c0-0.9-0.1-1.9-0.3-2.8c-0.1-0.3-0.3-0.7-0.4-1
			c-8.3-21.5-10.5-44.2-13.4-66.8c-2.9-22.6-7.4-45.3-11.2-67.9c-0.2-1-0.7-2-0.6-2.9c0.1-1.1,0.9-2.4,1.4-2.3
			c2,0.2,1.8,7.7,1.5,5.7l0,0c0,0,8.1,39.9,12.6,83.4c2.1,20.3,4.4,51.6,19.4,61.4c2.1,1.3,4.3,2.3,4.3,2.3
			c11.9-1.3,24-1.9,35.6-4.8c5.5-1.4,10.8-6.4,14.7-11c3.9-4.6,5.8-10.8,8.1-16.5c1.2-3,2.8-4,6-3.8c10,0.5,19.6,4.4,27.1,11
			c6,5.2,12.9,9.1,20.6,14.4l2.1,0.7c-0.2,0.7-0.3,1.5-0.4,2.2c-1.6-1.2-3.9-3-6.8-5.2c-8.7-6.7-13.7-10.8-15.5-12.1
			c-5.2-4-14-8.7-29.4-10.9c-3.6,9.7-8.5,16.3-11.8,20.2c-2.4,2.8-5.3,6-10.1,9c-4.1,2.5-7.9,3.6-15.4,5.6c-9.8,2.6-15.1,4-22.3,3.6
			C221.4,478.5,213.9,478,212.1,473.9L212.1,473.9z"/>
		<path id="path23" inkscape:connector-curvature="0" class="st2" fill="$[hairColor]" stroke="#000000" stroke-width="4" d="M56.6,187.4c-0.5-1.8-0.5-3.8-0.2-5.6c0.6-2.8,2.1-5.4,4.3-7.2
			c7.6-6.9,15.6-13.4,24-19.4c14.7-10.3,30.1-19.7,44.8-30c17-11.9,36.1-17.4,56.3-20.1c3.8-0.5,7.6-0.8,11.4-1.1h4
			c9.6,0.7,19.3,1.2,28.9,2c31.1,2.7,54,17.4,70.2,44.7c21.3,35.9,32.9,74.8,40.7,115.2c0.2,1.2,0.5,2.4,0.8,3.6l-0.9,0.2
			c-3-10.8-6.1-21.5-8.7-32.4c-6.7-28.1-17.4-54.3-31.3-79.7c-16.3-29.8-40.3-46-74.1-48.4c-26.1-1.8-52.1-2.1-76.6,8.9
			c-6.2,2.8-12.2,6.1-17.9,9.8c-15.3,9.8-30.4,19.7-45.4,29.9c-7.2,4.8-14,10-20.6,15.7c-3,2.6-4.8,6.7-7.1,10.1L56.6,187.4z"/>
		<path id="path25" inkscape:connector-curvature="0" class="st2" fill="$[hairColor]" stroke="#000000" stroke-width="4" d="M46.8,214.3c2.9-12.1,5.7-24.2,9.5-36.2
			c-0.2,1.2-0.5,2.4-0.7,3.6c-1.6,8.5-3.2,17.1-5,25.5c-14.9,69.5-13.3,121.9-13.3,121.9c0.2,24.9,0.6,64.1,14.3,97.2
			c12.1,29.2,31.7,52.8,31.7,52.8c1.7,2,3.1,3.7,4.1,4.8c-6.9-19.3-10.3-35.9-12.2-48.4c0,0-3.2-21.1-0.6-48.5
			c0.2-2,0.8-3.8,0.8-3.9c0.2-0.5,0.7-2,2.2-4.5c0.9-1.5,2.3-3.5,4.4-5.7c-3.5,8.3-8.3,23-8.2,41.9c0.2,18.8,5.3,33.3,8.9,41.5
			c15.9-0.8,31.8-1.7,47.7-2.5c-0.8-9.2-1.8-18.4-2.2-27.7c-1-22.5-1.2-45-2.8-67.4c-1.2-17.4-4-34.7-5.9-52c0-1.5,0.1-2.9,0.4-4.4
			c4,23.7,5.2,43,5.5,56.4c0.2,6.4,1,43.3,2.8,67.4c0.2,2.9,0.7,8.7,2.2,16.2c1.9,9.5,4.5,17.1,6.5,22.1c11.6,0.5,23.6,0.8,36.1,0.7
			c11.8,0,23.2-0.3,34.2-0.7l0.2,1.4c-1.2,0.4-2.5,0.6-3.8,0.8c-20.8,0.7-41.6,1.2-62.4,2c-2.9,0.1-5.2-0.2-6.8-1.6
			c-1-0.8-1.4-2.1-2.2-4.6c-2.3-6.6-2.4-6.9-2.5-7.1l0,0c-0.5-1.1-42.4-7.4-45.6,4.1c-0.4,1.4-0.1,2.8,0.1,3.5
			c1.5,7.3,3.7,15.2,7,23.4c0.7,1.7,1.3,3.3,2,4.8c-2-1.1-4.5-1.7-5.9-3.3c-6.3-7.3-12.6-14.7-18.4-22.4
			c-18-23.4-25.7-50.9-30.5-79.4C28.6,328,33.2,270.9,46.8,214.3z"/>
	</g>
</g>
<g id="Layer_2">
	<g>
		<path class="st2" fill="$[hairColor]" stroke="#000000" stroke-width="4" d="M164.1,292.8c0.3,86.5,1.5,176.8,39.7,190.4c3.2,1.2,5.2,1.2,44.2-4.5c47.2-6.9,70.8-10.4,73.7-12.8
			c44.8-38.1-99.8-318.1-144.9-303.2C163.6,167.1,163.8,209,164.1,292.8z"/>
		<path class="st2" fill="$[hairColor]" stroke="#000000" stroke-width="4" d="M80.8,466.6c5.3,1.8,24.3,0.8,62.2-1.3c11.4-0.6,12.7-0.9,14.1-1.9c26.6-19.7-46.1-199.1-80.8-192.9
			C43.1,276.3,40.1,452.4,80.8,466.6z"/>
		<path class="st2" fill="$[hairColor]" stroke="#000000" stroke-width="4" d="M89.1,324.9c7.2,28.3,22.6,68.2,30.8,99.4c8.9,33.7,13.3,50.5,13.5,51.2c0,0,0,0,0,0c0.5,1.7,7.3,1,8.8,0.8
			c14.2-1.2,48,5.2,60.3-1.7c32.2-18.1-18-163.2-67.9-264.5c-15.1-30.7-24-44.9-32.1-43.6C84.4,169.4,70.4,251.6,89.1,324.9z"/>
		<path class="st2" fill="$[hairColor]" stroke="#000000" stroke-width="4" d="M59,440.9c1.1,13.2,1.7,19.8,4.5,26.9c11.5,28.9,49.9,39.7,50.6,38.5c0.3-0.6-7.2-4-15.4-14.1
			c-3.2-3.9-7.1-8.8-9.2-16.3c-1.2-4.4-1.6-8.9-1.1-15.3c1.2-14.7,5.9-25.8,7.1-28.7c3.6-8.9,5-21.8,7.7-47.4
			c3.6-33.7-2-51.8-3.2-78.2c-3.3-73.7,31.8-119.8,16.7-129.5c-6.2-3.9-18.2,0.4-42.3,9c-10.9,3.9-16.4,5.9-19.9,8.3
			c-27.3,19.3-13.9,89.3-3.8,141.7c5.9,31,11,44.4,9,67.3C59.1,409.3,57.4,422.6,59,440.9z"/>
		<path class="st2" fill="$[hairColor]" stroke="#000000" stroke-width="4" d="M202.6,246.7c18.5,27.1,7.7,24.7,41.7,101.3c25.9,58.4,26.1,46.3,35.3,73.1c4.6,13.6,8,26.9,20.5,37.8
			c9,7.9,16.2,8.8,25.6,19.2c11.7,13,12.6,24.7,14.7,24.4c5-0.9,0.5-64.1-13.5-138.5c-12.4-65.8-21.7-84.8-25.6-92.3
			c-7.6-14.7-23.3-33.5-54.5-71.2c-38-45.9-47.5-52.7-56.4-50.6c-12.6,2.9-20.6,22.9-20.5,39.1C169.9,211.1,184.9,220.8,202.6,246.7
			z"/>
		<path class="st2" fill="$[hairColor]" stroke="#000000" stroke-width="4" d="M288.8,362.7c15.1,11,26.6,21.5,35.9,36.5c15.3,24.7,19.9,54,22.4,69.9c1.4,8.7,2.8,22.5,5.8,35.3
			c0.7,3.1,1.5,6.2,1.9,10.9c0.8,9.3-0.9,14.7,0.6,15.4c1.7,0.7,6.2-4.4,9-9.6c13.7-25.3,14.7-59.8,14.7-64.1
			c0.6-30.5-0.4-45.7-2.6-65.4c-7.6-70.1,1.3-66.7-5.5-121.4c-7.2-57.3-11.9-91-39.1-118.6c-20.8-21.1-47.3-31.1-55.1-34
			c-23.8-8.7-43.4-9.6-57.9-10.1c-16.8-0.6-48.5-1.3-84.6,14.1c-7.9,3.4-25.6,11.6-44.6,27.4c-19.3,16-30.4,31.9-37.4,42.1
			c-10.1,14.6-22.2,32.4-28.9,58.1c-5.6,21.5-4.2,38.1-2.6,71.2c0.3,6.4,0.2,1.6,6.2,56.9c3.3,31.2,5,46.9,5.4,53.3
			c0.6,11.2,1,23.1,3.2,41c2,15.5,3.8,23.5,8.3,32.1c2.2,4.1,6.5,12.2,15.4,19.2c7.3,5.8,14.3,8.3,21.8,10.9
			c4.6,1.6,20.4,7.7,21.8,5.1c1.4-2.6-15.2-9.4-23.7-26.3c-4.6-9.1-5.3-18.2-5.1-25c0-18.2,1-32.9,1.9-42.9
			c1.5-16.8,2.7-19.9,3.8-37.2c1-14.2,1.7-25.6,0.6-40.4c-0.9-12.5-2.8-23.7-3.8-29.5c-2.2-12.7-4.4-21.7-3.8-35.3
			c0.3-6.6,0.4-10,1.3-11.5C86.4,268.2,214.5,308.6,288.8,362.7z"/>
	</g>
</g>
</svg>
