<svg id="Capa_1" data-name="Capa 1" xmlns="http://www.w3.org/2000/svg" viewBox="0 0 400 600">
  <defs>
    <style>
      .cls-1 {
        fill: #fff;
      }
    </style>
  </defs>
  <title>longhairf_2</title>
  <g>
    <path fill="$[hairColor]" d="M50.33,211.15c1.84-8.47,3.38-17,5-25.52l.84.06a13.82,13.82,0,0,0,.2,5.64L59,187.42c2.32-3.4,4.07-7.46,7.08-10.06a217.71,217.71,0,0,1,20.6-15.66q22.51-15.25,45.44-29.9A138,138,0,0,1,150,122c24.58-11,50.5-10.65,76.63-8.81,33.78,2.38,57.79,18.58,74.11,48.41,13.87,25.35,24.62,51.58,31.28,79.67,2.58,10.88,5.72,21.62,8.71,32.39,1.36,4.9,2.69,9.81,3.92,14.74,2.18,8.71,3.13,17.71,5.11,26.48C358.81,355.12,363.13,396,366,437.08c.6,8.64-1.52,15.62-8.48,22.53-1.65-2.83-3.41-5.12-4.43-7.7-8.4-21.2-16.64-42.47-25-63.67-.49-1.24-2-2.07-3.08-3.09-.36,1.31-1.18,2.68-1,3.93,3.22,24.26,6.56,48.51,9.84,72.76.28,2.06.3,4.15.54,7.7-7.66-5.27-14.65-9.23-20.6-14.39a44.12,44.12,0,0,0-27.1-11c-3.2-.19-4.75.79-6,3.8-2.33,5.67-4.35,11.83-8.13,16.45s-9.15,9.66-14.67,11c-11.56,2.85-23.67,3.5-35.58,4.77-1.4.15-3.87-1.12-4.34-2.33-8.28-21.12-15.32-42.52-17.26-65.42-2.26-26.72-5.49-53.37-12.47-79.38a24.55,24.55,0,0,0-1.66-4.68c-.29-.56-1.69-1.2-2-1a3.48,3.48,0,0,0-1.37,2.28c-.1.93.47,1.91.64,2.89,3.82,22.64,8.34,45.19,11.23,67.95s5.1,45.33,13.38,66.84l-1.61.62c-23.1-3.47-46.32.81-70.28,0-1.25-13.6-2.88-26.65-3.58-39.75-1.59-29.78-2.4-59.6-4.21-89.35-.6-9.9-3.16-19.69-5.18-29.45-.27-1.34-2.59-2.27-4-3.38a20.34,20.34,0,0,0-.43,4.36c2,17.34,4.74,34.63,5.94,52,1.54,22.43,1.74,44.94,2.75,67.41.42,9.26,1.45,18.48,2.2,27.7H84.39c-6.33-26-11.42-51.51-3-78-2.08.67-3.65,1.5-4.27,2.79a48.16,48.16,0,0,0-3,8.44c-4.23,16.22-2.67,32.46.59,48.55,2.73,13.47,6.27,26.79,9.51,40.43a17.94,17.94,0,0,1-1.79-1.58c-12.69-14.77-23.5-30.74-29.6-49.39A326.81,326.81,0,0,1,37,333.06C36.17,291.85,41.65,251.33,50.33,211.15Z"/>
    <path d="M366,437.08c-2.86-41.1-7.18-82-16.24-122.23-2-8.77-2.93-17.77-5.11-26.48-1.23-4.93-2.56-9.84-3.92-14.74l.9-.24a31.52,31.52,0,0,0,2.1,5.85c.14-2.35.27-4.7.35-6.11,6,30.88,13,62.42,17.94,94.27,3.84,24.81,5,50,7.47,75.06.74,7.61-3.69,13-7.94,18.27-2.7,3.33-6.35,1.54-8.56-1.26a30.68,30.68,0,0,1-4-8c-5.71-14.93-11.29-29.9-17-44.85a9.29,9.29,0,0,0-3.31-4.5c1.21,10,2.22,20,3.68,30s3.66,20,5,30.05c.35,2.6-.4,5.34-1,8.06l-2.06-.68c-.24-3.55-.26-5.64-.54-7.7-3.28-24.25-6.62-48.5-9.84-72.76-.16-1.25.66-2.62,1-3.93,1.05,1,2.59,1.85,3.08,3.09,8.4,21.2,16.64,42.47,25,63.67,1,2.58,2.78,4.87,4.43,7.7C364.47,452.7,366.59,445.72,366,437.08Z"/>
    <path d="M213.08,480.55c-2.27-7-2.53-6.89-9.83-5.73-.62.1-1.27,0-2.24-1l8.07-2.65a11.14,11.14,0,0,0-.31-2.82c-.13-.33-.26-.66-.38-1-8.28-21.51-10.51-44.18-13.38-66.84s-7.41-45.31-11.23-67.95c-.17-1-.74-2-.64-2.89a3.48,3.48,0,0,1,1.37-2.28c.32-.22,1.72.42,2,1a24.55,24.55,0,0,1,1.66,4.68c7,26,10.21,52.66,12.47,79.38,1.94,22.9,9,44.3,17.26,65.42.47,1.21,2.94,2.48,4.34,2.33,11.91-1.27,24-1.92,35.58-4.77,5.52-1.37,10.84-6.37,14.67-11s5.8-10.78,8.13-16.45c1.24-3,2.79-4,6-3.8a44.12,44.12,0,0,1,27.1,11c5.95,5.16,12.94,9.12,20.6,14.39l2.06.68c-.16.74-.31,1.49-.43,2.23-3.24-.81-6.85-1-9.65-2.58-7.21-4.13-14.45-8.41-20.94-13.56-5.75-4.56-12.18-4.68-18.92-5.38-2.35,4.71-4.43,9.61-7.14,14.13-5.1,8.49-11.31,14.71-22.55,15.3-11.74.61-23.38,3.33-35,5.29C217.21,486.41,214.57,485.16,213.08,480.55Z"/>
    <path d="M56.38,191.33a13.82,13.82,0,0,1-.2-5.64,12.66,12.66,0,0,1,4.34-7.25,277.72,277.72,0,0,1,24-19.36c14.71-10.3,30.08-19.67,44.78-30,17-11.93,36.11-17.42,56.31-20.09,3.78-.5,7.6-.75,11.4-1.11h4c9.63.66,19.27,1.16,28.88,2,31.1,2.74,54,17.43,70.21,44.67,21.33,35.87,32.89,74.8,40.73,115.24.23,1.2.49,2.4.8,3.59l-.9.24c-3-10.77-6.13-21.51-8.71-32.39-6.66-28.09-17.41-54.32-31.28-79.67-16.32-29.83-40.33-46-74.11-48.41C200.49,111.32,174.57,111,150,122a138,138,0,0,0-17.87,9.83q-22.89,14.67-45.44,29.9a217.71,217.71,0,0,0-20.6,15.66c-3,2.6-4.76,6.66-7.08,10.06Z"/>
    <path d="M46.57,218.16c2.91-12.1,5.7-24.23,9.47-36.18-.24,1.22-.47,2.43-.7,3.65-1.63,8.52-3.17,17.05-5,25.52C41.65,251.33,36.17,291.85,37,333.06a326.81,326.81,0,0,0,15.87,95.76c6.1,18.65,16.91,34.62,29.6,49.39a17.94,17.94,0,0,0,1.79,1.58c-3.24-13.64-6.78-27-9.51-40.43-3.26-16.09-4.82-32.33-.59-48.55a48.16,48.16,0,0,1,3-8.44c.62-1.29,2.19-2.12,4.27-2.79-8.42,26.47-3.33,52,3,78H130c-.75-9.22-1.78-18.44-2.2-27.7-1-22.47-1.21-45-2.75-67.41-1.2-17.4-4-34.69-5.94-52a20.34,20.34,0,0,1,.43-4.36c1.37,1.11,3.69,2,4,3.38,2,9.76,4.58,19.55,5.18,29.45,1.81,29.75,2.62,59.57,4.21,89.35.7,13.1,2.33,26.15,3.58,39.75,24,.77,47.18-3.51,70.28,0l.18,1.38a21.53,21.53,0,0,1-3.75.77c-20.8.68-41.61,1.2-62.41,2-4.87.19-8.08-.88-9-6.19-.19-1.09-1.72-2.76-2.67-2.79-14-.48-28-.72-41.94-1a7.24,7.24,0,0,0-1.56.62c2.67,8.74,5.38,17.11,7.72,25.59.52,1.93-.27,4.22-.45,6.34-2-1.07-4.5-1.69-5.88-3.28-6.33-7.29-12.56-14.69-18.43-22.35-18-23.43-25.68-50.87-30.48-79.39C28.4,331.87,33,274.8,46.57,218.16Z"/>
  </g>
</svg>
