<?xml version="1.0" encoding="utf-8"?>
<!-- Generator: Adobe Illustrator 27.2.0, SVG Export Plug-In . SVG Version: 6.00 Build 0)  -->
<svg version="1.1" id="Layer_1" xmlns="http://www.w3.org/2000/svg" xmlns:xlink="http://www.w3.org/1999/xlink" x="0px" y="0px"
	 viewBox="0 0 400 600" style="enable-background:new 0 0 400 600;" xml:space="preserve">
<style type="text/css">
	.st0{stroke:#000000;stroke-width:4;stroke-miterlimit:10;}
</style>
<g>
	<path class="st0" fill="$[hairColor]" stroke="#000000" stroke-width="4" d="M404,424.8c-0.1-3.5-12.5-3-24-9.8c-13.5-8-18.2-21.5-20-26.8c-5.9-17.1-0.1-29-2-47.3
		c-0.1-1.1-0.9-8.9-1.9-19.6c-0.1-0.8-0.1-1.4-0.2-1.7c-3.9-9.1-7.1-18.5-9.2-28.1c-8.6-14.7-25.4-65.6-67-76.4
		c-40.1-10.4-62.6,23.4-112.8,13.4c-26.8-5.3-38.3-17.1-60.4-12.5c-11,2.3-18.9,7.5-23.9,11.6c-2.5,8.3-6.3,21.3-10.3,37.5
		c-3.6,14.7-3.6,16.7-6.4,26c-6.2,20.7-13.1,33.8-16,39c-1.5,2.7-5.2,9.2-11,17c-6,8.1-9,12.1-14,15c-9.4,5.5-17.5,3.2-18,6
		c-0.6,3.5,11.8,8.5,16,10c5.4,1.9,8.5,2,10,2c4.3,0,7.9-1.3,10-2c4.4-1.5,6.8-3.3,7-3c0.2,0.3-3.9,3.6-9,7c-9.8,6.5-12.6,6.4-18,11
		c-1.6,1.4-6,5.2-9,11c-4.3,8.3-3.9,16.4-3,24c0.8,6.6,2.4,18.4,10.1,31.6c1.4,2.4,9.1,14.7,23.7,25.3c3.4,2.5,7.2,4.7,11.6,6.8
		c11.5,5.4,25.2,10.3,27.3,8c2.3-2.5-12.1-10.1-20.5-26.8c-6.1-12.1-6.8-24.5-4.6-25c2.3-0.5,5.3,12.4,18.2,25.9
		c17.6,18.4,42.4,26.2,50.1,28.6c22.3,6.8,49.7,8.9,50.1,8.9c-36.1-14.8-45.6-37.5-45.6-37.5c-2.3-5.4-8.9-14.7-2.3-17
		c1.7-0.6,9.2,25.5,35.3,40.2c9.5,5.3,18.7,7.5,31.9,10.7c18.1,4.3,28.9,6.8,39.9,2.7c11.4-4.3,16.5-13.3,17.1-14.3
		c4.1-7.5,2-13.2,3.4-13.4c2.4-0.2,11.1,15.2,3.4,25c-3.3,4.2-8.4,5.7-8,6.2c0.7,0.9,14.8-2.8,26.2-11.6c4.7-3.6,10.9-8.4,12.5-16.1
		c1.5-6.8-2.1-11.3-1.1-11.6c1.6-0.4,13.5,13.3,8,23.2c-1.8,3.3-4.9,5.1-4.6,5.4c0.8,0.6,14.1-7.7,27.3-17.9
		c13.8-10.6,20.8-15.9,26.2-24.1c3.1-4.6,9.7-14.7,9.1-27.7c-0.6-12.5-7.6-21.6-5.7-22.3c1.7-0.6,5.7,6.9,17.1,13.4
		c5.2,2.9,13.2,7.5,22.8,6.2C396.5,430.2,404.1,427.5,404,424.8z"/>
	<path class="st0" fill="$[hairColor]" stroke="#000000" stroke-width="4" d="M123.2,255.1c-0.5,7.3-2,18.3-6.6,31.2c-6,16.9-15,30.1-26.3,46.4c-13.3,19.3-17,21.2-21.9,33
		c-3.2,7.9-7.2,18.1-5.5,31.2c1.7,12.7,7.9,21.8,13.1,29.5c4.7,6.9,11.5,14.9,13.1,14.3c1.7-0.7-4.4-9.5-6.6-23.2
		c-2.1-13.5,0.8-24.3,2.2-29.5c3.7-13.2,10.3-23.2,15.3-29.5"/>
	<path class="st0" fill="$[hairColor]" stroke="#000000" stroke-width="4" d="M268.7,287.2c-3.9,18.9-2.1,33.9,0,43.7c3.6,16.6,11,30.6,14.2,36.6c8.9,16.6,14.4,20.3,18.6,34.8
		c3.8,13.2,2.6,22.1,2.2,25c-1.5,9.9-5.6,17.5-8.8,22.3"/>
	<path class="st0" fill="$[hairColor]" stroke="#000000" stroke-width="4" d="M177.9,356.9"/>
	<path class="st0" fill="$[hairColor]" stroke="#000000" stroke-width="4" d="M214,236.4c-5.9,22.5-12.2,41.5-17.5,56.2c-9.9,27.4-14.8,41.1-21.9,52.7c-9.6,15.7-16.3,21.3-20.8,36.6
		c-4.3,14.9-3.1,27.3-2.2,33c1.9,12,5,32.1,25.2,45.5c5,3.3,16.7,10.1,36.1,11.6"/>
</g>
<path class="st0" d="M327,100"/>
</svg>
