<?xml version="1.0" encoding="utf-8"?>
<!-- Generator: Adobe Illustrator 27.2.0, SVG Export Plug-In . SVG Version: 6.00 Build 0)  -->
<svg version="1.1" xmlns="http://www.w3.org/2000/svg" xmlns:xlink="http://www.w3.org/1999/xlink" x="0px" y="0px"
	 viewBox="0 0 400 600" style="enable-background:new 0 0 400 600;" xml:space="preserve">
<style type="text/css">
	.st0{display:none;}
	.st1{display:inline;opacity:0.31;}
	.st2{stroke:#000000;stroke-width:4;}
	.st3{display:inline;}
</style>
<g id="Layer_1" class="st0">
	<g class="st1">
		<path class="st2" fill="$[hairColor]" stroke="#000000" stroke-width="4" d="M404,424.8c-0.1-3.5-12.5-3-24-9.8c-13.5-8-18.2-21.5-20-26.8c-5.9-17.1-0.1-29-2-47.3
			c-0.1-1.1-0.9-8.9-1.9-19.6c-0.1-0.8-0.1-1.4-0.2-1.7c-3.9-9.1-7.1-18.5-9.2-28.1c-8.6-14.7-25.4-65.6-67-76.4
			c-40.1-10.4-62.6,23.4-112.8,13.4c-26.8-5.3-38.3-17.1-60.4-12.5c-11,2.3-18.9,7.5-23.9,11.6c-2.5,8.3-6.3,21.3-10.3,37.5
			c-3.6,14.7-3.6,16.7-6.4,26c-6.2,20.7-13.1,33.8-16,39c-1.5,2.7-5.2,9.2-11,17c-6,8.1-9,12.1-14,15c-9.4,5.5-17.5,3.2-18,6
			c-0.6,3.5,11.8,8.5,16,10c5.4,1.9,8.5,2,10,2c4.3,0,7.9-1.3,10-2c4.4-1.5,6.8-3.3,7-3s-3.9,3.6-9,7c-9.8,6.5-12.6,6.4-18,11
			c-1.6,1.4-6,5.2-9,11c-4.3,8.3-3.9,16.4-3,24c0.8,6.6,2.4,18.4,10.1,31.6c1.4,2.4,9.1,14.7,23.7,25.3c3.4,2.5,7.2,4.7,11.6,6.8
			c11.5,5.4,25.2,10.3,27.3,8c2.3-2.5-12.1-10.1-20.5-26.8c-6.1-12.1-6.8-24.5-4.6-25c2.3-0.5,5.3,12.4,18.2,25.9
			c17.6,18.4,42.4,26.2,50.1,28.6c22.3,6.8,49.7,8.9,50.1,8.9c-36.1-14.8-45.6-37.5-45.6-37.5c-2.3-5.4-8.9-14.7-2.3-17
			c1.7-0.6,9.2,25.5,35.3,40.2c9.5,5.3,18.7,7.5,31.9,10.7c18.1,4.3,28.9,6.8,39.9,2.7c11.4-4.3,16.5-13.3,17.1-14.3
			c4.1-7.5,2-13.2,3.4-13.4c2.4-0.2,11.1,15.2,3.4,25c-3.3,4.2-8.4,5.7-8,6.2c0.7,0.9,14.8-2.8,26.2-11.6
			c4.7-3.6,10.9-8.4,12.5-16.1c1.5-6.8-2.1-11.3-1.1-11.6c1.6-0.4,13.5,13.3,8,23.2c-1.8,3.3-4.9,5.1-4.6,5.4
			c0.8,0.6,14.1-7.7,27.3-17.9c13.8-10.6,20.8-15.9,26.2-24.1c3.1-4.6,9.7-14.7,9.1-27.7c-0.6-12.5-7.6-21.6-5.7-22.3
			c1.7-0.6,5.7,6.9,17.1,13.4c5.2,2.9,13.2,7.5,22.8,6.2C396.5,430.2,404.1,427.5,404,424.8z"/>
		<path class="st2" fill="$[hairColor]" stroke="#000000" stroke-width="4" d="M123.2,255.1c-0.5,7.3-2,18.3-6.6,31.2c-6,16.9-15,30.1-26.3,46.4c-13.3,19.3-17,21.2-21.9,33
			c-3.2,7.9-7.2,18.1-5.5,31.2c1.7,12.7,7.9,21.8,13.1,29.5c4.7,6.9,11.5,14.9,13.1,14.3c1.7-0.7-4.4-9.5-6.6-23.2
			c-2.1-13.5,0.8-24.3,2.2-29.5c3.7-13.2,10.3-23.2,15.3-29.5"/>
		<path class="st2" fill="$[hairColor]" stroke="#000000" stroke-width="4" d="M268.7,287.2c-3.9,18.9-2.1,33.9,0,43.7c3.6,16.6,11,30.6,14.2,36.6c8.9,16.6,14.4,20.3,18.6,34.8
			c3.8,13.2,2.6,22.1,2.2,25c-1.5,9.9-5.6,17.5-8.8,22.3"/>
		<path class="st2" fill="$[hairColor]" stroke="#000000" stroke-width="4" d="M177.9,356.9"/>
		<path class="st2" fill="$[hairColor]" stroke="#000000" stroke-width="4" d="M214,236.4c-5.9,22.5-12.2,41.5-17.5,56.2c-9.9,27.4-14.8,41.1-21.9,52.7c-9.6,15.7-16.3,21.3-20.8,36.6
			c-4.3,14.9-3.1,27.3-2.2,33c1.9,12,5,32.1,25.2,45.5c5,3.3,16.7,10.1,36.1,11.6"/>
	</g>
	<path class="st3" fill="$[hairColor]" stroke="#000000" stroke-width="4" d="M327,100"/>
</g>
<g id="Layer_2">
	<path class="st2" fill="$[hairColor]" stroke="#000000" stroke-width="4" d="M75.6,220.7c-14.4,17-16.7,30.1-16,39.1c0.1,1.4,2,9,5.8,24.4c2.1,8.5,3.8,17.1,5.8,25.6
		c2.5,10.6,3.5,14.2,1.9,19.2c-1.3,4.2-3.9,6.9-9,12.2c-4.4,4.6-10.6,11-20.5,15.4c-9.3,4.1-10.9,1.7-17.3,5.8
		c-8.5,5.4-12.2,13.8-13.5,17.3c-2.9,8-2.1,14.8-1.3,21.2c0.5,4.4,1.1,9.3,3.8,14.7c3.6,7.2,8.7,11.3,14.7,16
		c9.7,7.5,11.6,6.1,21.2,13.5c7.9,6.1,13,10.2,14.7,17.3c1.8,7.4-1.2,13.8-1.9,15.4c-3.8,8.2-11.3,12.6-17.3,16
		c-5.4,3.1-5.7,2.3-8.3,4.5c-5.6,4.7-9.9,13.7-7.7,22.4c1.6,6.7,6.4,10.6,9,12.8c1.1,0.9,3.5,2.8,10.3,5.8c7.6,3.4,13.7,5,21.2,7.1
		c12,3.3,18,4.9,18.6,5.1c20.1,6.7,19.4,14.4,34.6,17.9c10.1,2.4,9.7-1.2,27.6,1.3c11.6,1.6,14,3.4,19.9,1.9
		c10.1-2.6,16.8-11.5,19.2-14.7c5.3-7.1,3.4-8.7,8.3-14.1c1.1-1.2,10.8-11.6,22.4-10.3c2.4,0.3,5.6,1.9,12.2,5.1
		c7.1,3.5,9.6,5.3,14.1,7.7c10.6,5.7,17.2,9.2,25.6,9c7.3-0.2,12.9-3.1,19.2-6.4c3-1.6,6.7-4.3,14.1-9.6
		c12.5-9.1,13.5-10.8,14.1-12.2c2.8-6.6-0.4-12,3.2-14.7c1.6-1.2,3.6-1,7.7-0.6c5.9,0.6,11.2,2.1,18.6,5.1c9.2,3.7,8.5,4.4,10.9,4.5
		c7.8,0.3,15.6-7,18.6-14.7c1.8-4.7,1.4-8.6,0.6-15.4c-0.5-4.8-1.7-14.9-8.3-25c-0.9-1.4-0.4-0.4-11.5-13.5
		c-8-9.4-9.4-11.1-10.9-14.1c-2.5-5-5.7-11.2-3.8-17.3c0.9-3,2.3-3.8,16-15.1c8.2-6.8,10.2-8.6,12.8-11.8c4.9-6.1,6.7-11.1,7.1-12.2
		c0.5-1.4,2-6.2,1.9-13.5c-0.2-14-6.4-24.6-9.6-30.1c-2.9-4.9-7.6-12.8-16.7-19.2c-5.7-4-6.8-3-11.5-7.1
		c-2.6-2.2-11.7-9.9-12.2-21.2c-0.1-2.2,0.6-5.1,1.9-10.9c2.1-9,3.1-13.5,6.4-16.7c3.8-3.6,5.9-1.5,12.2-5.1
		c1.9-1.1,10.3-6.2,12.8-15.4c1.3-4.6,0.2-9-1.9-17.9c-2-8.3-3.1-12.9-6.4-17.9c-4.9-7.4-11.2-10.8-16-13.5
		c-13.1-7.1-25.4-7.1-30.1-7.1c-1.3,0-1.2,0.1-12.2,1.3c-25.4,2.8-27.6,2.8-30.1,2.6c-2.5-0.3-2.7-0.5-23.7-9.6
		c-13.1-5.6-21.4-9.2-32.1-12.8c-11.3-3.9-14.7-4.3-17.3-4.5c-5-0.3-7.7,0.3-22.4,3.2c-19.9,3.9-19.7,3.7-21.8,4.5
		c-7.3,2.9-12.1,6.6-21.8,14.1c-6.6,5.1-6.5,5.8-14.1,11.5c-8.3,6.3-7.8,5.1-15.4,10.9c-8,6.1-10.3,8.8-16,10.9
		C81.8,220.3,78.1,220.6,75.6,220.7z"/>
	<path class="st2" fill="$[hairColor]" stroke="#000000" stroke-width="4" d="M81.4,249.7c4.7,27.3,1.1,22.6,5.8,43.6c5.8,26.3,9.8,26.4,10.3,41.7c0.3,9.6,0.6,22.5-7.7,30.8
		c-5.7,5.6-8.9,2.6-22.4,10.3c-6.2,3.5-15,8.6-21.2,18.6c-2.8,4.6-5.7,9.4-5.1,15.4c0.9,9.2,9.5,15.1,16.7,19.9
		c15.1,10.1,20.2,5.9,30.8,14.1c2.1,1.7,15.2,12.2,16.7,29.5c1,11.4-3.3,23.4-10.9,31.4c-7.8,8.3-15.2,8-16.7,14.7
		c-1.4,6.7,4.4,13.3,9,18.6c6.7,7.7,13.9,10.6,16.7,11.5c4.5,1.6,11.2,4,14.7,0.6c2.5-2.4,2.9-7.3,1.3-10.9
		c-3-6.9-11.4-5.3-14.7-12.8c-0.2-0.6-1.9-4.3-0.6-8.3c1.1-3.6,3.8-5.5,5.8-7.1c3.2-2.5,7.7-7.2,16.7-16.7
		c5.9-6.2,8.9-9.4,10.3-13.5c2-5.8,1.2-11,0.6-14.7c-0.9-5.8-2.9-10.1-7.1-18.6c-3.7-7.6-5.5-11.3-7.7-14.1
		c-6.8-8.6-15.5-12.7-18.6-14.1c-6.6-3-8.2-2.2-14.1-5.8c-4.8-2.9-9.7-5.9-10.3-10.9c-0.7-5.7,4.6-10.5,5.8-11.5
		c1.9-1.7,3.1-2.1,8.3-4.5c0,0,8.7-4,17.9-9c7.4-4,8.7-5.3,9.6-6.4c1.6-2,3.2-4.8,4.5-11.5c0.9-4.9,2.2-12,0.6-21.8
		c-1.5-9.6-5-16.4-9-24.4c-5.4-10.7-7.6-11.3-10.3-19.2c-1.7-5.1-2.2-9.6-3.2-18.6c-0.9-7.8-1.8-16.7-0.6-28.2
		c0.5-5.1,1.3-9.3,1.9-12.2c2.6-4.5,2.3-10-0.6-14.1c-3.3-4.6-9.3-6.5-13.8-5c-6.6,2.2-8.2,11.2-9.3,17.2
		C80,241.5,81.1,247.8,81.4,249.7z"/>
	<path class="st2" fill="$[hairColor]" stroke="#000000" stroke-width="4" d="M263.5,197.1c12.8,1.6,23.5,3.5,31.4,5.1c10.2,2.1,14.7,3.4,19.2,7.1c2.2,1.8,8.8,7.2,10.3,16.7
		c0.2,1.3,1.4,9.4-3.2,16.7c-1.4,2.2-2.3,2.7-12.8,11.5c-5.7,4.8-8.5,7.1-9,7.7c-3,3.8-3.5,7.3-4.5,25c-1.1,18.9-1,21.6,0.6,25.6
		c2.8,6.8,7.4,11.3,9,12.8c3.8,3.7,5.1,3.4,13.5,9c8.4,5.6,12.5,8.4,15.4,12.8c4.2,6.6,4.4,13.3,4.5,15.4c0.2,8.3-3.1,14.4-5.1,17.9
		c-3.6,6.4-5.4,5.9-11.5,14.7c-3.8,5.5-6.1,8.9-7.7,14.1c-0.6,2.1-2.7,9.5-0.6,17.9c1.6,6.6,5.8,11.5,14.1,21.2
		c9.6,11.1,12.4,11.9,13.5,17.3c1.8,9.3-4.5,17.7-5.1,18.6c-3.2,4.2-7.1,6.3-9.6,7.7c-7.5,4.1-10.2,2.4-14.1,5.1
		c-9.3,6.6-6.4,25.7-7.1,25.6c-0.5,0-0.8-12.8-1.3-12.8c-0.5,0,2.3,17.6-6.4,24.4c-2.5,1.9-6.6,2.6-14.7,3.8c-6.7,1-9,0.5-10.9-0.6
		c-2.6-1.6-3.6-4.2-4.5-6.4c-2.7-7.1-1-13.8,0-17.3c1.3-4.6,3.1-7.8,6.4-13.5c4-6.9,4.4-5.7,7.1-10.9c3.1-6,3.3-9,7.1-12.2
		c2.3-1.9,4.6-2.8,5.8-3.2c7.3-2.6,10.8,0.7,14.7-1.9c3.1-2.1,4.3-6.4,3.8-9.6c-0.5-3.7-3-5.8-8.3-10.3
		c-15.7-13.1-18-15.2-19.9-19.2c-2.5-5.3-2.6-10.3-2.6-12.2c0-4.6,1.5-9.1,4.5-17.9c1.7-5.1,2.6-7.6,3.8-10.3
		c0.7-1.4,2.5-5,9.6-14.7c6.4-8.7,8.7-10.9,8.3-14.7c-0.3-3-2.1-5.1-3.8-7.1c-11.3-12.4-16.9-14.3-24.4-23.1
		c-1.4-1.7-6.6-8-10.9-17.3c-0.8-1.7-2.1-4.5-3.2-8.3c-0.7-2.3-2.3-8.1-2.6-20.5c-0.3-11.6-0.4-17.4,1.9-23.1
		c2.5-6.3,6.6-10.9,7.7-12.2c5.4-6.1,8.7-6.5,11.5-12.2c0.8-1.7,3.5-7.2,1.3-11.5c-1.1-2.2-3.1-3.3-7.7-5.1
		c-13.2-5.1-16.9-3.2-20.5-7.1c-4.1-4.3-5.3-12.9-1.3-16.7C257.8,196.5,262,196.9,263.5,197.1z"/>
	<path class="st2" fill="$[hairColor]" stroke="#000000" stroke-width="4" d="M164.1,192.6c-2.3,14.1-9.5,20.7-14.7,30.8c-6.7,12.9-6.9,25.2-7.1,30.8c-0.3,13.5,3.3,23.6,7.7,35.9
		c3.7,10.5,5.6,15.7,10.3,20.5c5.2,5.4,9.2,5.9,15.4,13.5c3.4,4.1,6.2,7.6,7.1,12.8c1.4,8.2-2.7,14.8-3.8,16.7
		c-2.7,4.4-6,6.8-10.9,10.3c-11.8,8.3-18.6,8.3-21.8,15.4c-0.6,1.4-0.8,3.3-1.3,7.1c-0.9,7.2-1.8,15,1.3,23.7
		c0.9,2.5,3.4,9.2,9.6,14.7c5.4,4.8,8,3.7,20.5,10.3c5.6,3,9.5,5.1,14.1,9c4.7,4,9.5,8.3,11.5,15.4c0.7,2.3,2.5,8.7-0.6,14.1
		c-1.4,2.4-3.6,4.3-14.1,8.3c-15.8,6.1-20.4,5.6-23.1,10.3c-2.1,3.7-1.5,8-0.6,13.5c0.5,3.5,1.3,8.5,5.1,13.5c5,6.5,11.7,8.3,14.1,9
		c3.9,1,7.5,2,10.9,0c3.5-2,5.6-6.4,5.1-10.3c-0.7-5.2-5.9-5.6-6.4-10.3c-0.6-5.3,5.2-11.6,10.9-12.8c2.7-0.6,3,0.4,7.7,0
		c1.2-0.1,4.1-0.4,10.3-2.6c6-2.1,9-3.1,10.9-4.5c7.2-5.2,8-15.2,8.3-18.6c0.2-2.1,1.2-13.7-6.4-22.4c-3.8-4.4-8.1-6.2-16-9.6
		c-7.7-3.3-9.7-2.7-16.7-6.4c-4.5-2.4-3.6-2.7-10.9-7.1c-7-4.2-8.8-4.5-12.2-7.7c-3.8-3.5-5.7-6.9-6.4-8.3c-0.9-1.8-2.1-4-2.6-7.1
		c-1.1-7.2,2.4-12.9,3.2-14.1c1.6-2.5,2.5-2.6,9.6-8.3c7-5.6,6.3-5.7,12.8-10.9c7.7-6.2,8.1-5.6,11.5-9c4.4-4.3,8-7.8,9.6-13.5
		c1.9-6.8-0.3-12.7-1.9-17.3c-2.5-7-6.4-11.6-9.6-15.4c-3.2-3.8-6.1-6.3-8.3-8.3c-8.5-7.5-9.9-6.1-13.5-10.3
		c-5.4-6.3-6.2-14.3-7.1-23.1c-0.3-3.1-0.7-7.6,0-13.5c2.4-19.2,14.9-36.2,16.7-38.5c0.7-1,2.2-2.9,3.2-5.8
		c2.2-6.4,0.3-12.4-0.6-15.4c-1.1-3.6-3.1-9.7-9-14.1c-2.3-1.7-8.1-6-14.1-3.8c-4.4,1.6-6.4,5.7-7.1,7.1
		C164.7,187.7,164.5,189.9,164.1,192.6z"/>
</g>
</svg>
