<svg id="Capa_1" data-name="Capa 1" xmlns="http://www.w3.org/2000/svg" viewBox="0 0 400 600">
  <defs>
    <style>
      .cls-1 {
        fill: #fff;
      }
    </style>
  </defs>
  <title>longhairf_1</title>
  <g>
    <path d="M315,563.34H259c-12.59-1-25.17-2.29-37.78-3q-83.07-4.76-166.14-9.26c-2.08-.12-4-.42-3-3.61a40.11,40.11,0,0,0,2-10.08q1-21.72,1.54-43.46c.73-31.65,1.89-63.3,1.75-94.94-.1-21.8-2.08-43.59-3.23-65.39-.06-1,.14-2.28-.4-2.9-3-3.56-.82-6.72.83-9.64,4.21-7.44,11.16-11.55,19.12-13.4q19.94-4.62,40.14-8.06c11-1.85,22.09-2.86,33.15-4.25h22c1.46.27,2.91.66,4.39.79,31.57,2.93,62.54,9.12,93.31,16.63,16,3.9,32.19,6.93,48.27,10.48a157.86,157.86,0,0,1,15.31,4.14,107,107,0,0,1,11.91,5c1.2.57,2.08,1.83,3.72,3.34l-5,1.12c1.3,22.65,2.89,44.92,3.81,67.22,1.87,45.44,3.37,90.89,5.08,136.33a33,33,0,0,0,1.05,5.87c.74,3.25,1.19,6-3.77,5.83a10.16,10.16,0,0,0-5.67,1.7A55.94,55.94,0,0,1,315,563.34ZM59,546.44c1.59.09,2.88.18,4.18.24,41.58,2.08,83.17,4,124.74,6.26C226,555,264,558.28,302.23,558.09c15.49-.07,29.51-3.08,42.53-11.78a50.38,50.38,0,0,1-.65-5.37q-1.53-51.18-3-102.38c-.92-32.81-1.76-65.61-2.72-98.42-.05-1.64-.47-4.3-1.48-4.74-6.53-2.81-13.09-5.89-20-7.49-17.8-4.15-35.72-7.79-53.67-11.26-27.43-5.31-54.78-11.33-82.43-15.17-32.23-4.48-64.11,1-95.69,7.47A85,85,0,0,0,66.29,315c-7.13,3.33-11.34,9-9.79,17.71.73,4.07.55,8.3.91,12.45,3.25,36.69,5.68,73.41,4.49,110.28C60.94,485.6,60,515.72,59,546.44Z"/>
    <path fill="$[hairColor]" d="M59,546.44c1-30.72,1.92-60.84,2.88-91,1.19-36.87-1.24-73.59-4.49-110.28-.36-4.15-.18-8.38-.91-12.45C55,324,59.16,318.37,66.29,315A85,85,0,0,1,85.2,309c31.58-6.42,63.46-11.95,95.69-7.47,27.65,3.84,55,9.86,82.43,15.17,17.95,3.47,35.87,7.11,53.67,11.26,6.87,1.6,13.43,4.68,20,7.49,1,.44,1.43,3.1,1.48,4.74,1,32.81,1.8,65.61,2.72,98.42q1.43,51.19,3,102.38a50.38,50.38,0,0,0,.65,5.37c-13,8.7-27,11.71-42.53,11.78C264,558.28,226,555,187.94,552.94c-41.57-2.27-83.16-4.18-124.74-6.26C61.9,546.62,60.61,546.53,59,546.44ZM90.7,532.71l2-1.26c-1.3-2.94-2.78-5.8-3.87-8.81-4.59-12.71-5.44-26-5.93-39.34-1.29-35.1-2.47-70.22-4-105.31-.53-11.91-2-23.78-3.12-35.67a36.39,36.39,0,0,0-.41,8c1.31,22.77,3.08,45.51,3.9,68.29.85,23.8.68,47.63,1.16,71.44.25,12.18,1.32,24.31,6,35.76C87.33,528.28,89.22,530.41,90.7,532.71ZM272.37,368.15c-.08,1.63-.22,3.27-.23,4.9q-.19,79.93-.38,159.86a45.65,45.65,0,0,0,.2,5.49,10.34,10.34,0,0,0,1.17,2.71l1.37-.23C276.15,483.3,272.65,425.74,272.37,368.15ZM325.27,541l2.11.24c.4-.47,1.18-1,1.16-1.41q-2.61-80.79-5.33-161.59l-1.12,0Zm-224.34-5.63,1.67-.24C93.7,475,97,414.21,93.49,353.76a150.71,150.71,0,0,0-.41,16.18c1.32,47.41,2.55,94.82,4.19,142.22C97.54,519.93,99.66,527.64,100.93,535.38ZM231,533.7c6.72-16,3.72-153.4-3.17-172.64C232.92,418.54,234.75,476.09,231,533.7Zm80.28-157.23V542.55h2.19C315.07,487.15,311.08,431.77,311.32,376.47Z"/>
    <path d="M90.7,532.71c-1.48-2.3-3.37-4.43-4.38-6.92-4.65-11.45-5.72-23.58-6-35.76-.48-23.81-.31-47.64-1.16-71.44-.82-22.78-2.59-45.52-3.9-68.29a36.39,36.39,0,0,1,.41-8c1.07,11.89,2.59,23.76,3.12,35.67,1.56,35.09,2.74,70.21,4,105.31.49,13.35,1.34,26.63,5.93,39.34,1.09,3,2.57,5.87,3.87,8.81Z"/>
    <path d="M272.37,368.15c.28,57.59,3.78,115.15,2.13,172.73l-1.37.23A10.34,10.34,0,0,1,272,538.4a45.65,45.65,0,0,1-.2-5.49q.18-79.93.38-159.86C272.15,371.42,272.29,369.78,272.37,368.15Z"/>
    <path d="M325.27,541l-3.18-162.72,1.12,0q2.69,80.79,5.33,161.59c0,.46-.76.94-1.16,1.41Z"/>
    <path d="M100.93,535.38c-1.27-7.74-3.39-15.45-3.66-23.22-1.64-47.4-2.87-94.81-4.19-142.22a150.71,150.71,0,0,1,.41-16.18C97,414.21,93.7,475,102.6,535.14Z"/>
    <path d="M231,533.7c3.71-57.61,1.88-115.16-3.17-172.64C234.76,380.3,237.76,517.67,231,533.7Z"/>
    <path d="M311.32,376.47c-.24,55.3,3.75,110.68,2.19,166.08h-2.19Z"/>
  </g>
</svg>
