<?xml version="1.0" encoding="utf-8"?>
<!-- Generator: Adobe Illustrator 23.0.5, SVG Export Plug-In . SVG Version: 6.00 Build 0)  -->
<svg version="1.1" id="Capa_1" xmlns="http://www.w3.org/2000/svg" xmlns:xlink="http://www.w3.org/1999/xlink" x="0px" y="0px"
	 viewBox="0 0 400 600" style="enable-background:new 0 0 400 600;" xml:space="preserve">
<style type="text/css">
	.st0{fill:none;stroke:#000000;stroke-width:2;stroke-miterlimit:10;}
</style>
<title>longhair</title>
<g>
	<g id="XMLID_1_">
		<g>
			<path fill="$[hairColor]" d="M389.1,549.5l-1.8,0.7c-0.6-1.2-1.5-2.4-2.2-3.6c-0.1-0.2-0.2-0.3-0.2-0.5c-0.2-0.5-0.4-1.1-0.4-1.7
				c-0.7-21.9-8.4-42.1-16.3-62c-18-45.3-29.3-92.3-37.9-140.1c-3.2-17.5-6.1-35.1-9.3-52.7l1.8-0.3c5.1,26.5,10.3,52.9,15.7,79.4
				c8.4,41.8,21.1,82.2,36.9,121.8c6.7,16.9,12.4,34.1,12.7,52.6C388.2,545.2,388.5,547.4,389.1,549.5z"/>
			<path fill="$[hairColor]"  d="M384.9,546.1l-0.6,0.3c-2.2-0.2-4.4-0.6-6.6-0.7c-16.5-0.6-33-0.5-49.4-1.8c-24.7-2-49.3-5.4-74.1-7.6
				c-14.9-1.3-30-1-44.9-2.3c-28.6-2.3-57.1-4.9-85.6-7.8c-11.8-1.2-23.6-2.4-35-5.3c-11.7-2.9-23.2-4.3-35.1-2.9
				c-10.8,1.2-21.7,0.6-32.3-1.8c-1.7-4.9-2.4-9.6-4.9-13.1c-5.2-7.4-6-15.4-4.9-23.8c1-8.1,2-16.3,4.2-24.1
				c5.4-19.7,9.3-39.5,8.8-60.1c-0.1-3.3-0.1-6.6-0.1-9.8s0-6.6,0.1-9.8C26,342,35,309,51,280l-0.7-0.5c6.8-9.8,10.8-19.7,16.7-29.5
				c2.3-3.2,4.8-6.3,7.7-9.1l2.1,0.2c-0.6,0.6-1.2,1.2-1.8,1.9c12-7,26-9,40.1-9.5c3.7-0.2,7.4-0.5,11-0.6c3.7-0.2,7.4-0.3,11.1-0.4
				c33.6-1.1,66.8,4,100.2,6.2c23.1,1.5,42.9,10.9,62,22.2c6.7,4,12,10.4,17.7,16.1c1.5,1.5,2.4,4.1,2.8,6.3
				c0.4,2.1,0.8,4.2,1.1,6.3l1.8-0.3l0,0l-1.8,0.3c3.1,17.6,6.1,35.2,9.3,52.7c8.6,47.8,19.9,94.9,37.9,140.1
				c7.9,19.9,15.6,40.1,16.3,62C384.5,545,384.6,545.5,384.9,546.1z M366.2,534.6c-0.3-2.8-0.2-4.3-0.6-5.5
				c-4-12-8.1-23.9-12.3-35.8c-3-8.3-6.6-16.4-9.4-24.7c-9.1-27.1-18.1-54.3-26.9-81.6c-6.1-19-11.6-38.2-17.4-57.3
				c-0.6-2.5-1.1-5-1.4-7.5C296.8,337.2,356.8,525,366.2,534.6z M56.6,351.4C57,332,63,313,62.4,292.8c-0.7,3.1-1.1,4.7-1.4,6.2
				c-3,20-5,39-6.3,58.6c-0.4,3.9-0.8,7.8-1.2,11.7c-0.9,7.8-1.9,15.6-3.1,23.4c-3.7,24.1-7.2,48.1-7.2,72.5c0,11.3,4.9,22.4,2.4,34
				c0,0.1,0.5,0.4,0.7,0.5c3.1-5.6,3.3-15.8,0.8-24.1c-0.9-2.8-1.8-5.9-1.6-8.8c0.9-15.8,1.6-31.6,3.3-47.3
				c1.9-18.2,4.2-36.4,6.4-54.6C55.6,360.5,56.1,355.9,56.6,351.4z"/>
			<path fill="$[hairColor]"  d="M384.3,546.7c0.1,0.6,0.2,1.2,0.3,1.7c-2.2,0.6-4.5,1.9-6.7,1.8c-17.8-0.6-35.7-0.8-53.4-2.3
				c-37.5-3.2-74.7-8.8-112.5-9.6c-25.9-0.6-51.8-4.1-77.7-6.4c-12.3-1.1-24.6-1.9-36.8-3.7c-7.5-1.1-14.7-5.2-22.1-5.7
				c-11.7-0.8-23.6,0.2-35.4,0.3c-6.8,0-13.7-0.2-20.5-0.4c-3.9-0.1-6.4-0.9-4.6-6.1c0.8-2.9,0.4-6-1.2-8.6
				c-10.1-14.4-7.1-29.9-4-45.3c1.2-6.2,2.9-12.3,4.9-18.3c4.6-13.6,6.9-27.9,6.7-42.2c-0.1-6.8-0.1-13.5,0-20.2
				c0.1-3.4,0.2-6.7,0.3-10.1C24,340,34,308,51,280c-16,29-25,62-26.6,95.5c-0.1,3.3-0.1,6.6-0.1,9.8s0.1,6.6,0.1,9.8
				c0.5,20.6-3.3,40.4-8.8,60.1c-2.2,7.8-3.2,16-4.2,24.1c-1.1,8.4-0.3,16.4,4.9,23.8c2.5,3.5,3.1,8.3,4.9,13.1
				c10.6,2.4,21.5,3,32.3,1.8c11.9-1.4,23.4,0,35.1,2.9c11.4,2.9,23.2,4.1,35,5.3c28.5,2.9,57,5.5,85.6,7.8
				c14.9,1.2,30,0.9,44.9,2.3c24.7,2.2,49.3,5.6,74.1,7.6c16.4,1.4,32.9,1.2,49.4,1.8c2.2,0.1,4.4,0.4,6.6,0.7L384.3,546.7z"/>
			<path fill="$[hairColor]"  d="M365.6,529c0.4,1.3,0.3,2.8,0.6,5.5c-9.4-9.5-69.4-197.3-68-212.4c0.3,2.5,0.8,5.1,1.4,7.5c5.7,19.1,11.3,38.3,17.4,57.3
				c8.7,27.3,17.8,54.4,26.9,81.6c2.8,8.3,6.5,16.4,9.4,24.7C357.5,505.1,361.5,517.1,365.6,529z"/>
			<path fill="$[hairColor]"  d="M322.8,280.8c0.6,2.7-0.5,5.7,0,8.4h0v0l-1.8,0.3c-0.4-2.1-0.8-4.2-1.1-6.3c-0.4-2.2-1.3-4.7-2.8-6.3
				c-5.6-5.6-10.9-12.1-17.7-16.1c-19.1-11.3-38.9-20.7-62-22.2c-33.4-2.2-66.6-7.4-100.2-6.2c-3.7,0.1-7.4,0.3-11.1,0.4
				c-3.7,0.2-7.4,0.4-11,0.6C101,234,87,236,75,243c0.6-0.7,1.2-1.3,1.8-1.9c9.2-8.9,24-7.3,35.2-10.1c5-0.5,10.2-0.8,15.3-1.1
				c30.8-1.5,61.6,0.9,92.3,4.2c9.8,1.1,19.6,1.7,29.3,3c26.1,3.4,47.6,16.1,66.8,33.5C319,273.6,321.8,276.6,322.8,280.8z"/>
			<path fill="$[hairColor]"  d="M70.3,243.5c1.4-0.9,2.8-1.8,4.3-2.6c-2.9,2.8-5.4,5.8-7.7,9.1c-5.9,9.8-9.9,19.7-16.7,29.5c-0.1,0.2-0.2,0.3-0.3,0.5
				C56,268,59,254,70.3,243.5z"/>
			<path fill="$[hairColor]"  d="M62.4,292.8C63,313,57,332,56.6,351.4c-0.5,4.6-1,9.1-1.6,13.6c-2.2,18.2-4.5,36.4-6.4,54.6c-1.6,15.7-2.4,31.5-3.3,47.3
				c-0.2,2.9,0.8,5.9,1.6,8.8c2.5,8.4,2.3,18.5-0.8,24.1c-0.3-0.2-0.7-0.4-0.7-0.5c2.5-11.6-2.4-22.7-2.4-34
				c0-24.4,3.4-48.4,7.2-72.5c1.2-7.8,2.3-15.6,3.1-23.4c0.4-3.9,0.9-7.8,1.2-11.7C56,338,58,319,61,299
				C61.3,297.5,61.7,295.9,62.4,292.8z"/>
		</g>
		<g>
			<path class="st0" d="M322.8,289.2c5.1,26.5,10.3,52.9,15.7,79.4c8.4,41.8,21.1,82.2,36.9,121.8c6.7,16.9,12.4,34.1,12.7,52.6
				c0.2,2.2,0.5,4.4,1.1,6.5l-1.8,0.7c-0.6-1.2-1.5-2.4-2.2-3.6c-0.1-0.2-0.2-0.3-0.2-0.5c-0.2-0.5-0.4-1.1-0.4-1.7
				c-0.7-21.9-8.4-42.1-16.3-62c-18-45.3-29.3-92.3-37.9-140.1c-3.2-17.5-6.1-35.1-9.3-52.7L322.8,289.2z"/>
			<path class="st0" d="M384.3,546.4l0,0.3c0.1,0.6,0.2,1.2,0.3,1.7c-2.2,0.6-4.5,1.9-6.7,1.8c-17.8-0.6-35.7-0.8-53.4-2.3
				c-37.5-3.2-74.7-8.8-112.5-9.6c-25.9-0.6-51.8-4.1-77.7-6.4c-12.3-1.1-24.6-1.9-36.8-3.7c-7.5-1.1-14.7-5.2-22.1-5.7
				c-11.7-0.8-23.6,0.2-35.4,0.3c-6.8,0-13.7-0.2-20.5-0.4c-3.9-0.1-6.4-0.9-4.6-6.1c0.8-2.9,0.4-6-1.2-8.6
				c-10.1-14.4-7.1-29.9-4-45.3c1.2-6.2,2.9-12.3,4.9-18.3c4.6-13.6,6.9-27.9,6.7-42.2c-0.1-6.8-0.1-13.5,0-20.2
				c0.1-3.4,0.2-6.7,0.3-10.1C24,340,34,308,51,280c-16,29-25,62-26.6,95.5c-0.1,3.3-0.1,6.6-0.1,9.8s0.1,6.6,0.1,9.8
				c0.5,20.6-3.3,40.4-8.8,60.1c-2.2,7.8-3.2,16-4.2,24.1c-1.1,8.4-0.3,16.4,4.9,23.8c2.5,3.5,3.1,8.3,4.9,13.1
				c10.6,2.4,21.5,3,32.3,1.8c11.9-1.4,23.4,0,35.1,2.9c11.4,2.9,23.2,4.1,35,5.3c28.5,2.9,57,5.5,85.6,7.8
				c14.9,1.2,30,0.9,44.9,2.3c24.7,2.2,49.3,5.6,74.1,7.6c16.4,1.4,32.9,1.2,49.4,1.8C379.9,545.8,382.1,546.1,384.3,546.4z"/>
			<path class="st0" d="M76.8,241.1c9.2-8.9,24-7.3,35.2-10.1c5-0.5,10.2-0.8,15.3-1.1c30.8-1.5,61.6,0.9,92.3,4.2
				c9.8,1.1,19.6,1.7,29.3,3c26.1,3.4,47.6,16.1,66.8,33.5c3.3,3,6.1,6,7,10.2c0.6,2.7-0.5,5.7,0,8.4h0v0l-1.8,0.3
				c-0.4-2.1-0.8-4.2-1.1-6.3c-0.4-2.2-1.3-4.7-2.8-6.3c-5.6-5.6-10.9-12.1-17.7-16.1c-19.1-11.3-38.9-20.7-62-22.2
				c-33.4-2.2-66.6-7.4-100.2-6.2c-3.7,0.1-7.4,0.3-11.1,0.4c-3.7,0.2-7.4,0.4-11,0.6C101,234,87,236,75,243
				C75.6,242.3,76.2,241.7,76.8,241.1z"/>
			<path class="st0" d="M74.7,240.9c-2.9,2.8-5.4,5.8-7.7,9.1c-5.9,9.8-9.9,19.7-16.7,29.5c-0.1,0.2-0.2,0.3-0.3,0.5
				c6-12,9-26,20.3-36.5C71.7,242.6,73.2,241.8,74.7,240.9z"/>
			<path class="st0" d="M366.2,534.6c-9.4-9.5-69.4-197.3-68-212.4c0.3,2.5,0.8,5.1,1.4,7.5c5.7,19.1,11.3,38.3,17.4,57.3
				c8.7,27.3,17.8,54.4,26.9,81.6c2.8,8.3,6.5,16.4,9.4,24.7c4.3,11.9,8.3,23.8,12.3,35.8C366,530.3,365.9,531.8,366.2,534.6z"/>
			<path class="st0" d="M62.4,292.8C63,313,57,332,56.6,351.4c-0.5,4.6-1,9.1-1.6,13.6c-2.2,18.2-4.5,36.4-6.4,54.6
				c-1.6,15.7-2.4,31.5-3.3,47.3c-0.2,2.9,0.8,5.9,1.6,8.8c2.5,8.4,2.3,18.5-0.8,24.1c-0.3-0.2-0.7-0.4-0.7-0.5
				c2.5-11.6-2.4-22.7-2.4-34c0-24.4,3.4-48.4,7.2-72.5c1.2-7.8,2.3-15.6,3.1-23.4c0.4-3.9,0.9-7.8,1.2-11.7C56,338,58,319,61,299
				C61.3,297.5,61.7,295.9,62.4,292.8z"/>
		</g>
	</g>
</g>
</svg>
