<svg xmlns="http://www.w3.org/2000/svg" viewBox="0 0 400 600" width="400" height="600">
	<defs>
		<linearGradient id="grd1" gradientUnits="userSpaceOnUse"  x1="200" y1="100" x2="200" y2="310">
			<stop offset="0" stop-color="rgba(0,0,0,.3)"  />
			<stop offset="1" stop-color="rgba(0,0,0,0)"  />
		</linearGradient>
	</defs>
	<style>
		.cornrows { fill: url(#grd1);stroke: none} 
	</style>
		<path id="hair" class="afro2" d="M198.27 56.61C197.27 57.92 196.86 59.93 196.92 63.29C196.98 66.94 197.58 69.16 199.48 72.64C200.85 75.15 201.72 77.39 201.41 77.62C201.11 77.85 199.9 78.03 198.72 78.01C197.54 78 195.36 77.06 193.88 75.93C192.4 74.81 190.72 74.14 190.15 74.45C189.58 74.76 187.69 76.16 185.95 77.56C183.28 79.7 182.66 79.9 182.02 78.85C181.6 78.17 181.25 76.4 181.24 74.91L181.23 72.22C170.92 71.05 169.92 70.64 168.44 68.6C167.49 67.3 165.22 65.47 163.4 64.53C161.57 63.59 159.05 62.04 157.79 61.08L155.5 59.34C146.39 63.84 143.41 65.61 142.99 66.18C142.48 66.88 144.64 71.5 149.7 80.49C153.8 87.8 156.97 93.96 156.74 94.19C156.51 94.41 152.5 92.41 147.83 89.73C143.15 87.05 137.83 84.4 136.01 83.84C134.18 83.28 132.22 83.05 131.65 83.31C131.08 83.58 130.6 84.27 130.59 84.84C130.57 85.41 131.87 87.55 133.48 89.61C135.09 91.66 136.4 93.53 136.41 93.76C136.41 93.99 132.4 94.17 127.5 94.17C119.26 94.16 118.1 94.37 112.35 96.86C108.93 98.34 105.38 99.56 104.47 99.56C103.56 99.56 101.61 100.03 100.14 100.59C97.75 101.51 97.2 101.42 94.96 99.75C93.57 98.72 91.79 97.9 90.99 97.91C90.19 97.93 87.48 99.73 84.97 101.92C82.46 104.1 79.94 106.13 79.37 106.44C78.8 106.75 75.16 105.87 71.28 104.5C67.41 103.13 62.93 102.01 61.33 102.01C59.73 102.01 58.43 102.19 58.43 102.42C58.43 102.65 59.01 104.24 59.72 105.95C60.44 107.66 63.41 112.24 66.33 116.12C69.24 120 71.64 123.82 71.66 124.62C71.68 125.91 70.73 126.07 62.97 126.07L54.26 126.06C28.21 139.7 18.6 144.96 16.09 146.55C13.58 148.14 10.49 150.43 9.22 151.64C7.96 152.84 6.93 154.11 6.94 154.45C6.95 154.79 8.17 155.06 9.65 155.04C11.14 155.03 15.15 153.92 18.57 152.59C22 151.26 24.87 150.24 24.97 150.34C25.06 150.44 23.28 153.22 21.02 156.53C18.76 159.84 16.9 163.2 16.9 164C16.89 165.31 17.52 165.39 23.53 164.83C27.19 164.49 30.2 164.49 30.21 164.83C30.23 165.18 28.65 166.96 26.69 168.8C24.73 170.64 19.39 174.71 14.82 177.85C10.26 180.99 4.94 184.8 3 186.32C0.74 188.09 -0.54 189.75 -0.55 190.95C-0.57 191.97 0.27 193.65 1.31 194.66C2.35 195.68 3.85 196.52 4.65 196.53C5.45 196.54 8.71 194.87 11.91 192.82C15.11 190.77 17.89 189.19 18.1 189.3C18.3 189.41 18.72 190.63 19.02 192C19.55 194.43 19.35 194.62 9.3 200.85C3.66 204.34 -2.55 208.35 -4.49 209.76C-7.28 211.78 -8.01 212.82 -8.01 214.79C-8.02 216.54 -7.34 217.79 -5.74 219C-4.48 219.94 -2.62 220.87 -1.59 221.07C-0.56 221.27 1.12 221.62 2.14 221.86C3.17 222.09 5.22 223.39 6.71 224.76L9.4 227.25C5.22 230.73 2.24 233.44 0.09 235.51C-2.8 238.29 -3.84 239.92 -3.88 241.76C-3.92 243.13 -3.18 245.28 -2.26 246.53C-1.29 247.83 0.23 248.82 1.3 248.83C2.32 248.84 3.65 249.12 4.25 249.45C5.05 249.91 4.51 251.13 2.11 254.21C0.33 256.49 -1.56 259.19 -2.09 260.22C-2.63 261.25 -3.07 262.65 -3.07 263.33C-3.07 264.32 -1.87 264.58 2.74 264.58C5.93 264.58 8.53 264.86 8.52 265.2C8.5 265.55 7.77 267.88 6.88 270.39C6 272.9 5.26 275.6 5.25 276.4C5.23 277.2 6.15 278.23 7.29 278.69C8.43 279.14 9.37 279.8 9.38 280.14C9.38 280.48 8.83 282.63 8.14 284.91C7.45 287.19 6.89 289.71 6.88 290.51C6.87 291.36 7.49 291.96 8.36 291.96C9.19 291.96 10.31 291.49 10.87 290.92C11.67 290.1 11.87 290.23 11.83 291.55C11.81 292.46 12.55 294.23 13.48 295.49C14.44 296.79 15.97 297.78 17.03 297.79C18.06 297.79 19.38 298.07 19.98 298.41C20.79 298.86 20.24 300.08 17.84 303.17C16.06 305.45 14.17 308.15 13.64 309.18C13.1 310.2 12.67 311.6 12.67 312.29C12.66 313.28 13.91 313.53 18.89 313.54L25.11 313.54L21.78 323.08C25.32 326.65 26.9 327.67 27.59 327.66C28.27 327.65 32.57 323.95 37.13 319.45C42.34 314.32 46.52 310.92 48.34 310.33C49.94 309.81 53.02 309.39 55.19 309.4L59.13 309.41C59.1 286.62 59.1 286.59 62 280.79C63.59 277.6 67.03 272.19 69.64 268.77C72.25 265.35 74.9 261.06 75.54 259.23C76.17 257.41 77.61 249.38 78.74 241.4C79.86 233.41 81.72 223.15 82.86 218.58C84 214.02 85.77 208.63 86.79 206.6C87.81 204.57 89.76 202.24 91.13 201.42C92.5 200.61 96.42 199.31 99.85 198.53C105.51 197.25 114.5 197.13 199.82 197.19C271.8 197.24 294.91 197.5 299.37 198.31C302.57 198.89 306.65 200.17 308.45 201.16C310.59 202.34 312.37 204.25 313.63 206.7C314.69 208.75 316.47 214.17 317.6 218.73C318.72 223.29 320.56 233.56 321.67 241.55C322.79 249.53 324.22 257.56 324.85 259.39C325.48 261.21 328.13 265.51 330.73 268.93C333.34 272.36 336.77 277.77 338.36 280.97C341.25 286.77 341.26 286.79 341.23 298.18L341.2 309.59C348.27 309.59 351.16 310.03 352.19 310.56C353.22 311.09 357.97 315.2 362.76 319.69C367.55 324.18 372.12 327.86 372.92 327.86C373.72 327.86 375.34 327.02 376.53 326L378.68 324.13C376.62 317.06 376.03 314.72 376.03 314.38C376.04 314.04 378.65 313.76 381.85 313.76C386.46 313.77 387.66 313.51 387.66 312.52C387.66 311.84 387.22 310.44 386.69 309.41C386.15 308.38 384.27 305.68 382.49 303.39C380.1 300.31 379.55 299.09 380.36 298.63C380.95 298.3 382.28 298.02 383.31 298.01C384.37 298.01 385.9 297.02 386.87 295.72C387.79 294.47 388.54 292.97 388.53 292.4C388.51 291.66 389.22 291.55 391.01 291.99C393.17 292.53 393.51 292.39 393.49 290.96C393.47 290.04 392.94 287.43 392.31 285.15C391.68 282.87 391.41 280.6 391.7 280.11C392 279.62 392.89 278.97 393.69 278.66C394.49 278.35 395.15 277.44 395.16 276.65C395.16 275.85 394.41 272.95 393.49 270.21C392.56 267.48 391.81 265.14 391.82 265.03C391.83 264.91 394.45 264.82 397.64 264.82C402.25 264.83 403.45 264.57 403.45 263.58C403.45 262.9 403.01 261.5 402.48 260.47C401.95 259.45 400.06 256.74 398.29 254.46C395.89 251.37 395.34 250.15 396.15 249.7C396.75 249.36 398.08 249.08 399.1 249.08C400.17 249.07 401.7 248.08 402.66 246.78C403.59 245.53 404.34 243.66 404.32 242.64C404.31 241.61 403.92 240.02 403.46 239.11C403.01 238.2 400.02 235.21 396.83 232.47L391.03 227.49C396.59 222.88 398.96 221.67 400.16 221.69C401.3 221.71 403.54 220.87 405.14 219.82C407.33 218.37 408.09 217.25 408.25 215.23C408.43 212.94 407.96 212.2 404.93 210.01C403 208.61 396.8 204.59 391.16 201.08C381.11 194.84 380.91 194.66 381.45 192.22C381.75 190.85 382.17 189.64 382.38 189.53C382.59 189.41 385.37 191 388.56 193.06C391.75 195.11 395.02 196.8 395.82 196.82C396.62 196.83 398.1 195.99 399.12 194.95C400.14 193.91 400.98 192.22 400.99 191.2C401 189.98 399.79 188.38 397.48 186.57C395.54 185.05 390.23 181.23 385.67 178.08C381.1 174.94 375.77 170.86 373.81 169.02C371.86 167.17 370.27 165.39 370.29 165.05C370.31 164.7 373.32 164.71 376.97 165.05C382.98 165.62 383.61 165.54 383.61 164.22C383.6 163.43 381.74 159.97 379.46 156.55L375.31 150.32C385.6 154.19 389.7 155.31 391.07 155.31C392.44 155.31 393.58 155.03 393.6 154.69C393.62 154.35 392.22 152.74 390.49 151.12C388.76 149.51 384.73 146.7 381.54 144.9C378.35 143.09 369.58 138.42 362.05 134.53C349.52 128.04 348.39 127.27 348.62 125.39C348.76 124.27 351.25 120.17 354.17 116.29C357.08 112.42 360.05 107.85 360.77 106.14C361.48 104.43 362.07 102.84 362.07 102.61C362.07 102.38 360.76 102.2 359.16 102.19C357.57 102.19 353.09 103.31 349.21 104.68C345.33 106.04 341.69 106.91 341.12 106.6C340.55 106.3 338.03 104.26 335.52 102.07C333.01 99.89 330.31 98.08 329.51 98.06C328.71 98.04 326.91 98.87 325.5 99.89C323.95 101.03 321.91 101.7 320.31 101.61C318.87 101.54 314.88 100.16 311.46 98.57C308.04 96.97 303.38 95.2 301.1 94.63C298.44 93.97 294.64 93.8 290.52 94.14C286.98 94.44 284.09 94.4 284.1 94.06C284.1 93.72 285.43 91.76 287.04 89.7C288.66 87.65 289.86 85.41 289.71 84.73C289.56 84 288.59 83.52 287.39 83.56C286.26 83.6 284.31 83.88 283.06 84.18C281.02 84.66 280.82 84.52 281.14 82.86C281.35 81.83 281.72 79.59 281.98 77.88C282.3 75.7 282.13 74.76 281.4 74.75C280.83 74.74 279.38 75.77 278.18 77.03C276.98 78.29 275.44 80.45 274.77 81.82C274.09 83.18 273.02 84.53 272.39 84.8C271.75 85.08 268.62 84.68 265.43 83.92L259.62 82.55C240.97 88.72 234.9 90.51 234.11 90.51C233.3 90.5 230.81 88.1 228.51 85.11C225.04 80.59 223.96 79.71 221.88 79.71C220.51 79.71 218.55 79.33 217.52 78.86C216.49 78.4 214.16 76.08 212.34 73.71C210.52 71.33 207.35 66.23 205.29 62.36C203.24 58.49 201.15 55.19 200.63 55.02C200.12 54.86 199.06 55.57 198.27 56.61Z" fill="$[hairColor]" stroke="#000" stroke-width="4"/>
</svg>