<?xml version="1.0" encoding="UTF-8" standalone="no"?>
<svg
   viewBox="0 0 400 600"
   width="400"
   height="600"
   version="1.1"
   id="svg1831"
   sodipodi:docname="6bracket.svg"
   inkscape:version="1.1.2 (b8e25be8, 2022-02-05)"
   xmlns:inkscape="http://www.inkscape.org/namespaces/inkscape"
   xmlns:sodipodi="http://sodipodi.sourceforge.net/DTD/sodipodi-0.dtd"
   xmlns="http://www.w3.org/2000/svg"
   xmlns:svg="http://www.w3.org/2000/svg">
  <sodipodi:namedview
     id="namedview1833"
     pagecolor="#ffffff"
     bordercolor="#666666"
     borderopacity="1.0"
     inkscape:pageshadow="2"
     inkscape:pageopacity="0.0"
     inkscape:pagecheckerboard="0"
     showgrid="false"
     inkscape:zoom="1.183142"
     inkscape:cx="218.06343"
     inkscape:cy="184.25515"
     inkscape:window-width="1312"
     inkscape:window-height="762"
     inkscape:window-x="128"
     inkscape:window-y="25"
     inkscape:window-maximized="0"
     inkscape:current-layer="svg1831" />
  <defs
     id="defs1826">
    <linearGradient
       id="grd1"
       gradientUnits="userSpaceOnUse"
       x1="200"
       y1="100"
       x2="200"
       y2="310">
      <stop
         offset="0"
         stop-color="rgba(0,0,0,.3)"
         id="stop1821" />
      <stop
         offset="1"
         stop-color="rgba(0,0,0,0)"
         id="stop1823" />
    </linearGradient>
  </defs>
  <style
     id="style1828">
		tspan { white-space:pre }
		.cornrows { fill: url(#grd1);stroke: none} 
	</style>
  <path
     style="fill:$[hairColor];stroke:#000000;stroke-width:3.77953;stroke-linecap:butt;stroke-linejoin:miter;stroke-miterlimit:4;stroke-dasharray:none;stroke-opacity:1"
     d="m 90.308844,201.0741 c 1.78548,5.18497 5.42371,13.29789 10.510806,16.35015 3.75495,2.25297 7.64258,0.63537 11.09475,4.08754 6.19755,6.19755 7.64284,19.45584 19.26981,17.51801 4.63333,-0.77222 5.64803,-11.09474 9.34294,-11.09474 5.26109,0 8.03009,10.36582 11.09474,13.43047 2.42446,2.42446 6.55928,3.81215 9.92688,5.25541 12.8557,5.50959 26.82853,-7.97683 39.12356,-9.34294 8.53632,-0.94848 9.93013,8.75854 18.10194,7.59114 5.76136,-0.82305 11.26564,-15.71739 15.18228,-14.59835 5.41281,1.54652 7.48321,12.78992 18.68588,9.34294 9.4061,-2.89418 0.0689,-14.23202 8.17507,-16.93408 5.60108,-1.86702 13.35571,-2.32078 19.26982,-3.5036 4.36653,-0.87331 9.06375,-7.0072 12.84654,-7.0072 4.9932,0 17.9487,-0.20081 20.43768,-6.42328 2.26998,-5.67495 -38.22604,-1.16117 -40.29819,-1.7263 -32.77163,-8.93772 -49.57334,17.29214 -83.03101,21.33648 -20.15595,2.43643 -81.00714,-33.64482 -99.733496,-24.28165 z"
     id="path1044"
     sodipodi:nodetypes="cssssssssssssssssc" />
  <path
     id="hair"
     class="afro2"
     d="m 198.27,56.61 c -1,1.31 -1.41,3.32 -1.35,6.68 0.06,3.65 0.66,5.87 2.56,9.35 1.37,2.51 2.24,4.75 1.93,4.98 -0.3,0.23 -1.51,0.41 -2.69,0.39 -1.18,-0.01 -3.36,-0.95 -4.84,-2.08 -1.48,-1.12 -3.16,-1.79 -3.73,-1.48 -0.57,0.31 -2.46,1.71 -4.2,3.11 -2.67,2.14 -3.29,2.34 -3.93,1.29 -0.42,-0.68 -0.77,-2.45 -0.78,-3.94 l -0.01,-2.69 c -10.31,-1.17 -11.31,-1.58 -12.79,-3.62 -0.95,-1.3 -3.22,-3.13 -5.04,-4.07 -1.83,-0.94 -4.35,-2.49 -5.61,-3.45 l -2.29,-1.74 c -9.11,4.5 -12.09,6.27 -12.51,6.84 -0.51,0.7 1.65,5.32 6.71,14.31 4.1,7.31 7.27,13.47 7.04,13.7 -0.23,0.22 -4.24,-1.78 -8.91,-4.46 -4.68,-2.68 -10,-5.33 -11.82,-5.89 -1.83,-0.56 -3.79,-0.79 -4.36,-0.53 -0.57,0.27 -1.05,0.96 -1.06,1.53 -0.02,0.57 1.28,2.71 2.89,4.77 1.61,2.05 2.92,3.92 2.93,4.15 0,0.23 -4.01,0.41 -8.91,0.41 -8.24,-0.01 -9.4,0.2 -15.15,2.69 -3.42,1.48 -6.97,2.7 -7.88,2.7 -0.91,0 -2.86,0.47 -4.33,1.03 -2.39,0.92 -2.94,0.83 -5.18,-0.84 -1.39,-1.03 -3.17,-1.85 -3.97,-1.84 -0.8,0.02 -3.51,1.82 -6.02,4.01 -2.51,2.18 -5.03,4.21 -5.6,4.52 -0.57,0.31 -4.21,-0.57 -8.09,-1.94 -3.87,-1.37 -8.35,-2.49 -9.95,-2.49 -1.6,0 -2.9,0.18 -2.9,0.41 0,0.23 0.58,1.82 1.29,3.53 0.72,1.71 3.69,6.29 6.61,10.17 2.91,3.88 5.31,7.7 5.33,8.5 0.02,1.29 -0.93,1.45 -8.69,1.45 l -8.71,-0.01 c -26.05,13.64 -35.66,18.9 -38.17,20.49 -2.51,1.59 -5.6,3.88 -6.87,5.09 -1.26,1.2 -2.29,2.47 -2.28,2.81 0.01,0.34 1.23,0.61 2.71,0.59 1.49,-0.01 5.5,-1.12 8.92,-2.45 3.43,-1.33 6.3,-2.35 6.4,-2.25 0.09,0.1 -1.69,2.88 -3.95,6.19 -2.26,3.31 -4.12,6.67 -4.12,7.47 -0.01,1.31 0.62,1.39 6.63,0.83 3.66,-0.34 6.67,-0.34 6.68,0 0.02,0.35 -1.56,2.13 -3.52,3.97 -1.96,1.84 -7.3,5.91 -11.87,9.05 -4.56,3.14 -9.88,6.95 -11.82,8.47 -2.26,1.77 -3.54,3.43 -3.55,4.63 -0.02,1.02 0.82,2.7 1.86,3.71 1.04,1.02 2.54,1.86 3.34,1.87 0.8,0.01 4.06,-1.66 7.26,-3.71 3.2,-2.05 5.98,-3.63 6.19,-3.52 0.2,0.11 0.62,1.33 0.92,2.7 0.53,2.43 0.33,2.62 -9.72,8.85 -5.64,3.49 -11.85,7.5 -13.79,8.91 -2.79,2.02 -3.52,3.06 -3.52,5.03 -0.01,1.75 0.67,3 2.27,4.21 1.26,0.94 3.12,1.87 4.15,2.07 1.03,0.2 2.71,0.55 3.73,0.79 1.03,0.23 3.08,1.53 4.57,2.9 l 2.69,2.49 c -4.18,3.48 -7.16,6.19 -9.31,8.26 -2.89,2.78 -3.93,4.41 -3.97,6.25 -0.04,1.37 0.7,3.52 1.62,4.77 0.97,1.3 2.49,2.29 3.56,2.3 1.02,0.01 2.35,0.29 2.95,0.62 0.8,0.46 0.26,1.68 -2.14,4.76 -1.78,2.28 -3.67,4.98 -4.2,6.01 -0.54,1.03 -0.98,2.43 -0.98,3.11 0,0.99 1.2,1.25 5.81,1.25 3.19,0 5.79,0.28 5.78,0.62 -0.02,0.35 -0.75,2.68 -1.64,5.19 -0.88,2.51 -1.62,5.21 -1.63,6.01 -0.02,0.8 0.9,1.83 2.04,2.29 1.14,0.45 2.08,1.11 2.09,1.45 0,0.34 -0.55,2.49 -1.24,4.77 -0.69,2.28 -1.25,4.8 -1.26,5.6 -0.01,0.85 0.61,1.45 1.48,1.45 0.83,0 1.95,-0.47 2.51,-1.04 0.8,-0.82 1,-0.69 0.96,0.63 -0.02,0.91 0.72,2.68 1.65,3.94 0.96,1.3 2.49,2.29 3.55,2.3 1.03,0 2.35,0.28 2.95,0.62 0.81,0.45 0.26,1.67 -2.14,4.76 -1.78,2.28 -3.67,4.98 -4.2,6.01 -0.54,1.02 -0.97,2.42 -0.97,3.11 -0.01,0.99 1.24,1.24 6.22,1.25 h 6.22 l -3.33,9.54 c 3.54,3.57 5.12,4.59 5.81,4.58 0.68,-0.01 4.98,-3.71 9.54,-8.21 5.21,-5.13 9.39,-8.53 11.21,-9.12 1.6,-0.52 4.68,-0.94 6.85,-0.93 l 3.94,0.01 C 59.1,286.62 59.1,286.59 62,280.79 c 1.59,-3.19 5.03,-8.6 7.64,-12.02 2.61,-3.42 5.26,-7.71 5.9,-9.54 0.63,-1.82 2.07,-9.85 3.2,-17.83 1.12,-7.99 2.98,-18.25 4.12,-22.82 1.14,-4.56 2.91,-9.95 3.93,-11.98 1.02,-2.03 2.97,-4.36 4.34,-5.18 1.37,-0.81 5.29,-2.11 8.72,-2.89 5.66,-1.28 14.65,-1.4 99.97,-1.34 71.98,0.05 95.09,0.31 99.55,1.12 3.2,0.58 7.28,1.86 9.08,2.85 2.14,1.18 3.92,3.09 5.18,5.54 1.06,2.05 2.84,7.47 3.97,12.03 1.12,4.56 2.96,14.83 4.07,22.82 1.12,7.98 2.55,16.01 3.18,17.84 0.63,1.82 3.28,6.12 5.88,9.54 2.61,3.43 6.04,8.84 7.63,12.04 2.89,5.8 2.9,5.82 2.87,17.21 l -0.03,11.41 c 7.07,0 9.96,0.44 10.99,0.97 1.03,0.53 5.78,4.64 10.57,9.13 4.79,4.49 9.36,8.17 10.16,8.17 0.8,0 2.42,-0.84 3.61,-1.86 l 2.15,-1.87 c -2.06,-7.07 -2.65,-9.41 -2.65,-9.75 0.01,-0.34 2.62,-0.62 5.82,-0.62 4.61,0.01 5.81,-0.25 5.81,-1.24 0,-0.68 -0.44,-2.08 -0.97,-3.11 -0.54,-1.03 -2.42,-3.73 -4.2,-6.02 -2.39,-3.08 -2.94,-4.3 -2.13,-4.76 0.59,-0.33 1.92,-0.61 2.95,-0.62 1.06,0 2.59,-0.99 3.56,-2.29 0.92,-1.25 1.67,-2.75 1.66,-3.32 -0.02,-0.74 0.69,-0.85 2.48,-0.41 2.16,0.54 2.5,0.4 2.48,-1.03 -0.02,-0.92 -0.55,-3.53 -1.18,-5.81 -0.63,-2.28 -0.9,-4.55 -0.61,-5.04 0.3,-0.49 1.19,-1.14 1.99,-1.45 0.8,-0.31 1.46,-1.22 1.47,-2.01 0,-0.8 -0.75,-3.7 -1.67,-6.44 -0.93,-2.73 -1.68,-5.07 -1.67,-5.18 0.01,-0.12 2.63,-0.21 5.82,-0.21 4.61,0.01 5.81,-0.25 5.81,-1.24 0,-0.68 -0.44,-2.08 -0.97,-3.11 -0.53,-1.02 -2.42,-3.73 -4.19,-6.01 -2.4,-3.09 -2.95,-4.31 -2.14,-4.76 0.6,-0.34 1.93,-0.62 2.95,-0.62 1.07,-0.01 2.6,-1 3.56,-2.3 0.93,-1.25 1.68,-3.12 1.66,-4.14 -0.01,-1.03 -0.4,-2.62 -0.86,-3.53 -0.45,-0.91 -3.44,-3.9 -6.63,-6.64 l -5.8,-4.98 c 5.56,-4.61 7.93,-5.82 9.13,-5.8 1.14,0.02 3.38,-0.82 4.98,-1.87 2.19,-1.45 2.95,-2.57 3.11,-4.59 0.18,-2.29 -0.29,-3.03 -3.32,-5.22 -1.93,-1.4 -8.13,-5.42 -13.77,-8.93 -10.05,-6.24 -10.25,-6.42 -9.71,-8.86 0.3,-1.37 0.72,-2.58 0.93,-2.69 0.21,-0.12 2.99,1.47 6.18,3.53 3.19,2.05 6.46,3.74 7.26,3.76 0.8,0.01 2.28,-0.83 3.3,-1.87 1.02,-1.04 1.86,-2.73 1.87,-3.75 0.01,-1.22 -1.2,-2.82 -3.51,-4.63 -1.94,-1.52 -7.25,-5.34 -11.81,-8.49 -4.57,-3.14 -9.9,-7.22 -11.86,-9.06 -1.95,-1.85 -3.54,-3.63 -3.52,-3.97 0.02,-0.35 3.03,-0.34 6.68,0 6.01,0.57 6.64,0.49 6.64,-0.83 -0.01,-0.79 -1.87,-4.25 -4.15,-7.67 l -4.15,-6.23 c 10.29,3.87 14.39,4.99 15.76,4.99 1.37,0 2.51,-0.28 2.53,-0.62 0.02,-0.34 -1.38,-1.95 -3.11,-3.57 -1.73,-1.61 -5.76,-4.42 -8.95,-6.22 -3.19,-1.81 -11.96,-6.48 -19.49,-10.37 -12.53,-6.49 -13.66,-7.26 -13.43,-9.14 0.14,-1.12 2.63,-5.22 5.55,-9.1 2.91,-3.87 5.88,-8.44 6.6,-10.15 0.71,-1.71 1.3,-3.3 1.3,-3.53 0,-0.23 -1.31,-0.41 -2.91,-0.42 -1.59,0 -6.07,1.12 -9.95,2.49 -3.88,1.36 -7.52,2.23 -8.09,1.92 -0.57,-0.3 -3.09,-2.34 -5.6,-4.53 -2.51,-2.18 -5.21,-3.99 -6.01,-4.01 -0.8,-0.02 -2.6,0.81 -4.01,1.83 -1.55,1.14 -3.59,1.81 -5.19,1.72 -1.44,-0.07 -5.43,-1.45 -8.85,-3.04 -3.42,-1.6 -8.08,-3.37 -10.36,-3.94 -2.66,-0.66 -6.46,-0.83 -10.58,-0.49 -3.54,0.3 -6.43,0.26 -6.42,-0.08 0,-0.34 1.33,-2.3 2.94,-4.36 1.62,-2.05 2.82,-4.29 2.67,-4.97 -0.15,-0.73 -1.12,-1.21 -2.32,-1.17 -1.13,0.04 -3.08,0.32 -4.33,0.62 -2.04,0.48 -2.24,0.34 -1.92,-1.32 0.21,-1.03 0.58,-3.27 0.84,-4.98 0.32,-2.18 0.15,-3.12 -0.58,-3.13 -0.57,-0.01 -2.02,1.02 -3.22,2.28 -1.2,1.26 -2.74,3.42 -3.41,4.79 -0.68,1.36 -1.75,2.71 -2.38,2.98 -0.64,0.28 -3.77,-0.12 -6.96,-0.88 l -5.81,-1.37 c -18.65,6.17 -24.72,7.96 -25.51,7.96 -0.81,-0.01 -3.3,-2.41 -5.6,-5.4 -3.47,-4.52 -4.55,-5.4 -6.63,-5.4 -1.37,0 -3.33,-0.38 -4.36,-0.85 -1.03,-0.46 -3.36,-2.78 -5.18,-5.15 -1.82,-2.38 -4.99,-7.48 -7.05,-11.35 -2.05,-3.87 -4.14,-7.17 -4.66,-7.34 -0.51,-0.16 -1.57,0.55 -2.36,1.59 z"
     fill="$[hairColor]"
     stroke="#000000"
     stroke-width="4"
     style="fill:$[hairColor]" />
  <path
     style="fill:$[hairColor];stroke:none;stroke-width:1px;stroke-linecap:butt;stroke-linejoin:miter;stroke-opacity:1"
     d="m 105.25,205.20258 c 1.04432,0.68039 0.96224,17.90594 -11.489654,-0.81709 -1.502128,-2.25856 -2.908033,-8.67658 -2.908033,-8.67658 -0.730854,-0.0433 -6.951611,0.96367 -7.061779,0.82596 -6.039585,-7.54949 7.429532,-12.47684 12.722123,-13.59952 3.198661,-0.6785 6.400043,-1.40643 9.651263,-1.75477 8.81313,-0.94426 43.50349,-1.83405 45.62417,-1.75478 5.6217,0.21016 11.05525,2.97595 16.67037,2.63217 36.26667,-2.22041 66.16312,-4.12423 101.77698,3.94824 4.67155,1.05889 9.34655,2.10493 14.0382,3.07086 2.13913,0.44041 43.29046,-5.39873 30.54986,13.71217 -6.88518,10.32777 -20.55054,5.05384 -31.12559,6.51247 -8.96087,1.23598 -20.39984,2.91657 -29.25545,4.78091 -13.89202,2.92464 -27.1342,9.14416 -41.23723,11.84474 -11.45186,2.19291 -37.11496,5.1645 -48.25633,2.19347 -13.41242,-3.57665 -23.2276,-10.52286 -35.5342,-13.59951 -9.14206,-2.28552 -18.2952,-3.24148 -27.19902,-6.58041 -4.673539,-1.75258 7.76509,-1.21754 3.03432,-2.73833 z"
     id="path2503"
     sodipodi:nodetypes="cssssssssssssssssc" />
</svg>
