<svg xmlns="http://www.w3.org/2000/svg" viewBox="0 0 400 600" width="400" height="600">
	<defs>
		<linearGradient id="grd1" gradientUnits="userSpaceOnUse"  x1="200" y1="100" x2="200" y2="310">
			<stop offset="0" stop-color="rgba(0,0,0,.3)"  />
			<stop offset="1" stop-color="rgba(0,0,0,0)"  />
		</linearGradient>
	</defs>
	<style>
		.cornrows { fill: url(#grd1);stroke: none} 
	</style>
	<g id="cornrows">
		<path id="Short Fade" class="cornrows" d="M60 310L50 310C50 310 50 305 50 300C50 160 100 100 200 100C300 100 350 160 350 300C350 305 350 310 350 310L340 310C340 310 340 295 340 290C340 285 330 270 325 265C320 260 320 220 310 210C300 200 250 210 200 210C150 210 100 200 90 210C80 220 80 260 75 265C70 270 60 285 60 290C60 295 60 310 60 310Z" />
		<path id="cornrows" d="M195 200L185 200L185 100L195 100L195 200ZM205 200L215 200L215 100L205 100L205 200M225 200L235 200L235 100L225 100L225 200M245 200L255 200L255 105L245 105L245 200ZM265 195L275 195L275 110L265 110L265 195ZM285 195L295 195L295 120L285 120L285 195ZM305 190L315 190L315 140L305 140L305 190ZM325 195L335 195L335 175L325 175L325 195M175 200L165 200L165 100L175 100L175 200ZM155 200L145 200L145 104.87L155 104.87L155 200ZM135 195L135 109.85L125 109.85L125 195L135 195ZM115 195L115 120L105 120L105 195L115 195ZM95 190L85 190L85 140L95 140L95 190ZM75 195L65 195L65 175L75 175L75 195Z"  fill="$[hairColor]" stroke="#000" stroke-width="4"/>
	</g>
</svg>