<?xml version="1.0" encoding="UTF-8" standalone="no"?>
<svg
   xmlns:dc="http://purl.org/dc/elements/1.1/"
   xmlns:cc="http://creativecommons.org/ns#"
   xmlns:rdf="http://www.w3.org/1999/02/22-rdf-syntax-ns#"
   xmlns:svg="http://www.w3.org/2000/svg"
   xmlns="http://www.w3.org/2000/svg"
   xmlns:sodipodi="http://sodipodi.sourceforge.net/DTD/sodipodi-0.dtd"
   xmlns:inkscape="http://www.inkscape.org/namespaces/inkscape"
   inkscape:version="1.0 (4035a4fb49, 2020-05-01)"
   sodipodi:docname="crop-fade2.svg"
   id="svg130"
   version="1.1"
   height="600"
   width="400"
   viewBox="0 0 400 600">
  <metadata
     id="metadata134">
    <rdf:RDF>
      <cc:Work
         rdf:about="">
        <dc:format>image/svg+xml</dc:format>
        <dc:type
           rdf:resource="http://purl.org/dc/dcmitype/StillImage" />
        <dc:title></dc:title>
      </cc:Work>
    </rdf:RDF>
  </metadata>
  <sodipodi:namedview
     inkscape:current-layer="svg130"
     inkscape:window-maximized="1"
     inkscape:window-y="-8"
     inkscape:window-x="1912"
     inkscape:cy="323.80952"
     inkscape:cx="85.416667"
     inkscape:zoom="1.8"
     showgrid="false"
     id="namedview132"
     inkscape:window-height="1417"
     inkscape:window-width="2560"
     inkscape:pageshadow="2"
     inkscape:pageopacity="0"
     guidetolerance="10"
     gridtolerance="10"
     objecttolerance="10"
     borderopacity="1"
     bordercolor="#666666"
     pagecolor="#ffffff" />
  <defs
     id="defs123">
    <linearGradient
       y2="310"
       x2="200"
       y1="100"
       x1="200"
       gradientUnits="userSpaceOnUse"
       id="shortfade">
      <stop
         id="stop118"
         stop-color="rgba(0,0,0,.25)"
         offset="0" />
      <stop
         id="stop120"
         stop-color="rgba(0,0,0,0)"
         offset="1" />
    </linearGradient>
  </defs>
  <style
     id="style125">
		.short_fade { fill: url(#shortfade);stroke: none} 
	</style>
  <g
     style="opacity:1;stroke-width:1;stroke-miterlimit:4;stroke-dasharray:none"
     id="short fade">
    <path
       style="stroke-width:1;stroke-miterlimit:4;stroke-dasharray:none"
       sodipodi:nodetypes="ccsssccsssssssc"
       d="M 60,310 H 50 v -10 c 0,-140 50,-200 150,-200 100,0 150,60 150,200 v 10 h -10 v -20 c 0,-5 -10,-20 -15,-25 -5,-5 -5,-55 -15,-65 C 270,160 253.57143,161.90476 203.57143,161.90476 153.57143,161.90476 130,160 90,200 c -10,10 -10,60 -15,65 -5,5 -15,20 -15,25 z"
       class="short_fade"
       id="Short Fade" />
  </g>
  <path
     sodipodi:nodetypes="scssssscs"
     stroke-width="3.99999"
     stroke="#000000"
     fill="$[hairColor]"
     d="m 200,94.999995 c 120,0 140,89.999625 140,114.999515 -20,0 -20,4.99998 -25,0 -5,-4.99998 -14.44444,-11.11105 -49.44444,-11.11105 -15,0 -39.96032,-0.31746 -64.96032,-0.31746 -25,0 -50.03968,0.31746 -65.03967,0.31746 -35,0 -45.555566,6.11107 -50.555571,11.11105 -5.000001,4.99998 -5.000001,0 -25.000004,0 C 59.999995,184.99962 84.999999,94.999995 200,94.999995 Z"
     id="crop" />
</svg>
