<svg xmlns="http://www.w3.org/2000/svg" viewBox="0 0 400 600" width="400" height="600">
	<defs>
		<linearGradient id="shortfade" gradientUnits="userSpaceOnUse"  x1="200" y1="100" x2="200" y2="310">
			<stop offset="0" stop-color="rgba(0,0,0,.25)"  />
			<stop offset="1" stop-color="rgba(0,0,0,0)"  />
		</linearGradient>
	</defs>
	<style>
		.short_fade { fill: url(#shortfade);stroke: none} 
	</style>
	<g id="short fade">
		<path id="Short Fade" class="short_fade" d="M60 310L50 310C50 310 50 305 50 300C50 160 100 100 200 100C300 100 350 160 350 300C350 305 350 310 350 310L340 310C340 310 340 295 340 290C340 285 330 270 325 265C320 260 320 210 310 200C270 160 250 200 200 200C150 200 130 160 90 200C80 210 80 260 75 265C70 270 60 285 60 290C60 295 60 310 60 310Z" />
	</g>
	<path id="crop" d="M200 95C320 95 340 185 340 210C320 210 320 215 315 210C310 205 300 195 265 195C250 195 225 200 200 200C175 200 150 195 135 195C100 195 90 205 85 210C80 215 80 210 60 210C60 185 85 95 200 95Z" fill="$[hairColor]" stroke="#000" stroke-width="4"/>
</svg>