<svg xmlns="http://www.w3.org/2000/svg" viewBox="0 0 400 600" width="400" height="600">
	<defs>
		<linearGradient id="shortfade" gradientUnits="userSpaceOnUse"  x1="200" y1="100" x2="200" y2="310">
			<stop offset="0" stop-color="rgba(0,0,0,.25)"  />
			<stop offset="1" stop-color="rgba(0,0,0,0)"  />
		</linearGradient>
	</defs>
	<style>
		.short_fade { fill: url(#shortfade);stroke: none} 
	</style>
	<g id="short fade">
		<path id="Short Fade" class="short_fade" d="M60 310L50 310C50 310 50 305 50 300C50 160 100 100 200 100C300 100 350 160 350 300C350 305 350 310 350 310L340 310C340 310 340 295 340 290C340 285 330 270 325 265C320 260 320 210 310 200C270 160 250 200 200 200C150 200 130 160 90 200C80 210 80 260 75 265C70 270 60 285 60 290C60 295 60 310 60 310Z" />
	</g>
	<path id="curly-fade" d="M177 76.08C175.63 77.18 173.6 78.07 172.51 78.04C171.41 78.02 170.4 78.45 170.26 79C170.12 79.55 167.97 80 165.5 80C162.5 80 160.94 80.45 160.81 81.34C160.71 82.08 159.58 83.2 158.31 83.84C157.04 84.48 154.39 85 152.43 85C150.47 85 148.67 85.45 148.43 86C148.17 86.61 147.11 86.43 145.75 85.54C143.94 84.37 142.18 84.27 136.75 85.04C133.04 85.57 128.82 86.56 127.39 87.25C125.12 88.33 124.84 88.96 125.3 92C125.59 93.92 125.52 96 125.16 96.62C124.8 97.23 122.47 97.68 120 97.62C116.03 97.51 115.47 97.77 115.25 99.75C115.05 101.52 114.52 101.9 112.75 101.51C111.51 101.25 109.71 101.02 108.75 101.01C107.79 101.01 106.78 100.1 106.5 99C106.22 97.9 105.33 97 104.5 97C103.67 97 102.68 98.01 102.3 99.25C101.91 100.49 101.58 101.8 101.55 102.17C101.52 102.53 101.15 103.21 100.72 103.67C100.29 104.13 99.95 105.4 99.96 106.5C99.97 107.6 99.42 109.99 98.74 111.81C97.74 114.48 96.74 115.3 93.5 116.06C91.3 116.58 88.51 117.79 87.29 118.75C86.08 119.71 85.06 121.29 85.04 122.25C85.02 123.21 83.54 125.16 81.75 126.58C79.52 128.35 77.79 128.98 76.25 128.58C74.5 128.13 72.99 129.01 69.5 132.5C67.03 134.97 65 137.68 65 138.5C65 139.32 65.56 140.15 66.25 140.34C67.23 140.6 67.2 141.2 66.13 143.09C65.37 144.41 65.04 146.06 65.38 146.75C65.74 147.48 63.71 150.17 60.46 153.25C56.25 157.25 54.28 160.14 52.21 165.36C50.72 169.14 48.92 172.74 48.21 173.36C47.49 173.99 46.94 174.95 46.97 175.5C47 176.05 47.92 178.41 49.01 180.75C50.7 184.36 50.79 185.19 49.61 186.25C48.84 186.94 48.05 189.02 47.86 190.88C47.57 193.63 48.02 194.66 50.27 196.38C51.8 197.55 53.03 198.95 53 199.5C52.98 200.05 53.68 201.4 54.56 202.5C55.43 203.6 55.86 203.82 55.5 203C55.14 202.18 55.8 202.63 56.97 204C58.13 205.38 59.07 207.29 59.04 208.25C59.01 209.64 59.87 210.01 63.25 210.04C65.59 210.06 70.74 210.62 74.71 211.29L81.92 212.5C90.12 205.68 94.75 202.66 97.5 201.39C100.25 200.12 105.88 198.36 110 197.49C114.13 196.61 122 195.63 127.5 195.32C134.57 194.92 143.79 195.43 159 197.07C173.91 198.67 186.47 199.38 200 199.38C213.53 199.38 226.08 198.67 241 197.06C256.87 195.36 265.25 194.91 273 195.37C278.77 195.72 286.65 196.68 290.5 197.52C294.35 198.35 299.75 200.09 302.5 201.37C305.25 202.65 309.98 205.73 313 208.22C316.33 210.96 319.29 212.63 320.5 212.44C321.6 212.28 324.98 211.65 328 211.06C331.02 210.46 334.96 209.98 336.75 209.99C338.79 210 341.3 208.98 343.5 207.25C345.42 205.74 347 203.94 347 203.25C347 202.56 348.35 201.32 350 200.5C352.73 199.14 352.95 198.66 352.44 195.25C352.13 193.19 351.23 190.94 350.44 190.25C349.2 189.18 349.35 188.33 351.53 184.25C352.92 181.64 354.05 179.05 354.03 178.5C354.02 177.95 353.22 177.01 352.25 176.4C351.29 175.8 349.85 172.88 349.06 169.9C348.13 166.39 346.05 162.58 343.12 159C340.64 155.97 337.96 153.05 337.16 152.5C336.24 151.87 335.95 150.75 336.36 149.5C336.79 148.22 336.39 146.85 335.26 145.69C333.72 144.11 333.67 143.61 334.89 141.69C336.18 139.65 335.96 139.21 331.64 135.25C328.73 132.59 326.16 131.06 324.75 131.17C323.51 131.26 321.05 130.7 319.28 129.92C317.3 129.05 315.83 127.54 315.45 126C315.12 124.63 314.09 122.7 313.17 121.72C312.16 120.64 310.12 119.96 308 119.99C305.23 120.03 304.03 119.41 302.25 117.02C300.81 115.09 299.73 111.75 299.25 107.75L298.5 101.5C293.27 101.5 291.58 102.06 291.37 102.75C291.17 103.44 289.88 104 288.5 104C287.13 104 285.85 104.56 285.66 105.25C285.47 105.94 284.57 105.04 283.66 103.25C282.1 100.2 281.73 100.03 277.75 100.48C274.99 100.8 273.24 100.54 272.77 99.73C272.36 99.06 272.02 97.15 272 95.5C271.98 93.85 271.64 91.97 271.23 91.33C270.83 90.68 269.26 89.67 267.75 89.08C266.24 88.48 261.96 87.53 258.25 86.95C252.5 86.06 251.31 86.13 250.25 87.45C249.12 88.85 248.78 88.85 246.75 87.46C245.51 86.62 243.15 86.01 241.5 86.11C239.85 86.22 237.49 86.23 236.25 86.15C234.98 86.07 234 85.34 234 84.5C234 83.67 233.21 82.76 232.25 82.47C231.29 82.19 229.7 82.3 228.71 82.72C227.73 83.15 226.72 84.06 226.46 84.75C226.21 85.44 225.32 86 224.5 86C223.68 86 221.99 84.77 220.75 83.27C219.51 81.77 217.77 79.18 216.88 77.52C215.99 75.86 214.53 74.39 213.63 74.25C212.74 74.11 210.2 75.35 208 77L204 80C198.97 76.32 196.4 75.5 193.92 75.5C191.77 75.5 190 75.16 190 74.75C190 74.34 187.64 74.01 184.75 74.03C181.03 74.06 178.77 74.65 177 76.08Z" fill="$[hairColor]" stroke="#000" stroke-width="4"/>
</svg>