<svg xmlns="http://www.w3.org/2000/svg" viewBox="0 0 400 600" width="400" height="600">
	<defs>
		<linearGradient id="shortfade" gradientUnits="userSpaceOnUse"  x1="200" y1="100" x2="200" y2="310">
			<stop offset="0" stop-color="rgba(0,0,0,.25)"  />
			<stop offset="1" stop-color="rgba(0,0,0,0)"  />
		</linearGradient>
	</defs>
	<style>
		.short_fade { fill: url(#shortfade);stroke: none} 
	</style>
	<g id="short fade">
		<path id="Short Fade" class="short_fade" d="M60 310L50 310C50 310 50 305 50 300C50 160 100 100 200 100C300 100 350 160 350 300C350 305 350 310 350 310L340 310C340 310 340 295 340 290C340 285 330 270 325 265C320 260 320 210 310 200C270 160 250 200 200 200C150 200 130 160 90 200C80 210 80 260 75 265C70 270 60 285 60 290C60 295 60 310 60 310Z" />
	</g>
	<path id="curly-fade" d="M179.59 87.23C178.29 88.14 176.4 88.93 175.41 88.97C174.42 89.02 173.47 89.4 173.31 89.83C173.15 90.25 171.17 90.71 168.92 90.84C166.2 91.01 164.75 91.42 164.57 92.11C164.42 92.67 163.31 93.58 162.1 94.13C160.9 94.68 158.44 95.21 156.65 95.3C154.86 95.39 153.18 95.81 152.92 96.24C152.63 96.72 151.68 96.63 150.52 96.02C148.98 95.21 147.4 95.22 142.4 96.04C138.98 96.58 135.06 97.49 133.68 98.06C131.5 98.96 131.18 99.44 131.27 101.73C131.35 103.21 131.11 104.83 130.72 105.32C130.34 105.81 128.17 106.23 125.91 106.25C122.29 106.28 121.75 106.49 121.38 108.06C121.06 109.47 120.53 109.79 118.94 109.53C117.83 109.34 116.2 109.21 115.32 109.22C114.44 109.24 113.6 108.54 113.46 107.68C113.31 106.83 112.59 106.15 111.84 106.17C111.1 106.19 110.09 107 109.61 107.97C109.14 108.95 108.71 110 108.65 110.29C108.59 110.58 108.2 111.13 107.77 111.5C107.34 111.88 106.92 112.91 106.85 113.8C106.78 114.7 106.12 116.67 105.39 118.19C104.34 120.45 103.38 121.15 100.38 121.84C98.33 122.31 95.72 123.38 94.57 124.21C93.42 125.05 92.44 126.42 92.39 127.25C92.35 128.09 90.95 129.81 89.28 131.08C87.21 132.67 85.62 133.25 84.22 132.91C82.63 132.52 81.24 133.32 78.02 136.47C75.75 138.73 73.9 141.21 73.9 141.96C73.9 142.72 74.41 143.47 75.03 143.63C75.92 143.86 75.9 144.41 74.92 146.17C74.24 147.41 73.93 148.94 74.24 149.58C74.57 150.26 72.72 152.8 69.76 155.74C65.9 159.58 64.06 162.36 62.02 167.39C60.47 171.03 58.59 174.52 57.89 175.13C57.19 175.75 56.6 176.68 56.57 177.21C56.55 177.74 57.12 180 57.83 182.24C58.86 185.69 58.81 186.48 57.54 187.52C56.71 188.19 55.59 190.2 55.02 191.98C54.13 194.62 54.3 195.6 55.98 197.21C57.11 198.31 57.9 199.63 57.72 200.16C57.54 200.68 57.81 201.95 58.31 202.99C58.81 204.03 59.15 204.24 59.06 203.46C58.97 202.68 59.47 203.1 60.16 204.4C60.85 205.69 61.11 207.49 60.75 208.4C60.21 209.71 60.92 210.05 64.25 210.07C66.56 210.09 71.48 210.61 75.19 211.24L81.99 212.38C91.97 205.86 97.15 202.94 100.06 201.71C102.95 200.47 108.67 198.74 112.77 197.88C116.86 197.01 124.56 196.03 129.89 195.71C136.75 195.31 145.61 195.79 160.24 197.4C167.44 198.2 174.11 198.78 180.62 199.17C187.15 199.56 193.51 199.77 200.12 199.81C206.74 199.86 213.11 199.74 219.64 199.44C226.17 199.14 232.85 198.67 240.09 198.01C255.42 196.66 263.52 196.41 271.07 197C276.69 197.45 284.41 198.51 288.23 199.36C292.06 200.2 297.53 201.85 300.4 203.03C303.29 204.19 308.47 206.88 311.96 208.97C315.9 211.19 319.28 212.5 320.44 212.36C321.49 212.23 324.69 211.76 327.54 211.31C330.38 210.87 334.14 210.54 335.92 210.55C337.94 210.57 340.11 209.84 341.76 208.58C343.21 207.47 344.24 206.12 344.05 205.59C343.87 205.06 344.86 204.13 346.24 203.53C348.52 202.54 348.62 202.17 347.35 199.39C346.64 197.67 345.37 195.73 344.51 195.1C343.16 194.11 343.18 193.39 344.63 189.91C345.6 187.64 346.36 185.35 346.29 184.84C346.22 184.33 345.4 183.41 344.45 182.79C343.51 182.16 341.97 179.31 341.06 176.42C340.04 172.96 338 169.08 335.23 165.34C332.9 162.16 330.4 159.06 329.66 158.45C328.82 157.77 328.54 156.62 328.91 155.38C329.3 154.1 328.94 152.69 327.9 151.45C326.47 149.75 326.43 149.25 327.55 147.36C328.74 145.36 328.54 144.9 324.54 140.64C321.83 137.78 319.44 136.12 318.13 136.16C316.98 136.19 314.69 135.51 313.04 134.65C311.19 133.68 309.8 132.1 309.43 130.55C309.09 129.16 308.1 127.19 307.22 126.18C306.25 125.07 304.34 124.33 302.36 124.29C299.78 124.24 298.64 123.59 296.91 121.19C295.5 119.25 294.36 115.97 293.71 112.1L292.61 106.12C287.76 106.03 286.23 106.54 286.09 107.19C285.94 107.84 284.78 108.35 283.5 108.33C282.22 108.32 281.06 108.83 280.92 109.48C280.78 110.13 279.9 109.27 278.95 107.57C277.31 104.7 276.96 104.53 273.28 104.94C270.72 105.22 269.08 104.97 268.59 104.23C268.17 103.6 267.74 101.84 267.61 100.33C267.48 98.82 267.02 97.12 266.59 96.54C266.17 95.96 264.64 95.06 263.2 94.55C261.76 94.04 257.74 93.24 254.28 92.79C248.92 92.12 247.83 92.21 246.93 93.38C245.97 94.63 245.65 94.64 243.7 93.47C242.51 92.77 240.29 92.3 238.77 92.44C237.25 92.57 235.07 92.65 233.92 92.62C232.75 92.59 231.81 92 231.77 91.28C231.74 90.58 230.97 89.83 230.07 89.62C229.18 89.41 227.72 89.57 226.83 89.96C225.94 90.36 225.04 91.16 224.82 91.75C224.61 92.35 223.81 92.85 223.05 92.88C222.28 92.91 220.69 91.94 219.51 90.73C218.34 89.54 216.68 87.48 215.83 86.17C214.98 84.88 213.63 83.77 212.81 83.71C211.99 83.65 209.71 84.77 207.72 86.2L204.08 88.81C199.5 86.15 197.18 85.65 194.94 85.79C192.98 85.92 191.4 85.76 191.41 85.45C191.42 85.13 189.29 85.03 186.69 85.22C183.33 85.46 181.27 86.05 179.59 87.23Z" fill="$[hairColor]" stroke="#000" stroke-width="4"/>
</svg>