<svg xmlns="http://www.w3.org/2000/svg" viewBox="0 0 400 600" width="400" height="600">
	<defs>
		<linearGradient id="grd1" gradientUnits="userSpaceOnUse"  x1="200" y1="100" x2="200" y2="310">
			<stop offset="0" stop-color="rgba(0,0,0,.3)"  />
			<stop offset="1" stop-color="rgba(0,0,0,0)"  />
		</linearGradient>
	</defs>
	<style>
		.cornrows { fill: url(#grd1);stroke: none} 
	</style>
		<path id="hair" class="afro2" d="M198.45 65.22C197.55 66.44 196.87 68.81 196.95 70.47C197.02 72.14 197.77 75.3 198.61 77.5C199.45 79.7 200.33 82.29 200.57 83.25C200.85 84.41 200.41 85.01 199.25 85.02C198.29 85.03 196.6 84.37 195.5 83.55C194.4 82.73 192.82 82.03 192 82C191.18 81.96 189.6 82.86 188.5 84C187.4 85.14 185.94 86.05 185.25 86.03C184.56 86.01 183.89 84.55 183.75 82.77C183.52 79.78 183.17 79.49 179 78.76C176.51 78.33 173.38 76.92 172 75.61C170.63 74.31 167.58 71.96 165.23 70.38C161.39 67.79 160.69 67.63 158.23 68.77C156.73 69.46 154.21 71.04 152.64 72.27L149.78 74.5C159.25 93.49 161.55 99 161 99C160.45 99 156.29 96.98 151.75 94.52C147.21 92.06 142.71 90.03 141.75 90.02C140.79 90.01 139.79 90.34 139.54 90.75C139.29 91.16 140.19 93.19 141.54 95.25C142.89 97.31 144 99.22 144 99.5C144 99.78 140.85 100 137 100C132.21 100 128.34 100.67 124.75 102.1C121.86 103.26 117.47 104.82 115 105.57C111.13 106.74 110.19 106.73 108.25 105.47C107.01 104.66 105.44 104.01 104.75 104.02C104.06 104.03 101.36 105.83 98.75 108.02L94 112C85.09 108.88 81.04 107.98 79.25 107.98L76 108C78.91 113.81 81.6 118.42 83.86 122C86.12 125.58 87.75 128.84 87.48 129.25C87.22 129.66 83.74 130.01 79.75 130.02L72.5 130.05C46.31 145.12 36.86 151.17 34.6 153.21L30.5 156.92C34.76 156.98 38.25 156.1 41 155C43.75 153.9 46 153.45 46 154C46 154.55 44.64 157.14 42.99 159.75C41.33 162.36 39.98 165.06 39.99 165.75C40 166.66 41.5 166.86 45.5 166.5C48.52 166.22 51.02 166.34 51.04 166.75C51.06 167.16 49.13 169.3 46.74 171.5C44.34 173.7 38.48 178.54 33.69 182.25C27.92 186.74 25 189.67 25 191C25 192.1 25.68 193.68 26.5 194.5C27.32 195.32 28.56 196.01 29.25 196.01C29.94 196.02 32.64 194.67 35.25 193.01C37.86 191.36 40.45 190 41 190C41.55 190 42.01 190.79 42.03 191.75C42.04 192.71 41.03 194.44 39.78 195.6C38.52 196.75 33.31 200.57 28.19 204.1C23.07 207.62 18.68 211.29 18.44 212.25C18.2 213.21 18.45 214.9 19 216C19.57 217.14 22.05 218.63 24.75 219.46C27.36 220.27 30.4 221.86 31.5 223L33.5 225.07C23.56 234.96 22.02 237.24 22.01 239.25C22 241.1 22.9 242.67 24.75 244.04C26.26 245.16 27.95 246.2 28.5 246.36C29.05 246.51 28.05 248.86 26.27 251.57C24.5 254.28 23.04 257.29 23.02 258.25C23 259.66 23.87 260 27.5 260C30.83 260 32 260.39 32 261.5C32 262.32 31.44 265.01 30.75 267.48C29.6 271.59 29.66 272.07 31.5 273.38C33.33 274.68 33.4 275.21 32.34 279.65C31.7 282.32 31.36 284.84 31.59 285.25C31.81 285.66 32.9 285.77 34 285.5C35.52 285.12 36.12 285.6 36.5 287.5C36.83 289.17 38 290.33 40 291C41.65 291.55 43 292.23 43 292.5C43 292.77 41.7 294.91 40.11 297.25C38.52 299.59 37.06 302.4 36.86 303.5C36.54 305.27 37.11 305.53 41.75 305.75C44.64 305.89 47.01 306.11 47.02 306.25C47.03 306.39 46.38 308.3 45.58 310.5C44.19 314.29 44.23 314.62 46.31 316.73C47.51 317.95 48.95 318.96 49.5 318.97C50.05 318.98 53.09 316.4 56.26 313.24L62.02 307.5L62 284C67.76 274.31 70.62 270.15 72.07 268.5C73.52 266.85 75.22 264.49 75.85 263.25C76.48 262.01 78.35 252.34 80 241.75C81.66 231.16 83.87 219.57 84.92 216C86 212.35 88.08 208.13 89.67 206.38C91.39 204.48 94.66 202.56 98 201.49C103.08 199.85 110.59 199.7 195.5 199.48C246.3 199.34 290.64 199.64 294.5 200.14C298.35 200.64 303.52 202.05 305.98 203.27C308.45 204.5 311.24 206.85 312.2 208.5C313.15 210.15 314.85 215.1 315.98 219.5C317.1 223.9 319.15 235.04 320.51 244.25C321.88 253.46 323.68 262.35 324.5 264C325.32 265.65 326.45 267.23 327 267.5C327.55 267.77 330.26 271.49 333.03 275.75L338.07 283.5L337.98 307.5C346.91 316.4 350.18 318.99 351 319.01C351.82 319.02 353.32 318.46 354.33 317.77C355.96 316.64 356.04 316 355.02 312C354.11 308.41 354.14 307.35 355.19 306.77C355.91 306.36 358.19 306.02 360.25 306.02C362.57 306.01 364 305.52 364.01 304.75C364.01 304.06 362.44 301.02 360.52 298L357.01 292.5C361.65 290.56 363.45 289.1 364 288C364.55 286.9 365.9 286 367 286C368.84 286 368.95 285.54 368.38 280.25C367.89 275.63 368.09 274.25 369.38 273.25C370.86 272.11 370.87 271.55 369.44 266.75C368.16 262.46 368.11 261.37 369.19 260.77C369.91 260.36 372.19 260.02 374.25 260.02C377.66 260 377.94 259.79 377.36 257.75C377.01 256.51 375.44 253.59 373.86 251.25C372.29 248.91 371.11 246.87 371.25 246.7C371.39 246.54 372.74 245.86 374.25 245.2C375.76 244.54 377.38 242.99 377.85 241.75C378.32 240.51 378.46 238.6 378.17 237.5C377.87 236.4 375.24 233.14 372.31 230.25L367 225C372.04 221.25 374.63 219.9 376 219.58C377.38 219.26 379.31 218.22 380.29 217.25C381.29 216.27 381.95 214.41 381.79 213.03C381.57 211.15 378.89 208.76 370.5 202.96C361.56 196.78 359.45 194.85 359.25 192.68C359.11 191.21 359.34 190.01 359.75 190.02C360.16 190.04 362.64 191.39 365.25 193.02C367.86 194.66 370.73 195.89 371.63 195.75C372.53 195.61 373.87 194.6 374.62 193.5C375.75 191.83 375.75 191.17 374.64 189.5C373.91 188.4 368.63 183.85 362.91 179.39C357.18 174.93 351.6 170.3 350.5 169.11L348.5 166.93C359.08 166.99 360 166.72 359.97 165.25C359.96 164.29 358.61 161.36 356.97 158.75C355.34 156.14 354.34 153.99 354.75 153.98C355.16 153.98 358.2 154.88 361.5 155.99C364.8 157.1 367.86 157.67 368.31 157.25C368.76 156.84 367.12 154.7 364.67 152.5C362.22 150.3 354.22 145.13 346.89 141C339.57 136.88 332.66 132.76 331.54 131.85C329.57 130.25 329.56 130.09 331.23 126.85C332.18 125.01 334.78 120.58 337 117C339.22 113.42 341.03 109.94 341.02 109.25C341.01 108.56 339.99 108 338.75 107.99C337.51 107.99 333.57 108.92 330 110.08L323.5 112.17C316.14 105.84 313.55 104 313 104C312.45 104 310.81 104.79 309.36 105.75C307.13 107.23 306.16 107.32 303.11 106.35C301.12 105.72 296.8 104.04 293.5 102.63C289.06 100.72 285.75 100.04 280.75 100.02C277.04 100.01 274.01 99.66 274.02 99.25C274.03 98.84 274.92 97.38 276 96C277.08 94.63 277.97 92.71 277.98 91.75C278 90.28 277.39 90.1 274.25 90.61L270.5 91.22C271.66 84.07 271.66 81.99 271.25 81.97C270.84 81.96 269.54 82.97 268.37 84.22C267.21 85.48 265.74 87.51 265.12 88.75C264.37 90.26 263.1 91 261.25 91C259.74 91 257.15 90.59 255.5 90.08C253.06 89.33 250.4 89.89 241.25 93.08C235.06 95.24 229.55 96.78 229 96.5C228.45 96.22 226.54 93.98 224.75 91.52C222.35 88.21 220.65 86.9 218.25 86.52C216.14 86.18 214.03 84.8 212.25 82.59C210.74 80.71 207.68 75.53 205.45 71.09C203.23 66.64 201.11 63 200.75 63C200.39 63 199.36 64 198.45 65.22Z" fill="$[hairColor]" stroke="#000" stroke-width="4"/>
</svg>