<svg xmlns="http://www.w3.org/2000/svg" viewBox="0 0 400 600" width="400" height="600">
	<defs>
		<linearGradient id="grd1" gradientUnits="userSpaceOnUse"  x1="200" y1="100" x2="200" y2="310">
			<stop offset="0" stop-color="rgba(0,0,0,.3)"  />
			<stop offset="1" stop-color="rgba(0,0,0,0)"  />
		</linearGradient>
	</defs>
	<style>
		.cornrows { fill: url(#grd1);stroke: none} 
	</style>
	<path id="Short Fade" class="cornrows" d="M60 300L50 300C50 160 100 100 200 100C300 100 350 160 350 300L340 300C340 300 340 295 340 290C340 285 330 270 325 265C320 260 320 210 310 200C270 160 250 200 200 200C150 200 130 160 90 200C80 210 80 260 75 265C70 270 60 285 60 290C60 295 60 300 60 300Z" />
	<path id="ponytail" fill-rule="evenodd" class="dreads-pony" d="M217.4 2.49C218.56 2.89 222.09 3.73 225.26 4.36C230.23 5.34 231.02 5.81 231.01 7.75C231 9.03 230.24 10.22 229.25 10.51C228.29 10.79 227.83 11.35 228.22 11.76C228.62 12.17 228.51 13.29 227.97 14.25C227.09 15.84 226.77 15.86 224.5 14.5C222.72 13.43 222.12 13.36 222.42 14.25C222.65 14.94 223.1 16.74 223.42 18.25C223.9 20.52 223.57 21.17 221.5 22C219.32 22.87 219.14 23.29 220.1 25.25C220.98 27.06 220.78 28.28 219.08 31.5C217.83 33.87 215.75 36.01 213.99 36.75C211.38 37.84 211 38.51 211 42C211 44.89 211.42 46 212.5 46C213.32 46 214.22 45.55 214.5 45C214.78 44.45 216.35 44 218 44C220.67 44 221.06 43.61 221.5 40.5C221.86 37.95 222.61 36.84 224.25 36.39C225.49 36.06 226.84 35.83 227.25 35.89C227.66 35.95 228 35.33 228 34.5C228 33.32 228.81 33.13 231.75 33.63C235.14 34.19 235.42 34.07 234.72 32.38C234.3 31.34 234.19 29.71 234.47 28.75C234.76 27.79 235.45 27.23 236 27.5C236.55 27.77 237 27.55 237 27C237 26.45 238.34 26.11 239.98 26.25C241.63 26.39 243.19 25.94 243.48 25.25C243.76 24.56 244.34 24.05 244.75 24.12C245.16 24.18 246.06 24.18 246.75 24.12C247.44 24.05 248.22 23.1 248.5 22C248.95 20.2 249.33 20.12 252.25 21.13C255 22.09 255.62 22.01 256.25 20.63C256.66 19.73 257.9 19 259 19C260.1 19 261 19.34 261.01 19.75C261.01 20.16 261.87 20.5 262.91 20.5C263.96 20.5 265.2 20.19 265.66 19.8C266.12 19.42 267.18 19.37 268 19.7C268.82 20.03 269.95 19.67 270.5 18.9C271.06 18.13 272.07 17.39 272.75 17.25C273.44 17.11 274.69 17.56 275.54 18.25C276.39 18.94 276.84 20.29 276.54 21.25C276.24 22.21 276.45 23.23 277 23.5C277.55 23.77 278.68 23.55 279.5 23C280.32 22.45 281.18 22.34 281.41 22.75C281.63 23.16 281.63 25.98 281.4 29C281.17 32.02 280.42 34.83 279.74 35.23C279.03 35.65 277.94 35.22 277.19 34.23C275.95 32.6 275.81 32.6 274.69 34.21C274.03 35.15 272.94 35.94 272.25 35.96C271.56 35.98 270.1 35.1 269 34C267.9 32.9 267 31.55 267 31C267 30.45 265.76 29.81 264.25 29.57C262.74 29.33 259.81 28.88 257.75 28.57C254.41 28.06 253.97 28.24 253.75 30.25C253.56 31.92 252.38 32.89 249.17 34C245.42 35.29 244.91 35.81 245.42 37.75C245.87 39.5 245.45 40.22 243.5 41C242.13 41.55 241 42.45 241 43C241 43.55 241.79 45.65 242.75 47.66C244.07 50.42 244.19 51.41 243.25 51.66C242.44 51.88 242.88 52.88 244.5 54.5C245.88 55.88 247.56 57 248.25 56.99C248.94 56.99 250.29 57.89 251.25 58.99C252.21 60.1 253.68 61 254.5 61C255.32 61 256.23 61.79 256.51 62.75C256.79 63.71 257.35 64.17 257.76 63.76C258.17 63.36 259.03 63.81 259.67 64.76C260.56 66.09 260.56 66.81 259.67 67.79C258.77 68.79 258.79 69.08 259.75 69.04C260.44 69.02 262.13 68.55 263.5 68C265.43 67.23 266.23 67.34 267 68.5C267.69 69.54 267.61 70.51 266.75 71.65C266.06 72.55 265.64 74.47 265.82 75.9C266.06 77.81 265.52 78.81 263.82 79.67C262.54 80.32 260.6 80.62 259.5 80.34C258.38 80.06 256.84 80.54 256 81.43C254.79 82.72 254.25 82.78 253.21 81.76C252.49 81.07 251.93 79.71 251.96 78.75C251.98 77.63 251.46 77.18 250.5 77.5C249.68 77.78 248.32 77.78 247.5 77.5C246.68 77.22 246.01 76.21 246.03 75.25C246.04 74.29 245.82 73.28 245.53 73C245.24 72.72 243.32 73.02 241.25 73.66C239.19 74.3 237.5 75.47 237.5 76.26C237.5 77.05 237 78.33 236.39 79.1C235.78 79.87 235.22 82.19 235.14 84.25C235.06 86.31 234.78 88.45 234.5 89C234.22 89.55 233.21 89.77 232.25 89.49C230.95 89.1 230.31 89.74 229.75 91.99C229.13 94.46 228.54 94.96 226.44 94.75C225.03 94.61 223.68 94.84 223.44 95.25C223.2 95.66 222.1 96 221 96C219.55 96 219.15 96.48 219.55 97.75C219.86 98.71 220.31 102.54 220.55 106.25C220.99 112.9 220.96 113 218.5 113C216.67 113 216 113.53 216 115C216 116.76 215.55 116.92 212.25 116.36C210.19 116 208.39 115.33 208.25 114.86C208.11 114.39 207.55 114 207 114C206.45 114 206.01 114.56 206.03 115.25C206.05 115.94 205.03 117.78 203.78 119.34C201.97 121.59 200.98 122.04 199 121.52C197.33 121.09 196 121.4 195 122.45C194.03 123.47 192.85 123.76 191.66 123.26C190.46 122.77 190.03 121.89 190.41 120.75C190.8 119.6 190.49 119 189.5 119C188.68 119 187.71 119.56 187.35 120.25C186.87 121.18 186.42 121.07 185.6 119.82C184.99 118.9 183.6 118.13 182.5 118.12C181.4 118.1 178.81 118.07 176.75 118.05C173.48 118.01 172.92 117.64 172.41 115.25C172.09 113.74 171.3 110.92 170.67 109C170.04 107.08 169.51 105.05 169.49 104.5C169.47 103.95 168.79 101.99 167.98 100.14C166.66 97.15 166.13 96.82 163.16 97.14C160.74 97.4 159.57 97.02 158.91 95.75C158.41 94.79 156.99 93.49 155.75 92.86C154.51 92.24 153.84 92.13 154.25 92.61C154.67 93.1 154.22 94.29 153.25 95.25C151.59 96.91 151.34 96.89 148.25 95C146.46 93.9 144.55 93.22 144 93.5C143.45 93.78 143 95.13 143 96.5C143 98.1 142.37 99.11 141.25 99.3C140.29 99.47 138.71 99.47 137.75 99.3C136.43 99.07 136 98.03 136 95C136 91.38 135.78 91.04 133.75 91.46C132.45 91.72 130.74 91.19 129.72 90.21C128.74 89.27 127.95 87.94 127.97 87.25C127.99 86.56 127.44 85.82 126.75 85.6C125.97 85.35 125.69 84.14 126 82.42C126.28 80.85 127.33 79.39 128.4 79.07C129.44 78.76 130.68 77.49 131.15 76.25C131.69 74.82 133.09 73.82 135 73.5C136.65 73.22 138 72.55 138 72C138 71.45 138.68 71 139.5 71C140.32 71 141.79 72.11 142.75 73.47C144.49 75.93 144.51 75.93 149.5 72.12L146.77 69.31C145.27 67.76 144.04 65.38 144.03 64C144.03 62.63 143.46 60.97 142.77 60.31C142.07 59.66 140.94 59.32 140.25 59.56C139.56 59.8 138.3 59.44 137.46 58.75C136.61 58.06 135.93 56.04 136 51L131.75 51.62C127.87 52.18 127.39 52 126.25 49.62C125.11 47.23 125.22 46.89 127.53 45.75C128.92 45.06 130.06 44.05 130.06 43.5C130.06 42.95 129.82 42.16 129.53 41.75C129.24 41.34 127.87 41.56 126.49 42.25C124.3 43.34 123.8 43.25 122.53 41.5C121.71 40.37 121.36 38.63 121.72 37.5C122.07 36.4 122.44 34.38 122.55 33C122.66 31.63 122.8 29.94 122.87 29.25C122.94 28.56 123.8 28 124.77 28C125.8 28 127.06 26.74 127.77 25C128.77 22.56 129.42 22.12 131.25 22.62C132.49 22.97 134.4 24.15 135.5 25.26C137.25 27.02 137.33 27.54 136.16 29.39C135.03 31.15 135.03 31.62 136.16 32.25C136.9 32.67 139.3 33.55 141.5 34.22C143.7 34.88 145.95 35.9 146.5 36.49C147.05 37.07 147.65 38.21 147.83 39.02C148.01 39.84 148.91 41.32 149.83 42.32C151.44 44.07 151.54 44.07 152.72 42.32C153.54 41.09 153.62 39.94 152.97 38.75C152.43 37.79 152 35.88 152 34.5C152 33.13 152.72 31.66 153.59 31.25C154.56 30.79 154.95 29.82 154.59 28.75C154.2 27.6 154.6 26.82 155.75 26.48C156.71 26.19 157.95 26.39 158.5 26.92C159.13 27.53 160.33 27.54 161.75 26.94C163.51 26.21 164.27 26.4 165.25 27.83C166.19 29.21 167.24 29.51 172.5 28.43L168.23 26.46C165.04 24.99 163.97 23.93 163.98 22.25C163.99 21.01 164.45 19.77 165 19.5C165.55 19.23 165.76 18.44 165.46 17.75C165.16 17.06 165.85 15.6 166.99 14.5C168.13 13.4 169.05 11.82 169.04 11C169.03 10.18 170.25 8.93 171.76 8.24C173.27 7.55 175.06 6.98 175.75 6.99C176.44 7 177.11 8.01 177.25 9.25C177.39 10.49 178.51 11.95 179.75 12.5C180.99 13.05 182.01 14.29 182 15.25C182 16.21 181.48 17.11 180.85 17.25C179.98 17.44 179.98 18.05 180.85 19.75C181.72 21.44 182.62 21.88 184.5 21.5C186.49 21.1 187.28 21.57 188.36 23.75C189.11 25.26 190.46 26.84 191.36 27.25C192.26 27.66 192.84 28.56 192.64 29.25C192.44 29.94 192 31.4 191.66 32.5C191.14 34.17 191.5 34.5 193.77 34.48C195.27 34.47 197.06 34.13 197.75 33.73C198.51 33.29 199 30.84 199 22L204.25 19.62C207.14 18.32 209.8 16.63 210.18 15.87C210.61 15 209.97 14.04 208.43 13.25C206.54 12.28 206.17 11.53 206.75 9.9C207.35 8.22 208.05 7.92 210.25 8.4C212.41 8.87 212.89 8.68 212.5 7.5C212.22 6.67 212.68 5.78 213.5 5.5C214.32 5.22 215.07 4.27 215.15 3.38C215.26 2.19 215.86 1.96 217.4 2.49ZM154.49 54.25C155.86 54.94 157.09 56.23 157.24 57.12C157.44 58.36 158.75 58.77 162.75 58.87C165.64 58.94 168.01 58.66 168.02 58.25C168.04 57.84 166.91 56.49 165.52 55.25C164.14 54.01 162.32 53.23 161.5 53.5C160.68 53.77 159.44 53.4 158.75 52.67C158.06 51.94 156.49 50.82 155.25 50.17C154.01 49.53 152.78 49 152.5 49C152.22 49 152 49.9 152 51C152 52.13 153.08 53.54 154.49 54.25ZM232.83 53.67C232.94 54.54 233.78 54.8 235.25 54.41C236.63 54.05 237.77 54.34 238.19 55.16C238.58 55.9 239.14 56.16 239.44 55.75C239.75 55.34 239.21 54.1 238.25 52.99C237.29 51.89 236.01 50.99 235.42 50.99C234.82 51 233.96 51.3 233.5 51.67C233.04 52.03 232.74 52.93 232.83 53.67ZM224 72C225.33 72 225.75 71.58 225.27 70.75C224.86 70.06 224.41 69.16 224.27 68.75C224.12 68.34 224 67.55 224 67C224 66.45 223.55 66 223 66C222.45 66 222 67.35 222 69C222 71.33 222.44 72 224 72ZM170.5 72.09C171.05 72.09 172.08 71.39 172.78 70.54C173.48 69.7 173.64 69 173.14 69C172.64 69 171.61 69.7 170.86 70.54C170.11 71.39 169.95 72.09 170.5 72.09Z" fill="$[hairColor]" stroke="#000" stroke-width="4" />
	<path id="dreads" fill-rule="evenodd" class="dreads" d="M176.78 95.02C179.26 95.04 181.26 95.78 182.78 97.27C184.05 98.52 185.04 98.95 185.03 98.25C185.01 97.56 185.68 97 186.5 97C187.32 97 188 97.67 188 98.5C188 99.33 188.89 100 190 100C191.1 100 192.68 98.88 193.5 97.5C194.32 96.13 195.56 94.99 196.25 94.98C196.94 94.97 198.51 95.87 199.75 96.98C201.09 98.18 202.65 98.74 203.61 98.35C204.6 97.94 205.56 98.33 206.11 99.35C206.6 100.26 207.45 100.78 208 100.5C208.55 100.22 209.15 100.9 209.32 102C209.5 103.1 209.95 104 210.32 104C210.7 104 211.89 103.44 212.97 102.75C214.7 101.65 215.37 101.93 218.39 105C221.76 108.41 221.86 108.44 222.42 106.25C222.74 105.01 222.78 103.55 222.5 103C222.22 102.45 222.79 101.56 223.75 101.03C224.71 100.5 225.05 100.05 224.5 100.05C223.95 100.04 224.4 99.39 225.5 98.6C227.03 97.5 227.8 97.44 228.79 98.33C229.51 98.97 230.07 100.06 230.04 100.75C230.02 101.44 230.22 102 230.5 102C230.78 102 233.03 100.65 235.5 99C237.97 97.35 240.68 96.22 241.5 96.5C242.32 96.78 243 97.67 243 98.5C243 99.33 242.55 100.22 242 100.5C241.45 100.78 241 101.45 241 102C241 102.55 242.13 103 243.5 103C244.88 103 246.05 103.56 246.12 104.25C246.18 104.94 246.18 106.06 246.12 106.75C246.05 107.44 246.68 108 247.5 108C248.32 108 249.44 108.79 249.98 109.75C250.84 111.28 251.09 111.31 251.96 110C252.51 109.17 252.74 107.71 252.48 106.75C252.21 105.79 252.45 104.78 253 104.5C253.55 104.22 254 103.1 254 102C254 100.2 254.53 100.04 259.25 100.42C262.14 100.65 265.29 100.88 266.25 100.92C267.21 100.96 268.24 101.79 268.54 102.75C268.84 103.76 268.42 104.82 267.54 105.25C266.69 105.66 266 106.67 266 107.5C266 108.33 266.68 109.22 267.5 109.5C268.32 109.78 268.98 110.56 268.96 111.25C268.93 111.94 269.63 113.17 270.5 114C271.63 115.07 272.08 115.14 272.04 114.25C272.02 113.56 273.01 113.01 274.25 113.03C275.49 113.04 277.18 113.74 278 114.58C279.02 115.62 280.55 115.94 282.75 115.56C284.54 115.25 286 114.55 286 114C286 113.45 287.46 113 289.25 113C291.51 112.99 292.96 113.68 294 115.25C294.82 116.49 295.5 119.3 295.5 121.5C295.5 125.05 295.77 125.5 297.89 125.5C299.65 125.5 300.65 126.37 301.64 128.75C302.39 130.54 303.34 131.99 303.75 131.97C304.16 131.96 305.03 132.97 305.68 134.22C306.6 135.98 306.6 136.78 305.68 137.71C304.77 138.64 304.77 139.27 305.69 140.46C306.35 141.31 307.36 142 307.94 142C308.52 142 309.45 140.88 310 139.5C310.6 138 311.8 137 313 137C314.33 137 315.17 137.83 315.5 139.5C315.77 140.88 316.68 142 317.5 142C318.32 142 319.11 143.01 319.25 144.25C319.43 145.9 320.23 146.57 322.25 146.75C324.04 146.91 325.17 147.7 325.5 149C325.83 150.33 325.33 151.33 324 152C322.16 152.92 322.12 153.18 323.53 155.25C324.36 156.49 324.97 157.95 324.86 158.5C324.76 159.05 325.23 160.85 325.91 162.5C327.07 165.3 326.95 165.66 324.1 168C322.42 169.38 321.04 170.95 321.03 171.5C321.02 172.05 322.35 174.07 324 176C325.64 177.93 327.4 179.5 327.91 179.5C328.42 179.5 329.1 179.84 329.42 180.25C329.74 180.66 329.32 182.35 328.5 184C327.68 185.65 327.34 187.11 327.76 187.25C328.18 187.39 328.41 190.09 328.26 193.25C328.04 198.12 327.54 199.46 325 202C323.35 203.65 322 205.45 322 206C322 206.55 321.55 207.22 321 207.5C320.45 207.78 319.26 207.44 318.36 206.75C317.45 206.06 315.43 205.61 313.86 205.75C312.04 205.91 310.82 205.46 310.5 204.5C310.23 203.68 310.23 202.55 310.5 202C310.77 201.45 311.56 201.02 312.25 201.04C312.94 201.07 314.06 200.51 314.75 199.79C315.5 199.02 315.7 197.76 315.25 196.66C314.75 195.42 313.85 195 312.5 195.36C311.4 195.66 308.25 195.43 305.5 194.84C302.75 194.25 299.94 193.37 299.25 192.88C298.39 192.28 298.3 191.45 298.95 190.25C299.64 188.98 299.43 188.08 298.2 186.98C297.26 186.15 295.71 185.58 294.75 185.73C293.79 185.88 293.01 185.66 293.03 185.25C293.04 184.84 291.92 183.94 290.53 183.25C289.14 182.56 287.89 181.02 287.75 179.83C287.61 178.63 286.82 177.42 286 177.14C284.84 176.74 284.67 177.11 285.25 178.81C285.87 180.62 285.37 181.39 282.4 183.25C279.99 184.76 278.58 185.14 278.15 184.4C277.79 183.79 276.49 182.78 275.25 182.15C273.68 181.35 273.2 180.47 273.66 179.25C274.04 178.25 273.93 177.82 273.41 178.24C272.91 178.65 271.94 178.54 271.25 177.99C270.56 177.45 268.65 177.22 267 177.5C264.34 177.94 264.06 178.31 264.54 180.75C264.88 182.45 264.59 183.78 263.79 184.23C263.08 184.64 260.59 184.98 258.25 184.98C255.47 184.99 253.45 184.4 252.39 183.25C250.88 181.6 250.63 181.6 248.14 183.19C246.69 184.11 244.82 185.82 244 186.98C242.6 188.95 242.65 189.09 244.75 189.05C246.1 189.02 247 189.6 247 190.5C247 191.32 246.32 192.22 245.5 192.5C244.68 192.78 242.76 193.01 241.25 193.01C239.74 193.02 236.98 192.68 235.13 192.26C233.27 191.84 231.36 190.71 230.88 189.75C230.26 188.52 230.61 187.18 232.03 185.25C233.15 183.74 234.05 182.16 234.03 181.75C234.02 181.34 232.43 181 230.5 181C228.06 181 227 181.45 227 182.5C227 183.32 227.34 184 227.75 184.01C228.16 184.01 228.43 185.02 228.33 186.26C228.24 187.49 228.13 188.84 228.08 189.25C228.04 189.66 226.99 190.12 225.75 190.27C224.34 190.45 223.64 191.1 223.87 192.02C224.08 192.84 224.41 194.29 224.62 195.25C224.9 196.52 224.1 197.24 221.75 197.88C219.96 198.36 217.2 198.48 215.61 198.13C213.89 197.76 212.37 196.58 211.86 195.25C211.39 194.01 210.55 192.78 210 192.5C209.45 192.22 209 190.65 209 189C209 187.35 208.55 185.78 208 185.5C207.33 185.17 207.33 184.33 208 183C208.55 181.9 209.79 181.02 210.75 181.04C212.31 181.08 212.34 180.92 211 179.5C210.18 178.63 208.94 177.93 208.25 177.96C207.56 177.98 206.55 178.9 206 180C205.45 181.1 205 182.9 205 184C205 185.1 204.55 186 204 186C203.45 186 203.17 186.79 203.37 187.75C203.58 188.71 203.12 190.4 202.36 191.5C201.59 192.6 200.97 194.29 200.98 195.25C200.99 196.21 201.45 197 202 197C202.55 197 203 197.68 203 198.5C203 199.32 201.99 200.21 200.75 200.47C199.51 200.73 197.6 201.04 196.5 201.16C195.4 201.28 193.6 201.08 192.5 200.71C191.19 200.26 190.41 199 190.25 197.02C190.06 194.74 190.43 193.98 191.75 193.92C193.14 193.86 193.19 193.73 192 193.29C191.18 192.98 189.92 192.23 189.22 191.62C188.19 190.73 188.4 190.05 190.22 188.28C192.05 186.49 192.25 185.81 191.24 184.78C190.55 184.08 189.9 181.93 189.8 180C189.65 177.29 188.97 176.16 186.8 175C185.26 174.18 184.22 172.94 184.5 172.25C184.77 171.56 184.32 171 183.5 171C182.68 171 181.78 171.45 181.5 172C181.22 172.55 181.68 174.35 182.5 176C183.37 177.75 183.72 179.94 183.33 181.25C182.96 182.49 181.94 184.02 181.08 184.66C180.21 185.3 179.16 185.64 178.75 185.41C178.34 185.19 177.34 185.79 176.54 186.75C175.74 187.71 175.31 189.18 175.58 190C175.85 190.82 175.5 192.01 174.79 192.64C174.08 193.26 171.7 194.09 169.5 194.49C166.97 194.94 164.58 194.75 160.5 192.76L163 190.99C164.74 189.76 165.27 188.73 164.75 187.61C164.26 186.55 162.72 186 160.25 186C157.58 185.99 156.14 186.57 155.25 188C154.44 189.3 153.3 189.82 152 189.5C150.9 189.22 149.32 189.45 148.5 190C147.68 190.55 145.88 190.78 144.5 190.5C143.07 190.21 141.93 189.25 141.85 188.25C141.76 187.29 141.65 185.92 141.6 185.21C141.54 184.51 140.82 183.5 140 182.98C139.18 182.46 137.26 182.02 135.75 182.02C134.24 182.01 133 181.55 133 181C133 180.45 132.55 180 132 180C131.45 180 130.78 180.9 130.5 182C130.22 183.1 129.21 184.06 128.25 184.14C127.29 184.22 125.6 184.31 124.5 184.34C123.4 184.37 120.92 183.58 119 182.59C117.08 181.6 114.71 181.07 113.75 181.4C112.79 181.73 112.02 182.79 112.04 183.75C112.07 184.71 111.32 186.18 110.38 187C109.42 187.84 106.67 188.52 104.09 188.56C101.56 188.59 98.83 188.99 98 189.45C96.71 190.17 96.74 190.4 98.25 191.14C99.21 191.61 100 192.9 100 194C100 195.1 99.55 196.22 99 196.5C98.45 196.78 97.55 198.13 97 199.5C96.4 201 95.2 202 94 202C92.9 202 91.21 202.9 90.25 204.01C89.28 205.12 87.27 206.01 85.75 206.01C84.24 206 82.78 205.55 82.5 205C82.2 204.4 81.29 204.61 80.25 205.52C78.83 206.76 78.26 206.81 77.25 205.77C76.56 205.07 76.22 203.71 76.5 202.75C76.81 201.67 76.33 200.76 75.25 200.38C74.29 200.04 71.59 198.91 69.25 197.88C66.16 196.51 64.82 195.25 64.35 193.25C63.99 191.74 64.22 189.26 64.85 187.75C65.73 185.64 65.71 184.48 64.75 182.75C64.06 181.51 63.05 180.19 62.5 179.82C61.85 179.37 61.94 178.24 62.75 176.57C63.65 174.71 64.48 174.19 65.75 174.68C66.71 175.06 68.85 175.34 70.5 175.3C72.15 175.27 73.83 175.75 74.23 176.37C74.72 177.12 74.96 176.99 74.94 176C74.92 175.18 75.61 173.82 76.47 173C77.33 172.18 78.14 170.38 78.26 169.01C78.42 167.4 79.21 166.4 80.5 166.19C81.6 166 82.83 166.45 83.23 167.18C83.78 168.17 83.97 168.19 83.98 167.25C83.99 166.56 82.99 165.33 81.75 164.5C79.63 163.1 79.58 162.78 80.84 159.25C82.04 155.92 81.98 155.13 80.34 152.14C78.51 148.8 78.51 148.78 80.8 147.14C82.06 146.24 83.07 144.71 83.05 143.75C83.02 142.79 83.9 141.55 85 141C86.1 140.45 88.13 140 89.5 140C90.88 140 92.22 139.32 92.5 138.5C92.83 137.5 93.83 137.17 95.5 137.5C97.56 137.91 97.89 137.69 97.35 136.25C96.99 135.29 95.76 133.47 94.6 132.2C92.93 130.37 92.73 129.56 93.63 128.2C94.25 127.27 95.72 126.5 96.88 126.5C98.05 126.5 99.23 125.71 99.5 124.75C99.78 123.79 100.45 123 101 123C101.55 123 102.67 124.01 103.48 125.25C104.35 126.57 104.72 128.53 104.37 130C103.99 131.6 104.27 132.75 105.14 133.2C105.9 133.59 107.29 133.14 108.28 132.2C109.26 131.26 109.82 129.71 109.53 128.75C109.24 127.79 109.9 125.42 111 123.5C112.19 121.43 112.59 119.8 112 119.5C111.37 119.19 111.46 118.4 112.25 117.37C112.94 116.47 114.4 115.35 115.5 114.87C116.6 114.39 118.4 113.44 119.5 112.75C120.6 112.06 121.72 111.15 122 110.72C122.28 110.3 123.29 110.18 124.25 110.47C125.41 110.82 126 112.01 126 114C126 116.5 126.33 116.92 128 116.5C129.13 116.22 131.2 116.89 132.75 118.03C134.26 119.15 136.18 120.02 137 119.97C137.96 119.9 137.67 119.44 136.2 118.68C134.93 118.03 134.03 116.83 134.21 116C134.38 115.17 135.42 114.39 136.51 114.25C137.6 114.11 139.06 112.87 139.75 111.5C140.44 110.12 140.78 108.55 140.5 108C140.22 107.45 140.7 106.44 141.54 105.75C142.39 105.06 143.07 103.94 143.04 103.25C143.02 102.56 143.79 102.01 144.75 102.02C145.71 102.02 147.01 102.36 147.63 102.77C148.26 103.17 148.93 104.35 149.13 105.39C149.39 106.73 150.53 107.4 153 107.65C155.85 107.95 156.69 107.59 157.54 105.76C158.11 104.52 159.01 103.56 159.54 103.63C160.07 103.71 161.63 104.13 163 104.56C165.11 105.23 165.38 105.09 164.75 103.67C164.26 102.57 164.51 101.83 165.5 101.5C166.32 101.22 167 100.33 167 99.5C167 98.5 167.67 98.17 169 98.5C170.33 98.83 171.34 98.33 172.03 97C172.78 95.54 174.05 95.01 176.78 95.02ZM252.83 116.04C252.92 116.57 254.24 117.84 255.75 118.87C257.26 119.9 259.4 121.03 260.5 121.38C262.09 121.9 262.64 121.47 263.19 119.26C263.69 117.26 263.41 116.14 262.19 115.18C261.26 114.45 260.61 113.44 260.75 112.93C260.89 112.42 260.1 111.83 259 111.61C257.9 111.4 256.02 112.09 254.83 113.15C253.64 114.21 252.74 115.51 252.83 116.04ZM148.34 118.56C147.69 119.65 147.53 121.16 147.98 122C148.42 122.83 149.28 123.16 149.89 122.75C150.5 122.34 151 120.88 151 119.5C151 117.5 151.5 117 153.5 117C155.5 117 156 116.5 156 114.5C156 113.13 155.62 112 155.15 112C154.69 112 153.22 113.04 151.9 114.31C150.58 115.58 148.98 117.49 148.34 118.56ZM233 117C233 117.55 233.68 118 234.5 118C235.32 118 236 118.45 236 119C236 119.55 236.5 119.89 237.12 119.75C237.74 119.61 238.64 118.49 239.12 117.25C239.75 115.63 239.65 115.04 238.75 115.14C238.06 115.21 236.49 115.44 235.25 115.64C234.01 115.84 233 116.45 233 117ZM180 122C180.55 122 181 121.33 181 120.5C181 119.67 180.55 119 180 119C179.45 119 179 119.67 179 120.5C179 121.33 179.45 122 180 122ZM279.25 123.45C279.94 123.7 280.85 123.58 281.28 123.2C281.71 122.81 282.04 121.71 282.03 120.75C282.01 119.79 281.64 119 281.2 119C280.76 119 279.86 119.9 279.2 121C278.26 122.57 278.27 123.1 279.25 123.45ZM245.5 125C246.52 125.96 247.16 126.1 247.28 125.37C247.38 124.75 246.79 123.68 245.97 123C245.14 122.32 244.34 122.15 244.19 122.63C244.04 123.11 244.63 124.17 245.5 125ZM202.5 129C203.88 129.55 205.22 130 205.5 130C205.78 130 205.61 129.21 205.13 128.25C204.65 127.29 203.25 126.2 202.01 125.84C200.4 125.38 199.79 125.59 199.88 126.59C199.94 127.37 201.13 128.45 202.5 129ZM139.82 129.47C139.92 129.76 140.56 130.19 141.25 130.42C141.94 130.66 143.25 129.98 144.17 128.92C145.09 127.87 145.54 127.03 145.17 127.06C144.8 127.1 143.41 127.53 142.07 128.03C140.73 128.53 139.72 129.18 139.82 129.47ZM153 139C152.45 139 152.25 139.56 152.56 140.25C152.86 140.94 152.41 142.06 151.56 142.75C150.45 143.63 149.42 143.71 148 143C146.67 142.33 145.83 142.33 145.5 143C145.22 143.55 146.01 144.86 147.25 145.91C148.49 146.96 149.72 147.45 150 146.99C150.28 146.54 151.63 145.89 153 145.54C155.19 144.99 155.5 144.37 155.5 140.54C155.5 138.13 155.15 135.79 154.72 135.33C154.29 134.88 153.96 135.51 153.97 136.75C153.99 137.99 153.55 139 153 139ZM167.25 146.75C165.83 146.91 164.83 147.83 164.55 149.25C164.3 150.49 164.53 151.95 165.05 152.5C165.58 153.05 165.78 154.29 165.5 155.25C165.14 156.53 164.39 156.83 162.75 156.35C160.78 155.78 160.66 155.91 161.75 157.35C162.44 158.26 162.7 159.79 162.34 160.75C161.98 161.71 161.75 162.84 161.84 163.25C161.93 163.66 160.88 164.9 159.5 166C158.13 167.1 157 168.9 157 170C157 171.1 157.45 172.22 158 172.5C158.55 172.78 159.39 174.01 159.86 175.25C160.35 176.54 161.83 177.71 163.34 178C165.21 178.36 165.98 178.07 166.02 177C166.06 176.18 165.51 174.99 164.79 174.38C164.08 173.76 163.16 172.3 162.75 171.13C162.14 169.4 162.77 168.39 166.11 165.75C169.43 163.12 170.12 162.02 169.72 160C169.44 158.6 169.93 156.4 170.84 155C171.73 153.63 172.72 152.28 173.05 152C173.38 151.72 173.95 150.71 174.32 149.75C174.77 148.58 174.17 147.17 172.5 145.5C170.24 143.24 170.15 142.83 171.5 141.25C172.33 140.29 172.67 139.15 172.25 138.72C171.84 138.29 171.02 137.96 170.44 137.97C169.86 137.99 169.41 139.91 169.44 142.25C169.49 145.94 169.2 146.53 167.25 146.75ZM278.5 143C279.32 143 279.77 142.55 279.5 142C279.23 141.45 278.55 141 278 141C277.45 141 277 141.45 277 142C277 142.55 277.68 143 278.5 143ZM203.5 146.5C204.32 146.78 205.45 146.78 206 146.5C206.55 146.22 207 145.55 207 145C207 144.45 206.12 144 205.05 144C203.98 144 202.85 144.45 202.55 145C202.25 145.55 202.68 146.22 203.5 146.5ZM301.86 148.5C302.45 149.05 303.62 149.16 304.46 148.75C305.71 148.14 305.77 147.71 304.75 146.46C304.06 145.61 303.18 144.93 302.8 144.96C302.41 144.98 301.8 145.56 301.44 146.25C301.08 146.94 301.27 147.95 301.86 148.5ZM235 152C236.65 152 238 151.55 238 151C238 150.45 236.99 149.32 235.75 148.49C234.51 147.66 233.16 146.99 232.75 146.99C232.34 147 232 148.13 232 149.5C232 151.61 232.47 152 235 152ZM93.6 152.79C95.15 153.84 95.56 153.84 95.84 152.79C96.03 152.08 95.91 150.94 95.59 150.25C95.27 149.56 94.57 149 94.05 149C93.53 149 92.78 149.56 92.4 150.25C92 150.97 92.51 152.05 93.6 152.79ZM108.76 152.07C108.89 152.58 109.67 153.22 110.5 153.5C111.33 153.78 112.45 154 113 154C113.55 154 113.89 153.37 113.75 152.6C113.61 151.82 113.23 151.02 112.89 150.81C112.56 150.6 111.44 150.59 110.4 150.78C109.36 150.98 108.63 151.56 108.76 152.07ZM185.93 156.07C185.97 156.58 187.24 156.71 188.75 156.36C190.26 156.01 191.72 155.55 192 155.34C192.28 155.12 191.81 154.26 190.96 153.4C189.58 152.01 189.25 152.02 187.64 153.5C186.66 154.4 185.89 155.56 185.93 156.07ZM220.01 161.5C222.38 164.7 222.73 165.76 221.74 166.79C220.75 167.83 220.8 168.08 222 168.06C222.9 168.05 223.8 166.62 224.25 164.52C224.66 162.58 224.75 160.44 224.45 159.75C224.15 159.06 222.26 157.77 220.25 156.88C217.94 155.85 216.68 155.67 216.83 156.38C216.95 156.99 218.39 159.3 220.01 161.5ZM203.36 162C204.65 163.31 204.66 163.95 203.42 167C202.14 170.17 202.17 170.61 203.75 171.64C204.71 172.27 206.11 172.5 206.85 172.14C207.68 171.75 208.02 170.53 207.72 169C207.44 167.63 207.67 165.6 208.21 164.5C208.93 163.05 208.76 161.6 207.6 159.25C206.72 157.46 205.35 156 204.55 156C203.76 156 202.83 157.01 202.49 158.25C202.11 159.63 202.45 161.08 203.36 162ZM238.5 162C239.32 162 240.18 161.66 240.4 161.25C240.63 160.84 239.62 160.44 238.17 160.36C236.71 160.28 235.86 160.61 236.26 161.11C236.67 161.6 237.68 162 238.5 162ZM317.8 187.7C317.92 189.13 318.66 190.01 319.75 190.03C320.71 190.04 321.99 189.03 322.6 187.78C323.2 186.53 323.54 184.94 323.35 184.25C323.16 183.56 322.42 183 321.7 183C320.98 183 319.77 183.54 319 184.2C318.23 184.86 317.69 186.44 317.8 187.7Z" fill="$[hairColor]" stroke="#000" stroke-width="4" />
</svg>