<?xml version="1.0" encoding="UTF-8" standalone="no"?>
<svg
   xmlns:dc="http://purl.org/dc/elements/1.1/"
   xmlns:cc="http://creativecommons.org/ns#"
   xmlns:rdf="http://www.w3.org/1999/02/22-rdf-syntax-ns#"
   xmlns:svg="http://www.w3.org/2000/svg"
   xmlns="http://www.w3.org/2000/svg"
   xmlns:sodipodi="http://sodipodi.sourceforge.net/DTD/sodipodi-0.dtd"
   xmlns:inkscape="http://www.inkscape.org/namespaces/inkscape"
   inkscape:version="1.0 (4035a4fb49, 2020-05-01)"
   sodipodi:docname="fauxhawk-fade.svg"
   id="svg41"
   version="1.1"
   height="600"
   width="400"
   viewBox="0 0 400 600">
  <metadata
     id="metadata47">
    <rdf:RDF>
      <cc:Work
         rdf:about="">
        <dc:format>image/svg+xml</dc:format>
        <dc:type
           rdf:resource="http://purl.org/dc/dcmitype/StillImage" />
        <dc:title></dc:title>
      </cc:Work>
    </rdf:RDF>
  </metadata>
  <defs
     id="defs45">
    <linearGradient
       id="shortfade"
       gradientUnits="userSpaceOnUse"
       x1="200"
       y1="100"
       x2="200"
       y2="310">
      <stop
         offset="0"
         stop-color="rgba(0,0,0,.25)"
         id="stop118" />
      <stop
         offset="1"
         stop-color="rgba(0,0,0,0)"
         id="stop120" />
    </linearGradient>
  </defs>
  <sodipodi:namedview
     inkscape:current-layer="layer2"
     inkscape:window-maximized="1"
     inkscape:window-y="-8"
     inkscape:window-x="1912"
     inkscape:cy="139.97378"
     inkscape:cx="178.2409"
     inkscape:zoom="6.72"
     showgrid="false"
     id="namedview43"
     inkscape:window-height="1417"
     inkscape:window-width="2560"
     inkscape:pageshadow="2"
     inkscape:pageopacity="0"
     guidetolerance="10"
     gridtolerance="10"
     objecttolerance="10"
     borderopacity="1"
     bordercolor="#666666"
     pagecolor="#ffffff"
     inkscape:document-rotation="0" />
  <g
     style="display:inline"
     inkscape:label="Layer 1"
     id="layer1"
     inkscape:groupmode="layer">
    <path
       id="Short Fade"
       class="short_fade"
       d="M 60,310 H 50 v -10 c 0,-140 50,-200 150,-200 100,0 150,60 150,200 v 10 h -10 v -20 c 0,-5 -10,-20 -15,-25 -5,-5 -5,-55 -15,-65 C 270,160 253.57143,161.90476 203.57143,161.90476 153.57143,161.90476 130,160 90,200 c -10,10 -10,60 -15,65 -5,5 -15,20 -15,25 z"
       sodipodi:nodetypes="ccsssccsssssssc"
       style="display:inline;opacity:1;fill:url(#shortfade);stroke:none;stroke-width:1;stroke-miterlimit:4;stroke-dasharray:none" />
  </g>
  <g
     inkscape:label="Layer 2"
     id="layer2"
     inkscape:groupmode="layer">
    <path
       id="faux-hawk"
       d="m 186.57427,63.308307 c -1.38057,0.913794 -3.04787,2.223251 -3.70627,2.901532 -0.65844,0.697121 -2.64434,2.110204 -4.42845,3.137044 -1.79471,1.036262 -4.00365,2.995737 -4.92755,4.352297 -0.91331,1.34714 -2.76115,3.023999 -4.12046,3.739962 -1.35932,0.715962 -4.37728,3.134017 -6.97911,4.839137 -2.63371,1.695701 -3.69803,3.691435 -4.77061,5.048001 -1.08321,1.33771 -1.98502,2.0848 -3.31246,2.951489 -1.31685,0.847857 -2.34912,2.437267 -2.34912,2.437267 -0.5468,0.602729 -3.46377,0.794317 -5.21604,1.905945 -1.75224,1.111627 -2.50925,3.2252 -3.47565,3.667966 -0.95579,0.442767 -2.93104,1.761643 -4.40719,2.920373 -1.47615,1.1493 -2.99478,2.13847 -3.36645,2.20441 -0.36109,0.066 -1.8266,1.07394 -3.24964,2.23266 -1.42305,1.1399 -2.75053,2.10079 -2.93105,2.12905 -0.19115,0.0282 -2.03902,1.27178 -4.12047,2.74138 1.2065,0.29352 -4.28941,2.36203 -5.43634,3.46423 -1.14694,1.09278 -3.02701,2.11038 -3.6111,3.16549 -1.01951,1.78989 -2.03966,1.62417 -5.56541,1.97273 -3.16469,0.35798 -2.24709,2.16025 -4.87017,3.98784 -2.10273,1.4602 -3.65367,2.45792 -4.30149,3.88985 -0.52038,1.15873 -2.102726,4.032 -3.515143,6.37772 -2.187655,3.66459 -1.961322,5.04941 -8.205703,10.20246 -3.939935,3.23125 -2.727061,4.18581 -4.69169,5.75905 -2.55936,2.04426 -3.918699,3.6175 -4.831986,5.58639 -0.690274,1.50728 -1.528839,5.23766 -2.399666,7.38554 -0.870813,2.14789 -1.688536,4.29578 -1.837202,4.78564 -0.138069,0.48987 -1.709777,2.09137 -3.472653,3.56098 -2.569979,2.18556 -3.207171,3.0711 -3.589472,4.97405 -0.244256,1.27177 -0.45665,2.69427 -0.477888,3.16531 -0.01069,0.4616 -0.211735,2.01215 -1.326806,3.07668 -13.916806,26.9305 0.055,20.43389 20.173859,19.79291 6.615603,-2.29521 23.16677,-11.0483 33.22599,-13.3542 24.88387,-5.70421 49.90359,-4.27667 77.69979,-4.13382 25.58786,0.1315 50.83302,-0.51795 75.14099,4.69287 13.98886,2.99874 30.48237,11.73859 39.34492,13.95517 20.81121,0.15022 27.74436,1.09154 26.42775,-2.90817 -0.11681,-1.44134 -1.20046,-5.15863 -1.80582,-7.90942 -0.6059,-2.67767 -1.03999,-2.93247 -2.06049,-6.34754 -0.20862,-0.69812 -1.48676,-1.97832 -2.56999,-2.94864 -1.10441,-0.97031 -2.02833,-2.17615 -2.06018,-2.66601 -0.0212,-0.48988 -0.26553,-1.97832 -0.54162,-3.30662 -0.42478,-2.07252 -1.47655,-2.67736 -4.57753,-5.10785 -2.0496,-1.58266 -0.90005,-5.269 -1.00626,-5.76828 -0.11681,-0.51813 -0.74335,-1.5544 -1.423,-2.31746 -0.67969,-0.76306 -1.77353,-2.7979 -2.47442,-4.52187 -0.82834,-2.1102 -2.02837,-3.82475 -3.55762,-5.08709 -1.2956,-1.09278 -2.79298,-3.06169 -3.44079,-4.54071 -0.61595,-1.45077 -0.94422,-3.7719 -1.96373,-4.61032 -1.0195,-0.83844 0.38517,-0.41371 -0.79361,-0.87532 -1.1788,-0.48045 -2.54874,-1.61091 -3.06909,-2.52471 -0.50977,-0.92321 -1.97528,-2.42108 -3.24965,-3.33487 l -1.23013,-2.4395 c -0.56283,-0.51814 -1.52924,-1.93122 -2.15581,-3.13705 -0.61592,-1.21526 -2.88856,-3.7588 -5.03374,-5.6806 -2.15582,-1.94063 -2.69034,-5.19499 -4.84613,-7.35228 -2.1558,-2.18558 -4.5665,-4.23926 -5.34174,-4.5313 -0.79648,-0.29204 -3.03724,-2.21382 -5.00188,-4.3146 -2.36822,-2.58123 -1.74459,-4.22383 -4.89863,-5.96663 -2.55936,-1.43193 -5.84086,-3.01458 -7.29577,-3.49503 -1.46552,-0.48045 -3.12152,-1.970641 -4.58706,-2.592391 -1.46554,-0.612341 -3.69577,-1.906792 -4.77902,-3.253936 -1.07259,-1.356554 -2.88908,-2.198828 -3.30327,-2.227094 -0.42479,-0.02823 -1.9434,-1.912362 -3.37708,-4.220404 -1.42303,-2.326874 -3.38769,-4.91753 -4.38595,-5.727699 -0.99826,-0.81959 -3.52575,-1.535551 -5.67092,-1.592074 -3.82312,-0.06594 -3.92933,-0.131887 -7.0834,-4.889269 -2.51688,-3.956633 -3.46202,-4.889268 -4.90631,-4.719698 -1.42304,0.16957 -2.27262,-0.66886 -4.30099,-4.333456 -2.03898,-3.834167 -2.8036,-4.616072 -4.59834,-4.616072 -1.48676,0.01884 -2.59119,0.866691 -3.57885,2.703699 -1.43365,2.590653 -1.45491,2.600074 -2.2089,0.442766 -0.4248,-1.19641 -2.10271,-3.268932 -3.73814,-4.57839 l -3.52631,-2.066941 c -3.75306,1.148523 -3.36435,2.987339 -4.96989,4.493782 -4.58774,-3.457344 -5.26697,-3.161644 -7.66705,-2.229009 -1.67791,0.640598 -3.91868,0.885533 -4.99129,0.527551 -1.30621,-0.405083 -2.77175,-0.06594 -4.44966,1.055102 z"
       fill="$[hairColor]"
       stroke="#000000"
       stroke-width="4.00087"
       sodipodi:nodetypes="ccccsccccscccccccccccccccsccccccssscccscccccscccsccccccccccccccccccccccccccccc" />
  </g>
</svg>
