<svg xmlns="http://www.w3.org/2000/svg" viewBox="0 0 400 600" width="400" height="600">
	<path id="faux-hawk" d="M185.17 46.93C183.87 47.9 182.3 49.29 181.68 50.01C181.06 50.75 179.19 52.25 177.51 53.34C175.82 54.44 173.74 56.52 172.87 57.96C172.01 59.39 170.27 61.17 168.99 61.93C167.71 62.69 164.67 64.81 162.22 66.62C159.74 68.42 156.87 71.05 155.86 72.49C154.84 73.91 153 75.82 151.75 76.74C150.51 77.64 148.97 78.26 148.35 78.12C147.73 77.97 145.88 78.83 144.23 80.01C142.58 81.19 140.48 82.54 139.57 83.01C138.67 83.48 136.81 84.88 135.42 86.11C134.03 87.33 132.6 88.38 132.25 88.45C131.91 88.52 130.53 89.59 129.19 90.82C127.85 92.03 126.6 93.05 126.43 93.08C126.25 93.11 124.51 94.43 122.55 95.99C120.59 97.54 118.09 99.76 117.01 100.93C115.93 102.09 114.58 103.96 114.03 105.08C113.07 106.98 112.81 107.12 109.49 107.49C106.51 107.87 105.48 108.31 103.01 110.25C101.03 111.8 99.78 113.28 99.17 114.8C98.68 116.03 97.19 119.08 95.86 121.57C93.8 125.46 92.54 126.93 86.66 132.4C82.95 135.83 78.41 140 76.56 141.67C74.15 143.84 72.87 145.51 72.01 147.6C71.36 149.2 70.15 152.37 69.33 154.65C68.51 156.93 67.74 159.21 67.6 159.73C67.47 160.25 65.99 161.95 64.33 163.51C61.91 165.83 61.31 166.77 60.95 168.79C60.72 170.14 60.52 171.65 60.5 172.15C60.49 172.64 59.6 173.97 58.55 175.1C57.5 176.23 56.4 177.73 56.09 178.43C55.79 179.12 55.06 182.04 54.5 184.89C53.95 187.76 53.45 191.31 53.36 192.8C53.23 195.08 52.76 196.27 50.44 200.28C49 202.89 47.68 205.97 47.46 207.13C47.24 208.31 47.26 210.7 47.51 212.49C47.91 215.45 47.85 215.96 46.93 218.34C46.39 219.77 45.94 221.94 45.92 223.18C45.9 224.4 46.12 226.21 46.4 227.18C46.85 228.74 46.79 229.24 45.86 231.68C45.3 233.17 44.84 235.14 44.84 236.04C44.83 236.95 45.01 238.42 45.24 239.31C45.47 240.2 45.92 241.33 46.25 241.82C46.63 242.4 46.88 244.45 46.97 247.79C47.05 250.67 46.89 254.05 46.6 255.58C46.24 257.45 46.21 258.64 46.5 259.47C46.74 260.13 46.76 261.07 46.57 261.57C46.37 262.07 46.08 264.28 45.91 266.5C45.72 269.03 45.79 271.05 46.09 271.89C46.37 272.67 46.54 276.03 46.48 279.83C46.4 284.87 46.57 287.09 47.25 289.4C47.76 291.06 48.33 293.76 48.51 295.41C48.7 297.05 49.26 298.89 49.75 299.49C50.26 300.09 51.24 300.6 51.92 300.62C52.61 300.62 54.28 299.86 55.62 298.9C56.96 297.95 58.32 297.17 58.64 297.18C58.97 297.18 59.81 296.53 60.52 295.71C61.22 294.9 61.75 293.74 61.69 293.16C61.63 292.57 62.52 290.88 63.65 289.39C64.79 287.89 65.81 286.19 65.92 285.6C66.03 285.01 66.43 284.53 66.82 284.55C67.21 284.56 68.52 283.18 69.72 281.49C70.94 279.78 72.01 277.61 72.1 276.68C72.19 275.75 72.59 274.86 72.99 274.7C73.39 274.55 74.14 273.91 74.67 273.29C75.24 272.61 75.68 270.73 75.78 268.6C75.88 266.64 76.43 263.93 76.99 262.55C77.55 261.18 77.89 259.71 77.74 259.28C77.6 258.86 78.28 257.32 79.29 255.84C80.79 253.68 81.09 252.78 80.76 251.31C80.54 250.29 80.39 249.05 80.4 248.54C80.42 248.03 80.6 246.63 80.8 245.44C81 244.24 81.39 242 81.65 240.47C81.94 238.87 82.85 236.9 83.74 235.9C84.65 234.88 85.39 233.33 85.45 232.27C85.52 231.25 85.21 229.38 84.77 228.14C84.33 226.88 84.01 225.5 84.05 225.08C84.09 224.65 84.92 223.43 85.89 222.36C87.2 220.95 87.74 219.72 87.92 217.79C88.07 216.15 88.6 214.77 89.31 214.16C89.95 213.62 90.54 212.4 90.64 211.46C90.74 210.52 90.59 209.27 90.31 208.69C89.98 207.96 90.31 206.64 91.39 204.44C92.26 202.7 94.13 200.02 95.54 198.49C97.79 196.08 98.38 195.77 99.96 196.04C100.97 196.22 101.95 196.45 102.12 196.54C102.3 196.63 103.42 196.39 104.63 196C105.84 195.62 107.49 195.14 108.29 194.96C109.1 194.78 110.93 194.27 112.37 193.84C113.82 193.4 115.87 192.67 116.93 192.21C118.59 191.48 119.21 191.53 121.24 192.56C122.72 193.31 124.35 193.62 125.53 193.37C126.58 193.16 129.57 193.33 132.18 193.77C136.41 194.45 137.37 194.91 140.07 197.51C142.29 199.61 144.11 200.63 146.43 201.05C148.79 201.49 150.32 201.47 151.94 200.96C153.17 200.57 155.23 199.58 156.51 198.76C158.21 197.66 159.18 197.4 160.16 197.79C160.9 198.09 162.92 198.49 164.65 198.7C166.4 198.9 168.18 199.23 168.59 199.45C169.02 199.67 170.99 200.01 172.97 200.23C174.95 200.45 177.84 200.87 179.38 201.18C181.38 201.58 183.13 201.51 185.48 200.93C187.28 200.49 190.04 199.98 191.62 199.78C193.83 199.51 194.81 199.71 196.05 200.66C196.93 201.32 199.11 202.03 200.9 202.23C203.12 202.47 205.01 202.28 206.81 201.64C208.26 201.12 210.08 199.91 210.85 198.95C211.75 197.84 212.9 197.22 214.05 197.23C215.05 197.23 215.99 197.43 216.17 197.68C216.35 197.92 217.7 198.29 219.2 198.5C220.91 198.73 223.43 198.49 226.05 197.85C228.32 197.29 230.61 196.84 231.16 196.86C231.69 196.87 233.33 196 234.77 194.93C237.03 193.23 237.63 193.05 239.35 193.59C240.44 193.93 242.2 194.16 243.26 194.11C244.31 194.05 247.05 194.74 249.34 195.62C251.63 196.52 254.35 197.26 255.4 197.29C256.45 197.31 258.03 197.05 258.93 196.71C259.83 196.38 261.57 195.39 262.8 194.53C264.05 193.65 265.46 193.13 265.99 193.36C266.53 193.59 269.61 193.92 272.83 194.08C277.43 194.34 279.04 194.21 280.61 193.43C282.28 192.59 282.87 192.55 284.44 193.2C285.47 193.61 287.44 194.28 288.83 194.67C290.2 195.07 291.97 195.51 292.74 195.68C293.51 195.85 295.09 196.27 296.25 196.61C297.4 196.96 298.49 197.17 298.66 197.09C298.83 197 299.77 196.79 300.75 196.62C302.28 196.34 302.83 196.63 304.96 198.81C306.29 200.19 308.03 202.63 308.83 204.24C309.82 206.25 310.11 207.45 309.76 208.13C309.48 208.66 309.3 209.81 309.37 210.67C309.44 211.53 309.98 212.65 310.58 213.14C311.26 213.71 311.73 214.97 311.83 216.48C311.94 218.27 312.42 219.41 313.65 220.72C314.57 221.72 315.34 222.86 315.37 223.26C315.39 223.66 315.04 224.94 314.56 226.1C314.08 227.26 313.7 229 313.73 229.96C313.75 230.97 314.42 232.44 315.28 233.41C316.13 234.38 316.95 236.27 317.17 237.78C317.38 239.27 317.67 241.43 317.83 242.6C317.98 243.75 318.1 245.12 318.09 245.62C318.09 246.11 317.87 247.33 317.61 248.32C317.22 249.76 317.48 250.66 318.89 252.84C319.86 254.34 320.5 255.91 320.32 256.33C320.15 256.75 320.43 258.25 320.95 259.66C321.47 261.07 321.89 263.88 321.9 265.9C321.9 268.12 322.27 270.09 322.84 270.82C323.36 271.49 324.12 272.17 324.53 272.35C324.94 272.52 325.33 273.48 325.37 274.47C325.42 275.45 326.45 277.79 327.67 279.64C328.89 281.5 330.24 283.01 330.65 283C331.08 282.99 331.5 283.51 331.59 284.14C331.68 284.78 332.72 286.63 333.9 288.27C335.09 289.88 336.01 291.72 335.92 292.35C335.83 292.98 336.39 294.22 337.16 295.1C337.94 295.97 338.87 296.67 339.22 296.65C339.57 296.63 341.07 297.43 342.56 298.41C344.07 299.36 345.97 300.09 346.76 300.04C347.56 299.99 348.7 299.42 349.29 298.78C349.86 298.15 350.53 296.26 350.75 294.58C350.97 292.92 351.64 290.2 352.22 288.56C352.99 286.28 353.19 284.08 353.08 279.07C353.01 275.3 353.19 271.97 353.5 271.24C353.83 270.44 353.89 268.44 353.67 265.92C353.47 263.69 353.15 261.44 352.92 260.92C352.71 260.39 352.73 259.47 352.99 258.85C353.3 258.07 353.27 256.87 352.88 254.95C352.56 253.38 352.37 249.99 352.45 247.12C352.53 243.79 352.79 241.76 353.2 241.23C353.55 240.79 354.03 239.7 354.26 238.82C354.49 237.94 354.67 236.35 354.64 235.26C354.62 234.17 354.12 232.12 353.52 230.72C352.51 228.37 352.46 228 352.98 226.25C353.29 225.21 353.51 223.38 353.48 222.21C353.45 221.03 352.96 218.85 352.39 217.37C351.43 214.93 351.38 214.4 351.78 211.37C352.01 209.51 352.02 207.04 351.78 205.83C351.55 204.64 350.21 201.53 348.75 198.95C346.43 195 345.96 193.82 345.81 191.48C345.7 189.95 345.16 186.32 344.59 183.4C344 180.47 343.24 177.51 342.93 176.82C342.62 176.13 341.53 174.72 340.51 173.69C339.47 172.66 338.6 171.38 338.57 170.86C338.55 170.34 338.32 168.76 338.06 167.35C337.66 165.15 337.09 164.35 334.17 161.77C332.24 160.09 330.56 158.28 330.46 157.75C330.35 157.2 329.76 156.1 329.12 155.29C328.48 154.48 327.45 152.32 326.79 150.49C326.01 148.25 324.88 146.43 323.44 145.09C322.22 143.93 320.81 141.84 320.2 140.27C319.62 138.73 318.33 136.74 317.37 135.85C316.41 134.96 314.71 133.82 313.6 133.33C312.49 132.82 311.2 131.62 310.71 130.65C310.23 129.67 308.85 128.08 307.65 127.11C306.44 126.12 304.67 125.31 303.71 125.32C302.76 125.31 301.54 124.86 301.02 124.31C300.49 123.76 299.58 122.26 298.99 120.98C298.41 119.69 296.27 116.99 294.25 114.95C292.22 112.89 288.91 109.33 286.88 107.04C284.85 104.72 282.58 102.54 281.85 102.23C281.1 101.92 278.99 99.88 277.14 97.65C274.91 94.91 272.34 92.64 269.37 90.79C266.96 89.27 263.87 87.59 262.5 87.08C261.12 86.57 258.86 85.62 257.48 84.96C256.1 84.31 254.14 82.62 253.12 81.19C252.11 79.75 250.96 78.54 250.57 78.51C250.17 78.48 248.74 76.48 247.39 74.03C246.05 71.56 244.2 68.81 243.26 67.95C242.32 67.08 239.94 66.32 237.92 66.26C234.32 66.19 234.22 66.12 231.25 61.07C228.88 56.87 227.99 55.88 226.63 56.06C225.29 56.24 224.49 55.35 222.58 51.46C220.66 47.39 219.94 46.56 218.25 46.56C216.85 46.58 215.81 47.48 214.88 49.43C213.53 52.18 213.51 52.19 212.8 49.9C212.4 48.63 210.82 46.43 209.28 45.04L206.52 42.53L201.7 48.09C197.38 44.42 196.32 44.26 194.06 45.25C192.48 45.93 190.37 46.19 189.36 45.81C188.13 45.38 186.75 45.74 185.17 46.93Z" fill="$[hairColor]" stroke="#000" stroke-width="4"/>
</svg>