<?xml version="1.0" encoding="utf-8"?>
<!-- Generator: Adobe Illustrator 27.2.0, SVG Export Plug-In . SVG Version: 6.00 Build 0)  -->
<svg version="1.1" id="Capa_1" xmlns="http://www.w3.org/2000/svg" xmlns:xlink="http://www.w3.org/1999/xlink" x="0px" y="0px"
	 viewBox="0 0 400 600" style="enable-background:new 0 0 400 600;" xml:space="preserve">
<g id="shorter">
	<path fill="$[hairColor]" stroke="#000000" stroke-width="4" d="M335.4,102c11.9,11.5,18.7,25.2,21.9,40.1c1.6,7.3,1.9,14.8,2.3,22.3c0.9,14.8,1.3,29.6,2.5,44.4
		c0.4,4.1,3.5,8,4.7,12.1c5.7,20.8,5.6,41.6,0.7,62.5c-4.2,18-8.8,35.9-13,53.8c-1.2,5.2-1.9,10.5-2.7,15.8
		c-1.4,9.6-7.1,17.7-12.1,26.1c-0.7,1.1-2.5,1.7-3.7,2.6c-0.9-1.2-2.7-2.3-2.8-3.5c-0.3-5.8-0.1-11.6,0.5-17.4
		c2.7-23.1,3.3-46.2-0.4-69.3c-0.4-2-1.4-3.9-1.2-5.9c0.2-2,0.7-4.2,2.1-5.5c4.3-4.2,4-9,2.8-13.7c-4.3-17.3-13.9-32.5-26.5-46.3
		c-7.2-7.9-16.7-13.1-29.2-13.4c-5.1-0.1-10.3-1.8-15.4-2.7c-0.4-0.1-0.8-0.4-1.1-0.3c-6.9,1.9-10.2-3.4-14.9-5.7
		c-11.4-5.5-24.2-8.6-37.3-8.9c-9.7-0.2-19.4,0.9-29.1,1.3c-5.1,0.2-10.6-0.5-15.4,0.6c-9.6,2.3-19.5,4-27.4,10
		c-2.2,1.7-6,2.2-9.2,2.8c-8.3,1.5-17,2.1-25,4.3c-5.7,1.6-10.8,4.4-14.8,8.2c-6.7,6.6-11.3,14.6-17.7,21.4
		c-9.6,10-11.2,22.4-16.5,33.8c-4.8,10.4-2.7,20.4-1.5,30.8c2.2,18.4,3.7,36.8,5.8,55.2c0.8,6.6,2.5,13.1,3.6,19.7
		c0.2,1.7,0.2,3.5,0,5.2c-0.7,0.2-1.3,0.4-2,0.6c-1.3-1.6-2.4-3.2-3.4-4.9c-8.1-17.4-14.7-35-18.1-53.6
		c-2.5-13.8-6.1-27.5-10.7-40.9c-5.6-16.6-3.6-33-1.5-49.6c0.8-6.4,1.5-12.6,0.1-19.2c-1.3-6.2-0.1-12.9,0.8-19.4
		c2.5-17.4,5-34.7,8.2-52c1.4-6.6,3.3-13,5.8-19.3c1.2-3,3.6-5.6,5.6-8.4l1.8,0.6c-2.6,8.8-5.1,17.6-7.7,26.3
		c0.5,0.1,0.9,0.3,1.5,0.4c3.6-8.2,8.1-16.2,10.5-24.6c4.1-13.7,11-25.6,23.2-35.1c1.1-0.8,2.3-1.5,5-3.3c-1.9,8.2-3.4,15-4.9,21.8
		c0.6,0.2,1.2,0.4,1.9,0.6c3.4-6.6,7.1-13.1,9.9-19.9c1.4-3.4,2.8-5.3,7.1-4.8c4.1,0.6,5.8-0.9,6.7-4.4c1-4.4,2.9-8.6,5.5-12.5v5.7
		c25.4-6,51.6-7.7,77.5-9.7c7.4-0.6,14.9,1.6,22.4,2.2c6,0.4,12,0.3,18,0.4c16.8,0.2,33.7-1,49.7,5.6c8.8,3.6,13.9,9.9,20,15.7
		c2.3,2.2,4.4,4.4,6.5,6.7c0.6-0.2,1.3-0.3,1.9-0.5c-0.7-5.9-1.3-11.7-2-17.6c0.4,0,0.8-0.1,1.2-0.2c1.5,5,3,10.1,4.4,15.1
		c0.8,3,2,4.5,6.4,5c8.9,1,14.4,6.6,18.8,12.9c-6.2-5.4-12.7-10.2-22.4-11.4c0.6,2.7,0.9,4.6,1.4,6.5c-1.4-2.5-2.8-5.1-4.4-8.2
		c-5.4,41.2-14.5,80.3-54.2,108.7c2.5,0.6,4.2,0.6,5.4-0.2c6.5-4.1,12.6-8.9,19.5-12.5c18.8-9.6,28.7-24.6,35.1-41.5
		c2.7-7.1,3.2-15.1,2.8-22.6c-0.4-8.1-2.9-16-4.6-24c6.4,15.3,10.2,30.8,4.1,46.8c-6.8,17.8-18.4,33-35.8,44.5
		c-6.2,4.1-13,7.4-20.3,11.5c16.3,5.3,34.3,2.4,46.1,14.5c1.8-1,3.5-2.1,5.1-3.3c8.5-8.2,17.9-15.9,25.3-24.7
		c16-18.7,23.6-39,10.3-61.5c-3-5.2-6.1-10.4-9.2-15.6C338.5,106.8,336.9,104.4,335.4,102z M180.4,146.2
		c-3.3,11.9-5.8,23.9-4.9,37.1c5.4-4.5,10.5-8,11-14.2c0.8-10.5,7.5-18.7,14.2-26.9c4.6-5.6,9.6-10.9,13.5-16.9
		c13-19.7,15.3-39.6,0.5-59.5c-2.6-3.5-5.6-6-10.5-6c-10.6,0-21.4-0.4-31.9,0.5c-15.6,1.3-31.2,3.2-46.6,5.7
		c-5.5,0.9-12.5,3.3-15.2,7c-3.6,5.1-4.9,12-5,18.1c-0.2,21.8,5.5,42.6,18.3,61.7c8.1,12,16.1,23.9,28.2,33.4
		c4,3.1,7.8,4.1,12.3,1.1c-5.8-21.9,4.7-45.8,21.2-47.6c-1.6,1.9-3,3.6-4.6,5.3c-1.5,0.7-3.4,1.2-4.6,2.2
		c-8.8,8.5-12.3,18.7-12,29.9c0.1,3.3,0.9,6.6,1.4,9.8c5.3,0.3,6.5-2,6.8-4.9c0.2-3.3-0.2-6.7,0.5-9.9
		C175.4,163.4,178,154.8,180.4,146.2L180.4,146.2z M215,61.8c2.1,3.3,3,4.9,4.1,6.4c9,13.8,11.6,28.5,4.9,43.3
		c-4.2,9.3-10.5,18-16.5,26.8c-4.3,6.3-9.8,12-13.9,18.4c-2.3,3.6-3.2,7.9-4.7,11.9c0.5,0.2,1.1,0.4,1.5,0.6
		c10.9-10.9,22.4-20.9,38.3-26.6c-15.6,12.5-28.4,26.8-40.3,42.3c6.8,0,14.6,0.7,19-2.2c19.3-12.6,37.7-26.2,56.3-39.7
		c13.7-10.2,24.8-22.7,32.6-36.7c8.6-15.1,8.3-14.8-3.5-28c-9.6-10.6-22.1-15.7-37-16.4C242.8,61.3,229.7,61.8,215,61.8L215,61.8z
		 M255.3,195c14.5-12.9,30.2-26.2,37.5-45s14.9-47.6,13.5-55.8c-0.4,0.6-0.8,1.2-1.2,1.9c-7.3,18.6-20.2,35.1-37.5,48
		c-16.9,12.5-34.3,24.5-51.5,36.8c-1.5,1.1-3,2.2-3.6,2.7C226.4,187.3,240.4,191,255.3,195z M134.8,200.4c-1.6-1.1-3.2-2.3-4.7-3.6
		c-5.6-5.9-13.2-11.1-16.3-17.9c-10.6-22.8-17.9-46.5-15.2-71.5c0.9-9.1,2.8-18,4.4-27.4c-3.2,0.3-6.3-2-8.5,2.6
		c-4,8.8-8.7,17.4-14.1,25.6c-3.5,5-5.3,10.7-5.1,16.5c0.9,27.3,16.5,49.5,33.7,71.1c4.8,6,11.1,8.5,19.5,5.5
		C129.8,200.7,131.7,200.8,134.8,200.4z M111.8,203.1c-13.5-11.9-22.1-27.3-30-42.8c-4.8-9.3-7.4-19.6-9.5-29.7
		c-1.5-7.4-1.6-15.1,1.5-22.6c2.6-5.9,3.6-12.4,5.6-19.5c-1,0.3-1.9,0.7-2.8,1.2c-1.1,1-2.1,2-3,3c-8.8,9.4-13,20.2-15.2,31.9
		c-3.3,17.2-1.4,34,6.5,49.8c6.2,12.2,14.4,23.6,21.8,35.3c0.8,1.1,1.7,2.2,2.7,3.2C97.3,209.4,104.5,206.2,111.8,203.1L111.8,203.1
		z M335.5,377.4l2.5,0.3c2.7-7.2,6.1-14.3,7.9-21.7c4.6-17.9,7.8-36,12.5-53.8c5.3-20.4,9.9-40.8,8.3-61.8c-0.6-7.4-2-14.8-3-22.2
		c-0.6,0.1-1.1,0.1-1.6,0.2v2.5c0.6,23.4-4.4,45.1-25.6,61.9c-1.2,0.9-1.5,3.2-1.3,4.8c0.6,5.3,1.8,10.5,2.3,15.8
		c2.3,21.6,0.8,43.2-2,64.8C335.1,371.3,335.5,374.4,335.5,377.4z M85.3,216.2c-21-11.5-41.4-23.4-46.1-46.7
		c-2.2,10.1-3.6,20.1-5.7,30c-3.4,16.4,2.8,29.1,18.9,38.3c2.7,1.6,5.3,3.5,7.8,5.2c1.5,0.8,3.1,1.6,4.7,2.2
		C71.8,235.3,78.4,226,85.3,216.2L85.3,216.2z M101.8,94.3c-0.8,7.1-2.1,14.2-2.2,21.3c-0.4,21,6.7,40.8,14.7,60.3
		c3.7,8.9,11.4,15.4,20.1,21c1.3,0.8,4.1,1.2,5.4,0.6c5.1-2.2,9.9-4.9,14.5-7.3C123.9,163.5,105.6,132,101.8,94.3L101.8,94.3z
		 M357.6,180.3h-1.2c-0.4,0.7-0.8,1.5-1.1,2.3c-3.2,20-10.2,38.6-25.1,54.6c-0.7,0.8-1.3,2.3-0.8,3.1c4.3,9.7,8.9,19.3,13.7,29.3
		c1.6-2.3,4.2-4.5,5.3-7.2c3.4-9.8,8.2-19.7,9-29.7C358.6,215.3,357.5,197.8,357.6,180.3L357.6,180.3z M58.3,365.1
		c0.5-0.1,0.9-0.2,1.3-0.3c-0.7-5.3-1.5-10.5-2-15.8c-1.8-18.4-3-36.8-5-55.2c-0.6-5.9-1.5-12.4-4.8-17.4c-6-9-10.2-18.3-11.4-28.5
		c-0.5-4-0.9-8.1-1.4-12.1c-2.6,13.7-3.9,27.4-0.1,41c7,25.8,13.8,51.5,20.7,77.3C56.6,357.8,57.4,361.5,58.3,365.1z M355.7,166.7
		c-7.9,21-26.3,35.1-43.8,49.9c5,6.6,10.2,13.2,14.7,19.2C345.5,215.6,351.1,191.4,355.7,166.7L355.7,166.7z M53.2,134.9
		c-7.4,15.3-13.3,29.3-6.5,44.7c4.7,10.6,26.4,28.5,36.2,30c-6-9.6-11.9-18.9-17.6-28.3c-4.6-7.5-9-15.1-9.8-23.8
		C54.7,150.4,54,143.4,53.2,134.9L53.2,134.9z M41.3,234.8c-2.6,8.8,2.7,31.6,10,36.9c2.9-8,6-16,8.9-24.1
		C54.1,243.4,47.9,239.2,41.3,234.8L41.3,234.8z M200.1,164.2c-7.1,6.8-14.2,13.5-21.6,20.5C183.8,185.1,188.5,180.6,200.1,164.2z"
		/>
	<g>
		<path fill="$[hairColor]" stroke="#000000" stroke-width="4" d="M181.2,145c1.5-1.7,2.9-3.4,4.6-5.3c-16.5,1.9-27.1,25.8-21.2,47.6c-4.6,3-8.4,2-12.3-1.1
			c-12.1-9.5-20.2-21.4-28.2-33.4c-12.8-19.1-18.6-39.8-18.3-61.7c0.1-6.1,1.4-13,5-18.1c2.6-3.7,9.6-6.1,15.2-7
			c15.4-2.5,31-4.4,46.6-5.7c10.5-0.9,21.2-0.5,31.9-0.5c4.9,0,7.9,2.5,10.5,6c14.7,20,12.4,39.9-0.5,59.5
			c-3.9,5.9-8.9,11.3-13.5,16.9c-6.8,8.2-13.4,16.4-14.2,26.9c-0.5,6.2-5.6,9.7-11,14.2c-1.1-13.2,1.5-25.2,4.9-37.1
			C180.7,145.8,180.9,145.4,181.2,145z"/>
		<path fill="$[hairColor]" stroke="#000000" stroke-width="4" d="M215,61.8c14.7,0,27.8-0.5,40.7,0.1c14.9,0.7,27.4,5.8,37,16.4c11.9,13.2,12.1,12.9,3.5,28
			c-7.8,14-18.9,26.5-32.6,36.7c-18.4,13.5-37,27.1-56.3,39.7c-4.4,2.9-12.3,2.2-19,2.2c11.9-15.5,24.7-29.8,40.3-42.3
			c-15.9,5.6-27.4,15.7-38.3,26.6c-0.5-0.2-1.1-0.4-1.5-0.6c1.5-4,2.3-8.4,4.7-11.9c4.2-6.4,9.7-12.1,13.9-18.4
			c6-8.7,12.3-17.4,16.5-26.8c6.8-14.8,4.1-29.4-4.9-43.3C218.1,66.7,217.1,65.1,215,61.8z"/>
		<path fill="$[hairColor]" stroke="#000000" stroke-width="4" d="M335.4,102c1.6,2.4,3.3,4.8,4.8,7.3c3.2,5.2,6.1,10.4,9.2,15.6c13.3,22.6,5.7,42.8-10.3,61.5
			c-7.6,8.8-16.8,16.6-25.3,24.7c-1.6,1.2-3.3,2.3-5.1,3.3c-11.8-12.1-29.6-9.2-46.1-14.5c7.4-4.1,14.1-7.5,20.3-11.5
			c17.4-11.5,29.1-26.7,35.8-44.5c6.1-16,2.3-31.5-4.1-46.8l0.1,0.2c-0.4-1.9-0.8-3.9-1.4-6.6c9.7,1.2,16.2,6,22.4,11.4
			C335.6,102.1,335.5,102.1,335.4,102z"/>
		<path fill="$[hairColor]" stroke="#000000" stroke-width="4" d="M255.3,195c-14.9-3.9-28.8-7.6-43-11.4c0.6-0.5,2.1-1.6,3.6-2.7c17.2-12.2,34.7-24.3,51.5-36.8
			c17.3-12.9,30.2-29.4,37.5-48c0.3-0.7,0.7-1.3,1.2-1.9c1.4,8.2-6.2,36.9-13.5,55.8C285.4,168.8,269.8,182.1,255.3,195z"/>
		<path fill="$[hairColor]" stroke="#000000" stroke-width="4" d="M134.8,200.4c-3,0.4-4.9,0.3-6.4,0.9c-8.4,3-14.7,0.6-19.5-5.5C91.7,174.2,76,152,75.1,124.7
			c-0.2-5.8,1.6-11.5,5.1-16.5c5.4-8.2,10.1-16.8,14.1-25.6c2.1-4.6,5.4-2.3,8.5-2.6c-1.5,9.4-3.4,18.4-4.4,27.4
			c-2.7,25,4.7,48.7,15.2,71.5c3.2,6.8,10.7,12,16.3,17.9C131.1,197.9,132.5,198.7,134.8,200.4z"/>
		<path fill="$[hairColor]" stroke="#000000" stroke-width="4" d="M111.7,203.1c-7.2,3.2-14.5,6.4-22.3,9.8c-1-1-1.9-2.1-2.7-3.2c-7.4-11.7-15.6-23.1-21.8-35.3
			c-7.9-15.8-9.8-32.6-6.5-49.8c2.2-11.8,6.4-22.6,15.2-31.9c0.9-1,2-2,3-3c0.9-0.5,1.8-0.9,2.8-1.2c-2,7.1-3,13.6-5.6,19.5
			c-3.3,7.5-3.2,15.2-1.5,22.6c2.1,10.1,4.7,20.4,9.5,29.7C89.7,175.7,98.2,191.2,111.7,203.1z"/>
		<path fill="$[hairColor]" stroke="#000000" stroke-width="4" d="M335.5,377.4c0-3-0.4-6.1,0-9.1c2.8-21.5,4.3-43.1,2-64.8c-0.6-5.3-1.8-10.5-2.3-15.8
			c-0.2-1.6,0.1-3.9,1.3-4.8c21.1-16.9,26.3-38.5,25.6-61.9v-2.5c0.6-0.1,1.1-0.1,1.6-0.2c1.1,7.4,2.5,14.8,3,22.2
			c1.6,21-3,41.4-8.3,61.8c-4.7,17.8-7.9,35.9-12.5,53.8c-1.9,7.4-5.3,14.5-7.9,21.7C337.1,377.7,336.3,377.5,335.5,377.4z"/>
		<path fill="$[hairColor]" stroke="#000000" stroke-width="4" d="M85.3,216.2c-6.9,9.8-13.5,19.1-20.4,28.9c-1.8-0.8-3.3-1.4-4.7-2.2c-2.7-1.7-5.1-3.6-7.8-5.2
			c-16.1-9.3-22.3-22-18.9-38.3c2.1-9.9,3.5-19.9,5.7-30C43.9,192.8,64.2,204.7,85.3,216.2z"/>
		<path fill="$[hairColor]" stroke="#000000" stroke-width="4" d="M101.8,94.3c3.7,37.7,22.1,69.2,52.5,96c-4.6,2.3-9.3,5-14.5,7.3c-1.8,0.5-3.8,0.3-5.4-0.6
			c-8.6-5.6-16.3-12.2-20.1-21c-8.2-19.5-15.1-39.3-14.7-60.3C99.7,108.5,101,101.4,101.8,94.3z"/>
		<path fill="$[hairColor]" stroke="#000000" stroke-width="4" d="M314.4,97.1c1.6,8,4.1,16,4.6,24c0.4,7.5-0.1,15.5-2.8,22.6c-6.4,16.9-16.3,31.9-35.1,41.5
			c-7,3.5-13,8.4-19.5,12.5c-1.2,0.7-3,0.8-5.4,0.2c39.7-28.5,48.8-67.5,54.2-108.7c1.6,3.1,3,5.6,4.4,8.2
			C314.6,97.4,314.4,97.3,314.4,97.1z"/>
		<path fill="$[hairColor]" stroke="#000000" stroke-width="4" d="M357.5,180.3c0,17.5,1.1,35-0.5,52.4c-0.8,10-5.6,19.9-9,29.7c-0.9,2.7-3.5,4.9-5.3,7.2
			c-4.7-10-9.2-19.6-13.7-29.3c-0.2-1.1,0.1-2.2,0.8-3.1c14.9-16,22.1-34.6,25.1-54.6c0.2-0.8,0.6-1.6,1.1-2.3L357.5,180.3z"/>
		<path fill="$[hairColor]" stroke="#000000" stroke-width="4" d="M58.3,365.1c-0.9-3.7-1.8-7.3-2.8-11c-6.9-25.8-13.8-51.5-20.7-77.3c-3.7-13.6-2.5-27.3,0.1-41
			c0.5,4,0.9,8.1,1.4,12.1c1.2,10.3,5.5,19.5,11.4,28.5c3.3,5,4.1,11.5,4.8,17.4c2,18.4,3.3,36.8,5,55.2c0.5,5.3,1.4,10.5,2,15.8
			C59.2,365,58.7,365.1,58.3,365.1z"/>
		<path fill="$[hairColor]" stroke="#000000" stroke-width="4" d="M355.7,166.7c-4.6,24.7-10.2,48.9-29.1,69.1c-4.6-6-9.7-12.6-14.7-19.2C329.4,201.8,347.7,187.7,355.7,166.7z
			"/>
		<path fill="$[hairColor]" stroke="#000000" stroke-width="4" d="M53.2,134.9c0.8,8.5,1.6,15.5,2.2,22.6c0.8,8.7,5.3,16.3,9.8,23.8c5.7,9.4,11.7,18.7,17.6,28.3
			c-9.8-1.4-31.5-19.3-36.2-30C39.9,164.2,45.8,150.1,53.2,134.9z"/>
		<path fill="$[hairColor]" stroke="#000000" stroke-width="4" d="M41.3,234.8c6.7,4.5,12.8,8.6,19,12.8c-3,8.1-6,16.1-8.9,24.1C43.8,266.3,38.7,243.6,41.3,234.8z"/>
		<path fill="$[hairColor]" stroke="#000000" stroke-width="4" d="M181.2,145c-0.2,0.4-0.6,0.8-0.8,1.2c-2.5,8.6-5,17.2-7.1,25.8c-0.8,3.2-0.2,6.6-0.5,9.9
			c-0.2,2.9-1.5,5.2-6.8,4.9c-0.5-3.1-1.4-6.5-1.4-9.8c-0.2-11.2,3.3-21.3,12-29.9C178.1,146.3,179.6,145.6,181.2,145z"/>
		<path fill="$[hairColor]" stroke="#000000" stroke-width="4" d="M200.1,164.2c-11.6,16.4-16.5,20.8-21.6,20.5C185.9,177.8,193,171,200.1,164.2z"/>
	</g>
</g>
</svg>
