<?xml version="1.0" encoding="utf-8"?>
<!-- Generator: Adobe Illustrator 27.2.0, SVG Export Plug-In . SVG Version: 6.00 Build 0)  -->
<svg version="1.1" id="Capa_1" xmlns="http://www.w3.org/2000/svg" xmlns:xlink="http://www.w3.org/1999/xlink" x="0px" y="0px"
	 viewBox="0 0 400 600" style="enable-background:new 0 0 400 600;" xml:space="preserve">
<style type="text/css">
	.st0{stroke:#000000;stroke-width:4;stroke-miterlimit:10;}
</style>
<g>
	<path class="st0" fill="$[hairColor]" stroke="#000000" stroke-width="4" d="M295.3,450.9c10.6-9.9,9.8-22,13.8-33.8c-10.3,0.4-18.9,2.9-27.1,6.2c-0.3-0.2-0.6-0.5-0.9-0.7
		c0.9-0.6,1.6-1.8,2.7-2.1c7.1-1.7,14.2-3.5,21.4-4.7c2.6-0.5,4.1-0.7,4.6-2.9c6.3-24.5,10.2-49.3,7.9-74.3
		c-1-11.2-3.5-22.3-4.7-33.4c-0.7-6.7-5.2-11.5-11.4-15.9s-11.8-9-17.6-13.6c-1-1-1.6-2.2-1.8-3.4c-0.6-2.2-1-4.4-1.6-6.9
		c-7.8,1.1-13.6-1.3-20-4.2c-10.8-4.9-22.6-8.8-34.8-13.3c-0.4-20.6-12.3-39.7-25.1-58.6c-9.3,12.4-26,36.3-25.9,59.7
		c-14.9,3.4-28.5,8.7-41.3,15.3c-3.3,1.7-8.5,1.4-13.4,1.9c-0.3,0.5-0.5,1-0.6,1.5c-0.1,5.5-3.8,9.4-9.2,13
		c-4.8,3.1-8.7,7.2-13.6,10.2c-8.8,5.5-8.7,13.2-10.2,20.4c-7,33.9-4.9,67.5,4.2,101.1c0.7,2.7,2.2,3,5.4,3.5
		c7.3,1.1,14.3,3,21.4,4.7c1.2,0.5,2.1,1.3,2.5,2.2c-8.9-2.2-17.9-4.4-26.8-6.6c-0.4,0.4-0.8,0.8-1.2,1.2
		c3.7,11.2,2.7,23.4,13.5,33.2c-0.4,0.2-0.8,0.5-1.3,0.7c-1.3-0.6-3-1-3.9-1.9c-7.9-8-16.8-15.6-23.1-24.2c-5.5-7.7-13-13.3-22.2-18
		c-10.9-5.7-21.5-11.7-32.1-17.8c-1.2-0.6-1.8-2.2-2.3-3.5c-1.9-4.3-3.4-8.8-5.5-13.1c-2-4.2-4.6-8.2-6.9-12.4
		c-5.4-9.9-3.7-20.1-2.5-30.3c5.1-42,20.7-82.4,37.5-122.5c6.6-15.7,13.1-31.4,23.9-45.7c5.4-7.2,12.9-13.6,20.7-19.5
		c19.7-15,41.4-28.3,67.9-36.1c17.3-5.1,35-8.9,54-7c16.9,1.5,33.2,5.4,48.2,11.4c29.2,11.9,54.5,27.6,73.2,48.2
		c8.3,9.2,13.6,20.2,18.4,30.8c16.1,35.9,30.9,72.1,39.4,109.4c3.7,16.3,6,32.8,6.6,49.3c0.3,7-5.2,14.2-8.3,21.2
		c-2.5,5.8-5,11.5-7.9,17.1c-0.8,1.6-3.1,2.7-5,3.9c-8.6,4.9-17.2,9.8-25.9,14.6c-4.4,2.5-9,4.7-13.2,7.4c-2.7,1.6-5,3.5-6.8,5.7
		c-7.8,10.9-16.3,21.5-27.8,30.5c-1.2,0.9-2.6,1.6-3.9,2.5C296.3,451.3,295.8,451,295.3,450.9z M336.2,409l0.7,0.6
		c7.1-3.9,14.2-7.7,21.2-11.7c6-3.4,11.9-6.8,17.7-10.3c1.1-0.6,2.3-1.7,2.4-2.7c0.9-5.9,2-11.8,2.1-17.8
		c0.6-44.7-9.3-88.3-21.7-131.8c-2.8-9.7-5.5-19.4-8.7-29.1c-3.9-11.7-7.9-23.4-12.7-35c-3.9-9.4-12-17.2-21.1-24.2
		c-23.1-17.9-48.4-33.7-80.8-41.3c-10.7-2.6-22-4.6-33.1-4.9c-9.7-0.3-19.8,1.5-29.4,3.3c-25.4,4.8-47.3,14.5-66.4,27.7
		c-11.1,7.5-21.6,15.5-31.3,24c-13.5,12.1-17.6,27.2-21.9,42c-6.1,21.1-11.5,42.4-17.6,63.5C24,301.3,18.3,341.3,22.1,381.9
		c0.3,3.6,2.3,5.8,5.8,7.6c10.4,5.8,20.8,11.6,31.2,17.4c1.6,0.9,3.4,1.8,6.2,3.2c-1-1.6-1.3-2.3-1.8-2.9c-3.4-4.8-8.1-9.3-10-14.5
		c-2.9-7.9-4.3-16.2-5.4-24.3c-3.1-22.6,2.2-44.5,11-66c4.7-11.5,10.9-22.7,15.2-34.3c8.1-21.6,20.7-41.5,39.3-59
		c12.2-11.6,26.8-21.6,43.2-29.7c6.9-3.5,14.6-5.4,23.1-4.6c-9.4,0.9-18.3,3.6-25.9,8c-25.4,14.2-47.5,30.7-60.1,52.9
		c-7.1,12.5-14.7,25-19.1,38c-3.4,10-2.2,20.7-2.9,31.2c-0.2,3,0,6,0,9.1c3.8-3.9,6.5-8,9.7-12c8.1-10.1,20.3-17.4,31-25.7
		c1.6-1.3,2.7-2.7,3.5-4.3c2-4.6,2.9-9.5,5.6-13.8c9.6-15.8,19.8-31.6,29.8-47.3c3.1-4.9,6.4-9.8,9.6-14.7c0.3,0.2,0.7,0.2,1,0.4
		c-13.7,22.4-27.4,44.8-41.2,67.3c0.3,0.3,0.6,0.6,0.9,1c3.8-0.6,8.2-0.6,11.2-2.1c11.5-5.9,24-10.8,37.2-14.3
		c1.1-0.3,2.6-1.4,2.6-2.1c0-10.5,4.2-20.4,9-30.1c5-10,10-20.2,19.4-29.7c3.9,5.9,7.5,11,10.6,16.3c8.2,13.9,15.8,28,16.4,43.6
		c0,0.8,2.1,1.8,3.5,2.4c11.5,4.5,23.3,8.5,34.5,13.4c4.4,1.9,8.5,2.2,14.1,2.1c-14.7-23.9-29.2-47.2-44-71.3c2.4,2.8,4.6,5,6.2,7.4
		c10.2,15.8,20.3,31.7,30.2,47.6c4.2,6.7,8.7,13.5,11.1,20.7c1.3,4.3,4.4,8.2,8.8,11.2c14.4,10,27.6,20.6,35.5,34.2
		c0.4,0.5,0.9,0.9,1.5,1.3c-0.6-17.6,1.7-34.6-6.7-51.1c-6.6-13.1-13.1-26.2-22.5-38.2c-13.1-16.7-31-30.1-51.6-41.6
		c-6.9-3.9-14.2-7-22.8-8c-1.8-0.2-3.5-0.4-5.3-0.6c9.1-1,17.2,1,24.5,4.8c31.3,16.1,55.3,37,69.3,63.2
		c11.7,22.1,21.3,44.9,30.5,67.7c8.7,21.5,11.5,43.7,6.6,66.2c-2,9.1-2.7,18.3-11,26C338.4,404.7,337.5,407,336.2,409z M70.7,282.9
		c-10.1,21-19.2,41.9-20.9,64.1c-1.4,18.2,0.1,36.2,11.4,52.8c8.7,12.7,19.2,24.7,28.9,37c1.2,1.6,3,2.8,4.5,4.3
		c-12.7-46.1-21.1-92.1-7.8-138.8c-0.5-0.1-1-0.2-1.5-0.3c-4.4,4.9-8.8,9.8-13.2,14.7c-0.5-0.1-1-0.2-1.4-0.2V282.9z M315.9,302.1
		c-0.5,0.1-1,0.2-1.4,0.3c5.6,23.1,8.5,46.3,5.4,69.4c-3.1,23.1-8.7,46.1-13.1,68.7c0.6-0.4,1.2-0.8,1.6-1.4
		c5-5.9,10.1-11.7,14.9-17.7c5.8-7.2,12-14.4,16.9-21.9c8.8-13.7,11.4-28.4,11.5-43.5c0.2-24.9-9.3-48.4-19.2-71.7
		c-0.1-0.2-0.5-0.3-0.9-0.6c0,5.7,0.2,11.2-0.1,16.7c-0.3,5.3,1.1,10.8-1.8,16.6C324.7,311.9,320.3,307,315.9,302.1L315.9,302.1z
		 M52.5,192c-3.9,9.2-8.1,18.2-11.8,27.5c-13.6,33.6-25.9,67.4-31.9,102.4c-1.9,11.3-4.7,22.7,0.4,34c2.4,5.4,4.9,10.8,7.4,16.2
		c0.6-0.1,1.2-0.2,1.8-0.3C16.1,310.3,35.8,251.4,52.5,192z M347.2,188.2c8.3,30.3,16.4,60.5,24.8,90.7c8.4,30.4,9.4,61.2,12,92.1
		c5.8-9.6,11.3-19.2,10.5-30.1c-2.1-27.4-9.6-54.1-19-80.4c-6.4-18-13.7-35.8-20.7-53.8C352.4,200.6,349.8,194.4,347.2,188.2
		L347.2,188.2z"/>
	<path class="st0" fill="$[hairColor]" stroke="#000000" stroke-width="4" d="M336.2,409c1.3-1.9,2.2-4.2,4.1-5.9c8.3-7.6,9-16.9,11-26c5-22.4,2.1-44.7-6.6-66.2
		c-9.2-22.8-18.8-45.6-30.5-67.7c-13.9-26.4-38-47.2-69.3-63.2c-7.3-3.8-15.3-5.9-24.5-4.8c1.8,0.2,3.6,0.4,5.3,0.6
		c8.6,1.1,15.9,4.2,22.8,8c20.6,11.5,38.5,25.1,51.6,41.6c9.5,12.1,15.9,25.1,22.5,38.2c8.4,16.6,6.1,33.6,6.7,51.1
		c-0.8-0.6-1.3-0.9-1.5-1.3c-8-13.7-21.1-24.3-35.5-34.2c-4.4-3-7.5-6.8-8.8-11.2c-2.4-7.2-6.9-14-11.1-20.7
		c-9.9-16-20-31.8-30.2-47.6c-1.5-2.4-3.8-4.6-6.2-7.4c14.9,24.1,29.3,47.5,44,71.3c-5.6,0.2-9.7-0.2-14.1-2.1
		c-11.2-4.8-23-8.9-34.5-13.4c-1.4-0.6-3.5-1.6-3.5-2.4c-0.6-15.6-8.2-29.6-16.4-43.6c-3.1-5.3-6.8-10.4-10.6-16.3
		c-9.4,9.6-14.4,19.8-19.4,29.7c-4.9,9.7-9,19.5-9,30.1c0,0.7-1.5,1.8-2.6,2.1c-13.2,3.5-25.7,8.4-37.2,14.3
		c-3,1.5-7.4,1.4-11.2,2.1c-0.3-0.3-0.6-0.6-0.9-1c13.7-22.4,27.4-44.8,41.2-67.3c-0.3-0.2-0.7-0.2-1-0.4c-3.2,4.9-6.5,9.8-9.6,14.7
		c-10,15.7-20.1,31.5-29.8,47.3c-2.6,4.3-3.6,9.2-5.6,13.8c-0.7,1.6-1.9,3.1-3.5,4.3c-10.7,8.4-22.9,15.7-31,25.7
		c-3.1,3.9-5.9,8-9.7,12c0-3-0.2-6,0-9.1c0.7-10.4-0.5-21.2,2.9-31.2c4.4-13,12.1-25.5,19.1-38c12.6-22.2,34.7-38.6,60.1-52.9
		c7.6-4.3,16.5-7,25.9-8c-8.5-0.8-16.2,1.1-23.1,4.6c-16.4,8.2-30.9,18.2-43.2,29.7c-18.6,17.6-31.3,37.4-39.3,59
		c-4.3,11.6-10.5,22.8-15.2,34.3c-8.7,21.5-14.1,43.4-11,66c0.9,8.2,2.8,16.3,5.4,24.3c1.9,5.1,6.6,9.7,10,14.5
		c0.4,0.6,0.8,1.3,1.8,2.9c-2.8-1.5-4.5-2.3-6.2-3.2c-10.4-5.8-20.8-11.6-31.2-17.4c-3.5-1.9-5.5-4-5.8-7.6
		c-3.8-40.7,1.9-80.7,13.5-120.4c6.2-21.1,11.5-42.4,17.6-63.5c4.3-14.9,8.4-30.1,21.9-42c9.7-8.5,20.2-16.5,31.3-24
		c19.1-13.2,41.1-22.9,66.4-27.7c9.6-1.8,19.7-3.6,29.4-3.3c11.1,0.4,22.4,2.4,33.1,4.9c32.4,7.6,57.7,23.3,80.8,41.3
		c9,7,17.2,14.8,21.1,24.2c4.8,11.5,8.8,23.1,12.7,35c3.2,9.6,5.9,19.4,8.7,29.1c12.3,43.5,22.2,87.1,21.7,131.8
		c-0.1,5.9-1.2,11.8-2.1,17.8c-0.3,1-1.2,2-2.4,2.7c-5.8,3.5-11.7,7-17.7,10.3c-7,3.9-14.1,7.8-21.2,11.7
		C336.7,409.4,336.4,409.2,336.2,409z"/>
	<path class="st0" fill="$[hairColor]" stroke="#000000" stroke-width="4" d="M70.7,282.9v33.7c0.5,0.1,1,0.2,1.4,0.2c4.4-4.9,8.8-9.8,13.2-14.7c0.5,0.1,1,0.2,1.5,0.3
		c-13.3,46.8-4.9,92.6,7.8,138.8c-1.6-1.4-3.1-2.8-4.5-4.3c-9.8-12.3-20.3-24.3-28.9-37c-11.3-16.6-12.7-34.5-11.4-52.8
		C51.5,324.8,60.5,303.8,70.7,282.9z"/>
	<path class="st0" fill="$[hairColor]" stroke="#000000" stroke-width="4" d="M315.9,302.1l13.6,15c2.9-5.7,1.6-11.2,1.8-16.6s0.1-10.9,0.1-16.7c0.4,0.2,0.8,0.4,0.9,0.6
		c10,23.4,19.4,46.8,19.2,71.7c-0.1,15-2.7,29.7-11.5,43.5c-4.9,7.6-11.1,14.6-16.9,21.9c-4.8,5.9-9.9,11.8-14.9,17.7
		c-0.5,0.5-1,1-1.6,1.4c4.4-22.6,10-45.6,13.1-68.7s0.2-46.4-5.4-69.4C314.8,302.4,315.4,302.3,315.9,302.1z"/>
	<path class="st0" fill="$[hairColor]" stroke="#000000" stroke-width="4" d="M52.5,192c-16.7,59.4-36.4,118.4-34,179.7c-0.6,0.1-1.2,0.2-1.8,0.3c-2.5-5.4-5-10.8-7.4-16.2
		c-5.1-11.3-2.3-22.7-0.4-34c6-35,18.3-68.8,31.9-102.4C44.4,210.3,48.6,201.1,52.5,192z"/>
	<path class="st0" fill="$[hairColor]" stroke="#000000" stroke-width="4" d="M347.2,188.2c2.5,6.2,5.1,12.4,7.5,18.6c7,17.8,14.3,35.8,20.7,53.8c9.4,26.4,16.9,53.1,19,80.4
		c0.8,10.8-4.7,20.4-10.5,30.1c-2.6-30.9-3.5-61.8-12-92.1C363.6,248.7,355.5,218.5,347.2,188.2z"/>
</g>
</svg>
