<?xml version="1.0" encoding="utf-8"?>
<!-- Generator: Adobe Illustrator 27.2.0, SVG Export Plug-In . SVG Version: 6.00 Build 0)  -->
<svg version="1.1" id="Capa_1" xmlns="http://www.w3.org/2000/svg" xmlns:xlink="http://www.w3.org/1999/xlink" x="0px" y="0px"
	 viewBox="0 0 400 600" style="enable-background:new 0 0 400 600;" xml:space="preserve">
<g id="split">
	<path fill="$[hairColor]" stroke="#000000" stroke-width="4" d="M18.9,304.5c1.7-11.9,3.6-23.8,5.1-35.7c3.2-25.9,10.2-51.2,22.3-75.5c1.8-3.7,2.9-7.7,4.8-11.3
		c13.9-25.3,30.4-49.1,56.4-67.7c11.7-8.3,25.7-13.7,40.3-17.8c20.8-5.9,42.2-9.3,64.5-6.5c0.9,0.1,1.7,0.2,2.6,0.4
		c8.6,1.8,16.7,4,20.5,10.9c6.8-1.4,13.2-3.3,19.9-4.1c7.7-1.1,14.9,0.7,21.3,4.2c26.1,14.4,42.8,35,57.2,57
		c17.7,27.1,27,56.4,33.3,86.5c3.1,14.8,8.6,29.2,12.2,43.9c4.4,18.2,4.6,36.4-3.2,54.2c-4.7,10.9-9.1,22-12.1,33.3
		c-1.7,6.9-0.2,14.5-0.6,21.8c-0.3,2.3-1.2,4.6-2.7,6.5c-2.8,3.8-6.6,7.1-8.9,11c-5.2,9-14.4,15-23.7,20.8c-4.2,2.6-9.6,4.1-15,6.3
		c-4.5-5.6-9-11.9-7.8-19.4c1.8-11.4,3.4-23.1,7-34.2c6.9-21.3,10.8-42.7,7.5-64.7c-2.4-15.5-5.5-30.8-8.7-46.2
		c-1.8-8.8-3.8-17.7-6.6-26.3c-1.1-3.6-4.5-6.7-6.8-10.1c-2-3.1-3.8-6.1-5.6-9.2c-4.3-7.3-8-14.9-13.1-22
		c-6.6-9-17.3-13.4-30.1-13.3c-9.2,0.2-18.4,1-27.4,2.4c-5.6,0.9-9.9-0.4-13.7-3c-8.1-5.4-25.9-6.7-34.4-1.4
		c-5.8,3.6-11.3,7.6-15.4,12.3c-15.1,17.2-29.3,35-44.4,52.3c-7.7,8.9-16.6,17-25,25.6c1.1-1.5,2.1-3.1,3.3-4.6
		c8.8-10.5,17.7-21,26.7-31.3c14.6-16.9,29.1-33.8,44-50.4c7.8-8.8,19.1-11.8,32.1-9.8c4.2,0.6,8.1,2.1,12.2,2.9
		c1.3,0.3,3.5,0.2,4.4-0.5c6.2-4.6,11.6-9.4,11.1-16.9c-0.1-1.4,0.9-2.9,1.5-4.3c3.2-6.3,4.9-13.1,5.1-19.9
		c0.2-13.4,2.2-26.7,3.3-40c0.2-1.9-1.4-4.6-0.3-5.7c3.2-3.5,0.5-5.3-2.4-6.6c-4.5-2.1-9.3-4.1-14.4-5.1c-11.6-2.4-23.4-2-35.2-0.6
		c-44.2,5.4-78.3,23.4-102.8,53.5c-12.6,15.5-22.9,32.1-29.8,49.8c-6.3,16.2-12.3,32.5-16.3,49c-3.7,15.1-3.9,30.7-6.7,46
		c-4.2,23.6,0.9,46.1,10.5,68.3c3.1,7.1,6.5,14.2,9,21.5c2.1,5.7,6.7,9.5,13.1,13.5c-1.5-4.6-2.7-8.1-3.9-11.7
		c-6-17.9-11.6-35.8-9.9-54.6c1.4-15,7-29.2,12.3-43.5c6.8-18.1,13.1-36.3,19.7-54.3c0.8-1.6,1.7-3.1,2.8-4.6
		c0.4,0.1,0.8,0.3,1.2,0.4c-0.6,3.3-0.8,6.8-2.1,10c-6,16-12.1,32-18.4,47.8c-5.6,14.1-11.2,28.4-12.8,43.4
		c-1.7,16.6,2.3,32.7,7.7,48.6c2.9,8.3,7.5,16.4,9,24.9c2.1,11.2,9.4,19.2,19.8,25.9c6.5,4.2,13.7,7.8,20.5,11.7
		c1.5,0.6,3,1.2,4.6,1.8c-5.2-8.3-10-15.6-14.5-23c-19.9-33-29.2-67.2-18.8-103.8c2.6-9.1,5-18.3,12.5-25.9
		c-5.9,10.2-9.4,20.9-11.8,32c-6.9,31.1,0.1,60.4,16.2,88.6c5.8,10,12.1,19.8,18.2,29.6c0.9,1.6,1.5,3.3,2.9,5.9
		c-2.7-0.7-4.2-0.7-5.2-1.3c-10.7-6-21.5-11.7-31.7-18.1c-8-5.1-12.2-12.4-15.1-20.3c-0.7-2.1-2.7-4-4.5-5.7
		c-3.3-3-7.3-5.4-10.2-8.7c-2.5-2.8-4.1-6.2-5.6-9.5c-2.3-4.9-3.6-10.1-6.3-14.8c-8.5-15.3-11.4-31.7-13.9-48.2
		c-0.3-1.9-0.7-3.7-1-5.6C18.9,309,19,306.7,18.9,304.5z M331.2,221.5c0.2-0.1,0.5-0.2,0.7-0.3c0.8,1.1,1.7,2.2,2.5,3.4
		c10.8,16.8,19,34.6,24.3,53c7.2,25.3,6.2,49.9-9,73.7c-6.1,9.5-11.3,19.7-14,30.1c-4.3,17-6.3,34.5-9.3,52.3
		c9.2-5.3,17.7-10.7,22.9-18.8c2.2-3.6,4.7-6.9,7.6-10.2c2.4-2.3,3.6-5.4,3.3-8.3c-0.4-5-1.5-10-0.4-14.8c2-9.2,5-18.3,8.8-27.1
		c11.2-24.7,14.2-49.3,4-74.8c-4.9-12.3-6.8-25.6-9.3-38.5c-7.3-37.7-22.4-73-48.7-104.9c-10-12.2-21.4-23.3-36.7-31.4
		c-12-6.5-27.9-6.9-39.9-0.5c-1.7,1-2.9,2.5-3.2,4.2c-1.2,12.5-2.6,25-3,37.5c-0.3,9,0.2,17.9-4.8,26.3c-0.8,1.4-1.2,2.9-1.3,4.4
		c-1,6.2-4.9,11.1-10.4,15.3c-1.4,1.1-2.6,2.3-3.9,3.4c3.7,2.8,7.2,2.6,11.4,2.2c10-1.1,19.9-2.3,30-2.3c11.8,0.1,21.7,4.7,28,12.7
		c5.1,6.6,9,13.8,13.4,20.9c2.6,4,5,8.1,7.3,12.3c2.8,5.1,6.4,10.2,7.8,15.5c3.6,13.6,6.1,27.4,9.2,41.1c7,30.7,8.1,61-3,91.4
		c-4.1,11.1-5.1,23-7.3,34.6c-1.1,5.9,2.3,10.8,5.4,15.4c14.9-6.1,13.8-17.1,14.4-27.8c0.3-7.6,1.3-15.1,3-22.6
		c3.7-15.6,11.3-30.3,19.4-44.8c8.3-14.8,11-30.2,9.2-46.5c-1.8-16.4-7-32.1-14.2-47.3C340.6,240.7,335.8,231.1,331.2,221.5
		L331.2,221.5z"/>
	<path fill="$[hairColor]" stroke="#000000" stroke-width="4" d="M87,287.4c-7.5,7.6-10,16.8-12.5,25.9c-10.4,36.6-1.1,70.9,19.2,103.8c4.5,7.4,9.2,14.7,14.5,23
		c-1.6-0.5-3.1-1.1-4.6-1.8c-6.9-3.8-14.1-7.5-20.5-11.7c-10.3-6.7-17.8-14.6-19.8-25.9c-1.5-8.4-6.3-16.6-9-24.9
		c-5.3-15.9-9.4-32-7.7-48.6c1.5-15,7.2-29.2,12.8-43.4c6.3-15.9,12.4-31.8,18.4-47.8c1.2-3.3,1.4-6.7,2.1-10
		c-0.4-0.1-0.8-0.3-1.2-0.4c-0.9,1.5-2.3,2.9-2.8,4.6c-6.6,18.1-12.9,36.3-19.7,54.3c-5.4,14.2-11,28.4-12.3,43.5
		c-1.7,18.8,3.9,36.7,9.9,54.6c1.2,3.6,2.4,7.1,3.9,11.7c-6.5-4-11-7.8-13.1-13.5c-2.7-7.3-6-14.3-9-21.5
		C26,337,20.9,314.5,25.1,290.9c2.8-15.3,3-30.9,6.7-46c4-16.6,10.1-32.9,16.3-49c6.8-17.7,17-34.2,29.8-49.8
		c24.5-30.1,58.5-48.1,102.8-53.5c11.8-1.4,23.6-1.9,35.2,0.6c5,1.2,9.9,2.9,14.4,5.1c2.9,1.3,5.5,3.2,2.4,6.6
		c-1.1,1.1,0.5,3.8,0.3,5.7c-1.1,13.4-3.1,26.7-3.3,40c-0.1,6.9-1.9,13.6-5.1,19.9c-0.7,1.4-1.6,2.9-1.5,4.3
		c0.6,7.6-4.9,12.3-11.1,16.9c-0.9,0.7-3,0.7-4.4,0.5c-4.1-0.8-8.1-2.3-12.2-2.9c-13-2-24.3,1-32.1,9.8
		c-14.9,16.6-29.4,33.6-44,50.4c-9,10.5-17.9,20.9-26.7,31.3c-1.2,1.4-2.2,3-3.3,4.6C88.2,286,87.6,286.7,87,287.4z"/>
	<path fill="$[hairColor]" stroke="#000000" stroke-width="4" d="M331.2,221.5c4.6,9.6,9.3,19.2,14,28.7c7.3,15.2,12.4,30.9,14.2,47.3c1.7,16.2-0.9,31.5-9.2,46.5
		c-8.1,14.5-15.7,29.2-19.4,44.8c-1.7,7.5-2.7,15-3,22.6c-0.6,10.7,0.5,21.7-14.4,27.8c-3.2-4.5-6.6-9.5-5.4-15.4
		c2.2-11.6,3.2-23.5,7.3-34.6c11.2-30.4,10-60.7,3-91.4c-3.1-13.7-5.6-27.5-9.2-41.1c-1.4-5.4-4.9-10.5-7.8-15.5
		c-2.3-4.1-4.7-8.2-7.3-12.3c-4.3-7-8.2-14.2-13.4-20.9c-6.4-8-16.2-12.6-28-12.7c-10-0.1-20,1.1-30,2.3c-4.1,0.5-7.7,0.7-11.4-2.2
		c1.2-1.2,2.5-2.4,3.9-3.4c5.4-4.2,9.3-9.1,10.4-15.3c0.2-1.5,0.6-3,1.3-4.4c5-8.3,4.5-17.3,4.8-26.3c0.4-12.5,1.7-25,3-37.5
		c0.3-1.7,1.5-3.2,3.2-4.2c12-6.4,27.9-6,39.9,0.5c15.3,8.2,26.7,19.3,36.7,31.4c26.3,32,41.4,67.2,48.7,104.9
		c2.5,12.9,4.4,26.2,9.3,38.5c10.2,25.6,7.2,50.2-4,74.8c-3.9,8.8-6.8,17.8-8.8,27.1c-1.1,4.7,0,9.8,0.4,14.8c0.3,3-0.9,6.1-3.3,8.3
		c-2.9,3.2-5.4,6.6-7.6,10.2c-5.2,8.1-13.7,13.6-22.9,18.8c3-17.7,4.9-35.2,9.3-52.3c2.7-10.4,7.9-20.6,14-30.1
		c15.2-23.8,16.3-48.4,9-73.7c-5.4-18.4-13.5-36.2-24.3-53c-0.7-1.1-1.6-2.2-2.5-3.4L331.2,221.5z"/>
</g>
</svg>
