<?xml version="1.0" encoding="utf-8"?>
<!-- Generator: Adobe Illustrator 23.0.5, SVG Export Plug-In . SVG Version: 6.00 Build 0)  -->
<svg version="1.1" id="Fronts" xmlns="http://www.w3.org/2000/svg" xmlns:xlink="http://www.w3.org/1999/xlink" x="0px" y="0px"
	 viewBox="0 0 400 600" style="enable-background:new 0 0 400 600;" xml:space="preserve">
<style type="text/css">
	.st0{stroke:#000000;stroke-width:5;}
</style>
<path fill="$[hairColor]"   class="st0" d="M211.8,78.1c-7.6,0-13.2-1.1-17.5-1.8c-6.3-1.3-11.3,3.7-15.3,4.7c-15,5-33-3-47,4c-12,6-27,5-32,14
	c-7,15-28,26-41,37c-8,7-10,19-11,30c-1,7-7,14-11.1,20c-3.4,6.2-5.4,13-3.8,22C32,213,24,214,25,218c7,33,13,88,53,85
	c31-2,18-47,23-73c1-7,4-15,11.1-17.5c10.9-3.6,9.9-16.6,18.9-21.6c14-8,29-3,44-2.4c4.4,0.1,8.6,0,12.8-0.5c9.2-1,16.2-9,24.2-9
	c22,0,43,12,65,15c-4,14,0,28,0,42c0,3-4,7-7,10c6,3,16-2,18,4c3,11,8,22,20,24c-3,5-12,11-8,16c12,14,39,5,47-12
	c14-31,9-62,5.3-95.2c-1-7.7-3.3-14.9-10.3-20.9c-5-5,2-16,0-23c-3-6-10-11-17-14c-6-3,0-21-6-24c-19-10-40-15-61-21
	c-10-3-21,0-32-1c-3-1-5-4-8.2-4l-17.2,0"/>
</svg>
