<svg id="Capa_1" data-name="Capa 1" xmlns="http://www.w3.org/2000/svg" viewBox="0 0 400 600">
  <defs>
    <style>
      .cls-1 {
        fill: #fff;
      }
    </style>
  </defs>
  <title>hairf_6</title>
  <g>
    <path d="M303.59,513.64c10.6-13.2,9.8-29.4,13.8-45.2-10.3.5-18.9,3.9-27.1,8.3a9,9,0,0,1-.9-1c.9-.9,1.6-2.4,2.7-2.8,7.1-2.3,14.2-4.6,21.4-6.2,2.6-.6,4.1-1,4.6-3.9,6.3-32.8,10.2-65.9,7.9-99.4-1-14.9-3.5-29.8-4.7-44.7-.7-9-5.2-15.4-11.4-21.3s-11.8-12-17.6-18.2a9.52,9.52,0,0,1-1.8-4.5c-.6-2.9-1-5.9-1.6-9.2-7.8,1.5-13.6-1.7-20-5.6-10.8-6.6-22.6-11.7-34.8-17.8-.4-27.6-12.3-53.1-25.1-78.3-9.3,16.6-26,48.6-25.9,79.8-14.9,4.5-28.5,11.6-41.3,20.4-3.3,2.3-8.5,1.8-13.4,2.6a6.85,6.85,0,0,0-.6,2c-.1,7.4-3.8,12.6-9.2,17.4-4.8,4.2-8.7,9.6-13.6,13.7-8.8,7.3-8.7,17.6-10.2,27.3-7,45.3-4.9,90.3,4.2,135.2.7,3.5,2.2,4,5.4,4.7,7.3,1.5,14.3,4,21.4,6.3a4.8,4.8,0,0,1,2.5,3c-8.9-2.9-17.9-5.9-26.8-8.8-.4.5-.8,1.1-1.2,1.6,3.7,15,2.7,31.3,13.5,44.4a14.7,14.7,0,0,1-1.3,1c-1.3-.8-3-1.4-3.9-2.6-7.9-10.7-16.8-20.8-23.1-32.4-5.5-10.3-13-17.7-22.2-24.1-10.9-7.6-21.5-15.6-32.1-23.7-1.2-.9-1.8-3-2.3-4.7-1.9-5.8-3.4-11.7-5.5-17.5-2-5.6-4.6-11-6.9-16.6-5.4-13.2-3.7-26.9-2.5-40.5,5.1-56.2,20.7-110.1,37.5-163.8,6.6-21,13.1-42,23.9-61.2,5.4-9.6,12.9-18.2,20.7-26.1,19.7-20.1,41.4-37.8,67.9-48.3,17.3-6.8,35-11.9,54-9.4a136.63,136.63,0,0,1,48.2,15.3c29.2,15.9,54.5,37,73.2,64.5,8.3,12.3,13.6,27,18.4,41.2,16.1,48,30.9,96.4,39.4,146.4a471.46,471.46,0,0,1,6.6,66c.3,9.4-5.2,19-8.3,28.4-2.5,7.7-5,15.4-7.9,22.9-.8,2.1-3.1,3.7-5,5.2-8.6,6.6-17.2,13.1-25.9,19.6-4.4,3.3-9,6.3-13.2,9.9a28.83,28.83,0,0,0-6.8,7.6c-7.8,14.6-16.3,28.7-27.8,40.7-1.2,1.2-2.6,2.2-3.9,3.3A6.8,6.8,0,0,0,303.59,513.64Zm40.9-56,.7.7c7.1-5.2,14.2-10.3,21.2-15.6q9-6.75,17.7-13.8c1.1-.9,2.3-2.3,2.4-3.5.9-7.9,2-15.8,2.1-23.7.6-59.7-9.3-118.1-21.7-176.2-2.8-13-5.5-26-8.7-38.9-3.9-15.6-7.9-31.3-12.7-46.7-3.9-12.6-12-23-21.1-32.4-23.1-24-48.4-45-80.8-55.2-10.7-3.4-22-6.1-33.1-6.6-9.7-.4-19.8,2-29.4,4.4-25.4,6.4-47.3,19.5-66.4,37.1a351.17,351.17,0,0,0-31.3,32.1c-13.5,16.1-17.6,36.4-21.9,56.2-6.1,28.3-11.5,56.7-17.6,84.9-11.6,53.1-17.3,106.6-13.5,161,.3,4.8,2.3,7.7,5.8,10.2,10.4,7.7,20.8,15.5,31.2,23.2,1.6,1.2,3.4,2.4,6.2,4.3-1-2.2-1.3-3.1-1.8-3.9-3.4-6.5-8.1-12.5-10-19.4-2.9-10.5-4.3-21.6-5.4-32.5-3.1-30.2,2.2-59.5,11-88.2,4.7-15.4,10.9-30.4,15.2-45.9,8.1-28.9,20.7-55.4,39.3-78.9a188,188,0,0,1,43.2-39.8c6.9-4.6,14.6-7.2,23.1-6.1a54.36,54.36,0,0,0-25.9,10.6c-25.4,19-47.5,41-60.1,70.7-7.1,16.7-14.7,33.4-19.1,50.8-3.4,13.3-2.2,27.7-2.9,41.7-.2,4,0,8.1,0,12.1,3.8-5.3,6.5-10.8,9.7-16,8.1-13.5,20.3-23.3,31-34.4a16.39,16.39,0,0,0,3.5-5.8c2-6.1,2.9-12.7,5.6-18.5,9.6-21.2,19.8-42.2,29.8-63.3,3.1-6.6,6.4-13.1,9.6-19.7.3.2.7.3,1,.5q-20.55,45-41.2,89.9a14.63,14.63,0,0,1,.9,1.3c3.8-.9,8.2-.8,11.2-2.8a163.6,163.6,0,0,1,37.2-19.1c1.1-.4,2.6-1.9,2.6-2.8,0-14.1,4.2-27.3,9-40.3,5-13.4,10-27,19.4-39.8,3.9,7.9,7.5,14.7,10.6,21.8,8.2,18.6,15.8,37.5,16.4,58.3,0,1.1,2.1,2.5,3.5,3.2,11.5,6,23.3,11.4,34.5,17.9,4.4,2.6,8.5,2.9,14.1,2.8-14.7-31.9-29.2-63.2-44-95.4,2.4,3.8,4.6,6.7,6.2,9.9,10.2,21.2,20.3,42.3,30.2,63.6,4.2,9,8.7,18.1,11.1,27.7a28.27,28.27,0,0,0,8.8,14.9c14.4,13.3,27.6,27.6,35.5,45.8a12.2,12.2,0,0,0,1.5,1.7c-.6-23.5,1.7-46.3-6.7-68.4-6.6-17.5-13.1-35-22.5-51.1-13.1-22.3-31-40.3-51.6-55.7-6.9-5.2-14.2-9.3-22.8-10.8-1.8-.3-3.5-.5-5.3-.8,9.1-1.3,17.2,1.4,24.5,6.4,31.3,21.5,55.3,49.4,69.3,84.6,11.7,29.6,21.3,60.1,30.5,90.6,8.7,28.8,11.5,58.5,6.6,88.5-2,12.1-2.7,24.5-11,34.7C346.69,452,345.79,454.94,344.49,457.64ZM79,288.94c-10.1,28.1-19.2,56.1-20.9,85.8-1.4,24.4.1,48.5,11.4,70.6,8.7,17,19.2,33.1,28.9,49.5,1.2,2.1,3,3.8,4.5,5.8-12.7-61.7-21.1-123.1-7.8-185.6-.5-.1-1-.3-1.5-.4-4.4,6.6-8.8,13.1-13.2,19.7-.5-.1-1-.2-1.4-.3Zm245.2,25.8c-.5.1-1,.3-1.4.4,5.6,30.8,8.5,61.9,5.4,92.9s-8.7,61.7-13.1,91.9a7.83,7.83,0,0,0,1.6-1.8c5-7.8,10.1-15.6,14.9-23.6,5.8-9.7,12-19.2,16.9-29.3,8.8-18.3,11.4-38,11.5-58.1.2-33.3-9.3-64.7-19.2-95.9-.1-.3-.5-.4-.9-.7,0,7.6.2,15-.1,22.3-.3,7.1,1.1,14.5-1.8,22.1C333,327.74,328.59,321.24,324.19,314.74ZM60.79,167.44c-3.9,12.2-8.1,24.4-11.8,36.8-13.6,44.9-25.9,90.2-31.9,136.9-1.9,15.1-4.7,30.4.4,45.5,2.4,7.2,4.9,14.4,7.4,21.6.6-.1,1.2-.3,1.8-.4C24.39,325.64,44.09,246.84,60.79,167.44Zm294.7-5.1c8.3,40.5,16.4,80.9,24.8,121.3,8.4,40.6,9.4,81.9,12,123.2,5.8-12.9,11.3-25.7,10.5-40.2-2.1-36.6-9.6-72.3-19-107.6-6.4-24.1-13.7-47.9-20.7-71.9C360.69,178.94,358.09,170.64,355.49,162.34Z"/>
    <path fill="$[hairColor]" d="M344.49,457.64c1.3-2.6,2.2-5.6,4.1-7.8,8.3-10.1,9-22.6,11-34.7,5-30,2.1-59.7-6.6-88.5-9.2-30.5-18.8-61-30.5-90.6-13.9-35.2-38-63.1-69.3-84.6-7.3-5-15.3-7.8-24.5-6.4,1.8.3,3.6.5,5.3.8,8.6,1.5,15.9,5.6,22.8,10.8,20.6,15.4,38.5,33.5,51.6,55.7,9.5,16.1,15.9,33.6,22.5,51.1,8.4,22.2,6.1,44.9,6.7,68.4-.8-.9-1.3-1.2-1.5-1.7-8-18.3-21.1-32.6-35.5-45.8a28.27,28.27,0,0,1-8.8-14.9c-2.4-9.6-6.9-18.7-11.1-27.7q-14.85-32-30.2-63.6c-1.5-3.2-3.8-6.1-6.2-9.9,14.9,32.2,29.3,63.5,44,95.4-5.6.2-9.7-.2-14.1-2.8-11.2-6.5-23-11.9-34.5-17.9-1.4-.7-3.5-2.1-3.5-3.2-.6-20.8-8.2-39.6-16.4-58.3-3.1-7.1-6.8-13.9-10.6-21.8-9.4,12.8-14.4,26.4-19.4,39.8-4.9,13-9,26.1-9,40.3,0,1-1.5,2.4-2.6,2.8a163.6,163.6,0,0,0-37.2,19.1c-3,2-7.4,1.9-11.2,2.8a14.63,14.63,0,0,1-.9-1.3q20.55-45,41.2-89.9c-.3-.2-.7-.3-1-.5-3.2,6.6-6.5,13.1-9.6,19.7-10,21.1-20.1,42.1-29.8,63.3-2.6,5.8-3.6,12.4-5.6,18.5a15.06,15.06,0,0,1-3.5,5.8c-10.7,11.2-22.9,21-31,34.4-3.1,5.2-5.9,10.7-9.7,16,0-4-.2-8.1,0-12.1.7-13.9-.5-28.4,2.9-41.7,4.4-17.4,12.1-34.1,19.1-50.8,12.6-29.7,34.7-51.7,60.1-70.7a54.36,54.36,0,0,1,25.9-10.6c-8.5-1.1-16.2,1.5-23.1,6.1a190.07,190.07,0,0,0-43.2,39.8c-18.6,23.5-31.3,50-39.3,78.9-4.3,15.5-10.5,30.5-15.2,45.9-8.7,28.7-14.1,58-11,88.2a209.92,209.92,0,0,0,5.4,32.5c1.9,6.9,6.6,13,10,19.4.4.8.8,1.7,1.8,3.9-2.8-2-4.5-3.1-6.2-4.3-10.4-7.7-20.8-15.5-31.2-23.2-3.5-2.6-5.5-5.4-5.8-10.2-3.8-54.4,1.9-107.9,13.5-161,6.2-28.3,11.5-56.7,17.6-84.9,4.3-19.9,8.4-40.2,21.9-56.2a351.17,351.17,0,0,1,31.3-32.1c19.1-17.6,41.1-30.6,66.4-37.1,9.6-2.4,19.7-4.8,29.4-4.4,11.1.5,22.4,3.2,33.1,6.6,32.4,10.2,57.7,31.2,80.8,55.2,9,9.4,17.2,19.8,21.1,32.4,4.8,15.4,8.8,31,12.7,46.7,3.2,12.9,5.9,25.9,8.7,38.9,12.3,58.1,22.2,116.5,21.7,176.2-.1,7.9-1.2,15.8-2.1,23.7a5.62,5.62,0,0,1-2.4,3.5q-8.7,7.05-17.7,13.8c-7,5.3-14.1,10.4-21.2,15.6C345,458.14,344.69,457.84,344.49,457.64Z"/>
    <path fill="$[hairColor]" d="M79,288.94V334c.5.1,1,.2,1.4.3,4.4-6.6,8.8-13.1,13.2-19.7.5.1,1,.3,1.5.4-13.3,62.5-4.9,123.9,7.8,185.6a50,50,0,0,1-4.5-5.8c-9.8-16.4-20.3-32.5-28.9-49.5-11.3-22.1-12.7-46.2-11.4-70.6C59.79,345,68.79,317,79,288.94Z"/>
    <path fill="$[hairColor]" d="M324.19,314.74l13.6,20.1c2.9-7.6,1.6-14.9,1.8-22.1s.1-14.6.1-22.3c.4.3.81.5.9.7,10,31.3,19.4,62.6,19.2,95.9-.1,20.1-2.7,39.8-11.5,58.1-4.9,10.1-11.1,19.6-16.9,29.3-4.8,8-9.89,15.8-14.89,23.6a11.13,11.13,0,0,1-1.61,1.8c4.4-30.2,10-60.9,13.11-91.9s.19-62.1-5.4-92.9A6.52,6.52,0,0,0,324.19,314.74Z"/>
    <path fill="$[hairColor]" d="M60.79,167.44c-16.7,79.4-36.4,158.3-34,240.4-.6.1-1.2.3-1.8.4-2.5-7.2-5-14.4-7.4-21.6-5.1-15.1-2.3-30.4-.4-45.5,6-46.7,18.3-92,31.9-136.9C52.69,191.84,56.89,179.64,60.79,167.44Z"/>
    <path fill="$[hairColor]" d="M355.49,162.34c2.5,8.3,5.1,16.6,7.5,24.8,7,23.9,14.3,47.8,20.7,71.9,9.4,35.3,16.9,71,19,107.6.8,14.5-4.7,27.3-10.5,40.2-2.6-41.3-3.5-82.6-12-123.2C371.89,243.24,363.79,202.84,355.49,162.34Z"/>
  </g>
</svg>
