<?xml version="1.0" encoding="utf-8"?>
<!-- Generator: Adobe Illustrator 23.0.5, SVG Export Plug-In . SVG Version: 6.00 Build 0)  -->
<svg version="1.1" id="Fronts" xmlns="http://www.w3.org/2000/svg" xmlns:xlink="http://www.w3.org/1999/xlink" x="0px" y="0px"
	 viewBox="0 0 400 600" style="enable-background:new 0 0 400 600;" xml:space="preserve">
<style type="text/css">
	.st0{stroke:#000000;stroke-width:5;}
</style>
<g fill="$[hairColor]">
	<path class="st0" d="M109.2,95.1c-0.1,0.3-0.3,0.6-0.4,0.9h1.3C109.8,95.7,109.5,95.4,109.2,95.1z M397.5,228.6
		C394,234,387,241,383,234c-3-5,4-7,7-11c-7-1-13,2-18,6c1-3,2-6,2.6-8c-0.1-2.6-1.8-5.2-2.9-8c4.5-1.2,8-2.2,11.4-3.1
		c2.8,3.2,5,5.8,7.2,8.4c0.4-10.6-10.7-11.8-18.8-15.5c4.9-3.4,8.9-6.3,12.5-8.9c1.3-4.8,2.5-9.1,3.6-13.4c1.3-0.4,2.7-0.8,4.1-1.2
		c-2.2-1.9-4.2-3.5-6.5-5.6h-7.9c-3.4-5.1-6.6-10.1-10.1-14.9c-1.5-2-3.6-3.6-7-2.9c1,2.6,4.4,4.8,1.3,8c-7-5.3-11.8-11-5.7-19.1
		c-2.8-0.8-5.4-1.2-7.7-2.1c-2.2-0.9-3.1-4.3-6.7-2.2c0.6,0.9,1.1,1.8,1.8,2.9c-7.2,1.8-11.1-3.1-17.4-4.9c4.6-2.1,8.6-3.9,14-6.4
		c-8-0.1-13.9-1.1-18-5.3v-4.4c2.8-1.5,5.6-3.1,8.4-4.7c0.4-0.2,0.4-0.9,0.8-1.7h-8.4c-1.4,1.1-3,2.2-4.1,3.5c-1.2,1.4-2.1,3-3,4.5
		c-4.4-4-8.3-7.5-12.7-11.5c1.6-1,4.1-2.6,6.2-3.8c-2.6-1.5-5.3-3.1-7.9-4.6c-2.3,3.1-4.7,6.3-7,9.4h-6V98.6
		c-3.6-1.4-1.8-6.6-7.9-5.9c4.4,4.7,2.7,9.8,3.2,16.8c-2.9-2.6-4.1-3.7-5.2-4.7V94.3c-4-2.9-7.9-5.8-11.9-8.7
		c0.9-1.6,1.8-3.3,3.1-5.6c-2.2-0.1-3.6-0.2-4.8-0.3c-0.7,1.7-1.2,2.8-1.3,3.3c-5.5,0.9-10.4,1.6-16.1,2.5
		c-2.8-5.8-7.8-10.5-15.1-13.3c-0.4-0.2-1.1,0.1-1.6,0.2c-0.2,0.9-0.5,1.8-0.7,2.8c-2.3,0.3-4.6,0.7-6.8,1c0,0.3,0,0.7,0,1
		c3.2,0.3,6.5,0.6,9.7,0.8c-8.1,1.4-16.1,2.1-24.2,1.1c0.1-1.4,0.2-2,0.3-3c3-0.4,6.1-0.8,9.9-1.2c-1.9-1.5-3-2.4-4.1-3.2
		c-1,0.7-1.9,1.3-3,2.2c-7.2-3.7-14.5-3.1-21.6,0.2c-3.3,1.5-6.2,3.8-10.2,3.6c-0.4,0.6-1,1.2-1.6,1.7c-0.3-0.2-0.5-0.4-0.8-0.6
		c0.7-0.5,1.3-0.9,2-1.4c0.2,0.1,0.3,0.3,0.3,0.3c2.7-4.3,4.6-8.4-1.3-12.1h-9.9c-2.9,2.6-4.9,4.4-7,6.3c3.1-1.6,6.1-3.1,9.4-4.8
		c1.7,1.7,3.1,3.1,4.8,4.7c-3.1,1.7-5.6,3.1-8.3,4.6v8.7c-4.9,1.5-7.9,0.3-9.5-3.3c0.8-1.3,1.4-2.5,2.5-4.6c-3.8,1.1-6.3,1.9-10.1,3
		c1.3-2.1,1.9-3,3.1-4.7c-8.6,0.9-12.4,11-21.8,7.5c-1.1-4.3,6.9-4.7,3.6-9.4c-3.1,2.6-6.3,4.9-8.9,7.6c-2.6,2.8-8.4,2.3-9.3,6.6
		c2.3-0.4,4.7-0.8,7.5-1.3c-0.8,4.6-5.9,6.2-8.6,9.6h-5.7c2.4,2.5,3.8,3.8,5.6,5.6c-2.4,1.8-4.2,3.3-6.4,4.9
		c-1.7-2.4-2.9-4.2-3.2-4.6c0.8-1.8,1.5-3.3,2.8-6h-7.3c-2.5,2.1-5.5,4.6-9,7.5c0.7-2.1,1.3-3.8,2.2-6.1c-7.3,1.4-8,7-11.4,10.5
		c-3.9,3.9-7.1,8.3-10.3,12.1H60c-2,1.7-4.1,3.3-5.7,5.2c-0.4,0.5,0.3,1.8,0.6,2.7c3.2-0.9,4.2-5.5,9-3.2c-1.1,3.1-2.1,6-3.1,8.9
		c-4.7,3-9.3,6-12.4,8.1c-1.8,4.3-3,7.3-4.3,10.5h-8c-2.1,2-4.1,3.6-5.7,5.5c-0.4,0.5,0.5,1.7,1,3.4c2-2.1,3.4-3.6,4.7-5
		c2.5,0.1,4.3,0.3,6.5,0.4c-1.3,3.3-2.3,6-3.3,8.8c-4,4.1-8.2,8.3-12.6,12.9h-5.3c-0.6-2-1.1-3.8-1.7-5.7c-0.3,0.1-0.6,0.2-0.9,0.3
		v8.3c2.9,0.5,5.7,0.4,7.8,1.4c1.8,0.8,2.9,2.8,4,4c-1.6,1.8-2.8,3.1-3.8,4.2c-3.1-1-5.4-1.7-7.6-2.5c3,4,8,7,12,11c-3,1-5,3-8,4
		c6,3,1,8-2,7c-3,0-6-3-9-5c2,3,5,6,4,7c-4,5-14,10-9,15c4,4,5-8,12-9c0,3,0,5,1,8c-2-1-3-2-5-2c1,6,6,7,11,9c-14,11-5,32,6,46
		c2,2,0,7-3,10c-3,2-1-8-4-3c-1,1,2,4,1,7c-1,5-1,9,1,14c0-3-1-7,1-8c4-4,10,2,11,4c2,5-2,13,3,17c7,8,18,15,14,25c-1,3-8,0-10-5
		c1,13,17,20,28,27c-3-5,2-12-4-16c1,0,2,0,2,1c-1-52-24-105-8.5-156.9c3-9.4,6.5-18,10.5-25.9c24-47.5,65.9-69.1,125.9-69.2h0.2
		c43.4,0,77.4,11.4,102,35.7l0.2,0v0.2c15.9,15.8,27.8,37.1,35.8,64.3c2.6,9.1,4.8,18.8,6.2,29.3C350,269,330,305,319,342
		c7,1,0,8,4,10c5-12,16-7,23-18c-5,2-9,1-14,1c7-10,27-11,20-26c6,1,13,3,10,9c-2,5-7,9-12,12c9,0,16-7,18-14c2-6-5-10-7-15
		c-1-2,1-5,3-7c-4,2-8,3-12,4c5-14,19-23,34-22c-3-1-5-3-8-4c3-1,7-4,4-7c-4-5-6-10-2-15c0-1-2-3-2-5c7-1,8,5,12,8c2-4,1-8-2-11
		C394,240,399,236,397.5,228.6L397.5,228.6z M43.4,178.3c-0.8,1.1-1.8,2.3-3.1,3.9c-0.3-1.3-0.5-2.2-0.9-3.9H43.4z M28.9,213.8
		C30,209,34,207,38,210c-3,2-5,4-8.5,5.4C29.5,215.5,28.6,214.5,28.9,213.8z M46.1,293.9C43,295,43,292,43,291
		C45,290,46,292,46.1,293.9L46.1,293.9z M23.7,243.1C25,243,27,242,28,242c0,4-2,2-3.9,2.1C23.9,243.8,23.8,243.5,23.7,243.1z
		 M28.3,255.8C29,252,31,250,35,249C23,249,49,258,28.3,255.8L28.3,255.8z M51.1,322.4c-1.8-1.9-5.5-2.5-3.3-6.2
		C49.6,318.1,53.3,318.7,51.1,322.4z M34.5,222.9C36,223,38,222,40,223c1,1,3,4-4,4C35,227,35,224,34.5,222.9L34.5,222.9z M52.6,310
		c3.9-3.1,7.9-3.3,12.1-0.4C60.9,316,60,316.1,52.6,310z M69.5,357.7C69,359,68,356,67,358c-1-4-6-8,1-11c0,3,0,7-1,10
		C68,357,69,357,69.5,357.7L69.5,357.7z M59,143.9c-0.7,2.1-1.5,4.1-2.6,6.7c-2-1.6-3.1-2.4-4.3-3.3c3.6-2.6,0.2-9.4,8.4-9.3
		C60,140.1,59.6,142,59,143.9z M61.8,167.8c0-0.3-0.1-0.7-0.2-1c1.3-0.2,2.7-0.5,4-0.7c0,0.6,0.1,1.1,0.1,1.7
		C65.8,167.8,61.8,167.8,61.8,167.8z M64.1,131.4c2.9-2,4.2-2.9,6.3-4.3c0.5,1.9,0.7,2.8,1,4.3H64.1z M97.1,113.1
		c4.3-3.1,5.5,0.5,6.5,3C101.5,115.1,99.4,114.2,97.1,113.1z M107.2,125.4H100v-1h7.2V125.4z M130.9,97.6c-7.1,0.5-3.1-3.5-5.2-5.7
		h5.2V97.6z M187.3,84.9c3.4-1,5.1-1.5,5.9-1.8C193.7,84.5,191.7,85.1,187.3,84.9z M196.6,79.1v-3.2h7.1
		C200,77.6,198.5,78.3,196.6,79.1z M220.5,89h-2.4v-0.7h2.4V89z M235,89.9c-2.4-1.3-4.3-2.3-7.4-3.9c4.9-2.2,7.5-3.4,10.6-4.8
		c0.6,1.1,1.3,1.8,1.5,2.5C240.5,86.7,238.5,88.4,235,89.9z M260.1,98.4c0.8,0.8,1.9,2,2.7,2.7C260.5,101.3,259.6,100.4,260.1,98.4z
		 M269.7,92.4c0.8,0.8,1.9,2,2.6,2.7C270.1,95.2,269.2,94.3,269.7,92.4z M274,111.5v-7.3c0.5,0,1-0.1,1.5-0.1
		c0.2,2.4,0.4,4.8,0.6,7.3C275.3,111.4,274.7,111.4,274,111.5L274,111.5z M295,125.8c-5,0.2-6.2-2.1-8.2-6.9
		C292.8,120.4,295.7,121.5,295,125.8z M327,147.7c-0.1-0.3-0.1-0.7-0.2-1c1.4-0.3,2.7-0.5,4.1-0.7c0,0.6,0.1,1.1,0.1,1.7L327,147.7
		L327,147.7z M337.5,150.8c2.7,1.9,4.4,3,7.4,5.1H336C336.5,154.3,336.8,153.1,337.5,150.8z M345.5,167.8c-0.4,0-0.8,0.1-1.2,0.1
		c-0.3-1.1-0.6-2.2-0.9-3.4c0.7,0,1.4-0.1,2.1-0.1V167.8z M348.5,317.9c0.5,0.1,3.5-1.9,2.5,1.1c0,0-2,0-2.8-0.4L348.5,317.9z
		 M370.9,246.1c1.1,5.9-4.9,3.9-7.7,4.4C363.6,244.4,368,247.8,370.9,246.1z M363.6,228.1c0.8-3.8,1.5-7.7,2.2-11.6h3.2
		c3,4.5-1,7.8-2.4,12.1C364.9,228.3,364.2,228.2,363.6,228.1L363.6,228.1z M375.7,178.5h9.5c-2.8,5.7-5.3,10.7-8.3,16.6
		c-3.9-1.4-6.8-2.4-10-3.4C369.8,186.4,370.1,180.9,375.7,178.5L375.7,178.5z M363.7,166.3c2.3,1.7,4.5,3.4,6.8,5
		c-1.6,2.6-2.9,4.8-4.6,7.5c-1.8-1.1-3.9-1.8-4.5-3.1C359.5,172.3,359.2,168.8,363.7,166.3L363.7,166.3z M353.5,208.1
		c1.8,0.3,3.2,0.5,5.6,0.9c-1.9,2.2-3.3,3.7-5.6,6.3V208.1L353.5,208.1z M348.2,173.6c0.8-2.5,2-5,2.4-7.6c0.4-2.5,0.1-5.1,0.1-7.6
		c0.7,0,1.3,0,2-0.1v12.3C351.4,171.6,349.9,172.5,348.2,173.6L348.2,173.6z M331.9,329.1C331,329,330,329,329,329c1-1,2-1,3.1-0.6
		L331.9,329.1z M334.9,322.1c-1.2-3.5-2.3-6.6-3.6-10.8c9.1-0.7,6.4,4.9,8.6,7C338.3,319.5,337,320.5,334.9,322.1L334.9,322.1z
		 M362.6,201.3c0.5-0.4,1.1-0.9,1.6-1.3c1.3,0.9,2.6,1.8,5.1,3.5c-3,0.5-4.4,0.7-6,0.9C363,203.1,362.8,202.2,362.6,201.3z
		 M353.8,280l1-3.4c1.2,0.5,2.8,1.2,5.9,2.4C356.9,279.6,355.7,279.8,353.8,280L353.8,280z M369.6,273.3C368,273,365,273,363,273
		c1-5,3-11,8-10C375,264,374,270,369.6,273.3L369.6,273.3z M319.2,360.4C312,358,311,364,310,370c6-5,15-6,18.5-13.5
		C323.9,355.4,322.1,359.2,319.2,360.4z M74.2,368.6C72,369,70,371,68,372c2,0,5,2,7,0C76,371,75,370,74.2,368.6L74.2,368.6z
		 M72.2,352.6C72.2,352.6,72.2,352.6,72.2,352.6z"/>
	<path d="M74.6,371.3C75,371,75,372,75,372c5-20,3-40,3-60c-1,0-2,0-3,0c4-11,3-26-7-33c10-2,3-13,2-19c1,1,2,1,3,2c3-12,5-23,15-32
		c1-1,0-5-2-8c11,2,23,7,30-3c1-2-1-8-4-12c6-1,7,8,12.7,5.8c-1-1,7.3-6.8,6.3-7.8c2,1,4,1,6,1c0-2-5.8-4.9-6.8-6.9
		c0,1,7.8,2.9,7.8,3.9c0-5-1-9,1-14c-1,2-6.6-2.6-6.6-0.6c-1-4,5.6-2.4,6.6-6.4c-1,2,2-0.3,2,1.7c2-3,0-2.7,1-6.7c0,0,0,1,0.4,1.1
		c0.9-1.6,3-4.2,3.5-6.6c-1,4.9,0.9,8.4,6.7,4.3c0.3,4.3,0.6,6.9,2.6,9s5.3,3.2,10,2.1c-3.2,9.2,6.1,8.2,12.5,8.2
		c0.8,2.3,7,1.3,7.9,1.3c0.9,0,2.4-1.9,4.4-3s4.4-1.3,7,2c5.2,6.7,13.4,10.7,14.9,10.9c0.7,0.1,4.6,0.1,7.8-0.2
		c4.1,0.3,7.6,0.2,6-1.1c1.6,1.3,4.5,2.4,4.6,0.9c6.1,4.1,9.3,5.7,5.5,2.1c5.1,5.8,7.6,8.5,4.5,5.6c7.7,7.9,9.9,10.1,5.1,5.3
		c4.8,4.7,11.4,3.6,21.1-3.5c3.5,4.9,10,3.8,16.1-0.2c-3,2-4.4,3.6-4.1,4.8s2.2,1.9,5.6,2.1c-3,1-5,4-7,6c-1,2-4,4,2,7
		c-5,0-6,6-4,10s5,5,8,7c0-1-1-2-1-2c1-1,4-2,4-1c2,6-6,12-3,15c6,6,22-8,25,1c0,3-6,8-6,12c-1,9,1,18-2,28c-2,8,10,8,16,11
		c3,1,2,10,5,10c4,0,13,0,15-6c11-35,22-73,7.5-108.8c-3.4-8.1-6.2-16.6-8.9-25.2c-8-25.6-14.7-50.8-31.8-60.7
		C280,112.2,257,88.7,218.1,89s-99,12.7-125.8,41.3c-13.4,14.3-23.3,24.9-30.8,38.4c-3.7,6.7-6.9,14.1-9.6,23C47,221,43,253,50,282
		c0,3-5,5-4,7c0,2,4,5,4,8c0,2-3,4-2,5C62,325,50,356,74.6,371.3L74.6,371.3z"/>
</g>
</svg>
