<svg id="Capa_1" data-name="Capa 1" xmlns="http://www.w3.org/2000/svg" viewBox="0 0 400 600">
  <defs>
    <style>
      .cls-1 {
        fill: #fff;
      }
    </style>
  </defs>
  <title>hairf_3</title>
  <g id="ponytail">
    <path d="M221.49,20.64c4.2.8,8.5,1.4,12.7,2.5,14.8,4.2,23.4,14.1,25.8,29.2.5,3.3,1.9,4.8,4.7,6.1a143.62,143.62,0,0,1,39.5,26.8c6.1,5.8,11.2,12.3,13.3,20.7a16.52,16.52,0,0,0,1.8,4.1c12.1,20.6,19.6,42.8,21.2,66.6,2.7,38.4,4.3,76.8-2.3,115-1.3,7.8-1.4,15.1,1.1,22.5,5,15,3.7,30.1,1.6,45.3-2.7,19.1-5.5,38.2-7.8,57.4-1.1,9.6-1.1,19.3-1.7,28.9a8.76,8.76,0,0,1-2,5.3c0-14.4.5-28.9-.1-43.3-.7-14.6-2.5-29.2-3.9-44.6-.9,1.1-1.5,1.5-1.7,2-7,26.4-11.9,53.1-6.2,80.4,2.4,11.2,5.6,22.1,8,33.3,1.7,7.7,2.5,15.6,3.7,23.4.1.6-.5,1.4-1.3,3.3-3.2-7.5-5.9-14-8.6-20.5-16.9-40-22.8-82.3-25.5-125.2-2.1-32.7-2.9-65.6-9-98-4.8-25.5-13.7-49.7-24.4-73.2-.7-1.5-3.2-2.9-5-3.1a46.6,46.6,0,0,0-28.7,6.5c-8.9,5.4-18.1,6.7-28.2,3.3-14.8-5-30.1-7.6-45.6-6.8-10.4.5-21.4,1.2-28.6,10.6-2.8,3.7-5.3,7.7-7.7,11.6-8.8,14.6-15.8,30.1-19.9,46.7-2.6,10.7-2.5,21.5-.9,32.6,3.4,23.8,5.7,47.7.7,71.6a103.2,103.2,0,0,1-3.6,13.5,103.07,103.07,0,0,0-5.4,50.1c2.8,19.3,5.6,38.5,8.9,57.7,1,5.8,3.6,11.4,5.5,17.1.5,1.6.8,3.2,1.3,4.8-.5.2-.9.5-1.4.7a16,16,0,0,1-2.3-3c-14.1-30.2-18-62-16.3-95,1-18.6-.1-37.3.7-56,.5-10.5-2.7-19.2-7.6-28.2-13.5-25.2-19.4-52.3-17-80.9,1.6-19.5,2.7-39.2,5-58.6a196.48,196.48,0,0,1,21.8-69.1c3.7-6.9,7.3-13.9,11.1-20.7,1.7-3,3.5-6.2,6.1-8.5,14.2-12.8,28.3-26,45.8-34.4,8.5-4.1,17.7-6.5,26.6-9.7,1.5-.5,3.4-.9,4.4-2.1,9.3-11.4,21.9-16.3,36-18.3a21.72,21.72,0,0,0,2.4-.7A10.21,10.21,0,0,0,221.49,20.64ZM311.19,185c1.6-3.1,3.2-6.2,4.6-9.3,4.2-9,8.4-17.9,12.6-26.9,3.3-7-.6-12.5-3.2-18.8-3.7,14.6-10.4,27-18.9,38.5a3.86,3.86,0,0,0-.5,3.1c1.6,4.5,3.6,8.9,5.4,13.4.7,1.8,1.2,3.7,1.8,5.6,7.7,21.1,15.3,42.3,18,64.7,1.4,11.4,2.1,22.9,3.2,34.3,6-46.9,7.7-93.7-1.9-141.6-5.4,10.3-9.9,19.3-14.8,28.2C315.69,179.44,313.19,182.14,311.19,185Zm-176-4.8a21.85,21.85,0,0,1-1.7-2.9c-5.6-15-8.2-30.6-6.3-46.6a188,188,0,0,1,23.6-72.1c.8-1.3,1.4-2.7,2.1-4.1a33.38,33.38,0,0,0-11.1,5.1c-10.4,7.7-20.6,15.7-31,23.5-15.6,11.7-20.3,31-14.6,48.7,4,12.5,7.8,25.1,12.3,37.4,3,8.3,6.9,16.2,10.5,24.2a17.43,17.43,0,0,0,2,2.9c5.6-3.6,10.8-6.9,16.4-10.5a38.41,38.41,0,0,1-2.2-5.6,40.81,40.81,0,0,0,2.8,4.4c.7.9,2,2,2.9,1.9,7.2-.5,14.4-1.2,20.4-1.7-2.4-3.6-6.5-7.5-7.8-12.2a246.85,246.85,0,0,1-7.7-35.9c-3.1-24.4,6.6-46.6,14.2-69,.1-.4.6-.8,1-1.1-2.6,9.4-4.8,19.1-7.9,28.3-8.5,24.5-6.7,48.8.2,73.2,3.9,13.5,12.2,19.7,27,18.6-.3-.8-.5-1.6-.8-2.4a158.25,158.25,0,0,1-12-55.9c-.6-15.5-.7-31-.5-46.5.1-9.5,1.3-19.1,1.9-28.6.5,0,1,.1,1.4.1-.4,4.4-1.2,8.9-1.2,13.3-.1,20.8-.4,41.6.2,62.4a153.28,153.28,0,0,0,11.9,54.9c.7,1.6,1.7,3.7,3.1,4.2,4.5,1.6,9.2,2.6,13.7,3.8.6-1.1,1.2-1.7,1.2-2.3.2-5.2.7-10.5.3-15.7-2.8-34.7-.4-70-11.8-103.8-2.7-8.1-3.5-16.9-5.3-26-3.4.7-6.7,1-9.8,2.1-2.3.8-4.2,2.5-6.3,3.8-.6-.5-1.3-1.7-1.7-1.5-4,1.2-8.1,2.1-10.1,6.5-5.9,13.2-12.8,26-17.6,39.6-6.8,19.4-11.2,39.5-7.6,60.4C130.89,163.64,133.29,171.94,135.19,180.24Zm178.5,209.5c.3.1.5.1.8.2.4-1.5.9-3,1.2-4.6,2.7-12.3,4.7-24.7,8.1-36.8a161.17,161.17,0,0,0,6.1-41.3c.4-25.7-.1-51.4-7.6-76.3-6-20.1-13.4-39.7-19.8-59.7a143.85,143.85,0,0,0-13.8-29.8c-7.2-12.1-21.8-14.4-32.7-13.5a6.31,6.31,0,0,0-2.3.8c-26.2,14.1-42.2,36.5-52.5,63.7a10.58,10.58,0,0,0-.3,2.2c7.4.2,14.3-.3,21.1-3.3a189.68,189.68,0,0,1,23.3-8.3c3.6-1,7.7-.2,12.2-.2-2.2-5.4-4.1-10-6-14.6.5-.3,1-.5,1.5-.8a35.06,35.06,0,0,1,2.7,4c3.8,8.3,7.5,16.6,11.2,24.9,10.1,22.8,18.3,46.3,21.9,71.1,2.3,16,4.2,32,5.4,48.1,2.7,35,3.7,70.2,10.2,104.9,2.4,12.8,5.7,25.4,8.6,38.1l1.2-.3c-.9-6.7-2.3-13.5-2.4-20.2-.3-12.3.7-24.6.4-36.9q-1.5-55.2-3.6-110.4c-.5-13.3,0-26.9-2.6-39.8-6.2-30.9-15.9-60.8-30.8-88.8a7.49,7.49,0,0,1-.5-1.6l1.2-.6c2.2,3.8,4.9,7.5,6.4,11.5,12.9,34,27.4,67.6,27.5,105.1.1,21,1.4,41.9,2.1,62.9C312.59,356.24,313.19,373,313.69,389.74Zm-130.9-347c15.5,45.6,17.5,91.3,18.6,138.5a30.28,30.28,0,0,0,2-2.6c7.8-18.7,19.5-34.4,36.3-46.1a6.41,6.41,0,0,0,2.2-4.1c1.8-25.5-1-50.5-7.4-75.2a6.66,6.66,0,0,0-3.7-4c-7.2-2.4-14.5-5.2-21.9-6.3C200.89,41.94,192.79,42.74,182.79,42.74ZM75.29,154h-1.4c-1.8,7.6-4.5,15.1-5.4,22.7-2.2,20.2-3.7,40.4-5.3,60.7a23.47,23.47,0,0,0,.9,7.4,127.58,127.58,0,0,0,18.2,40.3c.8,1.2,1.5,2.5,2.2,3.7-.5.3-1,.6-1.6.9-3.9-6.5-8.1-12.9-11.5-19.7s-5.9-13.8-8.9-21c-4.5,16.5,9.8,71.3,21,80.7,2.3-17.4,5.2-34.8,6.8-52.3a144.68,144.68,0,0,1,13.1-49.2C85.39,205.94,75.49,181.94,75.29,154Zm28.8,71.5c5-8.4,9.4-15.5,13.3-22.7.8-1.4.3-4-.4-5.7-3.7-8.7-7.9-17.2-11.4-26-3.4-8.5-5.6-17.4-9.2-25.8a68.92,68.92,0,0,1-5.6-25.6c0-1.1-.4-2.3-.7-4.4-9.5,16.3-14.6,32.2-12.4,50.4,2.2,18,10.3,33.6,17.6,49.5C97,218.94,100.79,221.84,104.09,225.54Zm166.7-102.1c1.7-14,3.6-29.2,5.5-44.5.9-7.7-1.6-13-9.5-15.5-5.2-1.7-10-4.4-15.1-6.5-4.8-2-9.8-3.6-15.6-5.8,7,26.1,10.6,51.5,8.7,76.3C252.89,126.14,260.69,124.94,270.79,123.44Zm21.7,18.9c1.2-1.3,1.9-2,2.6-2.8,9.4-11,11.6-24.5,12.2-38.2.2-3.9-.8-9.2-3.3-11.7-7.9-7.5-16.8-13.8-25.3-20.6-.4.4-.8.7-1.2,1.1,2.6,19-1.1,37.3-6.1,55.8C281.29,127.94,287.49,133.94,292.49,142.34Zm1.6,1.2c3.7,8.2,7.1,15.8,11.2,24.8,5-10,9.5-19.2,14.2-28.3,5.1-10,3.5-19.2-2.4-28.3-1.9-2.8-2.7-6.3-4.1-9.5-1.3-3-2.8-5.9-4.1-8.8-.5.1-1.1.3-1.6.4C313,113.44,305.69,129.34,294.09,143.54Zm-38.9-89.3c-1.5-16.5-14.6-25.5-26.3-27.6-15.8-2.8-29.3,2.4-41.5,12.2C211.59,36.74,233,45.74,255.19,54.24Zm-162,227.7c-8.7,34.7-6.6,70.1-6.9,106.6C101.79,352.84,98.49,317.44,93.19,281.94Zm241.1,24.6c-.3,1.7-.6,3.2-.8,4.8-1.2,8.2-1.5,16.7-3.9,24.6a57.36,57.36,0,0,0-2.4,20.4c1,15.9,3,31.8,4.5,47.6C337.19,371.74,346.49,339.64,334.29,306.54Z"/>
    <g>
      <path fill="$[hairColor]" d="M313.69,389.74c-.6-16.8-1.1-33.5-1.7-50.3-.7-21-2.1-41.9-2.1-62.9-.1-37.5-14.6-71.1-27.5-105.1-1.5-4.1-4.3-7.7-6.4-11.5l-1.2.6a9.83,9.83,0,0,0,.5,1.6c14.9,28,24.6,57.9,30.8,88.8,2.6,12.9,2.1,26.5,2.6,39.8,1.3,36.8,2.6,73.6,3.6,110.4.3,12.3-.6,24.6-.4,36.9.1,6.8,1.6,13.5,2.4,20.2l-1.2.3c-2.9-12.7-6.2-25.3-8.6-38.1-6.5-34.6-7.5-69.8-10.2-104.9-1.2-16.1-3.2-32.2-5.4-48.1-3.5-24.8-11.8-48.2-21.9-71.1-3.7-8.3-7.4-16.6-11.2-24.9a35.06,35.06,0,0,0-2.7-4c-.5.3-1,.5-1.5.8,1.9,4.6,3.8,9.2,6,14.6-4.5,0-8.6-.8-12.2.2a161.49,161.49,0,0,0-23.3,8.3c-6.8,3-13.7,3.6-21.1,3.3a6.87,6.87,0,0,1,.3-2.2c10.3-27.2,26.3-49.6,52.5-63.7a6.31,6.31,0,0,1,2.3-.8c10.91-.9,25.5,1.4,32.7,13.5a141.49,141.49,0,0,1,13.8,29.8c6.41,20,13.81,39.6,19.81,59.7,7.5,24.8,8,50.5,7.6,76.3a160.33,160.33,0,0,1-6.1,41.3c-3.4,12.1-5.4,24.5-8.1,36.8-.3,1.5-.8,3.1-1.2,4.6C314.29,389.84,314,389.84,313.69,389.74Z"/>
      <path fill="$[hairColor]" d="M166.39,50.24c2.1-1.3,4-3,6.3-3.8,3.1-1.1,6.4-1.4,9.8-2.1,1.8,9.1,2.5,17.9,5.3,26,11.5,33.8,9,69.1,11.8,103.8.4,5.2-.1,10.5-.3,15.7,0,.6-.6,1.2-1.2,2.3-4.6-1.2-9.3-2.2-13.7-3.8-1.4-.5-2.4-2.6-3.1-4.2a152.36,152.36,0,0,1-11.9-54.9c-.6-20.8-.3-41.6-.2-62.4,0-4.4.8-8.9,1.2-13.3-.5,0-1-.1-1.4-.1-.7,9.5-1.8,19.1-1.9,28.6-.2,15.5-.1,31,.5,46.5a158.25,158.25,0,0,0,12,55.9c.3.8.5,1.6.8,2.4-14.8,1-23.2-5.1-27-18.6-7-24.4-8.7-48.7-.2-73.2,3.2-9.2,5.3-18.9,7.9-28.3C162.79,61.24,164.59,55.74,166.39,50.24Z"/>
      <path fill="$[hairColor]" d="M182.79,42.74c10,0,18.2-.8,26,.2,7.5,1,14.7,3.9,21.9,6.3a6.66,6.66,0,0,1,3.7,4c6.3,24.7,9.1,49.7,7.4,75.2a6,6,0,0,1-2.2,4.1c-16.8,11.7-28.4,27.4-36.3,46.1a30.28,30.28,0,0,1-2,2.6C200.29,134,198.29,88.34,182.79,42.74Z"/>
      <path fill="$[hairColor]" d="M135.09,180.14c.8,2.3,1.7,4.6,2.1,5.8-5.6,3.6-10.8,6.9-16.4,10.5a23.15,23.15,0,0,1-2-2.9c-3.6-8-7.5-16-10.5-24.2-4.5-12.3-8.3-24.9-12.3-37.4-5.6-17.7-.9-37,14.6-48.7,10.4-7.8,20.6-15.8,31-23.5a33.38,33.38,0,0,1,11.1-5.1c-.7,1.4-1.4,2.8-2.1,4.1a188.58,188.58,0,0,0-23.6,72.1c-1.9,15.9.7,31.5,6.3,46.6a22.8,22.8,0,0,0,1.7,3C135.19,180.24,135.09,180.14,135.09,180.14Z"/>
      <path fill="$[hairColor]" d="M75.29,154c.2,27.9,10.1,51.9,28.2,74.2-7,14.7-11.4,31.5-13.1,49.2-1.6,17.5-4.5,34.9-6.8,52.3-11.1-9.4-25.4-64.1-21-80.7,3,7.2,5.5,14.3,8.9,21s7.6,13.1,11.5,19.7c.5-.3,1-.6,1.6-.9-.7-1.3-1.4-2.5-2.2-3.7a126.58,126.58,0,0,1-18.2-40.3,23.47,23.47,0,0,1-.9-7.4c1.6-20.2,3-40.5,5.3-60.7.8-7.7,3.5-15.2,5.4-22.7Z"/>
      <path fill="$[hairColor]" d="M166.39,50.24,161,66.74c-.3.4-.8.7-1,1.1-7.6,22.4-17.2,44.6-14.2,69a246.85,246.85,0,0,0,7.7,35.9c1.3,4.7,5.4,8.6,7.8,12.2-6,.5-13.2,1.3-20.4,1.7-.9.1-2.2-1.1-2.9-1.9-1.1-1.4-1.9-3-2.9-4.5l.1.1c-2-8.4-4.3-16.7-5.8-25.1-3.6-20.8.8-40.9,7.6-60.4,4.8-13.6,11.7-26.4,17.6-39.6,2-4.4,6.1-5.3,10.1-6.5C165.09,48.54,165.79,49.64,166.39,50.24Z"/>
      <path fill="$[hairColor]" d="M104.09,225.54c-3.2-3.7-7.1-6.6-8.8-10.4-7.2-16-15.4-31.5-17.6-49.5-2.2-18.2,2.9-34,12.4-50.4a28.71,28.71,0,0,1,.7,4.4,68.92,68.92,0,0,0,5.6,25.6c3.6,8.4,5.8,17.3,9.2,25.8,3.5,8.8,7.7,17.3,11.4,26,.7,1.7,1.2,4.3.4,5.7C113.49,210.14,109.09,217.14,104.09,225.54Z"/>
      <path fill="$[hairColor]" d="M270.79,123.44c-10.1,1.5-17.9,2.8-26,4,1.9-24.8-1.7-50.2-8.7-76.3,5.8,2.2,10.8,3.8,15.6,5.8,5.1,2.1,9.9,4.8,15.1,6.5,7.9,2.5,10.4,7.9,9.5,15.5C274.39,94.14,272.49,109.44,270.79,123.44Z"/>
      <path fill="$[hairColor]" d="M311.09,185c2.1-2.9,4.6-5.7,6.3-8.8,4.8-8.8,9.4-17.8,14.8-28.2,9.6,47.9,7.9,94.7,1.9,141.6-1-11.4-1.8-22.9-3.2-34.3-2.7-22.5-10.3-43.6-18-64.7-.7-1.9-1.2-3.8-1.7-5.7Z"/>
      <path fill="$[hairColor]" d="M292.49,142.34c-5-8.4-11.2-14.4-21-16.4,5-18.5,8.6-36.8,6.1-55.8.4-.4.8-.7,1.2-1.1,8.5,6.8,17.4,13.2,25.3,20.6,2.6,2.4,3.5,7.8,3.3,11.7-.7,13.7-2.8,27.2-12.2,38.2C294.39,140.34,293.69,141,292.49,142.34Z"/>
      <path fill="$[hairColor]" d="M294.09,143.54c11.5-14.3,18.9-30.1,13.2-49.6.5-.1,1.1-.3,1.6-.4,1.4,2.9,2.8,5.8,4.1,8.8,1.4,3.2,2.2,6.6,4.1,9.5,5.9,9.1,7.5,18.3,2.4,28.3-4.7,9.1-9.2,18.3-14.2,28.3C301.19,159.34,297.79,151.74,294.09,143.54Z"/>
      <path fill="$[hairColor]" d="M255.19,54.24c-22.2-8.5-43.6-17.5-67.8-15.4,12.2-9.8,25.7-15,41.5-12.2C240.59,28.74,253.69,37.74,255.19,54.24Z"/>
      <path fill="$[hairColor]" d="M93.19,281.94c5.3,35.5,8.6,70.9-6.9,106.6C86.59,352,84.49,316.64,93.19,281.94Z"/>
      <path fill="$[hairColor]" d="M334.29,306.54c12.2,33.1,2.9,65.2-2.5,97.4-1.6-15.9-3.6-31.7-4.5-47.6a57.36,57.36,0,0,1,2.4-20.4c2.4-7.9,2.7-16.4,3.9-24.6A46.37,46.37,0,0,1,334.29,306.54Z"/>
      <path fill="$[hairColor]" d="M311.19,184.94c-1.9-4.4-3.8-8.8-5.5-13.3a3.74,3.74,0,0,1,.5-3.1c8.5-11.5,15.2-23.9,18.9-38.5,2.7,6.3,6.5,11.9,3.2,18.8-4.2,9-8.4,17.9-12.6,26.9-1.5,3.1-3.1,6.2-4.7,9.4Z"/>
    </g>
  </g>
</svg>
