<?xml version="1.0" encoding="utf-8"?>
<!-- Generator: Adobe Illustrator 27.2.0, SVG Export Plug-In . SVG Version: 6.00 Build 0)  -->
<svg version="1.1" id="Capa_1" xmlns="http://www.w3.org/2000/svg" xmlns:xlink="http://www.w3.org/1999/xlink" x="0px" y="0px"
	 viewBox="0 0 400 600" style="enable-background:new 0 0 400 600;" xml:space="preserve">
<g id="ponytail">
	<path fill="$[hairColor]" stroke="#000000" stroke-width="4" d="M224.5,42.7c4.8,0.8,9.7,1.3,14.6,2.4c17,4,26.8,13.5,29.6,27.9c0.6,3.1,2.2,4.6,5.4,5.8
		c16.7,6.4,32,15,45.3,25.6c7,5.5,12.8,11.7,15.2,19.8c0.5,1.4,1.2,2.7,2.1,3.9c13.9,19.7,22.5,40.9,24.3,63.6
		c3.1,36.7,4.9,73.3-2.6,109.8c-1.5,7.4-1.6,14.4,1.3,21.5c5.7,14.3,4.2,28.7,1.8,43.2c-3.1,18.2-6.3,36.5-8.9,54.8
		c-1.3,9.2-1.3,18.4-1.9,27.6c-0.1,1.9-0.9,3.6-2.3,5.1c0-13.7,0.6-27.6-0.1-41.3c-0.8-13.9-2.9-27.9-4.5-42.6c-1,1-1.7,1.4-1.9,1.9
		c-8,25.2-13.6,50.7-7.1,76.7c2.8,10.7,6.4,21.1,9.2,31.8c1.9,7.3,2.9,14.9,4.2,22.3c0.1,0.6-0.6,1.3-1.5,3.1
		c-3.7-7.2-6.8-13.4-9.9-19.6c-19.4-38.2-26.1-78.6-29.2-119.5c-2.4-31.2-3.3-62.6-10.3-93.5c-5.5-24.3-15.7-47.4-28-69.9
		c-0.8-1.4-3.7-2.8-5.7-3c-11.5-0.9-23,1.2-32.9,6.2c-10.2,5.2-20.8,6.4-32.3,3.1c-17-4.8-34.5-7.3-52.3-6.5
		c-11.9,0.5-24.5,1.1-32.8,10.1c-3.2,3.5-6.1,7.3-8.8,11.1c-10.1,13.9-18.1,28.7-22.8,44.6c-3,10.2-2.9,20.5-1,31.1
		c3.9,22.7,6.5,45.5,0.8,68.3c-1,4.4-2.4,8.7-4.1,12.9c-6.8,15.3-8.9,31.7-6.2,47.8c3.2,18.4,6.4,36.7,10.2,55.1
		c1.1,5.5,4.1,10.9,6.3,16.3c0.6,1.5,0.9,3.1,1.5,4.6c-0.6,0.2-1,0.5-1.6,0.7c-1-0.9-1.9-1.8-2.6-2.9C68.5,473.9,64,443.5,66,412
		c1.1-17.8-0.1-35.6,0.8-53.4c0.6-10-3.1-18.3-8.7-26.9c-15.5-24.1-22.2-49.9-19.5-77.2c1.8-18.6,3.1-37.4,5.7-55.9
		c3.3-23.1,11.8-45.4,25-66c4.2-6.6,8.4-13.3,12.7-19.8c1.9-2.9,4-5.9,7-8.1c16.3-12.2,32.4-24.8,52.5-32.8
		c9.7-3.9,20.3-6.2,30.5-9.3c1.7-0.5,3.9-0.9,5-2c10.7-10.9,25.1-15.6,41.3-17.5c0.9-0.2,1.9-0.4,2.8-0.7
		C222.2,42.7,223.4,42.8,224.5,42.7z M327.4,199.6c1.8-3,3.7-5.9,5.3-8.9c4.8-8.6,9.6-17.1,14.4-25.7c3.8-6.7-0.7-11.9-3.7-17.9
		c-4.2,13.9-11.9,25.8-21.7,36.7c-0.7,0.9-0.9,1.9-0.6,3C323,191.1,325.3,195.3,327.4,199.6c0.8,1.7,1.4,3.5,2.1,5.3
		c8.8,20.1,17.5,40.4,20.6,61.8c1.6,10.9,2.4,21.9,3.7,32.7c6.9-44.8,8.8-89.4-2.2-135.2c-6.2,9.8-11.4,18.4-17,26.9
		C332.5,194.3,329.7,196.9,327.4,199.6z M125.6,195c-0.7-0.9-1.4-1.8-1.9-2.8c-6.4-14.3-9.4-29.2-7.2-44.5
		c3.3-24.2,12.5-47.6,27.1-68.8c0.9-1.2,1.6-2.6,2.4-3.9c-4.6,1-8.9,2.6-12.7,4.9c-11.9,7.3-23.6,15-35.5,22.4
		c-17.9,11.2-23.3,29.6-16.7,46.5c4.6,11.9,8.9,24,14.1,35.7c3.4,7.9,7.9,15.5,12,23.1c0.7,1,1.4,1.9,2.3,2.8
		c6.4-3.4,12.4-6.6,18.8-10C127.1,198.6,126.3,196.9,125.6,195c1,1.5,2,2.9,3.2,4.2c0.8,0.9,2.3,1.9,3.3,1.8
		c8.3-0.5,16.5-1.1,23.4-1.6c-2.8-3.4-7.5-7.2-8.9-11.6c-4-11.2-6.9-22.7-8.8-34.3c-3.6-23.3,7.6-44.5,16.3-65.9
		c0.1-0.4,0.7-0.8,1.1-1c-3,9-5.5,18.2-9.1,27c-9.7,23.4-7.7,46.6,0.2,69.9c4.5,12.9,14,18.8,31,17.8c-0.3-0.8-0.6-1.5-0.9-2.3
		c-8.4-16.9-13.1-35-13.8-53.4c-0.7-14.8-0.8-29.6-0.6-44.4c0.1-9.1,1.5-18.2,2.2-27.3c0.6,0,1.1,0.1,1.6,0.1
		c-0.5,4.2-1.4,8.5-1.4,12.7c-0.1,19.9-0.5,39.7,0.2,59.6c0.6,18,5.3,35.8,13.6,52.4c0.8,1.5,1.9,3.5,3.6,4
		c5.2,1.5,10.5,2.5,15.7,3.6c0.7-1,1.4-1.6,1.4-2.2c0.2-5,0.8-10,0.3-15c-3.2-33.1-0.5-66.8-13.5-99.1c-3.1-7.7-4-16.1-6.1-24.8
		c-3.9,0.7-7.7,1-11.2,2c-2.6,0.8-4.8,2.4-7.2,3.6c-0.7-0.5-1.5-1.6-1.9-1.4c-4.6,1.1-9.3,2-11.6,6.2c-6.8,12.6-14.7,24.8-20.2,37.8
		c-7.8,18.5-12.8,37.7-8.7,57.6C120.7,179.2,123.4,187.1,125.6,195L125.6,195z M330.2,395c0.3,0.1,0.6,0.1,0.9,0.2
		c0.5-1.4,1-2.9,1.4-4.4c3.1-11.7,5.4-23.6,9.3-35.1c4.4-12.8,6.7-26.1,7-39.4c0.5-24.5-0.1-49.1-8.7-72.8
		c-6.9-19.2-15.4-37.9-22.7-57c-4-10-9.3-19.5-15.8-28.4c-8.3-11.5-25-13.7-37.5-12.9c-0.9,0.1-1.8,0.4-2.6,0.8
		c-30,13.5-48.4,34.8-60.2,60.8c-0.2,0.7-0.3,1.4-0.3,2.1c8.5,0.2,16.4-0.3,24.2-3.1c8.7-3.1,17.6-5.8,26.7-7.9
		c4.1-1,8.8-0.2,14-0.2c-2.5-5.2-4.7-9.5-6.9-13.9c0.6-0.3,1.1-0.5,1.7-0.8c1.1,1.2,2.2,2.5,3.1,3.8c4.4,7.9,8.6,15.8,12.8,23.8
		c11.6,21.8,21,44.2,25.1,67.9c2.6,15.3,4.8,30.5,6.2,45.9c3.1,33.4,4.2,67,11.7,100.1c2.8,12.2,6.5,24.2,9.9,36.4l1.4-0.3
		c-1-6.4-2.6-12.9-2.8-19.3c-0.3-11.7,0.8-23.5,0.5-35.2c-1.1-35.1-2.5-70.2-4.1-105.4c-0.6-12.7,0-25.7-3-38
		c-7.1-29.5-18.2-58-35.3-84.8c-0.3-0.5-0.5-1-0.6-1.5l1.4-0.6c2.5,3.6,5.6,7.2,7.3,11c14.8,32.5,31.4,64.5,31.5,100.3
		c0.1,20,1.6,40,2.4,60C329,363,329.7,379,330.2,395L330.2,395z M180.2,63.8c17.8,43.5,20.1,87.1,21.3,132.2
		c0.8-0.8,1.6-1.6,2.3-2.5c8.9-17.8,22.4-32.8,41.6-44c1.4-1,2.3-2.4,2.5-3.9c2.1-24.3-1.1-48.2-8.5-71.8c-0.7-1.7-2.2-3.1-4.2-3.8
		c-8.3-2.3-16.6-5-25.1-6C200.9,63.1,191.6,63.8,180.2,63.8L180.2,63.8z M56.9,170h-1.6c-2.1,7.3-5.2,14.4-6.2,21.7
		c-2.5,19.3-4.2,38.6-6.1,57.9c-0.1,2.4,0.2,4.8,1,7.1c4.2,13.7,11.3,26.8,20.9,38.5c0.9,1.1,1.7,2.4,2.5,3.5
		c-0.6,0.3-1.1,0.6-1.8,0.9c-4.5-6.2-9.3-12.3-13.2-18.8s-6.8-13.2-10.2-20c-5.2,15.7,11.2,68.1,24.1,77c2.6-16.6,6-33.2,7.8-49.9
		c1.6-16.3,6.7-32.2,15-47C68.5,219.6,57.1,196.7,56.9,170z M89.9,238.3c5.7-8,10.8-14.8,15.2-21.7c0.9-1.3,0.3-3.8-0.5-5.4
		c-4.2-8.3-9.1-16.4-13.1-24.8c-3.9-8.1-6.4-16.6-10.5-24.6c-4-7.7-6.2-16-6.4-24.4c0-1-0.5-2.2-0.8-4.2
		c-10.9,15.6-16.7,30.7-14.2,48.1c2.5,17.2,11.8,32.1,20.2,47.2C81.8,232,86.1,234.8,89.9,238.3L89.9,238.3z M281,140.8
		c1.9-13.4,4.1-27.9,6.3-42.5c1-7.3-1.8-12.4-10.9-14.8c-6-1.6-11.5-4.2-17.3-6.2c-5.5-1.9-11.2-3.4-17.9-5.5
		c8,24.9,12.2,49.2,10,72.8C260.5,143.4,269.5,142.3,281,140.8L281,140.8z M305.9,158.8c1.4-1.2,2.2-1.9,3-2.7
		c10.8-10.5,13.3-23.4,14-36.5c0.2-3.7-0.9-8.8-3.8-11.2c-9.1-7.2-19.3-13.2-29-19.7c-0.5,0.4-0.9,0.7-1.4,1c3,18.1-1.3,35.6-7,53.3
		C293.1,145.1,300.2,150.9,305.9,158.8L305.9,158.8z M307.8,160c4.2,7.8,8.1,15.1,12.8,23.7c5.7-9.5,10.9-18.3,16.3-27
		c5.8-9.5,4-18.3-2.8-27c-2.2-2.7-3.1-6-4.7-9.1c-1.5-2.9-3.2-5.6-4.7-8.4c-0.6,0.1-1.3,0.3-1.8,0.4
		C329.4,131.3,321.1,146.5,307.8,160L307.8,160z M263.2,74.8C261.4,59,246.4,50.4,233,48.4c-18.1-2.7-33.6,2.3-47.6,11.6
		C213.2,58.1,237.7,66.7,263.2,74.8L263.2,74.8z M77.4,292.1c-10,33.1-7.6,66.9-7.9,101.7C87.3,359.8,83.5,326,77.4,292.1
		L77.4,292.1z M353.8,315.6c-0.3,1.6-0.7,3.1-0.9,4.6c-1.4,7.8-1.7,15.9-4.5,23.5c-2.3,6.3-3.2,12.9-2.8,19.5
		c1.1,15.2,3.4,30.4,5.2,45.4C357.2,377.8,367.8,347.2,353.8,315.6L353.8,315.6z"/>
	<g>
		<path fill="$[hairColor]" stroke="#000000" stroke-width="4" d="M330.2,395c-0.7-16-1.3-32-1.9-48c-0.8-20-2.4-40-2.4-60c-0.1-35.8-16.7-67.9-31.5-100.3
			c-1.7-3.9-4.9-7.3-7.3-11l-1.4,0.6c0.1,0.5,0.3,1,0.6,1.5c17.1,26.7,28.2,55.3,35.3,84.8c3,12.3,2.4,25.3,3,38
			c1.5,35.1,3,70.2,4.1,105.4c0.3,11.7-0.7,23.5-0.5,35.2c0.1,6.5,1.8,12.9,2.8,19.3l-1.4,0.3c-3.3-12.1-7.1-24.1-9.9-36.4
			c-7.5-33-8.6-66.6-11.7-100.1c-1.4-15.4-3.7-30.7-6.2-45.9c-4-23.7-13.5-46-25.1-67.9c-4.2-7.9-8.5-15.8-12.8-23.8
			c-0.9-1.3-2-2.6-3.1-3.8c-0.6,0.3-1.1,0.5-1.7,0.8c2.2,4.4,4.4,8.8,6.9,13.9c-5.2,0-9.9-0.8-14,0.2c-9.1,2.1-18.1,4.7-26.7,7.9
			c-7.8,2.9-15.7,3.4-24.2,3.1c0-0.7,0.1-1.4,0.3-2.1c11.8-26,30.2-47.3,60.2-60.8c0.8-0.4,1.7-0.7,2.6-0.8
			c12.5-0.9,29.2,1.3,37.5,12.9c6.6,8.9,11.9,18.5,15.8,28.4c7.3,19.1,15.8,37.8,22.7,57c8.6,23.7,9.2,48.2,8.7,72.8
			c-0.3,13.3-2.6,26.6-7,39.4c-3.9,11.5-6.2,23.4-9.3,35.1c-0.3,1.4-0.9,3-1.4,4.4C330.9,395.1,330.6,395.1,330.2,395z"/>
		<path fill="$[hairColor]" stroke="#000000" stroke-width="4" d="M161.3,71c2.4-1.2,4.6-2.9,7.2-3.6c3.6-1,7.3-1.3,11.2-2c2.1,8.7,2.9,17.1,6.1,24.8
			c13.2,32.3,10.3,66,13.5,99.1c0.5,5-0.1,10-0.3,15c0,0.6-0.7,1.1-1.4,2.2c-5.3-1.1-10.7-2.1-15.7-3.6c-1.6-0.5-2.8-2.5-3.6-4
			c-8.4-16.6-13-34.4-13.6-52.4c-0.7-19.9-0.3-39.7-0.2-59.6c0-4.2,0.9-8.5,1.4-12.7c-0.6,0-1.1-0.1-1.6-0.1
			c-0.8,9.1-2.1,18.2-2.2,27.3c-0.2,14.8-0.1,29.6,0.6,44.4c0.7,18.3,5.3,36.4,13.8,53.4c0.3,0.8,0.6,1.5,0.9,2.3
			c-17,1-26.6-4.9-31-17.8c-8-23.3-10-46.5-0.2-69.9c3.7-8.8,6.1-18,9.1-27C157.2,81.5,159.3,76.2,161.3,71z"/>
		<path fill="$[hairColor]" stroke="#000000" stroke-width="4" d="M180.2,63.8c11.5,0,20.9-0.8,29.8,0.2c8.6,1,16.9,3.7,25.1,6c2,0.7,3.5,2.1,4.2,3.8
			c7.2,23.6,10.4,47.4,8.5,71.8c-0.2,1.5-1.1,2.9-2.5,3.9c-19.3,11.2-32.6,26.2-41.6,44c-0.7,0.9-1.5,1.7-2.3,2.5
			C200.2,150.9,197.9,107.3,180.2,63.8z"/>
		<path fill="$[hairColor]" stroke="#000000" stroke-width="4" d="M125.5,195c0.9,2.2,1.9,4.4,2.4,5.5c-6.4,3.4-12.4,6.6-18.8,10c-0.8-0.9-1.6-1.8-2.3-2.8
			c-4.1-7.6-8.6-15.3-12-23.1c-5.2-11.7-9.5-23.8-14.1-35.7c-6.4-16.9-1-35.3,16.7-46.5C109.3,95,121,87.4,132.9,80
			c3.8-2.3,8.2-3.9,12.7-4.9c-0.8,1.3-1.6,2.7-2.4,3.9c-14.5,21.2-23.7,44.6-27.1,68.8c-2.2,15.2,0.8,30.1,7.2,44.5
			c0.6,1,1.2,2,1.9,2.9C125.6,195.1,125.5,195,125.5,195z"/>
		<path fill="$[hairColor]" stroke="#000000" stroke-width="4" d="M56.9,170c0.2,26.6,11.6,49.5,32.3,70.8c-8,14-13.1,30.1-15,47c-1.8,16.7-5.2,33.3-7.8,49.9
			c-12.7-9-29.1-61.2-24.1-77c3.4,6.9,6.3,13.6,10.2,20c3.9,6.4,8.7,12.5,13.2,18.8c0.6-0.3,1.1-0.6,1.8-0.9
			c-0.8-1.2-1.6-2.4-2.5-3.5c-9.6-11.7-16.7-24.7-20.9-38.5c-0.8-2.3-1.1-4.7-1-7.1c1.8-19.3,3.4-38.7,6.1-57.9
			c0.9-7.3,4-14.5,6.2-21.7L56.9,170z"/>
		<path fill="$[hairColor]" stroke="#000000" stroke-width="4" d="M161.3,71l-6.2,15.7c-0.3,0.4-0.9,0.7-1.1,1c-8.7,21.4-19.7,42.6-16.3,65.9c1.9,11.6,4.9,23,8.8,34.3
			c1.5,4.5,6.2,8.2,8.9,11.6c-6.9,0.5-15.1,1.2-23.4,1.6c-1,0.1-2.5-1-3.3-1.8c-1.3-1.3-2.2-2.9-3.3-4.3l0.1,0.1
			c-2.3-8-4.9-15.9-6.6-24c-4.1-19.9,0.9-39,8.7-57.6c5.5-13,13.4-25.2,20.2-37.8c2.3-4.2,7-5.1,11.6-6.2
			C159.9,69.4,160.7,70.4,161.3,71z"/>
		<path fill="$[hairColor]" stroke="#000000" stroke-width="4" d="M89.9,238.3c-3.7-3.5-8.1-6.3-10.1-9.9c-8.3-15.3-17.7-30.1-20.2-47.2c-2.5-17.4,3.3-32.5,14.2-48.1
			c0.4,1.4,0.7,2.8,0.8,4.2c0.2,8.4,2.4,16.7,6.4,24.4c4.1,8,6.6,16.5,10.5,24.6c4,8.4,8.8,16.5,13.1,24.8c0.8,1.6,1.4,4.1,0.5,5.4
			C100.7,223.6,95.7,230.3,89.9,238.3z"/>
		<path fill="$[hairColor]" stroke="#000000" stroke-width="4" d="M281,140.8c-11.6,1.4-20.5,2.7-29.8,3.8c2.2-23.7-1.9-47.9-10-72.8c6.6,2.1,12.4,3.6,17.9,5.5
			c5.8,2,11.4,4.6,17.3,6.2c9.1,2.4,11.9,7.5,10.9,14.8C285.2,112.9,283,127.5,281,140.8z"/>
		<path fill="$[hairColor]" stroke="#000000" stroke-width="4" d="M327.2,199.6c2.4-2.8,5.3-5.4,7.2-8.4c5.5-8.4,10.8-17,17-26.9c11,45.7,9.1,90.4,2.2,135.2
			c-1.1-10.9-2.1-21.9-3.7-32.7c-3.1-21.5-11.8-41.6-20.6-61.8c-0.8-1.8-1.4-3.6-1.9-5.4L327.2,199.6z"/>
		<path fill="$[hairColor]" stroke="#000000" stroke-width="4" d="M305.9,158.9c-5.7-8-12.8-13.7-24.1-15.7c5.7-17.7,9.9-35.1,7-53.3c0.5-0.4,0.9-0.7,1.4-1
			c9.7,6.5,19.9,12.6,29,19.7c3,2.3,4,7.4,3.8,11.2c-0.8,13.1-3.2,26-14,36.5C308.1,157,307.3,157.6,305.9,158.9z"/>
		<path fill="$[hairColor]" stroke="#000000" stroke-width="4" d="M307.8,160c13.2-13.6,21.7-28.7,15.1-47.3c0.6-0.1,1.3-0.3,1.8-0.4c1.6,2.8,3.2,5.5,4.7,8.4
			c1.6,3.1,2.5,6.3,4.7,9.1c6.8,8.7,8.6,17.5,2.8,27c-5.4,8.7-10.5,17.5-16.3,27C315.9,175.1,312,167.9,307.8,160z"/>
		<path fill="$[hairColor]" stroke="#000000" stroke-width="4" d="M263.2,74.8c-25.5-8.1-50-16.7-77.7-14.7c14-9.4,29.5-14.3,47.6-11.6C246.4,50.5,261.4,59,263.2,74.8z"/>
		<path fill="$[hairColor]" stroke="#000000" stroke-width="4" d="M77.4,292.1c6.1,33.9,9.9,67.7-7.9,101.7C69.9,359,67.5,325.2,77.4,292.1z"/>
		<path fill="$[hairColor]" stroke="#000000" stroke-width="4" d="M353.8,315.6c14,31.6,3.3,62.2-2.9,93c-1.8-15.2-4.1-30.3-5.2-45.4c-0.5-6.6,0.4-13.2,2.8-19.5
			c2.8-7.5,3.1-15.7,4.5-23.5C353.2,318.6,353.5,317.1,353.8,315.6z"/>
		<path fill="$[hairColor]" stroke="#000000" stroke-width="4" d="M327.4,199.5c-2.2-4.2-4.4-8.4-6.3-12.7c-0.3-1-0.1-2.1,0.6-3c9.7-11,17.4-22.8,21.7-36.7
			c3.1,6,7.5,11.4,3.7,17.9c-4.8,8.6-9.6,17.1-14.4,25.7c-1.7,3-3.6,5.9-5.4,9L327.4,199.5z"/>
	</g>
</g>
</svg>
