<?xml version="1.0" encoding="utf-8"?>
<!-- Generator: Adobe Illustrator 27.2.0, SVG Export Plug-In . SVG Version: 6.00 Build 0)  -->
<svg version="1.1" id="Capa_1" xmlns="http://www.w3.org/2000/svg" xmlns:xlink="http://www.w3.org/1999/xlink" x="0px" y="0px"
	 viewBox="0 0 400 600" style="enable-background:new 0 0 400 600;" xml:space="preserve">
<style type="text/css">
	.st0{stroke:#000000;stroke-width:4;}
</style>
<g>
	<path class="st0" fill="$[hairColor]" stroke="#000000" stroke-width="4" d="M84,386.7c-2.9-3.1-5.7-6.2-8.7-9.2c-19.6-18.8-25.8-41.6-20.6-67.9c1.4-7.2,2.3-14.5,4.2-21.5
		c1-2.8,3.1-5.1,5.9-6.4c5.1-2,6.9,0.1,7.5,5.5c3.4,30,3,60.5,10.4,90.1c0.7,3,1.5,5.9,2.3,8.9L84,386.7z M77.8,372.6
		c-9.2-22.9-9.1-47.4-13.2-71.1h-1.3l-3.3,28c-2.5-6.6,0.8-30.5,5.5-35.3c2.5,18.3,5,36,7.4,53.7c0.8-0.6,1-1.1,1-1.5
		c-1.1-19.7-2.2-39.5-3.4-59.2c-0.1-1.1-0.7-3-1.4-3.2c-1.3-0.4-3.4-0.2-4.2,0.6c-1.7,1.9-3.6,4.1-4.1,6.5c-1.3,6-1.2,12.3-2.8,18.1
		c-2.7,9.8-2.2,19.5-0.8,29.2C59.3,352.1,66.7,364.4,77.8,372.6L77.8,372.6z"/>
	<path d="M77.8,372.6c-11.2-8.2-18.6-20.5-20.5-34.3c-1.5-9.7-1.9-19.4,0.8-29.2c1.6-5.9,1.5-12.1,2.8-18.1c0.5-2.4,2.4-4.6,4.1-6.5
		c0.8-0.8,2.9-1,4.2-0.6c0.7,0.2,1.3,2.1,1.4,3.2c1.2,19.8,2.3,39.5,3.4,59.2c0,0.7-0.4,1.3-1,1.5c-2.4-17.7-4.9-35.4-7.4-53.7
		c-4.7,4.8-8,28.6-5.5,35.3l3.2-28h1.3C68.7,325.2,68.6,349.7,77.8,372.6z"/>
</g>
<g id="bangs">
	<path class="st0" fill="$[hairColor]" stroke="#000000" stroke-width="4" d="M195.3,277.7c-19.5-2.8-38.2-5.2-56.9-8.4c-4.3-0.7-8-3.9-12-5.8c-2.5-1.1-5.1-2.1-7.9-2.7
		c-3.6-0.8-7.1-1.3-11.6-2.1c-2.9,9.6-6.3,19.1-8.5,28.9c-3.5,15.9-6.2,31.8-8.9,47.8c-5.7,34.4-1.2,68.3,5.7,102.2
		c0.6,2.8,1.8,3.1,4.6,3.6c6.9,1.4,13.8,3.4,20.5,5.4c1.3,0.6,2.3,1.6,2.9,2.8l-25.7-7.6l-1.1,1.4c1.4,6.8,2.3,13.7,4.3,20.4
		c1.8,6.4,4.8,12.6,7.5,19.6c-1.4-0.8-2.9-1.7-4.2-2.8c-9.7-9.3-17.8-20-24.2-31.4c-2.9-5.1-6.3-9.2-11.7-12.6
		c-11.6-7.2-22.4-15.5-33.9-22.9c-4.4-2.9-6.5-6-7-10.9c-0.3-3.6-2.5-7.2-4.1-10.6c-2.2-5.1-4.8-10.2-7-15.3
		c-5.2-11.6-3.6-23.6-2.4-35.4c4.9-49.2,20-96.4,35.8-143.5c6.2-18.6,14.6-36.3,27.1-51.8c8.4-10.3,18.7-19.2,28.9-28
		c13.4-11.7,28.5-21.7,45-29.7c10-4.8,21.3-7.2,32.6-6.8c12.4,0.3,24.9,0.5,37.3,0c15.4-0.6,28.2,5.4,40.7,12.4
		c19.5,11.1,36.6,24.8,52.1,40.4c17.5,17.4,30.2,38.5,36.9,61.4c9.2,30.9,18.8,61.5,27.4,92.5c6.7,24.2,10.5,49,10.1,74.1
		c-0.1,8.2-4.4,16.6-7.6,24.5c-2.9,7.1-7.4,13.5-8,21.4c-0.1,1-0.5,2-1.3,2.7c-12.4,8.6-24.6,17.5-37.5,25.5
		c-6,3.6-9.5,8.4-13.2,13.7c-7.3,10.5-15.6,20.5-23.6,30.7c-1.1,1.2-2.8,2.1-4.5,2.3c9.2-12,8.8-26.1,12.3-40.1
		c-9.8,0.4-18,3.4-26,7.3l-0.7-0.9c0.8-0.7,1.5-2,2.4-2.2c6.8-2,13.6-4.1,20.5-5.5c2.8-0.6,4.2-1,4.7-3.6c6.8-33,10.3-66.1,6.4-99.8
		c-2.9-25.3-8.4-50.3-16.4-74.5c-0.5-1.5-1.1-3-1.7-4.9c-7.8,2.3-15.4,2.7-22.6,7.2c-6.4,3.9-15.1,5.4-22.9,6.6
		c-13.4,2.1-26.8,3.2-40.3,4.6c-0.8,0-1.5-0.1-2.3-0.3c-1.5-7.8-3-15.8-4.7-24.8C198.7,260.8,197.1,268.8,195.3,277.7z M171.6,128.8
		c-1.2,0.9-2.4,1.7-3.7,2.4c-8.9,4.3-18.3,7.9-26.7,12.7c-19.6,11.1-32.6,27.7-44.3,45.3c-10.2,15.6-17.2,32.6-20.9,50.5
		c-0.3,1.3,0.5,3.6,1.5,4.1c7.5,3.2,15.2,6,22.8,9c3.8,1.4,7.5,2.7,11.3,4.2c8.1,3.3,10.4,2.3,12.7-5.5
		c6.8-23.4,16.4-46.2,28.6-67.7c0.8-1.3,1.7-2.6,2.8-3.9c-1.4,3.9-3.6,7.4-5.3,11c-9.8,20.8-19.1,41.7-24,64.1
		c-1,4.6,0.3,6.4,4.3,8.6c11.8,6.5,25.1,7.2,38.2,8.5c8.4,0.8,16.7,1.3,25.6,1.9l5.4-46.5h0.7c1.8,15.4,3.8,30.8,5.6,46.2
		c1,0.2,2,0.2,3.1,0.2c11.4-0.9,22.8-1.9,34.3-3c9.8-0.9,19.2-3.2,27.6-7.9c2.1-1.2,4.7-2.2,3.7-5.3c-4.5-13.8-8.4-27.9-13.6-41.5
		c-4.8-12.3-11-24.1-16.6-36.2c2.3,3.3,4.4,6.7,6.3,10.2c11,20.4,19.6,42,25.7,64.1c1,3.8,3.1,5.3,7,4.1c3.4-1,6.6-2.6,10-3.7
		c10.5-3.5,21-7.1,31.6-10.6c-0.1-2-0.4-4-0.8-6c-4-14.2-8.3-28.2-16.1-41.1c-11.7-19.1-24.4-37.7-44.8-50.1
		c-10.5-6.4-22.5-10.7-33.8-16.3c-11.9-6.1-24.6-7-37.6-5.5c-7,0.8-14,2.7-20.9,4.1c0.4-0.5,0.8-0.8,1.3-1.1
		c12.2-4.8,25.8-6.2,39-4.1c17.7,2.8,33.4,10.5,48.5,18.8c19.6,10.7,32.7,27.1,44.1,44.8c9.8,15.3,18,31.1,21.8,48.7
		c1.5,7.2,1.3,9.2-4.1,11.3c-4.4,1.7-4.2,3.7-3.1,7.4c8.2,27.2,16.7,54.4,24,81.9c6.3,24.3,5.1,49-0.9,73.4
		c-1.2,4.8-4.1,9.3-6.4,13.9c-1.6,3.3-3.6,6.4-5.4,9.6c9.1-5,17.3-10.4,25.5-16c4.4-3,8.6-6.2,12.7-9.3c1-0.7,1.7-1.6,2.1-2.7
		c0.8-4.8,2-9.5,2-14.3c-0.4-33.8-1.2-67.5-8.1-100.8c-6.9-33.8-14.9-67.4-22.4-101.2c-3.3-14.5-8.6-28.3-18-40.2
		c-18-22.2-40.6-40.7-66.6-54.7c-10.1-5.5-20.6-10.7-32.9-10.7c-16.2,0-32.5-0.4-48.7,0c-5.6,0.2-11,1.3-16.2,3.3
		c-23.6,8.6-42.8,23-60.8,39c-11.6,10.3-22.9,21.1-30,35c-6.1,12.1-9.8,24.8-12.5,37.9c-5.1,24.3-11.3,48.5-16.5,72.7
		c-9.3,42.8-14,85.9-10.5,129.5c0.3,4.4,2,7.3,5.7,9.8c10,6.7,20,13.5,29.9,20.3c1.5,1,3.2,2.1,5.9,3.7c-0.9-2-1.2-2.6-1.6-3.3
		c-3.3-5.6-8-10.9-9.7-17c-8.5-29.8-8-59.9,0.3-89.7c4.7-17,10.2-33.7,15.4-50.5c2.5-8.2,5.3-16.4,8-24.8c-1.7-0.8-3.3-1.7-4.9-2.2
		c-4-1.6-5.4-4.3-4.4-8.1c1.7-6.5,3-13.1,5.5-19.5c7.2-17.8,17.1-34.6,29.5-50C124.8,149.7,146.4,136.8,171.6,128.8z M295.2,258.3
		c27.1,70.5,25,141.4,5.7,212.6c1.2-0.5,2.1-1.2,2.9-2.2c9.8-14.6,20.4-28.9,29.1-44.1c4.9-8.4,7.6-18.2,9.7-27.6
		c3.8-16.3,3.9-33.2,0.4-49.6c-4.3-19.2-9.7-38.3-14.9-57.3c-3.7-13.1-8-26.1-12.1-39.4L295.2,258.3z M98.4,471.2l1.9-0.5
		c-20.4-71.3-22-142.3,5.4-212.4l-20.5-7.6c-0.7,2.1-1.4,3.8-2,5.6c-3.8,12.2-7.6,24.4-11.3,36.6c-6.6,22.2-14.8,44.1-16.1,67.4
		c-1.2,21.6,0.4,43,11.1,62.7c6,11.1,13.3,21.6,20.1,32.3C90.6,460.7,94.7,466,98.4,471.2L98.4,471.2z M58.4,179.3
		c-3.8,10.6-7.6,21.2-11.2,31.8c-13.1,39.4-24.5,79.2-30.7,120.1c-2.9,18.8-3.2,37.2,6.2,54.7c0.7,1.3,1.4,2.5,2,3.8l1.1-0.3
		C23.6,317.8,42.2,248.8,58.4,179.3L58.4,179.3z M374.9,388.8c1.3-0.4,1.8-0.5,1.9-0.6c5.3-11.1,10.2-22.4,9.4-34.9
		c-2-33.8-10.1-66.7-19.6-99.3c-5.6-19.4-12.2-38.6-18.5-57.8c-1.9-6.1-4.1-12.1-6.1-18.2C358.8,247.7,376.1,316.9,374.9,388.8z"/>
	<path class="st0" fill="$[hairColor]" stroke="#000000" stroke-width="4" d="M171.8,128.8c-25.4,8-46.9,20.9-62.8,41.1c-12.3,15.3-22.2,32.1-29.5,50c-2.4,6.2-3.8,13-5.5,19.5
		c-1,3.8,0.4,6.5,4.4,8.1c1.6,0.7,3.1,1.4,4.9,2.2c-2.8,8.4-5.4,16.6-8,24.8c-5.2,16.8-10.8,33.6-15.4,50.5
		c-8.2,29.8-8.8,59.9-0.3,89.7c1.7,6.1,6.4,11.3,9.7,17c0.3,0.7,0.6,1.3,1.6,3.3c-2.8-1.8-4.4-2.7-5.9-3.7
		c-10-6.8-19.9-13.6-29.9-20.3c-3.8-2.5-5.4-5.4-5.7-9.8c-3.5-43.7,1.2-86.8,10.5-129.6c5.3-24.3,11.4-48.4,16.5-72.7
		c2.8-13.1,6.4-25.8,12.5-37.9c7-13.8,18.4-24.5,30-35c17.9-15.9,37.2-30.3,60.8-39c5.2-2,10.6-3,16.2-3.3c16.2-0.4,32.4-0.1,48.7,0
		c12.3,0,22.8,5.3,32.9,10.7c26,14,48.5,32.5,66.5,54.7c9.6,11.8,14.9,25.7,18,40.2c7.5,33.8,15.5,67.3,22.4,101.2
		c6.7,33.3,7.6,67,8.1,100.8c0.1,4.8-1.1,9.5-2,14.3c-0.4,1.1-1.1,2.1-2.1,2.7c-4.2,3.2-8.4,6.3-12.7,9.3c-8.2,5.6-16.4,11-25.5,16
		c1.8-3.2,3.8-6.3,5.4-9.6c2.3-4.6,5.2-9,6.4-13.9c6-24.3,7.2-49,0.9-73.4c-7.1-27.5-15.7-54.6-24-81.9c-1.1-3.6-1.3-5.7,3.1-7.4
		c5.4-2.1,5.6-4.1,4.1-11.3c-3.8-17.6-12-33.5-21.8-48.7c-11.3-17.7-24.5-34.1-44.1-44.8c-15.2-8.3-30.9-16-48.5-18.8
		c-13.2-2.1-26.7-0.6-39,4.2c-0.5,0.2-0.9,0.7-1.3,1.1L171.8,128.8z"/>
	<path class="st0" fill="$[hairColor]" stroke="#000000" stroke-width="4" d="M171.5,128.9c6.9-1.4,13.9-3.3,20.9-4.1c13.1-1.5,25.7-0.6,37.6,5.5c11.1,5.6,23.3,10,33.8,16.3
		c20.3,12.4,33,31,44.8,50.1c7.9,13,12.1,26.9,16.1,41.1c0.4,2,0.6,3.9,0.8,6c-10.5,3.5-21.1,7-31.6,10.6c-3.4,1.1-6.5,2.7-10,3.7
		c-4,1.3-6-0.2-7-4.1c-6.1-22.1-14.7-43.5-25.7-64.1c-1.9-3.4-4-6.9-6.3-10.2c5.6,12,11.8,23.9,16.6,36.2
		c5.2,13.6,9.1,27.6,13.6,41.5c1,3.2-1.5,4.1-3.7,5.3c-8.5,4.8-17.8,7-27.6,7.9c-11.4,1-22.8,2-34.3,3c-1,0-2-0.1-3.1-0.2
		c-1.9-15.5-3.8-30.9-5.6-46.2H200l-5.5,46.5c-8.8-0.7-17.2-1-25.6-1.9c-13.2-1.3-26.4-2-38.2-8.5c-4-2.1-5.3-4-4.3-8.6
		c4.9-22.4,14.2-43.3,24-64.1c1.7-3.6,3.9-7.1,5.3-11c-1,1.2-1.9,2.5-2.8,3.9c-12.1,21.5-21.7,44.3-28.6,67.7
		c-2.2,7.7-4.7,8.8-12.7,5.5c-3.7-1.5-7.5-2.7-11.3-4.2c-7.6-2.9-15.3-5.7-22.8-9c-1-0.5-1.8-2.8-1.5-4.1
		c3.8-17.8,10.9-34.9,21.1-50.4c11.6-17.7,24.7-34.2,44.3-45.3c8.6-4.8,17.8-8.5,26.7-12.7c1.3-0.7,2.5-1.6,3.8-2.4L171.5,128.9z"/>
	<path class="st0" fill="$[hairColor]" stroke="#000000" stroke-width="4" d="M295.2,258.3l20.7-7.8c4.1,13.4,8.5,26.5,12.1,39.5c5.3,19,10.6,38.1,14.9,57.3c3.5,16.4,3.4,33.3-0.4,49.6
		c-2,9.4-4.9,19.2-9.7,27.6c-8.8,15.1-19.3,29.5-29.1,44.1c-0.7,0.9-1.6,1.8-2.9,2.2C320.2,399.7,322.4,328.8,295.2,258.3z"/>
	<path class="st0" fill="$[hairColor]" stroke="#000000" stroke-width="4" d="M98.4,471.2c-3.8-5.3-7.9-10.4-11.4-15.9c-6.9-10.6-14.1-21.2-20.1-32.3c-10.7-19.8-12.3-41-11.1-62.8
		c1.3-23.3,9.5-45.2,16.1-67.4c3.7-12.2,7.5-24.4,11.3-36.6c0.6-1.8,1.2-3.5,2-5.6l20.5,7.7c-27.4,70.1-25.7,141.1-5.4,212.4
		L98.4,471.2z"/>
	<path class="st0" fill="$[hairColor]" stroke="#000000" stroke-width="4" d="M58.4,179.3c-16.1,69.5-34.7,138.5-32.5,210.2l-1.1,0.3c-0.7-1.3-1.4-2.5-2-3.8c-9.4-17.5-9.1-36-6.2-54.7
		c6.2-40.9,17.6-80.7,30.7-120.1C50.7,200.5,54.6,190,58.4,179.3z"/>
	<path class="st0" fill="$[hairColor]" stroke="#000000" stroke-width="4" d="M374.9,388.8c1.2-72-16.1-141.3-32.7-210.7c2,6.1,4.2,12.1,6.1,18.2c6.2,19.3,12.8,38.4,18.5,57.8
		c9.5,32.6,17.4,65.5,19.6,99.3c0.8,12.5-4.1,23.7-9.4,34.9C376.7,388.5,376.3,388.5,374.9,388.8z"/>
</g>
</svg>
