<?xml version="1.0" encoding="utf-8"?>
<!-- Generator: Adobe Illustrator 27.2.0, SVG Export Plug-In . SVG Version: 6.00 Build 0)  -->
<svg version="1.1" id="Capa_1" xmlns="http://www.w3.org/2000/svg" xmlns:xlink="http://www.w3.org/1999/xlink" x="0px" y="0px"
	 viewBox="0 0 400 600" style="enable-background:new 0 0 400 600;" xml:space="preserve">
<style type="text/css">
	.st0{stroke:#000000;stroke-width:4;}
</style>
<g>
	<path class="st0" fill="$[hairColor]" stroke="#000000" stroke-width="4" d="M388.9,299.1c-8.5-37.3-23.3-73.5-39.4-109.4c-4.8-10.6-10.1-21.6-18.4-30.8c-18.7-20.6-44-36.3-73.2-48.2
		c-15-6-31.3-9.9-48.2-11.4c-19-1.9-36.7,1.9-54,7c-26.5,7.8-48.2,21.1-67.9,36.1c-7.8,5.9-15.3,12.3-20.7,19.5
		c-10.8,14.3-17.3,30-23.9,45.7c-16.8,40.1-32.4,80.5-37.5,122.5c-1.2,10.2-2.9,20.4,2.5,30.3c2.3,4.2,4.9,8.2,6.9,12.4
		c2.1,4.3,3.6,8.8,5.5,13.1c0.5,1.3,1.1,2.9,2.3,3.5c10.6,6.1,21.2,12.1,32.1,17.8c9.2,4.7,16.7,10.3,22.2,18
		c6.3,8.6,15.2,16.2,23.1,24.2c0.9,0.9,2.6,1.3,3.9,1.9c0.5-0.2,0.9-0.5,1.3-0.7c-10.8-9.8-9.8-22-13.5-33.2c-0.3-1-0.8-2.8-1.3-5
		c-8.9-35.6-14.2-52.9-4.2-101.1c1.5-7.2,1.4-14.9,10.2-20.4c4.9-3,8.8-7.1,13.6-10.2c5.4-3.6,9.1-7.5,9.2-13c0.1-0.5,0.3-1,0.6-1.5
		c4.9-0.5,10.1-0.2,13.4-1.9c12.8-6.6,26.4-11.9,41.3-15.3c-0.1-23.4,16.6-47.3,25.9-59.7c12.8,18.9,24.7,38,25.1,58.6
		c12.2,4.5,24,8.4,34.8,13.3c6.4,2.9,12.2,5.3,20,4.2c0.6,2.5,1,4.7,1.6,6.9c0.2,1.2,0.8,2.4,1.8,3.4c5.8,4.6,11.4,9.2,17.6,13.6
		c6.2,4.4,10.7,9.2,11.4,15.9c1.2,11.1,3.7,22.2,4.7,33.4c0.6,6.8-0.6,29.6-7.9,74.3c-0.3,1.8-0.5,3.3-0.7,4.2
		c-4,11.8-3.2,23.9-13.8,33.8c0.5,0.1,1,0.4,1.4,0.4c1.3-0.9,2.7-1.6,3.9-2.5c11.5-9,20-19.6,27.8-30.5c1.8-2.2,4.1-4.1,6.8-5.7
		c4.2-2.7,8.8-4.9,13.2-7.4c8.7-4.8,17.3-9.7,25.9-14.6c1.9-1.2,4.2-2.3,5-3.9c2.9-5.6,5.4-11.3,7.9-17.1c3.1-7,8.6-14.2,8.3-21.2
		C394.9,331.9,392.6,315.4,388.9,299.1z M18.4,371.8c-0.6,0.1-1.2,0.2-1.8,0.3c-2.5-5.4-5-10.8-7.4-16.2c-5.1-11.3-2.3-22.7-0.4-34
		c6-35,18.3-68.8,31.9-102.4c3.7-9.3,7.9-18.3,11.8-27.5C35.8,251.4,16.1,310.3,18.4,371.8z M94.6,441.1c-1.5-1.5-3.3-2.7-4.5-4.3
		c-9.7-12.3-20.2-24.3-28.9-37c-11.3-16.6-12.8-34.6-11.4-52.8c1.7-22.2,10.8-43.1,20.9-64.1v33.6c0.4,0,0.9,0.1,1.4,0.2
		c4.4-4.9,8.8-9.8,13.2-14.7c0.5,0.1,1,0.2,1.5,0.3C73.5,349,81.9,395,94.6,441.1z M323.3,421.4c-4.8,6-9.9,11.8-14.9,17.7
		c-0.4,0.6-1,1-1.6,1.4c4.4-22.6,10-45.6,13.1-68.7c3.1-23.1,0.2-46.3-5.4-69.4c0.4-0.1,0.9-0.2,1.4-0.3c4.4,4.9,8.8,9.8,13.8,14.9
		c2.9-5.8,1.5-11.3,1.8-16.6c0.3-5.5,0.1-11,0.1-16.7c0.4,0.3,0.8,0.4,0.9,0.6c9.9,23.3,19.4,46.8,19.2,71.7
		c-0.1,15.1-2.7,29.8-11.5,43.5C335.3,407,329.1,414.2,323.3,421.4z M380.3,367.1c-0.1,6-1.2,11.9-2.1,17.8c-0.1,1-1.3,2.1-2.4,2.7
		c-5.8,3.5-11.7,6.9-17.7,10.3c-7,4-14.1,7.8-21.2,11.7l-0.7-0.6c1.3-2,2.2-4.3,4.4-5.1c8.3-7.7,9-16.9,11-26
		c4.9-22.5,2.1-44.7-6.6-66.2c-9.2-22.8-18.8-45.6-30.5-67.7c-14-26.2-38-47.1-69.3-63.2c-7.3-3.8-15.4-5.8-24.5-4.8
		c1.8,0.2,3.5,0.4,5.3,0.6c8.6,1,15.9,4.1,22.8,8c20.6,11.5,38.5,24.9,51.6,41.6c9.4,12,15.9,25.1,22.5,38.2
		c8.4,16.5,6.1,33.5,6.7,51.1c-0.6-0.4-1.1-0.8-1.5-1.3c-7.9-13.6-21.1-24.2-35.5-34.2c-4.4-3-7.5-6.9-8.8-11.2
		c-2.4-7.2-6.9-14-11.1-20.7c-9.9-15.9-20-31.8-30.2-47.6c-1.6-2.4-3.8-4.6-6.2-7.4c14.8,24.1,29.3,47.4,44,71.3
		c-5.6,0.1-9.7-0.2-14.1-2.1c-11.2-4.9-23-8.9-34.5-13.4c-1.4-0.6-3.5-1.6-3.5-2.4c-0.6-15.6-8.2-29.7-16.4-43.6
		c-3.1-5.3-6.7-10.4-10.6-16.3c-9.4,9.5-14.4,19.7-19.4,29.7c-4.8,9.7-9,19.6-9,30.1c0,0.7-1.5,1.8-2.6,2.1
		c-13.2,3.5-25.7,8.4-37.2,14.3c-3,1.5-7.4,1.5-11.2,2.1c-0.3-0.4-0.6-0.7-0.9-1c13.8-22.5,27.5-44.9,41.2-67.3
		c-0.3-0.2-0.7-0.2-1-0.4c-3.2,4.9-6.5,9.8-9.6,14.7c-10,15.7-20.2,31.5-29.8,47.3c-2.7,4.3-3.6,9.2-5.6,13.8
		c-0.8,1.6-1.9,3-3.5,4.3c-10.7,8.3-22.9,15.6-31,25.7c-3.2,4-5.9,8.1-9.7,12c0-3.1-0.2-6.1,0-9.1c0.7-10.5-0.5-21.2,2.9-31.2
		c4.4-13,12-25.5,19.1-38c12.6-22.2,34.7-38.7,60.1-52.9c7.6-4.4,16.5-7.1,25.9-8c-8.5-0.8-16.2,1.1-23.1,4.6
		c-16.4,8.1-31,18.1-43.2,29.7c-18.6,17.5-31.2,37.4-39.3,59c-4.3,11.6-10.5,22.8-15.2,34.3c-8.8,21.5-14.1,43.4-11,66
		c1.1,8.1,2.5,16.4,5.4,24.3c1.9,5.2,6.6,9.7,10,14.5c0.5,0.6,0.8,1.3,1.8,2.9c-2.8-1.4-4.6-2.3-6.2-3.2
		c-10.4-5.8-20.8-11.6-31.2-17.4c-3.5-1.8-5.5-4-5.8-7.6c-3.8-40.6,1.9-80.6,13.5-120.6c6.1-21.1,11.5-42.4,17.6-63.5
		c4.3-14.8,8.4-29.9,21.9-42c9.7-8.5,20.2-16.5,31.3-24c19.1-13.2,41-22.9,66.4-27.7c9.6-1.8,19.7-3.6,29.4-3.3
		c11.1,0.3,22.4,2.3,33.1,4.9c32.4,7.6,57.7,23.4,80.8,41.3c9.1,7,17.2,14.8,21.1,24.2c4.8,11.6,8.8,23.3,12.7,35
		c3.2,9.7,5.9,19.4,8.7,29.1C371,278.8,380.9,322.4,380.3,367.1z M384,371c-2.6-30.9-3.6-61.7-12-92.1
		c-8.4-30.2-16.5-60.4-24.8-90.7c2.6,6.2,5.2,12.4,7.6,18.5c7,18,14.3,35.8,20.7,53.8c9.4,26.3,16.9,53,19,80.4
		C395.3,351.8,389.8,361.4,384,371z"/>
	<path class="st0" fill="$[hairColor]" stroke="#000000" stroke-width="4" d="M336.2,409c1.3-1.9,2.2-4.2,4.1-5.9c8.3-7.6,9-16.9,11-26c5-22.4,2.1-44.7-6.6-66.2
		c-9.2-22.8-18.8-45.6-30.5-67.7c-13.9-26.4-38-47.2-69.3-63.2c-7.3-3.8-15.3-5.9-24.5-4.8c1.8,0.2,3.6,0.4,5.3,0.6
		c8.6,1.1,15.9,4.2,22.8,8c20.6,11.5,38.5,25.1,51.6,41.6c9.5,12.1,15.9,25.1,22.5,38.2c8.4,16.6,6.1,33.6,6.7,51.1
		c-0.8-0.6-1.3-0.9-1.5-1.3c-8-13.7-21.1-24.3-35.5-34.2c-4.4-3-7.5-6.8-8.8-11.2c-2.4-7.2-6.9-14-11.1-20.7
		c-9.9-16-20-31.8-30.2-47.6c-1.5-2.4-3.8-4.6-6.2-7.4c14.9,24.1,29.3,47.5,44,71.3c-5.6,0.2-9.7-0.2-14.1-2.1
		c-11.2-4.8-23-8.9-34.5-13.4c-1.4-0.6-3.5-1.6-3.5-2.4c-0.6-15.6-8.2-29.6-16.4-43.6c-3.1-5.3-6.8-10.4-10.6-16.3
		c-9.4,9.6-14.4,19.8-19.4,29.7c-4.9,9.7-9,19.5-9,30.1c0,0.7-1.5,1.8-2.6,2.1c-13.2,3.5-25.7,8.4-37.2,14.3
		c-3,1.5-7.4,1.4-11.2,2.1c-0.3-0.3-0.6-0.6-0.9-1c13.7-22.4,27.4-44.8,41.2-67.3c-0.3-0.2-0.7-0.2-1-0.4c-3.2,4.9-6.5,9.8-9.6,14.7
		c-10,15.7-20.1,31.5-29.8,47.3c-2.6,4.3-3.6,9.2-5.6,13.8c-0.7,1.6-1.9,3.1-3.5,4.3c-10.7,8.4-22.9,15.7-31,25.7
		c-3.1,3.9-5.9,8-9.7,12c0-3-0.2-6,0-9.1c0.7-10.4-0.5-21.2,2.9-31.2c4.4-13,12.1-25.5,19.1-38c12.6-22.2,34.7-38.6,60.1-52.9
		c7.6-4.3,16.5-7,25.9-8c-8.5-0.8-16.2,1.1-23.1,4.6c-16.4,8.2-30.9,18.2-43.2,29.7c-18.6,17.6-31.3,37.4-39.3,59
		c-4.3,11.6-10.5,22.8-15.2,34.3c-8.7,21.5-14.1,43.4-11,66c0.9,8.2,2.8,16.3,5.4,24.3c1.9,5.1,6.6,9.7,10,14.5
		c0.4,0.6,0.8,1.3,1.8,2.9c-2.8-1.5-4.5-2.3-6.2-3.2c-10.4-5.8-20.8-11.6-31.2-17.4c-3.5-1.9-5.5-4-5.8-7.6
		c-3.8-40.7,1.9-80.7,13.5-120.4c6.2-21.1,11.5-42.4,17.6-63.5c4.3-14.9,8.4-30.1,21.9-42c9.7-8.5,20.2-16.5,31.3-24
		c19.1-13.2,41.1-22.9,66.4-27.7c9.6-1.8,19.7-3.6,29.4-3.3c11.1,0.4,22.4,2.4,33.1,4.9c32.4,7.6,57.7,23.3,80.8,41.3
		c9,7,17.2,14.8,21.1,24.2c4.8,11.5,8.8,23.1,12.7,35c3.2,9.6,5.9,19.4,8.7,29.1c12.3,43.5,22.2,87.1,21.7,131.8
		c-0.1,5.9-1.2,11.8-2.1,17.8c-0.3,1-1.2,2-2.4,2.7c-5.8,3.5-11.7,7-17.7,10.3c-7,3.9-14.1,7.8-21.2,11.7
		C336.7,409.4,336.4,409.2,336.2,409z"/>
	<path class="st0" fill="$[hairColor]" stroke="#000000" stroke-width="4" d="M70.7,282.9v33.7c0.5,0.1,1,0.2,1.4,0.2c4.4-4.9,8.8-9.8,13.2-14.7c0.5,0.1,1,0.2,1.5,0.3
		c-13.3,46.8-4.9,92.6,7.8,138.8c-1.6-1.4-3.1-2.8-4.5-4.3c-9.8-12.3-20.3-24.3-28.9-37c-11.3-16.6-12.7-34.5-11.4-52.8
		C51.5,324.8,60.5,303.8,70.7,282.9z"/>
	<path class="st0" fill="$[hairColor]" stroke="#000000" stroke-width="4" d="M315.9,302.1l13.6,15c2.9-5.7,1.6-11.2,1.8-16.6s0.1-10.9,0.1-16.7c0.4,0.2,0.8,0.4,0.9,0.6
		c10,23.4,19.4,46.8,19.2,71.7c-0.1,15-2.7,29.7-11.5,43.5c-4.9,7.6-11.1,14.6-16.9,21.9c-4.8,5.9-9.9,11.8-14.9,17.7
		c-0.5,0.5-1,1-1.6,1.4c4.4-22.6,10-45.6,13.1-68.7s0.2-46.4-5.4-69.4C314.8,302.4,315.4,302.3,315.9,302.1z"/>
	<path class="st0" fill="$[hairColor]" stroke="#000000" stroke-width="4" d="M52.5,192c-16.7,59.4-36.4,118.4-34,179.7c-0.6,0.1-1.2,0.2-1.8,0.3c-2.5-5.4-5-10.8-7.4-16.2
		c-5.1-11.3-2.3-22.7-0.4-34c6-35,18.3-68.8,31.9-102.4C44.4,210.3,48.6,201.1,52.5,192z"/>
	<path class="st0" fill="$[hairColor]" stroke="#000000" stroke-width="4" d="M347.2,188.2c2.5,6.2,5.1,12.4,7.5,18.6c7,17.8,14.3,35.8,20.7,53.8c9.4,26.4,16.9,53.1,19,80.4
		c0.8,10.8-4.7,20.4-10.5,30.1c-2.6-30.9-3.5-61.8-12-92.1C363.6,248.7,355.5,218.5,347.2,188.2z"/>
</g>
</svg>
