<svg id="Layer_1" data-name="Layer 1" xmlns="http://www.w3.org/2000/svg" viewBox="0 0 500 500"><defs><style>.cls-1{fill-rule:evenodd;}</style></defs><path fill="$[hairColor]" stroke="#000" stroke-width="5" class="cls-1" d="M230.26,207.1s-20.8-12.5-13.72-29.9,49.29-33.65,71.43-12.8S302,202.93,290.44,211,230.26,207.1,230.26,207.1Z"/><path fill="$[hairColor]" stroke="#000" stroke-width="5" class="cls-1" d="M273.17,231.17A273.31,273.31,0,0,1,241,248c-14.31,6.32-34,13.67-44.18,22s-10.81,17.53-11.44,26.78c-1.83-.83-3.66-1.7-5.49-2.53-1.23-12.14-2.49-24.25-.43-37s7.45-26,17.66-35.55,25.22-15.37,38.32-17.43a84.41,84.41,0,0,1,31.5,1.16,45.59,45.59,0,0,1,12.84,4.62c-2.23,7-4.46,14.07-6.65,21.09Z"/><path fill="$[hairColor]" stroke="#000" stroke-width="5" class="cls-1" d="M273.17,231.17c13.27,13,26.58,25.92,33.56,37s7.58,20.36,8.22,29.61c1.83-.93,3.66-1.83,5.49-2.76,1.06-13.14,2.12-26.31.89-37.32A60.49,60.49,0,0,0,312,230.84a46.62,46.62,0,0,0-15.7-15c-5.56-3.13-11-4.43-16.5-5.76-2.23,7-4.46,14.07-6.65,21.09Z"/></svg>