<?xml version="1.0" encoding="utf-8"?>
<!-- Generator: Adobe Illustrator 27.2.0, SVG Export Plug-In . SVG Version: 6.00 Build 0)  -->
<svg version="1.1" id="Layer_2" xmlns="http://www.w3.org/2000/svg" xmlns:xlink="http://www.w3.org/1999/xlink" x="0px" y="0px"
	 viewBox="0 0 400 600" style="enable-background:new 0 0 400 600;" xml:space="preserve">
<g>
	<path fill="$[hairColor]" stroke="#000000" stroke-width="4" d="M84.6,349.3c-2.9-2.7-5.7-5.4-8.7-8c-19.6-16.4-25.8-36.4-20.6-59.4c1.4-6.3,2.3-12.7,4.2-18.8
		c1-2.4,3.1-4.5,5.9-5.6c5.1-1.7,6.9,0.1,7.5,4.8c3.4,26.2,3,52.9,10.4,78.8c0.7,2.6,1.5,5.2,2.3,7.8L84.6,349.3z M78.4,337
		c-9.2-20-9.1-41.4-13.2-62.2h-1.3l-3.3,24.5c-2.5-5.8,0.8-26.7,5.5-30.9c2.5,16,5,31.5,7.4,46.9c0.8-0.5,1-1,1-1.3
		c-1.1-17.2-2.2-34.5-3.4-51.8c-0.1-1-0.7-2.6-1.4-2.8c-1.3-0.3-3.4-0.2-4.2,0.5c-1.7,1.7-3.6,3.6-4.1,5.7
		c-1.3,5.2-1.2,10.8-2.8,15.8c-2.7,8.6-2.2,17-0.8,25.5C59.9,319,67.3,329.8,78.4,337L78.4,337z"/>
	<path fill="$[hairColor]" stroke="#000000" stroke-width="4" d="M78.4,337c-11.2-7.2-18.6-17.9-20.5-30c-1.5-8.5-1.9-17,0.8-25.5c1.6-5.2,1.5-10.6,2.8-15.8
		c0.5-2.1,2.4-4,4.1-5.7c0.8-0.7,2.9-0.9,4.2-0.5c0.7,0.2,1.3,1.8,1.4,2.8c1.2,17.3,2.3,34.5,3.4,51.8c0,0.6-0.4,1.1-1,1.3
		c-2.4-15.5-4.9-30.9-7.4-46.9c-4.7,4.2-8,25-5.5,30.9l3.2-24.5h1.3C69.3,295.5,69.2,316.9,78.4,337z"/>
</g>
<g id="bangs_00000023250335776750174950000005982473110168088984_">
	<path fill="$[hairColor]" stroke="#000000" stroke-width="4" d="M378.1,263.2c-8.6-27.1-18.2-53.9-27.4-80.9c-6.7-20-19.4-38.5-36.9-53.7c-15.5-13.6-32.6-25.6-52.1-35.3
		C249.2,87.2,236.4,82,221,82.5c-12.4,0.4-24.9,0.3-37.3,0c-11.3-0.4-22.6,1.7-32.6,5.9c-16.5,7-31.6,15.8-45,26
		c-10.2,7.7-20.5,15.5-28.9,24.5c-12.5,13.6-20.9,29-27.1,45.3c-15.8,41.1-30.9,82.4-35.8,125.4c-1.2,10.3-2.8,20.8,2.4,30.9
		c2.2,4.5,4.8,8.9,7,13.4c1.6,3,3.8,6.2,4.1,9.3c0.5,4.3,2.6,7,7,9.5c11.5,6.5,22.3,13.7,33.9,20c5.4,3,8.8,6.5,11.7,11
		c6.4,9.9,14.5,19.3,24.2,27.4c1.3,0.9,2.8,1.7,4.2,2.4c-2.7-6.1-5.7-11.5-7.5-17.1c-2-5.8-2.9-11.9-4.3-17.8
		c-0.3-1-0.7-2.7-1.2-4.8c-10.7-44.8-7.3-81-5.7-89.3c2.7-14,5.4-27.9,8.9-41.8c2.2-8.6,5.6-16.9,8.5-25.3c4.5,0.7,8,1.1,11.6,1.8
		c2.8,0.6,5.4,1.4,7.9,2.4c4,1.7,7.7,4.5,12,5.1c18.7,2.8,37.4,4.9,56.9,7.3c1.8-7.8,3.4-14.8,5.3-22.2c1.7,7.9,3.2,14.9,4.7,21.7
		c0.8,0.2,1.5,0.3,2.3,0.3c13.5-1.2,26.9-2.2,40.3-4c7.8-1.1,16.5-2.4,22.9-5.8c7.2-3.9,14.8-4.3,22.6-6.3c0.6,1.7,1.2,3,1.7,4.3
		c8,21.1,13.5,43,16.4,65.1c4.9,37-2.3,67.3-6.4,87.2c-0.4,1.8-0.7,3.2-0.9,4.2c-3.5,12.3-3.1,24.6-12.3,35.1c1.7-0.2,3.4-1,4.5-2
		c8-8.9,16.3-17.6,23.6-26.8c3.7-4.7,7.2-8.9,13.2-12c12.9-7,25.1-14.8,37.5-22.3c0.8-0.7,1.2-1.5,1.3-2.4c0.6-6.9,5.1-12.5,8-18.7
		c3.2-6.9,7.5-14.2,7.6-21.4C388.6,306,384.8,284.4,378.1,263.2z M26.4,351.6l-1.1,0.3c-0.6-1.1-1.3-2.2-2-3.3
		c-9.4-15.3-9.1-31.4-6.2-47.8c6.2-35.8,17.6-70.6,30.7-105c3.6-9.3,7.4-18.5,11.2-27.8C42.8,228.7,24.2,289.1,26.4,351.6z
		 M100.9,422.8l-1.9,0.4c-3.7-4.6-7.8-9.2-11.4-14c-6.8-9.3-14.1-18.5-20.1-28.2c-10.7-17.2-12.3-35.9-11.1-54.8
		c1.3-20.4,9.5-39.5,16.1-58.8c3.7-10.7,7.5-21.3,11.3-32c0.6-1.6,1.3-3.1,2-4.9l20.5,6.6C78.9,298.4,80.5,360.5,100.9,422.8z
		 M304.4,421c-0.8,0.9-1.7,1.5-2.9,1.9c19.3-62.3,21.4-124.3-5.7-185.9l20.8-6.6c4.1,11.6,8.4,22.9,12.1,34.4
		c5.2,16.6,10.6,33.3,14.9,50.1c3.5,14.4,3.4,29.2-0.4,43.4c-2.1,8.2-4.8,16.8-9.7,24.1C324.8,395.7,314.2,408.2,304.4,421z
		 M371,366.3c-0.4,1-1.1,1.8-2.1,2.4c-4.1,2.7-8.3,5.5-12.7,8.1c-8.2,4.9-16.4,9.6-25.5,14c1.8-2.8,3.8-5.5,5.4-8.4
		c2.3-4.1,5.2-8,6.4-12.2c6-21.4,7.2-43,0.9-64.2c-7.3-24-15.8-47.8-24-71.6c-1.1-3.3-1.3-5,3.1-6.5c5.4-1.9,5.6-3.6,4.1-9.9
		c-3.8-15.4-12-29.2-21.8-42.6c-11.4-15.5-24.5-29.8-44.1-39.2c-15.1-7.2-30.8-14-48.5-16.4c-13.2-1.8-26.8-0.6-39,3.6
		c-0.5,0.3-0.9,0.6-1.3,1c6.9-1.2,13.9-2.9,20.9-3.6c13-1.3,25.7-0.5,37.6,4.8c11.3,4.8,23.3,8.6,33.8,14.2
		c20.4,10.8,33.1,27.1,44.8,43.8c7.8,11.2,12.1,23.5,16.1,35.9c0.4,1.7,0.7,3.5,0.8,5.2c-10.6,3.1-21.1,6.2-31.6,9.3
		c-3.4,0.9-6.6,2.3-10,3.2c-3.9,1-6-0.3-7-3.6c-6.1-19.3-14.7-38.2-25.7-56c-1.9-3-4-6-6.3-8.9c5.6,10.5,11.8,20.8,16.6,31.6
		c5.2,11.9,9.1,24.2,13.6,36.3c1,2.7-1.6,3.6-3.7,4.6c-8.4,4.1-17.8,6.1-27.6,6.9c-11.5,0.9-22.9,1.8-34.3,2.6c-1.1,0-2.1,0-3.1-0.2
		c-1.8-13.5-3.8-26.9-5.6-40.4h-0.7l-5.4,40.6c-8.9-0.6-17.2-1-25.6-1.7c-13.1-1.1-26.4-1.7-38.2-7.4c-4-1.9-5.3-3.5-4.3-7.5
		c4.9-19.5,14.2-37.8,24-56c1.7-3.1,3.9-6.2,5.3-9.6c-1.1,1.1-2,2.3-2.8,3.4c-12.2,18.8-21.8,38.7-28.6,59.2
		c-2.3,6.8-4.6,7.7-12.7,4.8c-3.8-1.3-7.5-2.5-11.3-3.7c-7.6-2.7-15.3-5.1-22.8-7.9c-1-0.5-1.8-2.5-1.5-3.6
		c3.7-15.6,10.7-30.5,20.9-44.1c11.7-15.4,24.7-29.9,44.3-39.6c8.4-4.2,17.8-7.3,26.7-11.1c1.3-0.6,2.5-1.3,3.7-2.1
		c-25.2,7-46.8,18.3-62.8,36c-12.4,13.5-22.3,28.1-29.5,43.7c-2.5,5.5-3.8,11.3-5.5,17c-1,3.3,0.4,5.7,4.4,7.1
		c1.6,0.4,3.2,1.2,4.9,1.9c-2.7,7.4-5.5,14.5-8,21.7c-5.2,14.6-10.7,29.2-15.4,44.1c-8.3,26-8.8,52.3-0.3,78.4
		c1.7,5.4,6.4,10,9.7,14.9c0.4,0.6,0.7,1.2,1.6,2.9c-2.7-1.4-4.4-2.3-5.9-3.2c-9.9-5.9-19.9-11.8-29.9-17.7
		c-3.7-2.2-5.4-4.8-5.7-8.6c-3.5-38.1,1.2-75.8,10.5-113.2c5.2-21.1,11.4-42.3,16.5-63.2c2.7-11.4,6.4-22.5,12.5-33.1
		c7.1-12.2,18.4-21.6,30-30.6c18-14,37.2-26.6,60.8-34.1c5.2-1.8,10.6-2.7,16.2-2.9c16.2-0.3,32.5,0,48.7,0
		c12.3,0,22.8,4.6,32.9,9.4c26,12.2,48.6,28.4,66.6,47.8c9.4,10.4,14.7,22.4,18,35.1c7.5,29.6,15.5,59,22.4,88.5
		c6.9,29.1,7.7,58.6,8.1,88.1C373,358,371.8,362.1,371,366.3z M377.4,350.6c-0.1,0.1-0.6,0.2-1.9,0.5
		c1.2-62.8-16.1-123.3-32.9-184.2c2,5.3,4.2,10.6,6.1,15.9c6.3,16.8,12.9,33.5,18.5,50.5c9.5,28.5,17.6,57.3,19.6,86.8
		C387.6,331,382.7,340.9,377.4,350.6z"/>
	<path fill="$[hairColor]" stroke="#000000" stroke-width="4" d="M172.4,123.8c-25.4,7-46.9,18.3-62.8,35.9c-12.3,13.4-22.2,28.1-29.5,43.7c-2.4,5.4-3.8,11.4-5.5,17
		c-1,3.3,0.4,5.7,4.4,7.1c1.6,0.6,3.1,1.2,4.9,1.9c-2.8,7.3-5.4,14.5-8,21.7c-5.2,14.7-10.8,29.4-15.4,44.1
		c-8.2,26.1-8.8,52.4-0.3,78.4c1.7,5.3,6.4,9.9,9.7,14.9c0.3,0.6,0.6,1.1,1.6,2.9c-2.8-1.6-4.4-2.4-5.9-3.2
		c-10-5.9-19.9-11.9-29.9-17.7c-3.8-2.2-5.4-4.7-5.7-8.6c-3.5-38.2,1.2-75.9,10.5-113.3c5.3-21.2,11.4-42.3,16.5-63.6
		c2.8-11.5,6.4-22.6,12.5-33.1c7-12.1,18.4-21.4,30-30.6c17.9-13.9,37.2-26.5,60.8-34.1c5.2-1.7,10.6-2.6,16.2-2.9
		c16.2-0.3,32.4-0.1,48.7,0c12.3,0,22.8,4.6,32.9,9.4c26,12.2,48.5,28.4,66.5,47.8c9.6,10.3,14.9,22.5,18,35.1
		c7.5,29.5,15.5,58.8,22.4,88.5c6.7,29.1,7.6,58.6,8.1,88.1c0.1,4.2-1.1,8.3-2,12.5c-0.4,1-1.1,1.8-2.1,2.4
		c-4.2,2.8-8.4,5.5-12.7,8.1c-8.2,4.9-16.4,9.6-25.5,14c1.8-2.8,3.8-5.5,5.4-8.4c2.3-4,5.2-7.9,6.4-12.2c6-21.2,7.2-42.8,0.9-64.2
		c-7.1-24-15.7-47.7-24-71.6c-1.1-3.1-1.3-5,3.1-6.5c5.4-1.8,5.6-3.6,4.1-9.9c-3.8-15.4-12-29.3-21.8-42.6
		c-11.3-15.5-24.5-29.8-44.1-39.2c-15.2-7.3-30.9-14-48.5-16.4c-13.2-1.8-26.7-0.5-39,3.7c-0.5,0.2-0.9,0.6-1.3,1L172.4,123.8z"/>
	<path fill="$[hairColor]" stroke="#000000" stroke-width="4" d="M172.1,123.9c6.9-1.2,13.9-2.9,20.9-3.6c13.1-1.3,25.7-0.5,37.6,4.8c11.1,4.9,23.3,8.7,33.8,14.2
		c20.3,10.8,33,27.1,44.8,43.8c7.9,11.4,12.1,23.5,16.1,35.9c0.4,1.7,0.6,3.4,0.8,5.2c-10.5,3.1-21.1,6.1-31.6,9.3
		c-3.4,1-6.5,2.4-10,3.2c-4,1.1-6-0.2-7-3.6c-6.1-19.3-14.7-38-25.7-56c-1.9-3-4-6-6.3-8.9c5.6,10.5,11.8,20.9,16.6,31.6
		c5.2,11.9,9.1,24.1,13.6,36.3c1,2.8-1.5,3.6-3.7,4.6c-8.5,4.2-17.8,6.1-27.6,6.9c-11.4,0.9-22.8,1.7-34.3,2.6c-1,0-2-0.1-3.1-0.2
		c-1.9-13.5-3.8-27-5.6-40.4h-0.8l-5.5,40.6c-8.8-0.6-17.2-0.9-25.6-1.7c-13.2-1.1-26.4-1.7-38.2-7.4c-4-1.8-5.3-3.5-4.3-7.5
		c4.9-19.6,14.2-37.9,24-56c1.7-3.1,3.9-6.2,5.3-9.6c-1,1-1.9,2.2-2.8,3.4c-12.1,18.8-21.7,38.7-28.6,59.2
		c-2.2,6.7-4.7,7.7-12.7,4.8c-3.7-1.3-7.5-2.4-11.3-3.7c-7.6-2.5-15.3-5-22.8-7.9c-1-0.4-1.8-2.4-1.5-3.6
		c3.8-15.6,10.9-30.5,21.1-44.1c11.6-15.5,24.7-29.9,44.3-39.6c8.6-4.2,17.8-7.4,26.7-11.1c1.3-0.6,2.5-1.4,3.8-2.1L172.1,123.9z"/>
	<path fill="$[hairColor]" stroke="#000000" stroke-width="4" d="M295.8,237l20.7-6.8c4.1,11.7,8.5,23.2,12.1,34.5c5.3,16.6,10.6,33.3,14.9,50.1c3.5,14.3,3.4,29.1-0.4,43.4
		c-2,8.2-4.9,16.8-9.7,24.1c-8.8,13.2-19.3,25.8-29.1,38.6c-0.7,0.8-1.6,1.6-2.9,1.9C320.8,360.7,323,298.7,295.8,237z"/>
	<path fill="$[hairColor]" stroke="#000000" stroke-width="4" d="M99,423.2c-3.8-4.6-7.9-9.1-11.4-13.9c-6.9-9.3-14.1-18.5-20.1-28.2c-10.7-17.3-12.3-35.8-11.1-54.9
		c1.3-20.4,9.5-39.5,16.1-58.9c3.7-10.7,7.5-21.3,11.3-32c0.6-1.6,1.2-3.1,2-4.9l20.5,6.7c-27.4,61.3-25.7,123.3-5.4,185.7L99,423.2
		z"/>
	<path fill="$[hairColor]" stroke="#000000" stroke-width="4" d="M59,168c-16.1,60.8-34.7,121.1-32.5,183.8l-1.1,0.3c-0.7-1.1-1.4-2.2-2-3.3c-9.4-15.3-9.1-31.5-6.2-47.8
		c6.2-35.8,17.6-70.5,30.7-105C51.3,186.5,55.2,177.3,59,168z"/>
	<path fill="$[hairColor]" stroke="#000000" stroke-width="4" d="M375.5,351.1c1.2-62.9-16.1-123.5-32.7-184.2c2,5.3,4.2,10.6,6.1,15.9c6.2,16.9,12.8,33.6,18.5,50.5
		c9.5,28.5,17.4,57.3,19.6,86.8c0.8,10.9-4.1,20.7-9.4,30.5C377.3,350.9,376.9,350.9,375.5,351.1z"/>
</g>
</svg>
