<?xml version="1.0" encoding="iso-8859-1"?>
<!-- Generator: Adobe Illustrator 23.0.5, SVG Export Plug-In . SVG Version: 6.00 Build 0)  -->
<svg version="1.1" id="Capa_1" xmlns="http://www.w3.org/2000/svg" xmlns:xlink="http://www.w3.org/1999/xlink" x="0px" y="0px"
	 width="400px" height="600px" viewBox="0 0 400 600" style="enable-background:new 0 0 400 600;" xml:space="preserve">
<g>
	<path id="lines"   d="M9.404,245.277c0.509-5.035,0.722-10.12,1.578-15.095
		c3.365-19.564,5.401-39.436,13.149-58.016c3.944-9.458,8.207-18.738,14.029-27.227c0.64-0.933,1.199-1.988,1.514-3.069
		c5.408-18.519,16.124-33.867,28.674-48.121c14.259-16.195,30.502-30.152,48.334-42.232c16.071-10.887,34.027-16.982,53.124-19.884
		c3.23-0.491,6.506-0.681,9.756-1.052c0.617-0.071,1.211-0.341,1.816-0.52c0.491,0,0.983,0,1.474,0
		c8.756,2.028,16.901,5.706,24.633,10.091c3.362,1.907,5.703,2.303,9.144,0.43c2.856-1.555,6.328-2.368,9.607-2.687
		c10.884-1.056,21.656-0.84,32.313,2.484c13.694,4.271,26.379,10.168,37.167,19.819c2.921,2.613,6.133,4.917,9.313,7.224
		c8.076,5.858,14.346,13.321,19.845,21.568c6.219,9.328,12.686,18.49,19.007,27.75c1.799,2.635,3.609,5.279,5.167,8.058
		c12.535,22.357,22.657,45.703,29.793,70.389c5.16,17.852,7.652,35.969,7.967,54.482c0.416,24.458-0.689,48.796-5.576,72.831
		c-0.793,3.899-1.86,7.898-3.662,11.409c-8.378,16.323-19.379,30.587-33.905,42.016c-3.554,2.796-6.694,6.117-10.024,9.197
		c-8.438,7.802-18.095,12.56-29.893,11.963c-0.572-0.029-1.249,0.082-1.695-0.18c-3.029-1.783-5.356-0.137-7.77,1.409
		c-1.789,1.146-3.608,2.278-5.531,3.163c-0.823,0.379-2.402,0.519-2.815,0.047c-0.577-0.658-0.733-2.093-0.462-3.019
		c1.855-6.351,4.455-12.543,5.705-19.001c2.345-12.117,4.39-24.333,5.642-36.602c0.576-5.646-0.925-11.524-1.647-17.276
		c-0.959-7.631-1.748-15.305-3.212-22.844c-1.744-8.981-4.124-17.839-6.232-26.749c-5.283-22.322-15.578-42.65-25.23-63.225
		c-4.095-8.73-9.701-16.485-16.31-23.496c-10.885-11.548-21.717-23.148-32.782-34.522c-2.878-2.958-6.488-5.221-9.847-7.686
		c-2.295-1.684-4.837-2.637-8.073-1.257c-0.122,1.853-0.392,3.95-0.375,6.044c0.112,13.18,0.167,26.363,0.471,39.539
		c0.448,19.485,0.662,38.945-0.261,58.441c-1.382,29.178,0.711,58.246,3.841,87.272c1.799,16.687,2.472,33.479,1.92,50.283
		c-0.026,0.794-0.72,1.567-1.102,2.349c-0.39-0.792-0.89-1.551-1.144-2.384c-0.375-1.23-0.407-2.579-0.875-3.764
		c-8.528-21.583-13.96-43.889-16.657-66.962c-1.833-15.679-4.631-31.244-6.971-46.864c-3.414-22.792-3.743-45.668-1.617-68.584
		c0.323-3.479,1.128-6.97,2.162-10.316c4.314-13.956,7.652-28.285,14.904-41.281c-1.08,1.422-2.206,2.812-3.227,4.275
		c-1.074,1.538-2.011,3.17-3.072,4.718c-6.75,9.854-13.305,19.851-20.338,29.5c-7.415,10.174-12.612,21.417-17.119,33.043
		c-7.894,20.368-16.099,40.628-23.392,61.21c-3.976,11.22-6.499,22.971-9.394,34.553c-2.458,9.836-5.104,19.684-6.6,29.686
		c-2.215,14.811-1.815,29.719,1.055,44.489c0.031,0.161,0.056,0.323,0.101,0.48c0.985,3.447,0.715,3.89-2.757,2.821
		c-6.859-2.113-13.862-4.015-20.325-7.033c-2.88-1.345-5.629-2.454-8.68-2.976c-9.87-1.687-17.225-7.18-22.83-15.204
		c-4.028-5.768-7.66-11.821-11.835-17.476c-5.386-7.294-7.716-15.782-10.489-24.169c-1.037-3.137-2.952-6.014-4.663-8.892
		c-4.704-7.914-7.298-16.588-9.315-25.466c-2.817-12.397-4.618-24.939-5.11-37.657c-0.037-0.963-0.256-1.919-0.391-2.879
		C9.404,250.191,9.404,247.734,9.404,245.277z M302.363,393.99c5.833,0.433,11.107-0.664,16.184-2.855
		c8.516-3.675,15.057-9.724,20.457-17.131c0.497-0.681,1.075-1.303,1.616-1.953c0.134,0.08,0.268,0.159,0.402,0.239
		c-0.268,1.192-0.535,2.384-0.803,3.576c0.836-0.833,1.288-1.78,1.434-2.771c1.558-10.599,3.389-21.171,4.526-31.816
		c2.686-25.141,0.971-50.007-5.368-74.54c-5.448-21.084-13.588-41.16-22.464-60.969c-2.944-6.572-6.017-13.086-9.031-19.627
		c0.444,0.238,0.657,0.585,0.823,0.953c6.93,15.359,14.265,30.55,20.702,46.113c16.843,40.722,21.581,82.906,14.092,126.394
		c-0.83,4.817-1.736,9.62-2.612,14.463c0.267-0.02,0.465,0.026,0.57-0.053c0.522-0.393,1.028-0.808,1.524-1.234
		c12.805-11.025,23.416-23.737,30.284-39.336c0.391-0.887,0.77-2.058,1.504-2.46c1.807-0.99,2.072-2.589,2.294-4.291
		c1.901-14.598,4.576-29.149,5.469-43.808c0.939-15.41,0.665-30.944,0.011-46.386c-0.712-16.837-4.919-33.083-9.85-49.206
		c-6.973-22.799-17.309-44.025-29.217-64.493c-5.409-9.296-12.287-17.738-18.49-26.573c-3.196-4.552-6.204-9.248-9.594-13.65
		c-7.289-9.465-33.199-29.473-44.212-34.15c-13.361-5.675-27.031-9.815-41.876-8.701c-6.572,0.493-12.799,1.664-18.47,5.122
		c-0.963,0.587-2.33,1.052-2.732,1.93c-1.92,4.193-3.572,8.509-5.503,13.23c2.775-0.744,4.917-1.511,7.126-1.878
		c10.214-1.696,20.298-0.861,30.493,0.887c27.887,4.783,53.211,15.372,75.678,32.536c4.699,3.59,8.655,8.168,12.846,12.398
		c0.957,0.966,1.469,2.373,2.001,3.267c-3.983-3.971-7.8-8.469-12.301-12.125c-10.905-8.858-22.834-16.209-35.719-21.846
		c-15.592-6.821-31.822-11.52-48.718-13.845c-10.078-1.387-20.039-1.509-29.856,1.733c-1.543,0.509-2.411,1.24-2.722,2.728
		c-1.135,5.44-2.819,10.837-3.272,16.334c-1.595,19.328-2.784,38.689-4.08,58.041c-0.272,4.067-0.169,4.05,3.608,5.491
		c5.859,2.235,10.702,6.092,15.036,10.409c9.155,9.12,18.038,18.515,26.945,27.88c6.993,7.352,14.049,14.712,18.846,23.772
		c9.457,17.862,18.173,36.124,24.437,55.339c4.248,13.031,7.345,26.479,10.237,39.896c2.064,9.577,3.165,19.386,4.25,29.141
		c0.665,5.979,1.006,12.091,0.553,18.071c-0.523,6.909-2.153,13.73-3.168,20.608c-1.198,8.119-2.874,16.106-5.733,23.823
		c-0.771,2.081-1.35,4.233-2.189,6.897c5.43-2.819,9.714-6.462,14.778-8.589c0.156,0.233,0.312,0.465,0.468,0.698
		C303.221,392.352,302.866,393.03,302.363,393.99z M102.383,391.493c-0.146-1.267-0.212-2.133-0.349-2.987
		c-2.472-15.487-2.744-31.027,0.145-46.434c2.139-11.409,5.24-22.635,7.801-33.967c3.492-15.45,8.708-30.353,14.367-45.099
		c5.07-13.212,10.597-26.247,15.749-39.428c5.231-13.384,11.076-26.362,19.878-37.921c7.876-10.345,15.265-21.066,22.683-31.751
		c2.831-4.077,5.574-8.06,10.246-10.268c0.613-0.29,1.182-1.341,1.222-2.07c0.441-8.09,0.561-16.203,1.183-24.278
		c1.13-14.68,2.352-29.359,3.937-43.995c0.537-4.957,2.284-9.782,3.482-14.683c-0.099-0.049-0.236-0.153-0.387-0.184
		c-19.013-3.939-37.968-3.458-57.031,0.041c-12.015,2.205-22.332,7.636-32.166,14.439c-4.578,3.167-9.244,6.207-13.878,9.293
		c-20.334,13.544-38.141,29.578-50.672,50.912c-5.551,9.45-11.777,18.525-16.942,28.175c-8.394,15.683-12.102,32.856-15.32,50.251
		c-3.827,20.69-5.772,41.312-2.581,62.235c1.841,12.068,3.882,24.085,8.404,35.505c1.144,2.89,2.635,5.642,3.967,8.458
		c-1.272-10.429-2.34-20.716-1.923-31.106c0.82,4.772,1.28,9.575,1.862,14.363c2.316,19.065,5.989,37.631,17.556,53.753
		c4.681,6.525,9.109,13.203,14.757,18.95c4.04,4.111,9.227,6.129,15.143,8.397c-5.238-9.716-7.866-19.461-8.527-29.557
		c-1.656-25.314,0.607-50.373,6.24-75.099c1.305-5.726,3.238-11.308,4.882-16.957c-1.003,5.815-2.501,11.485-3.891,17.181
		c-3.821,15.659-4.919,31.672-6.189,47.668c-1.468,18.499-0.438,36.64,7.012,53.979c1.105,2.572,2.256,3.444,5.163,3.521
		c1.162,0.031,2.478,0.306,3.437,0.92C87.905,387.753,95.084,389.129,102.383,391.493z M192.168,146.899
		c-0.202-0.087-0.405-0.174-0.607-0.261c-1.478,2.577-3.1,5.083-4.411,7.743c-5.784,11.74-8.877,24.421-12.663,36.853
		c-0.949,3.117-1.693,6.36-2.01,9.596c-2.274,23.241-1.805,46.427,1.682,69.539c2.453,16.261,5.12,32.497,7.177,48.81
		c2.5,19.824,7.283,39.036,13.994,57.811c0.268,0.749,0.631,1.464,0.95,2.194c0.55-3.685,0.767-7.204,0.514-10.69
		c-1.371-18.851-2.906-37.691-4.294-56.541c-1.323-17.97-2.259-35.965-1.432-53.983c0.999-21.762,1.548-43.509,0.813-65.3
		c-0.458-13.57-0.124-27.168-0.105-40.753C191.781,150.244,192.032,148.572,192.168,146.899z M209.051,43.534
		c-3.863-3.196-18.497-9.844-23.961-10.017c-5.923-0.188-11.928,0.18-17.807,0.975c-17.756,2.402-34.418,8.197-49.289,18.241
		C99.341,65.33,82.369,79.962,67.53,96.962c-9.867,11.304-17.962,23.738-23.726,37.634c-0.352,0.848-0.667,1.711-0.999,2.567
		c1.705-1.698,3.037-3.553,4.244-5.486c10.4-16.656,23.401-30.898,39.415-42.303c9.197-6.55,18.538-12.899,27.767-19.405
		c9.539-6.724,19.721-11.769,31.437-13.576c18.703-2.885,37.353-4.812,55.953,0.502c1.535,0.438,2.167,0.023,2.704-1.425
		C205.787,51.526,207.411,47.641,209.051,43.534z"/>
	<g fill="$[hairColor]" id="hair">
		<path d="M383.975,236.497c-0.712-16.837-4.919-33.083-9.85-49.206
			c-6.973-22.799-17.309-44.025-29.217-64.493c-5.409-9.296-12.287-17.738-18.49-26.573c-3.196-4.552-6.204-9.248-9.594-13.649
			c-7.289-9.465-33.199-29.473-44.212-34.15c-13.361-5.675-27.031-9.815-41.876-8.701c-6.572,0.493-12.799,1.664-18.47,5.122
			c-0.963,0.587-2.33,1.052-2.732,1.93c-1.92,4.193-3.572,8.509-5.503,13.23c2.775-0.744,4.917-1.511,7.126-1.878
			c10.214-1.696,20.298-0.861,30.493,0.887c27.887,4.783,53.211,15.372,75.678,32.536c4.699,3.59,8.655,8.168,12.846,12.398
			c0.957,0.966,1.469,2.374,2.001,3.267c-3.983-3.971-7.8-8.469-12.301-12.125c-10.905-8.858-22.834-16.209-35.719-21.846
			c-15.592-6.821-31.822-11.52-48.718-13.845c-10.078-1.387-20.039-1.509-29.856,1.733c-1.543,0.509-2.411,1.24-2.722,2.728
			c-1.135,5.44-2.819,10.837-3.272,16.334c-1.595,19.328-2.784,38.689-4.08,58.041c-0.272,4.067-0.169,4.05,3.608,5.491
			c5.859,2.235,10.702,6.092,15.036,10.409c9.155,9.12,18.038,18.515,26.945,27.88c6.993,7.352,14.049,14.712,18.846,23.772
			c9.457,17.862,18.173,36.124,24.437,55.339c4.248,13.031,7.345,26.479,10.237,39.896c2.064,9.577,3.165,19.386,4.25,29.141
			c0.665,5.979,1.006,12.091,0.553,18.071c-0.523,6.909-2.153,13.73-3.168,20.608c-1.198,8.119-2.874,16.106-5.733,23.823
			c-0.771,2.081-1.35,4.233-2.189,6.897c5.43-2.819,9.714-6.462,14.778-8.589c0.156,0.233,0.312,0.465,0.468,0.698
			c-0.355,0.678-0.711,1.356-1.214,2.315c5.833,0.433,11.107-0.664,16.184-2.855c8.516-3.675,15.057-9.724,20.457-17.131
			c0.497-0.681,1.075-1.303,1.616-1.953c0.134,0.08,0.268,0.159,0.402,0.239c-0.268,1.192-0.535,2.384-0.803,3.576
			c0.836-0.833,1.288-1.78,1.434-2.771c1.558-10.599,3.389-21.171,4.526-31.816c2.686-25.141,0.971-50.007-5.369-74.54
			c-5.448-21.084-13.588-41.16-22.464-60.969c-2.944-6.572-6.017-13.086-9.031-19.627c0.444,0.238,0.657,0.585,0.823,0.953
			c6.93,15.359,14.265,30.55,20.702,46.113c16.843,40.722,21.581,82.906,14.092,126.394c-0.83,4.817-1.736,9.62-2.612,14.463
			c0.267-0.02,0.465,0.026,0.57-0.053c0.522-0.393,1.029-0.808,1.524-1.234c12.805-11.025,23.416-23.737,30.284-39.336
			c0.391-0.887,0.77-2.058,1.504-2.46c1.807-0.99,2.072-2.589,2.294-4.291c1.901-14.598,4.576-29.149,5.469-43.808
			C384.902,267.473,384.628,251.938,383.975,236.497z"/>
		<path d="M192.904,143.638c0.613-0.289,1.182-1.341,1.222-2.07c0.441-8.09,0.561-16.203,1.183-24.278
			c1.13-14.68,2.352-29.359,3.937-43.995c0.537-4.957,2.284-9.782,3.482-14.683c-0.099-0.049-0.236-0.153-0.387-0.184
			c-19.013-3.939-37.968-3.458-57.031,0.041c-12.015,2.205-22.331,7.636-32.166,14.44c-4.578,3.167-9.244,6.207-13.878,9.293
			c-20.334,13.544-38.141,29.578-50.673,50.912c-5.551,9.45-11.777,18.525-16.942,28.175c-8.394,15.683-12.102,32.856-15.32,50.251
			c-3.827,20.69-5.772,41.312-2.581,62.235c1.841,12.068,3.882,24.085,8.404,35.505c1.144,2.89,2.635,5.642,3.967,8.458
			c-1.272-10.429-2.34-20.716-1.923-31.106c0.82,4.772,1.28,9.575,1.862,14.363c2.316,19.065,5.989,37.631,17.556,53.753
			c4.681,6.525,9.109,13.203,14.757,18.95c4.04,4.111,9.227,6.128,15.143,8.397c-5.238-9.716-7.866-19.461-8.527-29.557
			c-1.656-25.314,0.607-50.373,6.24-75.099c1.305-5.726,3.238-11.308,4.882-16.957c-1.003,5.815-2.501,11.485-3.891,17.181
			c-3.82,15.659-4.919,31.672-6.189,47.668c-1.468,18.499-0.438,36.64,7.012,53.979c1.105,2.572,2.256,3.444,5.163,3.521
			c1.162,0.031,2.478,0.307,3.437,0.92c6.259,4.003,13.438,5.38,20.737,7.744c-0.146-1.268-0.212-2.133-0.349-2.987
			c-2.472-15.487-2.744-31.027,0.145-46.434c2.139-11.409,5.24-22.635,7.801-33.967c3.492-15.45,8.708-30.353,14.367-45.099
			c5.07-13.212,10.597-26.247,15.749-39.428c5.231-13.384,11.076-26.362,19.878-37.921c7.876-10.345,15.265-21.066,22.683-31.751
			C185.488,149.829,188.231,145.846,192.904,143.638z"/>
		<path d="M192.502,311.953c-1.323-17.97-2.259-35.965-1.432-53.983c0.999-21.762,1.548-43.509,0.813-65.3
			c-0.458-13.57-0.124-27.168-0.105-40.753c0.002-1.673,0.254-3.345,0.39-5.018c-0.202-0.087-0.405-0.174-0.607-0.261
			c-1.478,2.577-3.1,5.083-4.411,7.743c-5.784,11.74-8.877,24.421-12.663,36.853c-0.949,3.117-1.693,6.36-2.01,9.596
			c-2.274,23.241-1.805,46.427,1.682,69.539c2.453,16.261,5.12,32.497,7.177,48.81c2.5,19.824,7.283,39.036,13.994,57.811
			c0.268,0.749,0.631,1.464,0.95,2.194c0.55-3.685,0.767-7.204,0.514-10.69C195.424,349.642,193.889,330.803,192.502,311.953z"/>
		<path d="M86.463,89.375c9.197-6.55,18.538-12.899,27.767-19.405c9.539-6.724,19.721-11.769,31.437-13.576
			c18.703-2.885,37.353-4.812,55.953,0.502c1.535,0.438,2.167,0.023,2.704-1.425c1.463-3.945,3.087-7.83,4.727-11.937
			c-3.863-3.196-18.497-9.844-23.961-10.017c-5.923-0.188-11.928,0.18-17.807,0.975c-17.756,2.402-34.418,8.197-49.289,18.241
			C99.341,65.33,82.369,79.962,67.53,96.962c-9.867,11.304-17.962,23.738-23.726,37.634c-0.352,0.848-0.667,1.711-0.999,2.567
			c1.705-1.698,3.037-3.553,4.244-5.486C57.448,115.022,70.449,100.78,86.463,89.375z"/>
	</g>
</g>
</svg>
