<?xml version="1.0" encoding="utf-8"?>
<!-- Generator: Adobe Illustrator 27.2.0, SVG Export Plug-In . SVG Version: 6.00 Build 0)  -->
<svg version="1.1" id="Capa_1" xmlns="http://www.w3.org/2000/svg" xmlns:xlink="http://www.w3.org/1999/xlink" x="0px" y="0px"
	 viewBox="0 0 400 600" style="enable-background:new 0 0 400 600;" xml:space="preserve">
<g>
	<path fill="$[hairColor]" stroke="#000000" stroke-width="4" d="M91.1,414.3c-16.9-8.5-24.3-22.7-30.7-36.4c-8.3-17.7-13.7-36.2-20.5-54.3c-2.5-6.7-5.1-13.4-8.3-19.9
		c-5.7-11.4-7.9-23.6-6.4-35.5c3.3-25.3,5.8-50.8,10.8-75.8c7.7-38.5,25.5-72.8,59.7-99.6c18.8-14.7,40.4-24.6,67.2-25.9
		c19.6-0.9,39.5-1.7,59.2-0.6c26,1.5,49.8,10.3,70.9,24.2c9.3,6.2,15.7,14.1,20.8,22.9c1.1,2.2,3,4.1,5.2,5.6
		c13.9,7.7,23.8,18.2,30.8,30.4c10.1,17.4,17,35.8,20.5,54.5c3.4,17.9,6.1,35.5,4.2,53.2c0,0.9,0.1,1.8,0.3,2.8l-9.2,49.9l-9.8,21.9
		c-0.2,0.4-0.2,1-0.6,1.3c-10.3,8.9-11.1,21.1-13.7,32.6c-4.4,19.6-13.1,38.1-25.6,54.7c-4.5,5.9-10.5,10.9-15.8,16.3l-1.8-1
		c0.3-0.8,0.4-2,1-2.4c8.7-5.9,11-14.8,12.7-23.3c7-35.6,15.2-71.1,16.5-107.7c1.3-33.1-6.1-66.5-21.6-98.1c-1.4-3-3.4-5.8-5.5-9.2
		c-1.2,0.9-2.3,1.9-3.3,2.9c-6.8,8.4-13.9,16.7-20.3,25.4c-13.9,19-35,30.6-60.1,37.5c-18,4.9-36.5,0.8-54.5-4.8
		c-9.1-2.9-18.4-5.4-27.4-8.5c-15.5-5.2-30.1-2.4-45-0.6c-4.1,0.5-8,1.8-12,2.4c-3,0.3-6.1,0.4-9.2,0.4
		c-7.3,15.8-11.2,33.1-9.6,51.4c1.3,15,2.7,30,4.2,45c2.2,21.6,12.1,41.5,25.1,60.8c1.5,2.3,1.8,5.1,2.6,7.6L91.1,414.3z
		 M75.7,247.9c6.9-1.6,13.4-2.9,19.7-4.7c9.3-2.6,18.8-3.3,28.6-0.9c9,2.2,17.6,5.2,26.5,7.6c14.2,3.8,28.5,9.2,42.9,10.4
		c33.7,2.8,58-11.2,76.8-31.5c12.1-13,21.3-27.9,32.8-41.3c11.9-14,14.7-29.9,13.8-47c-0.4-6.8,0.2-14-2.8-20.1
		c-3.7-8-9.3-15.4-16.4-21.8c-20.3-17.8-46.2-26.3-74.1-29.7c-22.1-2.7-43.8-1.6-65.5,0.8c-18.6,2.1-35.8,8.4-49.9,18.1
		C65.9,116.2,45.8,155,38,199.5c-4.1,23.6-7.4,47.4-10.6,71.1c-1,8,0.4,16.2,4.3,23.9C30,266,42.4,240,45.2,212.3
		c-0.8,13.3-2.6,26.5-5.3,39.6c-3.6,17.2-7.7,34.4-2.3,52.3c6,19.9,12.3,39.8,19.2,59.5c4.8,13.6,12.5,26.6,22.8,38.3
		c1.7,2,3.9,3.8,6.2,6.1c0.3-1,0.5-1.3,0.4-1.5c-0.5-0.9-1-1.7-1.6-2.6c-13.7-19.5-22-40-23.7-61.9c-0.9-11.5-1.8-23.1-3.1-34.6
		c-2.3-19,0.7-37.9,8.8-55.2c2.3-4.7,3.1-9.9,2.2-15.1c-4-24,4.6-44.5,23.1-61.8c16.2-15.2,37.3-24.6,59.5-32.7
		c13.9-5.1,28.3-9.5,43.9-10.7c7.6-0.6,15.3-0.6,22.5,3.1c-15.1-3-29.3-1.2-43.2,2.5c-23.2,6.1-44.8,15.3-64.1,27.1
		c-14,8.3-25.2,19.3-32.9,32.1C67.9,212.7,68,229.7,75.7,247.9z M351.4,226.8l2.7,0.2c2.5,36.2,3.6,72.3-4,107.9
		c3.1-3.7,6.3-7.3,7.4-11.5c3.7-13.8,6.9-27.6,9.7-41.6c5-24.8,6.5-49.6,0.3-75.5c-4.3-18.2-10.3-35.7-19.5-52.8
		c-6.3-11.7-16-21.2-27.1-30c-0.5-0.4-1.3-0.4-2.4-0.6c0.3,7,0.7,13.8,0.8,20.5c0.2,14.1,0.5,28.4-9.8,39.9c-6.2,7-4.9,13-0.5,21.4
		c18.9,36.2,25.5,73.8,21.1,111.6c-3.5,30.2-9.2,60.1-14,90.1c-0.6,3.4-1.6,6.8-2.4,10.2l1.7,0.7c4.1-7.1,8.6-14,12.2-21.2
		c10.8-21.6,14-45.2,19.5-68.2c6.1-25.7,6.1-52.2,4.8-78.8C351.7,241.4,351.6,234.1,351.4,226.8z"/>
	<path fill="$[hairColor]" stroke="#000000" stroke-width="4" d="M75.7,247.9c-7.7-18.2-7.7-35.1,1.8-51.2c7.7-12.8,18.9-23.8,32.9-32.1c19.3-11.8,40.9-20.9,64.1-27.1
		c13.9-3.6,28.1-5.4,43.2-2.5c-7.2-3.6-14.8-3.7-22.5-3.1c-15.7,1.2-30,5.5-43.9,10.7c-22.2,8.2-43.2,17.6-59.5,32.7
		c-18.5,17.3-27,37.8-23.1,61.8c0.9,5.2,0.2,10.4-2.2,15.1c-8.1,17.3-11.1,36.2-8.8,55.2c1.3,11.5,2.3,23.1,3.1,34.6
		c1.7,21.9,9.9,42.5,23.7,62c0.6,0.8,1.1,1.7,1.6,2.6c0.1,0.2-0.1,0.5-0.4,1.5c-2.3-2.2-4.4-4-6.2-6.1
		c-10.2-11.7-17.9-24.7-22.7-38.3c-6.9-19.7-13.2-39.6-19.2-59.5c-5.4-17.9-1.3-35.1,2.3-52.3c2.7-13,4.5-26.2,5.3-39.6
		C42.4,240,30.1,266,31.7,294.5c-3.9-7.7-5.3-15.9-4.3-23.9c3.2-23.8,6.5-47.5,10.6-71.1c7.8-44.5,27.9-83.3,70-111.7
		c14-9.7,31.3-16,49.8-18.1c21.6-2.5,43.4-3.5,65.4-0.8c28,3.4,53.8,11.9,74.1,29.7c7.1,6.4,12.7,13.8,16.4,21.8
		c2.9,6.2,2.4,13.4,2.8,20.1c0.9,17-1.9,33-13.8,47c-11.4,13.5-20.7,28.3-32.8,41.3c-18.7,20.2-43.1,34.2-76.8,31.5
		c-14.4-1.2-28.6-6.7-42.9-10.4c-8.9-2.3-17.6-5.3-26.5-7.6c-9.8-2.5-19.3-1.8-28.6,0.9C89.1,245,82.6,246.3,75.7,247.9z"/>
	<path fill="$[hairColor]" stroke="#000000" stroke-width="4" d="M351.4,226.8c0.2,7.3,0.3,14.7,0.6,22c1.3,26.6,1.3,53.1-4.8,78.8c-5.5,23-8.6,46.6-19.5,68.2
		c-3.7,7.2-8.1,14.2-12.2,21.2l-1.7-0.7c0.8-3.4,1.8-6.7,2.4-10.2c4.8-30,10.5-59.9,14-90.1c4.3-37.8-2.2-75.4-21.1-111.6
		c-4.3-8.4-5.7-14.4,0.5-21.4c10.3-11.6,10-25.9,9.8-39.9c-0.1-6.7-0.5-13.4-0.8-20.5c1.1,0.3,1.9,0.3,2.4,0.6
		c11.1,8.7,20.8,18.3,27.1,30c9.2,17.1,15.2,34.5,19.5,52.8c6.1,25.9,4.8,50.7-0.3,75.5c-2.8,14-6.1,27.8-9.7,41.6
		c-1.1,4.2-4.3,7.8-7.4,11.5c7.7-35.6,6.6-71.7,4-107.9L351.4,226.8z"/>
</g>
</svg>
