<?xml version="1.0" encoding="UTF-8"?><svg id="Fronts" xmlns="http://www.w3.org/2000/svg" viewBox="0 0 400 600"><path fill="$[hairColor]" stroke="#000" stroke-width="5" d="M9.03,228.12c-.75,4.17-2.49,16.37,0,19.42,2.48,3.06,4.22,3.33,2.48,12.21-1.74,8.87,.99,4.99,9.68,8.87,8.69,3.88,.38,4.86,.62,12.62,.12,3.83,12.29,2.08,10.18,21.5-.55,5.08,11.36,12.53,15.7,15.07,.73,.43,1.61-.09,1.71-1.01,.52-4.97,2.17-17.5,2.17-18.89,0-2.16,.01-4.29,.03-6.4,3.48-.59,6.41-.11,7.58-3.6,3.6-10.7,16.39-4.03,12.53-10.36-2.14-3.53,10.28-3.31,4.85-15.89-2.98-6.9,5.21-1.15,9.68-4.14,4.47-2.99,7.7-11.41,14.27-7.26,8.63,5.44,5.93-7.69,18.5-13.12,7.45-3.23,2.39-15.26,9.56-12.43,7.32,2.87,9.68-7.72,14.65-9.33,4.96-1.62,9.68-.93,12.16-7.37,2.49-6.45-2.84-14.39,10.18-9.55,9.93,3.69,1.37-8.64,14.78-8.64,7.21,0,18.67,2.5,24.7-3.91,5.83-6.22,14.7-1.37,16.88-2.66,4.72-2.76,15.27-20.38,15.27-20.38,0,0,7.17,15.16,14.9,12.43,7.2-2.52,5.36,11.65,12.41,11.75,16.88,.22,6.52,13.03,12.17,10.47,9.68-4.37,10.56,6.26,12.53,6.79,5.86,1.62,10.06-5.52,10.31,2.08,.25,7.6-2.77,12.69,2.98,11.98,8.31-1.04,5.09,15.43,9.93,15.65,5.02,.25,.99,11.52,5.46,17.96,4.47,6.45,7.2,8.05,7.45,16.12,.25,8.05-1.49,11.51,6.95,15.19s6.21,4.14,8.94,8.75c1.62,2.75,2.08,4.57,5.83,4.22,.01,1.11,.37,.25,.37,1.37,0,1.66-1.98,4.54-1.99,6.21,0,0-.21,10.21,2.33,8.39,13.16-9.43,10.02,7.07,10.09,2.28,.25-16.63,13.04-16.13,13.16-19.97,.25-7.76-2.73-10.69,5.95-14.57,8.69-3.89,4.72-12.21,2.98-21.08-1.73-8.88,7.94-8.3,10.43-11.36,2.48-3.05-2.74-16.5-3.48-20.67-.75-4.16,1.49-10.67,3.48-17.61,1.98-6.93,1.49-8.32,1.49-8.32,0,0-1.99-9.43-5.47-14.97-3.47-5.55-2.73-8.04-1.49-15.54,1.25-7.49-.99-6.66-5.46-11.64-4.47-4.99-2.73-9.44-4.47-14.42-1.73-4.99,3.48-10.83-4.96-16.09-8.44-5.27-4.97-5.27-4.97-7.78s0-4.16-3.97-8.31c-3.97-4.17-3.23-7.5-3.97-12.21-.75-4.71-2.24-3.05-8.94-5.54-6.7-2.5-8.19-6.94-9.43-13.32-1.25-6.38-5.47-3.89-11.43-5.55-5.95-1.66-6.45-1.66-7.44-4.99-1-3.33-3.73-4.98-7.45-5.54-3.73-.56-3.97-1.11-5.96-4.99-1.99-3.89-2.23-5.82-11.42-6.1-9.19-.28-13.9-2.5-16.88-4.99-2.98-2.5-8.45-4.17-15.89-3.89-7.45,.28-20.11-1.39-26.82-2.77-6.7-1.39-6.7-3.89-16.88-6.1-10.18-2.22-7.94,1.11-15.89,2.77l-1.93,1.65-4.03-1.65c-7.94-1.66-5.71-4.99-15.89-2.77-10.18,2.21-10.18,4.71-16.88,6.1s-19.37,3.05-26.81,2.77c-7.45-.28-12.91,1.39-15.89,3.89-2.98,2.49-7.7,4.71-16.89,4.99-9.18,.28-9.43,2.21-11.42,6.1-1.98,3.89-2.23,4.44-5.96,4.99-3.72,.56-6.45,2.21-7.44,5.54-1,3.33-1.49,3.33-7.45,4.99-5.96,1.66-10.18-.83-11.42,5.55-1.24,6.38-2.73,10.81-9.44,13.32-6.7,2.49-8.19,.83-8.94,5.54-.74,4.71,0,8.04-3.97,12.21-3.97,4.16-3.97,5.82-3.97,8.31s3.48,2.5-4.97,7.78c-8.44,5.26-3.22,11.09-4.96,16.09-1.74,4.98,0,9.43-4.47,14.42-4.47,4.98-6.7,4.16-5.46,11.64,1.24,7.5,1.98,9.99-1.49,15.54-3.48,5.54-5.46,14.97-5.46,14.97,0,0-.5,1.4,1.49,8.32,1.98,6.94,.74,14.7,0,18.86Z"/></svg>