<?xml version="1.0" encoding="utf-8"?>
<!-- Generator: Adobe Illustrator 27.2.0, SVG Export Plug-In . SVG Version: 6.00 Build 0)  -->
<svg version="1.1" id="Capa_1" xmlns="http://www.w3.org/2000/svg" xmlns:xlink="http://www.w3.org/1999/xlink" x="0px" y="0px"
	 viewBox="0 0 400 600" style="enable-background:new 0 0 400 600;" xml:space="preserve">
<g>
	<path fill="$[hairColor]" stroke="#000000" stroke-width="4" d="M9.4,262.8c0.5-4.5,0.7-9,1.6-13.4c3.4-17.4,5.4-35,13.1-51.5c3.9-8.4,8.2-16.6,14-24.2
		c0.6-0.8,1.2-1.8,1.5-2.7c5.4-16.4,16.1-30.1,28.7-42.7c14.3-14.4,30.5-26.8,48.3-37.5c16.1-9.7,34-15.1,53.1-17.7
		c3.2-0.4,6.5-0.6,9.8-0.9c0.6-0.1,1.2-0.3,1.8-0.5c0.5,0,1,0,1.5,0c8.8,1.8,16.9,5.1,24.6,9c3.4,1.7,5.7,2,9.1,0.4
		c2.9-1.4,6.3-2.1,9.6-2.4c10.9-0.9,21.7-0.7,32.3,2.2c13.7,3.8,26.4,9,37.2,17.6c2.9,2.3,6.1,4.4,9.3,6.4
		c8.1,5.2,14.3,11.8,19.8,19.1c6.2,8.3,12.7,16.4,19,24.6c1.8,2.3,3.6,4.7,5.2,7.2c12.5,19.8,22.7,40.6,29.8,62.5
		c5.2,15.8,7.7,31.9,8,48.4c0.4,21.7-0.7,43.3-5.6,64.7c-0.8,3.5-1.9,7-3.7,10.1c-8.4,14.5-19.4,27.2-33.9,37.3
		c-3.6,2.5-6.7,5.4-10,8.2c-8.4,6.9-18.1,11.2-29.9,10.6c-0.6,0-1.2,0.1-1.7-0.2c-3-1.6-5.4-0.1-7.8,1.3c-1.8,1-3.6,2-5.5,2.8
		c-0.8,0.3-2.4,0.5-2.8,0c-0.6-0.6-0.7-1.9-0.5-2.7c1.9-5.6,4.5-11.1,5.7-16.9c2.3-10.8,4.4-21.6,5.6-32.5c0.6-5-0.9-10.2-1.6-15.3
		c-1-6.8-1.7-13.6-3.2-20.3c-1.7-8-4.1-15.8-6.2-23.7c-5.3-19.8-15.6-37.9-25.2-56.1c-4.1-7.8-9.7-14.6-16.3-20.9
		c-10.9-10.3-21.7-20.6-32.8-30.7c-2.9-2.6-6.5-4.6-9.8-6.8c-2.3-1.5-4.8-2.3-8.1-1.1c-0.1,1.6-0.4,3.5-0.4,5.4
		c0.1,11.7,0.2,23.4,0.5,35.1c0.4,17.3,0.7,34.6-0.3,51.9c-1.4,25.9,0.7,51.7,3.8,77.5c1.8,14.8,2.5,29.7,1.9,44.6
		c0,0.7-0.7,1.4-1.1,2.1c-0.4-0.7-0.9-1.4-1.1-2.1c-0.4-1.1-0.4-2.3-0.9-3.3c-8.5-19.2-14-39-16.7-59.5c-1.8-13.9-4.6-27.7-7-41.6
		c-3.4-20.2-3.7-40.5-1.6-60.9c0.3-3.1,1.1-6.2,2.2-9.2c4.3-12.4,7.7-25.1,14.9-36.7c-1.1,1.3-2.2,2.5-3.2,3.8
		c-1.1,1.4-2,2.8-3.1,4.2c-6.8,8.7-13.3,17.6-20.3,26.2c-7.4,9-12.6,19-17.1,29.3c-7.9,18.1-16.1,36.1-23.4,54.3
		c-4,10-6.5,20.4-9.4,30.7c-2.5,8.7-5.1,17.5-6.6,26.4c-2.2,13.1-1.8,26.4,1.1,39.5c0,0.1,0.1,0.3,0.1,0.4c1,3.1,0.7,3.5-2.8,2.5
		c-6.9-1.9-13.9-3.6-20.3-6.2c-2.9-1.2-5.6-2.2-8.7-2.6c-9.9-1.5-17.2-6.4-22.8-13.5c-4-5.1-7.7-10.5-11.8-15.5
		c-5.4-6.5-7.7-14-10.5-21.5c-1-2.8-3-5.3-4.7-7.9c-4.7-7-7.3-14.7-9.3-22.6c-2.8-11-4.6-22.1-5.1-33.4c0-0.9-0.3-1.7-0.4-2.6
		C9.4,267.2,9.4,265,9.4,262.8z M302.4,394.9c5.8,0.4,11.1-0.6,16.2-2.5c8.5-3.3,15.1-8.6,20.5-15.2c0.5-0.6,1.1-1.2,1.6-1.7
		c0.1,0.1,0.3,0.1,0.4,0.2c-0.3,1.1-0.5,2.1-0.8,3.2c0.8-0.7,1.3-1.6,1.4-2.5c1.6-9.4,3.4-18.8,4.5-28.2c2.7-22.3,1-44.4-5.4-66.2
		c-5.4-18.7-13.6-36.5-22.5-54.1c-2.9-5.8-6-11.6-9-17.4c0.4,0.2,0.7,0.5,0.8,0.8c6.9,13.6,14.3,27.1,20.7,40.9
		c16.8,36.2,21.6,73.6,14.1,112.2c-0.8,4.3-1.7,8.5-2.6,12.8c0.3,0,0.5,0,0.6,0c0.5-0.3,1-0.7,1.5-1.1c12.8-9.8,23.4-21.1,30.3-34.9
		c0.4-0.8,0.8-1.8,1.5-2.2c1.8-0.9,2.1-2.3,2.3-3.8c1.9-13,4.6-25.9,5.5-38.9c0.9-13.7,0.7-27.5,0-41.2c-0.7-14.9-4.9-29.4-9.9-43.7
		c-7-20.2-17.3-39.1-29.2-57.3c-5.4-8.3-12.3-15.7-18.5-23.6c-3.2-4-6.2-8.2-9.6-12.1c-7.3-8.4-33.2-26.2-44.2-30.3
		c-13.4-5-27-8.7-41.9-7.7c-6.6,0.4-12.8,1.5-18.5,4.5c-1,0.5-2.3,0.9-2.7,1.7c-1.9,3.7-3.6,7.6-5.5,11.7c2.8-0.7,4.9-1.3,7.1-1.7
		c10.2-1.5,20.3-0.8,30.5,0.8c27.9,4.2,53.2,13.6,75.7,28.9c4.7,3.2,8.7,7.3,12.8,11c1,0.9,1.5,2.1,2,2.9c-4-3.5-7.8-7.5-12.3-10.8
		c-10.9-7.9-22.8-14.4-35.7-19.4c-15.6-6.1-31.8-10.2-48.7-12.3c-10.1-1.2-20-1.3-29.9,1.5c-1.5,0.5-2.4,1.1-2.7,2.4
		c-1.1,4.8-2.8,9.6-3.3,14.5c-1.6,17.2-2.8,34.4-4.1,51.5c-0.3,3.6-0.2,3.6,3.6,4.9c5.9,2,10.7,5.4,15,9.2
		c9.2,8.1,18,16.4,26.9,24.8c7,6.5,14,13.1,18.8,21.1c9.5,15.9,18.2,32.1,24.4,49.1c4.2,11.6,7.3,23.5,10.2,35.4
		c2.1,8.5,3.2,17.2,4.2,25.9c0.7,5.3,1,10.7,0.6,16c-0.5,6.1-2.2,12.2-3.2,18.3c-1.2,7.2-2.9,14.3-5.7,21.2
		c-0.8,1.8-1.4,3.8-2.2,6.1c5.4-2.5,9.7-5.7,14.8-7.6c0.2,0.2,0.3,0.4,0.5,0.6C303.2,393.4,302.9,394,302.4,394.9z M102.4,392.7
		c-0.1-1.1-0.2-1.9-0.3-2.7c-2.5-13.8-2.7-27.5,0.1-41.2c2.1-10.1,5.2-20.1,7.8-30.2c3.5-13.7,8.7-26.9,14.4-40
		c5.1-11.7,10.6-23.3,15.7-35c5.2-11.9,11.1-23.4,19.9-33.7c7.9-9.2,15.3-18.7,22.7-28.2c2.8-3.6,5.6-7.2,10.2-9.1
		c0.6-0.3,1.2-1.2,1.2-1.8c0.4-7.2,0.6-14.4,1.2-21.6c1.1-13,2.4-26.1,3.9-39.1c0.5-4.4,2.3-8.7,3.5-13c-0.1,0-0.2-0.1-0.4-0.2
		c-19-3.5-38-3.1-57,0c-12,2-22.3,6.8-32.2,12.8c-4.6,2.8-9.2,5.5-13.9,8.3c-20.3,12-38.1,26.3-50.7,45.2
		c-5.6,8.4-11.8,16.4-16.9,25c-8.4,13.9-12.1,29.2-15.3,44.6c-3.8,18.4-5.8,36.7-2.6,55.3c1.8,10.7,3.9,21.4,8.4,31.5
		c1.1,2.6,2.6,5,4,7.5c-1.3-9.3-2.3-18.4-1.9-27.6c0.8,4.2,1.3,8.5,1.9,12.8c2.3,16.9,6,33.4,17.6,47.7c4.7,5.8,9.1,11.7,14.8,16.8
		c4,3.6,9.2,5.4,15.1,7.5c-5.2-8.6-7.9-17.3-8.5-26.2c-1.7-22.5,0.6-44.7,6.2-66.7c1.3-5.1,3.2-10,4.9-15.1
		c-1,5.2-2.5,10.2-3.9,15.3c-3.8,13.9-4.9,28.1-6.2,42.3c-1.5,16.4-0.4,32.5,7,47.9c1.1,2.3,2.3,3.1,5.2,3.1c1.2,0,2.5,0.3,3.4,0.8
		C87.9,389.3,95.1,390.6,102.4,392.7z M192.2,175.5c-0.2-0.1-0.4-0.2-0.6-0.2c-1.5,2.3-3.1,4.5-4.4,6.9
		c-5.8,10.4-8.9,21.7-12.7,32.7c-0.9,2.8-1.7,5.6-2,8.5c-2.3,20.6-1.8,41.2,1.7,61.7c2.5,14.4,5.1,28.9,7.2,43.3
		c2.5,17.6,7.3,34.7,14,51.3c0.3,0.7,0.6,1.3,0.9,1.9c0.6-3.3,0.8-6.4,0.5-9.5c-1.4-16.7-2.9-33.5-4.3-50.2
		c-1.3-16-2.3-31.9-1.4-47.9c1-19.3,1.5-38.6,0.8-58c-0.5-12-0.1-24.1-0.1-36.2C191.8,178.5,192,177,192.2,175.5z M209.1,83.7
		c-3.9-2.8-18.5-8.7-24-8.9c-5.9-0.2-11.9,0.2-17.8,0.9c-17.8,2.1-34.4,7.3-49.3,16.2c-18.7,11.2-35.6,24.2-50.5,39.3
		c-9.9,10-18,21.1-23.7,33.4c-0.4,0.8-0.7,1.5-1,2.3c1.7-1.5,3-3.2,4.2-4.9c10.4-14.8,23.4-27.4,39.4-37.6
		c9.2-5.8,18.5-11.5,27.8-17.2c9.5-6,19.7-10.4,31.4-12.1c18.7-2.6,37.4-4.3,56,0.4c1.5,0.4,2.2,0,2.7-1.3
		C205.8,90.8,207.4,87.4,209.1,83.7z"/>
	<g id="hair">
		<path fill="$[hairColor]" stroke="#000000" stroke-width="4" d="M384,255c-0.7-14.9-4.9-29.4-9.9-43.7c-7-20.2-17.3-39.1-29.2-57.3c-5.4-8.3-12.3-15.7-18.5-23.6
			c-3.2-4-6.2-8.2-9.6-12.1c-7.3-8.4-33.2-26.2-44.2-30.3c-13.4-5-27-8.7-41.9-7.7c-6.6,0.4-12.8,1.5-18.5,4.5
			c-1,0.5-2.3,0.9-2.7,1.7c-1.9,3.7-3.6,7.6-5.5,11.7c2.8-0.7,4.9-1.3,7.1-1.7c10.2-1.5,20.3-0.8,30.5,0.8
			c27.9,4.2,53.2,13.6,75.7,28.9c4.7,3.2,8.7,7.3,12.8,11c1,0.9,1.5,2.1,2,2.9c-4-3.5-7.8-7.5-12.3-10.8
			c-10.9-7.9-22.8-14.4-35.7-19.4c-15.6-6.1-31.8-10.2-48.7-12.3c-10.1-1.2-20-1.3-29.9,1.5c-1.5,0.5-2.4,1.1-2.7,2.4
			c-1.1,4.8-2.8,9.6-3.3,14.5c-1.6,17.2-2.8,34.4-4.1,51.5c-0.3,3.6-0.2,3.6,3.6,4.9c5.9,2,10.7,5.4,15,9.2
			c9.2,8.1,18,16.4,26.9,24.8c7,6.5,14,13.1,18.8,21.1c9.5,15.9,18.2,32.1,24.4,49.1c4.2,11.6,7.3,23.5,10.2,35.4
			c2.1,8.5,3.2,17.2,4.2,25.9c0.7,5.3,1,10.7,0.6,16c-0.5,6.1-2.2,12.2-3.2,18.3c-1.2,7.2-2.9,14.3-5.7,21.2
			c-0.8,1.8-1.4,3.8-2.2,6.1c5.4-2.5,9.7-5.7,14.8-7.6c0.2,0.2,0.3,0.4,0.5,0.6c-0.4,0.6-0.7,1.2-1.2,2.1c5.8,0.4,11.1-0.6,16.2-2.5
			c8.5-3.3,15.1-8.6,20.5-15.2c0.5-0.6,1.1-1.2,1.6-1.7c0.1,0.1,0.3,0.1,0.4,0.2c-0.3,1.1-0.5,2.1-0.8,3.2c0.8-0.7,1.3-1.6,1.4-2.5
			c1.6-9.4,3.4-18.8,4.5-28.2c2.7-22.3,1-44.4-5.4-66.2c-5.4-18.7-13.6-36.5-22.5-54.1c-2.9-5.8-6-11.6-9-17.4
			c0.4,0.2,0.7,0.5,0.8,0.8c6.9,13.6,14.3,27.1,20.7,40.9c16.8,36.2,21.6,73.6,14.1,112.2c-0.8,4.3-1.7,8.5-2.6,12.8
			c0.3,0,0.5,0,0.6,0c0.5-0.3,1-0.7,1.5-1.1c12.8-9.8,23.4-21.1,30.3-34.9c0.4-0.8,0.8-1.8,1.5-2.2c1.8-0.9,2.1-2.3,2.3-3.8
			c1.9-13,4.6-25.9,5.5-38.9C384.9,282.5,384.6,268.7,384,255z"/>
		<path fill="$[hairColor]" stroke="#000000" stroke-width="4" d="M192.9,172.6c0.6-0.3,1.2-1.2,1.2-1.8c0.4-7.2,0.6-14.4,1.2-21.6c1.1-13,2.4-26.1,3.9-39.1
			c0.5-4.4,2.3-8.7,3.5-13c-0.1,0-0.2-0.1-0.4-0.2c-19-3.5-38-3.1-57,0c-12,2-22.3,6.8-32.2,12.8c-4.6,2.8-9.2,5.5-13.9,8.3
			c-20.3,12-38.1,26.3-50.7,45.2c-5.6,8.4-11.8,16.4-16.9,25c-8.4,13.9-12.1,29.2-15.3,44.6c-3.8,18.4-5.8,36.7-2.6,55.3
			c1.8,10.7,3.9,21.4,8.4,31.5c1.1,2.6,2.6,5,4,7.5c-1.3-9.3-2.3-18.4-1.9-27.6c0.8,4.2,1.3,8.5,1.9,12.8c2.3,16.9,6,33.4,17.6,47.7
			c4.7,5.8,9.1,11.7,14.8,16.8c4,3.6,9.2,5.4,15.1,7.5c-5.2-8.6-7.9-17.3-8.5-26.2c-1.7-22.5,0.6-44.7,6.2-66.7
			c1.3-5.1,3.2-10,4.9-15.1c-1,5.2-2.5,10.2-3.9,15.3c-3.8,13.9-4.9,28.1-6.2,42.3c-1.5,16.4-0.4,32.5,7,47.9
			c1.1,2.3,2.3,3.1,5.2,3.1c1.2,0,2.5,0.3,3.4,0.8c6.3,3.6,13.4,4.8,20.7,6.9c-0.1-1.1-0.2-1.9-0.3-2.7c-2.5-13.8-2.7-27.5,0.1-41.2
			c2.1-10.1,5.2-20.1,7.8-30.2c3.5-13.7,8.7-26.9,14.4-40c5.1-11.7,10.6-23.3,15.7-35c5.2-11.9,11.1-23.4,19.9-33.7
			c7.9-9.2,15.3-18.7,22.7-28.2C185.5,178.1,188.2,174.6,192.9,172.6z"/>
		<path fill="$[hairColor]" stroke="#000000" stroke-width="4" d="M192.5,322c-1.3-16-2.3-31.9-1.4-47.9c1-19.3,1.5-38.6,0.8-58c-0.5-12-0.1-24.1-0.1-36.2c0-1.5,0.3-3,0.4-4.5
			c-0.2-0.1-0.4-0.2-0.6-0.2c-1.5,2.3-3.1,4.5-4.4,6.9c-5.8,10.4-8.9,21.7-12.7,32.7c-0.9,2.8-1.7,5.6-2,8.5
			c-2.3,20.6-1.8,41.2,1.7,61.7c2.5,14.4,5.1,28.9,7.2,43.3c2.5,17.6,7.3,34.7,14,51.3c0.3,0.7,0.6,1.3,0.9,1.9
			c0.6-3.3,0.8-6.4,0.5-9.5C195.4,355.5,193.9,338.8,192.5,322z"/>
		<path fill="$[hairColor]" stroke="#000000" stroke-width="4" d="M86.5,124.4c9.2-5.8,18.5-11.5,27.8-17.2c9.5-6,19.7-10.4,31.4-12.1c18.7-2.6,37.4-4.3,56,0.4
			c1.5,0.4,2.2,0,2.7-1.3c1.5-3.5,3.1-7,4.7-10.6c-3.9-2.8-18.5-8.7-24-8.9c-5.9-0.2-11.9,0.2-17.8,0.9
			c-17.8,2.1-34.4,7.3-49.3,16.2c-18.7,11.2-35.6,24.2-50.5,39.3c-9.9,10-18,21.1-23.7,33.4c-0.4,0.8-0.7,1.5-1,2.3
			c1.7-1.5,3-3.2,4.2-4.9C57.4,147.2,70.4,134.5,86.5,124.4z"/>
	</g>
</g>
</svg>
