<svg id="Capa_1" data-name="Capa 1" xmlns="http://www.w3.org/2000/svg" viewBox="0 0 400 600">
  <defs>
    <style>
      .cls-1 {
        fill: #fff;
      }
    </style>
  </defs>
  <title>hairf_2</title>
  <g id="hair">
    <path d="M423.47,307.74c-7.5,27.1-15.1,54.1-22.4,81.2a56.85,56.85,0,0,0-1.5,12.4c-.6,10,3.5,18.1,10.6,24.9,1.5,1.4,1.9,3.8,2.8,5.7-2.2.5-4.6,1.8-6.7,1.5a38.48,38.48,0,0,1-25-16,73,73,0,0,0-11.8-13.2c4.1,9,8,18.1,12.3,27.1,2.1,4.3,4.8,8.4,7,12.6.5,1,.2,2.4.3,3.6-1.2-.5-3-.5-3.6-1.4-5.1-8-9.9-16.1-15-24.1-12-18.7-22.4-38.1-26.4-60.4a6.61,6.61,0,0,0-1-1.8c-9.5,11.2-14.7,23.8-15.4,38.3-1,19.8.7,39.2,7.6,58a9.57,9.57,0,0,1,.3,6.1,8.65,8.65,0,0,1-2.3-1.9,132.48,132.48,0,0,1-19.6-63.7c-1-23.5,6.3-44.8,19.3-64.3,1.2-1.7,1.4-4.4,1.2-6.6-.6-7.9-1.6-15.9-2.5-24-4.5,7.1-5.8,16.4-14,21.8,0-11.7.4-22.8-.1-33.8-.4-8-1-16.3-3.1-24-2.5-8.9-6.7-17.4-10.6-25.8a12.85,12.85,0,0,0-5.6-5.2c-27.8-14-53.9-30.6-77-51.6-6.5-5.9-12.4-12.5-18.4-18.6-27.2,30.6-61,52.6-97.7,70.8a25.78,25.78,0,0,0-6.9,5.4,196.91,196.91,0,0,0-14.2,16.1,31.53,31.53,0,0,0-5.7,11.8c-3.7,16.9-3.3,34.1-3,51.3v4.6c-4.5-.3-5.3-3.8-5.9-7-2.4-12.8-4.5-25.6-7-38.3-2.1-11-4.5-21.8-6.9-32.7a6.27,6.27,0,0,0-3-3.8c.3,3.2.4,6.4,1,9.6,1.7,9.9-.1,19.2-3.7,28.3-5.2,13.3-10.5,26.6-15.4,40-1,2.6-1.1,6.4.1,8.8C50,360.74,67.17,390.94,92,416a20.89,20.89,0,0,1,2,2.2c.2.2.1.6.1.9-10.9,2.8-48.9-30.9-69.8-62.4-1.4,15.2-2.2,29.2,4.2,42.7,6.1,13,14.2,24.7,23.5,35.7l-.9,1.2c-10-6.5-20-12.9-30.1-19.5-9.4,8.4-20.1,13.7-34.1,14,1.6-1.4,2.4-2.1,3.2-2.7,8.4-6.6,9.8-15.7,9.2-25.6-1.2-20.3-8-39.2-16.9-57.1-4.9-10-7.2-20-6.4-30.8,1-14.2.5-28.5,4.2-42.6,3.3-12.5,8.5-23.8,17.4-33.2,9.6-10.2,19.7-19.9,29.4-30,1.3-1.4,2.7-3.6,2.6-5.3a45.19,45.19,0,0,1,8.6-30.1c4.5-6.4,9.9-12.1,14.7-18.3,2-2.7,4.2-5.6,5-8.8,9.1-35.6,30.9-61.4,61.6-80.2,9.3-5.7,19.3-10.5,29.2-15.2a62.66,62.66,0,0,1,36.5-5.5c15.1,2.2,30.3,3.3,45.7,1.2,10.2-1.4,19.8,1.8,29,5.8,28.5,12.5,53.7,29.4,71.8,55.4,8.4,12,13.4,25.5,17.6,39.4a30.79,30.79,0,0,0,5,8.8c6.1,8.5,13,16.4,18.6,25.2,4.9,7.8,6.1,16.9,4.1,26.1-.8,3.5.5,5.3,2.5,7.8,10.4,12.9,21,25.8,30.6,39.4,7.4,10.4,11.3,22.6,12.8,35.4a13.09,13.09,0,0,0,.9,2.8C423.47,297.74,423.47,302.74,423.47,307.74ZM55.67,201.54a79.35,79.35,0,0,1,24.2-28.8c13.8-10.2,27.4-20.6,41.8-30,23.6-15.5,49.2-26.4,78-29.6.8-6.5,1.5-13.2,2.4-21.1-10.6,0-20.7-1.1-30.5.2-34.2,4.6-65.5,17.4-94.1,36.6-7.9,5.3-14.3,11.6-16.6,22.3-3.5,16.7-5.7,33.3-5.2,50.4.2,3.8.5,7.6.6,11.4.1,4.5,2.5,6,6.5,4.8,6.1-1.7,12.4-2.9,18-5.6,13.5-6.4,27.6-12.1,39.8-20.6,25.9-18.1,50.7-37.7,75.9-56.8a5.16,5.16,0,0,0,2.2-3.1c.5-5.2.6-10.5,1-17.5-12,3.2-23.3,5.1-33.7,9.1-41.2,16.2-77,40.4-106.2,73.9A57.58,57.58,0,0,1,55.67,201.54ZM308.47,240c4,12.2,9.7,24.2,11.7,36.9,2,12.4.4,25.4.4,37.8,5.3-8,11.3-25.3,13-34.9,1.8-10.5,3.8-20.9,10.8-29.6,2.1-2.5,4.3-5.7,4.6-8.7.6-5.7,0-11.6-.6-17.3-.1-1.2-2.3-2.8-3.7-3-23.6-2.8-45-11.7-65.4-23.4a223.81,223.81,0,0,1-71.2-64,50.85,50.85,0,0,1-3.3-6.2c1.2.1,1.6,0,1.8.2a9.34,9.34,0,0,1,1.3,1.5,220.55,220.55,0,0,0,63.8,59.8c21.7,13.6,44.8,24,70.6,27.3,2.7.3,5.4.3,7.5.5,4.6-11.8.4-19.5-8.6-26.8-15-12.2-30.5-23.6-47.6-32.9-24.2-13.1-48.6-25.7-75.1-33.6-5-1.5-10.2-1.8-15.9-2.8,0,10.5.1,19.8,0,29.1-.1,6.5,2,12.3,6.6,16.7,9.1,9,18.1,18.2,28.1,26.2,20.5,16.6,42.4,31.1,66.9,41.4l34.8,14.7c.3.1.5.7.7,1-.2.5-.4.9-.6,1.4C328.57,247.44,318.27,243.64,308.47,240Zm-105.6-121.7c29.1,3,53.7,17.1,78.9,29.5s48.7,27.9,69.8,48.9c-.5-15.7-1.7-29.8-5.4-43.6-1.8-7-3.7-13.8-9.3-18.8-10.7-9.7-21-20-32.3-29.1-16.9-13.6-36.3-20-57.9-15.1-11,2.4-21.6,6.4-32.1,10.5C201.67,105.54,203.07,106.34,202.87,118.34Zm166.4,105c3.4,2.9,6.5,5.3,9.2,8.1,17.2,17.6,29.3,56.6,5.5,84.8a290.54,290.54,0,0,1-20.9,22.1c-4.3,4.1-6.3,7.9-4.9,13.9,1.1,4.8.8,9.9,1.4,14.9,1.4,12.1,3.4,24.1,11.9,33.7,6.6,7.5,12.9,15.3,20,22.2,4.3,4.2,9.8,7.7,16.6,6.7.1-.7.2-.9.1-1a9.34,9.34,0,0,0-1.3-1.5c-8.3-6-11.8-14.4-11.3-24.3.4-7.1.9-14.4,2.9-21.2,5.1-17.2,11-34.2,16.6-51.2,9.4-28.8,5.8-55.8-11.3-80.9-8.5-12.5-17.7-24.5-28.7-35.3C372.87,217.54,371.07,220.44,369.27,223.34Zm-297,81.3c.5-7.5.9-15.1,1.4-22.7.8-12.4,3.1-24.1,13.4-32.7,2.2-1.9,3.8-4.6,5.7-6.9-8.7,2.1-16.4,5.8-24.9,6.5,2.6-1.6,5.5-2.4,8.2-3.4a317.81,317.81,0,0,0,82.5-45c13.8-10.5,26.3-22.9,39.2-34.6a10.38,10.38,0,0,0,3-7c-.3-6.9-1.4-13.7-2.3-21.1-1.4,1.1-2.4,1.9-3.4,2.6-18.1,14.1-35.9,28.7-54.5,42.2-24.2,17.6-49.8,32.8-79.6,39.1a4,4,0,0,0-2.4,1.8c-3.1,6.8-1.1,18,2.6,21.8-.4,3-1.2,4.9-.9,6.5C64.07,269.34,68.17,287,72.27,304.64ZM-6,366.24c.4-4.9.5-9.9,1.2-14.8,2-12.6,8.7-23.2,15-34,2.7-4.6,5-8.7,4.9-15-.3-17.8,2.7-35.6,10.4-51.9a71.57,71.57,0,0,0,7.4-28.2c.2-4.2-.8-8.5-1.2-12.7a17.42,17.42,0,0,0-2.2-.5C17.27,222.74,4.77,236-7,249.94c-3.7,4.4-6,10.4-8,16-7.4,20.8-7.4,42.4-6.4,64.1a17.6,17.6,0,0,0,1.8,6.2C-15.23,346.14-10.63,356-6,366.24Zm367.4-131.5c8.1,8.6,11.8,18.7,11,29.8-1.3,18-10,33.6-19.5,48.4-4.9,7.6-11.7,13.9-16.8,21.3-20.7,29.7-23.8,61.9-13,96,.6,1.7,1,3.5,1.7,5.2.6,1.5,1.3,2.9,1.5,3.4-.6-11.6-1.2-24-1.8-36.4-.9-19.5,7.9-35.6,19.3-50,7.8-9.9,18.2-17.6,27.2-26.6,8.2-8.1,15.8-16.9,19.5-28,7.5-22.2,1.7-42.2-11.1-60.7-3-4.3-7.3-7.8-11.4-12C365.37,228.84,363.47,231.54,361.37,234.74Zm-317.2-1.5c2.1,19.4-5,35.7-13.5,51.6-6.8,12.8-14,25.3-21.2,37.9-6.5,11.5-13.2,23-13,36.7.4,35.4,18.3,53.7,46.5,68.6,0-.1.1-.3,0-.4-1.2-1.8-2.4-3.6-3.7-5.3-18.7-23.9-22.8-50.7-14.1-79.2a460.23,460.23,0,0,1,19.7-53.3c6.4-14.5,8-28.9,6.2-44.2C50.57,240.54,49.07,236.74,44.17,233.24Zm22.1-98.5c29-24.7,62.2-38,98.1-45.4,12.4-2.6,24.8-1.5,38.1,1.7-.6-3.9.1-8.1-1.7-10-8-8.7-17.4-16.1-29.8-16.3a337.69,337.69,0,0,0-34.8,1.6c-4.8.4-10.3,1.4-14.1,4a280.33,280.33,0,0,0-29.7,23.4C80.37,104.84,72.07,118.64,66.27,134.74Zm271.1-4.4c.3-.2.5-.4.8-.6a12.66,12.66,0,0,0-.6-1.8c-1.1-2.3-2.1-4.5-3.3-6.7-13.6-25.3-35-42.4-59.6-55.9a14.52,14.52,0,0,0-6.2-1.5c-21.8-.8-41.7,5.5-60.7,15.5a2.69,2.69,0,0,0-1.3,1.8c-.7,7-1.3,14-1.9,21,13.3-6.5,27-12,41.6-15,27-5.5,49.5,3.3,68.9,21.8Zm.5,195.8c4.5-5.8,8.1-10.3,11.5-15a6.06,6.06,0,0,0,.8-4.2c-2.2-12,.2-23,6-33.6a153.9,153.9,0,0,0,8.5-17.9c3-7.7,1.4-12.1-5.2-17.8-3.2,3.1-6.6,6.1-9.7,9.3a27.67,27.67,0,0,0-5.1,6.3c-4.7,9.5-7,19.6-8,30.1C335.37,297.14,336,310.84,337.87,326.14ZM30.47,331a115.21,115.21,0,0,1-3.5,11.4c-2.2,5.6-1.2,10.5,1.8,15.6a148.91,148.91,0,0,0,48.9,50.3,2,2,0,0,0,1.2.2c-8.4-12.5-17.1-24.8-25.1-37.6C45.77,357.94,38.37,344.64,30.47,331ZM135.87,63c24.1-2.6,47.6-5.4,66.2,15.8.7-8.8,1.4-16,1.7-23.3,0-1.1-1.4-3.1-2.4-3.3C178.67,48,156.77,49,135.87,63Zm70.6,12.9c9.3-3.7,18.2-8,27.6-10.6s19.4-3.8,28.6-5.6c-11.7-8.6-37.9-11.5-55.1-5.7C207.17,61.44,206.87,68.84,206.47,75.94ZM41,228.44c-14.5,17.9-12.6,38.4-14.5,58C39.67,265.54,45.17,244.64,41,228.44Zm313.7,118.5c-2.2,2.1-3.1,3.1-4.1,3.9-4.6,3.5-5.5,7.6-3.4,13,2.2,5.6,3.1,11.6,5.4,17.1,4.5,10.4,9.6,20.5,14.5,30.7.6-.2,1.2-.5,1.9-.7A149.93,149.93,0,0,1,354.67,346.94Zm14-90.7c-6.8,15.9-20.2,29.8-15.9,50.4C363,290.64,370.37,274.94,368.67,256.24ZM53.27,239c.6-.1,1.3-.3,1.9-.4,0-7.3.3-14.6-.1-21.9-.4-6.2-1.7-12.4-2.3-18.6a88.08,88.08,0,0,1-.1-8.9l-2.5-.3c-1.6,7-4.1,13.9-4.6,21-.5,6.9-2.1,14.4,4.4,21.1-2.2-.5-2.9-.7-4.4-1.1C48.47,233.34,50.87,236.24,53.27,239Zm301.4-49c-.3,5.1-.2,10-.9,14.8-1.6,11.4-4.5,22.8-.4,34.1C365.27,228.44,363.27,199.74,354.67,190Zm-310,38a40,40,0,0,1-1.4-6.4c-.9-11.1.5-21.9,6.2-31.7,3.1-5.3,4.1-9,2.8-15.6-8,9.2-13.5,18.9-15.3,31.3-1.2,7.9,1,13.3,5.3,18.9C42.87,225.34,43.37,226.24,44.67,228ZM.27,392.34c1.5,12.7,3.4,25.5-6.8,36.1.4.3.7.7,1.1,1,8.1-4.6,16.1-9.2,23.7-13.5C11.77,407.44,6.07,399.94.27,392.34Zm354.1-216.7c.2,5.8-1.2,12,4,16.6,1.2,1.1,1.8,3.2,2.2,4.9,1.4,7.1,2.5,14.3,3.8,21.5a18.87,18.87,0,0,0,1.3,3.3,37.62,37.62,0,0,0,3.1-2.5c3.1-3.5,1-7.5,1-11.4C369.67,194.84,363.07,184.84,354.37,175.64Zm-299.7-16.8c-17.4,17.2-26.1,37.2-19.1,49.9-.7-13.6,5-24.2,13.3-33.5C53.17,170.54,54.77,165.44,54.67,158.84Zm298.1,1.3c-.5.2-1,.3-1.4.5,1.4,4.1,1.8,9,4.4,12.2,8.1,10.3,15.9,20.5,15.8,35.1C378.67,195.84,368,175.24,352.77,160.14ZM17.57,304c3.9-5.8,6.4-10.5,6.1-16.6-.3-5.7.7-11.6,1.3-17.3.4-4.1,1-8.1,1.6-12.1C20.17,272.34,18.57,287.54,17.57,304Zm17.2-83.7c-.4,4.1-.8,7.7-1.1,11.3C36.37,228.14,40.77,224.84,34.77,220.34Z"/>
    <g id="haircolor">
      <path fill="$[hairColor]" d="M308.47,240c9.8,3.6,20.1,7.4,30.4,11.2.2-.5.4-.9.6-1.4-.2-.4-.4-.9-.7-1L304,234.14c-24.5-10.3-46.4-24.8-66.9-41.4-9.9-8.1-18.9-17.3-28.1-26.2-4.5-4.4-6.6-10.2-6.6-16.7.1-9.3,0-18.6,0-29.1,5.7,1,11,1.3,15.9,2.8,26.5,7.9,51,20.5,75.1,33.6,17,9.2,32.5,20.6,47.6,32.9,9,7.3,13.1,15,8.6,26.8a72.37,72.37,0,0,1-7.5-.5c-25.8-3.2-48.9-13.7-70.6-27.3a220.46,220.46,0,0,1-63.8-59.8,9.34,9.34,0,0,0-1.3-1.5c-.2-.2-.6-.1-1.8-.2a50.85,50.85,0,0,0,3.3,6.2,223.81,223.81,0,0,0,71.2,64c20.4,11.7,41.8,20.6,65.4,23.4,1.4.2,3.6,1.9,3.7,3,.6,5.7,1.2,11.6.6,17.3-.3,3-2.5,6.2-4.6,8.7-7,8.7-9.1,19.1-10.8,29.6-1.6,9.6-7.7,26.9-13,34.9,0-12.4,1.6-25.4-.4-37.8C318.17,264.24,312.47,252.24,308.47,240Z"/>
      <path fill="$[hairColor]" d="M202.87,118.34c.2-12-1.3-12.8,11.6-17.8,10.5-4.1,21.2-8.1,32.1-10.5,21.6-4.8,41.1,1.5,57.9,15.1,11.2,9.1,21.5,19.4,32.3,29.1,5.6,5.1,7.5,11.8,9.3,18.8,3.6,13.9,4.9,28,5.4,43.6-21.1-21-44.5-36.4-69.8-48.9C256.57,135.44,232,121.34,202.87,118.34Z"/>
      <path fill="$[hairColor]" d="M369.27,223.34c1.8-2.8,3.6-5.7,5.7-9,11,10.8,20.2,22.8,28.7,35.3q25.65,37.65,11.3,80.9c-5.6,17.1-11.5,34-16.6,51.2-2,6.8-2.5,14.1-2.9,21.2-.5,9.9,3,18.3,11.3,24.3a6.39,6.39,0,0,1,1.3,1.5c.1.1,0,.3-.1,1-6.8.9-12.3-2.6-16.6-6.7-7.2-6.9-13.5-14.7-20-22.2-8.5-9.6-10.5-21.6-11.9-33.7-.6-4.9-.2-10.1-1.4-14.9-1.4-6,.6-9.8,4.9-13.9a256.47,256.47,0,0,0,20.9-22.1c23.8-28.2,11.7-67.2-5.5-84.8C375.77,228.54,372.67,226.24,369.27,223.34Z"/>
      <path fill="$[hairColor]" d="M55.67,201.54c1.4-1.4,2.8-2.8,4.1-4.3,29.2-33.5,65.1-57.7,106.2-73.9,10.4-4.1,21.6-5.9,33.7-9.1-.4,7-.5,12.3-1,17.5-.1,1.1-1.2,2.3-2.2,3.1-25.2,19.1-50,38.7-75.9,56.8-12.1,8.5-26.3,14.2-39.8,20.6-5.6,2.7-12,3.8-18,5.6-4.1,1.2-6.4-.3-6.5-4.8-.1-3.9-.3-7.7-.6-11.5Z"/>
      <path fill="$[hairColor]" d="M55.77,201.54c-.5-17,1.6-33.7,5.2-50.4,2.3-10.7,8.7-16.9,16.6-22.3,28.6-19.2,59.9-32,94.1-36.6,9.8-1.3,19.8-.2,30.5-.2-.9,7.9-1.7,14.6-2.4,21.1-28.9,3.2-54.4,14.1-78,29.6-14.3,9.4-28,19.8-41.8,30a77.59,77.59,0,0,0-24.2,28.8Z"/>
      <path fill="$[hairColor]" d="M72.27,304.64c-4.1-17.7-8.2-35.3-12.1-53-.4-1.6.4-3.5.9-6.5-3.7-3.7-5.7-15-2.6-21.8a4,4,0,0,1,2.4-1.8c29.8-6.3,55.4-21.6,79.6-39.1,18.6-13.5,36.3-28.1,54.5-42.2,1-.8,2-1.6,3.4-2.6.9,7.4,2,14.2,2.3,21.1a10.38,10.38,0,0,1-3,7c-12.9,11.8-25.4,24.1-39.2,34.6a314.88,314.88,0,0,1-82.5,45,41.75,41.75,0,0,0-8.2,3.4c8.5-.7,16.3-4.3,24.9-6.5-1.9,2.3-3.4,5-5.7,6.9-10.3,8.6-12.6,20.3-13.4,32.7C73.07,289.54,72.67,297.14,72.27,304.64Z"/>
      <path fill="$[hairColor]" d="M-6,366.24c-4.6-10.1-9.2-20.1-13.6-30.1a17.6,17.6,0,0,1-1.8-6.2c-1-21.7-1-43.3,6.4-64.1,2-5.6,4.2-11.5,8-16,11.8-14,24.3-27.3,36.5-40.8a17.42,17.42,0,0,0,2.2.5c.4,4.2,1.3,8.5,1.2,12.7a71.57,71.57,0,0,1-7.4,28.2c-7.7,16.4-10.7,34.1-10.4,51.9.1,6.3-2.3,10.4-4.9,15-6.3,10.8-12.9,21.4-15,34C-5.63,356.34-5.63,361.24-6,366.24Z"/>
      <path fill="$[hairColor]" d="M361.37,234.74c2.1-3.1,4-5.8,6.6-9.6,4,4.2,8.3,7.6,11.4,12,12.8,18.5,18.6,38.5,11.1,60.7-3.8,11.1-11.3,19.9-19.5,28-9,8.9-19.4,16.7-27.2,26.6-11.4,14.4-20.2,30.5-19.3,50,.6,12.4,1.2,24.8,1.8,36.4-.2-.5-.9-1.9-1.5-3.4-.6-1.7-1.1-3.5-1.7-5.2-10.8-34-7.7-66.3,13-96,5.2-7.4,12-13.7,16.8-21.3,9.5-14.8,18.2-30.4,19.5-48.4C373.17,253.44,369.47,243.24,361.37,234.74Z"/>
      <path fill="$[hairColor]" d="M44.17,233.24c4.9,3.6,6.4,7.4,7,12.4,1.8,15.4.2,29.8-6.2,44.2a460.23,460.23,0,0,0-19.7,53.3c-8.6,28.5-4.6,55.3,14.1,79.2,1.3,1.7,2.5,3.5,3.7,5.3.1.1,0,.3,0,.4-28.3-15-46.1-33.2-46.5-68.6-.2-13.7,6.5-25.2,13-36.7,7.2-12.6,14.4-25.1,21.2-37.9C39.17,268.94,46.27,252.64,44.17,233.24Z"/>
      <path fill="$[hairColor]" d="M66.27,134.74c5.8-16.1,14.1-29.9,26.1-40.9a280.33,280.33,0,0,1,29.7-23.4c3.8-2.7,9.3-3.6,14.1-4a337.69,337.69,0,0,1,34.8-1.6c12.5.3,21.8,7.6,29.8,16.3,1.8,1.9,1.1,6.1,1.7,10-13.4-3.2-25.7-4.3-38.1-1.7C128.47,96.74,95.27,110,66.27,134.74Z"/>
      <path fill="$[hairColor]" d="M337.37,130.34l-22.3-21.4c-19.4-18.5-41.9-27.3-68.9-21.8-14.6,3-28.3,8.5-41.6,15,.6-7,1.2-14,1.9-21a2.94,2.94,0,0,1,1.3-1.8c19-10,39-16.4,60.7-15.5a14.52,14.52,0,0,1,6.2,1.5c24.6,13.6,46,30.6,59.6,55.9,1.2,2.2,2.2,4.5,3.3,6.7a12.66,12.66,0,0,1,.6,1.8C337.87,129.94,337.67,130.14,337.37,130.34Z"/>
      <path fill="$[hairColor]" d="M337.87,326.14c-1.9-15.3-2.5-29-1.1-42.7,1.1-10.5,3.3-20.6,8-30.1a25.66,25.66,0,0,1,5.1-6.3c3.1-3.2,6.5-6.2,9.7-9.3,6.6,5.6,8.2,10.1,5.2,17.8a146.53,146.53,0,0,1-8.5,17.9c-5.8,10.6-8.2,21.6-6,33.6a6.17,6.17,0,0,1-.8,4.2C346.07,315.84,342.37,320.34,337.87,326.14Z"/>
      <path fill="$[hairColor]" d="M30.47,331c7.9,13.5,15.3,26.9,23.4,39.8S70.57,396,79,408.44a2,2,0,0,1-1.2-.2,146.23,146.23,0,0,1-48.9-50.3c-3-5.1-4-10-1.8-15.6A115.35,115.35,0,0,0,30.47,331Z"/>
      <path fill="$[hairColor]" d="M135.87,63c20.9-14,42.8-15,65.5-10.8,1,.2,2.4,2.2,2.4,3.3-.3,7.3-1,14.5-1.7,23.3C183.57,57.54,160,60.34,135.87,63Z"/>
      <path fill="$[hairColor]" d="M206.47,75.94c.3-7.1.7-14.5,1-21.9,17.2-5.8,43.5-2.9,55.1,5.7-9.3,1.7-19.2,2.9-28.6,5.6C224.77,68,215.87,72.34,206.47,75.94Z"/>
      <path fill="$[hairColor]" d="M41,228.44c4.2,16.2-1.3,37.1-14.5,58C28.47,266.84,26.57,246.34,41,228.44Z"/>
      <path fill="$[hairColor]" d="M354.67,346.94a148.82,148.82,0,0,0,14.3,63.9c-.6.2-1.2.5-1.9.7-4.9-10.2-10-20.3-14.5-30.7-2.4-5.4-3.3-11.5-5.4-17.1-2.1-5.4-1.2-9.5,3.4-13C351.57,350,352.47,348.94,354.67,346.94Z"/>
      <path fill="$[hairColor]" d="M368.67,256.24c1.7,18.6-5.7,34.4-15.9,50.4C348.47,286,361.87,272.24,368.67,256.24Z"/>
      <path fill="$[hairColor]" d="M53.27,239c-2.4-2.9-4.9-5.7-7.7-9.1,1.5.4,2.2.5,4.4,1.1-6.5-6.7-4.9-14.2-4.4-21.1.5-7.1,3-14,4.6-21l2.5.3a65.91,65.91,0,0,0,.1,8.9c.7,6.2,2,12.4,2.3,18.6.4,7.3.1,14.6.1,21.9A10.62,10.62,0,0,1,53.27,239Z"/>
      <path fill="$[hairColor]" d="M354.67,190c8.5,9.7,10.6,38.4-1.2,48.9-4.1-11.3-1.2-22.7.4-34.1C354.47,200,354.47,195.14,354.67,190Z"/>
      <path fill="$[hairColor]" d="M44.67,228c-1.3-1.8-1.8-2.7-2.4-3.4-4.3-5.6-6.5-11-5.3-18.9,1.8-12.4,7.3-22.2,15.3-31.3,1.3,6.6.2,10.3-2.8,15.6-5.7,9.8-7.1,20.6-6.2,31.7A47.8,47.8,0,0,0,44.67,228Z"/>
      <path fill="$[hairColor]" d="M.27,392.34c5.8,7.7,11.5,15.1,17.9,23.6-7.5,4.3-15.6,8.9-23.7,13.5-.4-.3-.7-.7-1.1-1C3.67,417.74,1.77,404.94.27,392.34Z"/>
      <path fill="$[hairColor]" d="M354.37,175.64c8.7,9.3,15.3,19.2,15.3,32.5,0,3.9,2.1,7.9-1,11.4a18.85,18.85,0,0,1-3.1,2.5,15.07,15.07,0,0,1-1.3-3.3c-1.3-7.2-2.4-14.3-3.8-21.5-.3-1.7-.9-3.8-2.2-4.9C353.17,187.54,354.57,181.44,354.37,175.64Z"/>
      <path fill="$[hairColor]" d="M54.67,158.84c.1,6.6-1.5,11.7-5.7,16.4-8.4,9.2-14.1,19.8-13.3,33.5C28.57,196,37.27,175.94,54.67,158.84Z"/>
      <path fill="$[hairColor]" d="M352.77,160.14c15.2,15,25.9,35.6,18.7,47.7.1-14.6-7.7-24.8-15.8-35.1-2.5-3.2-3-8.1-4.4-12.2A4.19,4.19,0,0,0,352.77,160.14Z"/>
      <path fill="$[hairColor]" d="M17.57,304c.9-16.5,2.5-31.8,9-46.1-.5,4-1.2,8.1-1.6,12.1-.6,5.8-1.6,11.6-1.3,17.3C24,293.54,21.47,298.24,17.57,304Z"/>
      <path fill="$[hairColor]" d="M34.77,220.34c6,4.6,1.6,7.8-1.1,11.3C34.07,228,34.37,224.44,34.77,220.34Z"/>
    </g>
  </g>
</svg>
