<?xml version="1.0" encoding="UTF-8"?><svg id="Fronts" xmlns="http://www.w3.org/2000/svg" viewBox="0 0 400 600"><path d="M251.8,96.65c-1.02,13.5,3.35,33.52-14.89,35.75-28.4,3.48-53.31,8.67-77.95,23.74-23.66,14.47-46.36,34.89-60.59,58.93-10.8,18.25-20.14,55.05-22.34,69.27-6.7,43.2-22.72,46.55-22.34,49.16s-51.39-9.68-28.3-137.79C48.46,67.6,115.12,62.76,137.1,59.41s66.66-5.59,84.91,3.72,31.28,13.78,29.79,33.52Z"/><path d="M232.13,105.25c.6,12.03-1.44,17.05,7.38,23.42,18.11,13.09,38.43,18.6,53.59,36.04,11.7,13.45,22.5,29.45,28.99,46.12,6.33,16.27,11.81,49.08,13.1,61.75,3.93,38.51,13.32,41.5,13.1,43.82-.12,1.33,6.03-4.52,6.27-4.82,7.05-8.89,9.13-22.66,10.68-33.45,6.46-44.86,3.27-100.34-13.26-142.73-18.28-46.89-68.49-88.69-119.55-61.09-11.91,6.44-1.18,13.35-.3,30.95Z"/></svg>