<svg id="Capa_1" data-name="Capa 1" xmlns="http://www.w3.org/2000/svg" viewBox="0 0 400 600">
  <defs>
    <style>
      .cls-1 {
        fill: #fff;
      }
    </style>
  </defs>
  <title>hairf_4</title>
  <g>
    <path d="M131,428.34c-15.76-5.63-24.28-19.06-31.89-32.21-9.81-16.94-17.33-35.2-26-52.82-3.19-6.53-6.47-13-10.19-19.27a75.46,75.46,0,0,1-11-35.91c-1.14-27.12-3-54.25-2.68-81.36C49.75,165,59.57,125.72,84.55,91.13c13.69-19,30.61-33.48,53.3-39.95,16.6-4.74,33.39-9.36,50.41-12,22.45-3.47,44.09,1.2,64.3,11.75,8.91,4.65,15.59,11.78,21.35,19.92a13.74,13.74,0,0,0,5.35,4.86c13.09,5.38,23.13,14.45,31.05,25.84a193.84,193.84,0,0,1,26,53.07c5.68,18.05,10.78,36,11.9,54.87a16.24,16.24,0,0,0,.7,2.83v54L344,291.14c-.1.49,0,1.08-.29,1.46-7.4,11.31-6.15,24.23-6.6,36.74a178.07,178.07,0,0,1-13.28,62.13c-2.89,7-7.23,13.4-10.91,20.08l-1.67-.67c.14-.93,0-2.12.48-2.74,6.49-7.85,7.09-17.55,7.18-26.81.37-38.63,1.82-77.32-2.82-115.82a246.17,246.17,0,0,0-33.75-98.44c-1.69-2.81-3.8-5.38-6.09-8.57a32.12,32.12,0,0,0-2.36,3.72c-4.51,10.14-9.27,20.18-13.35,30.5-8.92,22.56-25.1,38.72-45.42,50.74-14.59,8.63-31,7.87-47.21,5.4-8.23-1.25-16.52-2.11-24.7-3.58-14-2.5-26.08,3.26-38.44,8-3.4,1.31-6.51,3.36-9.88,4.77a67.15,67.15,0,0,1-7.77,2.2C83.4,278.21,82.77,297,87,315.85c3.49,15.43,7,30.86,10.6,46.26,5.24,22.23,16.84,41.12,30.91,58.74,1.66,2.07,2.3,5,3.41,7.49ZM91.78,257.15c5.64-3,11-5.59,16.08-8.66,7.5-4.53,15.52-7.08,24.24-6.39,8,.62,15.82,2.1,23.76,2.84,12.74,1.19,25.75,4.17,38.2,2.66,29.18-3.55,47.75-22.89,60.56-47.64,8.26-15.94,13.85-33.24,21.5-49.52,8-16.91,7.86-34.15,4.4-51.78-1.37-7-2-14.66-5.53-20.54a67,67,0,0,0-17.37-19.66c-20.12-14.73-43.51-18.62-67.9-16.84C170.48,43,152.08,48.33,134,55a93.23,93.23,0,0,0-39.73,28.5c-31.46,37.8-42.56,82.25-42.25,130.25.16,25.48,1.11,51,2.08,76.41a50.06,50.06,0,0,0,7.4,24.17c-5.84-29.48.64-59-1.27-88.49a366.38,366.38,0,0,1,1.67,42.39c-.38,18.72-1.17,37.48,6.24,55.19,8.23,19.67,16.69,39.25,25.68,58.58a122.68,122.68,0,0,0,25.4,35.67c1.8,1.78,3.9,3.25,6.21,5.15.1-1.14.25-1.51.12-1.7a26.13,26.13,0,0,0-1.78-2.4C109,401,98.78,381.11,93.9,358.48c-2.56-11.89-5.16-23.78-8.1-35.58a130,130,0,0,1-1.12-59.44,31.38,31.38,0,0,0-.52-16.24c-7.13-24.36-3-47.43,10-69.06,11.46-19,28-32.87,45.6-45.65,11.1-8,22.65-15.34,35.82-19.58,6.41-2.07,13-3.55,19.65-1.11-13.33-.23-25.21,4.4-36.47,10.86a210.86,210.86,0,0,0-50.43,40.6,102.25,102.25,0,0,0-23,39.92C79.68,221.88,82.38,239.59,91.78,257.15Zm231.86-75,2.33-.33c7.83,37.37,14.42,74.9,13.45,113.61,2.09-4.43,4.23-8.89,4.53-13.47q1.47-22.65,1.8-45.38c.41-26.93-2.26-53.17-11.54-79-6.55-18.24-14.4-35.34-24.91-51.46-7.18-11-16.93-19.15-27.79-26.18-.44-.28-1.17-.12-2.12-.2C280.74,87,282.16,94,283.29,101c2.36,14.7,4.9,29.56-2.1,43.66-4.21,8.5-2.14,14.54,2.9,22.45,21.79,34.24,33.29,72.28,35.5,112.67,1.76,32.25,1.56,64.62,2.16,96.93.06,3.7-.3,7.4-.46,11.1l1.58.36c2.38-8.18,5.12-16.28,7.08-24.56,5.83-24.71,4.82-50,5.91-75.12,1.21-28.11-3-55.82-8.21-83.38C326.2,197.46,325,189.79,323.64,182.15Z"/>
    <path fill="$[hairColor]" d="M91.78,257.15c-9.4-17.56-12.1-35.27-6.45-53.95a102.25,102.25,0,0,1,23-39.92,210.86,210.86,0,0,1,50.43-40.6c11.26-6.46,23.14-11.09,36.47-10.86-6.69-2.44-13.24-1-19.65,1.11-13.17,4.24-24.72,11.53-35.82,19.58-17.63,12.78-34.14,26.68-45.6,45.65-13.07,21.63-17.16,44.7-10,69.06a31.38,31.38,0,0,1,.52,16.24A130,130,0,0,0,85.8,322.9c2.94,11.8,5.54,23.69,8.1,35.58C98.78,381.11,109,401,123.81,418.76a26.13,26.13,0,0,1,1.78,2.4c.13.19,0,.56-.12,1.7-2.31-1.9-4.41-3.37-6.21-5.15A122.68,122.68,0,0,1,93.86,382c-9-19.33-17.45-38.91-25.68-58.58-7.41-17.71-6.62-36.47-6.24-55.19a366.38,366.38,0,0,0-1.67-42.39c1.91,29.45-4.57,59,1.27,88.49a50.06,50.06,0,0,1-7.4-24.17c-1-25.46-1.92-50.93-2.08-76.41-.31-48,10.79-92.45,42.25-130.25A93.23,93.23,0,0,1,134,55c18-6.71,36.44-12,55.68-13.42,24.39-1.78,47.78,2.11,67.9,16.84A67,67,0,0,1,275,78.12c3.48,5.88,4.16,13.55,5.53,20.54,3.46,17.63,3.56,34.87-4.4,51.78-7.65,16.28-13.24,33.58-21.5,49.52-12.81,24.75-31.38,44.09-60.56,47.64-12.45,1.51-25.46-1.47-38.2-2.66-7.94-.74-15.81-2.22-23.76-2.84-8.72-.69-16.74,1.86-24.24,6.39C102.79,251.56,97.42,254.14,91.78,257.15Z"/>
    <path fill="$[hairColor]" d="M323.64,182.15c1.33,7.64,2.56,15.31,4,22.93,5.24,27.56,9.42,55.27,8.21,83.38-1.09,25.09-.08,50.41-5.91,75.12-2,8.28-4.7,16.38-7.08,24.56l-1.58-.36c.16-3.7.52-7.4.46-11.1-.6-32.31-.4-64.68-2.16-96.93-2.21-40.39-13.71-78.43-35.5-112.67-5-7.91-7.11-14-2.9-22.45,7-14.1,4.46-29,2.1-43.66-1.13-7-2.55-13.93-3.9-21.27.95.08,1.68-.08,2.12.2,10.86,7,20.61,15.15,27.79,26.18,10.51,16.12,18.36,33.22,24.91,51.46,9.28,25.87,12,52.11,11.54,79q-.33,22.71-1.8,45.38c-.3,4.58-2.44,9-4.53,13.47,1-38.71-5.62-76.24-13.45-113.61Z"/>
  </g>
</svg>
