<?xml version="1.0" encoding="utf-8"?>
<!-- Generator: Adobe Illustrator 27.2.0, SVG Export Plug-In . SVG Version: 6.00 Build 0)  -->
<svg version="1.1" id="Capa_1" xmlns="http://www.w3.org/2000/svg" xmlns:xlink="http://www.w3.org/1999/xlink" x="0px" y="0px"
	 viewBox="0 0 400 600" style="enable-background:new 0 0 400 600;" xml:space="preserve">
<style type="text/css">
	.st0{stroke:#000000;stroke-width:4;stroke-miterlimit:10;}
</style>
<g>
	<path class="st0" fill="$[hairColor]" stroke="#000000" stroke-width="4" d="M216.1,60.6c3.7,0.6,7.4,1.2,11.1,1.8c15.5,2.3,30,8.1,41.8,16.8c32.1,23.2,57.1,50.5,71.8,84.2
		c8.9,20.5,15.1,41.5,16.6,63.3c2,29.6-0.2,59.2-7.7,88.2c-3.2,12.2-3.6,24.2-3.8,36.4c-0.2,24.4-0.1,48.9-0.7,73.2
		c-0.7,29.5-8.8,58-17.5,86.3c-2.2,7.2-4.5,14.4-6.9,21.5c-0.4,1.1-1.1,1.9-2.2,2.5c-1.6-10.2,2.4-20,2.6-30.8
		c-17.2,15.8-34.5,30.4-60.4,36c1-1.5,1.8-3.2,2.6-4.9c13.5-40.7,23-82.4,28.4-124.4c5.4-42.4,13-84.6,9.4-127.1
		c-8.1,1.2-16.5,3.5-24.9,3.7c-11.6,0.2-23.2-1.1-34.8-2.1c-1.9-0.2-4.7-2.5-5.1-4.2c-2.2-9-3.8-18.2-4.8-27.4
		c-1.9-22.2-7.5-44.2-16.6-65.2c-0.4-1-1.2-1.8-2.2-2.5c1.8,8.3,3.7,16.6,5.4,24.9c4.3,20.4,5.1,40.9,3.4,61.6
		c-0.3,4,0.5,8.1,0.1,12.1c-0.4,1.8-1.7,3.4-3.6,4.1c-11.7,3.6-24.6,3.7-36.4,0.1c-3-0.9-4.3-2.2-3.5-5.5c0.9-3.3,0.4-6.9,0-10.4
		c-2.9-29,1.1-57.5,8.7-85.8c0.3-1,0.5-2,0.7-3l-1.7-0.4c-4.1,12.5-9.3,24.8-12.2,37.5c-3.2,14.6-4.5,29.4-6.7,44.2
		c-0.8,5-2,9.9-3,14.8c-0.6,3-2.6,4.5-6.3,5.3c-18.7,3.5-37.1,3.3-55.4-1.8l-5-1.4c2,87.3,13,172.8,41.1,257.6
		c-5.6-1.8-11-2.9-15.8-5.1c-15.9-7.3-29.9-17.2-41.2-29c-0.6-0.7-1.3-1.2-3.1-3l4.4,31.5l-2,0.3c-0.7-0.8-1.3-1.6-1.7-2.5
		c-7.1-26-15.2-51.9-20.9-78c-3.3-15.2-3.5-31.1-3.9-46.7c-0.6-24.3-0.1-48.5-0.4-72.9c-0.1-5-1.6-10-2.6-15.1
		c-1.8-9.1-4-18.2-5.4-27.3c-3.6-24.2-5.9-48.4-2.6-72.6c6.8-49.8,28.3-93.8,72.3-128.7c8.3-6.6,16.6-13.3,25.8-19
		c10.8-6.6,23.8-9,36.9-10.7c1.8-0.2,3.5-0.7,5.2-1L216.1,60.6z M200.4,73c2.2-6.8,10.3-6.5,16.3-9.4H183c4.3,1.4,7.6,2.1,10.4,3.6
		C196.1,68.8,198.1,71.1,200.4,73c-2.1-1.1-4.2-2-6.5-2.9c-6.4-2-13-5.5-19.3-5.2c-8.7,0.5-17.5,3.4-25.8,6.1
		c-5.4,1.8-10,5.5-15,8.3c23.3-1.2,45.8-2.5,65.9,7.9c20.8-10.3,43.2-9.1,66.1-7.1c-11.6-10.3-26.6-13.3-41.8-15.8
		c-0.5-0.1-1.1-0.1-1.6,0C215.2,67.3,207.8,70.2,200.4,73z M266.6,536.3c16.6-4.9,43.9-22.6,53.9-35.2c0.9-1.2,1.5-2.8,1.6-4.2
		c1.5-16,3.2-32,4.1-48.1c3.5-68.8,1.1-137.6-10.1-203.3c6.4,19.3,8.2,41.7,9.9,64c1.8,22.5,3.2,45.2,3.7,67.7
		c0.5,22.7,0.2,45.5-0.9,68.3c-1.1,22.3-3.4,44.7-5.3,68.4c10.5-32.1,19-63.1,19-95.2c-0.1-48.5,4-97.1-3.6-145.5l1.5-0.2l5.9,41.3
		l1.5,0.1c2.6-19.9,6.3-39.9,7.4-59.9c0.8-15.6-0.3-31.3-3.1-46.7c-3.3-18.6-7.7-37.1-21.1-53.2c-13-15.7-27.8-29.8-45.4-41.8
		c-4.4-3-9.3-5.9-14.6-7.8c-17.4-5.9-36-9-54.8-8.9c-4.7,0-9.4,2.5-14.1,3.6c-1.4,0.3-2.9,0.3-4.3,0c-5.3-1.2-10.4-3.5-15.7-3.6
		c-7.2-0.1-14.4,0.5-21.4,1.7c-14.8,2.4-29.7,4.5-42.4,12.5c-16.7,10.4-30.6,23-43.1,36.8c-5.3,5.8-10.8,11.9-14.1,18.6
		c-9.1,19.1-14,39.1-16.2,59.6c-2.2,20.2,0.4,40.3,3.1,60.3c1.3,9.4,3.1,18.7,4.7,28c3.5-13.5,2.9-27.3,7.5-39.5
		c-1.1,15.4-2.9,31.8-3.3,48.1c-0.5,23.5,0.4,47.1-0.1,70.6c-0.9,38.8,5,77.7,17.5,115c0.4,1.2,0.9,2.5,1.3,3.8
		c0.6-0.9,0.9-1.9,0.7-2.9c-2-25.7-4.9-51.4-6-77.2c-2.2-53.2,0.3-106.5,7.5-159.4c1.3-9.6,3.8-19.1,5.7-28.6l1.3,0.2
		c-1.1,4.5-2.7,9.1-3.2,13.7c-3,31.2-6.5,62.2-8.5,93.4c-3.2,48.2-0.7,96.5,4.3,144.6c0.1,2.2,1,4.4,2.5,6.3
		c12.9,13.5,29,24.6,47.4,32.4c1.9,0.9,4,1.4,6.6,2.3c-3.9-12-8.3-22.9-11-34.1c-4.3-17.9-8.2-36-11.2-54.2
		c-8.8-54.1-18.2-108.1-15.6-163.1c-0.1-1.3-0.4-2.6-0.9-3.8c-0.7-1.8-2.3-3.6-2.3-5.5c-0.9-40.5,16.4-76.5,38.2-111.5
		c1.4-1.9,2.9-3.8,4.7-5.6c1.6-1.7,3.2-3.4,4.9-5c-3.6,6.6-8.5,12.3-12,18.4c-12.4,21.7-22.3,44.1-28.5,67.6
		c-3.4,12.6-5,25.3-2.2,38.3c0.5,1.4,1.7,2.7,3.3,3.4c18.2,5.2,37.8,5.6,56.4,1.2c1.5-0.4,3.6-1.8,3.8-3.1c1.6-7,2.8-14,3.6-21.1
		c1.8-20.3,5.4-40.4,13-59.8c5.5-14.3,12.7-28.1,21.6-41c0.9,1.4,1.5,2.6,2.2,3.5c16,24.5,26.2,51.4,30.1,79.2
		c1.8,12.7,3.5,25.3,5.6,37.9c0.3,1.6,2.4,3.9,4.2,4.3c18.9,4.4,37.7,3.7,56.3-1.2c1.2-0.3,2.8-1.3,2.9-2.2c0.8-4.9,2.4-10,1.6-14.8
		c-2-12.8-3.6-25.7-7.9-38c-8.9-26-18.5-51.9-39.7-74.2c7.8,4.8,13.8,11.2,17.5,18.7c7.3,13.8,14.5,27.8,20.8,41.9
		c9,20.2,13.8,41.1,13,62.8c0,1.4,0.2,3.7-0.7,4.3c-3.6,2-2.5,4.7-2.6,7.4c-0.5,19.7,0.7,39.6-1.6,59.1
		c-5.4,44.2-11.8,88.3-19.4,132.2C279.2,498.2,272.1,517,266.6,536.3z M200.5,161.9l-2-0.3c-2.9,7.3-6.2,14.4-8.5,21.8
		c-10.2,32.9-11.4,66.4-9.2,100.2c0.1,1.3,2.5,3.6,3.9,3.6c9.4,0.5,18.9,0.6,28.4,0.6c4.8,0,6.9-2.1,6.3-6.4
		c-0.3-3.5-0.3-7,0.1-10.4c1.7-20.1,0.6-40.4-3.3-60.3C212.8,194,210.6,177,200.5,161.9z M200.2,98.8c6.5-4.5,14.1-5.2,21.6-4.7
		c7.7,0.5,15.4,1.2,23,2.5c13.4,2.2,26.9,4.5,38.3,11.6c17,10.8,31.9,23.7,44.3,38.3c0.8,1,1.8,1.9,2.8,2.8c0-1.4-0.4-2.8-1.2-4
		c-13.4-23.9-33.3-43.4-56.6-60.8c-2.3-1.7-5.2-2.8-8.2-3c-12.2-0.5-24.5-1.3-36.6-0.5c-10.2,0.8-21.2,1.5-28,10
		c-2.1-5-7.2-6.3-12.1-7.6c-15.6-4-31.6-4-47.6-2.6c-4.3,0.4-9.2,1.5-12.3,3.8c-23.3,17.3-43.1,37-56.5,60.8
		c-0.7,1.2-1.3,2.6-1.6,3.2c10.1-9.4,20.5-19.5,31.4-29c13.6-11.9,30-19.7,49.6-22.3c6.2-0.9,12.4-2.1,18.6-2.7
		C179.5,93.8,190.3,92.4,200.2,98.8z"/>
	<path class="st0" fill="$[hairColor]" stroke="#000000" stroke-width="4" d="M266.6,536.3c5.4-19.2,12.5-38.2,15.9-57.5c7.6-43.9,14-88,19.4-132.2c2.4-19.6,1.2-39.4,1.6-59.1
		c0.1-2.6-1-5.4,2.6-7.4c1-0.6,0.7-2.8,0.7-4.3c0.8-21.7-4-42.7-13-62.8c-6.4-14.2-13.5-28.1-20.9-42c-3.7-7.5-9.8-13.9-17.5-18.7
		c21.3,22.3,30.8,48.2,39.8,74.1c4.2,12.3,5.9,25.2,7.9,38c0.7,4.8-0.8,9.9-1.6,14.8c-0.1,0.9-1.7,1.8-2.9,2.2
		c-18.6,5.1-37.5,5.7-56.3,1.2c-1.8-0.4-3.9-2.7-4.2-4.3c-2.2-12.6-3.9-25.2-5.6-37.9c-3.8-27.8-14.1-54.6-30.1-79.2
		c-0.7-1.1-1.3-2.1-2.2-3.5c-8.9,13-16.1,26.7-21.6,41c-7.6,19.5-11.2,39.5-13,59.8c-0.8,7.1-2,14.2-3.6,21.1
		c-0.2,1.2-2.3,2.7-3.8,3.1c-18.5,4.3-38.1,3.8-56.4-1.2c-1.6-0.7-2.9-1.8-3.3-3.4c-2.8-12.8-1.2-25.6,2.2-38.3
		c6.2-23.5,16.1-45.9,28.5-67.6c3.5-6.1,8.4-11.8,12-18.4c-1.6,1.6-3.3,3.3-4.9,5c-1.7,1.7-3.3,3.5-4.7,5.6
		c-21.8,35-39.1,71-38.2,111.5c0,1.8,1.6,3.6,2.3,5.5c0.6,1.2,0.9,2.5,0.9,3.8c-2.6,54.8,6.8,108.9,15.6,163.1
		c3,18.1,6.9,36.2,11.2,54.2c2.7,11.2,7.1,22.1,11,34.1c-2.7-0.9-4.7-1.5-6.6-2.3c-18.4-7.8-34.6-18.8-47.5-32.4
		c-1.5-1.8-2.4-4-2.5-6.3c-5-48.1-7.5-96.3-4.3-144.6c2.1-31.2,5.5-62.3,8.5-93.4c0.5-4.6,2.1-9.1,3.2-13.7l-1.3-0.2
		c-1.9,9.5-4.4,19-5.7,28.6c-7.2,52.9-9.7,106.2-7.5,159.4c1.1,25.8,3.9,51.5,6,77.2c0.2,1.1-0.1,2-0.7,2.9
		c-0.4-1.2-0.9-2.5-1.3-3.8c-12.5-37.4-18.5-76.2-17.6-115.1c0.5-23.5-0.5-47.1,0.1-70.6c0.4-16.3,2.2-32.7,3.3-48.1
		c-4.5,12.3-4,26-7.5,39.5c-1.6-9.4-3.4-18.7-4.7-28c-2.7-20-5.3-40.1-3.1-60.3c2.2-20.5,7-40.6,16.2-59.6
		c3.2-6.7,8.8-12.8,14.1-18.6c12.4-13.8,26.4-26.4,43.1-36.8c12.7-8,27.6-10,42.4-12.5c7-1.2,14.2-1.9,21.4-1.7
		c5.3,0.2,10.5,2.5,15.7,3.6c1.4,0.3,2.9,0.3,4.3,0c4.7-1.2,9.4-3.6,14.1-3.6c18.8,0,37.4,3,54.8,8.9c5.2,1.7,10.1,4.7,14.6,7.8
		c17.7,12,32.4,26.1,45.4,41.8c13.4,16.1,17.8,34.7,21.1,53.2c2.8,15.4,3.8,31.1,3.1,46.7c-1.1,20-4.8,40-7.4,59.9l-1.5-0.1
		l-5.8-41.3l-1.5,0.2c7.6,48.4,3.5,97,3.6,145.5c0,32.1-8.5,63.2-19,95.2c1.9-23.7,4.3-46,5.3-68.4c1.1-22.7,1.4-45.4,0.9-68.3
		c-0.5-22.6-2-45.2-3.7-67.7c-1.8-22.4-3.5-44.9-9.9-64c11.2,65.8,13.6,134.5,10.1,203.3c-0.8,16.1-2.6,32.1-4.1,48.1
		c-0.1,1.5-0.7,3-1.6,4.2C310.5,513.7,283.2,531.4,266.6,536.3z M325.7,204c-1.2-33-20.8-56.6-52.9-74c-15.7-8.5-32.9-11.4-51.1-9.7
		c-6.3,0.6-12.4,3.2-18.5,4.9l0.5,1.3c4.4-1.4,8.8-3.5,13.4-4.1c17.3-2,34.1-0.4,49.6,7.1c28.1,13.6,47.7,32.9,55.2,59.9
		C323.2,194.4,324.4,199.1,325.7,204L325.7,204z M74.9,201.2c1.9-6.2,3.4-12.7,5.8-18.8c10.4-27.3,32.4-46,63.4-56.8
		c16.4-5.7,33.9-6.3,51-0.2c-3.9-1.9-7.8-4-12-4.5c-14.4-1.9-28.9-1.6-42.5,3.5c-26.1,9.9-45.9,25.4-58,47.4
		C77.4,180.9,74.8,191,74.9,201.2z"/>
	<path class="st0" fill="$[hairColor]" stroke="#000000" stroke-width="4" d="M200.5,161.9c10.1,15.1,12.3,32.1,15.7,48.8c3.9,19.9,5.1,40.2,3.3,60.3c-0.4,3.5-0.4,7-0.1,10.4
		c0.6,4.3-1.5,6.3-6.3,6.4c-9.5,0-18.9-0.1-28.4-0.6c-1.4-0.1-3.8-2.3-3.9-3.6c-2.2-33.7-1-67.3,9.2-100.2
		c2.3-7.4,5.6-14.5,8.5-21.8L200.5,161.9z"/>
	<path class="st0" fill="$[hairColor]" stroke="#000000" stroke-width="4" d="M200.2,98.8c-9.9-6.3-20.6-5-31.2-4c-6.2,0.6-12.4,1.8-18.6,2.7c-19.6,2.6-36,10.4-49.6,22.3
		c-10.9,9.6-21.3,19.7-31.4,29c0.3-0.5,0.9-1.8,1.6-3.2c13.4-23.9,33.2-43.5,56.5-60.8c3.1-2.3,8.1-3.5,12.3-3.8
		c16-1.3,32-1.4,47.6,2.6c4.9,1.2,10,2.6,12.1,7.6c6.8-8.5,17.8-9.3,28-10c12.1-0.9,24.4,0,36.6,0.5c3,0.3,5.9,1.2,8.2,3
		c23.2,17.4,43.1,36.9,56.6,60.8c0.8,1.2,1.2,2.6,1.2,4c-0.9-0.9-1.9-1.8-2.8-2.8c-12.4-14.6-27.3-27.5-44.3-38.3
		c-11.3-7.2-24.9-9.4-38.3-11.6c-7.6-1.2-15.3-2-23-2.5C214.2,93.6,206.6,94.2,200.2,98.8z"/>
	<path class="st0" fill="$[hairColor]" stroke="#000000" stroke-width="4" d="M200.4,73.1c7.4-2.9,14.8-5.8,22.2-8.6c0.5-0.1,1.1-0.1,1.6,0c15.3,2.5,30.3,5.5,41.8,15.8
		c-22.9-2-45.3-3.2-66.1,7.1c-20.2-10.4-42.7-9-65.9-7.9c5-2.9,9.5-6.5,15-8.3c8.3-2.9,17-5.8,25.8-6.1c6.3-0.3,12.9,3.2,19.3,5.2
		c2.2,0.9,4.4,1.7,6.5,2.9L200.4,73.1z"/>
	<path class="st0" fill="$[hairColor]" stroke="#000000" stroke-width="4" d="M200.5,73c-2.4-1.9-4.4-4.3-7.1-5.8s-6.1-2.2-10.4-3.6h33.7C210.7,66.6,202.6,66.2,200.5,73
		C200.4,73.1,200.5,73,200.5,73z"/>
	<path class="st0" fill="$[hairColor]" stroke="#000000" stroke-width="4" d="M325.7,204c-1.3-4.9-2.5-9.8-3.8-14.6c-7.6-27-27-46.3-55.2-59.9c-15.5-7.5-32.3-9.1-49.6-7.1
		c-4.6,0.6-8.9,2.7-13.4,4.1l-0.5-1.3c6.2-1.6,12.2-4.2,18.5-4.9c18.2-1.8,35.4,1.2,51.1,9.7C304.9,147.5,324.5,171.1,325.7,204z"/>
	<path class="st0" fill="$[hairColor]" stroke="#000000" stroke-width="4" d="M74.9,201.2c-0.2-10.2,2.5-20.2,7.7-29.4c12.1-22,31.9-37.6,58-47.4c13.6-5.1,28-5.4,42.5-3.5
		c4.2,0.6,8.1,2.7,12,4.5c-17.1-6.1-34.6-5.5-51,0.2c-31,10.6-53,29.3-63.4,56.8C78.3,188.5,76.8,194.8,74.9,201.2z"/>
</g>
</svg>
