<?xml version="1.0" encoding="utf-8"?>
<!-- Generator: Adobe Illustrator 23.0.5, SVG Export Plug-In . SVG Version: 6.00 Build 0)  -->
<svg version="1.1" id="Fronts" xmlns="http://www.w3.org/2000/svg" xmlns:xlink="http://www.w3.org/1999/xlink" x="0px" y="0px"
	 viewBox="0 0 400 600" style="enable-background:new 0 0 400 600;" xml:space="preserve">
<style type="text/css">
	.st0{stroke:#000000;stroke-width:5;}
</style>
<g>
	<path class="st0" d="M110.9,6.9c0.1,0.9,0.6,1,1.3,0.8C111.6,7.3,111,7,110.9,6.9z"/>
	<path class="st0" d="M198.9,26.9C199,26.9,199.1,26.8,198.9,26.9z"/>
	<path class="st0" d="M301.7,90.4C302.2,89.9,302,90,301.7,90.4z"/>
	<path class="st0" d="M159.1,237c-0.5-0.3,0.6,0.7,0.3,1L159.1,237z"/>
	<path class="st0" d="M125.9,282.1c0.1-0.1-0.8-0.1-0.9,0.3C125,282.4,125.8,282.4,125.9,282.1z"/>
	<path class="st0" d="M88.1,335.7C88.1,335.7,88.1,335.7,88.1,335.7z"/>
	<path class="st0" d="M255.3,276.9C255.3,276.9,255.3,277,255.3,276.9z"/>
	<path class="st0" d="M351,216.4c0.3-9.1,0.6,4.2,0.8-13.2c0.2-12.3,0.4,12.3,0.5,4c0.3-0.1,0.4-11.7,0.4-9.1
		c0,9.7-0.1-10.7-0.3-5.7c-0.2-12.4-0.5-2.8-0.7-12.5c-0.3,6.1-0.6,21.5-0.8-9.6c-0.3-0.5-0.5-25.7-0.6-8.7
		c-0.2-15.9-0.5,44.2-1.2-10.5c-0.8-3.2-2-16.2-4-10.1c-1.3,36.2-2.7-14-4.1-4.3c-1.4-3.5-2.9-10.7-4.4-12
		c-1.5-6.6-3.1-14.9-4.9-6.9c-1.7,5.9-3.5-14.9-5.4-8.9c-1.9,2.8-4-5.5-6.2-2.2c-2.2-0.3-4.5,11.2-7-8.7c-2.5,4.4-2,2.1-0.3-1.5
		c1.8-3.6,4.8-8.6,7.3-9.5c-1-1.5-1-2.4-1,7c1-10.7,3,3.8,3-4c-0.3-3.9-0.6-3.2-1-4c-0.4-0.8-0.8-3.2-1.1-13.5
		c-0.7-3.2-1-15.1-0.2-17.5c-0.4-3.2-1.1-6.5-1.6-10c0-1-4-1-6-1c5-12-6-20-14-28c0-1,2-3,3-4c-5-3-6-11-9-14c-7-7-12-16-19-22
		c1,0,2,0,3,0c-13-6-26-10-39-14c1,0,3,0,4,0c-17-3-34-8-51-6c1,0,2,0,3,0c-17,1-39,2-49,19c1,0,3,0,4,0c-3-1-6-2-8-1c-4,2-1,7-3,10
		c-18,19-36,36-49,59c-2.5,5-4.3,11.5-3.8,17.4c0.5,8.8,3.3,6.4,9.8,13.6c-3-3.3-6,2.6-7,6c-3,21.2,4,16.1,7,6
		c-2.5,7-6,14.4-9.9,6.3C80.3,91.9,76,83.7,72,94c3-6.4,4,14.1,2,8c-1.9,2.7-3.8,5.2-5.5,6.9c-0.9,8.1-1.7,3.9-2.5,14.9
		c-0.8-16.6-1.6,13.4-2.4-7.8c-1.7-11.4-3.3,7.7-4.8,12.7c-0.7-2.5-1.5,5.9-2.1-10.4c-0.7-15-1.3,15.9-2,14.2
		c-1.3-11.7-2.4,26.4-3.4,8.9c-0.5-3.6-1,2.2-1.4,12.8c-0.4,7.5-0.9,7.7-1.3-4.4c-0.8-10.7-1.4-1.1-2,1.2
		c-0.5,12.6-0.9,4.5-1.2,16.8c-0.4,13.9-0.5,3-0.4,14.2c0.1,12.5,0.2,19,0.5,2.9c0.2,15.8,0.5,19.1,0.9,10.5
		c0.3-12.1,0.6-11.6,0.9-4.2c0.2-22.1,0.3-6.7,0.4-5.2c0.1,7.3,0.1,2.6,0.2,8.9c0.1,10.8,0.1,10.5,0.2,10c0.5-22.8,0.9,13,0.9,10
		c0,4-0.8-12.7-1.6,8.7c-0.9-8.5-1.9,2.3-2.4-7.8c1,2.5,1.8-1.4,2.5,14.1c0.7,7.4,1.3,8.9,1.7-1.6c0.2-15.7,0.5-9.5,0.8-4.8
		c0.3-0.1,0.6,15.8,1,14.2c0.4,4.9,0.8,10,1.2,12.9c0.4,2.9,0.9,3.7,1.4,0c1.9,28.3,4.2,18.5,6.8,21.4c2.5-22,5.3,53.3,8.1,20.9
		c2.8-1.2,5.7,9.3,8.4,20.9c1,5.9-2,20.3-1,7c2,12.9,4,6.3,6,7.5c2-2.1,4,5,6,7.5c5-6,5-14,11-20c0-1-2-5.2-2-6
		c1,0.4,1.3,2.8,1.3-9.5c0-6.9-0.2-12.8-0.2-9.5c-1-8.6-2.8,1.6-4.5-25.8c-1.8-0.7-3.5-18-4.5-26c-1-8.3-1.3-31,0-25.6
		c0.6-4.2,1.6-8.4,3.1-12.5c1.5-3.9,3.4-8.2,5.9-12.2c2,29-2,81,30,91c0-9-6-16-7-24v1c-5-18-12-37-7-55h-1c1-7,3-14,5.2-20.6
		c1.4-3.3,3.2-6.4,5.6-9s5.4-4.8,9.2-6.3c0,0,0-3,1-4c2-2,5-3,8-2l-1-1c1-1,3-1,4-1c-4,4.5-7,9.5-9.1,14.9c-1.1,2.7-1.9,5.5-2.6,8.3
		C132,184,132,187,131,190c1,0,2,0,3,0c-9.2,20-5.1,51.8,14.4,63.6c3.9,2.4,8.5,3.9,13.7,4.4c4-8.7-0.1-16-4.2-23.4
		c-2.1-3.7-4.2-7.4-5.4-11.3c-1.2-6.3-2-7.7-2.4-11.7c-0.6-5.9-0.3-11.9,0.9-17.9c1.2-5.9,3.4-11.8,6.5-17.5c1.6-3,3.6-5.6,6-7.1
		s5.2-2.1,8.5-1.1c-1,1-1,1-2,2c2.3-0.8,4.6-0.6,7-0.1s4.9,1.3,7.3,2c4.3,5.4,8.8,0.3,12.5-2c3.7-2.4,6.7-4.9,8.2-2.9
		c1.9,1.8,4,2.5,6.2,4c1.1,0.7,2.3,1.6,3.4,2.9c1.2,1.3,2.3,2.9,3.5,5c0.9-0.9,2.9-1.9,3.9-1.9c9,10,10,23,12,35c0-1,1-3,1-4
		c-1,3-2,6-4.3,8.8c-1,1.3-2,2.6-2.8,3.9c-2.6,4-4.4,8.3-2.9,13.3c-1-1-1-2-1-3c-1,8-7,16,2,22c0-3,1-6,3-8c4,5,7,7,10,2
		c5-6,3-18,11-22c0,2-2,3-2,5c1-2,2.3-3.5,3.8-4.7c1.5-1.3,3-2.3,4.6-3.3c7.7-3,3.7-11,1.7-17c0,1,0,3,1,4c-3-5-5-11-7-16
		c0,2-2,3-2,5c-2-4-3-9-1-13c0,1-2,4,1,3c2-1,5-3,4-6c-1,0-3,0-4,0c0-1,0-3,0-4l-1,1c1-2-1-3-1-5c-1-2-2-1-2,1c-2-2-2-5-1.9-8.1
		c-1.1-2.1-2.2-4-3.7-5.7s-3.2-3.1-5.5-4.1c12.7-2.7,25.3,1.3,35,9c2.4,1.9,4.7,2.1,6.7,7.1c1-0.9,2-0.9,2.8,0.1
		c0.9,1.1,1.7,3.3,1.9,6.7C282,188,280,195,281,203c0-1,0-2-1-3c-1,8,8,14,1.9,22.6c-0.7,1.3-1.6,2.6-2.4,3.9
		c-2.5,3.8-5,7.6-5.5,12.6c0-2-1-2-2-3c1,8-1,15-5.8,21.5c-1.1,2.2-2.4,4.3-3.5,6.6c-1.5,2.8-2.5,5.7-2.8,9c0,2,3,3,5,2
		c-1,0-2,1-3,1c7,1,10-6,14-9h-1c1.4-1.8,2.7-3.7,3.8-5.6c3.7-12.6,7.2-24.9,11.2-36.7c0.6-1.7,1.1-3.4,1.7-5.1
		C295,217,288,212,293,209c1,2,1,5,3,6c-1-9-2-19,2-28c1,1-2,3,1,4c0-1,1-3,1-4v1c0-2,2-4,2-7c4,10,0,21,4,31c0-1,0-3,0-4
		c0,2,0,3,0.1,5.5c0,3.3-0.1,7.2-0.2,6.4c-0.1,4.1-0.2,6.8-0.3,8.5c0.5,0.6,0.5,2.6-1.6,2.6c-0.1-2.7-0.2-4.7-0.3-6.2
		s-0.2-2.4-0.4-2.8c-0.3-0.9-0.5,0-0.8,1.8C300,233,304,244,296,252c0-0.1,2,2.8,3,1c0,7.5-1.8,3-3.3,8.5c-1.5,2.8-2.8,5.5-1.8,8.5
		c2,4,8,4,12,2c-1,3-1,7-2,10c-0.7,3.3-1.5,6.6-1.9,10.2c-0.4,3.4-0.7,6.8-0.7,10.2c-0.1,10.1,1.6,20.1,6.6,29.6c4-3,9-5,12-8
		c4-6.5,7-12.3,9.9-17.9c1.4-2.8,2.8-5.6,4.3-8.4c3.3-4.8,6-13.5,8.3-15.4c2.3-8,4.1-34.6,5.4-16.9c1.4,6.9,2.3,7.7,2.9-17.7
		c0.4-8.2,0.6-3.9,0.7-12.4c0-6.2-0.1-21.9-0.5-14.2c0-6.7,2-3.8,2.6-3.3C352.6,222,351.8,205.7,351,216.4z M303.8,96.9
		c0.2,11.4-0.9,5.9-1.2,0.2C303,88.1,303.4,97.4,303.8,96.9z M111.7,95.6c-1.2-0.6-2.7-1.7-4.2-2.8
		C108.9,93.3,110.2,94.4,111.7,95.6z M209,162C208.9,162,208.8,162,209,162z"/>
	<path class="st0" d="M307.8,331.9C307.8,331.9,307.9,331.9,307.8,331.9z"/>
	<path class="st0" d="M187.4,172.9c-0.6,0.1-1.3,0.2-2.3,0.2C188.4,179.5,187.5,174,187.4,172.9z"/>
	<path class="st0" d="M44.2,171.6c-0.4,2.1-0.9-0.8-1.3-1.4C43.2,161.7,43.9,181.5,44.2,171.6z"/>
	<path class="st0" d="M187.4,172.9c2.2-0.3,2.1-0.7,0.5-1.2C187.4,172.1,187.3,172.5,187.4,172.9z"/>
</g>
</svg>
