<?xml version="1.0" encoding="utf-8"?>
<!-- Generator: Adobe Illustrator 27.2.0, SVG Export Plug-In . SVG Version: 6.00 Build 0)  -->
<svg version="1.1" id="Layer_4" xmlns="http://www.w3.org/2000/svg" xmlns:xlink="http://www.w3.org/1999/xlink" x="0px" y="0px"
	 viewBox="0 0 400 600" style="enable-background:new 0 0 400 600;" xml:space="preserve">
<g>
	<path fill="$[hairColor]" stroke="#000000" stroke-width="4" d="M410.1,326.4c-7,23.9-14.2,47.7-21,71.6c-0.9,3.6-1.3,7.2-1.4,11c-0.6,8.8,3.2,15.9,9.9,21.9
		c1.4,1.2,1.8,3.3,2.6,5c-2,0.4-4.4,1.6-6.3,1.3c-9.5-1.5-18-6.6-23.5-14.1c-3.1-4.3-6.9-8.2-11.1-11.7c3.9,7.9,7.5,15.9,11.6,23.9
		c1.9,3.8,4.5,7.4,6.6,11.1c0.5,0.9,0.2,2.1,0.3,3.1c-1.1-0.4-2.8-0.4-3.4-1.2c-4.8-7-9.3-14.2-14.1-21.2
		c-11.3-16.4-21-33.6-24.8-53.2c-0.2-0.6-0.5-1.1-0.9-1.6c-8.9,9.8-13.8,21-14.4,33.7c-0.9,17.5,0.6,34.5,7.1,51.1
		c0.7,1.7,0.8,3.6,0.3,5.4c-0.8-0.4-1.5-1-2.1-1.6c-11.2-16.9-17.5-36.2-18.4-56.1c-0.9-20.7,5.9-39.5,18.1-56.6
		c1.1-1.5,1.3-3.9,1.1-5.8c-0.6-7-1.5-14-2.3-21.1c-4.3,6.3-5.5,14.4-13.1,19.2c0-10.4,0.4-20.1-0.1-29.7c-0.4-7-0.9-14.3-2.9-21.1
		c-2.3-7.8-6.3-15.3-9.9-22.7c-1.2-2-3-3.6-5.3-4.6c-26.1-12.4-50.6-27-72.3-45.5c-6.1-5.2-11.7-11.1-17.3-16.3
		c-25.6,27-57.3,46.4-91.7,62.4c-2.4,1.2-4.7,2.8-6.5,4.8c-4.7,4.5-9.1,9.2-13.3,14.2c-2.5,3-4.4,6.6-5.4,10.4
		c-3.5,14.9-3.1,30-2.8,45.2v4.1c-4.3-0.3-5-3.3-5.6-6.2c-2.2-11.3-4.3-22.5-6.6-33.7c-1.9-9.6-4.3-19.2-6.5-28.8
		c-0.4-1.4-1.4-2.6-2.8-3.3c0.3,2.8,0.4,5.7,0.9,8.4c1.6,8.7-0.1,16.9-3.5,25c-4.9,11.7-9.8,23.4-14.4,35.2c-0.9,2.3-1,5.7,0.1,7.7
		c14.5,27.6,30.6,54.2,53.9,76.2c0.7,0.6,1.3,1.2,1.8,1.9c0.2,0.2,0.1,0.5,0.1,0.8c-10.3,2.5-46-27.1-65.6-54.8
		c-1.3,13.4-2,25.7,4,37.7c5.7,11.5,13.3,21.7,22,31.5l-0.8,1c-9.3-5.7-18.8-11.4-28.2-17.2c-8.8,7.4-18.9,12.1-32,12.4
		c1.5-1.2,2.2-1.8,3-2.3c7.9-5.8,9.2-13.8,8.6-22.5c-1.1-17.9-7.5-34.5-15.8-50.3c-4.6-8.8-6.8-17.7-6-27.1
		c0.9-12.5,0.5-25.1,4-37.6c3.1-11.1,8-21,16.3-29.2c9-9,18.5-17.6,27.6-26.4c1.2-1.2,2.5-3.1,2.4-4.7c-0.7-9.4,2.1-18.9,8.1-26.5
		c4.3-5.7,9.3-10.7,13.8-16.1c1.8-2.3,4-5,4.7-7.7c8.5-31.4,29-54.1,57.9-70.6c8.7-5,18.1-9.2,27.4-13.4c10.7-4.8,22.5-6.5,34.2-4.9
		c14.2,1.9,28.4,2.9,42.9,1c9.5-1.2,18.6,1.6,27.2,5.1c26.8,11.1,50.5,25.9,67.4,48.8c7.9,10.6,12.6,22.4,16.5,34.7
		c1.1,2.8,2.6,5.4,4.7,7.7c5.7,7.5,12.2,14.4,17.5,22.2c4.6,6.9,5.7,14.9,3.9,23c-0.7,3,0.5,4.7,2.3,6.9
		c9.7,11.4,19.7,22.7,28.7,34.7c6.9,9.1,10.6,19.9,12,31.2c0.2,0.8,0.5,1.7,0.8,2.4C410.1,317.7,410.1,322,410.1,326.4z M64.8,232.9
		c5.3-10,13.1-18.8,22.7-25.4c13-9,25.7-18.2,39.3-26.4c22.1-13.7,46.2-23.2,73.2-26.1c0.7-5.7,1.4-11.7,2.2-18.6
		c-9.9,0-19.4-1-28.6,0.2c-32.1,4.1-61.5,15.3-88.3,32.3c-7.4,4.7-13.4,10.3-15.5,19.7C66.4,203.2,64.3,217.8,64.8,232.9
		c0.2,3.3,0.5,6.7,0.6,10c0.1,4,2.3,5.3,6.1,4.3c5.7-1.5,11.7-2.5,16.9-5c12.7-5.7,25.9-10.7,37.4-18.2c24.3-15.9,47.6-33.2,71.3-50
		c1-0.6,1.7-1.6,2-2.7c0.5-4.6,0.6-9.2,0.9-15.4c-11.3,2.8-21.8,4.5-31.7,8c-38.7,14.3-72.3,35.6-99.7,65.2
		C67.4,230.4,66.1,231.7,64.8,232.9z M302.1,266.7c3.8,10.8,9.1,21.3,11,32.5c1.8,11,0.4,22.3,0.4,33.3c5-7,10.6-22.3,12.2-30.8
		c1.7-9.2,3.6-18.4,10.2-26.1c1.9-2.2,4.1-5,4.4-7.7c0.6-5,0-10.3-0.6-15.2c-0.1-1-2.1-2.4-3.5-2.6c-22.1-2.4-42.2-10.4-61.4-20.6
		c-26.4-14-49.1-33.3-66.8-56.4c-1.1-1.7-2.2-3.6-3.1-5.5c1.1,0.1,1.5,0,1.7,0.2c0.4,0.4,0.9,0.8,1.2,1.3
		c16,21.1,36.3,39.1,59.9,52.7c20.4,12,42,21.1,66.3,24.1c2.5,0.3,5.1,0.3,7,0.4c4.4-10.4,0.4-17.2-8.1-23.6
		c-14.1-10.8-28.6-20.8-44.7-29c-22.7-11.6-45.6-22.6-70.5-29.6c-4.7-1.3-9.5-1.6-14.9-2.4c0,9.2,0.1,17.5,0,25.7
		c-0.1,5.7,1.8,10.9,6.2,14.7c8.5,7.9,17,16,26.4,23c19.3,14.6,39.8,27.4,62.8,36.4l32.7,13c0.3,0.1,0.5,0.6,0.6,0.9
		c-0.2,0.4-0.4,0.8-0.6,1.2C320.9,273.3,311.3,270,302.1,266.7z M203,159.5c27.3,2.6,50.5,15,74.1,26c23.7,11,45.7,24.6,65.5,43
		c-0.5-13.8-1.6-26.3-5.1-38.4c-1.7-6.2-3.5-12.2-8.7-16.5c-10.1-8.5-19.7-17.7-30.4-25.7c-15.8-12-34.1-17.7-54.3-13.3
		c-10.4,2.1-20.3,5.7-30.2,9.2C201.9,148.3,203.2,149,203,159.5L203,159.5z M359.2,252c3.1,2.5,6.1,4.7,8.6,7.1
		c16.1,15.5,27.5,49.8,5.2,74.7c-6.2,6.8-12.7,13.3-19.6,19.5c-4.1,3.7-5.9,7-4.6,12.3c1,4.3,0.7,8.7,1.3,13.1
		c1.3,10.7,3.1,21.2,11.2,29.7c6.2,6.6,12.1,13.5,18.8,19.6c4.1,3.7,9.2,6.8,15.5,5.9c0.1-0.6,0.2-0.8,0.1-0.9
		c-0.4-0.5-0.8-0.9-1.2-1.3c-7.8-5.3-11.1-12.7-10.6-21.4c0.4-6.3,0.8-12.7,2.7-18.7c4.8-15.1,10.4-30.1,15.5-45.1
		c8.8-25.4,5.5-49.1-10.6-71.3c-8-11.1-16.7-21.6-26.9-31.1C362.6,246.9,360.9,249.6,359.2,252L359.2,252z M80.3,323.7
		c0.5-6.6,0.8-13.3,1.3-20c0.7-11,2.9-21.2,12.6-28.8c2-1.6,3.6-4.1,5.4-6.1c-8.1,1.8-15.4,5.1-23.4,5.7c2.4-1.4,5.2-2.1,7.7-3
		c27.7-9.5,53.9-22.9,77.5-39.7c13-9.2,24.7-20.2,36.8-30.4c1.7-1.6,2.7-3.9,2.8-6.2c-0.3-6.1-1.3-12.1-2.1-18.6
		c-1.3,1-2.2,1.6-3.1,2.3c-17,12.4-33.7,25.3-51.2,37.1c-22.7,15.5-46.7,28.9-74.7,34.4c-0.9,0.2-1.7,0.8-2.2,1.6
		c-2.9,6-1,15.8,2.4,19.2c-0.4,2.6-1.1,4.4-0.8,5.7C72.7,292.6,76.6,308.1,80.3,323.7L80.3,323.7z M6.9,378c0.4-4.4,0.5-8.7,1.1-13
		c1.8-11.1,8.1-20.4,14.1-29.9c2.5-4.1,4.7-7.7,4.6-13.2c-0.3-15.7,2.5-31.4,9.7-45.8c4.1-7.7,6.5-16.2,6.9-24.9
		c0.2-3.7-0.7-7.5-1.1-11.2c-0.7-0.2-1.3-0.3-2-0.4C28.7,251.6,17,263.3,6,275.5c-3.5,3.9-5.6,9.1-7.5,14.1
		c-6.9,18.4-6.9,37.4-6,56.4c0.2,1.9,0.8,3.8,1.7,5.5C-1.8,360.3,2.6,368.9,6.9,378z M351.8,262.1c7.6,7.6,11.1,16.4,10.4,26.3
		c-1.2,15.8-9.3,29.6-18.3,42.6c-4.6,6.7-11,12.3-15.7,18.8c-19.4,26.2-22.3,54.5-12.2,84.5c0.6,1.5,0.9,3,1.6,4.6
		c0.6,1.3,1.2,2.5,1.4,3c-0.6-10.3-1.1-21.1-1.7-32.1c-0.8-17.2,7.4-31.4,18.1-44c7.3-8.7,17.1-15.5,25.6-23.4
		c7.7-7.1,14.8-14.9,18.3-24.7c7-19.6,1.6-37.1-10.5-53.5c-2.8-3.8-6.8-6.9-10.7-10.6C355.6,257,353.7,259.3,351.8,262.1
		L351.8,262.1z M54,260.8c1.9,17.1-4.7,31.5-12.7,45.5c-6.4,11.3-13.1,22.3-19.9,33.4C15.3,349.8,9,360,9.3,372.1
		c0.4,31.2,17.2,47.3,43.7,60.4c0-0.1,0.1-0.3,0-0.3c-1.1-1.6-2.2-3.1-3.5-4.7c-17.6-21-21.4-44.7-13.2-69.8
		c5.1-16,11.3-31.7,18.4-47c6-12.8,7.5-25.5,5.8-39C60,267.2,58.6,263.9,54,260.8L54,260.8z M74.7,174.1
		c27.2-21.7,58.4-33.5,92.1-40c11.7-2.3,23.3-1.3,35.7,1.5c-0.6-3.5,0.1-7.1-1.6-8.8c-7.5-7.7-16.3-14.2-28-14.3
		c-10.9-0.1-21.8,0.4-32.7,1.4c-4.5,0.3-9.6,1.2-13.2,3.6c-9.7,6.3-19.1,13.2-27.9,20.6C87.9,147.7,80.2,159.8,74.7,174.1
		L74.7,174.1z M329.3,170.2c0.3-0.2,0.5-0.3,0.7-0.5c-0.1-0.5-0.3-1.1-0.6-1.6c-1-2-1.9-4-3.1-5.9c-12.8-22.3-32.9-37.4-55.9-49.2
		c-1.8-0.8-3.8-1.3-5.8-1.3c-20.5-0.7-39.2,4.9-57,13.7c-0.6,0.3-1.1,0.9-1.2,1.6c-0.6,6.2-1.2,12.4-1.8,18.5
		c12.5-5.7,25.4-10.6,39.1-13.2c25.4-4.9,46.5,2.9,64.7,19.2L329.3,170.2z M329.8,342.6c4.3-5.1,7.6-9,10.8-13.2
		c0.7-1.1,1-2.4,0.7-3.7c-2-10.6,0.2-20.3,5.6-29.6c3-5.1,5.7-10.4,8-15.7c2.8-6.8,1.3-10.7-4.9-15.7c-3,2.7-6.2,5.4-9.1,8.2
		c-1.8,1.6-3.5,3.5-4.8,5.6c-4.4,8.3-6.6,17.3-7.5,26.5C327.3,317.1,328,329.1,329.8,342.6L329.8,342.6z M41.1,346.9
		c-0.9,3.3-2,6.8-3.2,10c-2,5-1.1,9.2,1.7,13.7c11.4,18,27.1,33.2,45.9,44.4c0.3,0.2,0.7,0.2,1.1,0.2c-7.9-11.1-16-21.8-23.6-33.1
		C55.4,370.6,48.5,359,41.1,346.9z M140.1,110.8c22.6-2.3,44.7-4.8,62.1,13.9c0.6-7.7,1.3-14.1,1.6-20.5c0-1-1.3-2.7-2.2-2.9
		C180.2,97.6,159.7,98.4,140.1,110.8z M206.3,122.2c8.7-3.2,17.1-7,25.9-9.3c8.8-2.3,18.2-3.3,26.8-5c-11-7.6-35.5-10.1-51.7-5
		C207,109.4,206.7,116,206.3,122.2L206.3,122.2z M51,256.6c-13.6,15.8-11.8,33.8-13.6,51.2C49.8,289.2,54.9,270.9,51,256.6z
		 M345.5,361c-2,1.8-2.9,2.7-3.9,3.5c-4.4,3-5.2,6.7-3.1,11.5c2,5,2.9,10.3,5.1,15c4.3,9.1,9,18.1,13.6,27c0.6-0.2,1.1-0.4,1.8-0.6
		C350.1,399.8,345.5,380.5,345.5,361L345.5,361z M358.6,281c-6.4,14-19,26.3-14.9,44.5C353.3,311.4,360.2,297.6,358.6,281L358.6,281
		z M62.6,265.9c0.6-0.1,1.2-0.3,1.8-0.3c0-6.4,0.3-12.9-0.1-19.3c-0.4-5.5-1.6-11-2.1-16.3c-0.2-2.6-0.2-5.3-0.1-7.8l-2.3-0.3
		c-1.5,6.2-3.9,12.3-4.4,18.5c-0.5,6.1-1.9,12.7,4.2,18.6c-2-0.4-2.7-0.6-4.2-1C58,260.9,60.3,263.5,62.6,265.9z M345.5,222.7
		c-0.3,4.5-0.2,8.8-0.8,13c-1.5,10-4.3,20.1-0.4,30C355.5,256.6,353.5,231.3,345.5,222.7L345.5,222.7z M54.4,256.2
		c-0.6-1.8-1-3.8-1.3-5.7c-0.8-9.7,0.5-19.3,5.8-27.9c2.9-4.7,3.9-7.9,2.6-13.7c-7.5,8.1-12.7,16.6-14.3,27.6
		c-1.1,7,0.9,11.7,5,16.6C52.8,253.8,53.2,254.6,54.4,256.2L54.4,256.2z M12.8,401c1.4,11.2,3.1,22.4-6.4,31.8
		c0.4,0.3,0.6,0.6,1,0.9c7.6-4.1,15.1-8.1,22.2-11.9C23.6,414.3,18.2,407.7,12.8,401z M345.2,210.1c0.2,5.1-1.1,10.6,3.8,14.6
		c1.1,1,1.7,2.8,2,4.4c1.3,6.3,2.3,12.6,3.6,19c0.3,1,0.7,1.9,1.2,2.9c1-0.7,2-1.4,2.9-2.2c2.9-3,0.9-6.6,0.9-10
		C359.5,226.9,353.3,218.2,345.2,210.1z M63.9,195.3c-16.3,15.1-24.5,32.8-18,43.9c-0.6-12,4.7-21.3,12.5-29.5
		C62.5,205.6,64,201,63.9,195.3L63.9,195.3z M343.7,196.4c-0.5,0.2-0.9,0.3-1.3,0.4c1.3,3.7,1.7,7.9,4.2,10.8
		c7.6,9,14.9,18.1,14.8,31C368.1,227.8,358,209.7,343.7,196.4z M29.1,323.1c3.7-5.1,6-9.2,5.7-14.6c-0.3-5,0.6-10.3,1.2-15.2
		c0.4-3.7,0.9-7.1,1.5-10.7C31.5,295.2,30,308.6,29.1,323.1z M45.2,249.4c-0.4,3.7-0.7,6.8-1,9.9C46.7,256.4,50.8,253.4,45.2,249.4
		L45.2,249.4z"/>
	<g id="haircolor_00000147929769633385685820000008571469414138468770_">
		<path fill="$[hairColor]" stroke="#000000" stroke-width="4" d="M302.1,266.7c9.2,3.1,18.9,6.5,28.5,9.8c0.2-0.4,0.4-0.8,0.6-1.2c-0.2-0.3-0.4-0.8-0.6-0.9l-32.7-12.9
			c-23-9-43.6-21.8-62.8-36.4c-9.3-7.1-17.8-15.2-26.4-23c-4.3-3.9-6.2-9-6.2-14.7c0.1-8.2,0-16.3,0-25.7c5.4,0.9,10.4,1.1,14.9,2.4
			c24.9,7,47.9,18.1,70.5,29.6c15.9,8.1,30.6,18.2,44.7,29c8.4,6.4,12.3,13.2,8.1,23.6c-2.3,0-4.7-0.2-7-0.4
			c-24.3-2.8-45.9-12.1-66.3-24.1c-23.6-13.6-43.9-31.6-59.9-52.7c-0.4-0.5-0.8-0.9-1.2-1.3c-0.2-0.2-0.6-0.1-1.7-0.2
			c0.9,1.9,1.9,3.8,3.1,5.5c17.7,23.1,40.5,42.3,66.8,56.4c19.2,10.4,39.3,18.2,61.4,20.6c1.3,0.2,3.4,1.6,3.5,2.6
			c0.6,5,1.1,10.3,0.6,15.2c-0.3,2.6-2.3,5.5-4.4,7.7c-6.6,7.7-8.5,16.8-10.2,26.1c-1.5,8.4-7.2,23.8-12.2,30.8
			c0-11,1.5-22.3-0.4-33.3C311.2,288.1,305.8,277.6,302.1,266.7z"/>
		<path fill="$[hairColor]" stroke="#000000" stroke-width="4" d="M203,159.5c0.2-10.6-1.2-11.3,10.9-15.7c9.8-3.7,19.9-7.1,30.2-9.2c20.3-4.3,38.6,1.3,54.3,13.3
			c10.6,8,20.2,17.1,30.4,25.7c5.3,4.5,7,10.4,8.7,16.5c3.4,12.3,4.6,24.7,5.1,38.4c-19.8-18.5-41.7-32.1-65.5-43
			C253.4,174.7,230.3,162.2,203,159.5z"/>
		<path fill="$[hairColor]" stroke="#000000" stroke-width="4" d="M359.2,252.1c1.7-2.4,3.4-5,5.4-7.9c10.4,9.5,19,20.1,26.9,31.1c16,22.1,19.6,45.9,10.6,71.3
			c-5.3,15-10.8,29.9-15.5,45.1c-1.8,6-2.3,12.4-2.7,18.7c-0.5,8.7,2.8,16.1,10.6,21.4c0.5,0.4,0.9,0.8,1.2,1.3
			c0.1,0.1,0,0.3-0.1,0.9c-6.4,0.8-11.6-2.3-15.5-5.9c-6.8-6.1-12.7-13-18.8-19.6c-8-8.4-9.8-19.1-11.2-29.7
			c-0.6-4.4-0.2-8.9-1.3-13.1c-1.3-5.3,0.6-8.6,4.6-12.3c6.9-6.1,13.5-12.6,19.6-19.5c22.3-24.9,11-59.2-5.2-74.7
			C365.3,256.7,362.4,254.6,359.2,252.1z"/>
		<path fill="$[hairColor]" stroke="#000000" stroke-width="4" d="M64.8,232.9c1.3-1.2,2.6-2.4,3.9-3.8c27.4-29.5,61.1-50.8,99.7-65.2c9.7-3.7,20.3-5.2,31.7-8
			c-0.4,6.2-0.5,10.9-0.9,15.4c-0.1,1-1.1,2-2,2.7c-23.8,16.7-47,34.1-71.4,50c-11.4,7.5-24.7,12.5-37.4,18.2
			c-5.3,2.3-11.3,3.3-16.9,5c-3.9,1-6-0.3-6.1-4.3C65.3,239.6,65.1,236.3,64.8,232.9L64.8,232.9z"/>
		<path fill="$[hairColor]" stroke="#000000" stroke-width="4" d="M64.9,232.9c-0.5-15,1.5-29.7,4.9-44.5c2.1-9.4,8.1-14.9,15.5-19.7c26.8-16.9,56.2-28.2,88.3-32.3
			c9.2-1.1,18.6-0.2,28.6-0.2c-0.8,7-1.6,12.9-2.2,18.6c-27.1,2.8-51.1,12.4-73.2,26.1c-13.4,8.3-26.3,17.5-39.3,26.4
			C77.9,214,70.2,222.8,64.9,232.9z"/>
		<path fill="$[hairColor]" stroke="#000000" stroke-width="4" d="M80.3,323.8c-3.9-15.6-7.7-31.1-11.4-46.7c-0.4-1.4,0.4-3,0.8-5.7c-3.5-3.2-5.4-13.2-2.4-19.2
			c0.5-0.8,1.3-1.3,2.2-1.6c28-5.6,52-19.1,74.7-34.4c17.5-11.9,34.1-24.8,51.2-37.1c0.9-0.7,1.8-1.4,3.1-2.3
			c0.8,6.5,1.8,12.5,2.1,18.6c-0.1,2.3-1.1,4.6-2.8,6.2c-12.1,10.4-23.9,21.2-36.8,30.4c-23.6,16.7-49.6,30.1-77.5,39.7
			c-2.6,0.7-5.3,1.7-7.7,3c8-0.6,15.3-3.8,23.4-5.7c-1.8,2-3.1,4.4-5.4,6.1c-9.6,7.6-11.9,17.9-12.6,28.8
			C81.1,310.5,80.7,317.1,80.3,323.8z"/>
		<path fill="$[hairColor]" stroke="#000000" stroke-width="4" d="M6.9,378c-4.4-8.9-8.6-17.7-12.8-26.5c-0.9-1.7-1.5-3.6-1.7-5.5c-0.9-19.1-0.9-38.2,6-56.4
			c1.8-5,4-10.1,7.5-14.1c11.2-12.4,22.8-24.1,34.3-35.9c0.7,0.2,1.3,0.3,2,0.4c0.4,3.7,1.2,7.5,1.1,11.2
			c-0.5,8.6-2.8,17.1-6.9,24.9c-7.2,14.4-10.1,30-9.7,45.8c0.1,5.6-2.1,9.1-4.6,13.2c-5.9,9.5-12.1,18.9-14.1,29.9
			C7.2,369.2,7.2,373.6,6.9,378z"/>
		<path fill="$[hairColor]" stroke="#000000" stroke-width="4" d="M351.8,262.1c1.9-2.7,3.8-5.1,6.2-8.4c3.8,3.7,7.8,6.7,10.7,10.6c12,16.3,17.5,33.9,10.5,53.5
			c-3.6,9.7-10.6,17.6-18.3,24.7c-8.4,7.8-18.2,14.7-25.6,23.4c-10.7,12.7-19,26.9-18.1,44c0.6,11,1.1,21.8,1.7,32.1
			c-0.2-0.4-0.8-1.6-1.4-3c-0.6-1.5-1-3-1.6-4.6c-10.2-29.9-7.2-58.5,12.2-84.5c4.9-6.5,11.3-12.1,15.7-18.8
			c8.9-13,17.1-26.8,18.3-42.6C362.9,278.6,359.4,269.7,351.8,262.1z"/>
		<path fill="$[hairColor]" stroke="#000000" stroke-width="4" d="M54,260.8c4.6,3.1,6,6.5,6.6,11c1.7,13.6,0.2,26.3-5.8,39c-7.3,15.2-13.5,30.9-18.6,46.9
			c-8.1,25.1-4.4,48.7,13.2,69.8c1.2,1.5,2.3,3,3.5,4.7c0.1,0.1,0,0.3,0,0.3c-26.6-13.2-43.3-29.2-43.7-60.4
			C9,360,15.3,349.8,21.4,339.7c6.8-11.1,13.5-22.1,19.9-33.4C49.3,292.3,56,277.9,54,260.8z"/>
		<path fill="$[hairColor]" stroke="#000000" stroke-width="4" d="M74.7,174.1c5.5-14.2,13.2-26.4,24.5-36c8.8-7.4,18.1-14.3,27.9-20.6c3.6-2.3,8.7-3.1,13.2-3.6
			c10.9-1,21.7-1.4,32.7-1.4c11.8,0.3,20.5,6.7,28,14.3c1.7,1.6,1,5.4,1.6,8.8c-12.6-2.8-24.2-3.8-35.7-1.5
			C133.1,140.6,101.9,152.2,74.7,174.1z"/>
		<path fill="$[hairColor]" stroke="#000000" stroke-width="4" d="M329.3,170.2l-20.9-18.9c-18.2-16.3-39.3-24.1-64.7-19.2c-13.7,2.6-26.6,7.5-39.1,13.2
			c0.6-6.2,1.1-12.4,1.8-18.5c0.2-0.6,0.6-1.2,1.2-1.6c17.9-8.8,36.7-14.4,57-13.7c2,0,4,0.5,5.8,1.3c23,12,43.2,27,55.9,49.2
			c1.1,1.9,2,4,3.1,5.9c0.2,0.5,0.4,1,0.6,1.6C329.7,169.8,329.5,170,329.3,170.2z"/>
		<path fill="$[hairColor]" stroke="#000000" stroke-width="4" d="M329.7,342.6c-1.8-13.5-2.3-25.6-1-37.7c1-9.2,3.1-18.2,7.5-26.5c1.3-2,2.8-4,4.8-5.6
			c2.9-2.8,6.1-5.5,9.1-8.2c6.2,5,7.7,8.9,4.9,15.7c-2.2,5.4-5,10.7-8,15.7c-5.5,9.3-7.7,19.1-5.6,29.6c0.2,1.3,0,2.6-0.7,3.7
			C337.4,333.6,333.9,337.6,329.7,342.6z"/>
		<path fill="$[hairColor]" stroke="#000000" stroke-width="4" d="M41.1,346.9c7.4,11.9,14.3,23.8,21.9,35c7.6,11.4,15.6,22.2,23.6,33.2c-0.4,0.1-0.8,0-1.1-0.2
			c-18.9-11.1-34.6-26.3-45.9-44.4c-2.8-4.5-3.8-8.8-1.7-13.7C39.2,353.7,40.2,350.3,41.1,346.9z"/>
		<path fill="$[hairColor]" stroke="#000000" stroke-width="4" d="M140.1,110.8c19.6-12.4,40.2-13.2,61.5-9.5c0.9,0.2,2.2,1.9,2.2,2.9c-0.3,6.4-0.9,12.8-1.6,20.5
			C184.9,106,162.8,108.5,140.1,110.8z"/>
		<path fill="$[hairColor]" stroke="#000000" stroke-width="4" d="M206.3,122.2c0.3-6.3,0.6-12.8,0.9-19.3c16.1-5.1,40.8-2.5,51.7,5c-8.7,1.5-18.1,2.5-26.8,5
			C223.6,115.2,215.2,119,206.3,122.2z"/>
		<path fill="$[hairColor]" stroke="#000000" stroke-width="4" d="M51,256.6c4,14.3-1.2,32.7-13.6,51.1C39.2,290.4,37.5,272.4,51,256.6z"/>
		<path fill="$[hairColor]" stroke="#000000" stroke-width="4" d="M345.5,361c0,19.5,4.6,38.7,13.4,56.3c-0.6,0.2-1.1,0.4-1.8,0.6c-4.6-9-9.3-17.9-13.6-27
			c-2.2-4.8-3.1-10.1-5.1-15c-1.9-4.8-1.1-8.3,3.1-11.5C342.6,363.6,343.4,362.7,345.5,361z"/>
		<path fill="$[hairColor]" stroke="#000000" stroke-width="4" d="M358.6,281c1.6,16.3-5.4,30.3-14.9,44.5C339.6,307.3,352.2,295.1,358.6,281z"/>
		<path fill="$[hairColor]" stroke="#000000" stroke-width="4" d="M62.6,265.9c-2.2-2.5-4.6-5-7.2-8c1.4,0.3,2,0.4,4.2,1c-6.1-5.9-4.6-12.5-4.2-18.6c0.5-6.3,2.8-12.4,4.4-18.5
			l2.3,0.3c-0.2,2.6-0.1,5.3,0.1,7.8c0.6,5.5,1.8,11,2.1,16.3c0.4,6.4,0.1,12.9,0.1,19.3C63.8,265.7,63.2,265.8,62.6,265.9z"/>
		<path fill="$[hairColor]" stroke="#000000" stroke-width="4" d="M345.5,222.7c8,8.5,9.9,33.8-1.1,43c-3.9-9.9-1.1-20,0.4-30C345.3,231.5,345.3,227.2,345.5,222.7z"/>
		<path fill="$[hairColor]" stroke="#000000" stroke-width="4" d="M54.4,256.2c-1.2-1.6-1.7-2.3-2.2-3c-4.1-5-6.1-9.6-5-16.6c1.7-11,6.8-19.6,14.3-27.6c1.2,5.8,0.2,9-2.6,13.7
			c-5.4,8.6-6.7,18.2-5.8,27.9C53.4,252.5,53.9,254.3,54.4,256.2z"/>
		<path fill="$[hairColor]" stroke="#000000" stroke-width="4" d="M12.8,401c5.5,6.8,10.8,13.3,16.9,20.8c-7,3.8-14.6,7.8-22.2,11.9c-0.4-0.3-0.6-0.6-1-0.9
			C16,423.3,14.2,412.1,12.8,401z"/>
		<path fill="$[hairColor]" stroke="#000000" stroke-width="4" d="M345.2,210.1c8.1,8.2,14.3,16.9,14.3,28.6c0,3.5,1.9,7-0.9,10c-0.9,0.8-1.8,1.5-2.9,2.2
			c-0.5-0.9-0.9-1.9-1.2-2.9c-1.2-6.4-2.2-12.6-3.6-19c-0.3-1.5-0.8-3.3-2-4.4C344.1,220.5,345.4,215.2,345.2,210.1z"/>
		<path fill="$[hairColor]" stroke="#000000" stroke-width="4" d="M63.9,195.3c0.1,5.8-1.4,10.4-5.4,14.4c-7.9,8.1-13.2,17.5-12.5,29.5C39.3,228,47.5,210.3,63.9,195.3z"/>
		<path fill="$[hairColor]" stroke="#000000" stroke-width="4" d="M343.7,196.4c14.3,13.2,24.3,31.4,17.6,42c0.1-12.9-7.2-21.8-14.8-31c-2.3-2.8-2.8-7.1-4.2-10.8
			C342.8,196.7,343.3,196.6,343.7,196.4z"/>
		<path fill="$[hairColor]" stroke="#000000" stroke-width="4" d="M29.1,323.1c0.8-14.5,2.3-28,8.4-40.6c-0.5,3.6-1.1,7.1-1.5,10.7c-0.6,5.1-1.5,10.3-1.2,15.2
			C35,313.9,32.7,318.1,29.1,323.1z"/>
		<path fill="$[hairColor]" stroke="#000000" stroke-width="4" d="M45.2,249.5c5.6,4.1,1.5,6.9-1,9.9C44.5,256.2,44.8,253,45.2,249.5z"/>
	</g>
</g>
</svg>
