<?xml version="1.0" encoding="utf-8"?>
<!-- Generator: Adobe Illustrator 27.2.0, SVG Export Plug-In . SVG Version: 6.00 Build 0)  -->
<svg version="1.1" id="Capa_1" xmlns="http://www.w3.org/2000/svg" xmlns:xlink="http://www.w3.org/1999/xlink" x="0px" y="0px"
	 viewBox="0 0 400 600" style="enable-background:new 0 0 400 600;" xml:space="preserve">
<style type="text/css">
	.st0{stroke:#000000;stroke-width:4;}
</style>
<g>
	<path class="st0" fill="$[hairColor]" stroke="#000000" stroke-width="4" d="M83.9,350.5c-2.9-2.7-5.7-5.4-8.7-8c-19.6-16.4-25.8-36.4-20.6-59.4c1.4-6.3,2.3-12.7,4.2-18.8
		c1-2.4,3.1-4.5,5.9-5.6c5.1-1.7,6.9,0.1,7.5,4.8c3.4,26.2,3,52.9,10.4,78.8c0.7,2.6,1.5,5.2,2.3,7.8L83.9,350.5z M77.7,338.2
		c-9.2-20-9.1-41.4-13.2-62.2h-1.3l-3.3,24.5c-2.5-5.8,0.8-26.7,5.5-30.9c2.5,16,5,31.5,7.4,46.9c0.8-0.5,1-1,1-1.3
		c-1.1-17.2-2.2-34.5-3.4-51.8c-0.1-1-0.7-2.6-1.4-2.8c-1.3-0.3-3.4-0.2-4.2,0.5c-1.7,1.7-3.6,3.6-4.1,5.7
		c-1.3,5.2-1.2,10.8-2.8,15.8c-2.7,8.6-2.2,17-0.8,25.5C59.2,320.2,66.6,331,77.7,338.2L77.7,338.2z"/>
	<path fill="$[hairColor]" stroke="#000000" stroke-width="4" d="M77.7,338.2c-11.2-7.2-18.6-17.9-20.5-30c-1.5-8.5-1.9-17,0.8-25.5c1.6-5.2,1.5-10.6,2.8-15.8c0.5-2.1,2.4-4,4.1-5.7
		c0.8-0.7,2.9-0.9,4.2-0.5c0.7,0.2,1.3,1.8,1.4,2.8c1.2,17.3,2.3,34.5,3.4,51.8c0,0.6-0.4,1.1-1,1.3c-2.4-15.5-4.9-30.9-7.4-46.9
		c-4.7,4.2-8,25-5.5,30.9l3.2-24.5h1.3C68.6,296.7,68.5,318.1,77.7,338.2z"/>
</g>
<g id="bangs">
	<path class="st0" fill="$[hairColor]" stroke="#000000" stroke-width="4" d="M195.2,255.2c-19.5-2.4-38.2-4.5-56.9-7.3c-4.3-0.6-8-3.4-12-5.1c-2.5-1-5.1-1.8-7.9-2.4
		c-3.6-0.7-7.1-1.1-11.6-1.8c-2.9,8.4-6.3,16.7-8.5,25.3c-3.5,13.9-6.2,27.8-8.9,41.8c-5.7,30.1-1.2,59.7,5.7,89.3
		c0.6,2.4,1.8,2.7,4.6,3.1c6.9,1.2,13.8,3,20.5,4.7c1.3,0.5,2.3,1.4,2.9,2.4l-25.7-6.6l-1.1,1.2c1.4,5.9,2.3,12,4.3,17.8
		c1.8,5.6,4.8,11,7.5,17.1c-1.4-0.7-2.9-1.5-4.2-2.4c-9.7-8.1-17.8-17.5-24.2-27.4c-2.9-4.5-6.3-8-11.7-11
		c-11.6-6.3-22.4-13.5-33.9-20c-4.4-2.5-6.5-5.2-7-9.5c-0.3-3.1-2.5-6.3-4.1-9.3c-2.2-4.5-4.8-8.9-7-13.4
		c-5.2-10.1-3.6-20.6-2.4-30.9c4.9-43,20-84.3,35.8-125.4c6.2-16.3,14.6-31.7,27.1-45.3c8.4-9,18.7-16.8,28.9-24.5
		c13.4-10.2,28.5-19,45-26c10-4.2,21.3-6.3,32.6-5.9c12.4,0.3,24.9,0.4,37.3,0c15.4-0.5,28.2,4.7,40.7,10.8
		c19.5,9.7,36.6,21.7,52.1,35.3c17.5,15.2,30.2,33.7,36.9,53.7c9.2,27,18.8,53.8,27.4,80.9c6.7,21.2,10.5,42.8,10.1,64.8
		c-0.1,7.2-4.4,14.5-7.6,21.4c-2.9,6.2-7.4,11.8-8,18.7c-0.1,0.9-0.5,1.7-1.3,2.4c-12.4,7.5-24.6,15.3-37.5,22.3
		c-6,3.1-9.5,7.3-13.2,12c-7.3,9.2-15.6,17.9-23.6,26.8c-1.1,1-2.8,1.8-4.5,2c9.2-10.5,8.8-22.8,12.3-35.1c-9.8,0.3-18,3-26,6.4
		l-0.7-0.8c0.8-0.6,1.5-1.7,2.4-1.9c6.8-1.7,13.6-3.6,20.5-4.8c2.8-0.5,4.2-0.9,4.7-3.1c6.8-28.8,10.3-57.8,6.4-87.2
		c-2.9-22.1-8.4-44-16.4-65.1c-0.5-1.3-1.1-2.6-1.7-4.3c-7.8,2-15.4,2.4-22.6,6.3c-6.4,3.4-15.1,4.7-22.9,5.8
		c-13.4,1.8-26.8,2.8-40.3,4c-0.8,0-1.5-0.1-2.3-0.3c-1.5-6.8-3-13.8-4.7-21.7C198.6,240.4,197,247.4,195.2,255.2z M171.5,125
		c-1.2,0.8-2.4,1.5-3.7,2.1c-8.9,3.8-18.3,6.9-26.7,11.1c-19.6,9.7-32.6,24.2-44.3,39.6c-10.2,13.6-17.2,28.5-20.9,44.1
		c-0.3,1.1,0.5,3.1,1.5,3.6c7.5,2.8,15.2,5.2,22.8,7.9c3.8,1.2,7.5,2.4,11.3,3.7c8.1,2.9,10.4,2,12.7-4.8
		c6.8-20.5,16.4-40.4,28.6-59.2c0.8-1.1,1.7-2.3,2.8-3.4c-1.4,3.4-3.6,6.5-5.3,9.6c-9.8,18.2-19.1,36.5-24,56c-1,4,0.3,5.6,4.3,7.5
		c11.8,5.7,25.1,6.3,38.2,7.4c8.4,0.7,16.7,1.1,25.6,1.7l5.4-40.6h0.7c1.8,13.5,3.8,26.9,5.6,40.4c1,0.2,2,0.2,3.1,0.2
		c11.4-0.8,22.8-1.7,34.3-2.6c9.8-0.8,19.2-2.8,27.6-6.9c2.1-1,4.7-1.9,3.7-4.6c-4.5-12.1-8.4-24.4-13.6-36.3
		c-4.8-10.8-11-21.1-16.6-31.6c2.3,2.9,4.4,5.9,6.3,8.9c11,17.8,19.6,36.7,25.7,56c1,3.3,3.1,4.6,7,3.6c3.4-0.9,6.6-2.3,10-3.2
		c10.5-3.1,21-6.2,31.6-9.3c-0.1-1.7-0.4-3.5-0.8-5.2c-4-12.4-8.3-24.7-16.1-35.9c-11.7-16.7-24.4-33-44.8-43.8
		c-10.5-5.6-22.5-9.4-33.8-14.2c-11.9-5.3-24.6-6.1-37.6-4.8c-7,0.7-14,2.4-20.9,3.6c0.4-0.4,0.8-0.7,1.3-1
		c12.2-4.2,25.8-5.4,39-3.6c17.7,2.4,33.4,9.2,48.5,16.4c19.6,9.4,32.7,23.7,44.1,39.2c9.8,13.4,18,27.2,21.8,42.6
		c1.5,6.3,1.3,8-4.1,9.9c-4.4,1.5-4.2,3.2-3.1,6.5c8.2,23.8,16.7,47.6,24,71.6c6.3,21.2,5.1,42.8-0.9,64.2
		c-1.2,4.2-4.1,8.1-6.4,12.2c-1.6,2.9-3.6,5.6-5.4,8.4c9.1-4.4,17.3-9.1,25.5-14c4.4-2.6,8.6-5.4,12.7-8.1c1-0.6,1.7-1.4,2.1-2.4
		c0.8-4.2,2-8.3,2-12.5c-0.4-29.5-1.2-59-8.1-88.1c-6.9-29.5-14.9-58.9-22.4-88.5c-3.3-12.7-8.6-24.7-18-35.1
		c-18-19.4-40.6-35.6-66.6-47.8c-10.1-4.8-20.6-9.4-32.9-9.4c-16.2,0-32.5-0.3-48.7,0c-5.6,0.2-11,1.1-16.2,2.9
		c-23.6,7.5-42.8,20.1-60.8,34.1c-11.6,9-22.9,18.4-30,30.6c-6.1,10.6-9.8,21.7-12.5,33.1C51,207.7,44.8,228.9,39.6,250
		c-9.3,37.4-14,75.1-10.5,113.2c0.3,3.8,2,6.4,5.7,8.6c10,5.9,20,11.8,29.9,17.7c1.5,0.9,3.2,1.8,5.9,3.2c-0.9-1.7-1.2-2.3-1.6-2.9
		c-3.3-4.9-8-9.5-9.7-14.9c-8.5-26.1-8-52.4,0.3-78.4c4.7-14.9,10.2-29.5,15.4-44.1c2.5-7.2,5.3-14.3,8-21.7
		c-1.7-0.7-3.3-1.5-4.9-1.9c-4-1.4-5.4-3.8-4.4-7.1c1.7-5.7,3-11.5,5.5-17c7.2-15.6,17.1-30.2,29.5-43.7
		C124.7,143.3,146.3,132,171.5,125z M295.1,238.2c27.1,61.6,25,123.6,5.7,185.9c1.2-0.4,2.1-1,2.9-1.9c9.8-12.8,20.4-25.3,29.1-38.6
		c4.9-7.3,7.6-15.9,9.7-24.1c3.8-14.2,3.9-29,0.4-43.4c-4.3-16.8-9.7-33.5-14.9-50.1c-3.7-11.5-8-22.8-12.1-34.4L295.1,238.2z
		 M98.3,424.4l1.9-0.4c-20.4-62.3-22-124.4,5.4-185.7l-20.5-6.6c-0.7,1.8-1.4,3.3-2,4.9c-3.8,10.7-7.6,21.3-11.3,32
		C65.2,287.9,57,307,55.7,327.4c-1.2,18.9,0.4,37.6,11.1,54.8c6,9.7,13.3,18.9,20.1,28.2C90.5,415.2,94.6,419.8,98.3,424.4
		L98.3,424.4z M58.3,169.2c-3.8,9.3-7.6,18.5-11.2,27.8C34,231.4,22.6,266.2,16.4,302c-2.9,16.4-3.2,32.5,6.2,47.8
		c0.7,1.1,1.4,2.2,2,3.3l1.1-0.3C23.5,290.3,42.1,229.9,58.3,169.2L58.3,169.2z M374.8,352.3c1.3-0.3,1.8-0.4,1.9-0.5
		c5.3-9.7,10.2-19.6,9.4-30.5c-2-29.5-10.1-58.3-19.6-86.8c-5.6-17-12.2-33.7-18.5-50.5c-1.9-5.3-4.1-10.6-6.1-15.9
		C358.7,229,376,289.5,374.8,352.3z"/>
	<path class="st0" fill="$[hairColor]" stroke="#000000" stroke-width="4" d="M171.7,125c-25.4,7-46.9,18.3-62.8,35.9c-12.3,13.4-22.2,28.1-29.5,43.7c-2.4,5.4-3.8,11.4-5.5,17
		c-1,3.3,0.4,5.7,4.4,7.1c1.6,0.6,3.1,1.2,4.9,1.9c-2.8,7.3-5.4,14.5-8,21.7c-5.2,14.7-10.8,29.4-15.4,44.1
		c-8.2,26.1-8.8,52.4-0.3,78.4c1.7,5.3,6.4,9.9,9.7,14.9c0.3,0.6,0.6,1.1,1.6,2.9c-2.8-1.6-4.4-2.4-5.9-3.2
		c-10-5.9-19.9-11.9-29.9-17.7c-3.8-2.2-5.4-4.7-5.7-8.6c-3.5-38.2,1.2-75.9,10.5-113.3c5.3-21.2,11.4-42.3,16.5-63.6
		c2.8-11.5,6.4-22.6,12.5-33.1c7-12.1,18.4-21.4,30-30.6c17.9-13.9,37.2-26.5,60.8-34.1c5.2-1.7,10.6-2.6,16.2-2.9
		c16.2-0.3,32.4-0.1,48.7,0c12.3,0,22.8,4.6,32.9,9.4c26,12.2,48.5,28.4,66.5,47.8c9.6,10.3,14.9,22.5,18,35.1
		c7.5,29.5,15.5,58.8,22.4,88.5c6.7,29.1,7.6,58.6,8.1,88.1c0.1,4.2-1.1,8.3-2,12.5c-0.4,1-1.1,1.8-2.1,2.4
		c-4.2,2.8-8.4,5.5-12.7,8.1c-8.2,4.9-16.4,9.6-25.5,14c1.8-2.8,3.8-5.5,5.4-8.4c2.3-4,5.2-7.9,6.4-12.2c6-21.2,7.2-42.8,0.9-64.2
		c-7.1-24-15.7-47.7-24-71.6c-1.1-3.1-1.3-5,3.1-6.5c5.4-1.8,5.6-3.6,4.1-9.9c-3.8-15.4-12-29.3-21.8-42.6
		c-11.3-15.5-24.5-29.8-44.1-39.2c-15.2-7.3-30.9-14-48.5-16.4c-13.2-1.8-26.7-0.5-39,3.7c-0.5,0.2-0.9,0.6-1.3,1L171.7,125z"/>
	<path class="st0" fill="$[hairColor]" stroke="#000000" stroke-width="4" d="M171.4,125.1c6.9-1.2,13.9-2.9,20.9-3.6c13.1-1.3,25.7-0.5,37.6,4.8c11.1,4.9,23.3,8.7,33.8,14.2
		c20.3,10.8,33,27.1,44.8,43.8c7.9,11.4,12.1,23.5,16.1,35.9c0.4,1.7,0.6,3.4,0.8,5.2c-10.5,3.1-21.1,6.1-31.6,9.3
		c-3.4,1-6.5,2.4-10,3.2c-4,1.1-6-0.2-7-3.6c-6.1-19.3-14.7-38-25.7-56c-1.9-3-4-6-6.3-8.9c5.6,10.5,11.8,20.9,16.6,31.6
		c5.2,11.9,9.1,24.1,13.6,36.3c1,2.8-1.5,3.6-3.7,4.6c-8.5,4.2-17.8,6.1-27.6,6.9c-11.4,0.9-22.8,1.7-34.3,2.6c-1,0-2-0.1-3.1-0.2
		c-1.9-13.5-3.8-27-5.6-40.4h-0.8l-5.5,40.6c-8.8-0.6-17.2-0.9-25.6-1.7c-13.2-1.1-26.4-1.7-38.2-7.4c-4-1.8-5.3-3.5-4.3-7.5
		c4.9-19.6,14.2-37.9,24-56c1.7-3.1,3.9-6.2,5.3-9.6c-1,1-1.9,2.2-2.8,3.4c-12.1,18.8-21.7,38.7-28.6,59.2
		c-2.2,6.7-4.7,7.7-12.7,4.8c-3.7-1.3-7.5-2.4-11.3-3.7c-7.6-2.5-15.3-5-22.8-7.9c-1-0.4-1.8-2.4-1.5-3.6
		c3.8-15.6,10.9-30.5,21.1-44.1c11.6-15.5,24.7-29.9,44.3-39.6c8.6-4.2,17.8-7.4,26.7-11.1c1.3-0.6,2.5-1.4,3.8-2.1L171.4,125.1z"/>
	<path class="st0" fill="$[hairColor]" stroke="#000000" stroke-width="4" d="M295.1,238.2l20.7-6.8c4.1,11.7,8.5,23.2,12.1,34.5c5.3,16.6,10.6,33.3,14.9,50.1c3.5,14.3,3.4,29.1-0.4,43.4
		c-2,8.2-4.9,16.8-9.7,24.1c-8.8,13.2-19.3,25.8-29.1,38.6c-0.7,0.8-1.6,1.6-2.9,1.9C320.1,361.9,322.3,299.9,295.1,238.2z"/>
	<path class="st0" fill="$[hairColor]" stroke="#000000" stroke-width="4" d="M98.3,424.4c-3.8-4.6-7.9-9.1-11.4-13.9c-6.9-9.3-14.1-18.5-20.1-28.2c-10.7-17.3-12.3-35.8-11.1-54.9
		c1.3-20.4,9.5-39.5,16.1-58.9c3.7-10.7,7.5-21.3,11.3-32c0.6-1.6,1.2-3.1,2-4.9l20.5,6.7c-27.4,61.3-25.7,123.3-5.4,185.7
		L98.3,424.4z"/>
	<path class="st0" fill="$[hairColor]" stroke="#000000" stroke-width="4" d="M58.3,169.2c-16.1,60.8-34.7,121.1-32.5,183.8l-1.1,0.3c-0.7-1.1-1.4-2.2-2-3.3c-9.4-15.3-9.1-31.5-6.2-47.8
		c6.2-35.8,17.6-70.5,30.7-105C50.6,187.7,54.5,178.5,58.3,169.2z"/>
	<path class="st0" fill="$[hairColor]" stroke="#000000" stroke-width="4" d="M374.8,352.3c1.2-62.9-16.1-123.5-32.7-184.2c2,5.3,4.2,10.6,6.1,15.9c6.2,16.9,12.8,33.6,18.5,50.5
		c9.5,28.5,17.4,57.3,19.6,86.8c0.8,10.9-4.1,20.7-9.4,30.5C376.6,352.1,376.2,352.1,374.8,352.3z"/>
</g>
</svg>
