<?xml version="1.0" encoding="utf-8"?>
<!-- Generator: Adobe Illustrator 23.0.5, SVG Export Plug-In . SVG Version: 6.00 Build 0)  -->
<svg version="1.1" id="Layer_1" xmlns="http://www.w3.org/2000/svg" xmlns:xlink="http://www.w3.org/1999/xlink" x="0px" y="0px"
	 viewBox="0 0 500 500" style="enable-background:new 0 0 500 500;" xml:space="preserve">
<style type="text/css">
	.st0{stroke:#000000;stroke-width:5;}
</style>
<path fill="$[hairColor]" class="st0" d="M360.9,226.6c-1.7-15.6-4.7-30.8-8.9-45.2c-3-7.8-7-15.5-11.7-22.7c-13-20.1-31.8-36.8-53.2-43.8
	c14.6-21,16.4-52.7-21.7-88.5C215.8-20.4,121,16.1,105.1,55.1c-9.2,22.6,2.6,41.5,14.1,53.5c-20,4.8-48.1,17.5-69.8,58.3
	c-0.8,1.4-1.5,2.9-2.2,4.4c-0.3,0.4-0.6,0.8-0.9,1.3c-4.4,6.3-8.2,12.9-11.5,19.7c-13.1,26.3-13.7,55.4-8.4,83.6
	C25.5,315.4,33.4,354,64,378c6,5,16-12,19-21c13.7-42.8,10.5-94.3,40.4-127.7c12.7-5.7,25.4-10.6,36.7-15.3
	c6.2-2.7,12.4-5.6,18.5-8.5c16.3-7.8,32.2-16.4,47.7-25.7c2.8-0.4,5.6-0.8,8.4-1.1c4.1,4,8.3,8.1,12.3,12.1
	c4.9,4.8,9.7,9.6,14.5,14.4c11.2,10.6,21.1,22.4,29.3,35.3s14.5,26.6,18.5,41.2C313,297,315,312,313,327c4.1-0.8,7.1-2.4,9.3-4.6
	c1.3,15.2,4.7,29.7,15.7,41.6c14-28,22-59,23.9-90C362.9,258.2,362.6,242.2,360.9,226.6z"/>
</svg>
