<?xml version="1.0" encoding="utf-8"?>
<!-- Generator: Adobe Illustrator 23.0.5, SVG Export Plug-In . SVG Version: 6.00 Build 0)  -->
<svg version="1.1" id="Fronts" xmlns="http://www.w3.org/2000/svg" xmlns:xlink="http://www.w3.org/1999/xlink" x="0px" y="0px"
	 viewBox="0 0 400 600" style="enable-background:new 0 0 400 600;" xml:space="preserve">
<style type="text/css">
	.st0{stroke:#000000;stroke-width:5;}
</style>
<path fill="$[hairColor]" class="st0" d="M19.3,227.4C23,256,47,275,58.7,299.9c3.6,6.1,6.8,12.6,10.3,19.1c2,3,6,2,8,5c2.5-4,3.8-8.5,4.1-13.1
	S81,301.5,80,297c2,0,4,0,5-1c2-5,3-10,9-11c2-14-10-25,5.6-30.9c3.1-2.9,6.4-4.6,11.4-1.1c3-7,7-13,12-19c2-3,1-9,4-9
	c8,2,11-7,16.2-9.6c5-1.6,9.7-0.9,12.2-7.4c2.5-6.4-2.8-14.4,10.2-9.6c9.9,3.7,1.4-8.6,14.8-8.6c7.2,0,18.7,2.5,24.7-3.9
	c5.8-6.2,14.7-1.4,16.9-2.7c4.7-2.8,15.3-20.4,15.3-20.4s7.2,15.2,14.9,12.4c7.2-2.5,5.4,11.6,12.4,11.8c16.9,0.2,6.5,13,12.2,10.5
	c9.7-4.4,10.6,6.3,12.5,6.8c5.9,1.6,10.1-5.5,10.3,2.1C299,210,298,215,300,216c22,18,2,45,5,67c1,8,10,12,10,20c0,4-5,7-2,11
	c5,4,9-4,14-2c1,1,6-1,3,6c0-14,16-14,23-23c1-2,1-5,2-7c13-8,18-23,22-37c1-3,7-2,7-4c3-16-1-29,5-44c3-7-2-13-5-20
	c-1-4-1-9,0.9-12.6c1.3-7.5-0.9-6.7-5.4-11.6c-4.5-5-2.7-9.4-4.5-14.4c-1.7-5,3.5-10.8-5-16.1c-8.4-5.3-5-5.3-5-7.8s0-4.2-4-8.3
	c-4-4.2-3.2-7.5-4-12.2c-0.8-4.7-2.2-3.1-8.9-5.5c-6.7-2.5-8.2-6.9-9.4-13.3c-1.3-6.4-5.5-3.9-11.4-5.6c-6-1.7-6.5-1.7-7.4-5
	c-1-3.3-3.7-5-7.5-5.5c-3.7-0.6-4-1.1-6-5c-2-3.9-2.2-5.8-11.4-6.1s-13.9-2.5-16.9-5c-3-2.5-8.5-4.2-15.9-3.9
	c-7.4,0.3-20.1-1.4-26.8-2.8c-6.7-1.4-6.7-3.9-16.9-6.1c-10.2-2.2-7.9,1.1-15.9,2.8l-1.9,1.7l-4-1.7c-7.9-1.7-5.7-5-15.9-2.8
	c-10.2,2.2-10.2,4.7-16.9,6.1s-19.4,3-26.8,2.8c-7.4-0.3-12.9,1.4-15.9,3.9c-3,2.5-7.7,4.7-16.9,5c-9.2,0.3-9.4,2.2-11.4,6.1
	c-2,3.9-2.2,4.4-6,5c-3.7,0.6-6.4,2.2-7.4,5.5c-1,3.3-1.5,3.3-7.4,5c-6,1.7-10.2-0.8-11.4,5.6c-1.2,6.4-2.7,10.8-9.4,13.3
	c-6.7,2.5-8.2,0.8-8.9,5.5c-0.7,4.7,0,8-4,12.2c-4,4.2-4,5.8-4,8.3s3.5,2.5-5,7.8c-8.4,5.3-3.2,11.1-5,16.1C25,152,19,159,16,165
	c-2,9,1,16-1,25C11,203,18,215,19.3,227.4L19.3,227.4z"/>
</svg>
