<?xml version="1.0" encoding="utf-8"?>
<!-- Generator: Adobe Illustrator 27.2.0, SVG Export Plug-In . SVG Version: 6.00 Build 0)  -->
<svg version="1.1" id="Capa_1" xmlns="http://www.w3.org/2000/svg" xmlns:xlink="http://www.w3.org/1999/xlink" x="0px" y="0px"
	 viewBox="0 0 400 600" style="enable-background:new 0 0 400 600;" xml:space="preserve">
<style type="text/css">
	.st0{stroke:#000000;stroke-width:4;stroke-miterlimit:10;}
</style>
<g>
	<path class="st0" fill="$[hairColor]" stroke="#000000" stroke-width="4" d="M216.2,66.7c3.7,0.6,7.4,1.3,11.1,1.9c15.5,2.3,30.1,8.2,42,17.1c32.2,23.8,57.4,51.6,72.1,86.1
		c8.9,20.9,15.2,42.4,16.7,64.7c2,30.3-0.2,60.6-7.7,90.2c-3.2,12.5-3.7,24.7-3.8,37.2c-0.2,25-0.1,49.9-0.7,74.9
		c-0.7,30.1-8.8,59.3-17.6,88.3c-2.2,7.4-4.5,14.7-6.9,22c-0.3,1.1-1.1,2-2.2,2.6c-1.9-10.4,2.6-20.5,2.3-31.3
		c-17.1,16-34.5,30.9-59.7,36.4C290,470.4,301.2,383,303,293.7l-10.6,2.7l-0.7-1.3c1.9-0.8,3.9-1.6,6-2.1c3.3-0.7,4.3-2.1,4.7-5.1
		c4.7-30-7.8-57-19.5-84.2c-0.9-1.7-2.4-3-4.3-3.8c-13.9-5.9-28.5-10.5-43.5-14c-11.1-2.7-20.1,1.6-30.1,2.8c-3.2,0.3-6.5,0.3-9.8,0
		c-1.6-0.2-3.2-0.7-4.6-1.3c-13.4-4.6-26.5-2.5-39.3,1.7c-10,3.2-19.7,6.9-29.5,10.6c-1.9,0.8-3.5,2.1-4.4,3.7
		c-9.8,21.1-18.4,42.5-20.4,65.3c-0.7,7.3,0.7,14.7,1.1,22.1c0.1,2.5,0,5.1-0.1,7.6c-2,36.7,2.7,73.1,8,109.4
		c5,33.8,11.2,67.5,17.9,101.1c2.9,14.5,8.3,28.5,12.7,42.8c0.4,1.3,1.2,2.5,2.4,5.3c-6.3-2-11.7-3.2-16.5-5.4
		c-16-7.4-30-17.4-41.5-29.5c-0.6-0.7-1.3-1.3-3.1-3l4.4,32.2l-2,0.3c-0.7-0.8-1.3-1.6-1.7-2.5c-7.2-26.6-15.2-53-21-79.8
		c-3.3-15.6-3.6-31.8-4-47.7c-0.6-24.8-0.1-49.6-0.4-74.4c-0.1-5.1-1.6-10.2-2.6-15.4c-1.8-9.3-4-18.6-5.4-27.9
		c-3.6-24.7-5.9-49.4-2.6-74.2c6.8-50.8,28.4-95.9,72.6-131.7c8.3-6.7,16.6-13.7,25.9-19.4c10.9-6.7,23.9-9.2,37.1-10.9
		c1.8-0.2,3.5-0.7,5.2-1L216.2,66.7z M200.5,79.4c2.2-7,10.3-6.6,16.3-9.6h-30.7L200.5,79.4c-2.1-1.1-4.2-2.1-6.5-2.9
		c-6.4-2-13-5.6-19.4-5.3c-8.8,0.5-17.6,3.4-25.9,6.3c-5.4,1.9-10.1,5.6-15,8.5c23.4-1.2,46-2.6,66.2,8c20.9-10.5,43.4-9.3,66.4-7.3
		c-11.6-10.5-26.6-13.6-41.9-16.2c-0.5-0.1-1.1-0.1-1.6,0C215.4,73.5,208,76.5,200.5,79.4z M59,284l0.8,0.1c-1.2,16.7-3,33.3-3.4,50
		c-0.5,24.3,0.3,48.7-0.1,73c-0.6,37.8,4.1,74.9,16.1,111.3c1.1,3.2,1.9,6.3,2.8,9.5c0.7-1,0.9-2.2,0.7-3.3
		c-2-26.1-4.8-52.3-5.9-78.4c-2.2-54.4,0.3-108.9,7.5-163c1.3-9.9,3.8-19.7,5.8-29.5l1.3,0.2c-1.1,4.8-2.8,9.6-3.3,14.4
		c-3.1,32.3-6.5,64.5-8.6,96.9c-3.1,48.7-0.6,97.4,4.3,145.9c0.2,2.2,0.9,4.8,2.4,6.4c13.2,14.3,30,25.8,49.1,33.9
		c1.5,0.6,3.1,1.1,4.7,1.5c-0.8-3.3-1.5-6.3-2.4-9.3c-3.7-12.1-8.7-24.1-11.1-36.4c-6-31.5-11.4-63.1-15.8-94.8
		c-5.4-38.5-10.6-77-8-115.9c0-1.4-0.2-2.7-0.7-4c-0.8-2.2-2.4-4.3-2.5-6.5c-1.1-27,7.3-52.4,18.7-77.3c0.5-1.2,1.9-2.7,1.4-3.4
		c-3.1-4.7,1.8-5.3,4.6-6.8c2.6-1.4,5.3-2.6,8.2-3.5c12.3-3.9,25-7.2,37-11.6c6.7-2.5,12.8-2.3,19.3-0.7c11.5,2.8,23,3.4,34.6,0.2
		c8-2.2,15.8-2.2,23.3,1.4c1.2,0.4,2.4,0.7,3.6,1c14,4.9,28,9.7,41.9,14.7c1.2,0.4,3,2.1,2.7,2.5c-3,5.1,1.7,8.8,3.4,12.8
		c9.8,23.1,16.7,46.5,15.7,71.3c-0.1,1.6-0.4,3.3-1,4.9c-0.6,1.9-2.2,3.7-2.2,5.6c-0.1,12.7,0.9,25.5,0,38.2
		c-1.6,21.6-3.9,43.3-6.6,64.8c-6.4,51.5-12.8,103-31.8,153.6c21.7-8.2,40.7-20.8,55.4-36.8c1-1.3,1.6-2.8,1.6-4.3
		c1.9-26.5,4.8-52.9,5.2-79.4c0.5-31.8-0.6-63.6-2.2-95.3c-1-21.3-3.8-42.6-6.2-63.9c-0.8-7-2.7-14-4.1-20.9l1.8-0.1
		c17,91.5,16.8,183.4,7,275.6c8.1-25.8,16.7-51.5,17.8-78.3c2.2-55.5,4.6-111.1-1-166.7c2,14.1,4,28.2,6,43.2c0.5-1.9,1-3.1,1.2-4.3
		c2.7-19.7,6.5-39.3,7.6-59.1c0.8-15.5-0.3-30.9-3.1-46.2c-3.4-19-7.8-37.9-21.1-54.4c-12.8-16-28.1-30.4-45.5-42.8
		c-8.5-6.1-18.7-10.2-29.5-12.1c-10.6-1.9-21.3-3.6-32-4.8c-7.9-0.9-15.9-0.8-22.7,3.9c-0.8,0.5-2.7,0.1-4-0.2
		c-5.6-1.3-11.2-3.6-16.8-3.8c-6.8-0.3-13.7,0.6-20.5,1.8c-15,2.5-30.2,4.7-43,13c-16.9,10.9-31.2,24-43.8,38.5
		c-4.9,5.7-10.2,11.4-13.2,17.8c-9.2,19.5-14,40-16.3,61c-2.2,20.7,0.3,41.2,3.1,61.7c1.3,9.7,3.1,19.2,4.7,28.8l1,0L59,284z
		 M200.2,105.7c6.4-4.7,13.8-5.3,21.3-4.8c7.8,0.4,15.5,1.3,23.1,2.5c13.6,2.3,27.4,4.6,38.9,12c17.1,11,32,24.3,44.5,39.2
		c0.8,0.9,1.8,1.9,2.7,2.8c0.2-1.1-0.1-2.3-0.7-3.3c-13.6-24.7-33.7-45-57.3-63c-2.3-1.7-5.2-2.8-8.2-3c-12.4-0.5-25-1.3-37.3-0.4
		c-10,0.7-20.9,1.6-26.5,9c-3.9-2.1-7.3-4.7-11.3-5.8c-16.6-5-33.7-4.9-50.9-3.1c-3.9,0.4-8.5,1.6-11.3,3.7
		c-23.2,17.6-43,37.6-56.5,61.8c-0.8,1.4-1.5,2.9-1.9,3.7c10.4-9.8,20.7-20.1,31.7-29.9c13.5-12,29.8-19.9,49.3-22.6
		c6.4-0.9,12.8-2.2,19.2-2.8C179.6,100.6,190.4,99.3,200.2,105.7z"/>
	<path class="st0" fill="$[hairColor]" stroke="#000000" stroke-width="4" d="M59,284l-5.8,41.5l-1,0c-1.6-9.6-3.4-19.2-4.7-28.8c-2.7-20.5-5.3-40.9-3.1-61.7c2.2-21,7.1-41.4,16.3-61
		c3-6.4,8.3-12.2,13.2-17.8c12.5-14.5,26.8-27.5,43.8-38.5c12.9-8.3,28-10.4,43-13c6.7-1.1,13.7-2.1,20.5-1.8
		c5.7,0.3,11.2,2.5,16.8,3.8c1.3,0.3,3.2,0.7,4,0.2c6.8-4.7,14.8-4.8,22.7-3.9c10.7,1.2,21.4,3,32,4.8c10.9,1.9,21,6,29.5,12.1
		c17.4,12.4,32.7,26.8,45.5,42.8c13.4,16.5,17.8,35.4,21.1,54.4c2.8,15.3,3.9,30.8,3.1,46.3c-1.1,19.7-4.9,39.4-7.6,59.1
		c-0.2,1.2-0.6,2.3-1.2,4.3c-2.1-15-4.1-29.1-6-43.2c5.6,55.6,3.1,111.2,1,166.7c-1.1,26.8-9.7,52.5-17.8,78.3
		c9.8-92.1,10-184.1-7-275.6l-1.8,0.1c1.4,7,3.4,13.9,4.1,20.9c2.4,21.3,5.1,42.6,6.2,63.9c1.5,31.7,2.6,63.6,2.2,95.3
		c-0.4,26.5-3.3,52.9-5.2,79.4c-0.1,1.5-0.6,3-1.6,4.3c-14.7,15.9-33.7,28.6-55.4,36.8c19-50.6,25.5-102.1,31.8-153.6
		c2.7-21.6,5-43.2,6.6-64.8c0.9-12.7-0.1-25.4,0-38.2c0-1.9,1.6-3.7,2.2-5.6c0.6-1.6,0.9-3.2,1-4.9c1-24.8-5.9-48.2-15.7-71.3
		c-1.7-4-6.3-7.7-3.4-12.8c0.2-0.4-1.6-2.1-2.7-2.5c-13.9-5-28-9.8-41.9-14.7c-1.2-0.3-2.4-0.6-3.6-1c-7.5-3.6-15.3-3.6-23.3-1.4
		c-11.6,3.2-23,2.6-34.6-0.2c-6.4-1.6-12.6-1.8-19.3,0.7c-12,4.5-24.7,7.7-37,11.6c-2.9,0.9-5.6,2.1-8.2,3.5
		c-2.8,1.5-7.7,2.1-4.6,6.8c0.5,0.7-0.9,2.3-1.4,3.4c-11.4,24.8-19.8,50.3-18.7,77.3c0.1,2.2,1.8,4.3,2.5,6.5c0.5,1.3,0.8,2.6,0.7,4
		c-2.6,38.9,2.7,77.4,8,115.9c4.4,31.7,9.9,63.3,15.8,94.8c2.3,12.3,7.3,24.3,11.1,36.4c0.9,3,1.6,6,2.4,9.3
		c-1.6-0.4-3.2-0.9-4.7-1.5c-19.1-8-35.8-19.6-49-33.9c-1.5-1.7-2.2-4.2-2.4-6.4c-5.1-48.6-7.6-97.2-4.5-145.9
		c2.1-32.3,5.5-64.6,8.6-96.9c0.5-4.8,2.2-9.6,3.3-14.4l-1.3-0.2c-2,9.8-4.4,19.6-5.8,29.5c-7.2,54.1-9.7,108.6-7.5,163
		c1.1,26.2,3.9,52.3,5.9,78.4c0.2,1.2-0.1,2.3-0.7,3.3c-0.9-3.2-1.8-6.4-2.8-9.5C60.5,482.1,55.8,445,56.4,407.2
		c0.4-24.3-0.5-48.7,0.1-73c0.4-16.7,2.2-33.4,3.4-50L59,284z M203.1,134.3c5.3-1.7,9.5-3.9,14-4.4c17-2,33.6-0.6,48.8,6.8
		c28.8,13.8,48.7,33.6,56.4,61.6c1.4,5,2.6,10.1,3.9,15.2c-1.2-33.8-20.8-58.1-53.1-75.8c-9.9-5.4-20.5-9.3-32.3-9.9
		C228,127,214.8,125.8,203.1,134.3z M195.2,132.3c-4-1.4-7.8-3.5-11.9-4c-13.2-1.9-26.6-2.1-39.1,2.4c-36.3,13-60.7,35.1-68.8,69
		c-0.8,3.4-1,6.9-1.5,10.4c1.3-1.6,2.1-3.4,2.3-5.3c5-23.7,18.4-43.2,40.5-58.1C140.1,130.8,165.5,124,195.2,132.3z"/>
	<path class="st0" fill="$[hairColor]" stroke="#000000" stroke-width="4" d="M200.2,105.7c-9.8-6.4-20.6-5.1-31.2-4.2c-6.4,0.6-12.8,1.9-19.2,2.8c-19.5,2.7-35.8,10.6-49.3,22.7
		c-11,9.8-21.4,20.1-31.7,29.9c0.4-0.9,1.2-2.3,1.9-3.7c13.5-24.2,33.3-44.2,56.5-61.7c2.9-2.2,7.4-3.3,11.3-3.7
		c17.2-1.8,34.3-1.9,50.9,3.1c3.9,1.2,7.3,3.7,11.3,5.8c5.6-7.4,16.5-8.2,26.5-9c12.3-0.9,24.8-0.1,37.3,0.4c3.1,0.2,5.9,1.3,8.2,3
		c23.6,17.9,43.8,38.3,57.3,62.9c0.6,1,0.9,2.2,0.7,3.3c-0.9-0.9-1.9-1.8-2.7-2.8c-12.4-14.9-27.4-28.1-44.5-39.2
		c-11.5-7.4-25.3-9.7-38.9-12c-7.6-1.2-15.3-2.1-23.1-2.5C214.1,100.4,206.7,101.1,200.2,105.7z"/>
	<path class="st0" fill="$[hairColor]" stroke="#000000" stroke-width="4" d="M200.5,79.4c7.4-3,14.9-5.9,22.3-8.9c0.5-0.1,1.1-0.1,1.6,0c15.3,2.5,30.4,5.6,42,16.2
		c-23-2-45.4-3.2-66.4,7.3c-20.3-10.6-42.9-9.2-66.2-8c5-2.9,9.6-6.6,15-8.5c8.3-2.9,17.1-5.8,25.9-6.3c6.3-0.3,13,3.3,19.4,5.3
		c2.2,0.8,4.4,1.8,6.5,2.9L200.5,79.4z"/>
	<path class="st0" fill="$[hairColor]" stroke="#000000" stroke-width="4" d="M200.6,79.3l-14.4-9.6h30.7C210.9,72.7,202.7,72.4,200.6,79.3C200.5,79.4,200.6,79.3,200.6,79.3z"/>
	<path class="st0" fill="$[hairColor]" stroke="#000000" stroke-width="4" d="M203.1,134.3c11.7-8.5,24.9-7.3,37.8-6.6c11.8,0.7,22.4,4.5,32.3,9.9c32.3,17.7,51.9,42,53.1,75.8
		c-1.3-5.1-2.6-10.1-3.9-15.2c-7.7-28-27.7-47.8-56.4-61.6c-15.3-7.4-31.9-8.7-48.8-6.8C212.6,130.4,208.4,132.6,203.1,134.3z"/>
	<path class="st0" fill="$[hairColor]" stroke="#000000" stroke-width="4" d="M195.2,132.3c-29.6-8.4-55-1.5-78.5,14.3c-22.2,15-35.5,34.4-40.5,58.1c-0.3,1.9-1.1,3.7-2.3,5.3
		c0.5-3.5,0.7-7,1.5-10.4c8.1-33.9,32.6-56,68.8-69c12.4-4.5,25.9-4.2,39.1-2.4C187.3,128.9,191.2,130.9,195.2,132.3z"/>
</g>
</svg>
