<?xml version="1.0" encoding="utf-8"?>
<!-- Generator: Adobe Illustrator 23.0.5, SVG Export Plug-In . SVG Version: 6.00 Build 0)  -->
<svg version="1.1" id="Fronts" xmlns="http://www.w3.org/2000/svg" xmlns:xlink="http://www.w3.org/1999/xlink" x="0px" y="0px"
	 viewBox="0 0 400 600" style="enable-background:new 0 0 400 600;" xml:space="preserve">
<style type="text/css">
	.st0{stroke:#000000;stroke-width:5;stroke-linecap:round;stroke-linejoin:round;}
</style>
<path fill="$[hairColor]" class="st0" d="M393.2,334c-1.3-7.4-2.6-15-4.1-23.5c-0.9-0.7-2.9-2.4-5-4v-8.8c-1.1-1-2.3-1.8-2.8-2.8
	c-3.6-6.3-5-13.1-5.7-19.7c-1.1-10.9-9-21-6.3-32.3C364,232,362,220,359,208c-1.9-7.1-4.6-15.4-8-24c-7.9-21-18-41.7-30.9-60.2
	c-4.3-6.2-8.9-12.1-13.8-17.7c-4.9-21.7-10.1-10.2-15.7-15.8c-5.6,6.9-11.5-27.6-17.7-13.4c-6.3-3.9-12.9-14.8-19.9-10.6
	c-7-7.8-14.3-12.3-22.1-7.4c-5.1,7.7-10.2,2.7-15.3-2.6c-5.1-0.5-10.2-0.7-15.2-0.5c-5.1,0.1-10.1,0.6-15.1,1.4
	c-7.5,1.1-14.8,0.5-22.1,5.2c-7.2-3-14.3,1.3-21.2,8.5c-6.9,8-13.5-2.3-20,11.2c-6.4-1.5-12.6,5-18.5,13.3
	c-3.2,13.6-6.3,6.2-9.2,8.4c-2.9,3.6-5.6,1.9-8.1,9.2c-3.4,5.2-6.4,8.9-9,13.6c-2.6,4.8-4.8,9.8-6.6,15c-1.8,5.2-3.1,10.7-3.8,16.3
	c-0.2,8.6-0.2,17.1-0.2,25.6c0,42.4,0.5,84.6-13.3,125.3c-1.5,6-3,12.1-4.5,18.2c-3,10-4,20-2.4,30.4c0.3,8.5,1,17,2,25.6
	c1,8.6,2.5,17.3,4.4,26c3,14,3,29-3.4,43.1c-3.1,12.4-6.1,24.4-1.6,35.9c5,11,17-6,24-13c0,9,1,18,2,26c0,5,13,6,17-1c4-6,6-13,6-20
	c-1,10,2,23,12,27c7,2,13-4,11-10c-2.3-8.6-4.6-17.2-7-25.8c-2.4-8.5-4.8-17-7-25.5c-2.8-16.2-6.9-33.4-11.1-51.1
	c-2.1-8.9-4.2-17.9-6.1-26.9c-12.3-43.2-9.5-90,12.6-129.8c4.4-8,9.6-15.7,15.6-23c4-4,3-11,3-16c10,10,29,5,33-9c0,2,0,4,1,5
	c17,0,32,7,46,14.8c6.8,4.4,13.1,9.6,19,15.3c17.8,17.1,32,39.4,44,60.9c1,2,5,5,8,7c1,1-1,4,0,6c2,3,6,3,10,4c-2,7,0,15-5,22
	c-1,2,3,4,3,5c2,6,2,12,3,17c0,8,1,14-1,22c-2,7-1,14-0.9,20.8c0.8,0.8,1.4,1.8,1.9,2.8c2.3,4.7,0.9,10-1.3,14.5
	C279,413,278,418,277,423c-3,8-5,21-6,31c0,2,1,4,2,6c-8,2-4,10-5,16c-1,1-3,2-3,3c2,6,7,10,14,8c-1,0-1-1-1.9-0.8
	c3.2-1.7,6.3-3.4,9.4-5.1V474h4.8c-2.4,3.7-4,7.1-0.1,10.1c-1.6,2.5-3.2,4.8-3.7,5.6c0.7,3.8,1.7,5.9,1.4,7.9c-0.4,2.4-2,4.6-3,6.6
	c2.8,2.2,5.2,4.1,7.5,6h9.1c1.4-1.1,2.8-2.2,4.6-3.5c-0.5-4.9-1.2-10.3,4.9-14.2c1,0.8,2.1,1.6,3.7,2.8v10.6
	c3.2,2.8,5.4,4.8,8.3,7.3c5.3-1.2,10.6-2.4,15.2-3.4c0.6-4.8,0.3-9,1.8-12.8c1.4-3.7-2.3-6.3-1.5-9.9c1-4,0.2-8.2,0.2-11.6
	c1.9-1.6,3-3.3,4.6-3.7c2.1-0.6,4.6-0.1,6.6-0.1c0.6-1.9,0.8-3,1.4-3.9c0.8-1.2,1.9-2.4,2.7-3.3c-1.6-1.6-2.8-2.7-4.2-4.2
	c2.4-2.1,4.6-4.1,6.9-6.1v-32.2c4.7-4.1,8.3-7.1,12.1-10.4V402c4.5-1.4,8.3-2.6,12.1-3.7c-2.1-7.7,2.5-15.1-3.5-21.6
	c-0.2-0.3,0-0.7,0-1.1c1.5-2.6,3.7-6.6,2.2-7.8c-5.6-4.4,0.5-7.4,1-10.7C374.7,347,378.2,340.1,393.2,334L393.2,334z"/>
</svg>
