<?xml version="1.0" encoding="utf-8"?>
<!-- Generator: Adobe Illustrator 23.0.5, SVG Export Plug-In . SVG Version: 6.00 Build 0)  -->
<svg version="1.1" id="Fronts" xmlns="http://www.w3.org/2000/svg" xmlns:xlink="http://www.w3.org/1999/xlink" x="0px" y="0px"
	 viewBox="0 0 400 600" style="enable-background:new 0 0 400 600;" xml:space="preserve">
<style type="text/css">
	.st0{stroke:#000000;stroke-width:5;}
</style>
<g fill="$[hairColor]" >
	<path class="st0" d="M259.1,115.2C265,139,279,179,247,189c-41,12-89-2-121.9,30.4c-5.3,5.5-9.9,11.5-13.9,18.1
		c-7.9,13.2-13,28.6-14.2,46.6c-1.2,6.4-2.2,12.9-3.2,19.4c-2.1,13-4.1,26-6.8,38.5c-2,7-8,12-11,18c-43-42-32-117-34-173
		c-1-20,5-42,17.8-58.8c7-9.9,14.4-17.6,21.9-23.6C110,86.7,147.6,68.7,184,66.7c7.3-0.4,14.5-0.1,21.6,0.9
		C231,70,261,86,259.1,115.2L259.1,115.2z"/>
	<path class="st0" d="M241.9,131.2C242,139,241,149,246,156c34,44,71,86,79.4,140.7c1.1,8,1.3,16.4,0.6,25.3c1,6,5,12,8,18
		c3-6.3,5.5-12.7,7.6-19.4s3.8-13.5,5.1-20.4c0.7-4.9,1.3-9.7,1.9-14.6c0.5-4.9,1-9.7,1.4-14.6C353,214,361,155,325,102
		c-13-19-31-29-52-32c-14-2-30,3-38,16C227,101,236,117,241.9,131.2L241.9,131.2z"/>
</g>
</svg>
