<?xml version="1.0" encoding="UTF-8"?><svg id="Fronts" xmlns="http://www.w3.org/2000/svg" viewBox="0 0 400 600"><defs><style>.cls-1{stroke-linecap:round;stroke-linejoin:round;}</style></defs><path class="cls-1" fill="$[hairColor]" stroke="#000" stroke-width="5" d="M393.19,297.02c-1.29-7.41-2.61-14.97-4.11-23.55-.92-.74-2.94-2.36-5-4.01v-8.82c-1.08-1.03-2.28-1.79-2.84-2.76-3.62-6.26-5.02-13.13-5.66-19.71-1.06-10.9-8.95-20.95-6.3-32.18-5.47-3.13-.54-8.5-3.46-11.31-4.07-3.91-1.13-7.96-1.77-9.36-3.36-4.98-5.25-7.79-7.12-10.55,1.29-1.13,2.24-1.96,3.07-2.68-6.88-11.44-13.71-22.88-18.52-35.31-4.51-1.61-6.49-5.59-12.06-7.39-4.22-1.36-6.28-6.64-9.92-10.89-11.95-3.91-23.02-10.4-31.81-17.86-4.78-4.05-9.06-9.32-16.58-10.36-10.22-1.42-18.32-6.59-28.31-8.27-3.53-.59-7-1.79-10.15-3.18-6.4-2.8-12.56-5.92-18.02-8.53-6.07,.7-10.54,4.5-14.9,2.52-7.44-3.37-15.1-1.45-22.2-2.18-13.24,8.48-25.97,3.63-38.55-.13-3.32,3.75-8.12,2.17-13.96,2.6-2.01,1.83-4.85,4.41-7.12,6.48-3.84,.25-7.93-.43-9.42,.78-5.33,4.3-12.31,4.76-18.98,6.42-6.59,1.63-11.98,4.38-15.41,10.02-4.11,6.76-10.96,12.56-17.45,19.68v6.18c-6.47,7.4-11.97,13.69-17.74,20.28v7.47c3.64,4.4,6.61,8,10.21,12.37-8.26,8.17-7.61,17.72-7.2,27.21-3.94,2.97-7.82,5.89-11.56,8.72-1.8,3.87,.75,7.83-2.81,11.86-2.82,3.21-1.02,8.19-3.09,12.56-2.22,4.69-.11,10.49-.61,15.76-.51,5.39-2.31,10.72-2.75,16.11-.5,6.04-.01,12.11-.17,18.17-.05,2.15-.42,4.36-1.18,6.43-2.15,5.89-2.58,12.46-1.89,19.15,.29,2.8-.96,5.7-1.57,8.54-.37,1.77-1.15,3.51-1.21,5.28-.19,5.46,.76,11.02-4.97,15.53-1.08,.85-1.67,3.3-.88,4.08,4.67,4.64,1.93,10.02,2.84,13.8,2.29,3.39,3.9,5.78,5.44,8.07-3.61,2.66-2.63,5.03-.76,8,2.45,3.87,7.23,7.52,1.63,12.72-1.92,1.78,.43,6.31,1.02,9.56,.32,1.75,1.61,3.48,1.47,5.17-.39,4.7,1.6,8.54,5.86,11.91-4.95,3.49-3,6.98-.63,9.18-1.11,5.41-1.98,9.62-2.74,13.3-2.89,3.46-5.53,6.61-7.85,9.39,2.09,3.55,4.47,6.32,5.28,9.33,.85,3.16,.19,6.56,.19,10.24,3.93,1.05,6.96,1.85,7.84,2.08,4.54-2.54,7.67-4.29,10.02-5.6v-7.36c2.24-.99,4.84-2.14,7.45-3.29-3.07,8.48,10.74,15.78,.67,23.66,3.49,2.46,6.57,4.64,9.17,6.47,6.98-.05,9.17-3.79,11.14-5.19,1.8-7.55,3.29-13.85,4.79-20.14,.94,10.16,6.06,18.85,12.2,27.15,5.28,.3,10.36,1.27,13.27-2.39,.85-5.49,2.58-10.61,2.16-15.62-.11-1.31-.38-2.6-.74-3.9-2.35-3.12-4.16-6.59-5.8-10.12-3.82-8.23-6.42-16.97-10.3-25.17-7.5-15.83-15.6-31.57-19.33-48.82-2.02-9.31-2.5-18.97-3.01-28.46-.52-9.69-.89-19.41-2.09-29.05-.58-4.66-1.44-9.27-1.86-13.96-.42-4.73-.58-9.48-.62-14.22-.05-7,.16-14,.29-21-.68-1.41-1.44-2.8-2.3-4.18-.96-1.54-.19-3.73-.19-5.61,0-12.12-.46-24.25,.17-36.35,.38-7.24,2.47-14.43,4-22.78,1.87-2.56,5.19-6.08,7.13-10,2.2-4.45,5.87-6.83,11.46-8.81,8.82-3.12,17.02-7.26,25.32-10.91v-15.83c8.05-.15,15.09,4.6,23.35,.25,6.47-3.41,13.97-5.5,16.89-12.82,4.48,3.06,8.04,5.49,11.76,8.03h14.56c-.14-.3-.27-.6-.41-.9,5.63-1.49,11.27-2.99,15.98-4.24,2.1,.97,2.94,1.28,3.68,1.71,4.16,2.39,8.67,4.53,12.34,7.3,3.32,2.5,5.67,5.75,8.53,8.61,6.63,6.62,14.07,12.86,19.73,19.93,4.48,5.6,6.74,12.22,10.12,18.35,.54,.98,1.75,1.74,3.04,2.98-1.66,6.73,4.28,12.7,5.42,19.25,1.28,7.37,7.94,12.62,9.94,19.76,1.75,6.24,8.57,11.65,14.03,18.55v8.09c3.26,1.87,6.81,3.9,9.61,5.5-1.45,7.83,1.74,14.63-3.23,20.91-1.07,1.35-1.05,4.56,.2,5.38,3.8,2.52,2.06,5.55,2.65,8.36,.66,3.17-.8,6.26,1.98,9.66,1.9,2.33-.3,6.62-.91,12.23-.12-.23,2.34,2.13,1.64,3.62-4.51,9.53-2.36,19.31-2.57,28.82,.75,.84,1.39,1.77,1.88,2.78,2.25,4.71,.85,9.99-1.31,14.5-.33,.7-.69,1.38-1.06,2.06v9.17c-2.07,1.58-3.83,2.92-4.4,3.36,.64,3.11,2.52,6.12,1.28,7.7-1.61,2.04-2.54,3.77-2.55,6.07-.02,5.46,.54,10.86-2.64,16.2-1.21,2.02,.96,5.22,1.65,8.13-1.37,1.05-3.13,2.39-4.62,3.52-1.62,5.51,2.34,11.38-3.05,16.22,2.26,2.68,4.55,5.39,6.64,7.87h6.57c-.49-.38-.98-.76-1.47-1.14,3.17-1.72,6.34-3.45,9.38-5.1v-7.16h4.75c-2.39,3.66-4.02,7.1-.11,10.1-1.65,2.48-3.21,4.84-3.72,5.59,.73,3.76,1.74,5.91,1.39,7.91-.41,2.35-2.01,4.58-2.96,6.58,2.8,2.22,5.2,4.13,7.48,5.95h9.06c1.44-1.1,2.84-2.17,4.61-3.52-.46-4.93-1.23-10.29,4.89-14.18,1.05,.8,2.1,1.61,3.67,2.81v10.65c3.18,2.8,5.44,4.78,8.27,7.28,5.32-1.2,10.63-2.4,15.23-3.45,.57-4.77,.31-8.98,1.76-12.82,1.38-3.66-2.33-6.33-1.48-9.89,.96-4,.22-8.23,.22-11.65,1.93-1.62,3-3.28,4.64-3.72,2.07-.56,4.59-.14,6.61-.14,.64-1.89,.8-2.98,1.39-3.92,.78-1.24,1.91-2.35,2.74-3.34-1.65-1.62-2.78-2.73-4.24-4.17,2.4-2.13,4.57-4.06,6.88-6.12v-32.17c4.74-4.08,8.3-7.14,12.08-10.4v-9.31c4.49-1.39,8.27-2.56,12.08-3.74-2.15-7.72,2.54-15.08-3.46-21.56-.23-.25-.03-.74-.03-1.12,1.52-2.59,3.69-6.56,2.16-7.76-5.58-4.35,.52-7.42,1.02-10.7-6.67-10.18-3.14-17.1,11.8-23.15Z"/></svg>