<?xml version="1.0" encoding="UTF-8"?><svg id="Fronts" xmlns="http://www.w3.org/2000/svg" viewBox="0 0 400 600"><path fill="$[hairColor]" stroke="#000" stroke-width="5" d="M163.37,210.97c-.16,2.63,1.47,.9-3.03-.31-3.77-2.43-5.46-4.45-6.46-6.55-.18-2.26-2.52-1.48-3.89-4.45-3.98-.17,2.49-4.36,.8-4.21,3.52-4.21-1.05-6.76-.27-8.1,1.46,.84,.16-3.41-2.22-11.1-6.04-.04,.63-4.56-2.15-6.51-4.53-2.36-.8-1.19,2.98-4.93,2.98-4.67,3.29-4.6-.06-11.91,3.83-8.13,3.94-2.72,2.01-6.82-6.58,.53,0-3.99-.87-5.91,4.75-6.59-2.89-3.42,1.28-7.3,2.2-4.73-1.77-8.89,1.05-8.49-3.4,1.54-.43-6.14,1.06-6.22,3.29-3.29,2.29-7.98,2.73-7.78-.92-4.49,2.04-4.89,1.67-6.14,1.29,1.76,5.43-5.7,3.71-4.97,2.32-.48,3.81-1.62,4.59-5.45,3.82-1.59,1.64-2.41,4.71-3.43,5.41,.29,5.86-3.61,8.53-2.53,2.59,.52,3.88-.4,7.26,2.43,2.16,4.32,2.59,2.81,3.42,6.85,.13,1.26,1.01,4.02-2.43,7.26,.76,4.55-3.87,6.57-6.85,3.42-.05,3.77-1.02,4.72-2.62,2.59-1.74,4.44-1.93,5.09-2.95,5.88-1.04,1.45,1.92,7.85-2.36,7.65-4.31,1.76,4.51,7.4-.83,9.52-3.29,4.95-.85,7.42-2.22,9.39-1.24,3.82-.83,6.31-1.92,10.17-1-.11-3.49,2.62-.96,8.88,2.57,1.49,2.51,5.3-.58,7.37,2.98,2.81,5.29,4.07,2.67,4.12,.75,8.93-.38,5.42,.86,9.81,2.89,3.98,.17,10.8,1.19,8.13-.82,3.65-.7,3.52,1.62,6.49-2.18-1.95-.54,4.71-.56,7.63-5.1,.53-8.53,.43-5.79,5-.93,4.09-.63-.31-3.15,.51Z"/><path fill="$[hairColor]" stroke="#000" stroke-width="5" d="M108.99,235.02c-3.76-.1-4.62,.9-7.49-2.7-4.84-1.26-4.85-7.54-3.61-7.39-2.2-2.01-5.05-5.2-1.72-6.73,2.61-1.71,.77-3.38,.88-7.26-3.32,1.12-.64-3.02-2.92-6.56,3.11-.92,.79-7.99,2.69-7.59,2.89-5.53,2.44-5.14,1.92-7.48-.93-1.28,.14-4.6-1.98-5.6-3.74-.84,3.21-8.61,1.81-12.02-.25-3.91,1.27-11.52,1.14-11.48,3.38-3.69,.41-5.06,3.42-10.52,2.66-7.87-.63-5.19,3.34-9.83,1.09-4.1,4.4-8.79,4.04-9.04,2.71-5.82,.83-5.31,4.74-8.24,.09-2.53,13.84-3.65,5.43-7.44,6.27-6.97,3.1-3.89,9.07-9.5,.24-4.14,8-5.74,9.07-6.43,3.04,.82,10.21-2.61,9.51-4.94,2-1.03,3.6-4.33,9.39-3.31,4.21-1.57,5.22-.47,8.94-1.98,4.26,1.39,6.92,.74,8.18-.93,.09,1.44,1.9,.22,.13,0,.49,.75,2.54,1.96,7.58,2.78,6.11,.83,3.96,.21,3.55,7.54-.45,3.89-4.67,2.91-2.58,7.98-2.75,2.13,1.45,1.8-7.24,3.72-5.4,.44-6.47,2.48-12.59,2.11-5.78-1.79-.46-3.71-6.94,2.51-6.46,2.88-7.3,2.88-6.88,3.43-.43,2.64-9.96-.25-8.04,4.19,.02,3.59-2.43,2.01-5.09,7.26-2.98,4.88-2.51,3.76-4.35,6.02-1.62,1.58-8.5,4.58-3.78,6.77-.17-2.83-4.35,8.22-2.75,8.13-2.84,4.49,.68,4.75-3.1,7.66,2.17-1.24-5.59,6.44-2.08,9.29,.36-.58-3.52,.71-4.5,3.71-1.02,1.83-1.09,4.52,3.02,5.76,5.38,7.52,5.88,5.84-.72,10.16,4.05-1.09-5.69,13.69-.55,11.51,.52,3.95-.98,6.34,.47,11.98-1.93-3.48,.31,5.76,.57,12.56,.84,3.54-.59,7.76-2.43,8.04-4.1-2.39-3.65,3.18-7.17,3.87-2.95,2.12-3.17-1.09-.34,.02Z"/><path fill="$[hairColor]" stroke="#000" stroke-width="5" d="M54.31,227.19c-2.57-.18,.43,1.31-.71-.03-1.91,.14-7.09-1.46-6.85-3.42-.18,.03-1.64-3.27-2.42-7.26,.2-2.71,1.45-8.41,1.33-10.87-.55-3.73,2.4-7.53,1.45-10.52,2.87-4.41-1.68-5.95,1.76-10.04,1.14-4.48-.19-4.66,3.43-9.82,4.13-4.88,2.81-8.22,3.91-10.09,1.58-4.41,3.73-5.87,3.63-8.13,2.8-4.59,2.23-5.78,4.64-8.46,2.09-1.78,4.06-5.8,5.21-8.01-.47-3.15,3.3-3.21,2.76-4.81,.7-.96,.96-3.73,5.05-5.14,.9-2.18,4.77-4.01,4.67-4.72,2.63-4.77,3.62-1.9,4.13-4.38,.16,1.29,3.8-3,4.38-4.02,.19-2.22,5.6-2.53,5.38-4.19,3.47-2.83,3.97-5.19,9.14-7.64,3.82-1.53,4.85-2.28,10.65-4.76,2.14-1.61,9.5-1.23,9.82-4.53-1.53-3.62,3.86-2.56,9.57-3.58,4.36,1.41,6.09-.28,9.17-2.73,.33,.84,4.09-2.4,8.61-1.99,4.73,.97,6.55,.8,8.57-.46,1.71,.23,2.17-.83,6.35-1.77,4.67-.14,8.59-1.28,10.85-.62,.24-.06-1.81,.25,.15,0,2.4-1.12,4.44,.49,7.01,2.87,1.83,1.14,1.73,4.45,2.98,6.98-.11,2.92,.7,5.53-2.83,7.11-1.01,2-3.85,4.09-7.03,3.03-4.49-1.55-6.71-2.63-12.23,.85-2.07,2.05-2.2,2.61-8.14,1.25-1.73-2.51-7.36,.83-9.14,2.04-2.02,1.7-6.41,2.1-10.03,3.09-7.28-1.44-7.14,2.41-10.23,4.13-2.14-2.39-9.26,2.14-9.37,4.85,3.22,2.37-5.73,4.88-6.91,3.39-3.61,.75-4.07,2.27-4.9,4.41-1.69,3.41-6.29,6.24-7.56,6.29-4.42,1.04-2.6,6.14-6.86,6.87-3.59,1.55-3.25,8-6.03,7.03-4.53,3.53,.28,9.81-5.59,8.46-2.04,3.29-7.84,6.6-4.94,8.55,.45,3.08-4.54,7.49-3.85,9.23-4.65,.95-7.05,4.5-5.94,5.73-2.19,.76,2.12,3.33,2.39,3.88,.94,1.97,.17,9.31-2.4,10.41,1.01-.98,3.63,1.98,2.62,5.01,.59,1.79,.59,7.02-4.83,6.39-1.14,2.83-.98,7.95-.87,10.83-1.03,2.25,2.36,6.01-3.17,6.62-2.75,1.76-2.32,4.34-6.79,2.67Z"/><path fill="$[hairColor]" stroke="#000" stroke-width="5" d="M49.45,287.68c-1.7-1.47-7.61-4.88-7.58-10.03-4.04-2.6-5.08-7.08-2.94-10.74,3.91-5.12-1.15-6.91-1.95-10.96-1.03,.09,2.97-10.44-1-10.73-.65-5.4-2.56-8.96-.11-11.59,2.18-6.08,.15-8.16,.74-11.31-3.04-1.33,3.82-10.52,1.53-11.09,3.34-5.75,3.13-4.39,2.28-11.67,1.94-3.8,2.99-8.34,2.97-10.26-4.45-.12,3.88-4.26,3.62-12.24-4.66-7.66,.66,1.39,4.21-8.7,4.74,2.95,2.6-3.59,3.65-6.93,1.78-.52,3.51-3.84,4.1-6.71,6.99-1.63-.37-6.05,4.56-6.45,8.08-.18,4.44-2.4,6.51-7.72,2.4-3.46,4.74-5.97,7.04-8.41,1.91-1.44,9.61-4.63,6.81-6.99,6.25-.36,4.97-3.17,5.02-5.38,3.84-4.49,6.13-5.92,10.13-8.31,3.07-1.75,6.8-5.63,8.37-5.26,4.95-2.04,8.57-1.96,11.31-4.12,5.16-.25,5.19-.39,3.84-.15,3.9,.45-5.9,7.11-3.82,7.16-5.74,1.24-6.77,4.14-4.27,8.13-2.77,1.85-1.62,6.64-5.39,10.45-2.83,1.4-1.49,6.24-2.97,5.53,.03,4.55-.85,6.06-3.4,7.1-2.34,.57,.35,2.64-2.87,6.49-2.22,.17-2.72,.36-3.57,6.56-.69-.81,1.13,4.16-3.38,7.02,4.03,1.49-1.25,2.43-3.37,7.13-2.82,3.34-4.55,5.32-3.31,7.34-1.69,.89-4.25,4.28-3.21,6.96,.17,2.69,.77-1.92-3.43,6.83-5.63-1.22,.63,2.73-2.54,6.39-2.68,1.27,4.06,4.85-2.17,6.09,4.74,4.19-3.06,3.75-2.9,7.58,2.68,1.44-2.15,8.36-3.83,11.35,5.23,1.03-2.99,5.24-2.27,9.65,.88,6.28-.73,10.85-1.09,11.66,4.06,7.18-3.61,4.38-1.84,5.78-.18,1.39,.63,5.02-2.37,7.65,.34,4.28-4.29,6.5-2.68,8.87-.54,1.01,4.08,4.36-2.77,8.16-1.69,1.97-5.22,6.32-2.64,8.22-.27,4.29-3.75,8.59-3.04,7.65Z"/><path fill="$[hairColor]" stroke="#000" stroke-width="5" d="M87.68,149.41c19.33-.75,25.79-4.47,32.24-13.66s12.34-15.58,20.94-19.58,16.89-5.3,17.84-8.87-14.94-6.06-17.43-4.32-48.17,31.28-48.17,31.28l-5.43,15.15Z"/><path fill="$[hairColor]" stroke="#000" stroke-width="5" d="M220.81,208.98c.16,2.63-1.47,.9,3.03-.31,3.77-2.43,5.46-4.45,6.46-6.55,.18-2.26,2.52-1.48,3.89-4.45,3.98-.17-2.49-4.36-.8-4.21-3.52-4.21,1.05-6.76,.27-8.1-1.46,.84-.16-3.41,2.22-11.1,6.04-.04-.63-4.56,2.15-6.51,4.53-2.36,.8-1.19-2.98-4.93-2.98-4.67-3.29-4.6,.06-11.91-3.83-8.13-3.94-2.72-2.01-6.82,6.58,.53,0-3.99,.87-5.91-4.75-6.59,2.89-3.42-1.28-7.3-2.2-4.73,1.77-8.89-1.05-8.49,3.4,1.54,.43-6.14-1.06-6.22-3.29-3.29-2.29-7.98-2.73-7.78,.92-4.49-2.04-4.89-1.67-6.14-1.29,1.76-5.43-5.7-3.71-4.97-2.32-.48-3.81-1.62-4.59-5.45-3.82-1.59-1.64-2.41-4.71-3.43-5.41,.29-5.86-3.61-8.53-2.53-2.59,.52-3.88-.4-7.26,2.43-2.16,4.32-2.59,2.81-3.42,6.85-.13,1.26-1.01,4.02,2.43,7.26-.76,4.55,3.87,6.57,6.85,3.42,.05,3.77,1.02,4.72,2.62,2.59,1.74,4.44,1.93,5.09,2.95,5.88,1.04,1.45-1.92,7.85,2.36,7.65,4.31,1.76-4.51,7.4,.83,9.52,3.29,4.95,.85,7.42,2.22,9.39,1.24,3.82,.83,6.31,1.92,10.17,1-.11,3.49,2.62,.96,8.88-2.57,1.49-2.51,5.3,.58,7.37-2.98,2.81-5.29,4.07-2.67,4.12-.75,8.93,.38,5.42-.86,9.81-2.89,3.98-.17,10.8-1.19,8.13,.82,3.65,.7,3.52-1.62,6.49,2.18-1.95,.54,4.71,.56,7.63,5.1,.53,8.53,.43,5.79,5,.93,4.09,.63-.31,3.15,.51Z"/><path fill="$[hairColor]" stroke="#000" stroke-width="5" d="M279.24,231.01c3.76-.1,4.62,.9,7.49-2.7,4.84-1.26,4.85-7.54,3.61-7.39,2.2-2.01,5.05-5.2,1.72-6.73-2.61-1.71-.77-3.38-.88-7.26,3.32,1.12,.64-3.02,2.92-6.56-3.11-.92-.79-7.99-2.69-7.59-2.89-5.53-2.44-5.14-1.92-7.48,.93-1.28-.14-4.6,1.98-5.6,3.74-.84-3.21-8.61-1.81-12.02,.25-3.91-1.27-11.52-1.14-11.48-3.38-3.69-.41-5.06-3.42-10.52-2.66-7.87,.63-5.19-3.34-9.83-1.09-4.1-4.4-8.79-4.04-9.04-2.71-5.82-.83-5.31-4.74-8.24-.09-2.53-13.84-3.65-5.43-7.44-6.27-6.97-3.1-3.89-9.07-9.5-.24-4.14-8-5.74-9.07-6.43-3.04,.82-10.21-2.61-9.51-4.94-2-1.03-3.6-4.33-9.39-3.31-4.21-1.57-5.22-.47-8.94-1.98-4.26,1.39-6.92,.74-8.18-.93-.09,1.44-1.9,.22-.13,0-.49,.75-2.54,1.96-7.58,2.78-6.11,.83-3.96,.21-3.55,7.54,.45,3.89,4.67,2.91,2.58,7.98,2.75,2.13-1.45,1.8,7.24,3.72,5.4,.44,6.47,2.48,12.59,2.11,5.78-1.79,.46-3.71,6.94,2.51,6.46,2.88,7.3,2.88,6.88,3.43,.43,2.64,9.96-.25,8.04,4.19-.02,3.59,2.43,2.01,5.09,7.26,2.98,4.88,2.51,3.76,4.35,6.02,1.62,1.58,8.5,4.58,3.78,6.77,.17-2.83,4.35,8.22,2.75,8.13,2.84,4.49-.68,4.75,3.1,7.66-2.17-1.24,5.59,6.44,2.08,9.29-.36-.58,3.52,.71,4.5,3.71,1.02,1.83,1.09,4.52-3.02,5.76-5.38,7.52-5.88,5.84,.72,10.16-4.05-1.09,5.69,13.69,.55,11.51-.52,3.95,.98,6.34-.47,11.98,1.93-3.48-.31,5.76-.57,12.56-.84,3.54,.59,7.76,2.43,8.04,4.1-2.39,3.65,3.18,7.17,3.87,2.95,2.12,3.17-1.09,.34,.02Z"/><path fill="$[hairColor]" stroke="#000" stroke-width="5" d="M327.55,227.19c2.57-.18-.43,1.31,.71-.03,1.91,.14,7.09-1.46,6.85-3.42,.18,.03,1.64-3.27,2.42-7.26-.2-2.71-1.45-8.41-1.33-10.87,.55-3.73-2.4-7.53-1.45-10.52-2.87-4.41,1.68-5.95-1.76-10.04-1.14-4.48,.19-4.66-3.43-9.82-4.13-4.88-2.81-8.22-3.91-10.09-1.58-4.41-3.73-5.87-3.63-8.13-2.8-4.59-2.23-5.78-4.64-8.46-2.09-1.78-4.06-5.8-5.21-8.01,.47-3.15-3.3-3.21-2.76-4.81-.7-.96-.96-3.73-5.05-5.14-.9-2.18-4.77-4.01-4.67-4.72-2.63-4.77-3.62-1.9-4.13-4.38-.16,1.29-3.8-3-4.38-4.02-.19-2.22-5.6-2.53-5.38-4.19-3.47-2.83-3.97-5.19-9.14-7.64-3.82-1.53-4.85-2.28-10.65-4.76-2.14-1.61-9.5-1.23-9.82-4.53,1.53-3.62-3.86-2.56-9.57-3.58-4.36,1.41-6.09-.28-9.17-2.73-.33,.84-4.09-2.4-8.61-1.99-4.73,.97-6.55,.8-8.57-.46-1.71,.23-2.17-.83-6.35-1.77-4.67-.14-8.59-1.28-10.85-.62-.24-.06,1.81,.25-.15,0-2.4-1.12-4.44,.49-7.01,2.87-1.83,1.14-1.73,4.45-2.98,6.98,.11,2.92-.7,5.53,2.83,7.11,1.01,2,3.85,4.09,7.03,3.03,4.49-1.55,6.71-2.63,12.23,.85,2.07,2.05,2.2,2.61,8.14,1.25,1.73-2.51,7.36,.83,9.14,2.04,2.02,1.7,6.41,2.1,10.03,3.09,7.28-1.44,7.14,2.41,10.23,4.13,2.14-2.39,9.26,2.14,9.37,4.85-3.22,2.37,5.73,4.88,6.91,3.39,3.61,.75,4.07,2.27,4.9,4.41,1.69,3.41,6.29,6.24,7.56,6.29,4.42,1.04,2.6,6.14,6.86,6.87,3.59,1.55,3.25,8,6.03,7.03,4.53,3.53-.28,9.81,5.59,8.46,2.04,3.29,7.84,6.6,4.94,8.55-.45,3.08,4.54,7.49,3.85,9.23,4.65,.95,7.05,4.5,5.94,5.73,2.19,.76-2.12,3.33-2.39,3.88-.94,1.97-.17,9.31,2.4,10.41-1.01-.98-3.63,1.98-2.62,5.01-.59,1.79-.59,7.02,4.83,6.39,1.14,2.83,.98,7.95,.87,10.83,1.03,2.25-2.36,6.01,3.17,6.62,2.75,1.76,2.32,4.34,6.79,2.67Z"/><path fill="$[hairColor]" stroke="#000" stroke-width="5" d="M350.62,287.02c1.7-1.47,7.61-4.88,7.58-10.03,4.04-2.6,5.08-7.08,2.94-10.74-3.91-5.12,1.15-6.91,1.95-10.96,1.03,.09-2.97-10.44,1-10.73,.65-5.4,2.56-8.96,.11-11.59-2.18-6.08-.15-8.16-.74-11.31,3.04-1.33-3.82-10.52-1.53-11.09-3.34-5.75-3.13-4.39-2.28-11.67-1.94-3.8-2.99-8.34-2.97-10.26,4.45-.12-3.88-4.26-3.62-12.24,4.66-7.66-.66,1.39-4.21-8.7-4.74,2.95-2.6-3.59-3.65-6.93-1.78-.52-3.51-3.84-4.1-6.71-6.99-1.63,.37-6.05-4.56-6.45-8.08-.18-4.44-2.4-6.51-7.72-2.4-3.46-4.74-5.97-7.04-8.41-1.91-1.44-9.61-4.63-6.81-6.99-6.25-.36-4.97-3.17-5.02-5.38-3.84-4.49-6.13-5.92-10.13-8.31-3.07-1.75-6.8-5.63-8.37-5.26-4.95-2.04-8.57-1.96-11.31-4.12-5.16-.25-5.19-.39-3.84-.15-3.9,.45,5.9,7.11,3.82,7.16,5.74,1.24,6.77,4.14,4.27,8.13,2.77,1.85,1.62,6.64,5.39,10.45,2.83,1.4,1.49,6.24,2.97,5.53-.03,4.55,.85,6.06,3.4,7.1,2.34,.57-.35,2.64,2.87,6.49,2.22,.17,2.72,.36,3.57,6.56,.69-.81-1.13,4.16,3.38,7.02-4.03,1.49,1.25,2.43,3.37,7.13,2.82,3.34,4.55,5.32,3.31,7.34,1.69,.89,4.25,4.28,3.21,6.96-.17,2.69-.77-1.92,3.43,6.83,5.63-1.22-.63,2.73,2.54,6.39,2.68,1.27-4.06,4.85,2.17,6.09-4.74,4.19,3.06,3.75,2.9,7.58-2.68,1.44,2.15,8.36,3.83,11.35-5.23,1.03,2.99,5.24,2.27,9.65-.88,6.28,.73,10.85,1.09,11.66-4.06,7.18,3.61,4.38,1.84,5.78,.18,1.39-.63,5.02,2.37,7.65-.34,4.28,4.29,6.5,2.68,8.87,.54,1.01-4.08,4.36,2.77,8.16,1.69,1.97,5.22,6.32,2.64,8.22,.27,4.29,3.75,8.59,3.04,7.65Z"/><path fill="$[hairColor]" stroke="#000" stroke-width="5" d="M294.18,149.41c-19.33-.75-25.79-4.47-32.24-13.66-6.46-9.19-12.34-15.58-20.94-19.58s-16.89-5.3-17.84-8.87,14.94-6.06,17.43-4.32,48.17,31.28,48.17,31.28l5.43,15.15Z"/><path fill="$[hairColor]" stroke="#000" stroke-width="5" d="M154.71,113.81c5.88-1.09,12.7,.55,9.7,3.31,12.58,5.32,5.2,3.5,4.46,2.58,4.92,.56,14.3,2.98,10.5,4.94,2.28-.46,8.9-.51,8.67,.78,5.21,.62,7.97,1.5,2.85,2.43,5.24,3.19-3.24-3.73,6.71-1.7,5.58-1.29,.16-8.48,7.19-7.56,1.19-2.82,9.75-2.05,3.84-2.68,2.35-2.23-.17-.75,7.98-1.35,7.94,1.67,7.59-.07,9.2-.87,2.27,.19,1.06-1.16,1.9-2.43,1.67,1.26,.6,1.91,3.32,1.89,5.22-.03,6.44-.75,7.57-3.22-4.07-3.04,3.74,2.28,8.29,1.66,7.18,2.93,6.32-1.9,9.39,.34,7.89-2.43,8.69-.97,8.36,.61,3.24,1.09-.83,.43,3.57,4.22,7.35,4.39,2.3,8.84,5.33,8.85,2.98,1.61,6.64,8.89,4.27,5.13,2.74,3.45,8.59,6.37,3.84,5.27,4.3,6.1,3.75,3.71,5.44,5.34,1.42,4.23-3.58,1.34,6.68,2.76,6.11,3.23,2.58-1.71,9.73,3.18,2.86,2.71,3.96,3.67,8.23,2.83,4.51,5.06,3.4-5.01,3.53,2.23-3.55,4.8,2.31,6.53,2.69,4.82-4.92,.96-.02,6.12,5.79,8.55,4.44-1.91,6.46,6.85,5.83,8.01,4.7,.22-.9,7.43,2.65,3.56,.55-2.39-1.56,.33,.59,2.54-3.19,2.26,.83,6.7,4.14,9.73,1.64,4.59,2.02,6.92,5.25,11.2,1.6,4.79,3.18,5.83,4.42,9.97,5.76,6.3,6.3,9.44,7.87,6.62,.13-1.89-.22-3.65,1.86-5.89-.66-3.12,3.32-3.84,1.11-8.42-1.65-6.28-.13-7.61,.1-10.43,1.39-5.6-1.63-4.85-1.19-10-1.3-2.06-7.23-7.99-4.26-10.96,.12-6.1-1.61-6.31,.44-11.17-1.9-3.52-1.55-5.04-1.58-9.48,1.87-3.19-2.48-5.98-3.66-9.92-.6-2.49-8.2-1.48-2.75-7.64,1.37-1.96,.43-4.93-2.57-4.6-4.61-1.77,3.92-3.37-3.74-5.6-.87-.62-2.17-2.41-5.58-4.76,.58-1.12,.86-1.02-5.35-5.13-6.71-4.68-10.19,2.84-5.73-2.95-1.59,.35-7.12-.53-6.01-3.61-2.1,2.55,1.35-7.6-6.22-3.56-6.1,.04-10.63-3.45-10.38-6.18-2.59-7.72-6.19-5.07-9.3-5.7,1.3-3.34-8.16-.72-6.15-2.55-1.08,1.08,.68,.23-7.06-4.97-6.6-1.85-8.67-2.92-9.55-4.92-3.12,2.45-5-2.66-4.29-3.85,2.3-.42,.18-1.19-5.46-2.54,.28,.15,.94-.85-7.11-.94-.83-.35-5.1,.03-8.01,.66-2.21-.63-8.02-2.36-11.04-1.48-2.81,2.39-9.26-4.51-9.17-.2-2.3-.17-8.8,2.45-8.6-.17-1.14-.19-6.54-2.25-5.87-1.51-1.39-4.01-8.42,.85-7.39-.4-3.2,.55-4-3.47-9.56-.02-5.61,.44-7.02-4.04-10.15,.4-.59,2-1.92,2.99-4.56,2.05-.98-1.06-4.24-2.09-6.91-2.15-5.13-3.29-5,.63-10.5,.6-1.58-1.1-5.62-.37-9.27,1.47-.72,.29-.98-2.48-6.87,3.67-2.95,.13-4.59,2.73-6.19,3.77-1.53,1.41-7.44,3.83-6.69,6.29-.18,4.51-11.87,.24-9.05,4.11-8.76-1.04-4.33-.03-8.96,2.99-4.54,4.31-8.21,3.88-7.93,3.74-6.41,1.56-1.96,6.68-6.18,4.28,2.82,1.94-2.4,5.34-4.56,3.62-2.09,2.25-1.16,.71-6.98,7.71-6.6,4.26,2.78,2.48-7.97,7.28-4.34,3.73-7.95,4.4-5.3,5.07-2.95,3.89-3.03-1.99-5.64,4.14-5.97,2.51-9.33,4.13-5.5,5.12-.63-1.2-1.29,10.11-2.82,5.6,2.33-1.12,2.91,10.27-2.39,7.02,1.01,7.73-4.11,7.12-2.02,8.8-2.59,3.04-3.5,6.96-1.83,8.71,.62,1.71-.46,6.06-.99,8.78-1.29,5.26,1.74,8.54-.99,8.26-.8,3.24,8.72,8.84,6.94,6.8,.28,.22,2.37-6.43,5.68-9.71,5.27-5.81,1.41-8.07,5.78-9.09,2.01-5.62,3.81-9.65,6.58-9.7,3.95-4.67,5.05-1.12,6.6-2.8,1.08-6.48,3.77-3.07-.12-5.6-.05-3.95,4.22-1.28,5.53-6.18-.94,.38,10.7-1.66,7.46-2.22,2.86-3.55,1.53-2.7-1.56-1.6,4.39-3.44,1.93-3.45,5.16-3.03,1.18-3.1,6.91-6.04,4.78,.47,2.25,3.8-1.64-1.92,8.31-1.18,8.22,5.56,10.06-1.13,10.42,.91,12.75-4.88,7.05-2.55,4.52-1.69,5.07,5.17,7.14,5.1,5.49,1.6,1.59-3.23,.94-1.47,3.2-7.12-.9,.36-1.29-1.47,2.84-1.93,4.68-2.14,8.63-1.88,7.3-4.36,2.05-3.74-1.52-5.03,4.48-3.88,.9-2.32,2.47-1.73,2.68-2.14-9.29-5.36,2.08,.29,2.48-3.56Z"/><path fill="$[hairColor]" stroke="#000" stroke-width="5" d="M296.35,95.53c7-3.9,1.68-4.36,.67-9.18-4.62,1.13-5.54-8.32-.78-7.04-.5-2.61,6.05-2.07-.74-6.84-8.71-1.71,1.44-8.74-.93-6.77-1.9-.75,.71-9.31-3.47-6.29-9.83,.84-5.61-5.77-3.47-6,1.44-3.96-5.5-4.01-3.53-6.03-4.64,.88,.7-9.71-6.8-8.21-4.56,5.23-13.52-2.94-9.62-3.29,.55-2.92,5.3-9.12,1.62-4.13-9.72-2.03-7.27-8.49-8.52-6.43,.56-6.33-.13-6.96-2.05-1.9,7.81,1.27-6.11-3.94-8.6-3.74-2.22-2.75-2.94-7.24-4.94-3.2,9.75,.58-4.94-4.11-6.43-1.36,6.41-11.01-2.56-1.38-6.46-3.98-2.22-.7-3.03,4.68-4.8,.76-5.5-3.44-.61-7.44-6.16-.91,3.29,.92,1.55,.27-6.54-.83,6.79-6.28-6.88,4.19-6.16-.41-3.03,5.62-.77,1.68-6.32-.61,.46-.38-12.3,1.19-7.47,.05-3.32,1.16,.46,1.81-.49,.33,2.47-4.57-10.46-8.34-5.64-.12-7.78,2.29-5.65-2.3-7.58,2.73,.7-4.17-4.92,1.83-4-.22-5.11,1.57-2.73,6.88-3.97,3.54-3.97-1.59-6.83,.5-7.08,.81-9.27,8.38,2.19,1.93-6.79,3.51-2.86,1.01,8.18,7.2-4.78-.07-6.86-4.2-1.75,10.82-4.77,3.69-4.63-1.67-6.14,.38-6.39,1.22-4.42,4.33-5.77,10.66-6.03,8.03-.79-.55,1.49-1.41-1.97-.87-4.07-.6-8.33,3.86-9.1,.22,.22,.55,5.17,3.61,.68,6.17,2.51,2.28,.39,3.41-2.1,4.56s-5.33,2.32-4.28,4.67c-7.32,2.22-1.14,.34-6.58,8.22,5.62,2.41-.93-.39-2.96,10.22-4.21,9.15-.77,4.95-3.32,11.09-2.28,1.8-3.16-2.23-.06,9.43,13.27,2.19,7.46,1.69,.67,9.18,.23-.42,6.28-.53,6.45,0,7.63-.08,7.71,2.12,8.07-1.1,3.43-2.14,4.4-.1,9.16-1.38,8.37-.1,3.67,3.53,.05,2.48-8.95,4.74,1.14-1.15,4.65,.86-3.16-1.77,2.65-11.21,7.63-.61,2.68,1.52,8.91-3.95,6.74-.29-5.71-4.17,3.53-2.12,5.28-1.81,1.28,1.13,3.75,4.78,.73,1.86,2.01,.75,10.55-.67,5.77,1.6,1.67,1.97-.34-5.95,5.16-4.12,3.55-1.49,9.56-7.84,1.19,3.33,10.15-2.83,8.9,1.49,7.85-2.73,1.09-1.98,3.84,1.7-.42,3,4.49,7.32,5.07-4.85,7.09-.22,2.07-4.21-2.42,1.64,3.01-.85,2.75,.47,.82,5.91,5.69,2.58-6.74,.49-.8,4.22,1.93-1.18-2.99,5.36,1.14-7.39,8.07-1.22,1.58-2.29,4.54,10.44,7.64,2.07,2.23-.48-6.9,.66,7.88-2.25,.19-5.33,5.71-5.23,6.16-3.53,6.91,1.2,2.37,6.31,3.08,4.34-3.36,5.56,.64,4.18,5.97,.27,6.42-3.11,4.99,1.95,7.09-.72,.25-5.5,10.74,5.01,7.36-.36,5.28-3,14.75-5.45,6.53-.58-6.08-6.48-4.3-3.38,6.62,.62,6.14,.76,8.84,1.49,11.87-.05,6.74-2.36,2.77-1.62,9.8,0,9.15,1.34,4.88,5.22,7.48,0-.07-1.38,9.39-7.77,6.45,0Z"/></svg>