<?xml version="1.0" encoding="utf-8"?>
<!-- Generator: Adobe Illustrator 27.2.0, SVG Export Plug-In . SVG Version: 6.00 Build 0)  -->
<svg version="1.1" id="Capa_1" xmlns="http://www.w3.org/2000/svg" xmlns:xlink="http://www.w3.org/1999/xlink" x="0px" y="0px"
	 viewBox="0 0 400 600" style="enable-background:new 0 0 400 600;" xml:space="preserve">
<style type="text/css">
	.st0{stroke:#000000;stroke-width:4;stroke-miterlimit:10;}
</style>
<g>
	<path class="st0" fill="$[hairColor]" stroke="#000000" stroke-width="4" d="M295.6,513.7c10.6-12.3,9.8-27.4,13.8-42.1c-10.3,0.5-18.9,3.6-27.1,7.7c-0.3-0.3-0.6-0.6-0.9-0.9
		c0.9-0.8,1.6-2.2,2.7-2.6c7.1-2.1,14.2-4.3,21.4-5.8c2.6-0.6,4.1-0.9,4.6-3.6c6.3-30.5,10.2-61.3,7.9-92.5
		c-1-13.9-3.5-27.7-4.7-41.6c-0.7-8.4-5.2-14.3-11.4-19.8s-11.8-11.2-17.6-16.9c-1-1.2-1.6-2.7-1.8-4.2c-0.6-2.7-1-5.5-1.6-8.6
		c-7.8,1.4-13.6-1.6-20-5.2c-10.8-6.1-22.6-10.9-34.8-16.6c-0.4-25.7-12.3-49.4-25.1-72.9c-9.3,15.4-26,45.2-25.9,74.3
		c-14.9,4.2-28.5,10.8-41.3,19c-3.3,2.1-8.5,1.7-13.4,2.4c-0.3,0.6-0.5,1.2-0.6,1.9c-0.1,6.9-3.8,11.7-9.2,16.2
		c-4.8,3.9-8.7,8.9-13.6,12.7c-8.8,6.8-8.7,16.4-10.2,25.4c-7,42.2-4.9,84,4.2,125.8c0.7,3.3,2.2,3.7,5.4,4.4
		c7.3,1.4,14.3,3.7,21.4,5.9c1.2,0.6,2.1,1.6,2.5,2.8c-8.9-2.7-17.9-5.5-26.8-8.2c-0.4,0.5-0.8,1-1.2,1.5c3.7,14,2.7,29.1,13.5,41.3
		c-0.4,0.3-0.8,0.6-1.3,0.9c-1.3-0.7-3-1.3-3.9-2.4c-7.9-10-16.8-19.4-23.1-30.1c-5.5-9.6-13-16.5-22.2-22.4
		c-10.9-7.1-21.5-14.5-32.1-22.1c-1.2-0.8-1.8-2.8-2.3-4.4c-1.9-5.4-3.4-10.9-5.5-16.3c-2-5.2-4.6-10.2-6.9-15.4
		c-5.4-12.3-3.7-25-2.5-37.7c5.1-52.3,20.7-102.5,37.5-152.4c6.6-19.5,13.1-39.1,23.9-56.9c5.4-8.9,12.9-16.9,20.7-24.3
		c19.7-18.7,41.4-35.2,67.9-44.9c17.3-6.3,35-11.1,54-8.7c16.9,1.9,33.2,6.7,48.2,14.2c29.2,14.8,54.5,34.4,73.2,60
		c8.3,11.4,13.6,25.1,18.4,38.3c16.1,44.7,30.9,89.7,39.4,136.2c3.7,20.3,6,40.8,6.6,61.4c0.3,8.7-5.2,17.7-8.3,26.4
		c-2.5,7.2-5,14.3-7.9,21.3c-0.8,2-3.1,3.4-5,4.8c-8.6,6.1-17.2,12.2-25.9,18.2c-4.4,3.1-9,5.9-13.2,9.2c-2.7,2-5,4.4-6.8,7.1
		c-7.8,13.6-16.3,26.7-27.8,37.9c-1.2,1.1-2.6,2-3.9,3.1C296.6,514.2,296.1,513.9,295.6,513.7z M336.5,461.6l0.7,0.7
		c7.1-4.8,14.2-9.6,21.2-14.5c6-4.2,11.9-8.5,17.7-12.8c1.1-0.8,2.3-2.1,2.4-3.3c0.9-7.4,2-14.7,2.1-22.1
		c0.6-55.6-9.3-109.9-21.7-164c-2.8-12.1-5.5-24.2-8.7-36.2c-3.9-14.5-7.9-29.1-12.7-43.5c-3.9-11.7-12-21.4-21.1-30.1
		c-23.1-22.3-48.4-41.9-80.8-51.4c-10.7-3.2-22-5.7-33.1-6.1c-9.7-0.4-19.8,1.9-29.4,4.1c-25.4,6-47.3,18.1-66.4,34.5
		c-11.1,9.3-21.6,19.3-31.3,29.9c-13.5,15-17.6,33.9-21.9,52.3c-6.1,26.3-11.5,52.8-17.6,79c-11.6,49.4-17.3,99.2-13.5,149.8
		c0.3,4.5,2.3,7.2,5.8,9.5c10.4,7.2,20.8,14.4,31.2,21.6c1.6,1.1,3.4,2.2,6.2,4c-1-2-1.3-2.9-1.8-3.6c-3.4-6-8.1-11.6-10-18.1
		c-2.9-9.8-4.3-20.1-5.4-30.2c-3.1-28.1,2.2-55.4,11-82.1c4.7-14.3,10.9-28.3,15.2-42.7c8.1-26.9,20.7-51.6,39.3-73.4
		c12.2-14.4,26.8-26.9,43.2-37c6.9-4.3,14.6-6.7,23.1-5.7c-9.4,1.1-18.3,4.5-25.9,9.9c-25.4,17.7-47.5,38.2-60.1,65.8
		c-7.1,15.5-14.7,31.1-19.1,47.3c-3.4,12.4-2.2,25.8-2.9,38.8c-0.2,3.7,0,7.5,0,11.3c3.8-4.9,6.5-10,9.7-14.9
		c8.1-12.6,20.3-21.7,31-32c1.6-1.6,2.7-3.4,3.5-5.4c2-5.7,2.9-11.8,5.6-17.2c9.6-19.7,19.8-39.3,29.8-58.9
		c3.1-6.1,6.4-12.2,9.6-18.3c0.3,0.2,0.7,0.3,1,0.5c-13.7,27.9-27.4,55.8-41.2,83.7c0.3,0.4,0.6,0.8,0.9,1.2
		c3.8-0.8,8.2-0.7,11.2-2.6c11.5-7.4,24-13.4,37.2-17.8c1.1-0.4,2.6-1.8,2.6-2.6c0-13.1,4.2-25.4,9-37.5c5-12.5,10-25.1,19.4-37
		c3.9,7.4,7.5,13.7,10.6,20.3c8.2,17.3,15.8,34.9,16.4,54.3c0,1,2.1,2.3,3.5,3c11.5,5.6,23.3,10.6,34.5,16.7
		c4.4,2.4,8.5,2.7,14.1,2.6c-14.7-29.7-29.2-58.8-44-88.8c2.4,3.5,4.6,6.2,6.2,9.2c10.2,19.7,20.3,39.4,30.2,59.2
		c4.2,8.4,8.7,16.8,11.1,25.8c1.3,5.4,4.4,10.2,8.8,13.9c14.4,12.4,27.6,25.7,35.5,42.6c0.4,0.6,0.9,1.1,1.5,1.6
		c-0.6-21.9,1.7-43.1-6.7-63.6c-6.6-16.3-13.1-32.6-22.5-47.6c-13.1-20.8-31-37.5-51.6-51.8c-6.9-4.8-14.2-8.7-22.8-10
		c-1.8-0.3-3.5-0.5-5.3-0.7c9.1-1.2,17.2,1.3,24.5,6c31.3,20,55.3,46,69.3,78.7c11.7,27.5,21.3,55.9,30.5,84.3
		c8.7,26.8,11.5,54.4,6.6,82.4c-2,11.3-2.7,22.8-11,32.3C338.7,456.3,337.8,459.1,336.5,461.6z M71,304.6
		c-10.1,26.1-19.2,52.2-20.9,79.8c-1.4,22.7,0.1,45.1,11.4,65.7c8.7,15.8,19.2,30.8,28.9,46.1c1.2,2,3,3.5,4.5,5.4
		c-12.7-57.4-21.1-114.6-7.8-172.7c-0.5-0.1-1-0.3-1.5-0.4c-4.4,6.1-8.8,12.2-13.2,18.3c-0.5-0.1-1-0.2-1.4-0.3V304.6z M316.2,328.6
		c-0.5,0.1-1,0.3-1.4,0.4c5.6,28.7,8.5,57.6,5.4,86.4c-3.1,28.8-8.7,57.4-13.1,85.5c0.6-0.5,1.2-1,1.6-1.7c5-7.3,10.1-14.5,14.9-22
		c5.8-9,12-17.9,16.9-27.3c8.8-17,11.4-35.4,11.5-54.1c0.2-31-9.3-60.2-19.2-89.2c-0.1-0.3-0.5-0.4-0.9-0.7c0,7.1,0.2,14-0.1,20.8
		c-0.3,6.6,1.1,13.5-1.8,20.6C325,340.7,320.6,334.7,316.2,328.6L316.2,328.6z M52.8,191.5c-3.9,11.4-8.1,22.7-11.8,34.2
		c-13.6,41.8-25.9,83.9-31.9,127.4c-1.9,14.1-4.7,28.3,0.4,42.3c2.4,6.7,4.9,13.4,7.4,20.1c0.6-0.1,1.2-0.3,1.8-0.4
		C16.4,338.8,36.1,265.4,52.8,191.5z M347.5,186.8c8.3,37.7,16.4,75.3,24.8,112.9c8.4,37.8,9.4,76.2,12,114.6
		c5.8-12,11.3-23.9,10.5-37.4c-2.1-34.1-9.6-67.3-19-100.1c-6.4-22.4-13.7-44.6-20.7-66.9C352.7,202.2,350.1,194.5,347.5,186.8
		L347.5,186.8z"/>
	<path class="st0" fill="$[hairColor]" stroke="#000000" stroke-width="4" d="M336.5,461.6c1.3-2.4,2.2-5.2,4.1-7.3c8.3-9.4,9-21,11-32.3c5-27.9,2.1-55.6-6.6-82.4
		c-9.2-28.4-18.8-56.8-30.5-84.3c-13.9-32.8-38-58.7-69.3-78.7c-7.3-4.7-15.3-7.3-24.5-6c1.8,0.3,3.6,0.5,5.3,0.7
		c8.6,1.4,15.9,5.2,22.8,10c20.6,14.3,38.5,31.2,51.6,51.8c9.5,15,15.9,31.3,22.5,47.6c8.4,20.7,6.1,41.8,6.7,63.6
		c-0.8-0.8-1.3-1.1-1.5-1.6c-8-17-21.1-30.3-35.5-42.6c-4.4-3.7-7.5-8.5-8.8-13.9c-2.4-8.9-6.9-17.4-11.1-25.8
		c-9.9-19.9-20-39.6-30.2-59.2c-1.5-3-3.8-5.7-6.2-9.2c14.9,30,29.3,59.1,44,88.8c-5.6,0.2-9.7-0.2-14.1-2.6
		c-11.2-6-23-11.1-34.5-16.7c-1.4-0.7-3.5-2-3.5-3c-0.6-19.4-8.2-36.8-16.4-54.3c-3.1-6.6-6.8-12.9-10.6-20.3
		c-9.4,11.9-14.4,24.6-19.4,37c-4.9,12.1-9,24.3-9,37.5c0,0.9-1.5,2.2-2.6,2.6c-13.2,4.4-25.7,10.4-37.2,17.8
		c-3,1.9-7.4,1.8-11.2,2.6c-0.3-0.4-0.6-0.8-0.9-1.2c13.7-27.9,27.4-55.8,41.2-83.7c-0.3-0.2-0.7-0.3-1-0.5
		c-3.2,6.1-6.5,12.2-9.6,18.3c-10,19.6-20.1,39.2-29.8,58.9c-2.6,5.4-3.6,11.5-5.6,17.2c-0.7,2-1.9,3.9-3.5,5.4
		c-10.7,10.4-22.9,19.5-31,32c-3.1,4.8-5.9,10-9.7,14.9c0-3.7-0.2-7.5,0-11.3c0.7-12.9-0.5-26.4,2.9-38.8
		c4.4-16.2,12.1-31.7,19.1-47.3c12.6-27.6,34.7-48.1,60.1-65.8c7.6-5.3,16.5-8.7,25.9-9.9c-8.5-1-16.2,1.4-23.1,5.7
		c-16.4,10.2-30.9,22.7-43.2,37c-18.6,21.9-31.3,46.5-39.3,73.4c-4.3,14.4-10.5,28.4-15.2,42.7c-8.7,26.7-14.1,54-11,82.1
		c0.9,10.2,2.8,20.3,5.4,30.2c1.9,6.4,6.6,12.1,10,18.1c0.4,0.7,0.8,1.6,1.8,3.6c-2.8-1.9-4.5-2.9-6.2-4
		c-10.4-7.2-20.8-14.4-31.2-21.6c-3.5-2.4-5.5-5-5.8-9.5c-3.8-50.6,1.9-100.4,13.5-149.8c6.2-26.3,11.5-52.8,17.6-79
		c4.3-18.5,8.4-37.4,21.9-52.3c9.7-10.6,20.2-20.5,31.3-29.9c19.1-16.4,41.1-28.5,66.4-34.5c9.6-2.2,19.7-4.5,29.4-4.1
		c11.1,0.5,22.4,3,33.1,6.1c32.4,9.5,57.7,29,80.8,51.4c9,8.7,17.2,18.4,21.1,30.1c4.8,14.3,8.8,28.8,12.7,43.5
		c3.2,12,5.9,24.1,8.7,36.2c12.3,54.1,22.2,108.4,21.7,164c-0.1,7.4-1.2,14.7-2.1,22.1c-0.3,1.3-1.2,2.5-2.4,3.3
		c-5.8,4.4-11.7,8.7-17.7,12.8c-7,4.9-14.1,9.7-21.2,14.5C337,462.1,336.7,461.8,336.5,461.6z"/>
	<path class="st0" fill="$[hairColor]" stroke="#000000" stroke-width="4" d="M71,304.6v41.9c0.5,0.1,1,0.2,1.4,0.3c4.4-6.1,8.8-12.2,13.2-18.3c0.5,0.1,1,0.3,1.5,0.4
		c-13.3,58.2-4.9,115.3,7.8,172.7c-1.6-1.7-3.1-3.5-4.5-5.4c-9.8-15.3-20.3-30.2-28.9-46.1c-11.3-20.6-12.7-43-11.4-65.7
		C51.8,356.8,60.8,330.7,71,304.6z"/>
	<path class="st0" fill="$[hairColor]" stroke="#000000" stroke-width="4" d="M316.2,328.6l13.6,18.7c2.9-7.1,1.6-13.9,1.8-20.6s0.1-13.6,0.1-20.8c0.4,0.3,0.8,0.5,0.9,0.7
		c10,29.1,19.4,58.3,19.2,89.2c-0.1,18.7-2.7,37-11.5,54.1c-4.9,9.4-11.1,18.2-16.9,27.3c-4.8,7.4-9.9,14.7-14.9,22
		c-0.5,0.6-1,1.2-1.6,1.7c4.4-28.1,10-56.7,13.1-85.5s0.2-57.8-5.4-86.4C315.1,328.9,315.7,328.8,316.2,328.6z"/>
	<path class="st0" fill="$[hairColor]" stroke="#000000" stroke-width="4" d="M52.8,191.5c-16.7,73.9-36.4,147.3-34,223.7c-0.6,0.1-1.2,0.3-1.8,0.4c-2.5-6.7-5-13.4-7.4-20.1
		c-5.1-14.1-2.3-28.3-0.4-42.3c6-43.5,18.3-85.6,31.9-127.4C44.7,214.3,48.9,202.9,52.8,191.5z"/>
	<path class="st0" fill="$[hairColor]" stroke="#000000" stroke-width="4" d="M347.5,186.8c2.5,7.7,5.1,15.4,7.5,23.1c7,22.2,14.3,44.5,20.7,66.9c9.4,32.8,16.9,66.1,19,100.1
		c0.8,13.5-4.7,25.4-10.5,37.4c-2.6-38.4-3.5-76.9-12-114.6C363.9,262.1,355.8,224.5,347.5,186.8z"/>
</g>
</svg>
