<?xml version="1.0" encoding="utf-8"?>
<!-- Generator: Adobe Illustrator 27.2.0, SVG Export Plug-In . SVG Version: 6.00 Build 0)  -->
<svg version="1.1" id="Capa_1" xmlns="http://www.w3.org/2000/svg" xmlns:xlink="http://www.w3.org/1999/xlink" x="0px" y="0px"
	 viewBox="0 0 400 600" style="enable-background:new 0 0 400 600;" xml:space="preserve">
<g>
	<path fill="$[hairColor]" stroke="#000000" stroke-width="4" d="M218.5,42.8c5.4-7.8,13.7-12.2,23.7-14.9C228,39.3,214,50.7,208.4,68.2c3.4-0.2,5.8-0.3,8.1-0.5
		c11.7-1.3,23.5,1.3,33,7.2c16.9,10.1,29.8,24,37.3,40.2c1.1,2.5,2.6,5.2,2.3,7.7c-0.5,4.3,1.8,6.4,5.7,8.6
		c28.8,16.9,46.9,40.3,56.6,68.2c8.3,23.9,12.2,48.2,7.2,73c3.2,15.2-0.6,30.2-2.2,45.2c-2.4,22-9.4,42.9-27.3,60
		c-16.7,15.9-33.6,31.6-50.4,47.4c-0.9,0.7-1.9,1.2-2.9,1.7l-1.1-0.7c0.8-1.4,1.6-2.8,2.5-4.2c9.6-14.9,19.9-29.4,28.6-44.6
		c18-31.3,18.5-63.7,5.1-96.3c-2.2-5.5-5.3-10.8-9.1-15.7c-10.2-12.7-21.1-25-32.5-38.2c-0.3,1.1-0.5,2.3-0.6,3.4
		c-0.2,7.7-0.4,8.3-9.4,9.7c-8.2,1.3-16.4,2.3-24.7,2.8c-32.6,2.2-65.2,2-97.7-2.3c-1.3-0.2-2.6-0.6-3.9-0.7c-6-0.7-9.2-3.3-8.2-8.6
		c0.1-1.6,0.1-3.2,0-4.7c-19.7,23.1-42.7,43.1-48.4,71.7c-5.4,26.9-3.8,53,10.6,77.7c9.1,15.6,19.5,30.6,29.3,45.9
		c1,1.4,1.5,3,1.4,4.6c-0.9-0.3-2-0.5-2.6-1c-19.1-18.1-38.5-36-57.1-54.5c-5.2-5.2-8.4-12-11.2-18.4c-4.1-9.6-7-19.6-10.5-29.4
		v-12.3c0.4-4.9,0.7-9.7,1.3-14.5c0.8-6.1,2-12.2,2.6-18.3c0.6-4.2,0.7-8.5,0.4-12.7c-4.8-43,7.9-81.6,40.6-115.4
		c10.4-10.9,22.7-20.4,36.5-28.1c3-1.7,3.8-3.5,2.9-6.3c-4.4-13.5,0.4-24.2,14-32.2c14.2-8.3,29.2-15.4,46.3-18.1
		c6.6-1,13.7-0.2,20.8-0.2c-5.1-5-12.1-9-19.6-12.3c-7.5-3.3-15.1-5.9-22.6-8.8c6-1.6,19.3,2.5,37.2,11.5c-3-11.4,4.5-42.4,12.7-51
		c-0.9,7.2-2.1,13.8-2.5,20.5c-0.6,7.7-0.7,15.4-0.6,23.2c0,1.4,1.7,2.8,2.7,4.2c-0.1,1.9-0.3,3.8-0.4,6.5l23.3-25.5l-0.5-0.5
		L218.5,42.8z M128.2,137.1c-13.2,7-26.9,13.1-39,20.8c-14.5,9.3-28.2,20-34.1,35.2C46.7,214.8,40,236.8,42.8,260
		c0.3,2.5,0.4,5.1,0.5,7.6c1.5-1.2,2.7-2.6,3.4-4.2c9.5-17.4,18.3-35,28.6-52c6.6-10.9,15.3-21,23.2-31.4c1-1.3,2.9-2.2,4.4-3.3
		c-1.5,3.1-3.7,5.3-5.7,7.6c-21.5,25.7-36.3,54.2-49.9,83.2c-4.5,9.6-7.6,19.6-7.5,30.1c0.1,3.8-0.1,7.6-0.5,11.4
		c-2.4,19.7,6.4,37.2,15.2,54.7c1.3,2.3,2.9,4.4,4.9,6.3c14.5,14.2,29,28.3,43.6,42.4c0.9,0.8,2,1.5,3,2.2c-0.2-1.6-0.8-3.1-1.8-4.5
		c-7.6-12.5-16.6-24.6-22.6-37.6C62.2,330,66.2,289.3,99,251.8c5.2-6,10.9-11.8,16-17.8c4.1-4.9,8.8-9.7,11.3-15.2
		c6-13.2,10.9-26.7,16.5-40.7c0,1.3-0.2,2.5-0.4,3.8c-2.4,6.8-5,13.5-7.4,20.3c-2.4,6.8-4,13.6-6.7,20.2c-4.4,10.8-1.4,15.5,12,17.1
		c25.3,2.8,50.8,4.1,76.3,2.6c14.1-0.8,28.1-2.4,42.2-3.5c6.1-0.5,7.9-3.2,7.2-8c-1.5-11.1-4.7-21.9-9.5-32.3
		c-2.7-5.8-4.4-11.9-6.5-17.9c6,12.1,11,24.3,16.2,36.6c0.9,2.4,2.1,4.7,3.7,6.8c8.3,9.8,16.8,19.5,25.3,29.1
		c27.2,30.6,33,64.8,23.7,101.2c-5.3,20.7-18.2,38.7-30.4,56.9c-0.9,1.4-1.8,2.8-2.7,4.2c11.3-9.1,21.2-19.1,32-28.4
		c19.5-16.8,30.6-37.1,35.5-59.7c2.3-10.8,1.9-22,3.6-33c1.6-10.7-1.2-20.1-7.9-29.2c-5-6.7-9.6-13.6-13.8-20.6
		c-12.5-21.8-24.7-43.7-41.9-63.3c-0.2-0.2,0-0.7,0-2.1c2.1,2.1,3.6,3.4,4.9,4.9c16.9,19.4,28.3,41.3,41.4,62.5
		c4.5,7.3,10.1,14.2,15.2,21.3c1.3-1.2,2.1-2.7,2.3-4.3c3.4-29.6-4.7-59.3-23.1-84.8c-9-12.6-20-23.6-35.5-30.8
		c-3.8-1.8-8-2.9-12.1-4.4c24.4,4.5,38,19.8,51.2,35.6c-11.7-19-26.9-35.4-48.7-47.2c-2.9,4.4-3.2,10-9.7,12.2
		c0.3-1.7,0.9-3.3,1.9-4.7c5.3-7.8,6.7-15.7,2.6-24.3c-7.9-16.3-20.7-29-37.9-39.2c-11.4-6.8-23.2-6.8-34.9-5.2l7.1,13.3l-2,0.7
		c-0.8-1.6-1.6-3.2-2.5-4.8c-1.1-1.9-2-4.2-3.8-5.6c-7-5.4-15.5-8-25-6.5c-19.5,3.1-36.6,10.6-52,21c-10.3,7-12.5,16.2-8.9,26.5
		c1.7,4.9,0.4,8.1-4.8,10.7c-21.3,10.7-35.9,26.7-49.2,43.7c-0.2,0.3-0.2,0.6-0.2,0.9c9-6.4,17.7-13.4,27.3-19.4
		C106.3,145.2,116.9,140.9,128.2,137.1z M205.1,17.7c-8,16-12.7,37,0,45.5V17.7z"/>
	<path fill="$[hairColor]" stroke="#000000" stroke-width="4" d="M128.2,137.1c-11.2,3.8-22,8.1-31.5,14c-9.5,5.9-18.3,12.9-27.3,19.4c0-0.3,0-0.7,0.2-0.9
		c13.4-17,27.9-33.1,49.2-43.8c5.2-2.6,6.6-5.8,4.8-10.7c-3.6-10.3-1.5-19.5,8.9-26.5c15.3-10.4,32.4-18,52-21
		c9.4-1.5,18,1.2,24.9,6.6c1.8,1.4,2.7,3.7,3.8,5.6c0.9,1.6,1.7,3.2,2.5,4.8l2-0.7l-7.1-13.3c11.8-1.6,23.5-1.5,34.9,5.2
		c17.2,10.3,30,23,37.9,39.3c4.2,8.6,2.8,16.5-2.6,24.3c-1,1.5-1.7,3.1-1.9,4.7c6.5-2.2,6.8-7.8,9.7-12.2
		c21.9,11.8,37,28.2,48.7,47.2c-13.2-15.8-26.9-31.1-51.2-35.6c4,1.4,8.3,2.6,12.1,4.4c15.4,7.2,26.5,18.2,35.4,30.7
		c18.4,25.5,26.5,55.2,23.1,84.8c-0.2,1.6-1,3.1-2.3,4.3c-5.1-7.1-10.7-13.9-15.2-21.3c-13.1-21.2-24.5-43.1-41.4-62.5
		c-1.3-1.5-2.8-2.8-4.9-4.9c0,1.3-0.2,1.8,0,2.1c17.2,19.6,29.5,41.5,41.9,63.3c4.2,7.1,8.8,14,13.8,20.6c6.7,9,9.5,18.5,7.9,29.2
		c-1.7,11-1.3,22.2-3.6,33c-4.9,22.6-16,42.9-35.5,59.7c-10.8,9.3-20.6,19.3-32,28.4c0.9-1.4,1.8-2.8,2.7-4.2
		c12.2-18.2,25.2-36.2,30.4-56.9c9.3-36.4,3.5-70.6-23.7-101.2c-8.5-9.6-17-19.3-25.3-29.1c-1.6-2.1-2.8-4.4-3.7-6.8
		c-5.1-12.3-10.1-24.6-16.2-36.6c2.1,6,3.8,12.1,6.5,17.9c4.8,10.4,8,21.3,9.5,32.3c0.6,4.7-1.1,7.5-7.2,8
		c-14.1,1.1-28.1,2.7-42.2,3.5c-25.5,1.5-50.9,0.3-76.3-2.6c-13.5-1.5-16.5-6.3-12-17.1c2.7-6.6,4.4-13.5,6.7-20.2
		c2.3-6.7,5-13.5,7.4-20.3c0.3-1.3,0.4-2.5,0.4-3.8c-5.6,13.9-10.5,27.5-16.5,40.7c-2.5,5.5-7.2,10.3-11.3,15.2
		c-5.1,6.1-10.7,11.8-16,17.8c-32.8,37.5-36.8,78.2-17.3,120.7c6,13,15,25.1,22.6,37.6c1,1.4,1.6,2.9,1.8,4.5
		c-1.1-0.7-2.1-1.4-3-2.2C88.5,398.3,74,384.1,59.5,370c-2-1.9-3.6-4-4.9-6.3c-8.7-17.5-17.6-35-15.2-54.7c0.4-3.8,0.6-7.6,0.5-11.4
		c-0.1-10.5,3-20.5,7.5-30.1c13.5-29,28.4-57.5,49.9-83.1c1.9-2.3,4.1-4.5,5.7-7.6c-1.5,1.1-3.4,1.9-4.4,3.3
		c-7.9,10.4-16.6,20.4-23.2,31.4c-10.3,17-19.2,34.6-28.7,52c-0.7,1.6-1.9,3.1-3.4,4.2c-0.2-2.5-0.2-5.1-0.5-7.6
		c-2.8-23.2,4-45.2,12.3-66.9c5.9-15.2,19.6-25.9,34.1-35.2C101.3,150.1,114.9,144.1,128.2,137.1z M223.6,75
		c7.5,3.3,15.4,6.5,22.9,10.1c7.9,3.8,12.5,10.2,15.5,16.9c3.3,6.8,5.6,13.9,7,21.1c1.1,7.1,0.2,14.4,0.2,21.9
		C278.9,106.2,253.8,78.4,223.6,75z M189.4,80.6l-1.7-1.3c-8.8,8.3-18.3,16.2-26.3,25c-10.5,11.7-14.2,25.2-11.4,39.8
		c0.6,2.3,1.5,4.6,2.5,6.8c-3.3-27.4,2.1-41,24.5-60.1C181.1,87.4,185.3,84,189.4,80.6L189.4,80.6z M234.2,92.1
		c16.4,21.7,23.6,43.7,4.6,66.9C256.9,150,255.9,111.6,234.2,92.1L234.2,92.1z M193.7,161.7c0-12.3-0.7-23.7,0.2-35.2
		s3.3-22.7,5.1-34C192.2,115.1,189.4,137.8,193.7,161.7L193.7,161.7z M217.8,161.8c5.7-5.6,7.8-50,2.6-62.7
		C221.8,120.1,222.4,141.2,217.8,161.8L217.8,161.8z M132.8,137.3c-7.7-24.4,4.3-41.1,28.5-54.5C137.4,89.4,119.3,124.2,132.8,137.3
		z M168.6,178.6c-4.8,9.7-9.6,34.8-8.4,44.5c0.7,5.4,2,10.8,7.1,14.9C156.1,218,165.7,198.4,168.6,178.6z M218.6,237.7
		c1.5-19.1,1.3-38.1-3.4-56.4C216.3,199.7,217.4,218.7,218.6,237.7L218.6,237.7z M180.9,161.9c-6-16.6-5.4-33.4-1-50.2
		C174.4,128.6,173.5,145.3,180.9,161.9z"/>
	<path fill="$[hairColor]" stroke="#000000" stroke-width="4" d="M205.1,17.6v45.5C192.4,54.7,197,33.7,205.1,17.6z"/>
	<path fill="$[hairColor]" stroke="#000000" stroke-width="4" d="M223.6,75c30.2,3.4,55.3,31.2,45.7,70.1c0-7.6,0.9-14.9-0.2-21.9c-1.4-7.2-3.8-14.3-7-21.1
		c-3.1-6.8-7.6-13.2-15.5-16.9C239,81.5,231.1,78.3,223.6,75z"/>
	<path fill="$[hairColor]" stroke="#000000" stroke-width="4" d="M189.4,80.6c-4.1,3.4-8.3,6.8-12.3,10.3c-22.5,19.1-27.8,32.7-24.5,60.1c-1-2.2-1.9-4.5-2.5-6.8
		c-2.8-14.6,1-28.1,11.4-39.8c7.9-8.8,17.5-16.7,26.3-25L189.4,80.6z"/>
	<path fill="$[hairColor]" stroke="#000000" stroke-width="4" d="M234.2,92.1c21.6,19.6,22.7,58,4.6,66.9C257.8,135.7,250.7,113.8,234.2,92.1z"/>
	<path fill="$[hairColor]" stroke="#000000" stroke-width="4" d="M193.7,161.7c-4.3-23.8-1.5-46.6,5.3-69.2c-1.8,11.4-4.2,22.6-5.1,34S193.7,149.4,193.7,161.7z"/>
	<path fill="$[hairColor]" stroke="#000000" stroke-width="4" d="M217.8,161.8c4.6-20.6,4-41.6,2.6-62.7C225.6,111.7,223.5,156.2,217.8,161.8z"/>
	<path fill="$[hairColor]" stroke="#000000" stroke-width="4" d="M132.8,137.3c-13.5-13.1,4.6-47.9,28.5-54.5C137.1,96.2,125.1,112.9,132.8,137.3z"/>
	<path fill="$[hairColor]" stroke="#000000" stroke-width="4" d="M168.6,178.6c-2.9,19.9-12.6,39.4-1.3,59.4c-5.1-4.1-6.4-9.5-7.1-14.9C159,213.4,163.9,188.3,168.6,178.6z"/>
	<path fill="$[hairColor]" stroke="#000000" stroke-width="4" d="M218.6,237.7c-1.1-19-2.3-37.9-3.4-56.4C219.9,199.5,220.1,218.6,218.6,237.7z"/>
	<path fill="$[hairColor]" stroke="#000000" stroke-width="4" d="M180.9,161.9c-7.4-16.6-6.5-33.4-1-50.2C175.5,128.5,174.9,145.3,180.9,161.9z"/>
</g>
</svg>
