<svg id="Capa_1" data-name="Capa 1" xmlns="http://www.w3.org/2000/svg" viewBox="0 0 400 600">
  <title>foreheadf</title>
  <g>
    <path d="M222.63,26.1c3.41.66,6.82,1.36,10.25,2a79.52,79.52,0,0,1,38.67,18.35c29.69,25.53,52.86,55.48,66.38,92.5,8.21,22.49,14,45.56,15.36,69.5,1.81,32.58-.15,65.09-7.08,96.92-2.92,13.42-3.37,26.56-3.47,40-.21,26.82-.13,53.65-.64,80.48-.61,32.39-8.14,63.67-16.21,94.83-2,7.9-4.19,15.77-6.35,23.64a5,5,0,0,1-2,2.77c-1.73-11.17,2.39-22,2.16-33.64-15.79,17.22-31.79,33.18-55,39.13,25.85-92.68,36.19-186.58,37.82-282.47l-9.8,2.93-.62-1.43a36,36,0,0,1,5.53-2.27c3-.71,3.94-2.26,4.36-5.45,4.31-32.23-7.18-61.28-17.93-90.48a8.53,8.53,0,0,0-4-4.07,219.28,219.28,0,0,0-40.1-15c-10.26-2.85-18.54,1.71-27.7,3.05a42.8,42.8,0,0,1-9,0A15.1,15.1,0,0,1,199,156c-12.35-4.95-24.4-2.64-36.19,1.84-9.17,3.48-18.18,7.41-27.16,11.38a8.33,8.33,0,0,0-4.07,4c-9,22.67-16.91,45.68-18.76,70.19-.6,7.83.68,15.8,1,23.71.11,2.72,0,5.45-.11,8.17-1.87,39.47,2.48,78.6,7.4,117.59,4.58,36.32,10.35,72.51,16.53,108.6,2.66,15.53,7.69,30.65,11.68,45.94.37,1.4,1.07,2.72,2.25,5.65-5.78-2.18-10.8-3.42-15.18-5.83A126.53,126.53,0,0,1,98.2,515.53c-.58-.73-1.23-1.4-2.86-3.23l4.07,34.62-1.82.34A10.85,10.85,0,0,1,96,544.53c-6.6-28.53-14-56.92-19.33-85.7-3.08-16.75-3.28-34.14-3.66-51.27-.58-26.65-.07-53.32-.35-80-.06-5.52-1.5-11-2.4-16.53-1.64-10-3.69-20-5-30-3.3-26.5-5.43-53.13-2.38-79.75,6.26-54.64,26.18-103,66.86-141.48,7.68-7.25,15.33-14.68,23.84-20.85,10-7.25,22.06-9.93,34.18-11.75,1.62-.25,3.21-.72,4.82-1.08ZM208.17,39.76c2-7.49,9.52-7.12,15-10.35H194.9l13.29,10.31a50,50,0,0,0-6-3.11c-5.92-2.17-12-6-17.86-5.69-8.07.49-16.18,3.64-23.83,6.76-5,2-9.26,6-13.86,9.16,21.53-1.27,42.37-2.78,61,8.61,19.27-11.27,40-10,61.15-7.84C258.13,36.3,244.27,33,230.16,30.25a2.53,2.53,0,0,0-1.47,0C221.83,33.44,215,36.63,208.17,39.76ZM77.79,259.66l.75.15c-1.09,17.92-2.79,35.83-3.14,53.76-.5,26.16.29,52.33-.05,78.49-.54,40.57,3.79,80.48,14.81,119.59,1,3.39,1.75,6.82,2.62,10.23a5.5,5.5,0,0,0,.68-3.59C91.59,490.2,89,462.14,88,434a1179.36,1179.36,0,0,1,6.92-175.15c1.21-10.63,3.5-21.14,5.3-31.7l1.24.22c-1,5.17-2.54,10.3-3,15.51-2.81,34.69-6,69.36-7.9,104.09-2.9,52.34-.56,104.61,4,156.79.21,2.38.83,5.14,2.25,6.93A132.37,132.37,0,0,0,142,547.09a37.45,37.45,0,0,0,4.36,1.6c-.78-3.54-1.37-6.77-2.21-9.94-3.43-13-8-25.88-10.19-39.12-5.5-33.85-10.53-67.81-14.59-101.86-4.94-41.34-9.8-82.75-7.4-124.56a12.91,12.91,0,0,0-.69-4.28c-.7-2.36-2.24-4.64-2.32-7-1-29.06,6.77-56.35,17.27-83.05.49-1.24,1.72-2.92,1.3-3.67-2.84-5.07,1.65-5.74,4.27-7.36a42.26,42.26,0,0,1,7.57-3.81c11.36-4.19,23-7.7,34.09-12.5,6.18-2.68,11.83-2.42,17.75-.75,10.63,3,21.2,3.67,31.86.25,7.36-2.37,14.56-2.32,21.5,1.55a29.25,29.25,0,0,0,3.32,1.07c12.89,5.24,25.79,10.46,38.64,15.82,1.09.45,2.73,2.31,2.52,2.72-2.72,5.48,1.56,9.46,3.11,13.75,9,24.78,15.36,50,14.43,76.61a22.27,22.27,0,0,1-.93,5.22c-.58,2.06-2,4-2,6.06-.1,13.67.85,27.38,0,41-1.44,23.26-3.61,46.49-6.06,69.67-5.85,55.35-11.82,110.7-29.34,165a133.94,133.94,0,0,0,51-39.5,8.68,8.68,0,0,0,1.51-4.62c1.73-28.44,4.4-56.86,4.77-85.31.44-34.14-.57-68.32-2-102.43-.95-22.94-3.5-45.82-5.69-68.7-.71-7.53-2.51-15-3.82-22.44l1.68-.07c15.62,98.35,15.47,197.12,6.45,296.17,7.46-27.7,15.41-55.39,16.38-84.16,2-59.66,4.25-119.37-.88-179.13,1.82,15.17,3.64,30.34,5.56,46.41.5-2.09.93-3.33,1.08-4.59,2.48-21.15,6-42.25,7-63.47A253.4,253.4,0,0,0,348.49,188c-3.1-20.41-7.15-40.73-19.47-58.48a224.93,224.93,0,0,0-41.92-46,61.09,61.09,0,0,0-27.2-13c-9.79-2-19.6-3.89-29.49-5.2-7.27-1-14.62-.84-20.9,4.22-.72.58-2.48.14-3.67-.18-5.18-1.38-10.28-3.82-15.5-4.11-6.24-.34-12.65.69-18.84,1.89-13.85,2.71-27.79,5-39.64,13.92-15.61,11.74-28.77,25.76-40.33,41.33-4.52,6.09-9.42,12.27-12.2,19.18-8.44,21-12.94,43-15,65.51-2,22.23.32,44.25,2.85,66.26,1.19,10.37,2.88,20.67,4.34,31l.9-.05ZM207.89,68c5.93-5,12.73-5.67,19.63-5.15a178.53,178.53,0,0,1,21.28,2.67c12.56,2.51,25.25,4.93,35.87,12.91a193.72,193.72,0,0,1,40.95,42.09c.76,1,1.66,2,2.5,3a6.1,6.1,0,0,0-.66-3.53c-12.51-26.53-31-48.38-52.81-67.66a13.4,13.4,0,0,0-7.6-3.25c-11.43-.53-23-1.41-34.32-.44-9.24.78-19.28,1.67-24.44,9.63-3.63-2.24-6.74-5-10.37-6.27-15.26-5.36-31.07-5.28-46.87-3.38-3.62.43-7.79,1.69-10.43,4C119.21,71.56,101,93,88.56,119c-.72,1.53-1.37,3.09-1.78,4,9.54-10.53,19.11-21.6,29.24-32.13C128.46,78,143.46,69.44,161.43,66.57c5.91-.94,11.77-2.4,17.71-3C188.9,62.58,198.85,61.13,207.89,68Z"/>
    <path d="M77.79,259.66l-5.34,44.59-.9.05c-1.46-10.33-3.15-20.63-4.34-31-2.53-22-4.86-44-2.85-66.26,2-22.54,6.53-44.54,15-65.51,2.78-6.91,7.68-13.09,12.2-19.18,11.56-15.57,24.72-29.59,40.33-41.33,11.85-8.91,25.79-11.21,39.64-13.92,6.19-1.2,12.6-2.23,18.84-1.89,5.22.29,10.32,2.73,15.5,4.11,1.19.32,2.95.76,3.67.18,6.28-5.06,13.63-5.19,20.9-4.22,9.89,1.31,19.7,3.25,29.49,5.2a61.09,61.09,0,0,1,27.2,13,224.93,224.93,0,0,1,41.92,46c12.32,17.75,16.37,38.07,19.47,58.48a253.4,253.4,0,0,1,2.87,49.74c-1,21.22-4.56,42.32-7,63.47-.15,1.26-.58,2.5-1.08,4.59-1.92-16.07-3.74-31.24-5.56-46.41,5.13,59.76,2.9,119.47.88,179.13-1,28.77-8.92,56.46-16.38,84.16,9-99,9.17-197.82-6.45-296.17l-1.68.07c1.31,7.48,3.11,14.91,3.82,22.44,2.19,22.88,4.74,45.76,5.69,68.7,1.4,34.11,2.41,68.29,2,102.43-.37,28.45-3,56.87-4.77,85.31a8.68,8.68,0,0,1-1.51,4.62,133.94,133.94,0,0,1-51,39.5c17.52-54.35,23.49-109.7,29.34-165,2.45-23.18,4.62-46.41,6.06-69.67.84-13.6-.11-27.31,0-41,0-2,1.47-4,2-6.06a22.27,22.27,0,0,0,.93-5.22c.93-26.62-5.44-51.83-14.43-76.61-1.55-4.29-5.83-8.27-3.11-13.75.21-.41-1.43-2.27-2.52-2.72-12.85-5.36-25.75-10.58-38.64-15.82a29.25,29.25,0,0,1-3.32-1.07c-6.94-3.87-14.14-3.92-21.5-1.55-10.66,3.42-21.23,2.75-31.86-.25-5.92-1.67-11.57-1.93-17.75.75-11.09,4.8-22.73,8.31-34.09,12.5a42.26,42.26,0,0,0-7.57,3.81c-2.62,1.62-7.11,2.29-4.27,7.36.42.75-.81,2.43-1.3,3.67-10.5,26.7-18.23,54-17.27,83.05.08,2.35,1.62,4.63,2.32,7a12.91,12.91,0,0,1,.69,4.28c-2.4,41.81,2.46,83.22,7.4,124.56,4.06,34.05,9.09,68,14.59,101.86,2.15,13.24,6.76,26.08,10.19,39.12.84,3.17,1.43,6.4,2.21,9.94a37.45,37.45,0,0,1-4.36-1.6,132.37,132.37,0,0,1-45.14-36.38c-1.42-1.79-2-4.55-2.25-6.93C90,451.6,87.69,399.33,90.59,347c1.92-34.73,5.09-69.4,7.9-104.09.43-5.21,2-10.34,3-15.51l-1.24-.22c-1.8,10.56-4.09,21.07-5.3,31.7A1179.36,1179.36,0,0,0,88,434c1,28.12,3.59,56.18,5.46,84.27a5.5,5.5,0,0,1-.68,3.59c-.87-3.41-1.66-6.84-2.62-10.23-11-39.11-15.35-79-14.81-119.59.34-26.16-.45-52.33.05-78.49.35-17.93,2-35.84,3.14-53.76ZM210.48,98.81c4.91-1.87,8.79-4.21,12.92-4.76,15.66-2.12,30.92-.62,45,7.28,26.5,14.86,44.9,36.13,52,66.23,1.28,5.42,2.43,10.87,3.63,16.3-1.11-36.27-19.18-62.4-48.94-81.44-9.09-5.81-18.9-10-29.77-10.68C233.42,90.94,221.27,89.66,210.48,98.81Zm-7.28-2.14c-3.65-1.5-7.19-3.72-11-4.35-12.14-2-24.54-2.24-36,2.55-33.46,14-55.95,37.76-63.42,74.14-.76,3.66-.94,7.44-1.39,11.17a12.92,12.92,0,0,0,2.16-5.71C98.16,149,110.47,128.1,130.9,112,152.49,95,175.93,87.66,203.2,96.67Z" fill="$[hairColor]" />
    <path d="M207.89,68c-9-6.91-19-5.46-28.75-4.47-5.94.6-11.8,2.06-17.71,3-18,2.87-33,11.42-45.41,24.36-10.13,10.53-19.7,21.6-29.24,32.13.41-.93,1.06-2.49,1.78-4C101,93,119.21,71.56,140.62,52.67c2.64-2.33,6.81-3.59,10.43-4,15.8-1.9,31.61-2,46.87,3.38,3.63,1.27,6.74,4,10.37,6.27,5.16-8,15.2-8.85,24.44-9.63,11.35-1,22.89-.09,34.32.44a13.4,13.4,0,0,1,7.6,3.25C296.41,71.64,315,93.49,327.46,120a6.1,6.1,0,0,1,.66,3.53c-.84-1-1.74-1.94-2.5-3a193.72,193.72,0,0,0-40.95-42.09c-10.62-8-23.31-10.4-35.87-12.91a178.53,178.53,0,0,0-21.28-2.67C220.62,62.37,213.82,63.08,207.89,68Z" fill="$[hairColor]" />
    <path d="M208.14,39.81q10.28-4.77,20.55-9.52a2.53,2.53,0,0,1,1.47,0c14.11,2.73,28,6,38.69,17.36C247.7,45.47,227,44.18,207.7,55.45c-18.67-11.39-39.51-9.88-61-8.61,4.6-3.12,8.83-7.12,13.86-9.16,7.65-3.12,15.76-6.27,23.83-6.76,5.82-.35,11.94,3.52,17.86,5.69a50,50,0,0,1,6,3.11Z" fill="$[hairColor]" />
    <path d="M208.19,39.72,194.9,29.41h28.31c-5.52,3.23-13.07,2.86-15.05,10.37C208.14,39.81,208.19,39.72,208.19,39.72Z" fill="$[hairColor]" />
    <path d="M210.48,98.81c10.79-9.15,22.94-7.87,34.86-7.07,10.87.72,20.68,4.87,29.77,10.68,29.76,19,47.83,45.17,48.94,81.44-1.2-5.43-2.35-10.88-3.63-16.3-7.11-30.1-25.51-51.37-52-66.23-14.09-7.9-29.35-9.4-45-7.28C219.27,94.6,215.39,96.94,210.48,98.81Z"/>
    <path d="M203.2,96.67c-27.27-9-50.71-1.64-72.3,15.35C110.47,128.1,98.16,149,93.58,174.47a12.92,12.92,0,0,1-2.16,5.71c.45-3.73.63-7.51,1.39-11.17,7.47-36.38,30-60.15,63.42-74.14,11.45-4.79,23.85-4.55,36-2.55C196,93,199.55,95.17,203.2,96.67Z"/>
  </g>
</svg>
