<svg id="Capa_1" data-name="Capa 1" xmlns="http://www.w3.org/2000/svg" viewBox="0 0 400 600">
  <title>hairf_8</title>
  <g>
    <path d="M220.56-19.32c4.73-8.26,12.09-12.92,20.93-15.67C229-23,216.66-11,211.67,7.47c3-.21,5.1-.29,7.15-.52a39.66,39.66,0,0,1,29.08,7.64A93.75,93.75,0,0,1,280.81,57c1,2.6,2.25,5.51,2,8.14-.46,4.55,1.62,6.71,5,9.11,25.44,17.85,41.41,42.48,49.95,72,7.3,25.19,10.76,50.85,6.37,77.07,2.84,16-.5,31.91-1.93,47.74-2.1,23.18-8.25,45.22-24.09,63.29-14.7,16.78-29.62,33.37-44.49,50a13.41,13.41,0,0,1-2.59,1.8l-1-.75c.72-1.47,1.4-3,2.18-4.42,8.45-15.68,17.54-31.05,25.25-47.09,15.89-33.06,16.32-67.17,4.53-101.57a71.1,71.1,0,0,0-8.05-16.56c-9-13.36-18.63-26.33-28.64-40.34a34.59,34.59,0,0,0-.57,3.62c-.2,8.15-.38,8.75-8.28,10.26a202.21,202.21,0,0,1-21.77,3c-28.8,2.32-57.55,2.13-86.17-2.39-1.15-.19-2.26-.6-3.41-.76-5.33-.74-8.1-3.44-7.22-9.12a40.45,40.45,0,0,0,0-5c-17.41,24.35-37.64,45.51-42.72,75.68-4.78,28.39-3.37,55.89,9.35,82,8,16.45,17.21,32.32,25.87,48.46a8.28,8.28,0,0,1,1.27,4.81c-.78-.34-1.8-.48-2.32-1.07-16.88-19.08-34-38-50.35-57.5-4.55-5.44-7.42-12.61-9.86-19.42-3.65-10.14-6.22-20.67-9.25-31v-13c.38-5.12.65-10.25,1.19-15.35.68-6.44,1.73-12.84,2.32-19.29a73.26,73.26,0,0,0,.34-13.4c-4.22-45.38,7-86.07,35.85-121.79A141.5,141.5,0,0,1,131.8,64.52c2.66-1.75,3.38-3.65,2.54-6.7-3.89-14.22.34-25.57,12.39-34,12.51-8.76,25.72-16.26,40.89-19.08,5.86-1.09,12.1-.18,18.34-.18-4.52-5.3-10.71-9.53-17.32-13s-13.29-6.2-19.95-9.26c5.28-1.66,17,2.65,32.78,12.09-2.66-12,4-44.78,11.2-53.81-.81,7.57-1.81,14.56-2.22,21.59-.49,8.14-.59,16.3-.55,24.46,0,1.5,1.53,3,2.35,4.48-.12,2-.23,4-.39,6.82L232.38-29l-.44-.48ZM140.89,80.12c-11.69,7.37-23.72,13.78-34.38,22-12.82,9.85-24.91,21.11-30.08,37.15-7.38,22.89-13.35,46.12-10.87,70.6.27,2.65.31,5.33.45,8a11.29,11.29,0,0,0,3-4.46c8.35-18.33,16.16-36.93,25.26-54.88,5.84-11.53,13.52-22.14,20.51-33.08.89-1.4,2.55-2.3,3.86-3.43-1.35,3.23-3.25,5.54-5,8-19,27.08-32.07,57.17-44,87.75-4,10.12-6.71,20.71-6.6,31.8a106.34,106.34,0,0,1-.42,12c-2.15,20.79,5.66,39.25,13.37,57.72a26.41,26.41,0,0,0,4.35,6.67q19.14,22.44,38.43,44.74a24,24,0,0,0,2.69,2.33,11.87,11.87,0,0,0-1.61-4.75c-6.73-13.21-14.66-25.94-19.94-39.7-17.24-44.92-13.68-87.8,15.26-127.4,4.62-6.32,9.58-12.4,14.09-18.8,3.63-5.15,7.78-10.25,10-16,5.33-13.91,9.65-28.21,14.58-42.92a23.45,23.45,0,0,1-.37,4c-2.14,7.16-4.45,14.27-6.53,21.44s-3.56,14.35-5.95,21.31c-3.91,11.39-1.24,16.4,10.63,18,22.34,3,44.78,4.31,67.28,2.71,12.44-.88,24.81-2.51,37.23-3.69,5.34-.51,6.94-3.41,6.38-8.44a137.64,137.64,0,0,0-8.42-34.13c-2.34-6.13-3.84-12.59-5.72-18.9,5.31,12.72,9.73,25.69,14.25,38.63a28.66,28.66,0,0,0,3.26,7.18q11,15.48,22.35,30.71c24,32.29,29.1,68.36,20.87,106.81-4.66,21.79-16.07,40.79-26.86,60-.83,1.48-1.61,3-2.42,4.47,10-9.61,18.74-20.15,28.23-29.94,17.19-17.74,27-39.12,31.29-63,2.07-11.42,1.72-23.25,3.2-34.81,1.44-11.26-1.06-21.25-6.94-30.78a236.51,236.51,0,0,1-12.18-21.76c-11-23-21.82-46.08-37-66.77-.19-.26,0-.79,0-2.17,1.81,2.18,3.15,3.61,4.29,5.18,14.93,20.45,25,43.6,36.55,65.92,4,7.72,8.9,15,13.4,22.43a7.51,7.51,0,0,0,2-4.52,146,146,0,0,0-20.34-89.44C314.41,110.6,304.65,99.05,291,91.42c-3.36-1.88-7.08-3.11-10.64-4.63,21.51,4.76,33.54,20.89,45.21,37.53-10.35-20-23.72-37.36-43-49.77-2.6,4.63-2.81,10.6-8.57,12.91a13.27,13.27,0,0,1,1.7-5c4.7-8.22,5.93-16.6,2.25-25.67-7-17.21-18.24-30.62-33.4-41.38-10.06-7.13-20.44-7.17-30.83-5.5l6.25,14-1.75.77c-.73-1.69-1.38-3.42-2.21-5.06-1-2.05-1.77-4.47-3.37-5.95C206.46,8,199,5.2,190.62,6.76,173.39,10,158.3,17.94,144.78,28.94c-9.12,7.42-11,17.14-7.83,28,1.52,5.15.35,8.52-4.26,11.29C113.88,79.48,101,96.45,89.24,114.39a2,2,0,0,0-.18,1c7.93-6.8,15.61-14.15,24.07-20.44S131,84.15,140.89,80.12Zm67.87-126c-7.1,16.89-11.22,39.08,0,48Z"/>
    <path d="M140.89,80.12c-9.86,4-19.37,8.55-27.76,14.79S97,108.55,89.06,115.35a2,2,0,0,1,.18-1c11.78-17.94,24.64-34.91,43.45-46.2,4.61-2.77,5.78-6.14,4.26-11.29-3.17-10.82-1.29-20.54,7.83-28,13.52-11,28.61-19,45.84-22.18,8.33-1.56,15.84,1.22,22,6.92,1.6,1.48,2.35,3.9,3.37,5.95.83,1.64,1.48,3.37,2.21,5.06l1.75-.77-6.25-14c10.39-1.67,20.77-1.63,30.83,5.5C259.71,26.2,271,39.61,278,56.82c3.68,9.07,2.45,17.45-2.25,25.67a13.27,13.27,0,0,0-1.7,5c5.76-2.31,6-8.28,8.57-12.91,19.3,12.41,32.67,29.76,43,49.77-11.67-16.64-23.7-32.77-45.21-37.53,3.56,1.52,7.28,2.75,10.64,4.63,13.63,7.63,23.39,19.18,31.22,32.37a146,146,0,0,1,20.34,89.44,7.51,7.51,0,0,1-2,4.52c-4.5-7.47-9.4-14.71-13.4-22.43-11.57-22.32-21.62-45.47-36.55-65.92-1.14-1.57-2.48-3-4.29-5.18,0,1.38-.17,1.91,0,2.17,15.18,20.69,26,43.78,37,66.77a236.51,236.51,0,0,0,12.18,21.76c5.88,9.53,8.38,19.52,6.94,30.78-1.48,11.56-1.13,23.39-3.2,34.81-4.33,23.87-14.1,45.25-31.29,63-9.49,9.79-18.21,20.33-28.23,29.94.81-1.49,1.59-3,2.42-4.47,10.79-19.17,22.2-38.17,26.86-60,8.23-38.45,3.09-74.52-20.87-106.81Q276.88,187,265.85,171.49a28.66,28.66,0,0,1-3.26-7.18c-4.52-12.94-8.94-25.91-14.25-38.63,1.88,6.31,3.38,12.77,5.72,18.9a137.64,137.64,0,0,1,8.42,34.13c.56,5-1,7.93-6.38,8.44-12.42,1.18-24.79,2.81-37.23,3.69-22.5,1.6-44.94.29-67.28-2.71-11.87-1.6-14.54-6.61-10.63-18,2.39-7,3.89-14.23,5.95-21.31s4.39-14.28,6.53-21.44a23.45,23.45,0,0,0,.37-4c-4.93,14.71-9.25,29-14.58,42.92-2.21,5.77-6.36,10.87-10,16-4.51,6.4-9.47,12.48-14.09,18.8-28.94,39.6-32.5,82.48-15.26,127.4,5.28,13.76,13.21,26.49,19.94,39.7a11.87,11.87,0,0,1,1.61,4.75,24,24,0,0,1-2.69-2.33q-19.26-22.33-38.43-44.74A26.41,26.41,0,0,1,76,319.21c-7.71-18.47-15.52-36.93-13.37-57.72a106.34,106.34,0,0,0,.42-12c-.11-11.09,2.63-21.68,6.6-31.8C81.6,187.13,94.68,157,113.67,130c1.72-2.44,3.62-4.75,5-8-1.31,1.13-3,2-3.86,3.43-7,10.94-14.67,21.55-20.51,33.08C85.17,176.44,77.36,195,69,213.37a11.29,11.29,0,0,1-3,4.46c-.14-2.66-.18-5.34-.45-8-2.48-24.48,3.49-47.71,10.87-70.6,5.17-16,17.26-27.3,30.08-37.15C117.17,93.9,129.2,87.49,140.89,80.12Zm84.2-65.54c6.64,3.48,13.55,6.86,20.23,10.66,7,4,11,10.73,13.71,17.88a103.91,103.91,0,0,1,6.18,22.3c1,7.44.22,15.15.22,23.16C273.88,47.5,251.77,18.17,225.09,14.58Zm-30.18,6-1.47-1.34c-7.77,8.76-16.15,17.06-23.17,26.39-9.26,12.31-12.54,26.61-10.1,42a50.71,50.71,0,0,0,2.23,7.17c-2.87-28.9,1.82-43.25,21.63-63.37C187.62,27.73,191.28,24.16,194.91,20.56Zm39.56,12.05c14.48,22.9,20.83,46.08,4.05,70.62C254.49,93.76,253.56,53.29,234.47,32.61Zm-35.74,73.47c0-12.93-.6-25.06.17-37.1s2.93-23.93,4.48-35.89C197.39,56.91,194.92,80.92,198.73,106.08Zm21.25.08c5-5.87,6.85-52.8,2.31-66.21C223.53,62.22,224.05,84.46,220,106.16ZM145,80.35c-6.8-25.74,3.81-43.36,25.11-57.46C149,29.77,133.05,66.49,145,80.35ZM176.6,123.9c-4.22,10.26-8.46,36.75-7.37,47,.62,5.73,1.75,11.36,6.26,15.68C165.52,165.51,174,144.85,176.6,123.9Zm44.08,62.36c1.36-20.12,1.13-40.22-3-59.55C218.64,146.21,219.66,166.23,220.68,186.26Zm-33.27-79.93c-5.29-17.55-4.73-35.22-.87-53C181.66,71.13,180.87,88.81,187.41,106.33Z" fill="$[hairColor]" />
    <path d="M208.76-45.9v48C197.54-6.82,201.66-29,208.76-45.9Z" fill="$[hairColor]" />
    <path d="M225.09,14.58c26.68,3.59,48.79,32.92,40.34,74,0-8,.82-15.72-.22-23.16A103.91,103.91,0,0,0,259,43.12c-2.73-7.15-6.7-13.9-13.71-17.88C238.64,21.44,231.73,18.06,225.09,14.58Z"/>
    <path d="M194.91,20.56c-3.63,3.6-7.29,7.17-10.88,10.82-19.81,20.12-24.5,34.47-21.63,63.37a50.71,50.71,0,0,1-2.23-7.17c-2.44-15.36.84-29.66,10.1-42,7-9.33,15.4-17.63,23.17-26.39Z"/>
    <path d="M234.47,32.61c19.09,20.68,20,61.15,4.05,70.62C255.3,78.69,249,55.51,234.47,32.61Z"/>
    <path d="M198.73,106.08c-3.81-25.16-1.34-49.17,4.65-73-1.55,12-3.7,23.88-4.48,35.89S198.73,93.15,198.73,106.08Z"/>
    <path d="M220,106.16c4.07-21.7,3.55-43.94,2.31-66.21C226.83,53.36,225,100.29,220,106.16Z"/>
    <path d="M145,80.35c-11.9-13.86,4.07-50.58,25.11-57.46C148.76,37,138.15,54.61,145,80.35Z"/>
    <path d="M176.6,123.9c-2.6,20.95-11.08,41.61-1.11,62.65-4.51-4.32-5.64-10-6.26-15.68C168.14,160.65,172.38,134.16,176.6,123.9Z"/>
    <path d="M220.68,186.26c-1-20-2-40-3-59.55C221.81,146,222,166.14,220.68,186.26Z"/>
    <path d="M187.41,106.33c-6.54-17.52-5.75-35.2-.87-53C182.68,71.11,182.12,88.78,187.41,106.33Z"/>
  </g>
</svg>
