<svg id="Capa_1" data-name="Capa 1" xmlns="http://www.w3.org/2000/svg" viewBox="0 0 400 600">
  <title>hairf_7</title>
  <g>
    <path d="M222.56,36.61c3.42.66,6.83,1.36,10.25,2A79.65,79.65,0,0,1,271.49,57c29.68,25.52,52.85,55.47,66.37,92.49,8.22,22.5,14,45.56,15.36,69.5,1.81,32.58-.15,65.1-7.08,96.93-2.92,13.41-3.37,26.55-3.47,40-.21,26.83-.12,53.66-.64,80.48-.61,32.39-8.14,63.68-16.21,94.83-2,7.9-4.19,15.77-6.34,23.64a4.91,4.91,0,0,1-2.06,2.77c-1.52-11.16,2.21-22,2.36-33.81-15.94,17.39-31.95,33.35-55.9,39.49a48.11,48.11,0,0,0,2.36-5.34,857.58,857.58,0,0,0,26.29-136.65c5-46.5,12-92.92,8.66-139.59-7.5,1.42-15.23,3.94-23,4.1-10.71.22-21.49-1.15-32.18-2.34-1.78-.2-4.37-2.78-4.7-4.6a292.29,292.29,0,0,1-4.42-30.08,264,264,0,0,0-15.32-71.58,5.75,5.75,0,0,0-2-2.7c1.68,9.12,3.39,18.22,5,27.35,4,22.44,4.68,45,3.13,67.72-.3,4.42.49,8.91.12,13.32a6.4,6.4,0,0,1-3.35,4.57,48.62,48.62,0,0,1-33.63.11c-2.76-1-4-2.43-3.21-6s.36-7.63,0-11.43c-2.69-31.88,1-63.19,8.06-94.22.25-1.09.45-2.19.68-3.28l-1.56-.42c-3.83,13.71-8.59,27.24-11.25,41.17-3,16-4.15,32.34-6.24,48.51-.7,5.44-1.81,10.83-2.78,16.24-.59,3.27-2.39,5-5.86,5.74-17.29,3.89-34.34,3.57-51.24-1.95l-4.65-1.54c1.88,95.92,12,189.84,38,283-5.17-1.95-10.19-3.2-14.57-5.61A126.38,126.38,0,0,1,98.13,526c-.58-.72-1.23-1.39-2.86-3.23l4.07,34.63-1.82.34a11,11,0,0,1-1.59-2.73c-6.6-28.54-14.05-56.92-19.33-85.7-3.08-16.76-3.28-34.15-3.65-51.28-.59-26.65-.08-53.32-.36-80-.06-5.52-1.5-11-2.4-16.52-1.64-10-3.69-20-5-30.05-3.3-26.49-5.43-53.13-2.38-79.75,6.26-54.64,26.18-103,66.86-141.47,7.68-7.26,15.33-14.68,23.85-20.85,10-7.25,22.05-9.93,34.17-11.76,1.62-.24,3.21-.71,4.82-1.08ZM208.1,50.27c2-7.48,9.52-7.11,15.05-10.35H191.94c3.95,1.59,7.06,2.34,9.58,4s4.42,4.18,6.6,6.33a50,50,0,0,0-6-3.12c-5.92-2.17-12-6-17.86-5.68-8.07.48-16.18,3.64-23.82,6.75-5,2.05-9.27,6-13.86,9.17,21.52-1.28,42.36-2.79,61,8.61,19.27-11.27,40-10,61.15-7.84-10.72-11.32-24.58-14.64-38.69-17.37a2.61,2.61,0,0,0-1.47,0C221.76,44,214.92,47.14,208.1,50.27Zm61.22,508.91c15.34-5.37,40.6-24.81,49.88-38.61a10.09,10.09,0,0,0,1.49-4.65c1.36-17.61,3-35.2,3.8-52.84,3.26-75.66,1-151.09-9.32-223.38,5.89,21.13,7.55,45.78,9.17,70.37,1.63,24.77,3,49.58,3.45,74.39q.66,37.47-.87,75c-1,24.58-3.17,49.11-4.93,75.14,9.67-35.23,17.6-69.32,17.56-104.59-.06-53.3,3.7-106.69-3.32-159.84l1.4-.18,5.43,45.4,1.38.12c2.39-21.94,5.84-43.83,6.82-65.83a266.45,266.45,0,0,0-2.86-51.25c-3.07-20.4-7.11-40.74-19.5-58.47-12-17.23-25.67-32.76-42-45.9-4.11-3.31-8.61-6.55-13.46-8.48a133.67,133.67,0,0,0-50.69-9.82c-4.35,0-8.66,2.72-13,4a7.79,7.79,0,0,1-4,0c-4.87-1.31-9.65-3.8-14.54-4a86.37,86.37,0,0,0-19.84,1.93c-13.69,2.64-27.47,4.93-39.22,13.65-15.42,11.45-28.35,25.26-39.86,40.44-4.87,6.43-10,13.06-13,20.43-8.46,21-12.92,43-14.94,65.51-2,22.24.36,44.26,2.88,66.27,1.19,10.3,2.86,20.53,4.31,30.8,3.22-14.82,2.72-30,6.92-43.41-1,17-2.71,35-3.06,52.89-.5,25.82.4,51.67-.08,77.49A435.74,435.74,0,0,0,91.53,528.15c.4,1.4.82,2.79,1.23,4.18a4.71,4.71,0,0,0,.68-3.19c-1.89-28.26-4.51-56.49-5.51-84.78A1178.21,1178.21,0,0,1,94.87,269.2c1.2-10.52,3.5-20.92,5.29-31.38l1.23.23c-1,5-2.52,10-2.94,15.06-2.81,34.18-6,68.35-7.89,102.59-2.92,53-.67,106,4,158.79a13.45,13.45,0,0,0,2.35,6.9A132.72,132.72,0,0,0,140.77,557c1.78.92,3.69,1.56,6.15,2.58-3.63-13.17-7.66-25.2-10.18-37.54-4-19.72-7.63-39.57-10.37-59.5-8.17-59.41-16.85-118.8-14.47-179.08a12.86,12.86,0,0,0-.86-4.22c-.65-2-2.12-4-2.16-6-.79-44.43,15.18-84.07,35.37-122.46a44.22,44.22,0,0,1,4.34-6.1c1.45-1.88,3-3.66,4.54-5.48-3.29,7.27-7.83,13.43-11.1,20.2-11.47,23.77-20.59,48.43-26.36,74.24-3.1,13.84-4.58,27.84-2,42a5.59,5.59,0,0,0,3.07,3.66,89.41,89.41,0,0,0,52.13,1.42c1.42-.38,3.31-2,3.54-3.33a231.21,231.21,0,0,0,3.35-23.21c1.7-22.34,5-44.34,12-65.69a234.71,234.71,0,0,1,20-45.11c.83,1.62,1.41,2.8,2,3.94a237.06,237.06,0,0,1,27.83,87c1.65,13.89,3.26,27.78,5.22,41.62.25,1.78,2.21,4.3,3.86,4.76,17.47,4.88,34.89,4.15,52.12-1.38,1.08-.34,2.56-1.45,2.69-2.37.77-5.39,2.21-11,1.52-16.23-1.82-14-3.34-28.23-7.27-41.71C287.47,190.5,278.66,162,259,137.5A48.4,48.4,0,0,1,275.23,158c6.75,15.21,13.41,30.49,19.27,46.05,8.35,22.17,12.78,45.17,12,69,0,1.63.21,4.14-.67,4.72-3.29,2.17-2.35,5.2-2.4,8.06-.43,21.65.69,43.45-1.52,64.91Q294.44,423.55,284,496C280.92,517.3,274.34,538.07,269.32,559.18ZM208.17,147.85l-1.81-.28c-2.64,8-5.74,15.79-7.84,23.89-9.41,36.16-10.59,73-8.51,110.09.08,1.47,2.27,4,3.59,4,8.73.51,17.48.63,26.23.6,4.43,0,6.34-2.36,5.83-7.05a66.6,66.6,0,0,1,.1-11.47,280.34,280.34,0,0,0-3.08-66.24C219.53,183.13,217.52,164.47,208.17,147.85Zm-.34-69.3c6-5,13-5.69,20-5.12a183,183,0,0,1,21.27,2.74c12.4,2.47,24.91,4.91,35.39,12.77a193.71,193.71,0,0,1,41,42.07c.78,1.09,1.7,2.07,2.55,3.1a9.26,9.26,0,0,0-1.11-4.39c-12.41-26.21-30.84-47.72-52.31-66.8a13.41,13.41,0,0,0-7.59-3.28c-11.27-.56-22.64-1.49-33.82-.54-9.43.79-19.62,1.69-25.93,11-1.94-5.48-6.69-6.93-11.23-8.33-14.43-4.42-29.25-4.39-44-2.88-3.94.4-8.54,1.7-11.4,4.22-21.57,19-39.9,40.6-52.3,66.8-.67,1.41-1.22,2.89-1.46,3.46,9.35-10.31,18.92-21.38,29-31.92,12.56-13.08,27.74-21.64,45.88-24.5,5.75-.91,11.44-2.32,17.22-2.9C188.76,73.11,198.71,71.65,207.83,78.55Z"/>
    <path d="M269.32,559.18c5-21.11,11.6-41.88,14.68-63.15q10.49-72.42,17.94-145.26c2.21-21.46,1.09-43.26,1.52-64.91.05-2.86-.89-5.89,2.4-8.06.88-.58.62-3.09.67-4.72.75-23.83-3.68-46.83-12-69C288.64,188.52,282,173.24,275.23,158A48.4,48.4,0,0,0,259,137.5c19.69,24.53,28.5,53,36.82,81.45,3.93,13.48,5.45,27.72,7.27,41.71.69,5.27-.75,10.84-1.52,16.23-.13.92-1.61,2-2.69,2.37-17.23,5.53-34.65,6.26-52.12,1.38-1.65-.46-3.61-3-3.86-4.76-2-13.84-3.57-27.73-5.22-41.62a237.06,237.06,0,0,0-27.83-87c-.63-1.14-1.21-2.32-2-3.94a234.71,234.71,0,0,0-20,45.11c-7,21.35-10.32,43.35-12,65.69a231.21,231.21,0,0,1-3.35,23.21c-.23,1.31-2.12,3-3.54,3.33a89.41,89.41,0,0,1-52.13-1.42,5.59,5.59,0,0,1-3.07-3.66c-2.56-14.12-1.08-28.12,2-42,5.77-25.81,14.89-50.47,26.36-74.24,3.27-6.77,7.81-12.93,11.1-20.2-1.51,1.82-3.09,3.6-4.54,5.48a44.22,44.22,0,0,0-4.34,6.1c-20.19,38.39-36.16,78-35.37,122.46,0,2,1.51,4,2.16,6a12.86,12.86,0,0,1,.86,4.22c-2.38,60.28,6.3,119.67,14.47,179.08,2.74,19.93,6.35,39.78,10.37,59.5,2.52,12.34,6.55,24.37,10.18,37.54-2.46-1-4.37-1.66-6.15-2.58A132.72,132.72,0,0,1,96.9,521.39a13.45,13.45,0,0,1-2.35-6.9c-4.66-52.84-6.91-105.79-4-158.79,1.9-34.24,5.08-68.41,7.89-102.59.42-5.07,1.94-10,2.94-15.06l-1.23-.23c-1.79,10.46-4.09,20.86-5.29,31.38a1178.21,1178.21,0,0,0-6.94,175.16c1,28.29,3.62,56.52,5.51,84.78a4.71,4.71,0,0,1-.68,3.19c-.41-1.39-.83-2.78-1.23-4.18A435.74,435.74,0,0,1,75.25,401.72c.48-25.82-.42-51.67.08-77.49.35-17.94,2-35.86,3.06-52.89-4.2,13.44-3.7,28.59-6.92,43.41-1.45-10.27-3.12-20.5-4.31-30.8-2.52-22-4.87-44-2.88-66.27,2-22.54,6.48-44.56,14.94-65.51,3-7.37,8.15-14,13-20.43,11.51-15.18,24.44-29,39.86-40.44,11.75-8.72,25.53-11,39.22-13.65a86.37,86.37,0,0,1,19.84-1.93c4.89.22,9.67,2.71,14.54,4a7.79,7.79,0,0,0,4,0c4.38-1.28,8.69-4,13-4a133.67,133.67,0,0,1,50.69,9.82c4.85,1.93,9.35,5.17,13.46,8.48,16.33,13.14,30,28.67,42,45.9,12.39,17.73,16.43,38.07,19.5,58.47a266.45,266.45,0,0,1,2.86,51.25c-1,22-4.43,43.89-6.82,65.83l-1.38-.12L337.63,270l-1.4.18c7,53.15,3.26,106.54,3.32,159.84,0,35.27-7.89,69.36-17.56,104.59,1.76-26,4-50.56,4.93-75.14q1.47-37.44.87-75c-.43-24.81-1.82-49.62-3.45-74.39-1.62-24.59-3.28-49.24-9.17-70.37,10.36,72.29,12.58,147.72,9.32,223.38-.76,17.64-2.44,35.23-3.8,52.84a10.09,10.09,0,0,1-1.49,4.65C309.92,534.37,284.66,553.81,269.32,559.18Zm54.62-365C322.81,158,304.69,132,275,112.84c-14.49-9.33-30.39-12.56-47.24-10.6-5.84.68-11.44,3.48-17.15,5.32l.49,1.48c4.11-1.55,8.11-3.91,12.35-4.49,16-2.16,31.54-.42,45.88,7.81,26,15,44.08,36.1,51.07,65.81C321.64,183.5,322.76,188.85,323.94,194.19ZM92,191c1.76-6.88,3.19-13.88,5.35-20.64,9.62-30,29.94-50.56,58.61-62.3,15.15-6.2,31.34-7,47.17-.22-3.58-2.08-7.2-4.4-11.09-5-13.34-2.11-26.72-1.82-39.27,3.78-24.16,10.8-42.5,27.88-53.66,52.07A72.4,72.4,0,0,0,92,191Z" fill="$[hairColor]" />
    <path d="M208.17,147.85c9.35,16.62,11.36,35.28,14.51,53.58a280.34,280.34,0,0,1,3.08,66.24,66.6,66.6,0,0,0-.1,11.47c.51,4.69-1.4,7-5.83,7.05-8.75,0-17.5-.09-26.23-.6-1.32-.08-3.51-2.57-3.59-4-2.08-37.06-.9-73.93,8.51-110.09,2.1-8.1,5.2-15.93,7.84-23.89Z" fill="$[hairColor]" />
    <path d="M207.83,78.55c-9.12-6.9-19.07-5.44-28.83-4.46-5.78.58-11.47,2-17.22,2.9-18.14,2.86-33.32,11.42-45.88,24.5-10.12,10.54-19.69,21.61-29,31.92.24-.57.79-2,1.46-3.46,12.4-26.2,30.73-47.83,52.3-66.8,2.86-2.52,7.46-3.82,11.4-4.22,14.8-1.51,29.62-1.54,44,2.88,4.54,1.4,9.29,2.85,11.23,8.33,6.31-9.35,16.5-10.25,25.93-11,11.18-1,22.55,0,33.82.54a13.41,13.41,0,0,1,7.59,3.28c21.47,19.08,39.9,40.59,52.31,66.8a9.26,9.26,0,0,1,1.11,4.39c-.85-1-1.77-2-2.55-3.1a193.71,193.71,0,0,0-41-42.07c-10.48-7.86-23-10.3-35.39-12.77a183,183,0,0,0-21.27-2.74C220.81,72.86,213.84,73.5,207.83,78.55Z" fill="$[hairColor]" />
    <path d="M208.07,50.33q10.27-4.78,20.55-9.53a2.61,2.61,0,0,1,1.47,0c14.11,2.73,28,6.05,38.69,17.37C247.64,56,226.9,54.7,207.63,66c-18.67-11.4-39.51-9.89-61-8.61,4.59-3.13,8.83-7.12,13.86-9.17,7.64-3.11,15.75-6.27,23.82-6.75,5.83-.36,11.94,3.51,17.86,5.68a50,50,0,0,1,6,3.12Z" fill="$[hairColor]" />
    <path d="M208.12,50.24c-2.18-2.15-4.1-4.69-6.6-6.33s-5.63-2.4-9.58-4h31.21c-5.53,3.24-13.08,2.87-15.06,10.38C208.07,50.33,208.12,50.24,208.12,50.24Z" fill="$[hairColor]" />
    <path d="M323.94,194.19c-1.18-5.34-2.3-10.69-3.56-16-7-29.71-25-50.85-51.07-65.81-14.34-8.23-29.86-10-45.88-7.81-4.24.58-8.24,2.94-12.35,4.49l-.49-1.48c5.71-1.84,11.31-4.64,17.15-5.32,16.85-2,32.75,1.27,47.24,10.6C304.69,132,322.81,158,323.94,194.19Z"/>
    <path d="M92,191a72.4,72.4,0,0,1,7.11-32.32c11.16-24.19,29.5-41.27,53.66-52.07,12.55-5.6,25.93-5.89,39.27-3.78,3.89.61,7.51,2.93,11.09,5-15.83-6.79-32-6-47.17.22-28.67,11.74-49,32.26-58.61,62.3C95.16,177.12,93.73,184.12,92,191Z"/>
  </g>
</svg>
