<svg id="Capa_1" data-name="Capa 1" xmlns="http://www.w3.org/2000/svg" viewBox="0 0 400 600">
  <defs>
    <style>
      .cls-1 {
        fill: #ccc;
      }
    </style>
  </defs>
  <title>hairf</title>
  <g>
    <path d="M84,386.74c-2.9-3.06-5.68-6.25-8.72-9.17-19.57-18.8-25.75-41.62-20.59-67.9,1.4-7.17,2.3-14.47,4.25-21.49a11,11,0,0,1,5.88-6.38c5.08-1.95,6.86.07,7.48,5.52,3.39,30,3,60.5,10.39,90.06.74,3,1.52,5.91,2.28,8.87Zm-6.16-14.1c-9.22-22.9-9.09-47.42-13.23-71.13H63.27L60,329.5c-2.53-6.63.77-30.53,5.53-35.26,2.53,18.26,5,36,7.42,53.69.83-.58,1-1.07,1-1.55q-1.65-29.62-3.38-59.25c-.07-1.14-.68-3-1.42-3.2-1.26-.37-3.37-.21-4.15.63-1.74,1.85-3.6,4.12-4.1,6.49-1.27,6-1.18,12.26-2.79,18.11-2.67,9.78-2.23,19.49-.75,29.22a51.33,51.33,0,0,0,20.46,34.26Z"/>
    <path fill="$[hairColor]" d="M77.82,372.64a51.31,51.31,0,0,1-20.51-34.26c-1.48-9.73-1.92-19.44.75-29.22,1.61-5.85,1.52-12.14,2.79-18.11.5-2.37,2.36-4.64,4.1-6.49.78-.84,2.89-1,4.15-.63.74.21,1.35,2.06,1.42,3.2q1.77,29.63,3.38,59.25a1.68,1.68,0,0,1-1,1.55c-2.44-17.72-4.89-35.43-7.42-53.69-4.71,4.76-8,28.63-5.48,35.26l3.25-28h1.34C68.73,325.22,68.6,349.74,77.82,372.64Z"/>
  </g>
  <g id="bangs">
    <path d="M195.44,262.75c-19.14-3-37.52-5.6-55.77-9-4.17-.77-7.8-4.24-11.8-6.24a39.24,39.24,0,0,0-7.69-2.91c-3.46-.9-7-1.37-11.36-2.18-2.79,10.27-6.21,20.51-8.29,31-3.39,17-6.11,34.14-8.73,51.29-5.63,36.91-1.22,73.34,5.56,109.65.55,3,1.85,3.34,4.5,3.93,6.81,1.52,13.48,3.72,20.14,5.83a5.32,5.32,0,0,1,2.78,3L99.57,438.9l-1.14,1.45c1.36,7.31,2.3,14.74,4.22,21.91,1.84,6.9,4.7,13.53,7.38,21a28,28,0,0,1-4.06-2.95,139.81,139.81,0,0,1-23.65-33.69c-2.82-5.46-6.16-9.92-11.54-13.54-11.42-7.67-22-16.64-33.15-24.65-4.28-3.07-6.39-6.42-6.85-11.74-.34-3.89-2.52-7.66-4-11.41-2.23-5.5-4.67-10.92-6.91-16.41-5.06-12.4-3.53-25.32-2.37-38.05C22.29,278,37.13,227.39,52.55,176.9c6.1-20,14.25-38.93,26.6-55.56,8.15-11,18.3-20.57,28.26-30a194,194,0,0,1,44.05-31.77,63.38,63.38,0,0,1,32-7.33c12.17.35,24.38.47,36.55,0,15.09-.57,27.68,5.79,39.87,13.35C279,77.46,295.77,92.23,311,108.87a157.11,157.11,0,0,1,36.18,65.84c8.95,33.06,18.42,66,26.86,99.17,6.62,26,10.29,52.64,9.91,79.48-.12,8.82-4.28,17.76-7.47,26.32-2.81,7.57-7.3,14.52-7.8,22.9a4.26,4.26,0,0,1-1.28,2.85c-12.19,9.22-24.12,18.84-36.84,27.29-5.93,3.94-9.28,9-12.9,14.71-7.19,11.31-15.3,22-23.14,32.94a7.55,7.55,0,0,1-4.38,2.46c9-12.86,8.58-28,12.12-43-9.6.38-17.67,3.69-25.52,7.82l-.74-1c.81-.82,1.47-2.08,2.43-2.39,6.66-2.13,13.32-4.38,20.13-5.9,2.66-.59,4.1-1.07,4.64-3.93,6.67-35.39,10.06-70.88,6.27-107a424.23,424.23,0,0,0-16.07-79.91c-.5-1.62-1.06-3.23-1.73-5.27-7.57,2.51-15.13,2.9-22.2,7.7-6.26,4.25-14.78,5.76-22.54,7.08-13.08,2.23-26.34,3.36-39.54,4.92a10.8,10.8,0,0,1-2.27-.32c-1.46-8.44-2.92-16.88-4.6-26.65C198.74,244.71,197.19,253.17,195.44,262.75ZM172.25,103.07a31.58,31.58,0,0,1-3.65,2.63c-8.73,4.56-17.85,8.48-26.21,13.64C123.2,131.2,110.4,149,99,167.92a166.16,166.16,0,0,0-20.52,54.15c-.27,1.36.51,3.92,1.52,4.39,7.36,3.41,14.89,6.45,22.38,9.56,3.67,1.52,7.43,2.85,11.06,4.46,7.91,3.5,10.25,2.48,12.46-5.86a358.52,358.52,0,0,1,28-72.61,45.73,45.73,0,0,1,2.69-4.18c-1.44,4.2-3.52,7.89-5.19,11.76-9.63,22.28-18.67,44.74-23.51,68.71-1,4.93.34,6.9,4.22,9.22,11.62,7,24.65,7.67,37.52,9.08,8.17.9,16.4,1.35,25.05,2L200,208.7h.71q2.74,24.72,5.51,49.58a18.87,18.87,0,0,0,3,.24c11.21-1,22.42-2,33.62-3.16,9.59-1,18.77-3.39,27.07-8.52,2.08-1.28,4.59-2.35,3.6-5.7-4.41-14.84-8.17-29.9-13.32-44.48-4.67-13.21-10.82-25.89-16.32-38.81a110.43,110.43,0,0,1,6.2,10.9,349.43,349.43,0,0,1,25.18,68.66c1,4.12,3,5.73,6.94,4.36,3.31-1.15,6.46-2.79,9.75-4,10.31-3.84,20.65-7.59,31-11.37a54.53,54.53,0,0,0-.76-6.37c-3.85-15.18-8.06-30.2-15.78-44.05-11.46-20.54-23.92-40.4-43.86-53.71-10.32-6.89-22.14-11.51-33.07-17.55-11.66-6.46-24.1-7.51-36.87-5.89-6.91.87-13.68,2.89-20.51,4.39a6,6,0,0,1,1.32-1.25,68.21,68.21,0,0,1,38.18-4.45c17.36,3,32.76,11.34,47.63,20.23,19.21,11.5,32.09,29.12,43.19,48.08,9.61,16.38,17.73,33.4,21.39,52.25,1.5,7.7,1.27,9.86-4,12.12-4.28,1.82-4.07,4-3,7.91,8.05,29.21,16.44,58.35,23.48,87.82,6.25,26.12,5,52.59-.88,78.73-1.16,5.17-4,10-6.3,14.86-1.62,3.5-3.53,6.86-5.32,10.28,8.94-5.43,17.05-11.25,25-17.22,4.26-3.18,8.38-6.56,12.47-9.95a5.62,5.62,0,0,0,2.09-2.91c.84-5.07,2-10.18,2-15.27-.38-36.19-1.25-72.42-7.9-108.09-6.77-36.27-14.65-72.32-22-108.48-3.16-15.52-8.38-30.42-17.74-43.1a218.89,218.89,0,0,0-65.2-58.69c-9.94-5.88-20.2-11.51-32.34-11.54-15.92,0-31.85-.37-47.76,0A47.36,47.36,0,0,0,160.51,58c-23.1,9.23-42,24.66-59.63,41.75-11.43,11.12-22.51,22.64-29.41,37.47-6,13-9.61,26.64-12.31,40.71-5,26.09-11.06,52-16.24,78C33.8,301.79,29.22,348,32.61,394.85c.34,4.69,2,7.82,5.64,10.49,9.84,7.18,19.56,14.54,29.34,21.81,1.51,1.13,3.1,2.17,5.79,4-.95-2.09-1.22-2.8-1.57-3.46C68.57,421.64,64,416,62.3,409.5c-8.29-32-7.75-64.21.27-96.19,4.56-18.18,10-36.14,15.12-54.19,2.5-8.83,5.19-17.61,7.85-26.59-1.72-.89-3.19-1.76-4.75-2.43-3.92-1.68-5.35-4.59-4.35-8.66,1.71-7,2.94-14.13,5.38-20.85A221.14,221.14,0,0,1,110.68,147C126.27,125.48,147.38,111.67,172.25,103.07ZM293.39,242C320,317.6,317.87,393.58,299,470a6.51,6.51,0,0,0,2.82-2.4c9.62-15.69,20-31,28.53-47.27,4.77-9.05,7.51-19.48,9.53-29.61a134.07,134.07,0,0,0,.36-53.21c-4.21-20.65-9.46-41.09-14.65-61.53-3.57-14.06-7.81-28-11.86-42.32Zm-193,228.3,1.87-.48c-20-76.52-21.57-152.61,5.3-227.8L87.49,233.8c-.73,2.23-1.43,4.12-2,6C81.78,252.94,78,266,74.39,279.13c-6.52,23.82-14.47,47.3-15.77,72.28-1.21,23.24.37,46.09,10.87,67.28,5.88,11.88,13,23.17,19.73,34.59,3.47,5.84,7.43,11.39,11.17,17.06Zm-39.3-313c-3.67,11.38-7.52,22.7-11,34.14C37.3,233.71,26.08,276.34,20,320.2c-2.81,20.18-3.12,39.89,6.06,58.73.67,1.37,1.36,2.72,2,4.08l1.15-.32C27.05,305.77,45.34,231.84,61.09,157.3ZM371.52,382.05c1.34-.43,1.79-.45,1.87-.62,5.19-11.93,10-24,9.23-37.37-2-36.28-9.89-71.54-19.16-106.5-5.52-20.81-12-41.36-18.09-62-1.92-6.52-4-13-6-19.49C355.68,230.55,372.71,304.84,371.52,382.05Z"/>
    <path fill="$[hairColor]" d="M172.26,103.06c-24.88,8.61-46,22.42-61.58,44.1a219.1,219.1,0,0,0-28.86,53.55c-2.44,6.72-3.67,13.88-5.38,20.85-1,4.07.43,7,4.35,8.66,1.56.67,3,1.54,4.75,2.43-2.66,9-5.35,17.76-7.85,26.59-5.12,18.05-10.56,36-15.12,54.19-8,32-8.56,64.2-.27,96.19,1.67,6.45,6.27,12.14,9.51,18.19.35.66.62,1.37,1.57,3.46-2.69-1.88-4.28-2.92-5.79-4-9.78-7.27-19.5-14.63-29.34-21.81-3.65-2.67-5.3-5.8-5.64-10.49-3.39-46.88,1.19-93.11,10.31-139,5.18-26.06,11.24-51.94,16.24-78,2.7-14.07,6.26-27.69,12.31-40.71,6.9-14.83,18-26.35,29.41-37.47C118.47,82.7,137.41,67.27,160.51,58a47.36,47.36,0,0,1,15.88-3.46c15.91-.41,31.84-.07,47.76,0,12.14,0,22.4,5.66,32.34,11.54a218.89,218.89,0,0,1,65.2,58.69c9.36,12.68,14.58,27.58,17.74,43.1,7.35,36.16,15.23,72.21,22,108.48,6.65,35.67,7.52,71.9,7.9,108.09.06,5.09-1.11,10.2-1.95,15.27a5.62,5.62,0,0,1-2.09,2.91c-4.09,3.39-8.21,6.77-12.47,9.95-8,6-16.1,11.79-25,17.22,1.79-3.42,3.7-6.78,5.32-10.28,2.26-4.89,5.14-9.69,6.3-14.86,5.85-26.14,7.13-52.61.88-78.73-7-29.47-15.43-58.61-23.48-87.82-1.07-3.88-1.28-6.09,3-7.91,5.3-2.26,5.53-4.42,4-12.12-3.66-18.85-11.78-35.87-21.39-52.25-11.1-19-24-36.58-43.19-48.08-14.87-8.89-30.27-17.19-47.63-20.23A68.26,68.26,0,0,0,173.44,102c-.52.22-.88.82-1.32,1.25Z"/>
    <path fill="$[hairColor]" d="M172.12,103.21c6.83-1.5,13.6-3.52,20.51-4.39,12.77-1.62,25.21-.57,36.87,5.89,10.93,6,22.75,10.66,33.07,17.55,19.94,13.31,32.4,33.17,43.86,53.71,7.72,13.85,11.93,28.87,15.78,44.05a54.53,54.53,0,0,1,.76,6.37c-10.33,3.78-20.67,7.53-31,11.37-3.29,1.23-6.44,2.87-9.75,4-3.94,1.37-5.91-.24-6.94-4.36a349.43,349.43,0,0,0-25.18-68.66,110.43,110.43,0,0,0-6.2-10.9c5.5,12.92,11.65,25.6,16.32,38.81,5.15,14.58,8.91,29.64,13.32,44.48,1,3.35-1.52,4.42-3.6,5.7-8.3,5.13-17.48,7.54-27.07,8.52-11.2,1.14-22.41,2.14-33.62,3.16a18.87,18.87,0,0,1-3-.24c-1.85-16.62-3.68-33.1-5.51-49.58H200l-5.42,49.93c-8.65-.68-16.88-1.13-25.05-2-12.87-1.41-25.9-2.12-37.52-9.08-3.88-2.32-5.21-4.29-4.22-9.22,4.84-24,13.88-46.43,23.51-68.71,1.67-3.87,3.75-7.56,5.19-11.76A45.73,45.73,0,0,0,153.8,162a358.52,358.52,0,0,0-28,72.61c-2.21,8.34-4.55,9.36-12.46,5.86-3.63-1.61-7.39-2.94-11.06-4.46-7.49-3.11-15-6.15-22.38-9.56-1-.47-1.79-3-1.52-4.39A166.29,166.29,0,0,1,99,167.92c11.42-19,24.22-36.72,43.41-48.58,8.36-5.16,17.48-9.08,26.21-13.64a30.62,30.62,0,0,0,3.66-2.64Z"/>
    <path fill="$[hairColor]" d="M293.39,242l20.3-8.35C317.74,248.06,322,262,325.55,276c5.19,20.44,10.44,40.88,14.65,61.53a134.07,134.07,0,0,1-.36,53.21c-2,10.13-4.76,20.56-9.53,29.61-8.57,16.25-18.91,31.58-28.53,47.27A6.49,6.49,0,0,1,299,470C317.87,393.58,320,317.6,293.39,242Z"/>
    <path fill="$[hairColor]" d="M100.39,470.34c-3.74-5.67-7.7-11.22-11.17-17.06-6.77-11.42-13.85-22.71-19.73-34.59-10.5-21.19-12.08-44-10.87-67.28,1.3-25,9.25-48.46,15.77-72.28C78,266,81.78,252.94,85.51,239.85c.55-1.93,1.25-3.82,2-6l20.07,8.26c-26.87,75.19-25.25,151.28-5.3,227.8Z"/>
    <path fill="$[hairColor]" d="M61.09,157.3c-15.75,74.54-34,148.47-31.87,225.39l-1.15.32c-.67-1.36-1.36-2.71-2-4.08C16.89,360.09,17.2,340.38,20,320.2c6.1-43.86,17.32-86.49,30.13-128.76C53.57,180,57.42,168.68,61.09,157.3Z"/>
    <path fill="$[hairColor]" d="M371.52,382.05c1.19-77.21-15.84-151.5-32.15-226,2,6.5,4.08,13,6,19.49,6.09,20.66,12.57,41.21,18.09,62,9.27,35,17.14,70.22,19.16,106.5.75,13.41-4,25.44-9.23,37.37C373.31,381.6,372.86,381.62,371.52,382.05Z"/>
  </g>
</svg>
