<svg xmlns="http://www.w3.org/2000/svg" viewBox="0 0 400 600" width="400" height="600">
	<g id="Hair">
		<path id="juice" d="M60 310L50 310C50 310 49.81 305 50 300C60 40 -10 145 200 80C234.77 69.24 243.79 58.79 265 80C270 85 270 125 270 125C270 125 273.04 98.74 280 100C390 120 340 80 350 300C350.23 304.99 350 310 350 310L340 310C340 310 340 295 340 290C340 285 330 270 325 265C320 260 320 200 310 190C300 180 250 200 200 200C150 200 100 180 90 190C80 200 80 260 75 265C70 270 60 285 60 290C60 295 60 310 60 310Z" fill="$[hairColor]" stroke="#000" stroke-width="4"/>
	</g>
</svg>