<?xml version="1.0" encoding="utf-8"?>
<!-- Generator: Adobe Illustrator 23.0.5, SVG Export Plug-In . SVG Version: 6.00 Build 0)  -->
<svg version="1.1" id="Capa_1" xmlns="http://www.w3.org/2000/svg" xmlns:xlink="http://www.w3.org/1999/xlink" x="0px" y="0px"
	 viewBox="0 0 400 600" style="enable-background:new 0 0 400 600;" xml:space="preserve">
<style type="text/css">
	.st0{stroke:#000000;stroke-width:4;}
</style>
<path id="messy" fill="$[hairColor]" class="st0" d="M153.5,21.1C158,21,163,21,167,21c-30,27-55,60-89,82c4,1,8,3,12,2c-9,20-31,29-38.3,50.1
	c-2.7,5.2-4.8,9.8-4.8,10.3c0,0.5-0.3,0.9-0.6,1c-0.3,0.1-0.8,1.1-1,2.2c-0.4,1.9-0.3,2.1,1.1,2.7c1.3,0.5,1.5,0.9,1.5,2.4
	c0,1-0.4,5.6-0.8,10.3c-0.4,4.6-1.2,11-1.7,14.1c-0.5,3.1-1.3,7.9-1.7,10.7c-0.5,2.8-1.1,8.4-1.4,12.4s-1,10.4-1.5,14.2
	c-0.9,6.3-0.9,6.9-0.1,7.9c0.6,0.6,1.2,3,1.5,6.1c0.3,2.8,0.6,7.6,0.6,10.7c0,3.1,0.3,8.6,0.6,12.1c0.3,3.6,0.9,8.1,1.4,10.2
	c0.5,2,1,5.4,1.1,7.5c0.3,3.7,0.4,3.8,2.3,4.6c1.1,0.5,2,1.1,2,1.4s1.1,1.3,2.4,2.3c1.6,1.1,3.1,1.7,4.4,1.7c1.3,0,2.4-0.4,3.2-1.3
	c0.7-0.7,2.7-4.2,4.4-7.8c1.8-3.6,3.7-7.1,4.2-7.9c0.5-0.8,2.1-3.6,3.5-6.2c1.4-2.6,3.2-7,4-9.6c0.8-2.6,1.7-6.2,2-7.9
	c0.3-1.7,0.9-8.2,1.4-14.4c0.5-6.2,1.4-13.8,2.1-16.9c0.6-3.1,1.8-7.7,2.6-10.1c1.5-4.4,1.5-4.5,4.1-5.3c1.4-0.4,6.2-1,10.7-1.2
	l8.2-0.4c1.4-7.8,2-9.5,2.8-10.1c0.8-0.7,1.8-0.8,3.7-0.6c6,1.6,13,2.6,18.9,5.6c3.1,1.5,6.8,2.8,8.2,3c2.5,0.3,2.5,0.3,3.1-1.6
	c7.8-6.4,11.8,2.7,18,3.9c4,2,9.9,5.4,13,7.4c3.1,2.1,6.5,4.5,7.6,5.4c1.1,0.9,3.6,2.9,5.6,4.3c2,1.4,4.1,2.6,4.7,2.6
	c0.6,0,1-0.4,1-1.3c0-0.7-1.3-4.4-2.8-8.2c-1.6-3.8-2.7-7-2.4-7.2c2.2-1.5,4.2,1.5,7.2,0.9c2.3,0.6,5.6,1.7,7.2,2.3s3.6,1.1,4.4,1
	c1.4-0.2,1.4-0.4,1.6-4.4c-1.2-8.2,7.8-5.2,12.5-4.6c3.3,0.6,7.8,1.8,10.1,2.8c2.3,0.9,7.2,3,10.7,4.6c3.6,1.6,7.9,3.5,9.6,4.1
	c1.7,0.6,3.4,1.3,3.7,1.6s1.5,0.5,2.5,0.5c1.9,0,2-0.1,1.6-1.9c-0.2-1-1.6-4.1-3.1-6.9c-1.5-2.8-3.8-6.9-5.1-9.2
	c-1.3-2.3-2.3-4.2-2.3-4.4c0-0.2,1.2-0.4,2.7-0.6c1.5-0.2,3-0.6,3.4-1c0.4-0.4,0.8-2.6,1-5C258,186,270,190,276,191c2,0,4,3,5,5.4
	c2.1,3.1,4.3,6.6,4.9,7.8s1.3,2.1,1.7,2.1c0.4,0,0.7-0.8,0.7-1.8c0-1,0.3-3,0.7-4.4c0.4-1.4,1.9-4.7,3.3-7.4
	c2.1-4.2,2.6-4.8,3.5-4.4c0.5,0.3,3.1,2.7,5.8,5.3c2.6,2.6,5.9,6.5,7.3,8.6c1.4,2.1,3.6,6.4,5.1,9.6c1.4,3.2,3.1,7.6,3.7,9.9
	c0.6,2.3,1.5,6,1.9,8.3c0.5,2.3,1.3,9.3,1.8,15.5c0.5,6.2,1.2,12.7,1.5,14.4c0.3,1.7,1.2,5.3,2,7.9c0.8,2.6,2.6,7,4,9.6
	c1.4,2.6,3,5.4,3.5,6.2c0.5,0.8,2.4,4.3,4.2,7.9c1.8,3.6,3.8,7.1,4.5,7.8c0.8,0.9,1.9,1.3,3.2,1.3c1.3,0,2.8-0.6,4.4-1.7
	c1.3-0.9,2.4-2,2.4-2.3s0.9-1,2-1.4c1.9-0.8,2-1,2.3-4.7c0.2-2.1,0.7-5.5,1.1-7.5c0.5-2,1.1-6.6,1.4-10.1c0.3-3.6,0.6-9,0.6-12.1
	c0-3.1,0.3-7.9,0.6-10.7c0.4-3.1,1-5.5,1.5-6.1c0.8-0.9,0.8-1.6-0.1-7.9c-0.6-3.8-1.2-10.2-1.5-14.2c-0.3-4-0.9-9.6-1.4-12.4
	c-0.4-2.8-1.2-7.6-1.7-10.7c-0.5-3.1-1.3-9.4-1.7-14.1c-0.4-4.7-0.8-9.3-0.8-10.3c0-1.5,0.3-1.9,1.5-2.4c1.4-0.5,1.5-0.8,1.1-2.7
	c-0.2-1.2-0.7-2.2-1-2.2c-0.3-0.1-0.6-0.5-0.6-1c0-0.5-2.3-5.2-5-10.6s-6.7-12.2-8.9-15.4C333,126,324,112,320,97c-3-14-27-19-21-39
	c-5,1.8-10.2,2.5-15.3,2.3s-10.2-1.2-15-3.1C258,54,252,45,245,36c-1-1-4,1-5,0c-9-8-17-19-29-21c1,2,3,4,4,6c-17-14-40-10-58.6-1.8
	C154.2,20.2,153.6,20.6,153.5,21.1z"/>
</svg>
