<?xml version="1.0" encoding="utf-8"?>
<!-- Generator: Adobe Illustrator 23.0.5, SVG Export Plug-In . SVG Version: 6.00 Build 0)  -->
<svg version="1.1" id="Capa_1" xmlns="http://www.w3.org/2000/svg" xmlns:xlink="http://www.w3.org/1999/xlink" x="0px" y="0px"
	 viewBox="0 0 400 600" style="enable-background:new 0 0 400 600;" xml:space="preserve">
<style type="text/css">
	.st0{stroke:#000000;stroke-width:4;}
</style>
<path id="messy_short" fill="$[hairColor]" class="st0" d="M60,310H50c0,0,0-5,0-10c0-22.5,0-38.8,0-49.4c0-2.7,0-5,0-6.9c0-2.7,0-5.7,0-8.7l-5,0
	c0,0,0.6-1.6,1.6-3.9C48,224,53,219,55,212c-2,0-5,0-7.5,0.6c-3.8,1.2-7.5,2.4-7.5,2.4s2.1-3.4,4.9-8c5.1-7,9.1-15,14.1-22
	c-3-1-5-1-7.5-1.2c-2.5-0.1-5,0.2-7.5,1.2c8-9,15-18,22-28c-5,0-9-3-14-4c8-8,17-13,25-21c-4-3-9-4-14-7c9-4,19-8,28-13
	c-4-2-8-4-12-6c11-3,25-5,29-17c1-3-6-6-4-7c9-8,22-5,33-5c-5-6-11-9-16-15c15-1,28,5,43,4c-4-5-3-12-8-17c13,3,25,9,38,12
	c-2-7-5-13-8-19c25,19,59,15,86,3c-6,7-13,11-20,16c14-2,27,2,41,0c-5,6-13,5-18,11c15,1,29,4,43,10c-5,1-10,4-16,5
	c5,3,11,5,16.8,7.9c5.5,2.6,10.8,5.6,15.3,10.1c-6-1-11,4-17,3c8,11,19,21,29,31c-6,0-11,2-16,3c1.3,1.5,2.6,3,3.9,4.5
	c1.2,1.5,2.4,3,3.6,4.5c5.5,5,8.5,12,14.5,17c-1.5,1.3-3.3,2.4-5,3.4c-1.8,1.1-3.6,2.1-5.3,3.1c-9.7,4.4-4.7,16.4,1.7,21.3
	c1.4,1.5,2.9,3,4.3,4.5c3,3,6,6,8.3,9.2c2.4,3.2,4,5.4,4,5.4s-3.1,0-6.3,0.1C352,215,349,216,347,216c0,4,5,5,4.2,9
	c1,2.5,1.9,5,2.6,6.9c0.7,1.9,1.2,3.1,1.2,3.1h-5c0,0,0,20,0,65c0,5,0,10,0,10h-10c0,0,0-15,0-20c0-2.5-2.5-7.5-5.6-12.5
	c-1.6-2.5-3.3-5-4.9-7.2c-1.7-2-3.4-4.1-5.1-6.1c-1.6-2.1-3.2-4.1-4.7-6.1C312,247,299,238,297,224c-1,5-3,9-6,12c1-5-1-9-2-13
	c-2,2-5,4-8,5c0-8,0-16,0-24c-4,7-13,3-17,9c0-7,1-14,2-21c-5,3-9,7-14,11c-1.5,1.5-3,3-4.5,4.5c-3,3-6.1,5.9-9.5,8.5c1-9,2-18,4-27
	c-11,8-21,16-31,24c-1-7,2-15-1-22c-3,6-9,10-12.9,15.1c-6.8,7.5-13.5,15-13.5,15l3-28.4l-20.9,20.5l0.2-16.9c0,0-5.6,5.2-11.2,10.4
	c-2.8,2.6-5.6,5.2-7.7,7.1c-2.1,2-3.4,3.4-3.4,3.4s0.1-1.6,0.3-4c0.2-2.4,0.5-5.5,0.8-8.6c0.6-6.2,1.2-12.5,1.2-12.5s-1.5,1-3.7,2.4
	c-2.2,1.5-5.2,3.4-8.1,5.4c-4,4.1-8,8.1-9,14.1c-1-8-2-15-2-23c-11,16-3,35-6,53c-6-13-10-26-13-40c-2,10-3,21-4,31c-6-9-6-19-8-29
	c0,16,8,33-2,48c-6,10-18,13-24.4,23.5c-1.6,2.5-3,5-4,7.2S60,288.8,60,290C60,295,60,310,60,310z"/>
</svg>
