<svg xmlns="http://www.w3.org/2000/svg" viewBox="0 0 400 600" width="400" height="600">
	<path id="messy" d="M150.74 72.13C150.71 72.56 153.9 74.79 157.93 77.14L165.18 81.37C162.45 83.01 160.01 84.07 157.99 84.79C155.97 85.51 152.55 86.47 150.37 86.92C148.2 87.38 141.86 89.08 136.27 90.7C130.69 92.32 123.08 94.52 119.35 95.59C115.63 96.65 110.43 98.1 107.79 98.8C105.16 99.5 100.08 100.78 96.51 101.64C92.94 102.49 88 103.83 85.51 104.61C83.03 105.38 80.29 106.31 79.42 106.66C78.49 107.04 77.9 107.66 78.01 108.16C78.11 108.63 79.68 109.48 81.57 110.08C83.43 110.68 86.04 111.57 87.37 112.06C88.7 112.55 89.77 113.27 89.76 113.66C89.75 114.04 88.11 115.95 86.1 117.89C84.1 119.83 80.5 122.94 78.1 124.8C75.7 126.66 72.46 129.21 70.89 130.47C69.32 131.74 66.61 134.15 64.89 135.83C63.16 137.52 60.57 140.42 59.14 142.28C57.71 144.14 54.37 149.92 51.71 155.11C49.05 160.31 46.88 164.94 46.88 165.4C46.88 165.87 46.62 166.31 46.3 166.39C45.99 166.47 45.54 167.47 45.32 168.62C44.94 170.54 45.03 170.76 46.46 171.3C47.71 171.78 48.01 172.24 48.01 173.72C48.01 174.73 47.64 179.36 47.19 184.02C46.74 188.67 45.96 195.02 45.47 198.12C44.97 201.22 44.19 206.04 43.74 208.83C43.29 211.63 42.67 217.21 42.37 221.24C42.07 225.27 41.37 231.66 40.82 235.44C39.91 241.78 39.9 242.39 40.74 243.34C41.3 243.97 41.9 246.34 42.29 249.44C42.64 252.23 42.93 257.06 42.93 260.16C42.94 263.26 43.19 268.72 43.5 272.28C43.8 275.85 44.42 280.42 44.87 282.44C45.32 284.45 45.83 287.82 46.01 289.91C46.31 293.62 46.37 293.74 48.29 294.56C49.38 295.03 50.26 295.66 50.26 295.97C50.26 296.28 51.34 297.3 52.66 298.24C54.23 299.37 55.74 299.95 57.03 299.95C58.35 299.95 59.41 299.52 60.22 298.67C60.89 297.96 62.89 294.46 64.67 290.9C66.45 287.33 68.34 283.78 68.87 283C69.4 282.22 70.98 279.43 72.38 276.8C73.78 274.16 75.6 269.84 76.42 267.21C77.24 264.57 78.15 261.02 78.44 259.31C78.73 257.61 79.38 251.13 79.89 244.93C80.39 238.73 81.31 231.11 81.94 228.01C82.56 224.91 83.74 220.35 84.57 217.88C86.06 213.45 86.11 213.39 88.62 212.6C90.01 212.16 94.83 211.64 99.33 211.44L107.51 211.09C108.95 203.25 109.54 201.59 110.33 200.96C111.15 200.31 112.16 200.15 114 200.37C115.39 200.53 118.95 201.27 121.89 202.01C124.84 202.74 129.79 204.54 132.89 206.01C135.99 207.47 139.67 208.8 141.07 208.96C143.55 209.25 143.62 209.22 144.19 207.35C144.66 205.82 145.1 205.41 146.44 205.27C147.37 205.17 149.64 205.65 151.5 206.32C153.36 207 158.19 209.23 162.22 211.28C166.25 213.32 172.09 216.67 175.19 218.72C178.29 220.77 181.72 223.21 182.81 224.14C183.89 225.07 186.43 227.01 188.45 228.45C190.46 229.89 192.56 231.08 193.1 231.09C193.75 231.1 194.09 230.68 194.09 229.84C194.1 229.14 192.83 225.46 191.27 221.66C189.72 217.86 188.61 214.63 188.82 214.47C189.03 214.32 189.79 214.19 190.51 214.19C191.24 214.19 193.73 214.7 196.06 215.32C198.39 215.94 201.62 216.97 203.25 217.61C204.88 218.25 206.85 218.69 207.62 218.6C208.97 218.43 209.04 218.23 209.21 214.19C209.3 211.86 209.69 209.63 210.05 209.23C210.42 208.83 211.87 208.51 213.26 208.52C214.66 208.53 218.46 209.02 221.72 209.6C224.98 210.19 229.55 211.43 231.87 212.36C234.2 213.29 239.02 215.38 242.59 217C246.16 218.63 250.47 220.47 252.18 221.1C253.88 221.72 255.53 222.45 255.84 222.73C256.15 223.01 257.3 223.23 258.38 223.24C260.31 223.24 260.35 223.19 259.99 221.39C259.79 220.38 258.37 217.27 256.84 214.47C255.3 211.68 252.99 207.56 251.7 205.31C250.41 203.06 249.36 201.09 249.36 200.94C249.36 200.78 250.56 200.5 252.04 200.3C253.51 200.11 255.03 199.66 255.41 199.32C255.8 198.97 256.24 196.71 256.4 194.31L256.69 189.94C259.97 189.37 263.84 189.37 267.41 189.57C270.97 189.77 274.62 190.13 275.51 190.36C276.74 190.68 278.09 192.17 281.01 196.43C283.15 199.53 285.34 203.02 285.88 204.19C286.42 205.36 287.18 206.31 287.57 206.31C287.99 206.3 288.27 205.55 288.27 204.46C288.26 203.45 288.6 201.49 289.01 200.09C289.43 198.7 290.89 195.35 292.27 192.66C294.39 188.48 294.91 187.84 295.75 188.28C296.29 188.57 298.89 190.97 301.53 193.61C304.17 196.24 307.43 200.11 308.78 202.21C310.13 204.3 312.41 208.61 313.85 211.79C315.29 214.97 316.97 219.42 317.57 221.66C318.18 223.91 319.05 227.66 319.5 229.98C319.96 232.31 320.75 239.29 321.25 245.49C321.76 251.7 322.41 258.17 322.7 259.88C322.99 261.58 323.9 265.14 324.72 267.77C325.54 270.41 327.36 274.72 328.76 277.36C330.16 280 331.74 282.79 332.27 283.56C332.8 284.34 334.69 287.89 336.47 291.46C338.25 295.03 340.25 298.52 340.92 299.23C341.73 300.09 342.79 300.51 344.11 300.51C345.41 300.52 346.91 299.93 348.48 298.81C349.8 297.87 350.88 296.85 350.88 296.54C350.88 296.23 351.77 295.59 352.85 295.13C354.78 294.3 354.84 294.18 355.14 290.47C355.31 288.38 355.82 285.02 356.27 283C356.72 280.98 357.34 276.42 357.65 272.85C357.95 269.28 358.2 263.82 358.21 260.72C358.21 257.62 358.5 252.8 358.85 250.01C359.24 246.9 359.84 244.53 360.4 243.9C361.24 242.95 361.24 242.34 360.32 236.01C359.77 232.23 359.08 225.84 358.78 221.81C358.47 217.77 357.86 212.19 357.4 209.4C356.95 206.61 356.17 201.78 355.68 198.68C355.18 195.58 354.41 189.23 353.96 184.58C353.51 179.93 353.14 175.3 353.14 174.29C353.14 172.81 353.43 172.34 354.69 171.86C356.11 171.32 356.2 171.11 355.83 169.19C355.6 168.04 355.16 167.03 354.84 166.96C354.52 166.88 354.26 166.43 354.26 165.97C354.26 165.5 352.01 160.74 349.26 155.39C346.51 150.04 342.51 143.16 340.38 140.09C338.24 137.03 334.54 131.7 332.15 128.25C329.76 124.8 326.68 120.07 325.32 117.75C323.95 115.42 322.51 112.63 322.11 111.54C321.48 109.82 321.55 109.09 322.6 105.76C323.26 103.67 323.82 101.26 323.83 100.4C323.85 99.55 323.53 98.57 323.13 98.22C322.73 97.88 320.37 96.82 317.88 95.87C315.4 94.92 311.47 93.27 309.14 92.2C306.82 91.14 304.09 89.6 303.08 88.78L301.25 87.29C303.09 81.51 303.5 78.67 303.5 75.87C303.5 72.07 303.37 71.5 302.52 71.52C301.97 71.53 300.51 72.36 299.27 73.38C298.03 74.4 294.99 76.65 292.5 78.39C290.02 80.14 285.58 82.71 282.63 84.12C279.69 85.53 275.75 87.22 273.89 87.88C272.03 88.55 269.24 89.43 267.69 89.86C265.11 90.56 264.72 90.53 263.18 89.56C262.25 88.97 260.47 87.44 259.23 86.15C257.99 84.87 256.27 83.45 255.42 83.01C254.57 82.57 253.17 82.22 252.32 82.22C251.28 82.23 250.02 82.96 248.51 84.43L246.26 86.62C237.08 82.84 231.3 80.83 227.5 79.72C222.71 78.32 219.47 77.7 216.93 77.7C214.38 77.7 213.26 77.92 213.25 78.41C213.25 78.79 214.28 80.13 215.55 81.37C216.82 82.61 218.06 84 218.31 84.47C218.66 85.13 217.95 85.03 215.02 84C212.97 83.28 206.34 81.45 200.29 79.94C194.24 78.43 185.23 76.55 180.27 75.77C175.3 74.98 169.72 74.05 167.86 73.69C166 73.33 162.7 72.82 160.53 72.55C158.36 72.28 155.28 71.9 153.69 71.71C151.47 71.44 150.79 71.53 150.74 72.13Z" fill="$[hairColor]" stroke="#000" stroke-width="4" />
</svg>