<svg xmlns="http://www.w3.org/2000/svg" viewBox="0 0 400 600" width="400" height="600">
	<g id="Hair">
		<path id="middle_part" d="M60.7 303.6L50.52 306.33C50.52 306.33 40.18 299.58 40.05 280.08C38.93 269.01 38.32 258.62 38.08 249C37.88 239.41 38.05 230.66 38.5 222.69C39.01 214.77 39.81 207.61 40.86 201.13C41.97 194.65 43.31 188.82 44.82 183.57C48 172.99 51.73 164.66 55.36 158.29C59.07 151.81 62.56 147.35 65.25 144.71C70.63 139.34 78.38 133.58 87.42 126.28C96.36 118.88 106.49 110.1 116.71 99.11C127.39 88.13 139.22 82.49 149.56 79.56C159.94 76.92 168.81 76.65 173.41 76.44C182.61 76.17 199.02 93.13 199.02 93.13C199.02 93.13 219.64 76.8 228.95 77.4C233.62 77.77 242.72 78.38 252.82 81.26C262.99 84.39 274.36 90.08 283.84 100.66C293.43 111.33 303.57 120.04 312.76 127.43C322.19 134.78 330.39 140.63 336.01 146.01C338.82 148.66 342.43 153.21 346.15 159.76C349.81 166.2 353.49 174.58 356.48 185.1C357.89 190.33 359.12 196.12 360.09 202.53C361.01 208.94 361.68 216.02 362.04 223.82C362.38 231.67 362.43 240.28 362.16 249.7C361.86 259.16 361.22 269.34 360.1 280.17C359.88 299.59 349.41 306.39 349.41 306.39L339.18 303.74C339.18 303.74 340.9 292.51 341.35 288.56C341.73 284.52 333.32 272.35 328.87 268.51C326.6 266.61 323.21 255.15 318.59 242.44C313.36 228.83 306.9 213.68 301.3 208.65C295.64 203.42 281.51 201.24 268.76 200.25C256 199.13 244.66 199.39 244.66 199.39C244.66 199.39 237.37 190.29 235.86 188.75C235.1 187.98 235.76 189.14 239.52 194.3C243.3 199.38 250.21 208.18 261.88 222.1C251.55 222.53 235.5 217.37 222.1 211.79C208.86 205.93 198.35 199.86 198.35 199.86C198.35 199.86 188.4 205.92 175.75 211.72C162.98 217.19 147.55 222.2 137.3 221.7C147.64 208.01 153.74 199.35 157.07 194.34C160.39 189.25 160.97 188.09 160.28 188.86C158.89 190.38 152.39 199.38 152.39 199.38C152.39 199.38 141.25 199.1 128.87 200.17C116.53 201.08 102.95 203.14 97.72 208.25C92.53 213.18 86.91 228.09 82.27 241.53C77.99 254.16 74.67 265.63 72.35 267.56C67.75 271.49 58.91 283.94 59.19 288.04C59.51 292.07 60.7 303.6 60.7 303.6Z" fill="$[hairColor]" stroke="#000" stroke-width="4"/>
	</g>
</svg>