<svg xmlns="http://www.w3.org/2000/svg" viewBox="0 0 400 600" width="400" height="600">
	<g id="Hair">
		<path id="parted" d="M61.7 299.46L50.91 298.23C50.91 298.23 40.36 290.76 40.92 276.9C41.12 270.28 41.47 263.65 41.95 257.08C42.43 250.33 43.05 243.73 43.82 237.32C44.59 230.82 45.53 224.57 46.61 218.58C47.73 212.54 49 206.78 50.42 201.3C53.37 190.2 56.92 180.16 60.97 171.06C65.11 161.67 69.69 153.11 74.61 145.33C79.54 137.17 84.78 129.81 90.27 123.27C95.74 116.45 101.48 110.59 107.46 105.77C113.45 100.86 119.75 97.15 126.31 94.71C132.93 92.34 139.88 91.34 147.08 91.72L150.66 102.57C150.66 102.57 149.91 89.02 156.54 83.57C166.29 81.85 176.02 80.98 185.63 80.89C195.33 80.98 204.87 81.8 214.13 83.26C223.42 84.8 232.4 86.88 240.94 89.4C249.47 91.91 257.53 94.79 265.02 97.95C272.47 101.02 279.34 104.34 285.52 107.85C291.67 111.25 297.14 114.85 301.84 118.63C311.16 125.87 317.46 134.01 320 143.2C329.94 151.78 337.34 156.21 342.88 160.07C348.39 163.81 352.06 167.14 354.54 173.31C357.01 179.45 358.3 188.56 358.98 204C359.31 211.78 359.47 221.19 359.53 232.61C359.55 238.33 359.54 244.55 359.51 251.31C359.47 258.05 359.41 265.31 359.34 273.12C359.12 290.75 349.12 300.39 349.12 300.39L339.29 301.3C339.29 301.3 339.35 289.25 339.37 285.13C339.4 280.96 329.46 270.1 324.43 266.79C321.91 265.13 320.68 253.51 318.85 241.12C317.03 228.41 314.61 214.94 309.55 211.15C307.02 209.22 301.26 209 293.39 209.83C285.48 210.59 275.44 212.35 264.37 214.46C253.28 216.44 241.2 218.71 229.28 220.64C217.37 222.39 205.66 223.8 195.3 224.33C179.83 224.83 170.45 219.95 164.62 213.58C158.85 207.02 156.59 198.98 155.26 193.51C155.07 198.97 142.38 204.06 128.6 208.67C115.04 212.75 100.55 216.13 95.71 220.31C90.91 224.32 86.07 237.18 82.09 248.82C78.38 259.78 75.48 269.74 73.26 271.22C68.82 274.14 60.06 283.35 60.33 286.76C60.62 290.07 61.7 299.46 61.7 299.46Z" fill="$[hairColor]" stroke="#000" stroke-width="4"/>
	</g>
</svg>