<?xml version="1.0" encoding="utf-8"?>
<!-- Generator: Adobe Illustrator 23.0.5, SVG Export Plug-In . SVG Version: 6.00 Build 0)  -->
<svg version="1.1" id="Capa_1" xmlns="http://www.w3.org/2000/svg" xmlns:xlink="http://www.w3.org/1999/xlink" x="0px" y="0px"
	 viewBox="0 0 600 600" style="enable-background:new 0 0 600 600;" xml:space="preserve">
<style type="text/css">
	.st0{fill:#FFFFFF;}
</style>
<title>punkHairf</title>
<g>
	<path d="M41.4,293c1.2-14.8,5.5-29.1,3.4-44.4c-4.8-34.2-0.1-67.4,11.6-99.8c13.1-36.5,30.3-70.6,56.6-99.7
		c19.2-21.3,43.6-32.3,71-37.7c3.5-0.7,7.3-0.3,10.9-0.1c6.5,0.4,12.9,1.5,19.4,1.5c17,0.1,31.5,6.4,44.6,16.7
		c17.2,13.5,30.7,30.4,41.1,49.2s19.2,38.7,27.4,58.7c19.1,46.7,37.7,93.6,52.8,141.8c15.3,48.9,21.6,99,24.1,150
		c2.1,44.1,5.5,88.1,9.2,132.1c1.1,13.1,5.2,26,7.9,39c0.2,1,0.4,2.8-0.1,3.1c-1.1,0.6-2.4,0.7-3.6,0.4c-5.5-1.9-10.9-4-17.1-6.3
		c0.9,3.2,1.6,5.6,2.3,8c-13.4-7.6-25.3-17.5-42-21.3l9,22l-2,1c-17-20-30.5-42.4-42.5-66.7c-0.2,3.2-0.4,5.7-0.6,9.4
		c-1.2-1.3-1.8-1.7-1.9-2.2c-4.5-17.7-9.3-35.4-13.4-53.3c-5.4-23.6-6.9-47.8-7.5-72c-0.6-25-0.7-50-2.7-74.9
		c-4.1-51.7-20.4-99.8-46.5-144.3c-11.5-19.6-25-38.1-37.6-57.1c-0.8-1-1.7-2-2.6-3c-3.7,4.8-7.1,9.3-7.6,15.4c-0.1,1-1,2.5-1.8,2.6
		c-2.3,0.5-4.6,0.6-6.9,0.4c-23.6-3.2-41.2-16.9-57-33.4c-2.7-2.8-4.4-6.6-6.7-10.3c-2.2,1.7-4.3,3.5-6.3,5.4c-3.1,3.2-5.7,7.1-9,10
		c-12.2,10.6-16.4,24.6-19.3,39.9c-7.4,39.1-7.9,78.1-2.5,117.4c1.5,10.7,1.2,21.6,1.6,32.4c0,0.9-0.4,1.8-1,4.3
		c-2.4-3.3-4.3-5.5-5.6-8c-8-15-13.1-31.5-14.9-48.4c-1.6-14.5-1.6-29.2-2.2-43.8c-0.1-1.5,0-2.9,0-4.4l-1.3-0.1
		c-1.3,13-2.9,26-3.8,39c-2.5,35,2.3,70.2,14.3,103.2c11.5,31.6,21.7,63.6,32.1,95.6c11,33.5,21.6,67.2,32.4,100.6
		c-5.3,5.1-10.8,2.2-14.9,2c-1.6-6.8-2.4-13.1-4.6-18.7c-7.3-17.9-14.9-35.6-22.8-53.3c-19.8-44.6-38.8-89.6-53.8-136.1
		c-4.2-13.2-6-27.2-8.9-40.9c-0.3-1.3-0.6-2.6-1-3.8L41.4,293z M81.9,172.9c-3.7,10.5-7.2,21-11.1,31.4
		c-5.7,14.9-11.9,29.6-17.5,44.6c-1.8,4.9-2,10.3-2.8,15.5c-0.1,0.8-0.2,1.6-0.3,2.5c-1.6,5.2-3.9,10.3-4.7,15.7
		c-2.7,19.7-1.8,39.5,4.5,58.3c10.8,32,22.2,63.8,34.9,95.1c13.7,33.6,29.3,66.4,43.8,99.7c3.3,7.6,5.1,15.9,7.9,24.7l6.9,0.6
		c-4.5-14.2-8.6-27.6-12.9-40.9c-8.8-27.2-17.8-54.4-26.6-81.7c-10.8-33.6-22.7-66.9-32-100.9c-10.6-38.6-8-78-0.6-116.9
		c3.3-17.1,8.9-33.7,13.5-50.6c2.4-5.2,4.9-10.3,7.3-15.4c-15.5,49.6-15.9,66.2-16.3,82.7c-0.7,31.2,9.3,70.9,19.3,81.9
		c-0.8-11-0.9-21-2.2-30.8c-5.1-37.4-4.2-75.3,2.4-112.4c3.5-20,10.1-37.8,25.5-51.6c3.5-3.2,7.4-5.9,11.7-9.3
		c-2.5-17.2,3.7-33.2,13.9-47.7c9.9-14.2,21.3-27.2,37.4-34.6c-2.4,4.9-5.4,9.2-6.7,13.8c-7.5,25.6-11.5,51.8-9.5,78.4
		c0.6,8.5,3.7,16.8,5.9,25.1c1.4,5.2,5.8,5.8,10.8,7.2c-9.3-15.2-10-29.6-0.1-43.4c11.3-15.8,26.1-28.8,43.1-38
		c12.4-6.7,25.3-8,38.5-2.4c9.3,4,18.6,8,27.9,12c0.6,0.4,1.2,0.9,1.7,1.5c-1.8,0.5-3.7,0.4-5.4-0.2c-10.7-3.8-21.5-6.4-32.7-2.3
		c-17.9,6.3-33.6,17.5-45.4,32.3c-1.3,1.7-2.4,3.5-3.5,5.4c8.6-2.7,16.3-5.5,24.1-7.6c21.3-5.6,42.3-3.1,63,3c1.2,0.4,2.1,2,3.1,3
		c-1.5,0.1-3.1,0.6-4.5,0.3c-5-1.2-9.9-3.4-15-3.8c-23.4-1.8-43.9,5.5-61.7,20.6c-0.8,0.8-1.6,1.7-2.3,2.7
		c9.6,13.6,19.3,26.7,28.3,40.3c39.1,59.1,60.5,123.9,62,195c0.5,24,0.4,48,1.8,72c1.9,31.9,6.7,63.5,21.3,92.4
		c8.8,17.5,19.9,33.8,30,50.7c0.6,0.7,1.4,1.3,2.1,1.9c-3.6-12-7.1-23.1-10.3-34.2s-6.1-22.5-8.9-33.8s-5.4-22.7-7.8-34.1
		s-4.5-22.9-6.3-34.4c-1.8-11.3-3.1-22.6-4.6-34l1.4-0.2c0.3,1.6,0.7,3.2,1,4.8c5.3,28.8,9.9,57.8,16.1,86.3
		c4.9,22.1,11.8,43.7,18,65.5c0.6,1.9,1.9,3.5,3.6,4.4c4.5,2,9.6,2.8,14,5c6.9,3.5,13.5,7.8,20.5,11.9c-1.8-5.9-3.5-11.5-5.1-17.2
		c-11.7-43.5-15.8-88.1-21-132.6c-3-26-5.9-52-8.7-77.9c-0.9-8-1.6-16-2.5-24.1c2.3,13.5,4.1,27,5.8,40.4
		c6,46.4,11.6,92.9,18.4,139.2c3,20.4,8.4,40.4,12.8,60.5c0.4,1.6,1.3,4,2.5,4.4c5.2,1.9,10.6,3.1,16.3,4.7c-1-4.2-1.6-8.2-2.8-12
		s-3.3-7-4.2-10.7c-1.3-5-2.2-10.1-2.6-15.2c-2.6-40.9-5.7-81.8-7.3-122.7c-1.7-42.9-4.4-85.5-14.9-127.3
		c-10.7-42.3-25.6-83.1-41.4-123.6c-11.7-30.2-24.1-60.2-37.1-90c-4.1-9.4-10.6-17.8-16-26.4l2.3,0.5C280.7,55,270,39.9,254.6,29.4
		c-8.9-6.1-17.9-12.2-29.4-12.4c-7.8-0.1-15.7-0.4-23.5-0.6c-18-0.6-35.2,3.4-51.7,10.2c-13.3,5.5-24.2,14.7-33.7,25.4
		c-38.5,43.3-61,94.2-68.8,151.5c-2.1,15.5-1.2,31.1,1,47.4c0.8-1.6,1.2-2.3,1.5-3c7.8-20.1,15.5-40.4,23.6-60.4
		C75.8,182.3,79.1,177.7,81.9,172.9z M167.9,149.1c-9-37.8-1.3-73.2,8.5-109.6C159.1,53.9,145,69.3,138,90.1c-1.1,3.5-2,7-2.7,10.6
		c-3.2,16.3,5.2,27.4,16.9,36.8C157.3,141.6,162.7,145.2,167.9,149.1L167.9,149.1z M271.1,78.3c-14.2-7.7-28.7-8.4-43.4-0.2
		c-16.2,9.1-30.2,21.5-41.3,36.4c-2.4,3.2-4.2,6.8-5.4,10.6c-3.4,10.7-1.9,20.7,4,29.2c6.9-11.6,13.2-23.3,20.6-34.2
		C221.3,96.7,242.9,82.1,271.1,78.3L271.1,78.3z M201.7,159.8c3.7-10.9,8.2-20,17.8-26.6c11.1-7.7,22.7-13.7,35.8-17.1
		c1.1-0.3,2.2-0.8,4.5-1.7c-17.1-0.9-31.7,3.6-46.3,8.3c-2.5,0.8-4.6,2.6-6.9,3.9c-7.8,4.7-11.6,12.4-15.3,20.3
		c-4.3,9.1-2.7,12.3,7.5,13C199.8,159.9,200.8,159.9,201.7,159.8L201.7,159.8z"/>
	<path fill="$[hairColor]" d="M81.9,172.9c-2.8,4.9-6.2,9.5-8.2,14.6c-8.1,20.1-15.8,40.3-23.6,60.4c-0.3,0.7-0.7,1.4-1.5,3
		c-2.2-16.4-3.1-32-1-47.4C55.3,146.1,77.8,95.3,116.3,52c9.5-10.7,20.4-19.9,33.7-25.4c16.4-6.8,33.6-10.8,51.6-10.2
		c7.8,0.3,15.7,0.6,23.5,0.6c11.5,0.1,20.5,6.2,29.5,12.3c15.4,10.5,26,25.6,37.6,40.3l-2.2-0.5c5.3,8.7,11.9,17,16,26.4
		c12.9,29.8,25.3,59.8,37.1,90c15.7,40.6,30.7,81.4,41.4,123.6c10.5,41.8,13.3,84.4,14.9,127.3c1.6,40.9,4.7,81.8,7.3,122.7
		c0.4,5.1,1.3,10.2,2.6,15.2c0.9,3.7,3,7.1,4.2,10.7s1.8,7.7,2.8,12c-5.7-1.6-11.1-2.8-16.3-4.7c-1.2-0.4-2.2-2.8-2.5-4.4
		c-4.4-20.2-9.8-40.2-12.8-60.5c-6.8-46.3-12.3-92.8-18.4-139.2c-1.8-13.5-3.5-27-5.8-40.4c0.8,8,1.6,16.1,2.5,24.1
		c2.9,26,5.8,52,8.7,77.9c5.1,44.5,9.3,89.2,21,132.6c1.5,5.7,3.3,11.3,5.1,17.2c-7-4.1-13.5-8.4-20.5-11.9c-4.4-2.2-9.4-3.1-14-5
		c-1.7-0.9-3.1-2.5-3.6-4.4c-6.2-21.8-13.1-43.4-18-65.5c-6.3-28.6-10.8-57.5-16.1-86.4c-0.3-1.6-0.7-3.2-1-4.8L323,422
		c1.5,11.3,2.8,22.7,4.6,34c1.8,11.5,4,23,6.3,34.4s5,22.8,7.8,34.1s5.7,22.6,8.9,33.8s6.6,22.2,10.3,34.2c-0.8-0.6-1.5-1.2-2.1-1.9
		c-10.1-16.8-21.1-33.2-30-50.7c-14.6-28.9-19.4-60.5-21.3-92.4c-1.4-23.9-1.3-48-1.8-72c-1.5-71.1-22.9-135.9-62-194.9
		c-9-13.6-18.7-26.7-28.3-40.3c0.7-1,1.4-1.8,2.3-2.7c17.8-15.1,38.4-22.4,61.7-20.6c5,0.4,10,2.6,15,3.8c1.4,0.3,3-0.2,4.5-0.3
		c-1-1-1.9-2.7-3.1-3c-20.8-6.1-41.8-8.6-63.1-3c-7.9,2-15.5,4.8-24.1,7.6c1.1-1.9,2.2-3.7,3.5-5.4c11.8-14.8,27.5-26,45.3-32.3
		c11.1-4,22-1.4,32.7,2.3c1.7,0.7,3.6,0.7,5.4,0.2c-0.5-0.6-1-1.1-1.7-1.5c-9.3-4-18.6-8-27.9-12c-13.2-5.7-26.1-4.4-38.5,2.4
		c-17.1,9.2-31.8,22.2-43.1,38c-10,13.8-9.3,28.3,0.1,43.4c-5-1.4-9.4-2-10.8-7.2c-2.1-8.3-5.2-16.6-5.9-25.1
		c-2-26.7,2-52.8,9.5-78.4c1.4-4.7,4.3-8.9,6.7-13.8c-16.1,7.4-27.4,20.4-37.4,34.6c-10.2,14.6-16.3,30.5-13.9,47.8
		c-4.3,3.4-8.2,6.2-11.7,9.3c-15.4,13.8-22,31.6-25.5,51.6c-6.7,37.1-7.5,75.1-2.4,112.4c1.3,9.8,1.5,19.8,2.2,30.8
		c-10-11-20-50.7-19.3-81.9c0.4-16.5,0.8-33.2,16.2-82.7c-2.4,5.2-4.9,10.3-7.3,15.4L81.9,172.9z M227,20.4l0.1-0.4
		c-2-0.4-4-0.7-6.1-0.8c-15.5,0.4-30.4,3.4-43.9,11.3c-16.5,9.6-31.7,20.9-44.4,35.2c-8.7,9.7-13.1,20.8-10.1,34
		c1,4.2,3.1,8.2,4.7,12.3l1.5-0.6c-0.1-0.8-0.3-1.5-0.6-2.3c-8.4-17.5-3.6-32.2,9.4-45.3c12.3-12.4,25.7-23.3,41.2-31.2
		c8.8-4.5,18.5-7.2,28.1-9.7C213.4,21.1,220.3,21.1,227,20.4z"/>
	<path fill="$[hairColor]" d="M81.9,172.9l2.8-2.8c-4.6,16.8-10.2,33.5-13.5,50.6c-7.4,38.9-10,78.3,0.6,116.9c9.3,34,21.2,67.3,32,100.9
		c8.8,27.3,17.8,54.4,26.6,81.7c4.3,13.3,8.4,26.7,12.9,40.9l-6.9-0.6c-2.8-8.8-4.6-17.1-7.9-24.7c-14.4-33.3-30-66.1-43.7-99.7
		c-12.7-31.3-24.1-63.1-34.9-95.1c-6.3-18.8-7.3-38.6-4.5-58.3c0.7-5.3,3.1-10.5,4.7-15.7c0.2-0.8,0.3-1.6,0.3-2.5
		c0.9-5.2,1.1-10.6,2.8-15.5c5.5-15,11.8-29.7,17.5-44.6C74.8,193.9,78.2,183.3,81.9,172.9z"/>
	<path fill="$[hairColor]" d="M168,149.1c-5.3-3.9-10.6-7.5-15.7-11.6c-11.7-9.4-20.1-20.5-16.9-36.8c0.7-3.6,1.5-7.1,2.7-10.6
		c7-20.8,21.1-36.2,38.4-50.5C166.7,75.9,159,111.3,168,149.1z"/>
	<path fill="$[hairColor]" d="M271.1,78.3c-28.3,3.9-49.8,18.4-65.6,41.7c-7.4,11-13.7,22.7-20.6,34.2c-5.9-8.5-7.4-18.5-4-29.2
		c1.2-3.8,3.1-7.4,5.5-10.6c11.1-14.9,25.2-27.3,41.3-36.4C242.4,69.9,257,70.6,271.1,78.3z"/>
	<path fill="$[hairColor]" d="M201.8,159.8c-1,0.1-1.9,0.2-2.9,0.2c-10.1-0.7-11.8-3.9-7.5-13c3.7-7.9,7.4-15.6,15.3-20.3
		c2.3-1.4,4.4-3.1,6.9-3.9c14.6-4.7,29.2-9.2,46.3-8.3c-2.3,0.9-3.4,1.4-4.5,1.7c-13,3.4-24.6,9.4-35.8,17.1
		C210,139.8,205.5,148.9,201.8,159.8z"/>
	<path d="M227,20.4c-6.7,0.8-13.7,0.8-20.2,2.5c-9.6,2.5-19.3,5.2-28.1,9.7c-15.5,7.9-29,18.8-41.2,31.2
		c-13,13.1-17.8,27.8-9.4,45.3c0.3,0.7,0.5,1.5,0.6,2.3l-1.5,0.6c-1.6-4.1-3.8-8-4.7-12.3c-3-13.1,1.4-24.3,10.1-34
		c12.8-14.3,28-25.5,44.4-35.2c13.6-8,28.4-11,43.9-11.3c2,0.1,4.1,0.4,6.1,0.8L227,20.4z"/>
</g>
</svg>
