<svg xmlns="http://www.w3.org/2000/svg" viewBox="0 0 400 600" width="400" height="600">
	<style>
		.shaggyLines { fill: none;stroke: #000000;stroke-width: 5 } 
	</style>
	<path id="shaggy" class="shaggy" d="M37.17 332.53C43.83 321.86 47.5 296.2 47.5 296.2C47.5 296.2 35.83 303.33 24.83 305.86C34.83 292.53 47.75 253.8 47.75 253.8C47.75 253.8 37.5 261.86 26.83 261.53C57.17 211.86 37.58 177.27 92.17 138.53C92.17 138.53 79.08 136.27 66.5 128.2C104.38 125.8 131.25 81.3 195.75 89.8C195.75 89.8 190.25 79.3 168.75 68.3C238.25 67.3 255.25 104.8 255.25 104.8C255.25 104.8 271.75 97.3 280.25 118.8C344.75 128.3 338.75 215.8 363.25 258.8C354.37 257.4 346.75 251.3 346.75 251.3C346.75 251.3 350.62 278.4 366.12 301.9C356.62 299.15 344.83 291.86 344.83 291.86C344.83 291.86 353.12 314.15 356.38 320.65C344.12 315.9 333.75 300 333.75 300C333.75 300 328.17 324.86 311.75 341.8C321.5 315.86 320.25 283.8 320.25 283.8L305.25 252.8L310 200C270 160 239.75 198.3 177.75 197.3C96.22 195.98 77.75 283.8 77.75 283.8C77.75 283.8 77.83 305.53 85.5 340.53C68.5 328.86 61.17 292.2 61.17 297.2C61.17 302.2 48.5 328.2 37.17 332.53Z" fill="$[hairColor]" stroke="#000" stroke-width="4"/>
	<path id="shaggyLines" class="shaggyLines" d="M114 190C114 190 146.25 185.2 190 135M147 178C147 178 203.75 180.7 250 142M140 139C140 139 178.75 84.7 233 105" />
</svg>