<svg id="Capa_1" data-name="Capa 1" xmlns="http://www.w3.org/2000/svg" viewBox="0 0 400 600">
  <title>hairf_1</title>
  <g id="shorter">
    <path d="M315.89,102c10.2,11.5,16,25.2,18.8,40.1,1.4,7.3,1.6,14.8,2,22.3.8,14.8,1.1,29.6,2.1,44.4.3,4.1,3,8,4,12.1,4.9,20.8,4.8,41.6.6,62.5-3.6,18-7.5,35.9-11.1,53.8-1,5.2-1.6,10.5-2.3,15.8-1.2,9.6-6.1,17.7-10.4,26.1-.6,1.1-2.1,1.7-3.2,2.6-.8-1.2-2.3-2.3-2.4-3.5a144.42,144.42,0,0,1,.4-17.4c2.3-23.1,2.8-46.2-.3-69.3-.3-2-1.2-3.9-1-5.9s.6-4.2,1.8-5.5c3.7-4.2,3.4-9,2.4-13.7-3.7-17.3-11.9-32.5-22.7-46.3-6.2-7.9-14.3-13.1-25-13.4-4.4-.1-8.8-1.8-13.2-2.7-.3-.1-.7-.4-.9-.3-5.9,1.9-8.7-3.4-12.8-5.7a69.63,69.63,0,0,0-32-8.9c-8.3-.2-16.6.9-24.9,1.3-4.4.2-9.1-.5-13.2.6-8.2,2.3-16.7,4-23.5,10-1.9,1.7-5.1,2.2-7.9,2.8-7.1,1.5-14.6,2.1-21.4,4.3a29.12,29.12,0,0,0-12.7,8.2c-5.7,6.6-9.7,14.6-15.2,21.4-8.2,10-9.6,22.4-14.1,33.8-4.1,10.4-2.3,20.4-1.3,30.8,1.9,18.4,3.2,36.8,5,55.2.7,6.6,2.1,13.1,3.1,19.7a30.1,30.1,0,0,1,0,5.2c-.6.2-1.1.4-1.7.6a35,35,0,0,1-2.9-4.9c-6.9-17.4-12.6-35-15.5-53.6a318.05,318.05,0,0,0-9.2-40.9c-4.8-16.6-3.1-33-1.3-49.6.7-6.4,1.3-12.6.1-19.2-1.1-6.2-.1-12.9.7-19.4,2.1-17.4,4.3-34.7,7-52a130.32,130.32,0,0,1,5-19.3c1-3,3.1-5.6,4.8-8.4l1.5.6c-2.2,8.8-4.4,17.6-6.6,26.3.4.1.8.3,1.3.4,3.1-8.2,6.9-16.2,9-24.6,3.5-13.7,9.4-25.6,19.9-35.1.9-.8,2-1.5,4.3-3.3-1.6,8.2-2.9,15-4.2,21.8.5.2,1,.4,1.6.6,2.9-6.6,6.1-13.1,8.5-19.9,1.2-3.4,2.4-5.3,6.1-4.8,3.5.6,5-.9,5.7-4.4a42.24,42.24,0,0,1,4.7-12.5v5.7c21.8-6,44.2-7.7,66.4-9.7,6.3-.6,12.8,1.6,19.2,2.2,5.1.4,10.3.3,15.4.4,14.4.2,28.9-1,42.6,5.6,7.5,3.6,11.9,9.9,17.1,15.7,2,2.2,3.8,4.4,5.6,6.7.5-.2,1.1-.3,1.6-.5-.6-5.9-1.1-11.7-1.7-17.6a4.4,4.4,0,0,0,1-.2c1.3,5,2.6,10.1,3.8,15.1.7,3,1.7,4.5,5.5,5,7.6,1,12.3,6.6,16.1,12.9-5.3-5.4-10.9-10.2-19.2-11.4.5,2.7.8,4.6,1.2,6.5-1.2-2.5-2.4-5.1-3.8-8.2-4.6,41.2-12.4,80.3-46.4,108.7,2.1.6,3.6.6,4.6-.2,5.6-4.1,10.8-8.9,16.7-12.5,16.1-9.6,24.6-24.6,30.1-41.5,2.3-7.1,2.7-15.1,2.4-22.6-.3-8.1-2.5-16-3.9-24,5.5,15.3,8.7,30.8,3.5,46.8-5.8,17.8-15.8,33-30.7,44.5-5.3,4.1-11.1,7.4-17.4,11.5,14,5.3,29.4,2.4,39.5,14.5a38.5,38.5,0,0,0,4.4-3.3c7.3-8.2,15.3-15.9,21.7-24.7,13.7-18.7,20.2-39,8.8-61.5-2.6-5.2-5.2-10.4-7.9-15.6C318.59,106.84,317.19,104.44,315.89,102Zm-132.8,44.2c-2.8,11.9-5,23.9-4.2,37.1,4.6-4.5,9-8,9.4-14.2.7-10.5,6.4-18.7,12.2-26.9,3.9-5.6,8.2-10.9,11.6-16.9,11.1-19.7,13.1-39.6.4-59.5-2.2-3.5-4.8-6-9-6-9.1,0-18.3-.4-27.3.5q-20.1,1.95-39.9,5.7c-4.7.9-10.7,3.3-13,7-3.1,5.1-4.2,12-4.3,18.1-.2,21.8,4.7,42.6,15.7,61.7,6.9,12,13.8,23.9,24.2,33.4,3.4,3.1,6.7,4.1,10.5,1.1-5-21.9,4-45.8,18.2-47.6-1.4,1.9-2.6,3.6-3.9,5.3-1.3.7-2.9,1.2-3.9,2.2-7.5,8.5-10.5,18.7-10.3,29.9.1,3.3.8,6.6,1.2,9.8,4.5.3,5.6-2,5.8-4.9.2-3.3-.2-6.7.4-9.9C178.79,163.44,181.09,154.84,183.09,146.24Zm29.7-84.4c1.8,3.3,2.6,4.9,3.5,6.4,7.7,13.8,9.9,28.5,4.2,43.3-3.6,9.3-9,18-14.1,26.8-3.7,6.3-8.4,12-11.9,18.4-2,3.6-2.7,7.9-4,11.9.4.2.9.4,1.3.6,9.3-10.9,19.2-20.9,32.8-26.6-13.4,12.5-24.3,26.8-34.5,42.3,5.8,0,12.5.7,16.3-2.2,16.5-12.6,32.3-26.2,48.2-39.7a112.92,112.92,0,0,0,27.9-36.7c7.4-15.1,7.1-14.8-3-28-8.2-10.6-18.9-15.7-31.7-16.4C236.59,61.34,225.39,61.84,212.79,61.84ZM247.29,195c12.4-12.9,25.9-26.2,32.1-45s12.8-47.6,11.6-55.8a18.18,18.18,0,0,0-1,1.9,110,110,0,0,1-32.1,48c-14.5,12.5-29.4,24.5-44.1,36.8-1.3,1.1-2.6,2.2-3.1,2.7C222.49,187.34,234.49,191,247.29,195ZM144,200.44a42.23,42.23,0,0,1-4-3.6c-4.8-5.9-11.3-11.1-14-17.9-9.1-22.8-15.3-46.5-13-71.5.8-9.1,2.4-18,3.8-27.4-2.7.3-5.4-2-7.3,2.6a199.5,199.5,0,0,1-12.1,25.6,30.32,30.32,0,0,0-4.4,16.5c.8,27.3,14.1,49.5,28.9,71.1,4.1,6,9.5,8.5,16.7,5.5C139.79,200.74,141.39,200.84,144,200.44Zm-19.7,2.7c-11.6-11.9-18.9-27.3-25.7-42.8-4.1-9.3-6.3-19.6-8.1-29.7-1.3-7.4-1.4-15.1,1.3-22.6,2.2-5.9,3.1-12.4,4.8-19.5a15.24,15.24,0,0,0-2.4,1.2,37.27,37.27,0,0,0-2.6,3c-7.5,9.4-11.1,20.2-13,31.9-2.8,17.2-1.2,34,5.6,49.8,5.3,12.2,12.3,23.6,18.7,35.3a35.43,35.43,0,0,0,2.3,3.2C111.89,209.44,118.09,206.24,124.29,203.14ZM316,377.44l2.1.3c2.3-7.2,5.2-14.3,6.8-21.7,3.9-17.9,6.7-36,10.7-53.8,4.5-20.4,8.5-40.8,7.1-61.8-.5-7.4-1.7-14.8-2.6-22.2-.5.1-.9.1-1.4.2v2.5c.5,23.4-3.8,45.1-21.9,61.9-1,.9-1.3,3.2-1.1,4.8.5,5.3,1.5,10.5,2,15.8,2,21.6.7,43.2-1.7,64.8C315.69,371.34,316,374.44,316,377.44Zm-214.4-161.2c-18-11.5-35.5-23.4-39.5-46.7-1.9,10.1-3.1,20.1-4.9,30-2.9,16.4,2.4,29.1,16.2,38.3,2.3,1.6,4.5,3.5,6.7,5.2a36,36,0,0,0,4,2.2C90.09,235.34,95.69,226,101.59,216.24Zm14.2-121.9c-.7,7.1-1.8,14.2-1.9,21.3-.3,21,5.7,40.8,12.6,60.3,3.2,8.9,9.8,15.4,17.2,21,1.1.8,3.5,1.2,4.6.6,4.4-2.2,8.5-4.9,12.4-7.3C134.69,163.54,119,132,115.79,94.34Zm219.1,86h-1a11,11,0,0,0-.9,2.3c-2.7,20-8.7,38.6-21.5,54.6-.6.8-1.1,2.3-.7,3.1,3.7,9.7,7.6,19.3,11.7,29.3,1.4-2.3,3.6-4.5,4.5-7.2,2.9-9.8,7-19.7,7.7-29.7C335.79,215.34,334.89,197.84,334.89,180.34ZM78.49,365.14c.4-.1.8-.2,1.1-.3-.6-5.3-1.3-10.5-1.7-15.8-1.5-18.4-2.6-36.8-4.3-55.2-.5-5.9-1.3-12.4-4.1-17.4-5.1-9-8.7-18.3-9.8-28.5-.4-4-.8-8.1-1.2-12.1-2.2,13.7-3.3,27.4-.1,41,6,25.8,11.8,51.5,17.7,77.3C77,357.84,77.69,361.54,78.49,365.14Zm254.8-198.4c-6.8,21-22.5,35.1-37.5,49.9,4.3,6.6,8.7,13.2,12.6,19.2C324.59,215.64,329.39,191.44,333.29,166.74Zm-259.2-31.8c-6.3,15.3-11.4,29.3-5.6,44.7,4,10.6,22.6,28.5,31,30-5.1-9.6-10.2-18.9-15.1-28.3-3.9-7.5-7.7-15.1-8.4-23.8C75.39,150.44,74.79,143.44,74.09,134.94Zm-10.2,99.9c-2.2,8.8,2.3,31.6,8.6,36.9,2.5-8,5.1-16,7.6-24.1C74.89,243.44,69.59,239.24,63.89,234.84ZM200,164.24c-6.1,6.8-12.2,13.5-18.5,20.5C186,185.14,190.09,180.64,200,164.24Z"/>
    <g>
      <path d="M183.79,145c1.3-1.7,2.5-3.4,3.9-5.3-14.1,1.9-23.2,25.8-18.2,47.6-3.9,3-7.2,2-10.5-1.1-10.4-9.5-17.3-21.4-24.2-33.4-11-19.1-15.9-39.8-15.7-61.7.1-6.1,1.2-13,4.3-18.1,2.2-3.7,8.2-6.1,13-7,13.2-2.5,26.6-4.4,39.9-5.7,9-.9,18.2-.5,27.3-.5,4.2,0,6.8,2.5,9,6,12.6,20,10.6,39.9-.4,59.5-3.3,5.9-7.6,11.3-11.6,16.9-5.8,8.2-11.5,16.4-12.2,26.9-.4,6.2-4.8,9.7-9.4,14.2-.9-13.2,1.3-25.2,4.2-37.1A6.72,6.72,0,0,1,183.79,145Z" fill="$[hairColor]" />
      <path d="M212.79,61.84c12.6,0,23.8-.5,34.9.1,12.8.7,23.5,5.8,31.7,16.4,10.2,13.2,10.4,12.9,3,28a112.92,112.92,0,0,1-27.9,36.7c-15.8,13.5-31.7,27.1-48.2,39.7-3.8,2.9-10.5,2.2-16.3,2.2,10.2-15.5,21.2-29.8,34.5-42.3-13.6,5.6-23.5,15.7-32.8,26.6-.4-.2-.9-.4-1.3-.6,1.3-4,2-8.4,4-11.9,3.6-6.4,8.3-12.1,11.9-18.4,5.1-8.7,10.5-17.4,14.1-26.8,5.8-14.8,3.5-29.4-4.2-43.3C215.39,66.74,214.59,65.14,212.79,61.84Z" fill="$[hairColor]" />
      <path d="M315.89,102c1.4,2.4,2.8,4.8,4.1,7.3,2.7,5.2,5.2,10.4,7.9,15.6,11.4,22.6,4.9,42.8-8.8,61.5-6.5,8.8-14.4,16.6-21.7,24.7a29.51,29.51,0,0,1-4.4,3.3c-10.1-12.1-25.4-9.2-39.5-14.5,6.3-4.1,12.1-7.5,17.4-11.5,14.9-11.5,24.9-26.7,30.7-44.5,5.2-16,2-31.5-3.5-46.8l.1.2c-.3-1.9-.7-3.9-1.2-6.6,8.3,1.2,13.9,6,19.2,11.4A.44.44,0,0,1,315.89,102Z" fill="$[hairColor]" />
      <path d="M247.29,195c-12.8-3.9-24.7-7.6-36.8-11.4.5-.5,1.8-1.6,3.1-2.7,14.7-12.2,29.7-24.3,44.1-36.8a110,110,0,0,0,32.1-48,18.18,18.18,0,0,1,1-1.9c1.2,8.2-5.3,36.9-11.6,55.8C273.09,168.84,259.69,182.14,247.29,195Z" fill="$[hairColor]" />
      <path d="M144,200.44c-2.6.4-4.2.3-5.5.9-7.2,3-12.6.6-16.7-5.5-14.7-21.6-28.1-43.8-28.9-71.1a30.32,30.32,0,0,1,4.4-16.5,199.5,199.5,0,0,0,12.1-25.6c1.8-4.6,4.6-2.3,7.3-2.6-1.3,9.4-2.9,18.4-3.8,27.4-2.3,25,4,48.7,13,71.5,2.7,6.8,9.2,12,14,17.9C140.89,197.94,142.09,198.74,144,200.44Z" fill="$[hairColor]" />
      <path d="M124.29,203.14c-6.2,3.2-12.4,6.4-19.1,9.8a35.43,35.43,0,0,1-2.3-3.2c-6.3-11.7-13.4-23.1-18.7-35.3-6.8-15.8-8.4-32.6-5.6-49.8,1.9-11.8,5.5-22.6,13-31.9.8-1,1.7-2,2.6-3a15.24,15.24,0,0,1,2.4-1.2c-1.7,7.1-2.6,13.6-4.8,19.5-2.8,7.5-2.7,15.2-1.3,22.6,1.8,10.1,4,20.4,8.1,29.7C105.39,175.74,112.69,191.24,124.29,203.14Z" fill="$[hairColor]" />
      <path d="M316,377.44c0-3-.3-6.1,0-9.1,2.4-21.5,3.7-43.1,1.7-64.8-.5-5.3-1.5-10.5-2-15.8-.2-1.6.1-3.9,1.1-4.8,18.1-16.9,22.5-38.5,21.9-61.9v-2.5c.5-.1.9-.1,1.4-.2.9,7.4,2.1,14.8,2.6,22.2,1.4,21-2.6,41.4-7.1,61.8-4,17.8-6.8,35.9-10.7,53.8-1.6,7.4-4.5,14.5-6.8,21.7A15.52,15.52,0,0,0,316,377.44Z" fill="$[hairColor]" />
      <path d="M101.59,216.24c-5.9,9.8-11.6,19.1-17.5,28.9-1.5-.8-2.8-1.4-4-2.2-2.3-1.7-4.4-3.6-6.7-5.2-13.8-9.3-19.1-22-16.2-38.3,1.8-9.9,3-19.9,4.9-30C66.19,192.84,83.59,204.74,101.59,216.24Z" fill="$[hairColor]" />
      <path d="M115.79,94.34c3.2,37.7,18.9,69.2,45,96-3.9,2.3-8,5-12.4,7.3a5.38,5.38,0,0,1-4.6-.6c-7.4-5.6-14-12.2-17.2-21-7-19.5-12.9-39.3-12.6-60.3C114,108.54,115.09,101.44,115.79,94.34Z" fill="$[hairColor]" />
      <path d="M297.89,97.14c1.4,8,3.5,16,3.9,24,.3,7.5-.1,15.5-2.4,22.6-5.5,16.9-14,31.9-30.1,41.5-6,3.5-11.1,8.4-16.7,12.5-1,.7-2.6.8-4.6.2,34-28.5,41.8-67.5,46.4-108.7,1.4,3.1,2.6,5.6,3.8,8.2A.75.75,0,0,1,297.89,97.14Z" fill="$[hairColor]" />
      <path d="M334.89,180.34c0,17.5.9,35-.4,52.4-.7,10-4.8,19.9-7.7,29.7-.8,2.7-3,4.9-4.5,7.2-4-10-7.9-19.6-11.7-29.3a4,4,0,0,1,.7-3.1c12.8-16,18.9-34.6,21.5-54.6a11,11,0,0,1,.9-2.3Z" fill="$[hairColor]" />
      <path d="M78.49,365.14c-.8-3.7-1.5-7.3-2.4-11-5.9-25.8-11.8-51.5-17.7-77.3-3.2-13.6-2.1-27.3.1-41,.4,4,.8,8.1,1.2,12.1,1,10.3,4.7,19.5,9.8,28.5,2.8,5,3.5,11.5,4.1,17.4,1.7,18.4,2.8,36.8,4.3,55.2.4,5.3,1.2,10.5,1.7,15.8A2,2,0,0,1,78.49,365.14Z" fill="$[hairColor]" />
      <path d="M333.29,166.74c-3.9,24.7-8.7,48.9-24.9,69.1-3.9-6-8.3-12.6-12.6-19.2C310.79,201.84,326.49,187.74,333.29,166.74Z" fill="$[hairColor]" />
      <path d="M74.09,134.94c.7,8.5,1.4,15.5,1.9,22.6.7,8.7,4.5,16.3,8.4,23.8,4.9,9.4,10,18.7,15.1,28.3-8.4-1.4-27-19.3-31-30C62.69,164.24,67.79,150.14,74.09,134.94Z" fill="$[hairColor]" />
      <path d="M63.89,234.84c5.7,4.5,11,8.6,16.3,12.8-2.6,8.1-5.1,16.1-7.6,24.1C66.09,266.34,61.69,243.64,63.89,234.84Z" fill="$[hairColor]" />
      <path d="M183.79,145c-.2.4-.5.8-.7,1.2-2.1,8.6-4.3,17.2-6.1,25.8-.7,3.2-.2,6.6-.4,9.9-.2,2.9-1.3,5.2-5.8,4.9-.4-3.1-1.2-6.5-1.2-9.8-.2-11.2,2.8-21.3,10.3-29.9A20.59,20.59,0,0,1,183.79,145Z" fill="$[hairColor]" />
      <path d="M200,164.24c-9.9,16.4-14.1,20.8-18.5,20.5C187.79,177.84,193.89,171,200,164.24Z" fill="$[hairColor]" />
    </g>
  </g>
</svg>
