<svg xmlns="http://www.w3.org/2000/svg" viewBox="0 0 400 600" width="400" height="600">
	<path id="spike" d="M60 310L50 310C50 310 50 305 50 300C50 235 45 155 45 150C45 140 50 130 50 130L60 140L66 120L80 130L85 110L100 120L105 100L120 110L128 88L140 100L148 80L160 96L170 75L180 96L190 75L200 96L210 75L220 96L230 75L240 96L252 80L260 100L272 88L280 112.37L290 100L300 120L312 110.04L320 130L334 120L340 140L350 130C350 130 355 140 355 150C355 155 350 235 350 300C350 305 350 310 350 310L340 310C340 310 340 295 340 290C340 285 330 270 325 265C320 260 320 210 310 200C300 190 250 200 200 200C150 200 100 190 90 200C80 210 80 260 75 265C70 270 60 285 60 290C60 295 60 310 60 310Z" fill="$[hairColor]" stroke="#000" stroke-width="4"/>
</svg>