<svg xmlns="http://www.w3.org/2000/svg" viewBox="0 0 400 600" width="400" height="600">
	<path id="spike-round-02" d="M59.99 309.97L50 309.99C50 309.99 48.02 305.28 45.96 300.51L35.36 276.03L26.7 264.96L28.35 255.91L20.51 244.71L24.1 235.65L17.93 224.5L23.13 215.6L19.55 200.85L37.15 191.46L33.83 176.96L58.86 168.26L59.61 153.36L81.59 149.45L83.06 131.14L104.57 128.12L109.53 108.98L128.21 109.01L140.47 86.16L157.74 95.98L169.07 71.58L182.93 89.06L196.13 64.55L211.76 89.02L224.06 71.43L237.83 95.88L254.59 85.96L268.9 108.8L288.04 108.68L294.03 127.61L315.97 130.36L317.83 148.26L339.82 151.7L340.63 166.19L365.17 173.84L362.07 188.39L379.33 197.25L376.06 211.91L381.35 220.67L375.5 231.95L379.28 241.02L371.7 252.52L373.54 261.79L364.92 273.36L354.14 299.42C351.99 304.61 349.92 309.78 349.92 309.78L339.89 309.68C339.89 309.68 339.1 294.43 340 289.28C340.94 284.13 329.32 268.84 321.32 263.93C313.46 259.06 315.92 209.12 301.77 199.86C261.15 161 238.13 201.75 200.46 202.37C162.71 202.43 138.66 161.59 98.57 201.82C84.27 211.54 86.58 261.46 78.66 266.36C70.65 271.27 59.09 285.4 60 290.28C60.87 295.12 59.99 309.97 59.99 309.97Z" fill="$[hairColor]" stroke="#000" stroke-width="5"/>
</svg>