<?xml version="1.0" encoding="UTF-8" standalone="no"?>
<svg
   xmlns:dc="http://purl.org/dc/elements/1.1/"
   xmlns:cc="http://creativecommons.org/ns#"
   xmlns:rdf="http://www.w3.org/1999/02/22-rdf-syntax-ns#"
   xmlns:svg="http://www.w3.org/2000/svg"
   xmlns="http://www.w3.org/2000/svg"
   xmlns:sodipodi="http://sodipodi.sourceforge.net/DTD/sodipodi-0.dtd"
   xmlns:inkscape="http://www.inkscape.org/namespaces/inkscape"
   viewBox="0 0 400 600"
   width="400"
   height="600"
   version="1.1"
   id="svg41"
   sodipodi:docname="tall-fade.svg"
   inkscape:version="1.0 (4035a4fb49, 2020-05-01)">
  <metadata
     id="metadata47">
    <rdf:RDF>
      <cc:Work
         rdf:about="">
        <dc:format>image/svg+xml</dc:format>
        <dc:type
           rdf:resource="http://purl.org/dc/dcmitype/StillImage" />
        <dc:title />
      </cc:Work>
    </rdf:RDF>
  </metadata>
  <defs
     id="defs45">
    <linearGradient
       y2="310"
       x2="200"
       y1="100"
       x1="200"
       gradientUnits="userSpaceOnUse"
       id="shortfade">
      <stop
         id="stop118"
         stop-color="rgba(0,0,0,.25)"
         offset="0" />
      <stop
         id="stop120"
         stop-color="rgba(0,0,0,0)"
         offset="1" />
    </linearGradient>
  </defs>
  <sodipodi:namedview
     inkscape:document-rotation="0"
     pagecolor="#ffffff"
     bordercolor="#666666"
     borderopacity="1"
     objecttolerance="10"
     gridtolerance="10"
     guidetolerance="10"
     inkscape:pageopacity="0"
     inkscape:pageshadow="2"
     inkscape:window-width="2560"
     inkscape:window-height="1417"
     id="namedview43"
     showgrid="false"
     inkscape:zoom="9.5035152"
     inkscape:cx="306.48272"
     inkscape:cy="192.21249"
     inkscape:window-x="1912"
     inkscape:window-y="-8"
     inkscape:window-maximized="1"
     inkscape:current-layer="layer2" />
  <g
     inkscape:groupmode="layer"
     id="layer1"
     inkscape:label="Layer 1"
     style="display:inline">
    <path
       style="display:inline;opacity:1;fill:url(#shortfade);stroke:none;stroke-width:1;stroke-miterlimit:4;stroke-dasharray:none"
       sodipodi:nodetypes="ccsssccsssssssc"
       d="M 60,310 H 50 v -10 c 0,-140 50,-200 150,-200 100,0 150,60 150,200 v 10 h -10 v -20 c 0,-5 -10,-20 -15,-25 -5,-5 -5,-55 -15,-65 C 270,160 253.57143,161.90476 203.57143,161.90476 153.57143,161.90476 130,160 90,200 c -10,10 -10,60 -15,65 -5,5 -15,20 -15,25 z"
       class="short_fade"
       id="Short Fade" />
  </g>
  <g
     inkscape:groupmode="layer"
     id="layer2"
     inkscape:label="Layer 2">
    <path
       id="short-01"
       d="m 176.95813,80.329259 c -1.66624,0.356728 -3.65591,0.695091 -4.42041,1.006086 -0.76453,0.320141 -2.05479,0.283343 -4.15231,0.685804 -2.09748,0.402464 -4.8171,-0.357289 -5.76782,0.356172 -0.96055,0.722606 -4.67301,-1.60177 -5.58048,1.43591 -1.51923,0.30185 -5.91893,-1.098403 -8.74172,-0.275183 -2.81301,0.83237 -5.96905,2.176977 -6.97859,2.972727 -1.02916,0.81409 -2.96002,1.85684 -4.30281,2.33247 -1.3526,0.46649 -3.07763,0.71346 -3.84215,0.53967 -0.7547,-0.1738 -3.00385,-1.701956 -4.73869,-1.089096 -1.73484,0.62198 -3.7297,3.202036 -4.69023,3.430696 -0.96055,0.21952 -3.2731,-1.107474 -4.6355,-0.394014 -1.3624,0.72261 -2.39743,3.271281 -2.74495,3.430779 -2.98944,1.37204 -1.80043,0.57867 -2.98944,1.37204 -1.27634,0.755543 -2.65616,1.381163 -2.65616,1.381163 -0.0505,-0.26379 -4.43046,-2.651862 -4.96763,0.475231 -2.8554,0.45895 -4.32063,1.567665 -4.01506,2.972656 -0.94094,0.79579 -2.851073,-1.446399 -2.802636,2.54269 -2.751375,1.23477 -1.102374,2.36017 -4.572062,2.23212 -3.087438,-0.1189 -4.077377,-0.32028 -5.010199,3.49482 -1.754446,1.03359 -4.016879,2.31422 -4.340324,3.53076 -0.264637,0.98786 -0.564423,3.21049 -1.436747,5.19536 -5.571364,1.42636 -2.371937,6.33949 -7.360842,10.36411 -3.156047,2.56112 -1.890481,5.49687 -3.488107,6.74085 -2.087694,1.63729 -3.748185,11.39981 -4.287261,13.18346 -0.421459,1.37202 -0.965718,8.11463 -1.896288,12.83533 -2.044859,9.63261 -1.917783,6.55735 -2.955847,12.80557 -0.413957,6.97668 -1.539701,6.94228 -2.291264,14.79071 -1.650099,9.9307 -4.069658,25.69148 -4.153683,27.3047 13.069175,-1.57481 15.468087,-0.45656 24.76716,-0.59778 2.687664,-7.23926 12.988277,-17.01721 31.38775,-17.38593 26.67623,-0.17645 68.99479,0.36422 90.95949,0.39062 24.42608,-0.18001 49.48134,0.89381 73.73348,1.77799 17.40157,0.59062 34.28831,6.4772 39.77486,16.26489 11.66906,-1.34021 14.10561,0.88982 24.67593,0.23251 -0.98508,-8.53574 -3.08677,-26.77275 -4.30522,-32.29486 -1.12964,-4.08473 -0.63524,-7.33364 -2.47622,-10.75855 -1.32825,-6.78459 -1.60778,-7.97983 -2.86775,-15.26862 -2.67802,-8.71803 -1.72361,-10.96868 -2.99369,-12.87439 -0.2332,-2.26437 -0.1069,-4.02284 -0.45978,-5.54123 -0.41166,-1.83852 0.20877,-3.33861 -1.0556,-4.44538 -1.07816,-0.94213 -1.31162,-1.85516 -1.61547,-3.10831 -0.30384,-1.22567 -0.20358,-2.20316 -1.02695,-2.89832 -0.83313,-0.69516 -0.94348,-4.64903 -2.03145,-5.02404 -1.06832,-0.38417 -1.22887,-1.81584 -1.52291,-2.55673 0.24187,-1.25788 -1.46632,-2.25943 -2.03925,-2.94997 -0.7832,-0.944 -2.67506,-1.54555 -4.29761,-1.88855 -0.29616,-1.69993 -1.16177,-2.39694 -2.55007,-3.61369 -0.33323,-0.92383 -3.58766,-2.05324 -5.30289,-3.42527 -1.72504,-1.37203 -1.59177,-4.73844 -5.19124,-4.94839 -1.70546,-1.46351 -5.5511,-2.97273 -5.5511,-2.97273 0,0 -1.22223,-4.135313 -4.70407,-4.198921 -1.93088,-1.60985 -3.95053,-3.521764 -7.02816,-4.518778 -2.50917,-0.79577 -6.0325,-0.19158 -7.57129,-0.43855 -1.52903,-0.24697 -2.36439,-4.291072 -6.43838,-2.296289 -1.52903,-0.32928 -4.15635,-0.07254 -4.15635,-0.07254 -0.97035,-0.76833 -2.15633,-1.39032 -2.64637,-1.39947 -0.47048,-0.009 -1.49038,0.640858 -2.75476,-0.612272 -3.09003,-2.418662 -4.23704,-0.163816 -6.75957,-1.151884 -1.06837,-0.42076 -4.00878,-2.223189 -6.60615,-2.214029 -4.62626,0.009 -4.73408,1.445639 -8.01755,-1.033107 -2.66596,-2.01231 -5.23686,1.721019 -7.05012,1.803339 -1.81326,0.0823 -2.79339,-0.34759 -5.0379,-2.195251 -2.31315,-1.90255 -3.24427,-2.295866 -5.5574,-2.332454 -1.91127,-0.02744 -3.37165,0.347583 -4.72428,1.216537 -1.94065,1.262266 -1.96025,1.262266 -2.84237,0.155497 -0.48027,-0.603694 -2.56799,-1.683027 -4.63605,-2.396483 l -5.42773,0.174281 -4.90295,0.841021 c -5.92004,-2.058047 -7.58108,-1.161301 -10.60971,-0.877748 -2.09751,0.20123 -6.00195,1.189445 -7.38394,0.905892 -1.67604,-0.338434 -5.33716,-1.125648 -5.33716,-1.125648 z"
       fill="$[hairColor]"
       stroke="#000000"
       stroke-width="3.7874"
       sodipodi:nodetypes="ccscccccccccscsccccccccccccccccccccccccccccccscccccccccccccccsccccccccccc" />
  </g>
</svg>
