<?xml version="1.0" encoding="UTF-8" standalone="no"?>
<svg>
  <path
     d="m 370.0787,282.99504 c -2.58847,-5.66265 -6.43474,-16.25911 -8.54728,-23.5477 -2.11253,-7.28859 -4.0288,-13.41922 -4.25838,-13.62362 -0.22957,-0.20439 -3.99297,-2.16363 -8.36311,-4.35387 -7.71752,-3.86789 -7.96975,-4.15779 -8.78359,-10.0954 -0.46085,-3.36223 -0.83791,-8.30202 -0.83791,-10.97729 0,-5.77394 -1.22014,-6.91338 -9.59141,-8.95713 -9.75528,-2.38163 -22.00282,-8.39812 -27.85086,-13.68147 -5.09703,-4.60484 -5.31788,-5.14007 -6.10975,-14.80658 -1.20476,-14.70651 -1.55367,-15.74284 -5.59087,-16.60581 -7.20112,-1.53932 -14.36522,-4.6486 -16.73739,-7.26418 -1.77159,-1.9534 -2.61415,-5.40323 -3.08722,-12.64065 l -0.65064,-9.95404 -5.26025,-0.38694 c -3.83734,-0.28227 -6.09588,0.3378 -8.34939,2.29225 -2.81976,2.44556 -3.32556,2.50607 -5.80057,0.69388 -6.08407,-4.45476 -8.54009,-4.15831 -5.93147,0.71594 0.92043,1.71986 1.21455,4.9558 0.72734,8.00263 -0.64049,4.00538 -0.24706,5.84103 1.81332,8.46037 3.39175,4.3119 3.37359,11.30946 -0.0418,16.10587 -2.44808,3.43801 -2.54613,4.39895 -1.16517,11.41827 1.73133,8.80016 0.51771,12.55484 -4.69919,14.53831 -2.64908,1.00717 -3.17406,2.08532 -3.17406,6.51848 0,2.92144 -0.63944,7.85116 -1.42098,10.95492 -0.97671,3.87886 -1.00509,6.42029 -0.0908,8.12866 1.74086,3.25285 0.69236,4.67469 -5.91871,8.02617 -6.33309,3.21054 -10.38164,3.51469 -13.28744,0.99822 -1.12991,-0.97853 -5.37883,-2.14978 -9.44205,-2.60279 -6.96364,-0.77638 -7.54878,-0.61824 -10.19417,2.75508 -5.73828,7.31727 -12.57427,8.7849 -16.66942,3.57875 -3.13791,-3.98921 -3.74721,-4.01857 -6.75129,-0.32532 -1.63473,2.00975 -2.14693,4.11123 -1.63345,6.70165 1.01878,5.1396 -1.95689,7.14795 -9.35527,6.31405 -5.07422,-0.57193 -6.14781,-0.2116 -9.20823,3.09066 -3.19933,3.45215 -4.1836,3.73806 -12.86819,3.73806 -8.12692,0 -10.15346,-0.49606 -14.92414,-3.65314 -5.29448,-3.50372 -5.81388,-3.59218 -12.69883,-2.16287 -9.57448,1.98765 -13.340823,0.94168 -14.324808,-3.97825 -1.096231,-5.4811 -3.887112,-4.80077 -7.980906,1.94549 -3.813968,6.28515 -5.759814,6.95327 -11.512641,3.95297 -2.049988,-1.06914 -5.42825,-1.9475 -7.507243,-1.95191 -2.711178,-0.005 -5.180032,-1.47977 -8.731468,-5.21311 -2.723891,-2.8634 -6.186658,-5.2051 -7.69702,-5.2051 -3.033803,0 -12.169212,-5.87028 -16.227182,-10.42735 -1.431401,-1.60745 -5.091233,-3.9971 -8.13296,-5.31032 -3.041728,-1.31322 -5.574839,-3.14045 -5.629154,-4.0605 -0.05426,-0.92007 -0.01835,-5.52383 0.08003,-10.23059 l 0.178717,-8.55775 -5.285071,-3.4975 c -3.19447,-2.11401 -5.28507,-4.50722 -5.28507,-6.05013 0,-1.40394 -1.168961,-4.4699 -2.597681,-6.81322 -3.5892769,-5.88697 -3.3458349,-7.04132 2.613192,-12.39086 5.81465,-5.2199 5.831814,-5.76794 0.52224,-16.67907 -1.76415,-3.62532 -3.801541,-10.27987 -4.527534,-14.78786 -1.104977,-6.86127 -0.982046,-8.7121 0.754673,-11.36268 1.917752,-2.92686 1.884257,-3.67837 -0.442875,-9.93636 -5.5643499,-14.96322 -4.2770659,-25.179065 3.907139,-31.006735 3.505579,-2.49619 4.342845,-2.59052 9.694306,-1.0922 5.391802,1.50961 6.13518,1.41826 9.353087,-1.14931 5.869186,-4.683024 13.322934,-8.196922 16.959564,-7.995192 13.488858,0.748245 24.923748,-0.847677 24.923748,-3.478512 0,-1.005653 -0.913976,-3.223356 -2.031054,-4.928231 -3.882259,-5.925091 1.987942,-19.459853 10.266606,-23.671401 2.269604,-1.154601 6.954852,-5.244777 10.411686,-9.089282 5.535849,-6.156701 6.883139,-6.990009 11.301429,-6.990009 2.75896,0 6.61878,0.609262 8.57736,1.353914 2.65672,1.010082 5.6342,0.833989 11.72454,-0.693408 11.45337,-2.872394 18.71694,-0.856258 18.71694,5.195225 0,3.936231 1.95797,5.278714 10.24744,7.026144 3.84685,0.81092 8.72277,2.928822 10.83536,4.706452 4.87608,4.102951 9.5726,4.096602 15.63238,-0.02113 5.43875,-3.695725 7.20656,-3.856565 18.83601,-1.713754 7.4072,1.364829 8.79811,1.277553 12.26351,-0.769505 3.14166,-1.855829 5.42918,-2.132464 11.65677,-1.409678 8.32462,0.966176 11.61768,3.627099 11.61768,9.387573 0,3.472286 2.64009,3.851672 6.98626,1.003944 4.91076,-3.217649 10.89533,-0.341735 13.90639,6.68277 2.58408,6.028408 4.52453,7.016433 7.03559,3.582338 1.41773,-1.938856 1.85991,-1.938856 5.60926,0 2.23861,1.15763 5.44609,2.10478 7.12774,2.10478 1.68165,0 3.69295,0.635404 4.46956,1.412009 1.01517,1.015164 2.53304,0.832303 5.40073,-0.650637 5.64878,-2.921095 11.12097,-2.566183 15.40426,0.999077 2.65528,2.210169 5.35908,3.081692 9.72134,3.13352 7.29985,0.08673 11.24202,2.002069 12.85556,6.245977 0.69549,1.829295 2.25555,3.174064 3.68219,3.174064 3.9953,0 6.23379,3.565782 4.24133,6.756202 -1.33394,2.13597 -1.32684,3.73335 0.0371,8.35261 0.9275,3.14136 2.34615,5.711575 3.15254,5.711575 0.80637,0 2.52601,1.17114 3.82141,2.60254 1.29541,1.4314 3.87484,2.60889 5.7321,2.61663 1.85724,0.008 6.05212,0.82615 9.32192,1.81866 3.3825,1.02673 8.52825,1.51342 11.93784,1.12912 5.19435,-0.58549 6.43934,-0.22889 9.34487,2.67664 2.11513,2.11513 3.35212,4.79558 3.35212,7.26378 0,4.37522 1.03525,5.57465 8.32281,9.64264 7.3721,4.11517 10.11722,9.97893 9.54897,20.39711 -0.25375,4.65205 -1.54016,11.13997 -2.8587,14.41758 l -2.39734,5.95929 3.52805,9.23281 3.52805,9.23282 -2.75372,5.39776 -2.75375,5.39776 4.13261,6.44009 c 4.02903,6.2787 4.11837,6.74107 3.56458,18.44834 -0.48777,10.31161 -1.15904,13.16405 -4.7511,20.18865 -4.07779,7.97448 -6.17395,15.7636 -7.41246,27.54394 -0.39858,3.79121 -1.71932,6.95371 -3.81951,9.14585 -1.76565,1.84293 -3.8679,5.23727 -4.67168,7.54299 -2.48573,7.13057 -5.48439,5.42899 -10.75603,-6.10351 z"
	 fill="$[color]"
	 />
</svg>
