<svg xmlns="http://www.w3.org/2000/svg" viewBox="0 0 400 600" width="400" height="600">
	<path id="afro-big" d="M166.15 14.61C163.35 15.3 160.03 16.31 158.78 16.86C157.53 17.42 153.65 18.54 150.18 19.36C146.72 20.18 142.7 21.84 141.24 23.06C139.78 24.28 136.59 25.8 134.14 26.42C131.71 27.05 126.15 28.88 121.82 30.49C117.55 32.12 112.99 34.64 111.64 36.08C110.32 37.52 107.67 39.48 105.76 40.4C103.87 41.34 101.33 41.94 100.11 41.74C98.9 41.54 95.97 42.39 93.61 43.63C91.28 44.89 88.31 46.32 86.99 46.83C85.69 47.33 83.26 48.88 81.62 50.28C79.99 51.69 78.23 52.9 77.68 52.97C77.15 53.03 75.52 54.28 74.09 55.76C72.67 57.23 71.3 58.47 71.03 58.5C70.76 58.52 68.83 60.12 66.76 62.06C64.7 64.03 62.32 66.88 61.45 68.41C60.6 69.95 59.83 72.47 59.76 73.99C59.65 76.62 59.35 76.8 54.67 77.21C50.55 77.59 49.35 78.17 47.13 80.86C45.36 83.04 44.6 85.16 44.78 87.37C44.94 89.17 44.96 93.67 44.83 97.37C44.63 103.18 43.88 105.4 39.23 113.71C36.2 119.04 32.31 125.55 30.64 128.17C28.41 131.61 27.54 134.23 27.55 137.48C27.56 139.96 27.67 144.85 27.8 148.36C27.9 151.85 28.07 155.31 28.17 156.09C28.26 156.87 26.78 159.53 24.85 161.98C21.91 165.63 21.37 167.07 21.88 170.03C22.22 172 22.72 174.18 22.98 174.89C23.25 175.6 22.31 177.59 20.89 179.31C19.46 181.03 18.05 183.25 17.8 184.26C17.54 185.26 17.57 189.35 17.87 193.29C18.17 197.17 18.87 201.9 19.42 203.84C20.28 206.77 19.78 208.33 16.24 213.63C13.9 217 11.95 220.85 11.9 222.24C11.85 223.64 13 226.41 14.47 228.42C16.9 231.71 16.99 232.29 15.61 235C14.79 236.61 14.55 238.98 15.07 240.28C15.6 241.57 17.01 243.43 18.22 244.41C20.13 245.98 20.2 246.5 18.84 248.99C18.02 250.5 17.69 252.43 18.09 253.29C18.5 254.15 19.67 255.55 20.68 256.38C21.69 257.21 23.37 258.25 24.42 258.69C25.65 259.22 27.16 261.08 28.79 264.07C30.18 266.58 31.21 269.44 31.19 270.69C31.19 272.22 31.61 273.18 32.58 273.84C33.33 274.37 33.77 275.11 33.56 275.49C33.35 275.87 33.65 277.57 34.22 279.23C34.87 281.08 35.8 282.53 36.66 283.13C37.44 283.67 38.93 285.98 40.15 288.45C41.68 291.59 42.62 292.91 44.17 294.24C45.23 295.17 46.54 296.63 47.1 297.48C47.65 298.32 48.58 299.22 49.18 299.5C49.77 299.78 50.8 300 51.46 300C52.14 299.99 53.73 299.61 55.04 299.14C56.39 298.68 57.81 298.29 58.15 298.29C58.5 298.29 59.41 297.96 60.2 297.55C61 297.15 61.64 296.57 61.61 296.27C61.57 295.97 62.68 295.08 64.11 294.29C65.58 293.47 66.95 292.53 67.13 292.19C67.32 291.86 67.86 291.59 68.35 291.6C68.82 291.61 70.58 290.81 72.27 289.81C74 288.78 75.62 287.44 75.84 286.85C76.05 286.24 76.66 285.66 77.19 285.56C77.72 285.46 78.77 285.06 79.51 284.65C80.33 284.19 81.11 282.91 81.43 281.4C81.72 279.97 82.62 277.94 83.43 276.89C84.24 275.81 84.76 274.65 84.56 274.31C84.37 273.97 85.33 272.71 86.7 271.5C88.7 269.68 89.09 268.9 88.62 267.6C88.3 266.69 88.02 265.57 88.02 265.11C88.02 264.64 88.16 263.35 88.34 262.24C88.51 261.11 88.82 258.96 89.01 257.45C89.2 255.87 90.15 253.89 91.23 252.87C92.31 251.83 93.03 250.21 92.93 249.09C92.82 247.99 92.02 245.98 91.12 244.6C90.22 243.23 89.43 241.7 89.37 241.22C89.32 240.73 90.16 239.36 91.22 238.14C92.63 236.5 93.02 235.07 92.67 232.79C92.35 230.85 92.63 229.19 93.4 228.44C94.08 227.79 94.46 226.29 94.26 225.13C94.05 223.97 93.38 222.42 92.78 221.69C92.03 220.78 91.95 219.12 92.54 216.31C93 214.04 94.38 210.51 95.6 208.49C97.51 205.23 98.13 204.79 100.35 205.13C101.73 205.35 103.08 205.63 103.35 205.76C103.61 205.88 104.94 205.54 106.29 205C107.63 204.46 109.47 203.81 110.37 203.54C111.28 203.28 113.28 202.58 114.81 201.97C116.34 201.37 118.44 200.35 119.48 199.71C121.11 198.7 121.84 198.77 124.54 200.18C126.46 201.19 128.38 201.61 129.57 201.27C130.63 200.98 133.9 201.22 136.8 201.83C141.34 202.79 142.45 203.44 145.82 207.01C148.49 209.89 150.45 211.27 152.72 211.87C155 212.49 156.4 212.47 157.79 211.81C158.85 211.29 160.54 209.98 161.56 208.87C162.92 207.38 163.76 207.03 164.7 207.58C165.41 207.99 167.27 208.56 168.84 208.86C170.39 209.15 171.98 209.63 172.37 209.92C172.77 210.22 174.5 210.71 176.21 211.02C177.93 211.33 180.41 211.93 181.72 212.36C183.42 212.9 184.89 212.82 186.82 212.05C188.31 211.45 190.61 210.76 191.91 210.5C193.76 210.13 194.58 210.39 195.61 211.69C196.33 212.59 198.12 213.55 199.58 213.81C201.4 214.13 202.96 213.87 204.48 212.98C205.71 212.27 207.31 210.61 208.02 209.28C208.85 207.75 209.88 206.87 210.86 206.87C211.71 206.87 212.5 207.13 212.63 207.46C212.75 207.79 213.87 208.28 215.12 208.54C216.56 208.85 218.76 208.47 221.11 207.52C223.17 206.69 225.26 206.02 225.74 206.02C226.22 206.03 227.84 204.77 229.33 203.22C231.75 200.75 232.33 200.49 233.8 201.18C234.74 201.62 236.33 201.89 237.32 201.76C238.33 201.64 240.75 202.49 242.7 203.64C244.66 204.78 247.08 205.68 248.1 205.66C249.12 205.63 250.75 205.18 251.75 204.66C252.75 204.12 254.83 202.63 256.38 201.33C257.96 199.99 259.62 199.16 260.1 199.44C260.59 199.73 263.77 199.96 267.21 199.95C272.24 199.9 274.14 199.56 276.3 198.29C278.62 196.92 279.35 196.82 280.94 197.57C281.97 198.06 284.07 198.79 285.6 199.19C287.13 199.59 289.14 200.03 290.05 200.17C290.96 200.3 292.8 200.7 294.16 201.05C295.51 201.38 296.85 201.53 297.12 201.39C297.39 201.24 298.77 200.8 300.18 200.42C302.44 199.81 303.07 200.14 304.97 202.91C306.2 204.66 307.56 207.79 307.99 209.89C308.56 212.49 308.46 214.07 307.66 215.04C307.02 215.81 306.31 217.38 306.07 218.52C305.83 219.66 306.19 221.04 306.88 221.6C307.66 222.24 307.9 223.81 307.52 225.74C307.09 228 307.45 229.36 308.86 230.82C309.92 231.91 310.73 233.21 310.67 233.69C310.6 234.17 309.73 235.79 308.73 237.26C307.75 238.73 306.83 240.83 306.67 241.95C306.51 243.1 307.2 244.69 308.29 245.66C309.35 246.62 310.27 248.61 310.39 250.25C310.52 251.82 310.74 254.08 310.86 255.27C310.99 256.46 311.09 257.83 311.06 258.33C311.04 258.83 310.7 260.07 310.31 261.07C309.77 262.52 310.15 263.36 312.16 265.24C313.54 266.53 314.51 267.91 314.28 268.3C314.07 268.69 314.57 269.99 315.4 271.17C316.22 272.34 317.1 274.67 317.39 276.32C317.73 278.09 318.53 279.58 319.39 280.11C320.17 280.57 321.25 281.05 321.81 281.15C322.35 281.27 323 281.95 323.24 282.67C323.48 283.39 325.2 285.01 327.02 286.25C328.82 287.48 330.66 288.45 331.15 288.44C331.65 288.43 332.21 288.77 332.43 289.18C332.63 289.6 334.11 290.79 335.66 291.83C337.17 292.84 338.36 293.98 338.37 294.35C338.37 294.73 339.09 295.48 339.95 296.01C340.79 296.54 341.73 296.98 342.05 296.98C342.38 296.98 343.79 297.5 345.15 298.12C346.47 298.74 348.04 299.26 348.68 299.28C349.32 299.3 350.29 299.04 350.84 298.7C351.41 298.35 352.3 297.21 352.82 296.15C353.4 295.06 354.77 293.23 355.9 292.06C357.59 290.4 358.67 288.71 360.59 284.71C362.15 281.54 364.02 278.59 364.93 277.9C365.94 277.13 367.1 275.26 368 272.91C368.8 270.77 369.29 268.6 369.09 268.12C368.89 267.63 369.44 266.69 370.32 266C371.45 265.13 372 263.9 372.11 261.97C372.17 260.38 373.48 256.75 375.15 253.54C377.09 249.73 378.84 247.3 380.24 246.55C381.44 245.91 383.35 244.47 384.5 243.34C385.66 242.21 387.02 240.19 387.52 238.87C388.02 237.54 387.56 235.18 386.5 233.63C384.69 231.03 384.72 230.59 387.05 228.15C388.44 226.68 389.94 224.21 390.38 222.68C390.82 221.13 390.34 218.42 389.32 216.67C387.62 213.73 387.68 213.03 390.04 208.69C391.44 206.02 392.42 202.54 392.23 200.93C392.05 199.32 389.64 195.4 386.93 192.2C382.87 187.28 382.25 185.7 382.89 182.26C383.29 180 383.61 174.69 383.61 170.43C383.58 166.12 383.29 161.77 382.97 160.8C382.65 159.83 381.16 157.99 379.66 156.71C378.19 155.44 377.18 153.72 377.38 152.9C377.6 152.07 377.95 149.64 378.16 147.49C378.49 144.13 377.91 143.01 374.26 139.83C371.97 137.74 370.24 135.35 370.37 134.51C370.51 133.68 370.17 132.09 369.63 130.98C369.09 129.87 368.72 126.72 368.79 123.96C368.88 120.62 368.27 118.05 366.98 116.31C365.88 114.81 365.13 111.89 365.22 109.56C365.31 107.28 364.73 104.51 363.93 103.38C363.14 102.27 361.52 100.95 360.32 100.49C359.11 100.03 358.09 98.51 358.06 97.14C358.02 95.75 357.16 93.67 356.14 92.51C355.14 91.34 353.25 90.58 351.94 90.83C350.64 91.07 349.27 90.7 348.91 90C348.55 89.3 348.29 87.29 348.33 85.52C348.37 83.75 347.21 80.3 345.74 77.85C344.27 75.38 341.92 71.13 340.51 68.42C339.09 65.7 337.19 63.27 336.3 63.02C335.41 62.78 333.55 60.54 332.15 58.04C330.41 54.99 327.82 52.67 324.24 51.01C321.26 49.63 317.18 48.21 315.21 47.85C313.2 47.5 309.93 46.79 307.93 46.26C305.9 45.74 303.34 44.12 302.24 42.67C301.11 41.23 299.62 40.06 298.93 40.1C298.25 40.12 296.52 38.17 295.04 35.77C293.53 33.39 291.06 30.86 289.58 30.14C288.08 29.42 283.72 29.01 279.78 29.2C272.66 29.55 272.5 29.49 267.75 25.07C263.73 21.55 262.04 20.78 259.13 21.06C256.22 21.34 254.67 20.64 251.08 17.55C247.29 14.45 245.75 13.85 241.96 13.99C238.81 14.09 236.4 14.85 234.19 16.43C231.01 18.71 230.97 18.72 229.48 16.91C228.65 15.93 225.11 14.3 221.62 13.3L215.21 11.55L204.22 15.78C194.02 13.02 191.53 12.9 186.38 13.61C182.83 14.09 177.96 14.23 175.59 13.92C172.7 13.54 169.57 13.78 166.15 14.61Z" fill="$[hairColor]" stroke="#000" stroke-width="5"/>
</svg>