<svg xmlns="http://www.w3.org/2000/svg" viewBox="0 0 400 600" width="400" height="600">
	<path id="afro-big" d="M166.11 14.5C163.3 15.16 159.96 16.14 158.7 16.67C157.44 17.21 153.54 18.29 150.05 19.08C146.57 19.87 142.52 21.48 141.03 22.66C139.55 23.84 136.32 25.31 133.86 25.91C131.41 26.52 125.8 28.29 121.42 29.85C117.1 31.43 112.47 33.87 111.08 35.27C109.72 36.67 107.02 38.57 105.08 39.47C103.15 40.38 100.59 40.96 99.37 40.77C98.16 40.57 95.19 41.4 92.79 42.61C90.41 43.83 87.39 45.23 86.05 45.72C84.72 46.21 82.24 47.72 80.55 49.09C78.87 50.46 77.06 51.64 76.51 51.71C75.97 51.77 74.3 52.99 72.81 54.43C71.34 55.87 69.92 57.08 69.65 57.11C69.38 57.13 67.39 58.7 65.24 60.6C63.1 62.52 60.61 65.32 59.69 66.82C58.78 68.33 57.93 70.8 57.81 72.3C57.61 74.88 57.3 75.06 52.56 75.46C48.38 75.84 47.15 76.41 44.82 79.06C42.95 81.2 42.11 83.29 42.22 85.47C42.32 87.25 42.19 91.7 41.93 95.36C41.53 101.12 40.69 103.32 35.67 111.58C32.4 116.89 28.21 123.39 26.41 126.01C24.01 129.45 23.02 132.08 22.91 135.33C22.83 137.82 22.75 142.74 22.75 146.27C22.73 149.78 22.77 153.27 22.84 154.06C22.9 154.85 21.29 157.53 19.22 160.01C16.06 163.7 15.45 165.16 15.86 168.16C16.13 170.16 16.56 172.37 16.8 173.09C17.05 173.81 16.01 175.84 14.48 177.59C12.94 179.33 11.41 181.59 11.11 182.62C10.8 183.64 10.67 187.81 10.82 191.84C10.97 195.8 11.51 200.64 12 202.63C12.77 205.64 12.19 207.24 8.32 212.69C5.77 216.15 3.59 220.12 3.48 221.56C3.37 223 4.45 225.86 5.89 227.94C8.27 231.34 8.34 231.94 6.8 234.75C5.88 236.41 5.54 238.87 6.02 240.22C6.52 241.56 7.91 243.49 9.12 244.51C11.05 246.14 11.1 246.68 9.58 249.27C8.67 250.84 8.25 252.85 8.63 253.75C9.02 254.65 10.18 256.1 11.2 256.97C12.22 257.84 13.92 258.92 15 259.38C16.26 259.93 17.76 261.88 19.34 265C20.69 267.63 21.65 270.62 21.58 271.94C21.52 273.54 21.93 274.55 22.91 275.24C23.68 275.8 24.11 276.57 23.87 276.97C23.64 277.37 23.89 279.16 24.42 280.9C25.03 282.84 25.94 284.37 26.82 285C27.62 285.57 29.09 288 30.27 290.61C31.76 293.92 32.69 295.31 34.26 296.72C35.34 297.7 36.66 299.24 37.22 300.14C37.76 301.03 38.7 301.98 39.32 302.28C39.93 302.58 41 302.81 41.7 302.81C42.41 302.8 44.09 302.4 45.48 301.9C46.91 301.41 48.41 301 48.77 301C49.13 301 50.1 300.65 50.94 300.22C51.79 299.79 52.48 299.18 52.46 298.86C52.43 298.55 53.62 297.61 55.15 296.77C56.71 295.91 58.18 294.91 58.38 294.55C58.59 294.2 59.16 293.92 59.67 293.93C60.17 293.94 62.03 293.1 63.84 292.04C65.68 290.96 67.41 289.54 67.66 288.92C67.9 288.28 68.56 287.67 69.12 287.56C69.67 287.46 70.78 287.03 71.57 286.6C72.44 286.12 73.29 284.77 73.68 283.18C74.02 281.68 75.02 279.54 75.9 278.44C76.78 277.31 77.35 276.09 77.16 275.73C76.97 275.37 78.01 274.05 79.47 272.78C81.61 270.88 82.04 270.06 81.59 268.7C81.28 267.75 81.02 266.57 81.03 266.09C81.04 265.6 81.23 264.25 81.45 263.09C81.66 261.91 82.04 259.66 82.28 258.09C82.52 256.44 83.57 254.37 84.72 253.31C85.87 252.23 86.67 250.54 86.59 249.37C86.51 248.23 85.73 246.14 84.84 244.71C83.94 243.28 83.16 241.69 83.12 241.19C83.08 240.69 83.99 239.26 85.12 238C86.63 236.3 87.07 234.82 86.77 232.46C86.5 230.45 86.83 228.73 87.65 227.96C88.37 227.28 88.81 225.74 88.63 224.54C88.45 223.34 87.8 221.74 87.2 220.99C86.44 220.05 86.41 218.34 87.1 215.44C87.63 213.11 89.15 209.48 90.47 207.4C92.53 204.06 93.18 203.61 95.46 203.96C96.88 204.18 98.27 204.47 98.54 204.6C98.81 204.73 100.19 204.38 101.59 203.82C102.99 203.27 104.9 202.6 105.84 202.33C106.78 202.06 108.86 201.34 110.46 200.72C112.05 200.1 114.24 199.06 115.33 198.4C117.03 197.37 117.78 197.44 120.53 198.88C122.49 199.92 124.46 200.35 125.7 200C126.8 199.7 130.16 199.95 133.14 200.57C137.81 201.56 138.94 202.22 142.35 205.88C145.05 208.84 147.05 210.26 149.39 210.88C151.73 211.51 153.18 211.49 154.63 210.81C155.73 210.28 157.5 208.93 158.57 207.79C160 206.26 160.87 205.91 161.83 206.47C162.56 206.89 164.47 207.48 166.08 207.78C167.68 208.08 169.32 208.57 169.72 208.87C170.12 209.18 171.9 209.68 173.67 210C175.44 210.32 177.99 210.94 179.34 211.38C181.09 211.94 182.61 211.85 184.61 211.06C186.16 210.45 188.54 209.74 189.89 209.47C191.8 209.09 192.65 209.36 193.7 210.69C194.43 211.62 196.27 212.6 197.78 212.87C199.66 213.2 201.27 212.93 202.85 212.02C204.13 211.29 205.79 209.58 206.54 208.22C207.41 206.64 208.48 205.74 209.49 205.74C210.37 205.74 211.18 206.01 211.31 206.35C211.43 206.69 212.59 207.19 213.88 207.46C215.36 207.77 217.63 207.38 220.07 206.41C222.2 205.56 224.36 204.87 224.85 204.87C225.35 204.88 227.02 203.59 228.57 202C231.07 199.47 231.67 199.2 233.19 199.91C234.16 200.36 235.79 200.63 236.82 200.5C237.86 200.38 240.35 201.25 242.36 202.43C244.38 203.6 246.88 204.52 247.93 204.5C248.98 204.47 250.67 204.01 251.7 203.47C252.73 202.92 254.87 201.39 256.47 200.06C258.1 198.69 259.81 197.84 260.31 198.13C260.81 198.42 264.09 198.66 267.64 198.65C272.83 198.6 274.78 198.25 277 196.95C279.39 195.55 280.14 195.44 281.78 196.21C282.85 196.71 285.02 197.46 286.6 197.87C288.18 198.28 290.25 198.73 291.19 198.87C292.13 199.01 294.03 199.42 295.43 199.77C296.83 200.11 298.21 200.27 298.49 200.12C298.77 199.97 300.19 199.52 301.64 199.13C303.96 198.5 304.61 198.84 306.6 201.68C307.88 203.47 309.31 206.69 309.78 208.84C310.39 211.51 310.3 213.14 309.48 214.14C308.83 214.93 308.11 216.55 307.87 217.72C307.63 218.9 308.02 220.32 308.74 220.9C309.55 221.55 309.81 223.17 309.44 225.17C309.01 227.5 309.4 228.91 310.87 230.42C311.98 231.55 312.84 232.89 312.78 233.39C312.71 233.89 311.82 235.56 310.8 237.09C309.8 238.61 308.86 240.79 308.71 241.95C308.55 243.15 309.28 244.8 310.42 245.81C311.54 246.81 312.51 248.88 312.65 250.58C312.8 252.22 313.05 254.57 313.19 255.81C313.34 257.05 313.45 258.48 313.43 259.01C313.41 259.53 313.07 260.82 312.68 261.87C312.13 263.38 312.53 264.26 314.64 266.23C316.1 267.58 317.12 269.02 316.89 269.43C316.67 269.84 317.21 271.2 318.08 272.44C318.95 273.67 319.9 276.11 320.22 277.84C320.59 279.7 321.45 281.27 322.35 281.82C323.17 282.31 324.31 282.81 324.89 282.92C325.46 283.04 326.14 283.76 326.4 284.52C326.66 285.28 328.48 286.98 330.4 288.29C332.3 289.58 334.24 290.61 334.75 290.6C335.27 290.59 335.87 290.94 336.1 291.38C336.32 291.82 337.88 293.08 339.52 294.17C341.11 295.24 342.38 296.44 342.39 296.84C342.4 297.24 343.16 298.03 344.07 298.59C344.96 299.15 345.95 299.61 346.29 299.61C346.63 299.61 348.12 300.16 349.56 300.82C350.95 301.48 352.6 302.03 353.28 302.05C353.95 302.07 354.96 301.79 355.53 301.43C356.12 301.06 357.03 299.86 357.56 298.74C358.15 297.59 359.55 295.65 360.71 294.42C362.45 292.66 363.55 290.88 365.49 286.67C367.06 283.33 368.95 280.23 369.89 279.5C370.93 278.69 372.11 276.73 373 274.26C373.79 272.02 374.26 269.74 374.04 269.24C373.82 268.73 374.37 267.74 375.28 267.02C376.44 266.11 376.99 264.83 377.06 262.81C377.09 261.15 378.38 257.36 380.05 254.01C381.99 250.04 383.75 247.51 385.19 246.73C386.42 246.07 388.38 244.57 389.55 243.4C390.72 242.22 392.09 240.13 392.58 238.76C393.07 237.38 392.54 234.93 391.4 233.33C389.46 230.64 389.49 230.18 391.84 227.66C393.25 226.14 394.75 223.59 395.17 222.01C395.58 220.41 395.02 217.62 393.93 215.81C392.1 212.79 392.15 212.07 394.49 207.61C395.87 204.87 396.8 201.3 396.57 199.65C396.34 198 393.77 193.99 390.9 190.72C386.61 185.7 385.94 184.09 386.52 180.59C386.89 178.29 387.1 172.89 387 168.57C386.88 164.2 386.49 159.8 386.14 158.82C385.79 157.84 384.22 155.98 382.66 154.69C381.13 153.4 380.06 151.67 380.25 150.84C380.45 150.01 380.76 147.56 380.93 145.39C381.2 142.01 380.58 140.89 376.79 137.69C374.41 135.6 372.6 133.2 372.72 132.36C372.84 131.52 372.46 129.93 371.89 128.82C371.32 127.71 370.88 124.56 370.9 121.8C370.93 118.47 370.26 115.9 368.91 114.17C367.77 112.68 366.95 109.77 367 107.45C367.05 105.19 366.41 102.44 365.58 101.32C364.76 100.21 363.09 98.91 361.86 98.45C360.63 97.99 359.57 96.49 359.51 95.13C359.45 93.76 358.54 91.7 357.49 90.55C356.45 89.39 354.53 88.64 353.21 88.89C351.89 89.13 350.5 88.76 350.12 88.07C349.75 87.38 349.45 85.39 349.47 83.65C349.48 81.9 348.25 78.5 346.73 76.09C345.21 73.66 342.77 69.49 341.31 66.83C339.84 64.16 337.89 61.78 336.99 61.54C336.09 61.3 334.18 59.11 332.74 56.66C330.95 53.68 328.31 51.42 324.69 49.8C321.68 48.45 317.56 47.07 315.57 46.72C313.55 46.38 310.25 45.68 308.23 45.17C306.19 44.66 303.6 43.08 302.48 41.67C301.34 40.27 299.83 39.14 299.14 39.17C298.46 39.19 296.7 37.3 295.2 34.97C293.67 32.66 291.18 30.21 289.69 29.51C288.18 28.81 283.8 28.41 279.85 28.6C272.72 28.94 272.55 28.88 267.78 24.6C263.75 21.2 262.05 20.45 259.14 20.72C256.22 20.99 254.67 20.32 251.08 17.33C247.29 14.34 245.75 13.77 241.96 13.9C238.8 14 236.39 14.73 234.18 16.25C230.98 18.45 230.94 18.46 229.46 16.72C228.63 15.77 225.1 14.2 221.61 13.24L215.21 11.55L204.19 15.63C194.01 12.97 191.52 12.85 186.36 13.53C182.8 14 177.93 14.13 175.56 13.83C172.67 13.47 169.54 13.7 166.11 14.5Z" fill="$[hairColor]" stroke="#000" stroke-width="4"/>
</svg>