<svg xmlns="http://www.w3.org/2000/svg" viewBox="0 0 400 600" width="400" height="600">
	<path id="afro-med" d="M168.51 52.7C166.06 53.4 163.17 54.42 162.08 54.98C160.99 55.54 157.62 56.65 154.61 57.44C151.61 58.23 148.13 59.84 146.87 61.02C145.62 62.19 142.86 63.61 140.75 64.17C138.65 64.72 133.85 66.35 130.12 67.76C126.43 69.17 122.48 71.34 121.31 72.6C120.15 73.86 117.84 75.5 116.18 76.26C114.54 77.02 112.36 77.45 111.32 77.23C110.29 77.01 107.76 77.64 105.72 78.62C103.69 79.6 101.12 80.71 99.99 81.07C98.86 81.44 96.75 82.64 95.3 83.74C93.87 84.84 92.33 85.75 91.87 85.78C91.41 85.81 89.99 86.76 88.72 87.89C87.46 89.03 86.25 89.96 86.03 89.97C85.81 89.97 84.11 91.17 82.28 92.62C80.46 94.07 78.33 96.21 77.52 97.38C76.72 98.55 75.94 100.48 75.78 101.68C75.5 103.74 75.24 103.86 71.4 103.87C68.03 103.89 67.02 104.26 65.06 106.21C63.5 107.77 62.75 109.36 62.74 111.09C62.74 112.49 62.41 115.96 62.01 118.78C61.35 123.21 60.57 124.84 56.26 130.88C53.49 134.75 50.02 139.5 48.55 141.42C46.63 143.93 45.76 145.91 45.47 148.41C45.25 150.33 44.86 154.13 44.6 156.86C44.34 159.57 44.11 162.29 44.1 162.9C44.08 163.52 42.79 165.56 41.21 167.44C38.84 170.26 38.33 171.4 38.38 173.79C38.41 175.38 38.52 177.15 38.63 177.73C38.73 178.31 37.9 179.91 36.77 181.3C35.63 182.68 34.47 184.5 34.2 185.33C33.92 186.16 33.5 189.57 33.27 192.88C33.04 196.17 32.97 200.21 33.11 201.87C33.33 204.4 32.82 205.77 29.83 210.53C27.86 213.6 26.05 217.16 25.83 218.45C25.6 219.74 25.98 222.26 26.67 224.08C27.84 227.07 27.82 227.61 26.46 230.26C25.64 231.84 25.09 234.15 25.24 235.39C25.39 236.63 26.08 238.38 26.77 239.28C27.9 240.73 27.86 241.24 26.43 243.82C25.55 245.41 24.94 247.41 25.08 248.28C25.21 249.14 25.82 250.5 26.44 251.3C27.05 252.1 28.16 253.07 28.9 253.46C29.77 253.93 30.64 255.8 31.43 258.88C32.13 261.52 32.49 264.61 32.24 266.03C31.95 267.75 32.15 268.81 32.89 269.5C33.47 270.05 33.73 270.88 33.47 271.34C33.21 271.8 33.17 273.77 33.39 275.7C33.66 277.86 34.29 279.57 35.04 280.25C35.74 280.88 36.9 283.67 37.82 286.8C39.12 290.88 40.05 292.65 41.78 294.46C43.02 295.75 44.64 297.86 45.38 299.14C46.13 300.41 47.43 301.82 48.26 302.28C49.1 302.75 50.51 303.13 51.4 303.14C52.29 303.16 54.25 302.57 55.77 301.83C57.3 301.07 58.91 300.45 59.33 300.46C59.74 300.46 60.72 299.93 61.51 299.27C62.3 298.61 62.82 297.67 62.67 297.2C62.53 296.72 63.47 295.32 64.8 294.07C66.14 292.8 67.31 291.34 67.4 290.84C67.49 290.34 67.98 289.92 68.5 289.93C69.01 289.93 70.6 288.72 72.05 287.22C73.51 285.7 74.75 283.77 74.8 282.94C74.84 282.11 75.3 281.31 75.8 281.16C76.3 281 77.23 280.41 77.87 279.84C78.56 279.21 78.99 277.5 78.95 275.55C78.92 273.76 79.37 271.22 79.96 269.92C80.56 268.61 80.85 267.22 80.61 266.83C80.37 266.44 81.09 264.95 82.21 263.5C83.85 261.39 84.12 260.5 83.53 259.1C83.13 258.13 82.76 256.93 82.72 256.43C82.67 255.94 82.7 254.57 82.77 253.39C82.85 252.21 82.99 249.99 83.09 248.46C83.19 246.87 83.98 244.86 84.92 243.82C85.87 242.76 86.49 241.17 86.37 240.09C86.25 239.06 85.51 237.19 84.72 235.94C83.92 234.69 83.24 233.3 83.2 232.87C83.16 232.43 83.92 231.14 84.88 230C86.17 228.47 86.55 227.18 86.31 225.18C86.11 223.47 86.42 222.02 87.13 221.35C87.76 220.76 88.18 219.47 88.06 218.48C87.93 217.49 87.44 216.19 86.96 215.59C86.36 214.83 86.41 213.44 87.11 211.08C87.67 209.19 89.13 206.27 90.36 204.6C92.3 201.95 92.88 201.59 94.8 201.83C96.01 201.99 97.19 202.19 97.42 202.29C97.65 202.38 98.86 202.09 100.13 201.64C101.39 201.19 103.11 200.65 103.96 200.43C104.81 200.21 106.71 199.63 108.19 199.13C109.67 198.64 111.73 197.82 112.77 197.3C114.39 196.5 115.08 196.54 117.56 197.6C119.35 198.37 121.19 198.68 122.4 198.4C123.47 198.16 126.69 198.31 129.57 198.74C134.15 199.44 135.25 199.93 138.59 202.69C141.28 204.93 143.32 206 145.74 206.46C148.18 206.92 149.71 206.88 151.24 206.33C152.41 205.92 154.3 204.85 155.44 203.96C156.97 202.77 157.9 202.49 158.94 202.91C159.71 203.22 161.77 203.66 163.52 203.87C165.26 204.09 167.05 204.45 167.49 204.68C167.93 204.91 169.89 205.29 171.85 205.52C173.8 205.75 176.64 206.21 178.17 206.54C180.13 206.96 181.82 206.88 184.05 206.26C185.77 205.78 188.42 205.21 189.93 204.99C192.07 204.69 193.03 204.9 194.26 205.92C195.13 206.65 197.24 207.41 198.97 207.62C201.1 207.87 202.91 207.66 204.66 206.94C206.06 206.37 207.85 205.03 208.62 203.97C209.52 202.74 210.66 202.04 211.8 202.04C212.77 202.04 213.7 202.25 213.86 202.51C214.02 202.78 215.35 203.17 216.8 203.38C218.47 203.62 220.97 203.32 223.61 202.56C225.9 201.9 228.23 201.37 228.77 201.37C229.31 201.38 231.03 200.38 232.6 199.15C235.09 197.2 235.71 196.99 237.41 197.54C238.48 197.89 240.25 198.1 241.34 198.01C242.43 197.92 245.14 198.6 247.37 199.53C249.59 200.46 252.29 201.2 253.37 201.19C254.45 201.18 256.15 200.82 257.15 200.41C258.15 199.99 260.17 198.8 261.65 197.77C263.14 196.72 264.75 196.06 265.29 196.29C265.81 196.52 269.07 196.74 272.53 196.76C277.5 196.78 279.31 196.52 281.25 195.52C283.32 194.45 284 194.37 285.61 195C286.65 195.41 288.71 196.02 290.19 196.37C291.67 196.72 293.57 197.1 294.42 197.23C295.27 197.36 296.99 197.71 298.26 198.01C299.52 198.31 300.73 198.46 300.96 198.35C301.18 198.23 302.35 197.9 303.55 197.61C305.45 197.14 306.04 197.42 308.02 199.76C309.28 201.23 310.79 203.89 311.38 205.66C312.13 207.88 312.2 209.24 311.62 210.05C311.15 210.7 310.69 212.03 310.58 213.02C310.48 214 310.91 215.22 311.55 215.73C312.26 216.3 312.6 217.7 312.42 219.41C312.22 221.42 312.61 222.65 313.91 224.02C314.89 225.05 315.66 226.26 315.63 226.7C315.59 227.14 314.93 228.61 314.15 229.95C313.36 231.29 312.64 233.25 312.53 234.31C312.42 235.4 313.05 236.96 314 237.94C314.94 238.92 315.74 240.91 315.84 242.53C315.94 244.11 316.08 246.4 316.15 247.63C316.23 248.85 316.25 250.28 316.2 250.81C316.16 251.33 315.78 252.63 315.38 253.68C314.78 255.21 315.04 256.13 316.67 258.27C317.78 259.74 318.48 261.31 318.24 261.75C318 262.18 318.28 263.68 318.86 265.07C319.43 266.45 319.85 269.23 319.8 271.22C319.73 273.4 320.13 275.29 320.81 275.97C321.43 276.59 322.35 277.21 322.85 277.36C323.34 277.52 323.78 278.41 323.81 279.36C323.84 280.3 325.04 282.48 326.45 284.19C327.84 285.89 329.38 287.26 329.89 287.25C330.4 287.23 330.87 287.7 330.95 288.29C331.02 288.88 332.13 290.59 333.4 292.09C334.66 293.57 335.54 295.25 335.38 295.83C335.22 296.41 335.72 297.55 336.48 298.35C337.23 299.16 338.16 299.8 338.54 299.8C338.93 299.79 340.44 300.55 341.89 301.49C343.32 302.41 345.18 303.15 346.04 303.14C346.9 303.13 348.27 302.64 349.09 302.06C349.91 301.48 351.23 299.69 352.01 298.08C352.78 296.47 354.43 293.8 355.68 292.16C357.42 289.86 358.4 287.62 359.82 282.48C360.84 278.57 362.07 275.06 362.76 274.25C363.51 273.37 364.18 271.22 364.52 268.54C364.79 266.16 364.81 263.77 364.57 263.23C364.33 262.7 364.61 261.68 365.19 260.96C365.92 260.05 366.14 258.75 365.89 256.71C365.68 255.03 366.08 251.3 366.81 248.08C367.61 244.33 368.46 241.99 369.32 241.29C370.04 240.71 371.12 239.38 371.72 238.32C372.32 237.26 372.93 235.38 373.07 234.14C373.2 232.9 372.58 230.67 371.69 229.19C370.18 226.72 370.16 226.31 371.36 224.16C372.07 222.86 372.74 220.67 372.84 219.3C372.94 217.93 372.34 215.51 371.52 213.91C370.14 211.28 370.11 210.67 371.18 206.97C371.81 204.72 372.1 201.77 371.85 200.39C371.6 199.02 369.75 195.64 367.76 192.89C364.73 188.69 364.19 187.38 364.34 184.58C364.43 182.74 364.24 178.45 363.92 175.02C363.6 171.58 363.1 168.12 362.82 167.34C362.53 166.56 361.37 165.08 360.25 164.05C359.13 163.01 358.29 161.64 358.38 161C358.47 160.36 358.54 158.47 358.54 156.79C358.55 154.19 358.06 153.31 355.18 150.78C353.33 149.15 351.86 147.28 351.9 146.64C351.94 146 351.56 144.78 351.07 143.92C350.58 143.06 350.06 140.65 349.91 138.54C349.74 136 349.08 134.02 347.94 132.7C346.97 131.55 346.16 129.33 346.07 127.56C345.99 125.83 345.34 123.72 344.62 122.87C343.9 122.01 342.48 121.02 341.45 120.67C340.42 120.32 339.47 119.17 339.35 118.13C339.22 117.08 338.36 115.51 337.43 114.63C336.5 113.74 334.85 113.18 333.76 113.37C332.66 113.57 331.47 113.29 331.11 112.77C330.75 112.24 330.39 110.71 330.3 109.37C330.22 108.02 328.99 105.41 327.57 103.55C326.14 101.68 323.85 98.46 322.47 96.39C321.08 94.31 319.3 92.45 318.5 92.28C317.7 92.1 315.95 90.39 314.62 88.46C312.98 86.09 310.6 84.31 307.36 83.05C304.66 82 300.98 80.94 299.2 80.7C297.4 80.45 294.45 79.93 292.65 79.55C290.83 79.17 288.52 77.91 287.52 76.75C286.52 75.59 285.19 74.66 284.57 74.7C283.96 74.73 282.42 73.15 281.14 71.17C279.85 69.2 277.72 67.08 276.42 66.49C275.11 65.89 271.22 65.59 267.7 65.83C261.36 66.24 261.21 66.19 257.19 62.36C253.83 59.22 252.37 58.53 249.78 58.81C247.18 59.1 245.85 58.47 242.89 55.59C239.79 52.62 238.47 52.04 235.1 52.18C232.29 52.3 230.11 53.05 228.05 54.61C225.09 56.84 225.06 56.84 223.86 55.1C223.19 54.14 220.19 52.53 217.17 51.53L211.64 49.72L201.76 54.05C192.93 51.19 190.75 51.05 186.22 51.77C183.09 52.26 178.83 52.38 176.76 52.04C174.23 51.63 171.49 51.85 168.51 52.7Z" fill="$[hairColor]" stroke="#000" stroke-width="5"/>
</svg>