<svg xmlns="http://www.w3.org/2000/svg" viewBox="0 0 400 600" width="400" height="600">
	<path id="balding" d="M303.61 195.9C303.61 196.39 303.81 196.9 304.06 197.04C304.3 197.18 304.41 198.18 304.3 199.27C304.17 200.49 304.4 201.45 304.89 201.75C305.37 202.05 305.04 202.11 304.06 201.9C303.16 201.71 302.29 201.82 302.12 202.15C301.96 202.48 301.96 203.28 302.12 203.93C302.29 204.59 303.69 205.89 305.25 206.82C308.01 208.46 308.07 208.57 307.9 211.13C307.78 212.78 308.12 214.59 308.79 215.98C309.38 217.2 309.73 218.34 309.56 218.51C309.4 218.68 308.66 218.68 307.93 218.52C306.75 218.26 306.59 218.46 306.58 220.16C306.57 221.63 307.14 222.66 308.97 224.47C310.29 225.78 311.36 227.05 311.36 227.3C311.35 227.55 310.81 227.88 310.16 228.04C309.26 228.27 309.05 228.67 309.31 229.68C309.5 230.42 310.57 231.89 311.69 232.96C312.81 234.02 313.4 234.92 312.99 234.96C312.58 234.99 311.57 234.96 310.75 234.88C309.38 234.75 309.3 234.87 309.76 236.45C310.03 237.39 310.62 238.57 311.08 239.06C311.53 239.55 312.09 241.29 312.31 242.93C312.53 244.56 313.08 246.44 313.53 247.09C313.97 247.75 314.33 248.82 314.32 249.48C314.31 250.13 314.69 251.2 315.15 251.86C315.69 252.61 315.88 253.81 315.68 255.13C315.5 256.28 315.05 257.56 314.69 257.99C314.29 258.45 314.26 258.75 314.62 258.74C314.95 258.73 314.87 258.92 314.45 259.16C313.87 259.49 313.8 260.52 314.15 263.42C314.58 266.88 314.84 267.42 316.88 269.07C318.68 270.54 318.95 271 318.22 271.35C317.67 271.62 317.42 272.27 317.6 272.99C317.83 273.92 317.69 274.08 316.93 273.73C316.06 273.34 316 273.68 316.39 276.86C316.63 278.82 317.19 280.7 317.64 281.03C318.08 281.35 318.46 281.96 318.47 282.37C318.48 282.78 319.23 283.78 320.13 284.59C321.03 285.41 322.44 286.36 323.26 286.7C324.43 287.18 324.71 287.68 324.6 289.08C324.49 290.33 324.76 290.95 325.49 291.19C326.06 291.38 327.33 291.9 328.32 292.34C329.46 292.86 329.73 293.17 329.06 293.19C328.3 293.22 328.06 293.66 328.17 294.84C328.3 296.26 328.75 296.59 331.89 297.54C333.85 298.14 337.2 299.18 339.33 299.84C341.46 300.51 345.48 301.16 348.26 301.29C351.04 301.42 354.06 301.67 354.96 301.84C356.16 302.08 356.7 301.88 357.01 301.12C357.23 300.55 357.7 299.79 358.05 299.43C358.39 299.08 359.06 298.95 359.53 299.14C360.22 299.42 360.32 298.89 360.05 296.21C359.87 294.41 359.49 292.46 359.2 291.88C358.75 290.97 358.87 290.89 360.12 291.28C361.55 291.74 361.55 291.73 361.15 288.47C360.93 286.67 360.62 284.06 360.46 282.66C360.25 280.88 360.38 280.14 360.91 280.14C361.47 280.15 361.54 279.37 361.2 277.02C360.95 275.29 360.31 273.21 359.76 272.39C359.09 271.38 359 270.86 359.47 270.76C359.87 270.67 360.17 269.48 360.17 267.93C360.17 266.46 359.9 265.12 359.57 264.95C359.24 264.79 358.97 263.99 358.97 263.17C358.97 262.35 358.51 260.95 357.93 260.06C357.36 259.17 356.67 257.09 356.4 255.44C356.13 253.8 355.93 251.31 355.95 249.92C355.98 248.3 355.61 246.91 354.91 246.05C354.06 245.01 353.9 244.09 354.17 241.88C354.42 239.82 354.31 239.04 353.77 239.05C353.36 239.05 353.02 238.66 353.02 238.16C353.02 237.67 353.42 237.27 353.91 237.27C354.52 237.27 354.72 236.85 354.54 235.93C354.39 235.2 353.92 233.01 353.5 231.07C353.07 229.14 352.39 227.46 351.98 227.35C351.51 227.23 351.24 226.05 351.24 224.17C351.24 222.54 350.97 221.2 350.64 221.2C350.31 221.2 350.05 220.39 350.05 219.41C350.05 218.14 349.62 217.37 348.56 216.73C347.6 216.16 347.07 215.3 347.07 214.35C347.07 213.46 346.59 212.63 345.88 212.27C345.08 211.87 344.69 211.08 344.69 209.89C344.69 208.56 344.22 207.79 342.9 206.91C341.91 206.25 341.12 205.19 341.12 204.53C341.12 203.8 340.42 202.99 339.33 202.45C338.24 201.9 337.54 201.09 337.54 200.36C337.54 199.67 337.05 199.05 336.35 198.87C335.7 198.71 335.16 198.31 335.16 197.98C335.16 197.65 334.56 197.39 333.82 197.4C333.09 197.4 332.22 197.17 331.89 196.88C331.56 196.6 329.69 196.06 327.72 195.68C325.76 195.3 323.41 195 322.51 195C321.61 195 320.81 195.29 320.73 195.63C320.62 196.08 318.72 196.07 314.33 195.63C310.89 195.28 307.07 195 305.84 195C304.26 195 303.61 195.26 303.61 195.9ZM96.39 195.9C96.39 196.39 96.19 196.9 95.94 197.04C95.7 197.18 95.59 198.18 95.7 199.27C95.83 200.49 95.6 201.45 95.11 201.75C94.63 202.05 94.96 202.11 95.94 201.9C96.84 201.71 97.71 201.82 97.88 202.15C98.04 202.48 98.04 203.28 97.88 203.93C97.71 204.59 96.31 205.89 94.75 206.82C91.99 208.46 91.93 208.57 92.1 211.13C92.22 212.78 91.88 214.59 91.21 215.98C90.62 217.2 90.27 218.34 90.44 218.51C90.6 218.68 91.34 218.68 92.07 218.52C93.25 218.26 93.41 218.46 93.42 220.16C93.43 221.63 92.86 222.66 91.03 224.47C89.71 225.78 88.64 227.05 88.64 227.3C88.65 227.55 89.19 227.88 89.84 228.04C90.74 228.27 90.95 228.67 90.69 229.68C90.5 230.42 89.43 231.89 88.31 232.96C87.19 234.02 86.6 234.92 87.01 234.96C87.42 234.99 88.43 234.96 89.25 234.88C90.62 234.75 90.7 234.87 90.24 236.45C89.97 237.39 89.38 238.57 88.92 239.06C88.47 239.55 87.91 241.29 87.69 242.93C87.47 244.56 86.92 246.44 86.47 247.09C86.03 247.75 85.67 248.82 85.68 249.48C85.69 250.13 85.31 251.2 84.85 251.86C84.31 252.61 84.12 253.81 84.32 255.13C84.5 256.28 84.95 257.56 85.31 257.99C85.71 258.45 85.74 258.75 85.38 258.74C85.05 258.73 85.13 258.92 85.55 259.16C86.13 259.49 86.2 260.52 85.85 263.42C85.42 266.88 85.16 267.42 83.12 269.07C81.32 270.54 81.05 271 81.78 271.35C82.33 271.62 82.58 272.27 82.4 272.99C82.17 273.92 82.31 274.08 83.07 273.73C83.94 273.34 84 273.68 83.61 276.86C83.37 278.82 82.81 280.7 82.36 281.03C81.92 281.35 81.54 281.96 81.53 282.37C81.52 282.78 80.77 283.78 79.87 284.59C78.97 285.41 77.56 286.36 76.74 286.7C75.57 287.18 75.29 287.68 75.4 289.08C75.51 290.33 75.24 290.95 74.51 291.19C73.94 291.38 72.67 291.9 71.68 292.34C70.54 292.86 70.27 293.17 70.94 293.19C71.7 293.22 71.94 293.66 71.83 294.84C71.7 296.26 71.25 296.59 68.11 297.54C66.15 298.14 62.8 299.18 60.67 299.84C58.54 300.51 54.52 301.16 51.74 301.29C48.96 301.42 45.94 301.67 45.04 301.84C43.84 302.08 43.3 301.88 42.99 301.12C42.77 300.55 42.3 299.79 41.95 299.43C41.61 299.08 40.94 298.95 40.47 299.14C39.78 299.42 39.68 298.89 39.95 296.21C40.13 294.41 40.51 292.46 40.8 291.88C41.25 290.97 41.13 290.89 39.88 291.28C38.45 291.74 38.45 291.73 38.85 288.47C39.07 286.67 39.38 284.06 39.54 282.66C39.75 280.88 39.62 280.14 39.09 280.14C38.53 280.15 38.46 279.37 38.8 277.02C39.05 275.29 39.69 273.21 40.24 272.39C40.91 271.38 41 270.86 40.53 270.76C40.13 270.67 39.83 269.48 39.83 267.93C39.83 266.46 40.1 265.12 40.43 264.95C40.76 264.79 41.03 263.99 41.03 263.17C41.03 262.35 41.49 260.95 42.07 260.06C42.64 259.17 43.33 257.09 43.6 255.44C43.87 253.8 44.07 251.31 44.05 249.92C44.02 248.3 44.39 246.91 45.09 246.05C45.94 245.01 46.1 244.09 45.83 241.88C45.58 239.82 45.69 239.04 46.23 239.05C46.64 239.05 46.98 238.66 46.98 238.16C46.98 237.67 46.58 237.27 46.09 237.27C45.48 237.27 45.28 236.85 45.46 235.93C45.61 235.2 46.08 233.01 46.5 231.07C46.93 229.14 47.61 227.46 48.02 227.35C48.49 227.23 48.76 226.05 48.76 224.17C48.76 222.54 49.03 221.2 49.36 221.2C49.69 221.2 49.95 220.39 49.95 219.41C49.95 218.14 50.38 217.37 51.44 216.73C52.4 216.16 52.93 215.3 52.93 214.35C52.93 213.46 53.41 212.63 54.12 212.27C54.92 211.87 55.31 211.08 55.31 209.89C55.31 208.56 55.78 207.79 57.1 206.91C58.09 206.25 58.88 205.19 58.88 204.53C58.88 203.8 59.58 202.99 60.67 202.45C61.76 201.9 62.46 201.09 62.46 200.36C62.46 199.67 62.95 199.05 63.65 198.87C64.3 198.71 64.84 198.31 64.84 197.98C64.84 197.65 65.44 197.39 66.18 197.4C66.91 197.4 67.78 197.17 68.11 196.88C68.44 196.6 70.31 196.06 72.28 195.68C74.24 195.3 76.59 195 77.49 195C78.39 195 79.19 195.29 79.27 195.63C79.38 196.08 81.28 196.07 85.67 195.63C89.11 195.28 92.93 195 94.16 195C95.74 195 96.39 195.26 96.39 195.9Z" fill="$[hairColor]" stroke="#000" stroke-width="4"/>
</svg>
