<svg xmlns="http://www.w3.org/2000/svg" viewBox="0 0 400 600" width="400" height="600">
	<path id="curly-02" fill-rule="nonzero" d="M219.53 51.7C219.81 53.14 218.9 55.83 217.54 57.68C216.21 59.52 215.05 64.15 214.95 67.92C214.83 72.22 216.15 76.34 218.56 79.48C220.55 82.12 222.88 84.24 223.79 84.25C224.7 84.25 226.78 83.11 228.44 81.68C230.14 80.25 232.36 77.72 233.4 76.06C234.57 74.21 238.1 72.22 242.44 71.01C246.43 69.89 250.02 68.27 250.38 67.4C250.74 66.52 253.8 65.42 257.21 64.93C260.64 64.43 265.87 64.36 268.84 64.76C272.77 65.29 273.88 66.41 273.07 69.01C272.49 70.94 270.29 74.39 268.21 76.68C264.92 80.41 264.88 81.3 267.66 86.39C269.27 89.38 270.27 92.39 269.91 93.13C269.55 93.87 269.91 94.71 270.7 94.97C271.48 95.25 273.28 94.95 274.69 94.31C276.64 93.42 277.13 92.7 276.71 91.38C276.38 90.41 276.53 88.69 277.03 87.54C277.54 86.38 278.83 83.61 279.93 81.35C281.43 78.36 283.63 76.28 287.62 74.11C292.29 71.63 293.84 71.35 295.65 72.66C297.39 73.93 298.56 73.78 301.38 71.88C304.5 69.81 305.38 69.75 307.59 71.44C308.96 72.52 309.59 74.06 309.04 74.87C308.49 75.68 307.36 77.12 306.55 78.08C305.74 79.05 305.97 80.95 306.99 82.31C308.01 83.65 308.98 85.52 309.17 86.47C309.46 87.82 308.58 88.97 304.88 92.19C302.37 94.44 300.33 97.04 300.13 98.18C299.94 99.43 298.9 100.61 297.34 101.35C295.25 102.35 295.2 102.52 296.99 102.48C298.48 102.46 298.5 103.15 297.07 104.93C295.79 106.54 295.71 107.61 296.79 108.06C297.69 108.43 299.78 108.36 301.43 107.9C303.37 107.37 305.54 105.69 307.71 103.1C310.43 99.94 311.72 99.1 313.47 99.32C314.69 99.47 316.88 98.71 318.36 97.66C319.85 96.59 321.67 95.73 322.39 95.77C323.11 95.79 323.06 97.08 322.32 98.61C321.33 100.73 321.8 101.35 324.21 101.35C325.89 101.35 326.96 102.03 326.6 102.85C326.26 103.67 324.58 105.26 322.85 106.39C320.29 108.08 319.45 109.18 318.27 112.47C317.55 114.64 317.57 117.23 318.28 118.23C318.97 119.22 319.29 120.57 318.98 121.23C318.67 121.88 318.85 122.84 319.39 123.35C320.05 124 321.12 123.71 322.78 122.44C324.33 121.25 325.61 120.87 326.36 121.37C326.98 121.81 328.19 121.68 329.04 121.08C329.88 120.49 330.85 120.36 331.21 120.77C331.57 121.2 332.21 121.56 332.64 121.58C333.05 121.6 333.7 122.09 334.08 122.68C334.47 123.26 334.78 124.67 334.79 125.81C334.82 126.95 335.55 128.81 336.4 129.94C337.5 131.41 337.71 132.71 337.16 134.51C336.61 136.37 335.76 137.29 333.83 138.04C332.36 138.6 330.15 139.87 328.93 140.85C326.88 142.51 326.74 142.89 327.11 145.86C327.38 147.63 327.8 150.28 328.04 151.77C328.3 153.25 329.09 154.46 329.8 154.45C330.58 154.45 331.2 153.52 331.45 151.98C331.72 150.4 332.7 148.97 334.16 148.01C335.37 147.19 336.83 146.73 337.42 147C338 147.28 338.4 147.95 338.32 148.49C338.24 149.04 339.09 149.6 340.19 149.74C341.69 149.94 342.15 150.6 342.17 152.49C342.18 153.86 342.79 155.76 343.5 156.73C344.36 157.9 344.74 159.84 344.63 162.48C344.52 165.59 345 167.17 346.76 169.57C348.02 171.28 349.41 172.48 349.83 172.21C350.25 171.95 351.73 173.05 353.14 174.66C355.61 177.51 355.68 177.76 354.83 180.94C354.32 182.76 353.55 184.22 353.12 184.19C352.68 184.16 352.53 185.31 352.77 186.75C353.14 188.94 352.91 189.36 351.42 189.22C350.42 189.14 348.97 189.95 348.2 191.02C346.82 192.93 346.85 192.97 350.32 193.02C352.6 193.06 354.83 193.91 356.77 195.47C358.38 196.8 359.87 198.76 360.1 199.81C360.32 200.87 359.59 203.91 358.45 206.56C357.33 209.19 356.06 212.25 355.62 213.36C355.2 214.47 354.33 215.36 353.71 215.33C353.07 215.32 352.11 215.29 351.56 215.27C351.02 215.26 350.6 216.31 350.63 217.62C350.66 218.94 351.73 221.39 352.99 223.06C354.96 225.77 355.19 226.66 354.9 230.51C354.72 232.93 353.94 235.88 353.16 237.08L351.74 239.27C354.65 237.03 355.05 237.13 356.1 238.75C356.77 239.78 357.3 241.24 357.29 241.99C357.29 242.86 358.08 243.43 359.42 243.53C361.41 243.69 361.5 243.88 361.14 246.92C360.86 249.28 361.21 251.36 362.37 254.64C363.21 257.11 363.86 259.62 363.84 260.23C363.83 260.84 363.33 262.04 362.74 262.89C361.71 264.38 361.71 264.63 362.78 268.08C363.69 271.2 363.7 271.79 362.95 272.5C362.48 272.96 361.82 273.29 361.49 273.23C361.15 273.18 360.64 272.56 360.34 271.84C360.04 271.12 359.1 270.56 358.26 270.59C356.94 270.64 356.72 271.19 356.87 274.14C356.96 276.17 357.57 278.5 358.29 279.63C359.43 281.49 359.45 281.88 358.62 287.97C358.14 291.55 356.99 296.82 356.09 299.66C355.17 302.55 354.11 305.15 353.73 305.38C353.34 305.63 352.54 304.68 351.92 303.27C350.92 301.14 350.46 300.93 349.15 302.07C347.77 303.26 347.27 302.99 345.67 300.22C344.59 298.43 343.65 296.22 343.61 295.32C343.57 294.41 342.88 293.61 342.07 293.53C341.26 293.45 340.63 294.13 340.67 295.04C340.73 295.96 340.26 297.41 339.65 298.29C338.73 299.62 338.18 299.28 336.48 296.34L334.36 292.78C331.05 296.77 329.74 297.92 329.37 297.86C328.99 297.82 328.18 296.94 327.59 295.93C326.98 294.91 326.35 292.52 326.17 290.6C325.99 288.71 325.11 283.75 324.19 279.64C323.19 275.35 322.7 271.55 323.04 270.5C323.37 269.53 323.72 266.93 323.82 264.75C323.95 261.93 323.43 259.87 321.94 257.27C320.21 254.32 319.82 252.51 319.64 246.59C319.51 242.48 319.04 239.4 318.47 238.99C317.94 238.6 317.38 237.08 317.24 235.59C317.1 234.11 316.54 232.61 316.01 232.24C315.47 231.86 314.97 230.74 314.89 229.73C314.81 228.73 313.3 226.1 311.52 223.9C309.73 221.74 307.56 218.91 306.68 217.59C305.48 215.77 305.26 214.45 305.79 211.92C306.17 210.12 306.3 208.31 306.07 207.9C305.85 207.49 304.51 206.84 303.11 206.44C301.69 206.05 300.14 206.13 299.68 206.6C299.13 207.16 297.74 206.47 295.66 204.64C293.8 203.02 291.76 202.01 290.76 202.19C289.59 202.42 287.71 201.04 284.79 197.87C280.75 193.57 280.33 193.35 275.46 193.14C272.64 193.03 269.02 192.48 267.44 191.92C265.86 191.35 264.09 190.89 263.52 190.87C262.94 190.86 262.49 191.42 262.5 192.11C262.53 192.8 261.5 193.68 260.21 194.05C258.93 194.43 257.4 194.49 256.81 194.22C256.22 193.93 254.54 193.57 253.09 193.41C251.62 193.25 247.8 193 244.57 192.87C241.33 192.74 236.92 193.14 234.77 193.75C232.6 194.37 230.21 195.56 229.46 196.4C228.31 197.7 227.58 197.8 224.81 197.08C222.64 196.51 220.81 196.5 219.39 197.02C217.96 197.56 216.86 197.56 216.13 197C215.38 196.45 213.79 196.59 211.25 197.42C208.93 198.18 206.42 198.44 204.74 198.1C203.23 197.79 198.82 197.49 194.94 197.43C190.76 197.38 186.78 197.81 185.19 198.47C183.02 199.36 182.06 199.39 180.32 198.61C179.13 198.08 176.59 197.45 174.66 197.21C172.74 196.97 169.61 197.23 167.7 197.81C164.69 198.71 164.05 198.65 162.83 197.34C162.06 196.51 159.69 195.37 157.54 194.79C155.42 194.23 151.08 193.9 147.91 194.09C144.76 194.27 141.02 194.57 139.61 194.74C138.18 194.92 136.56 195.31 136 195.6C135.43 195.88 133.94 195.82 132.68 195.45C131.42 195.09 130.4 194.2 130.41 193.5C130.41 192.8 129.96 192.23 129.4 192.25C128.85 192.27 127.13 192.74 125.6 193.31C124.08 193.88 120.58 194.44 117.85 194.53C113.14 194.71 112.74 194.92 108.98 199.24C106.3 202.4 104.55 203.76 103.41 203.52C102.44 203.32 100.53 204.31 98.83 205.9C96.93 207.7 95.64 208.36 95.08 207.79C94.61 207.31 93.12 207.19 91.78 207.56C90.45 207.92 89.21 208.55 89.02 208.95C88.83 209.36 89.07 211.18 89.56 213C90.24 215.54 90.13 216.84 89.11 218.63C88.38 219.92 86.53 222.67 85 224.78C83.48 226.91 82.27 229.47 82.29 230.45C82.31 231.43 81.93 232.53 81.45 232.88C80.97 233.24 80.59 234.7 80.6 236.13C80.62 237.58 80.25 239.06 79.77 239.42C79.26 239.82 79.14 242.8 79.5 246.75C80.06 252.43 79.92 254.16 78.6 256.98C77.47 259.46 77.24 261.43 77.78 264.11C78.2 266.17 78.95 268.63 79.44 269.55C79.95 270.53 80.08 274.13 79.78 278.21C79.56 282.11 79.56 286.84 79.73 288.64C79.92 290.47 79.71 292.77 79.24 293.77C78.78 294.77 78.11 295.64 77.75 295.7C77.4 295.77 75.81 294.73 74.26 293.41L71.51 291.07C68.65 297.54 68.12 297.9 66.86 296.68C66.03 295.87 65.26 294.5 65.15 293.61C65.04 292.73 64.23 292.12 63.36 292.25C62.5 292.38 61.88 293.2 61.99 294.08C62.1 294.96 61.45 297.18 60.56 299.01C59.22 301.86 58.7 302.17 56.9 301.15C55.19 300.16 54.68 300.41 53.83 302.63C53.29 304.09 52.44 305.13 51.92 304.94C51.41 304.75 49.74 302.32 48.25 299.57C46.83 296.87 44.95 291.77 44.08 288.26C42.69 282.26 42.68 281.87 43.82 279.9C44.52 278.72 45.01 276.34 44.95 274.32C44.89 271.37 44.62 270.83 43.23 270.86C42.33 270.88 41.36 271.53 41.06 272.29C40.76 273.04 40.24 273.72 39.9 273.78C39.57 273.84 38.85 273.56 38.31 273.13C37.48 272.47 37.48 271.86 38.32 268.62C39.29 265.06 39.28 264.8 38.16 263.34C37.52 262.5 36.96 261.3 36.93 260.67C36.9 260.05 37.46 257.45 38.19 254.91C39.2 251.53 39.44 249.4 39.06 247C38.58 243.88 38.65 243.69 40.56 243.53C41.84 243.43 42.57 242.85 42.52 241.97C42.47 241.21 42.9 239.72 43.48 238.68C44.39 237.05 44.75 236.95 46.1 238.03L47.67 239.26C45.37 235.79 44.45 232.77 44.14 230.29C43.63 226.32 43.79 225.41 45.48 222.7C46.55 221.02 47.4 218.54 47.34 217.19C47.29 215.83 46.82 214.72 46.31 214.71C45.8 214.71 44.9 214.69 44.31 214.68C43.72 214.67 42.85 213.71 42.38 212.54C41.9 211.36 40.5 208.09 39.25 205.26C37.99 202.39 37.05 199.11 37.16 198.01C37.29 196.9 38.52 194.91 39.92 193.61C41.62 192.07 43.66 191.34 45.85 191.46C48.82 191.62 49.31 191.3 49.86 188.91C50.2 187.42 51.02 186.2 51.67 186.19C52.42 186.19 52.81 185.18 52.69 183.51C52.59 182.04 52.84 180.6 53.27 180.3C53.69 180.01 53.73 178.7 53.33 177.36C52.94 176.02 52.34 173.35 51.99 171.41C51.63 169.47 51.59 166.92 51.9 165.76C52.21 164.6 53.01 163.69 53.68 163.74C54.36 163.79 54.83 163.1 54.72 162.22C54.58 161.16 54.04 160.77 53.15 161.11C52.38 161.4 51.28 160.85 50.58 159.8C49.9 158.8 49.4 157.01 49.45 155.82C49.49 154.63 50.21 153.49 51.04 153.28C51.88 153.07 52.49 152.41 52.39 151.81C52.3 151.21 51.85 150.67 51.41 150.62C50.97 150.57 50.51 149.42 50.39 148.06C50.23 146.37 50.75 145.54 52.06 145.43C53.12 145.34 54.33 144.65 54.73 143.88C55.12 143.13 55.72 142.52 56.06 142.55C56.4 142.57 57.88 143.84 59.35 145.36C61.51 147.55 62.38 147.9 63.74 147.21C64.68 146.73 65.74 144.83 66.06 142.98C66.57 139.78 66.47 139.49 64.18 137.45C62.85 136.25 60.39 134.61 58.73 133.79C56.53 132.69 55.53 131.56 54.82 129.44C54.11 127.39 54.33 126.02 55.62 124.64C56.63 123.58 57.51 121.72 57.55 120.51C57.59 119.29 58.01 117.84 58.48 117.29C58.96 116.74 59.76 116.33 60.25 116.38C60.75 116.43 61.51 116.15 61.96 115.76C62.41 115.38 63.53 115.66 64.46 116.4C65.4 117.15 66.76 117.45 67.5 117.07C68.38 116.62 69.77 117.2 71.47 118.71C73.96 120.91 74.16 120.94 76.51 119.3C78.8 117.7 79.23 117.73 81.7 119.66C83.17 120.81 84.95 122.09 85.66 122.49C86.44 122.94 86.31 121.4 85.29 118.68C83.85 115.03 83.01 113.96 81.5 113.8C79.96 113.64 79.25 112.69 77.78 108.91C76.45 105.67 74.8 103.34 72.74 101.74C71.06 100.42 69.46 98.63 69.19 97.75C68.9 96.85 70.19 96.38 72.06 96.68C75.19 97.18 75.36 96.59 73.82 90.15C72.35 84.84 72.39 82.59 74.11 82.23C75.45 81.95 76.15 81.05 75.66 80.24C75.15 79.42 76.75 80.19 79.19 81.94C81.58 83.68 85.14 85.2 87.13 85.35C89.15 85.49 91.13 84.55 91.51 83.25C91.9 81.94 93.36 79.84 94.75 78.59C96.18 77.33 96.84 75.42 96.17 74.35C95.51 73.27 94.61 71.68 94.21 70.82C93.8 69.96 94.86 68.45 96.59 67.45C99.37 65.89 100.3 66.01 103.13 68.31C105.68 70.42 106.89 70.65 109.03 69.46C111.25 68.23 112.82 68.6 117.16 71.37C120.88 73.78 122.7 75.97 123.61 79.09C124.28 81.44 125.22 84.5 125.71 85.89C126.19 87.28 126.03 88.68 125.39 89.03C124.74 89.37 124.43 90.28 124.7 91.05C124.96 91.82 126.22 92.81 127.49 93.28C128.76 93.74 131.04 92.63 132.58 90.82C134.15 88.98 134.97 87.46 134.39 87.45C133.8 87.43 134.7 85.6 136.42 83.33C139.29 79.62 139.36 78.63 136.81 74.83C135.17 72.43 133.67 68.84 133.51 66.87C133.3 64.17 134.76 63.09 139.28 62.63C142.63 62.27 147.46 62.61 149.97 63.39C152.45 64.17 156.5 66.6 158.94 68.78C161.96 71.53 164.33 72.47 167.11 72.03C170.37 71.5 171.29 72.1 172.23 75.3C172.85 77.42 174.38 79.15 175.65 79.19C176.92 79.23 177.94 78.59 177.9 77.76C177.86 76.92 178.17 75.39 178.6 74.35C179.06 73.22 177.67 71.9 175.19 71.13C172.86 70.41 170.86 68.92 170.77 67.82C170.66 66.71 171.07 65.09 171.68 64.22C172.28 63.34 174.45 61.75 176.52 60.68C178.61 59.59 182.32 58.76 184.74 58.83C187.15 58.89 189.55 57.82 190.08 56.42C190.69 54.81 192.53 54.2 195.09 54.77C197.33 55.26 201.59 54.21 204.86 52.36C208.14 50.53 212.71 49.02 214.95 49.05C217.18 49.05 219.23 50.25 219.53 51.7ZM180.37 83.76C179.89 82.94 178.33 82.22 176.9 82.17C175.48 82.11 172.59 83.82 170.54 85.96C168.36 88.24 167.08 91.33 167.3 93.59C167.49 95.64 168.27 97.34 169.04 97.36C169.8 97.39 172.52 96.42 175.1 95.2C178.3 93.68 180.11 91.71 180.55 89.13C180.93 87 180.85 84.57 180.37 83.76Z"  fill="$[hairColor]" stroke="#000" stroke-width="4"/>
</svg>