<svg xmlns="http://www.w3.org/2000/svg" viewBox="0 0 400 600" width="400" height="600">
	<path id="curly-02" fill-rule="nonzero" d="M180.58 65.5C180.26 66.33 177.53 68.13 174.5 69.5C171.47 70.88 167.37 72 165.37 72C162.55 72 160.95 72.79 158.24 75.5C155.47 78.27 153.95 79 150.94 79C148.85 79 146.44 79.67 145.57 80.5C144.17 81.84 143.78 81.78 142 80C140.9 78.9 139.32 78 138.5 78C137.68 78 136.72 78.4 136.38 78.88C136.03 79.37 133.67 79.76 131.13 79.76C128.58 79.75 124.7 80.53 122.5 81.48L118.5 83.2L120 94C109.98 93.52 109.48 93.71 108.29 96.25C107.41 98.13 106.61 98.73 105.75 98.14C105.06 97.66 103.26 96.99 101.75 96.64C100.24 96.29 99 95.33 99 94.5C99 93.67 98.31 92.66 97.47 92.25C96.48 91.76 95.45 92.19 94.5 93.5C93.71 94.6 93.27 96.06 93.53 96.75C93.79 97.44 93.55 98.22 93 98.5C92.45 98.78 92.01 100.01 92.03 101.25C92.05 102.49 91.4 104.85 90.58 106.5C89.77 108.15 89.31 109.84 89.55 110.25C89.8 110.66 89.44 111.03 88.75 111.06C88.06 111.09 85.7 111.32 83.5 111.56C81.3 111.81 78.49 112.68 77.25 113.51C76.01 114.33 75 115.67 75 116.5C75 117.33 73.54 118.96 71.75 120.14C69.36 121.71 67.7 122.1 65.5 121.61C63.3 121.12 61.31 121.59 58 123.38C55.52 124.72 52.94 126.54 52.25 127.41C51.24 128.7 51.28 129.28 52.5 130.5C53.83 131.83 53.83 132.19 52.49 133.75C51.66 134.71 51.24 136.18 51.55 137C51.96 138.05 50.55 139.35 46.81 141.35C43.89 142.92 39.78 145.84 37.69 147.85C35.59 149.86 33.05 152.85 32.05 154.5C31.04 156.15 29.05 157.84 27.61 158.25C26.17 158.66 25 159.68 25 160.5C25 161.32 25.39 162.79 25.87 163.75C26.35 164.71 27.02 167.19 27.37 169.25C27.97 172.84 27.89 172.98 25.5 172.5C23.35 172.07 22.73 172.59 21.03 176.25C19.12 180.39 19.11 180.57 20.91 183C21.92 184.38 23.48 186.06 24.37 186.75C25.82 187.86 25.83 188.17 24.5 189.5C23.68 190.32 23 191.68 23 192.5C23 193.32 23.9 194.22 25 194.5C26.52 194.88 27 195.83 27 198.5C27 200.43 26.55 202 26 202C25.45 202 24.5 203.01 23.9 204.25C23.08 205.91 23.1 207.02 23.98 208.5C24.94 210.14 24.69 211.62 22.58 216.75C20.21 222.49 20.12 223.2 21.5 225.5C22.32 226.88 24.09 228.56 25.43 229.25C27.76 230.45 27.79 230.59 26.18 232.84C25.03 234.44 24.85 235.38 25.6 235.84C26.2 236.2 26.65 237.29 26.6 238.25C26.54 239.21 25.94 240 25.25 240C24.45 240 24.26 240.63 24.72 241.75C25.3 243.14 25.1 243.35 23.72 242.75C22.51 242.22 21.7 242.6 21 244C20.33 245.33 20.33 247.83 21 251.5C21.7 255.37 22.67 257.45 24.25 258.51C25.49 259.34 27.51 260.01 28.75 260.01C29.99 260 31.23 260.45 31.5 261C31.77 261.55 31.55 262.23 31 262.5C30.45 262.77 30 265.02 30 267.5C30 271.8 30.12 271.99 32.75 271.75C35.14 271.53 35.47 271.83 35.26 274C35.12 275.38 35.67 277.18 36.48 278C37.71 279.25 37.75 280.05 36.73 282.76C36.05 284.55 34.94 286.01 34.25 286.01C33.56 286 32.74 287.24 32.42 288.75C32.06 290.47 32.44 292.35 33.42 293.75C34.29 294.99 36.24 296.57 37.75 297.26C39.48 298.05 40.61 299.44 40.81 301.01C41.03 302.78 40.33 304.08 38.4 305.5C36.82 306.66 35.96 308.02 36.34 308.75C36.81 309.64 40.32 310 48.5 310L60 310C60 289.08 60.18 288.16 63.25 282.18C65.04 278.7 68.17 273.75 70.21 271.18C72.26 268.6 74.58 265.38 75.38 264C76.17 262.63 78.23 252.05 79.94 240.5C81.65 228.95 83.38 218.13 83.78 216.45C84.17 214.78 86.3 211.8 88.5 209.83C90.7 207.87 94.86 205.08 97.75 203.63C100.64 202.18 105.81 200.32 109.25 199.5C112.69 198.67 120.22 197.71 126 197.37C133.69 196.91 142.53 197.37 159 199.07C173.91 200.62 187.74 201.4 200 201.4C212.26 201.4 226.09 200.62 241 199.07C257.47 197.37 266.31 196.91 274 197.37C279.77 197.71 287.31 198.67 290.75 199.5C294.19 200.32 299.36 202.19 302.25 203.65C305.14 205.11 309.4 207.92 311.72 209.9C315.7 213.29 316.03 213.99 317.47 222C318.3 226.68 319.89 237.36 320.99 245.75C322.1 254.14 323.69 262.24 324.54 263.75C325.38 265.26 327.86 268.75 330.06 271.5C332.25 274.25 335.27 278.98 336.77 282C339.19 286.87 339.53 288.8 339.75 298.75L340 310L360.5 309.5C360.22 305.63 359.89 303.26 359.57 301.75C359.08 299.36 359.53 298.67 363 296.5C365.2 295.13 367.23 293.1 367.5 292C367.77 290.9 367.77 289.1 367.5 288C367.23 286.9 366.44 286 365.75 286.01C365.06 286.01 363.95 284.55 363.27 282.76C362.25 280.04 362.29 279.25 363.55 278C364.6 276.95 364.84 275.6 364.34 273.5C363.63 270.55 363.67 270.51 366.81 271.25L370 272C370 265.02 369.55 262.77 369 262.5C368.45 262.23 368.23 261.55 368.5 261C368.77 260.45 370.01 260 371.25 260.01C372.49 260.01 374.51 259.34 375.75 258.51C377.33 257.45 378.3 255.37 379 251.5C379.67 247.83 379.67 245.33 379 244C378.3 242.6 377.49 242.22 376.28 242.75C374.9 243.35 374.7 243.14 375.28 241.75C375.78 240.54 375.54 240 374.5 240C373.68 240 372.99 239.66 372.98 239.25C372.97 238.84 373.54 237.95 374.23 237.28C375.03 236.51 376.56 236.33 378.37 236.78C381.02 237.44 381.21 237.3 380.87 235C380.57 232.98 379.92 232.49 377.5 232.46C375.85 232.44 373.82 232.06 373 231.6C371.81 230.95 372.17 230.39 374.75 228.89C376.54 227.85 378.45 226.1 379 225C379.76 223.48 379.38 221.49 377.42 216.75C375.31 211.62 375.06 210.14 376.02 208.5C376.9 207.02 376.92 205.91 376.1 204.25C375.5 203.01 374.55 202 374 202C373.45 202 373 200.43 373 198.5C373 195.83 373.48 194.88 375 194.5C376.1 194.22 377 193.32 377 192.5C377 191.68 376.32 190.32 375.5 189.5C374.17 188.17 374.18 187.86 375.63 186.75C376.52 186.06 378.1 184.26 379.13 182.75C380.92 180.11 380.93 179.87 379.25 176.95C378.25 175.2 376.31 173.6 374.73 173.2C372.18 172.56 372.01 172.22 372.61 169C372.97 167.07 373.65 164.71 374.13 163.75C374.61 162.79 375 161.32 375 160.5C375 159.68 373.83 158.66 372.39 158.25C370.95 157.84 368.96 156.15 367.95 154.5C366.95 152.85 364.41 149.86 362.31 147.85C360.22 145.84 356.14 143.03 353.25 141.6C348.64 139.32 348.06 138.7 348.5 136.5C348.86 134.72 348.57 134 347.5 134C346.68 134 345.71 133.44 345.35 132.75C344.99 132.06 345.55 130.93 346.6 130.22C348.02 129.26 348.25 128.55 347.5 127.35C346.95 126.47 344.38 124.57 341.79 123.13C337.78 120.89 336.78 120.69 335.04 121.75C333.36 122.78 332.35 122.69 329.25 121.25C327.19 120.29 325.2 119.05 324.84 118.5C324.47 117.95 324.36 116.94 324.59 116.25C324.81 115.56 323.76 114.25 322.25 113.33C320.28 112.13 318.44 111.84 315.75 112.33C312.23 112.96 311.88 112.78 310 109.5C308.37 106.65 308.09 104.79 308.5 99.5L309 93C302.59 93.4 300.99 94 301 94.75C301 95.44 299.76 96.29 298.25 96.64C296.74 96.99 294.94 97.66 294.25 98.14C293.39 98.73 292.6 98.13 291.72 96.25C290.91 94.53 289.7 93.54 288.47 93.61C287.38 93.67 285.15 93.9 283.5 94.11L280.5 94.5L281.04 83.5C274.17 80.26 270.95 79.59 268.28 79.75C265.93 79.89 263.77 79.55 263.5 79C263.23 78.45 262.32 78 261.5 78C260.68 78 259.1 78.9 258 80C256.19 81.81 255.83 81.85 254.25 80.48C252.85 79.26 251.23 79.11 246.24 79.73L239.97 80.5C240 75.21 239.73 75.02 236.37 75.25C234.23 75.4 232.51 76.12 232.19 77C231.89 77.83 231.16 78.83 230.57 79.23C229.98 79.64 228.94 79.98 228.25 79.98C227.56 79.99 226.1 78.2 225 76C223.9 73.8 223 71.33 223 70.5C223 69.67 222.32 67.88 221.5 66.5C220.68 65.13 219.32 64 218.5 64C217.68 64 216.21 64.9 215.25 66.01C214.29 67.11 213.05 68.01 212.5 68.01C211.95 68 210.94 68.89 210.25 70C209.56 71.1 208.32 72 207.5 72C206.68 72 206 71.55 206 71C206 70.45 204.17 69.07 201.92 67.94C199.24 66.58 196.93 66.09 195.17 66.5C193.28 66.95 192.28 66.68 191.75 65.57C191.22 64.46 189.56 64 186.08 64C182.64 64 180.99 64.45 180.58 65.5Z"  fill="$[hairColor]" stroke="#000" stroke-width="4"/>
</svg>