<svg xmlns="http://www.w3.org/2000/svg" viewBox="0 0 400 600" width="400" height="600">
	<path id="curly-03" fill-rule="nonzero" d="M204.33 68.28C204.71 69.15 208.7 71.12 207.55 72.27C206.42 73.43 205.66 76.45 205.83 79C206.02 82 206.33 84.28 210.07 87.33C212.15 89.35 214.51 91.02 215.37 91.05C216.24 91.07 218.15 90.25 219.64 89.22C221.16 88.21 220.46 83.45 221.33 82.28C229.69 84.63 228.31 78.83 232.33 78.28C236.01 77.83 240.07 85.83 240.33 85.28C240.6 84.73 242.41 79.49 245.54 79.56C248.33 85.28 253.47 80.32 256.22 81.01C259.83 81.96 260.94 82.84 260.47 84.4C260.11 85.57 258.42 87.58 256.72 88.88C253.99 91.11 254.03 91.74 257.03 95.81C258.77 98.24 259.94 100.65 259.67 101.19C259.4 101.72 259.79 102.41 260.55 102.7C261.31 103.01 262.95 102.97 264.21 102.63C265.95 102.18 266.34 101.7 265.84 100.65C265.45 99.88 265.44 98.61 265.79 97.82C266.16 97.05 267.09 95.23 267.87 93.79C268.93 91.95 270.7 90.9 274.03 90.16C277.84 89.44 279.6 94.43 281.33 95.61C282.99 96.76 283.53 92.04 285.68 91.45C288.02 90.9 288.75 91.07 290.84 92.57C292.14 93.52 292.9 94.58 292.56 94.94C292.22 95.31 291.49 95.96 290.94 96.38C290.39 96.82 290.84 98.08 291.91 99.15C292.96 100.22 294.06 101.62 294.35 102.28C294.79 103.23 294.19 103.83 291.37 105.39C289.41 106.55 287.88 108.11 287.83 108.91C287.8 109.8 286.98 110.53 285.65 110.88C283.85 111.36 283.82 111.48 285.44 111.68C286.79 111.86 286.88 112.39 285.76 113.56C284.75 114.66 284.78 115.48 285.81 115.96C286.67 116.36 288.57 116.55 290.03 116.39C291.74 116.23 293.52 115.24 295.17 113.62C297.22 111.74 298.25 111.34 299.82 111.77C300.91 112.07 302.72 111.91 303.85 111.43C304.98 110.97 306.41 110.72 307.03 110.88C307.65 111.02 307.8 111.86 307.4 112.75C306.86 114.02 307.35 114.52 309.44 114.92C310.89 115.2 311.9 115.83 311.72 116.32C311.55 116.82 310.33 117.65 308.99 118.17C306.97 119 306.36 119.68 305.72 121.93C305.33 123.46 305.66 125.42 306.41 126.25C307.15 127.08 307.59 128.15 307.38 128.62C307.17 129.09 307.45 129.85 307.99 130.3C308.66 130.87 309.6 130.74 310.96 129.92C312.22 129.16 313.32 129 314.06 129.45C314.67 129.84 315.74 129.86 316.42 129.5C317.09 129.16 317.94 129.17 318.32 129.51C318.7 129.85 319.31 130.18 319.69 130.23C320.07 130.29 320.71 130.71 321.13 131.17C321.55 131.63 322.01 132.69 322.18 133.52C322.35 134.36 323.24 135.79 324.15 136.69C325.32 137.85 325.68 138.83 325.39 140.15C325.11 141.53 324.44 142.19 322.77 142.69C321.48 143.07 319.58 143.99 318.55 144.73C316.81 146 316.72 146.31 317.33 148.76C317.74 150.22 320.32 149.04 320.67 150.28C321.03 151.52 321.01 153.29 321.67 153.28C321.82 153.28 321.91 153.35 321.97 153.46C322.18 152.31 322.94 151.28 324.07 150.59C325.13 149.94 326.43 149.58 327 149.81C327.56 150.03 328 150.56 327.98 150.99C327.96 151.43 328.8 151.87 329.83 151.98C331.23 152.13 331.73 152.65 331.93 154.14C332.07 155.22 332.81 156.73 333.56 157.48C334.47 158.39 335 159.93 335.12 162.07C335.28 164.61 335.84 165.88 337.68 167.73C339 169.04 340.39 169.9 340.76 169.65C341.14 169.39 342.6 170.15 344.04 171.33C346.56 173.39 346.65 173.59 346.06 176.31C345.7 177.89 345.07 179.22 344.66 179.26C344.25 179.29 344.17 180.29 344.48 181.49C344.96 183.31 344.77 183.7 343.35 183.81C342.4 183.89 341.08 184.81 340.41 185.86C339.2 187.77 339.23 187.79 342.52 187.3C344.67 186.97 346.82 187.35 348.72 188.37C350.31 189.24 351.81 190.68 352.07 191.55C352.33 192.43 351.78 195.27 350.83 197.88C349.89 200.5 348.82 203.59 348.47 204.71C348.12 205.84 347.34 206.86 346.75 206.97C346.15 207.1 345.24 207.27 344.73 207.37C344.22 207.47 343.86 208.56 343.95 209.8C344.04 211.05 345.15 213.17 346.4 214.5C348.37 216.67 348.62 217.49 348.52 221.35C348.47 223.79 347.88 226.93 347.21 228.33L349 229.28C349.35 228.89 349.6 228.58 349.78 228.33C349.73 228.63 349.77 228.98 350.02 229.32C350.69 230.21 351.26 231.57 351.29 232.35C351.33 233.24 352.09 233.64 353.34 233.42C355.17 233.09 355.26 233.26 355.09 236.52C354.97 239.07 355.41 241.2 356.67 244.45C357.59 246.93 358.34 249.55 358.37 250.23C358.41 250.91 358.04 252.36 357.57 253.45C356.75 255.35 356.77 255.62 358.02 259.29C359.1 262.69 359.18 263.37 358.57 264.35C358.18 264.98 357.62 265.49 357.32 265.48C357.01 265.49 356.49 264.87 356.15 264.1C355.81 263.34 354.91 262.88 354.15 263.08C352.96 263.39 352.81 264.06 353.23 267.4C353.52 269.71 354.32 272.31 355.09 273.5C356.34 275.51 356.39 275.97 356.4 283.37C356.45 287.76 356.19 294.29 355.83 297.83C355.48 301.44 354.97 304.66 354.67 304.96C354.36 305.26 353.46 304.1 352.64 302.4C351.37 299.86 350.91 299.63 349.9 301.03C348.83 302.47 348.33 302.16 346.38 298.97C345.1 296.95 343.89 294.47 343.71 293.43C343.54 292.41 342.78 291.55 342.02 291.52C341.25 291.5 340.76 292.3 340.94 293.33C341.12 294.36 340.91 296.02 340.47 297.03C339.81 298.57 339.25 298.21 337.2 295.04L334.68 291.29C332.12 295.82 331.05 297.11 330.68 297.07C330.31 297.04 329.41 296.16 328.69 295.12C327.97 294.09 327.03 291.62 326.61 289.62C326.19 287.66 324.73 282.56 323.38 278.39C321.96 274.06 321.12 270.19 321.34 269.06C321.55 267.99 321.65 265.24 321.54 262.97C321.43 260.03 320.76 257.98 319.13 255.56C317.25 252.82 316.75 251.04 316.16 244.99C315.77 240.82 315.12 237.76 314.56 237.44C314.02 237.14 313.4 235.69 313.18 234.19C312.95 232.72 312.34 231.29 311.81 231C311.27 230.71 310.73 229.66 310.6 228.65C310.47 227.64 308.87 225.23 307.04 223.29C305.22 221.37 302.98 218.83 302.07 217.62C300.82 215.94 300.55 214.63 300.93 212C301.21 210.12 301.25 208.28 301.01 207.9C300.78 207.51 299.46 207.02 298.09 206.79C296.7 206.57 295.21 206.83 294.79 207.37C294.28 208 292.91 207.46 290.82 205.82C288.94 204.37 286.93 203.54 285.97 203.83C284.85 204.18 282.97 202.94 280 199.92C275.9 195.77 275.49 195.59 270.77 195.71C268.03 195.78 264.5 195.43 262.95 194.93C261.39 194.42 259.66 194.02 259.1 194.04C258.55 194.05 258.13 194.67 258.17 195.41C258.22 196.15 257.26 197.14 256.03 197.61C254.8 198.08 253.32 198.23 252.74 197.96C252.15 197.69 250.51 197.38 249.1 197.27C247.67 197.17 243.96 197.07 240.82 197.05C237.67 197.03 233.4 197.62 231.34 198.35C229.25 199.1 226.98 200.47 226.28 201.42C225.2 202.87 224.49 203 221.79 202.28C219.66 201.7 217.89 201.73 216.52 202.34C215.15 202.96 214.09 202.97 213.36 202.37C212.61 201.78 211.08 201.95 208.64 202.9C206.41 203.77 203.98 204.09 202.34 203.72C200.87 203.39 196.59 203.07 192.84 203.01C188.79 202.94 184.96 203.39 183.43 204.1C181.35 205.06 180.43 205.08 178.74 204.2C177.58 203.6 175.11 202.88 173.26 202.58C171.4 202.28 168.39 202.51 166.56 203.09C163.67 204.01 163.05 203.93 161.87 202.47C161.13 201.55 158.84 200.24 156.78 199.56C154.74 198.89 150.6 198.42 147.57 198.51C144.56 198.6 141 198.79 139.65 198.92C138.3 199.05 136.76 199.39 136.22 199.68C135.68 199.95 134.26 199.83 133.06 199.38C131.87 198.94 130.91 197.96 130.92 197.23C130.93 196.49 130.5 195.88 129.97 195.88C129.45 195.87 127.82 196.29 126.37 196.82C124.93 197.34 121.62 197.75 119.04 197.71C114.61 197.64 114.22 197.83 110.62 202.01C108.02 205.05 106.35 206.3 105.28 205.96C104.37 205.68 102.56 206.53 100.91 208C99.09 209.65 97.85 210.2 97.34 209.57C96.91 209.04 95.52 208.8 94.25 209.03C93 209.27 91.81 209.78 91.63 210.16C91.43 210.55 91.6 212.38 92 214.25C92.55 216.86 92.4 218.16 91.38 219.84C90.64 221.06 88.79 223.61 87.27 225.53C85.76 227.48 84.5 229.89 84.48 230.88C84.45 231.88 84.05 232.93 83.58 233.22C83.11 233.51 82.68 234.93 82.62 236.37C82.56 237.84 82.13 239.27 81.67 239.58C81.17 239.9 80.89 242.89 80.99 246.93C81.15 252.73 80.9 254.45 79.45 257.12C78.21 259.47 77.84 261.42 78.13 264.18C78.34 266.3 78.83 268.85 79.2 269.83C79.59 270.87 79.36 274.46 78.66 278.46C78.03 282.28 77.47 286.91 77.41 288.67C77.35 290.45 76.85 292.66 76.28 293.59C75.72 294.53 74.97 295.34 74.63 295.38C74.29 295.43 72.96 294.36 71.7 293L69.48 290.54C65.98 296.86 65.44 297.21 64.46 295.93C63.82 295.08 63.31 293.66 63.33 292.75C63.35 291.84 62.7 291.17 61.89 291.25C61.1 291.34 60.43 292.15 60.41 293.07C60.39 293.98 59.5 296.25 58.45 298.11C56.84 301.05 56.32 301.37 54.87 300.27C53.5 299.19 53.02 299.45 51.94 301.81C51.25 303.38 50.35 304.5 49.93 304.29C49.51 304.1 48.41 301.44 47.52 298.39C46.65 295.36 45.65 289.61 45.3 285.65C44.71 278.89 44.74 278.46 45.93 276.42C46.65 275.21 47.29 272.69 47.42 270.5C47.6 267.31 47.41 266.69 46.18 266.54C45.39 266.43 44.49 266.99 44.17 267.78C43.85 268.55 43.34 269.22 43.04 269.24C42.74 269.26 42.14 268.85 41.71 268.32C41.03 267.47 41.08 266.81 42.05 263.4C43.14 259.71 43.15 259.44 42.26 257.7C41.75 256.69 41.34 255.32 41.34 254.65C41.35 253.99 41.99 251.34 42.78 248.8C43.86 245.47 44.18 243.31 43.97 240.79C43.68 237.54 43.76 237.36 45.47 237.54C46.63 237.66 47.31 237.2 47.31 236.31C47.3 235.53 47.76 234.12 48.33 233.18C49.22 231.72 49.56 231.69 50.72 232.98L52.09 234.48C50.17 230.65 49.47 227.51 49.3 225.05C49.02 221.13 49.21 220.29 50.86 217.97C51.91 216.55 52.79 214.33 52.8 213.05C52.81 211.78 52.44 210.68 51.98 210.59C51.51 210.52 50.7 210.38 50.16 210.28C49.63 210.19 48.89 209.18 48.52 208.04C48.14 206.9 51.33 201.61 46.06 201.09C45.09 198.44 44.44 195.51 44.61 194.58C44.79 193.66 46.02 192.11 47.35 191.15C48.97 190.01 50.84 189.57 52.79 189.85C55.44 190.24 55.9 190 56.54 188C56.94 186.76 57.75 185.77 58.33 185.81C59 185.86 59.42 185.02 59.42 183.6C59.42 182.36 59.74 181.16 60.14 180.94C60.54 180.71 60.66 179.62 60.4 178.5C60.15 177.39 59.81 175.2 59.65 173.64C59.5 172.09 59.68 170.09 60.05 169.18C60.42 168.28 61.19 167.57 61.77 167.6C62.35 167.63 62.82 167.09 62.79 166.4C62.77 165.59 62.34 165.31 61.54 165.58C60.86 165.82 59.96 165.43 59.47 164.66C58.99 163.94 58.76 162.63 58.93 161.76C59.09 160.9 59.82 160.04 60.54 159.84C61.27 159.64 61.85 159.13 61.84 158.7C61.82 158.27 61.51 157.92 61.14 157.91C60.78 157.9 60.54 157.12 60.6 156.18C60.67 155.01 61.2 154.4 62.29 154.21C63.18 154.05 64.25 153.47 64.67 152.9C65.08 152.33 65.64 151.85 65.91 151.84C66.19 151.82 67.27 152.58 68.33 153.54C69.92 154.97 70.62 155.17 71.83 154.55C72.66 154.12 73.72 152.62 74.16 151.22C74.87 148.82 74.82 148.62 73.13 147.4C72.16 146.72 70.36 145.88 69.13 145.55C67.52 145.11 66.87 144.52 66.62 143.27C66.38 142.09 66.75 141.21 67.95 140.15C68.88 139.32 69.82 138.03 70.04 137.29C70.26 136.55 70.79 135.61 71.23 135.2C71.67 134.78 72.32 134.37 72.68 134.3C73.05 134.23 74.61 137.27 75 136.95C75.39 136.63 75.24 133.2 75.84 133.46C76.45 133.74 77.45 133.66 78.06 133.28C78.79 132.83 79.79 132.93 80.94 133.59C82.66 134.61 82.82 134.59 84.84 133.08C86.8 131.61 87.14 131.55 88.95 132.45C90.05 133.01 91.41 133.64 91.97 133.82C92.58 134.03 92.57 132.93 91.92 131.16C91.03 128.89 90.45 128.32 89.27 128.5C88.07 128.68 87.6 128.2 86.83 126.08C86.16 124.38 85.21 123.38 83.9 122.96C82.86 122.65 81.98 122.1 81.92 121.7C81.86 121.31 82.82 120.7 84.08 120.35C86.24 119.78 86.43 119.41 86.22 116.43C86.02 114.29 86.4 113.23 87.57 112.49C88.49 111.92 89.07 111.27 88.87 111.06C88.67 110.86 89.59 110.67 90.95 110.71C92.36 110.81 96.67 116.95 96.06 110.02C97.48 109.52 98.99 108.45 99.37 107.63C99.76 106.82 100.97 105.28 102.06 104.2C103.17 103.12 103.78 101.92 103.38 101.58C102.99 101.25 102.49 100.76 102.29 100.47C102.08 100.2 102.92 99.13 104.18 98.09C106.2 96.44 106.84 96.18 108.7 96.39C113 100.61 111.32 96.44 112.94 95.19C114.63 93.9 115.79 93.65 119.06 93.97C118.67 101.28 123.41 95.27 124.16 96.97C124.7 98.3 125.49 100.08 125.91 100.9C126.32 101.73 126.2 102.71 125.66 103.07C125.13 103.43 124.87 104.11 125.1 104.59C125.33 105.07 126.4 105.53 127.47 105.63C128.55 105.74 130.48 104.56 131.77 103C133.07 101.43 133.75 100.22 133.25 100.32C132.74 100.41 133.47 98.99 134.89 97.13C137.24 94.12 137.27 93.45 135.01 91.49C133.57 90.33 132.25 88.49 132.08 87.38C131.85 85.88 136.96 88.24 140.67 86.95C143.46 86.01 143.61 81.91 145.8 81.88C147.98 81.9 151.64 82.71 153.9 83.71C156.74 85.07 151.67 91.61 161.41 84.72C164.33 83.98 165.21 84.27 166.26 86.37C166.95 87.8 169.83 89.71 171 89.61C172.17 89.53 171.7 88.16 171.62 87.56C171.53 86.97 171.73 85.86 172.05 85.08C172.41 84.25 171.05 83.47 168.72 83.2C166.54 82.96 166.48 82 166.33 81.28C166.17 80.57 164.59 79.68 165.09 79.04C165.58 78.41 167.45 77.16 169.27 76.25C171.12 75.35 177.08 77.8 179.33 77.61C181.58 77.45 181.12 73.26 181.52 72.36C181.98 71.33 184 62.61 186.09 71.02C188.23 71.19 192.33 77.28 195.12 69.12C198.09 67.95 199.87 71.94 202 71.95C204.12 71.96 203.94 67.41 204.33 68.28ZM321.92 153.83C321.84 154.85 322.19 153.89 321.97 153.46C321.94 153.58 321.93 153.71 321.92 153.83ZM174.27 91.77C173.77 91.19 172.28 90.79 170.96 90.86C169.65 90.95 167.07 92.48 165.31 94.28C163.43 96.21 163.05 97.33 163.33 98.95C163.62 100.56 165.29 99.33 166 99.28C167.47 93.91 168.01 98.8 170.33 97.61C173.23 96.16 174.49 97.93 174.75 95.87C174.98 94.2 174.76 92.35 174.27 91.77Z"  fill="$[hairColor]" stroke="#000" stroke-width="4"/>
</svg>