<svg xmlns="http://www.w3.org/2000/svg" viewBox="0 0 400 600" width="400" height="600">
	<path id="curly-01" fill-rule="nonzero" d="M192.18 58.13C193.35 58.08 195.64 59.16 197.27 60.48C198.92 61.84 201.18 62.6 202.4 62.23C203.8 61.8 204.77 62.25 205.09 63.46C205.36 64.51 206.68 65.31 208.01 65.27C209.35 65.23 211.42 65.87 212.63 66.71C213.82 67.54 215.12 68.77 215.5 69.44C215.89 70.12 216.21 71.36 216.21 72.22C216.21 73.07 215.1 74.21 213.75 74.76C212.3 75.35 211.51 76.38 211.82 77.27C212.11 78.1 212.35 79.32 212.35 79.99C212.35 80.65 213 81.17 213.79 81.15C214.57 81.12 215.44 79.74 215.71 78.06C216.12 75.54 216.64 75.09 218.61 75.53C220.32 75.9 221.67 75.2 223.23 73.11C224.46 71.47 226.57 69.69 227.91 69.15C229.26 68.62 232.01 68.48 234.01 68.85C236.71 69.33 237.76 70.2 238.1 72.26C238.35 73.77 238.06 76.5 237.45 78.34C236.48 81.28 236.68 82.07 239.17 85.14C240.72 87.03 241.66 88.56 241.26 88.56C240.87 88.55 241.71 89.83 243.13 91.41C244.55 92.97 246.37 93.97 247.16 93.62C247.95 93.28 248.62 92.49 248.63 91.86C248.64 91.22 248.23 90.46 247.71 90.15C247.19 89.84 246.78 88.68 246.81 87.56C246.83 86.44 246.79 84 246.71 82.14C246.61 79.7 247.29 78.05 249.09 76.31C251.15 74.35 252.04 74.13 253.77 75.17C255.46 76.18 256.18 76.06 257.22 74.55C258.35 72.91 258.91 72.87 261.19 74.2C262.64 75.05 263.84 76.27 263.85 76.92C263.87 77.57 263.79 78.77 263.69 79.58C263.58 80.39 264.67 81.94 266.09 83.01C267.51 84.09 269.3 85.85 270.05 86.93C270.8 88.02 272.63 88.89 274.1 88.89C275.57 88.88 277.71 87.84 278.85 86.57C280 85.3 280.91 84.77 280.88 85.4C280.84 86.03 281.79 86.8 282.99 87.11C284.55 87.51 285.62 89.36 286.8 93.67C288.34 99.03 288.75 99.55 291.32 99.33C292.89 99.2 294.3 99.7 294.45 100.45C294.62 101.2 293.94 102.64 292.97 103.67C291.77 104.93 291.24 106.87 291.33 109.67C291.45 112.98 291.15 113.79 289.79 113.84C288.46 113.88 288.08 114.81 288.04 118.07C288.02 120.53 288.41 121.97 288.98 121.6C289.51 121.26 290.74 120.19 291.73 119.22C293.37 117.59 293.76 117.6 296.56 119.23C299.48 120.92 299.68 120.92 301.33 119.06C302.46 117.79 303.66 117.36 304.76 117.84C305.68 118.25 307 118.09 307.69 117.48C308.38 116.87 309.48 116.71 310.14 117.1C310.81 117.5 311.79 117.82 312.33 117.81C312.87 117.81 313.96 118.26 314.75 118.81C315.54 119.36 316.66 120.74 317.22 121.87C317.78 123.01 319.58 124.83 321.21 125.91C323.34 127.33 324.12 128.63 323.98 130.51C323.84 132.44 323 133.43 320.74 134.29C319.07 134.93 316.79 136.31 315.66 137.36C313.74 139.17 313.71 139.44 315.16 142.59C316.01 144.42 317.67 146.35 318.83 146.87C320.53 147.64 321.43 147.35 323.36 145.36C324.68 144 326.1 142.89 326.5 142.89C326.89 142.89 327.77 143.52 328.45 144.28C329.12 145.04 330.77 145.79 332.1 145.96C333.76 146.17 334.61 147 334.78 148.61C334.93 149.9 334.6 150.97 334.07 150.99C333.54 151.01 333.11 151.5 333.12 152.08C333.12 152.65 334 153.32 335.07 153.58C336.13 153.83 337.24 154.97 337.51 156.12C337.79 157.27 337.49 158.97 336.84 159.91C336.18 160.89 334.95 161.37 333.98 161.06C332.87 160.69 332.3 161.05 332.32 162.08C332.34 162.94 333.01 163.63 333.8 163.61C334.58 163.59 335.68 164.5 336.23 165.65C336.79 166.79 337.11 169.28 336.97 171.18C336.82 173.08 336.47 175.71 336.19 177.04C335.9 178.36 336.1 179.66 336.63 179.95C337.16 180.24 337.63 181.67 337.68 183.14C337.73 184.8 338.3 185.8 339.18 185.79C339.95 185.79 341.05 186.99 341.62 188.46C342.52 190.82 343.14 191.12 346.7 190.88C349.36 190.7 351.96 191.35 354.24 192.79C356.15 194 357.93 195.88 358.2 196.94C358.47 198.01 357.6 201.25 356.27 204.13C354.96 207 353.49 210.34 352.99 211.55C352.5 212.76 351.49 213.79 350.76 213.85C350.01 213.91 348.9 213.99 348.26 214.04C347.63 214.09 347.14 215.25 347.18 216.62C347.21 217.99 348.45 220.41 349.93 222.01C352.29 224.58 352.56 225.48 352.22 229.54C352.01 232.08 351.04 235.25 348.32 239.01L350.26 237.59C351.91 236.36 352.4 236.41 353.7 237.97C354.54 238.97 355.22 240.43 355.21 241.22C355.21 242.12 356.23 242.62 357.97 242.59C360.57 242.54 360.69 242.72 360.29 245.95C359.97 248.45 360.48 250.6 362.18 253.96C363.45 256.49 364.51 259.11 364.52 259.76C364.53 260.41 363.84 261.69 363 262.62C361.53 264.22 361.55 264.48 363.3 268.06C364.89 271.35 364.96 271.97 363.8 272.71C363.07 273.17 362.05 273.51 361.56 273.46C361.06 273.42 360.24 272.76 359.74 272.01C359.24 271.25 357.81 270.66 356.57 270.69C354.65 270.74 354.34 271.31 354.53 274.28C354.65 276.32 355.58 278.68 356.69 279.84C358.54 281.79 358.58 282.18 357.42 288.2C356.74 291.68 354.97 296.62 353.49 299.17C352 301.73 350.23 303.94 349.58 304.08C348.93 304.23 347.59 303.2 346.6 301.8C345.1 299.69 344.4 299.43 342.42 300.27C340.37 301.13 339.68 300.82 337.59 298.14C336.25 296.44 335.15 294.39 335.16 293.58C335.17 292.77 334.33 292.01 333.3 291.87C332.27 291.74 331.42 292.28 331.41 293.09C331.41 293.9 330.73 295.12 329.9 295.82C328.65 296.88 328.01 296.54 323.91 290.7L321.23 292.74C319.75 293.87 318.22 294.73 317.83 294.66C317.44 294.61 316.6 293.84 315.98 292.96C315.34 292.09 314.8 290.09 314.75 288.49C314.71 286.91 314.15 282.72 313.49 279.22C312.78 275.54 312.6 272.24 313.06 271.31C313.51 270.43 314.13 268.11 314.43 266.14C314.83 263.58 314.45 261.71 313.08 259.4C311.49 256.77 311.24 255.1 311.56 249.48C311.77 245.51 311.51 242.52 310.95 242.17C310.42 241.83 309.96 240.37 309.92 238.9C309.88 237.43 309.41 235.97 308.89 235.64C308.36 235.32 307.92 234.23 307.9 233.21C307.89 232.19 306.5 229.64 304.82 227.54C303.14 225.45 301.1 222.69 300.29 221.37C299.17 219.54 299.01 218.16 299.61 215.4C300.04 213.42 300.21 211.45 299.99 211.02C299.78 210.59 298.47 209.99 297.09 209.68C295.7 209.37 294.19 209.58 293.74 210.14C293.19 210.79 291.85 210.15 289.87 208.29C288.09 206.64 286.14 205.66 285.19 205.93C284.06 206.26 282.28 204.85 279.5 201.47C275.63 196.79 275.23 196.57 270.69 196.56C268.07 196.57 264.72 196.08 263.26 195.49C261.79 194.89 260.15 194.42 259.63 194.42C259.11 194.42 258.71 195.09 258.75 195.9C258.79 196.71 257.87 197.77 256.71 198.25C255.55 198.73 254.16 198.86 253.62 198.56C253.08 198.25 251.56 197.87 250.24 197.73C248.92 197.59 245.47 197.4 242.57 197.31C239.66 197.23 235.73 197.79 233.82 198.55C231.9 199.31 229.79 200.76 229.13 201.76C228.08 203.35 227.5 203.45 224.76 202.51C223.02 201.92 220.2 201.72 218.49 202.08C216.78 202.44 214.52 203.28 213.48 203.95C211.96 204.92 211.1 204.92 209.14 203.95C207.69 203.22 204.14 202.85 200.43 203.03C196.99 203.21 193.08 203.68 191.75 204.08C190.27 204.52 188.03 204.27 185.95 203.43C183.66 202.5 182.25 202.37 181.6 203.03C180.96 203.69 179.98 203.72 178.7 203.11C177.41 202.51 175.79 202.55 173.86 203.25C171.42 204.11 170.76 204 169.69 202.51C169 201.53 166.83 200.16 164.87 199.46C162.92 198.77 158.94 198.33 156.02 198.49C153.1 198.66 149.63 198.94 148.3 199.12C146.98 199.3 145.45 199.71 144.91 200.03C144.38 200.34 142.97 200.26 141.78 199.82C140.59 199.39 139.63 198.38 139.64 197.59C139.65 196.8 139.23 196.16 138.7 196.18C138.17 196.19 136.53 196.71 135.07 197.33C133.6 197.95 130.23 198.53 127.58 198.61C122.98 198.76 122.58 198.99 118.8 203.64C116.08 207 114.31 208.42 113.16 208.14C112.18 207.9 110.23 208.92 108.47 210.56C106.49 212.42 105.15 213.08 104.58 212.47C104.1 211.95 102.55 211.8 101.15 212.14C99.75 212.49 98.43 213.11 98.23 213.53C98.02 213.95 98.24 215.84 98.72 217.73C99.4 220.38 99.26 221.72 98.16 223.52C97.36 224.81 95.33 227.54 93.65 229.6C91.97 231.68 90.59 234.19 90.59 235.17C90.58 236.15 90.15 237.22 89.61 237.55C89.08 237.88 88.61 239.31 88.58 240.72C88.55 242.15 88.09 243.58 87.55 243.91C86.98 244.28 86.72 247.17 86.93 251.01C87.23 256.46 86.96 258.09 85.31 260.69C83.88 262.97 83.46 264.79 83.83 267.29C84.1 269.2 84.68 271.46 85.11 272.31C85.56 273.21 85.28 276.45 84.44 280.07C83.64 283.52 82.9 287.65 82.78 289.21C82.67 290.79 82.04 292.77 81.39 293.63C80.74 294.5 79.84 295.27 79.4 295.33C78.96 295.41 77.4 294.57 73.3 291.5L70.84 294.66C68.79 297.3 68.11 297.64 66.89 296.61C66.08 295.93 65.44 294.74 65.49 293.95C65.52 293.16 64.68 292.64 63.62 292.78C62.55 292.93 61.65 293.69 61.61 294.48C61.58 295.28 60.33 297.3 58.85 298.99C56.54 301.64 55.8 301.95 53.75 301.14C51.77 300.34 51.04 300.6 49.35 302.69C48.24 304.07 46.78 305.09 46.12 304.95C45.46 304.82 43.79 302.69 42.42 300.23C41.06 297.77 39.52 293.03 38.99 289.69C38.06 283.93 38.11 283.55 40.09 281.63C41.28 280.48 42.31 278.18 42.5 276.22C42.78 273.36 42.47 272.83 40.5 272.85C39.22 272.86 37.75 273.47 37.24 274.19C36.73 274.92 35.87 275.57 35.33 275.65C34.79 275.74 33.73 275.46 32.99 275.04C31.81 274.39 31.9 273.79 33.62 270.59C35.49 267.1 35.51 266.86 34.02 265.4C33.16 264.55 32.47 263.36 32.49 262.74C32.51 262.13 33.62 259.59 34.95 257.11C36.72 253.84 37.25 251.77 36.92 249.41C36.49 246.35 36.61 246.17 39.3 246.09C41.1 246.04 42.14 245.51 42.14 244.65C42.12 243.9 42.81 242.48 43.67 241.49C45 239.94 45.5 239.86 49.22 242.23L47.39 240C46.38 238.76 45.35 235.79 45.09 233.38C44.67 229.53 44.94 228.66 47.32 226.08C48.8 224.49 50.03 222.12 50.04 220.81C50.04 219.5 49.51 218.42 48.86 218.4C48.21 218.38 47.05 218.36 46.29 218.34C45.53 218.32 44.46 217.39 43.92 216.26C43.38 215.13 41.77 212.02 40.35 209.33C38.9 206.64 37.91 203.58 38.15 202.54C38.4 201.5 40.19 199.61 42.13 198.34C44.45 196.85 47.12 196.09 49.83 196.13C53.93 196.21 53.96 196.17 52.31 194.19C51.38 193.08 49.64 192.21 48.45 192.26C46.64 192.34 46.35 191.91 46.74 189.72C46.99 188.27 46.77 187.1 46.23 187.11C45.7 187.13 44.68 185.63 43.96 183.77C42.7 180.53 42.77 180.27 45.83 177.44C47.59 175.83 49.47 174.74 50.01 175.02C50.55 175.31 52.3 174.1 53.9 172.37C56.16 169.94 56.81 168.32 56.77 165.12C56.73 162.38 57.34 160.38 58.56 159.18C59.59 158.19 60.57 156.23 60.72 154.81C60.96 152.85 61.68 152.17 63.74 151.99C65.23 151.85 66.44 151.29 66.44 150.72C66.43 150.15 67.08 149.47 67.89 149.19C68.71 148.91 70.49 149.39 71.85 150.24C73.43 151.23 74.34 152.7 74.35 154.34C74.37 155.93 74.93 156.88 75.84 156.88C76.66 156.88 77.79 155.62 78.38 154.09C78.95 152.55 80.03 149.8 80.76 147.98C81.97 144.92 81.92 144.53 79.98 142.86C78.82 141.86 76.48 140.57 74.79 139.98C72.49 139.2 71.62 138.25 71.46 136.33C71.29 134.47 72.07 133.15 74.19 131.69C75.83 130.57 77.62 128.71 78.17 127.57C78.72 126.43 79.82 125.03 80.62 124.46C81.42 123.89 82.51 123.42 83.05 123.4C83.59 123.4 84.57 123.05 85.23 122.64C85.89 122.23 86.99 122.37 87.69 122.95C88.39 123.54 89.71 123.67 90.63 123.23C91.72 122.74 92.95 123.1 94.08 124.25C95.29 125.47 96.29 125.74 97.27 125.08C98.06 124.56 98.68 123.62 98.67 122.99C98.65 122.35 99.6 121.03 100.78 120.05C101.97 119.06 103.26 116.58 103.64 114.53C104.2 111.44 103.97 110.42 102.4 108.88C101.33 107.84 100.59 106.37 100.75 105.62C100.9 104.87 102.37 104.25 104.01 104.24C106.31 104.23 107.1 103.65 107.42 101.75C107.65 100.37 108.38 99.22 109.04 99.2C109.71 99.15 110.83 99.9 111.55 100.83C112.26 101.76 113.77 102.39 114.91 102.23C116.52 101.99 117.19 102.71 117.96 105.5C118.59 107.8 119.69 109.28 121.11 109.7C122.31 110.05 124.04 110.03 124.94 109.65C126.02 109.19 126.39 108.2 126.02 106.77C125.61 105.2 125.92 104.57 127.12 104.53C128.53 104.5 128.57 104.34 127.31 103.52C126.38 102.91 126.07 101.88 126.47 100.77C126.82 99.76 126.4 97.52 125.49 95.63C124.19 92.93 124.08 91.96 124.98 90.79C125.6 89.97 127.24 88.35 128.63 87.18C130.01 86 131.06 84.41 130.95 83.62C130.84 82.85 130.74 81.68 130.75 81.03C130.76 80.38 131.92 79.11 133.34 78.19C135.56 76.76 136.11 76.77 137.24 78.36C138.28 79.82 138.99 79.9 140.64 78.8C142.33 77.67 143.21 77.85 145.27 79.7C147.06 81.33 147.77 82.96 147.73 85.39C147.7 87.25 147.65 89.54 147.62 90.51C147.58 91.47 147.11 92.95 146.56 93.81C145.82 94.97 145.93 95.58 147.04 96.27C147.85 96.77 149.03 96.96 149.68 96.68C150.32 96.41 150.83 95.66 150.8 95.03C150.77 94.4 152.37 91.76 154.35 89.14C157.64 84.74 157.85 84.01 156.8 81.06C156.16 79.27 155.81 76.55 156.03 75.03C156.32 72.98 157.31 72.05 159.77 71.5C161.61 71.07 164.64 70.95 166.51 71.23C168.39 71.5 169.93 72.27 169.96 72.95C169.98 73.63 171.78 74.8 173.94 75.57C176.32 76.41 178.13 77.91 178.54 79.36C178.93 80.68 179.93 82.68 180.8 83.81C181.65 84.94 182.82 85.83 183.4 85.81C183.98 85.78 185.7 83.97 187.24 81.77C189.03 79.17 190.21 75.85 190.53 72.47C190.81 69.54 190.58 66.01 190.02 64.63C189.46 63.25 189.23 61.24 189.53 60.16C189.83 59.07 191.01 58.16 192.18 58.13ZM210.99 89.28C211.34 91.43 212.61 93.1 214.81 94.4C216.62 95.44 218.53 96.29 219.05 96.27C219.57 96.25 219.99 94.81 219.97 93.06C219.96 91.16 218.91 88.57 217.35 86.68C215.92 84.91 214.01 83.5 213.12 83.55C212.22 83.59 211.26 84.17 210.97 84.84C210.69 85.5 210.69 87.51 210.99 89.28Z"  fill="$[hairColor]" stroke="#000" stroke-width="4"/>
</svg>