<svg xmlns="http://www.w3.org/2000/svg" viewBox="0 0 400 600" width="400" height="600">
	<path id="curly" fill-rule="evenodd" class="messy_curls" d="M195.33 64.01C196.53 64.01 198.85 64.9 200.5 65.97C202.18 67.07 204.49 67.73 205.75 67.47C207.18 67.17 208.18 67.55 208.5 68.5C208.78 69.33 210.13 70 211.5 70C212.88 70 215.01 70.56 216.25 71.25C217.49 71.94 218.83 72.95 219.23 73.5C219.64 74.05 219.98 75.06 219.98 75.75C219.99 76.44 218.85 77.34 217.45 77.75C215.95 78.19 215.13 79.01 215.45 79.75C215.75 80.44 216 81.45 216 82C216 82.55 216.68 83 217.5 83C218.32 83 219.22 81.88 219.5 80.5C219.91 78.45 220.45 78.09 222.5 78.5C224.27 78.85 225.66 78.31 227.25 76.64C228.49 75.34 230.63 73.95 232 73.54C233.38 73.14 236.19 73.08 238.25 73.41C241.04 73.85 242.14 74.57 242.56 76.25C242.86 77.49 242.64 79.74 242.06 81.25C241.12 83.68 241.35 84.35 244 87C245.65 88.65 246.66 89.98 246.25 89.97C245.84 89.95 246.74 91.07 248.25 92.47C249.76 93.86 251.68 94.78 252.5 94.5C253.32 94.22 254 93.55 254 93C254 92.45 253.55 91.78 253 91.5C252.45 91.22 252 90.21 252 89.25C252 88.29 251.89 86.21 251.75 84.63C251.57 82.57 252.21 81.2 254 79.78C256.03 78.18 256.93 78.01 258.75 78.9C260.53 79.77 261.26 79.68 262.25 78.43C263.32 77.08 263.89 77.05 266.28 78.18C267.81 78.91 269.1 79.95 269.15 80.5C269.2 81.05 269.18 82.06 269.12 82.75C269.05 83.44 270.24 84.78 271.75 85.72C273.26 86.67 275.18 88.23 276 89.18C276.82 90.14 278.74 90.94 280.25 90.96C281.76 90.98 283.9 90.1 285 89C286.1 87.9 287 87.45 287 88C287 88.55 288.01 89.24 289.25 89.53C290.87 89.91 292.06 91.56 293.5 95.44C295.32 100.32 295.76 100.8 298.39 100.66C299.98 100.57 301.45 101.06 301.64 101.75C301.84 102.44 301.21 103.75 300.25 104.67C299.06 105.8 298.58 107.58 298.75 110.17C298.95 113.25 298.66 114 297.25 114C295.88 114 295.5 114.85 295.5 117.9C295.5 120.21 295.91 121.58 296.5 121.25C297.05 120.95 298.32 119.98 299.33 119.1C301.01 117.63 301.42 117.65 304.33 119.28C307.37 120.98 307.57 120.98 309.25 119.28C310.39 118.12 311.61 117.76 312.75 118.25C313.71 118.67 315.06 118.56 315.75 118C316.44 117.45 317.56 117.33 318.25 117.72C318.94 118.12 319.95 118.46 320.5 118.47C321.05 118.49 322.18 118.95 323 119.5C323.82 120.05 324.99 121.4 325.59 122.5C326.18 123.6 328.05 125.4 329.74 126.5C331.93 127.93 332.75 129.21 332.63 131C332.51 132.85 331.65 133.76 329.34 134.5C327.63 135.05 325.28 136.29 324.11 137.25C322.11 138.91 322.08 139.17 323.55 142.25C324.4 144.04 326.09 145.95 327.29 146.5C329.04 147.3 329.97 147.05 331.99 145.22C333.37 143.96 334.84 142.95 335.25 142.97C335.66 142.98 336.56 143.62 337.25 144.37C337.94 145.13 339.63 145.91 341 146.12C342.71 146.38 343.58 147.21 343.75 148.75C343.89 149.99 343.55 151 343 151C342.45 151 342 151.45 342 152C342 152.55 342.9 153.22 344 153.5C345.1 153.78 346.23 154.9 346.5 156C346.77 157.1 346.44 158.71 345.75 159.58C345.04 160.49 343.75 160.91 342.75 160.58C341.6 160.2 341 160.52 341 161.5C341 162.32 341.68 163 342.5 163C343.32 163 344.45 163.9 345 165C345.55 166.1 345.83 168.46 345.63 170.25C345.42 172.04 344.97 174.51 344.63 175.75C344.28 176.99 344.45 178.22 345 178.5C345.55 178.78 346 180.13 346 181.5C346 183.06 346.57 184 347.5 184C348.32 184 349.45 185.13 350 186.5C350.88 188.69 351.53 188.97 355.34 188.75C358.19 188.59 360.95 189.19 363.36 190.5C365.38 191.6 367.25 193.29 367.52 194.25C367.78 195.21 366.77 198.14 365.26 200.75C363.76 203.36 362.06 206.4 361.48 207.5C360.91 208.6 359.77 209.56 358.97 209.63C358.16 209.71 356.94 209.82 356.25 209.88C355.56 209.95 354.99 211.01 354.98 212.25C354.97 213.49 356.24 215.63 357.8 217C360.3 219.2 360.57 219.99 360.07 223.62C359.76 225.89 358.6 228.76 355.5 232.28L357.67 230.89C359.53 229.69 360.06 229.71 361.46 231C362.36 231.82 363.07 233.06 363.04 233.75C363.02 234.54 364.13 234.91 366.06 234.75C368.96 234.51 369.09 234.66 368.56 237.5C368.15 239.69 368.67 241.51 370.5 244.25C371.87 246.31 373 248.45 373 249C373 249.55 372.21 250.72 371.25 251.6C369.59 253.12 369.6 253.34 371.5 256.21C373.23 258.82 373.3 259.34 372 260.1C371.18 260.58 370.05 260.98 369.5 261C368.95 261.02 368.05 260.55 367.5 259.97C366.95 259.38 365.38 259.03 364 259.2C361.89 259.45 361.54 259.97 361.73 262.5C361.86 264.23 362.87 266.14 364.09 267C366.12 268.43 366.16 268.76 364.91 274C364.19 277.02 362.34 281.41 360.8 283.75C359.26 286.09 357.44 288.17 356.75 288.37C356.06 288.58 354.6 287.89 353.5 286.84C351.83 285.25 351.08 285.12 349 286.07C346.86 287.04 346.11 286.86 343.79 284.85C342.3 283.56 341.06 281.94 341.04 281.25C341.02 280.56 340.1 280 339 280C337.9 280 337.02 280.56 337.04 281.25C337.07 281.94 336.39 283.06 335.54 283.75C334.27 284.79 333.57 284.57 329 280L326.25 282.03C324.74 283.15 323.16 284.05 322.75 284.03C322.34 284.02 321.42 283.44 320.72 282.75C320.01 282.06 319.35 280.38 319.24 279C319.13 277.63 318.4 274.02 317.61 271C316.78 267.8 316.53 264.87 317.01 264C317.47 263.18 318.11 261.04 318.42 259.25C318.84 256.9 318.44 255.24 316.99 253.25C315.32 250.96 315.07 249.45 315.49 244.25C315.79 240.56 315.59 237.8 315 237.5C314.45 237.22 314 235.88 314 234.5C314 233.13 313.55 231.78 313 231.5C312.45 231.22 312.02 230.21 312.04 229.25C312.06 228.29 310.68 225.93 308.98 224C307.28 222.07 305.24 219.49 304.44 218.25C303.34 216.52 303.23 215.19 304 212.5C304.55 210.57 304.83 208.66 304.62 208.25C304.42 207.84 303.06 207.28 301.62 207C300.17 206.72 298.56 206.95 298.05 207.5C297.44 208.15 296.06 207.54 294.06 205.75C292.27 204.15 290.27 203.2 289.25 203.48C288.05 203.82 286.25 202.44 283.5 199.09C279.68 194.43 279.27 194.21 274.5 194.2C271.75 194.2 268.26 193.7 266.75 193.1C265.24 192.49 263.55 192 263 192C262.45 192 262 192.68 262 193.5C262 194.32 260.99 195.4 259.75 195.88C258.51 196.37 257.05 196.5 256.5 196.19C255.95 195.87 254.38 195.48 253 195.33C251.63 195.18 248.03 194.97 245 194.87C241.97 194.77 237.84 195.32 235.82 196.09C233.79 196.87 231.54 198.35 230.82 199.39C229.67 201.03 229.07 201.13 226.25 200.14C224.46 199.51 221.54 199.29 219.75 199.65C217.96 200.01 215.6 200.86 214.5 201.55C212.9 202.55 212.01 202.54 210 201.51C208.52 200.74 204.85 200.31 201 200.46C197.43 200.6 193.38 201.04 192 201.44C190.46 201.88 188.15 201.58 186 200.66C183.64 199.65 182.18 199.49 181.5 200.17C180.84 200.85 179.83 200.86 178.5 200.2C177.17 199.55 175.49 199.56 173.5 200.25C170.97 201.11 170.29 200.98 169.18 199.39C168.46 198.35 166.21 196.87 164.18 196.09C162.16 195.32 158.03 194.77 155 194.87C151.97 194.97 148.38 195.18 147 195.33C145.63 195.48 144.05 195.87 143.5 196.19C142.95 196.5 141.49 196.37 140.25 195.88C139.01 195.4 138 194.32 138 193.5C138 192.68 137.55 192 137 192C136.45 192 134.76 192.49 133.25 193.1C131.74 193.7 128.25 194.2 125.5 194.2C120.73 194.21 120.32 194.43 116.5 199.09C113.75 202.44 111.95 203.82 110.75 203.48C109.73 203.2 107.73 204.15 105.94 205.75C103.94 207.54 102.56 208.15 101.95 207.5C101.44 206.95 99.83 206.72 98.38 207C96.94 207.28 95.58 207.84 95.38 208.25C95.17 208.66 95.45 210.57 96 212.5C96.77 215.19 96.66 216.52 95.56 218.25C94.76 219.49 92.72 222.07 91.02 224C89.32 225.93 87.94 228.29 87.96 229.25C87.98 230.21 87.55 231.22 87 231.5C86.45 231.78 86 233.13 86 234.5C86 235.88 85.55 237.22 85 237.5C84.41 237.8 84.21 240.56 84.51 244.25C84.93 249.45 84.68 250.96 83.01 253.25C81.56 255.24 81.16 256.9 81.58 259.25C81.89 261.04 82.53 263.18 82.99 264C83.47 264.87 83.22 267.8 82.39 271C81.6 274.02 80.87 277.63 80.76 279C80.65 280.38 80.02 282.06 79.35 282.75C78.69 283.44 77.77 284.02 77.32 284.03C76.87 284.05 75.26 283.15 71 280L68.5 282.5C66.43 284.57 65.73 284.79 64.46 283.75C63.61 283.06 62.93 281.94 62.96 281.25C62.98 280.56 62.1 280 61 280C59.9 280 58.98 280.56 58.96 281.25C58.94 281.94 57.7 283.56 56.21 284.85C53.89 286.86 53.14 287.04 51 286.07C48.92 285.12 48.17 285.25 46.5 286.84C45.4 287.89 43.94 288.58 43.25 288.37C42.56 288.17 40.74 286.09 39.2 283.75C37.66 281.41 35.81 277.02 35.09 274C33.84 268.76 33.88 268.43 35.91 267C37.13 266.14 38.14 264.23 38.27 262.5C38.46 259.97 38.11 259.45 36 259.2C34.63 259.03 33.07 259.37 32.55 259.95C32.03 260.53 31.13 260.99 30.55 260.98C29.97 260.98 28.82 260.58 28 260.1C26.7 259.34 26.77 258.82 28.5 256.21C30.4 253.34 30.41 253.12 28.75 251.6C27.79 250.72 27 249.55 27 249C27 248.45 28.13 246.31 29.5 244.25C31.33 241.51 31.85 239.69 31.44 237.5C30.91 234.66 31.04 234.51 33.94 234.75C35.87 234.91 36.98 234.54 36.96 233.75C36.93 233.06 37.64 231.82 38.54 231C39.94 229.71 40.47 229.69 44.5 232.28L42.5 230.01C41.4 228.76 40.24 225.89 39.93 223.62C39.43 219.99 39.7 219.2 42.2 217C43.76 215.63 45.03 213.49 45.02 212.25C45.01 211.01 44.44 209.95 43.75 209.88C43.06 209.82 41.84 209.71 41.03 209.63C40.23 209.56 39.09 208.6 38.52 207.5C37.94 206.4 36.24 203.36 34.74 200.75C33.23 198.14 32.22 195.21 32.48 194.25C32.75 193.29 34.63 191.6 36.66 190.5C39.08 189.2 41.86 188.59 44.68 188.75C48.93 189 48.97 188.97 47.25 186.99C46.29 185.89 44.49 184.99 43.25 184.99C41.38 185 41.08 184.58 41.5 182.5C41.77 181.13 41.55 180 41 180C40.45 180 39.42 178.54 38.7 176.75C37.45 173.63 37.53 173.39 40.7 170.75C42.52 169.24 44.45 168.22 45 168.5C45.55 168.78 47.35 167.65 49 166C51.33 163.67 52 162.11 52 159C52 156.35 52.64 154.41 53.9 153.25C54.95 152.29 55.97 150.38 56.15 149C56.42 147.1 57.16 146.44 59.25 146.25C60.76 146.11 62 145.55 62 145C62 144.45 62.67 143.78 63.5 143.5C64.33 143.22 66.13 143.68 67.5 144.5C69.1 145.46 70 146.9 70 148.5C70 150.06 70.57 151 71.5 151C72.33 151 73.5 149.76 74.11 148.25C74.71 146.74 75.84 144.04 76.61 142.25C77.89 139.25 77.84 138.87 75.89 137.25C74.72 136.29 72.37 135.05 70.66 134.5C68.35 133.76 67.49 132.85 67.37 131C67.25 129.21 68.07 127.93 70.26 126.5C71.95 125.4 73.82 123.6 74.41 122.5C75.01 121.4 76.17 120.05 77 119.5C77.83 118.95 78.95 118.49 79.5 118.47C80.05 118.46 81.06 118.12 81.75 117.72C82.44 117.33 83.56 117.45 84.25 118C84.94 118.56 86.29 118.67 87.25 118.25C88.38 117.77 89.63 118.11 90.75 119.2C91.95 120.36 92.97 120.61 94 119.98C94.83 119.48 95.5 118.58 95.5 117.98C95.5 117.38 96.53 116.12 97.78 115.19C99.04 114.26 100.46 111.92 100.93 110C101.64 107.13 101.45 106.18 99.9 104.75C98.85 103.79 98.16 102.44 98.36 101.75C98.55 101.06 100.1 100.5 101.79 100.5C104.16 100.5 105.01 99.98 105.44 98.25C105.75 97.01 106.56 95.98 107.25 95.96C107.94 95.93 109.06 96.61 109.75 97.46C110.44 98.3 111.97 98.89 113.16 98.75C114.84 98.55 115.5 99.21 116.16 101.75C116.71 103.86 117.79 105.22 119.25 105.62C120.49 105.96 122.29 105.96 123.25 105.62C124.4 105.21 124.83 104.31 124.5 103C124.14 101.57 124.5 101 125.75 100.98C127.23 100.97 127.27 100.83 126 100.07C125.06 99.51 124.78 98.58 125.25 97.59C125.67 96.69 125.35 94.69 124.5 93C123.3 90.6 123.25 89.75 124.25 88.74C124.94 88.04 126.74 86.67 128.26 85.69C129.77 84.71 130.96 83.37 130.89 82.7C130.82 82.04 130.8 81.05 130.85 80.5C130.9 79.95 132.19 78.91 133.72 78.18C136.11 77.05 136.68 77.08 137.75 78.43C138.74 79.68 139.47 79.77 141.25 78.9C143.07 78.01 143.97 78.18 146 79.78C147.78 81.19 148.43 82.58 148.26 84.63C148.13 86.21 147.96 88.17 147.88 89C147.79 89.83 147.23 91.1 146.61 91.83C145.78 92.83 145.87 93.36 147 93.99C147.82 94.45 149.06 94.64 149.75 94.41C150.44 94.19 151 93.55 151 93C151 92.45 152.8 90.2 155 88C158.64 84.36 158.9 83.75 157.94 81.25C157.36 79.74 157.14 77.49 157.44 76.25C157.85 74.59 158.92 73.87 161.5 73.5C163.43 73.22 166.57 73.22 168.5 73.5C170.43 73.78 172 74.45 172 75C172 75.55 173.82 76.56 176.04 77.25C178.49 78.01 180.32 79.29 180.71 80.5C181.07 81.6 182.06 83.29 182.93 84.26C183.79 85.23 185 86.01 185.61 86.01C186.22 86 188.07 84.54 189.73 82.75C191.67 80.66 192.97 77.98 193.37 75.25C193.72 72.91 193.55 70.1 193 69C192.45 67.9 192.26 66.33 192.58 65.5C192.91 64.67 194.14 64 195.33 64.01ZM214.54 89.75C214.9 91.6 216.22 93.07 218.54 94.25C220.44 95.21 222.45 96 223 96C223.55 96 223.99 94.76 223.98 93.25C223.97 91.62 222.86 89.38 221.23 87.73C219.73 86.2 217.73 84.97 216.8 84.98C215.86 84.99 214.85 85.45 214.55 86C214.25 86.55 214.24 88.24 214.54 89.75Z"  fill="$[hairColor]" stroke="#000" stroke-width="4"/>
</svg>