<svg xmlns="http://www.w3.org/2000/svg" viewBox="0 0 400 600" width="400" height="600">
	<path id="curly-02" fill-rule="nonzero" d="M182.42 68.88C182.12 69.9 181.7 72.18 181.48 73.94C181.08 77.05 180.97 77.11 175.35 76.84C172.2 76.69 168.75 77.04 167.68 77.62C166.62 78.2 165.79 79.37 165.84 80.24C165.89 81.11 167.31 83.1 168.99 84.67C170.67 86.24 172.9 89.15 173.96 91.13C175.01 93.1 175.9 95.4 175.95 96.24C176 97.22 174.85 97.87 172.75 98.06C170.95 98.23 168.94 98.92 168.27 99.57C167.6 100.24 166.81 100.44 166.52 100.02C166.22 99.61 166.37 97.79 166.83 95.97C167.28 94.15 167.58 91.62 167.49 90.35C167.41 89.07 166.27 87.36 164.97 86.53C162.91 85.21 162.37 85.21 160.69 86.53C159.63 87.35 158.31 88.02 157.75 88.02C157.2 88.01 156.23 86.98 155.6 85.72C154.84 84.16 153.13 83.14 150.39 82.57C146.68 81.81 146.1 82.01 143.72 84.84C141.43 87.55 140.58 87.87 137.03 87.4C134.2 87.02 132.98 87.25 133 88.15C133.01 88.86 134 90.71 135.2 92.26C136.39 93.8 137.41 95.42 137.45 95.83C137.48 96.25 136.61 97.5 135.5 98.61C134.38 99.71 133.74 101.18 134.07 101.88C134.41 102.57 133.67 103.81 132.44 104.64C131.21 105.46 129.63 106.11 128.92 106.11C128.22 106.09 127.85 105.42 128.1 104.59C128.36 103.76 127.94 101.71 127.17 100.01C126.07 97.52 125.35 97.02 123.52 97.45C121.83 97.85 121.11 97.47 120.68 95.96C120.34 94.77 119.26 93.92 118.07 93.9C116.96 93.89 115.16 94.79 114.08 95.89C112.67 97.32 111.31 97.71 109.3 97.28C107.25 96.82 105.96 97.21 104.51 98.72C103.42 99.87 102.85 101.37 103.24 102.06C103.64 102.78 102.48 104.92 100.54 107.03C98.66 109.05 97.12 111.16 97.13 111.7C97.14 112.25 96.46 112.68 95.61 112.67C94.76 112.66 93.85 112.2 93.55 111.65C93.26 111.1 92.22 110.65 91.24 110.66C90.26 110.66 88.9 111.42 88.23 112.34C87.55 113.26 87 115.24 87 116.73C87 118.69 86.28 119.71 84.44 120.39L81.89 121.33C86.69 125.98 88.09 127.77 88.09 128.31C88.09 128.84 89.02 129.3 90.15 129.32C91.28 129.34 92.45 130.13 92.75 131.07C93.04 132.01 93.05 132.89 92.76 133.02C92.47 133.15 91.42 132.86 90.43 132.37C89.34 131.84 87.6 131.86 86.06 132.43C84.65 132.95 81.75 133.28 79.64 133.18C77.53 133.07 75.79 133.42 75.8 133.96C75.8 134.5 74.99 134.68 74 134.34C72.7 133.92 71.44 134.89 69.35 137.92C67.78 140.21 66.73 142.63 67.05 143.3C67.35 143.98 69.24 145.33 71.24 146.3C73.78 147.54 74.78 148.61 74.56 149.9C74.39 150.91 73.47 152.2 72.51 152.78C71.18 153.58 70.3 153.42 68.67 152.09C66.67 150.42 66.44 150.44 63.45 152.48C61.33 153.93 60.51 155.16 60.89 156.33C61.21 157.27 60.76 158.57 59.89 159.22C59.03 159.88 58.33 160.96 58.36 161.63C58.38 162.3 59.32 163.4 60.45 164.08C62.25 165.18 62.31 165.47 60.95 166.51C59.77 167.42 59.45 169.39 59.62 174.75C59.81 180.87 59.53 182.15 57.46 184.63C55.67 186.82 54.22 187.52 51.45 187.6C48.89 187.67 47.27 188.38 45.99 189.99C44.72 191.59 44.36 193.15 44.78 195.19C45.11 196.79 46.14 198.67 47.08 199.37C48.02 200.06 48.64 201.37 48.47 202.28C48.29 203.18 48.4 204.89 48.71 206.09C49.01 207.28 49.92 208.26 50.74 208.25C51.61 208.25 52.21 209.14 52.21 210.42C52.21 211.62 51.46 213.68 50.56 215.01C49.27 216.91 49.06 218.61 49.56 222.97C49.95 226.44 49.82 228.5 49.21 228.51C48.68 228.51 48.02 229.61 47.76 230.93C47.44 232.55 46.63 233.35 45.36 233.37C43.82 233.39 43.52 233.91 43.82 236.04C44.03 237.49 43.66 240.86 43 243.52C42.35 246.17 41.88 251.88 41.96 256.2C42.02 260.51 42.43 264.39 42.86 264.83C43.28 265.25 44.02 264.85 44.5 263.92C44.96 262.99 45.78 262.21 46.3 262.21C46.81 262.2 47.25 263.16 47.25 264.35C47.26 265.54 46.67 268.24 45.94 270.37C44.91 273.33 44.8 275.89 45.42 281.4C45.87 285.35 46.76 290.45 47.4 292.74C48.05 295.04 49.09 297.29 49.72 297.75C50.5 298.32 51.19 297.88 51.87 296.42C52.55 294.93 53.5 294.35 54.89 294.57C56.54 294.84 57.28 294.06 58.83 290.44C59.89 287.99 61.09 285.98 61.47 285.97C61.86 285.96 62.39 287.05 62.62 288.36C62.86 289.69 63.69 290.76 64.48 290.76C65.26 290.75 65.91 290.41 65.93 290.01C65.96 289.62 66.63 288.41 67.42 287.34C68.86 285.4 68.88 285.41 70.24 287.55C71 288.74 72.15 289.72 72.81 289.73C73.47 289.75 74.55 288.53 75.23 287.04C75.9 285.55 76.89 281.47 77.42 278.01C77.94 274.56 78.38 267.93 78.36 263.3C78.35 257.67 78.89 253.4 80.02 250.32C80.97 247.74 81.5 244.4 81.22 242.65C80.95 240.95 81.26 237.72 81.93 235.48C82.6 233.24 83.57 230.65 84.09 229.73C84.62 228.8 85.07 227.62 85.08 227.09C85.1 226.57 87.05 223.65 89.42 220.61C93.29 215.69 93.69 214.69 93.19 211.31C92.79 208.67 93.03 207.32 93.98 206.83C94.73 206.46 96.51 206.36 97.93 206.64C99.55 206.94 101.12 206.57 102.12 205.63C103 204.81 104.9 203.9 106.34 203.62C107.8 203.33 110.9 201.4 113.25 199.31C117.2 195.82 118 195.51 123.34 195.45C126.55 195.41 129.88 194.99 130.76 194.51C131.88 193.91 132.74 194.12 133.58 195.2C134.62 196.52 136.85 196.75 147.89 196.65C159.24 196.54 161.42 196.77 164.12 198.35C166.37 199.68 169.3 200.23 174.71 200.33C178.81 200.42 184.08 200.55 186.41 200.62C188.74 200.7 198.48 200.36 208.01 199.86C217.49 199.39 226.94 199.04 229.06 199.08C231.53 199.13 234.12 198.4 236.26 197.05C239.2 195.18 240.96 194.92 252.21 194.69C261.53 194.51 265.01 194.11 266.1 193.1C267.26 192.02 269.22 191.87 275.56 192.37C283 192.98 283.66 193.21 287.1 196.53C289.08 198.47 291.44 200.07 292.34 200.09C293.24 200.09 295.23 200.97 296.76 202.02C298.29 203.07 300.36 203.73 301.37 203.48C302.38 203.23 304.02 203.25 305.02 203.53C306.56 203.95 306.75 204.55 306.27 207.56C305.74 210.76 306.09 211.65 309.93 216.86C312.22 220.05 314.68 224.17 315.4 226.03C316.12 227.9 317.1 230.5 317.57 231.83C318.04 233.16 318.66 237.28 318.94 240.99C319.19 244.7 320.07 249.07 320.91 250.7C322.01 252.83 322.29 255.38 321.95 259.94C321.64 263.66 321.98 269.48 322.77 274.12C323.5 278.46 324.16 283.34 324.25 284.97C324.33 286.6 325.15 288.72 326.07 289.69C327.68 291.37 327.82 291.35 329.43 289.01C330.34 287.68 331.39 286.6 331.77 286.61C332.14 286.62 333.05 287.96 333.77 289.6C334.49 291.21 335.53 292.33 336.07 292.07C336.6 291.82 337.14 290.51 337.26 289.17C337.37 287.84 337.78 286.74 338.15 286.75C338.52 286.76 339.69 288.79 340.75 291.27C342.31 294.84 343.11 295.64 344.61 295.22C346.01 294.84 346.76 295.38 347.57 297.37C348.64 299.9 348.73 299.94 349.76 298.11C350.34 297.06 351.23 290.6 351.7 283.76C352.37 273.42 352.28 270.78 351.23 268.14C350.53 266.38 350.01 263.65 350.06 262.07C350.11 260.48 350.51 259.2 350.95 259.23C351.4 259.25 351.83 259.79 351.93 260.43C352.03 261.06 352.56 261.31 353.12 260.97C353.86 260.53 354.11 257.89 354.04 251.47C353.98 246.57 353.56 241.56 353.1 240.34C352.64 239.12 352.3 236.39 352.34 234.27C352.4 231.43 352.07 230.27 351.09 229.85C350.35 229.54 349.34 228.18 348.83 226.83C348.32 225.48 347.64 224.37 347.32 224.34C347 224.32 346.92 222.26 347.14 219.76C347.45 216.17 347.11 214.22 345.54 210.54L343.52 205.89C346.55 203.33 348.06 200.19 349.09 196.69C350.37 192.27 350.64 190.18 350.08 188.73C349.66 187.65 348.61 186.32 347.75 185.76C346.87 185.21 345.26 184.74 344.14 184.71C343.03 184.69 341.93 184.23 341.71 183.69C341.49 183.16 342.04 182.53 342.94 182.27C343.84 182.02 344.58 181.06 344.59 180.13C344.6 179.21 345.07 177.08 345.63 175.41C346.49 172.86 346.46 172.09 345.45 170.69C344.78 169.76 342.92 168.29 341.31 167.41C339.05 166.18 338.05 164.81 336.99 161.48C336.23 159.08 335.12 155.72 334.53 154C333.94 152.27 333.06 150.86 332.57 150.86C332.09 150.87 331.04 150.11 330.22 149.19C328.81 147.58 328.62 147.58 326.23 149.21C324.09 150.66 323.71 150.7 323.67 149.46C323.65 148.68 322.81 147.82 321.81 147.55C320.81 147.29 320.17 146.55 320.39 145.88C320.6 145.21 322.18 143.9 323.9 142.96C325.61 142.02 327.2 140.58 327.42 139.78C327.64 138.99 326.76 136.37 325.43 133.99C323.75 130.98 322.21 129.48 320.44 129.07C319.03 128.76 316.42 128.8 314.64 129.15C311.53 129.78 311.35 129.66 309.8 125.84L308.17 121.87C312.73 117.79 314.04 116.27 314.02 115.87C313.99 115.47 313.33 115.15 312.55 115.16C311.78 115.17 310.65 114.09 310.05 112.74C309.05 110.46 308.66 110.35 304.46 111.03C301.98 111.43 298.5 112.82 296.72 114.12C294.95 115.41 292.53 116.47 291.33 116.47C290.13 116.46 289.14 116.25 289.12 115.98C289.1 115.7 289.62 113.82 290.27 111.79C290.94 109.7 292.69 107.31 294.27 106.31C295.81 105.33 297.05 103.98 297.02 103.29C297 102.61 296.04 101.28 294.89 100.34C293.11 98.87 292.96 98.31 293.89 96.54C294.82 94.76 294.68 94.25 292.93 93.02C291.8 92.22 289.89 91.59 288.67 91.61C287.45 91.63 285.84 92.68 285.08 93.94L283.71 96.21C279.83 91.71 278.06 90.74 276.29 90.75C274.8 90.76 272.72 91.22 271.67 91.79C270.63 92.36 269.2 94.19 268.52 95.86C267.84 97.53 267.35 99.79 267.43 100.89C267.53 102.11 266.92 102.91 265.87 102.95C264.83 102.98 262.67 100.9 260.46 97.74L256.77 92.42C261.05 87.65 262.25 85.45 262.18 84.46C262.11 83.38 260.94 82.32 259.27 81.81C257.71 81.33 254.94 81.37 253.05 81.88C250.43 82.61 249.26 82.46 248.02 81.25C247.14 80.4 246.06 79.67 245.65 79.66C245.24 79.64 244.09 80.69 243.09 81.98L241.28 84.31C236.69 79.94 234.34 78.66 233.1 78.65C231.86 78.64 230.57 79.38 230.23 80.29C229.89 81.19 227.84 82.26 225.67 82.65C222.09 83.3 221.73 83.68 221.74 86.72C221.75 88.6 221.11 90.28 220.29 90.57C219.49 90.86 218.36 90.87 217.79 90.58C217.21 90.3 216.89 88.57 217.06 86.72C217.34 83.86 216.97 83.13 214.62 81.8C212.37 80.53 211.51 80.48 210.01 81.55C208.45 82.65 208.05 82.57 207.39 81.03C206.96 80.03 207.02 77.31 207.53 74.99C208.35 71.19 208.23 70.61 206.51 69.39C205.44 68.65 204.23 68.04 203.82 68.05C203.41 68.06 203.12 68.79 203.19 69.68C203.25 70.56 202.62 71.28 201.8 71.28C200.98 71.28 200.05 70.8 199.73 70.21C199.4 69.63 198.03 69.14 196.65 69.14C195.09 69.14 194.19 69.75 194.26 70.75C194.33 71.63 193.71 72.58 192.91 72.88C192.11 73.17 190.28 72.7 188.84 71.81C187.4 70.93 186.18 69.5 186.11 68.61C186.05 67.72 185.32 67 184.49 67C183.65 67 182.71 67.85 182.42 68.88Z"  fill="$[hairColor]" stroke="#000" stroke-width="4"/>
</svg>