<?xml version="1.0" encoding="UTF-8" standalone="no"?>
<svg
   xmlns:dc="http://purl.org/dc/elements/1.1/"
   xmlns:cc="http://creativecommons.org/ns#"
   xmlns:rdf="http://www.w3.org/1999/02/22-rdf-syntax-ns#"
   xmlns:svg="http://www.w3.org/2000/svg"
   xmlns="http://www.w3.org/2000/svg"
   xmlns:sodipodi="http://sodipodi.sourceforge.net/DTD/sodipodi-0.dtd"
   xmlns:inkscape="http://www.inkscape.org/namespaces/inkscape"
   inkscape:version="1.0 (4035a4fb49, 2020-05-01)"
   sodipodi:docname="emo.svg"
   id="svg366"
   version="1.1"
   height="600"
   width="400"
   viewBox="0 0 400 600">
  <metadata
     id="metadata372">
    <rdf:RDF>
      <cc:Work
         rdf:about="">
        <dc:format>image/svg+xml</dc:format>
        <dc:type
           rdf:resource="http://purl.org/dc/dcmitype/StillImage" />
      </cc:Work>
    </rdf:RDF>
  </metadata>
  <defs
     id="defs370" />
  <sodipodi:namedview
     inkscape:current-layer="svg366"
     inkscape:window-maximized="1"
     inkscape:window-y="-8"
     inkscape:window-x="1912"
     inkscape:cy="181.80147"
     inkscape:cx="262.75748"
     inkscape:zoom="3.36"
     showgrid="false"
     id="namedview368"
     inkscape:window-height="1417"
     inkscape:window-width="2560"
     inkscape:pageshadow="2"
     inkscape:pageopacity="0"
     guidetolerance="10"
     gridtolerance="10"
     objecttolerance="10"
     borderopacity="1"
     bordercolor="#666666"
     pagecolor="#ffffff" />
  <path
     sodipodi:nodetypes="ccsssscccssccsc"
     stroke-width="4"
     stroke="#000000"
     fill="$[hairColor]"
     d="M 60,310 H 50 V 300 C 50,166.62457 95.380119,105.85732 186.14036,100.40514 190.64829,100.13434 195.26817,100 200,100 c 100,0 150,60 150,200 v 10 h -10 c -5.86524,-19.53506 -9.39694,-26.98445 -15,-45 -2.91667,-4.70238 -25.53571,-47.02381 -35.53571,-57.02381 -10,-10 -53.45239,7.5 -84.10715,19.10714 -10.73269,4.06384 -108.964499,32.47469 -119.95712,32.1897 0,0 -7.085635,5.75527 -10.40002,5.72697 -5,5 -15,20 -15,25 z"
     id="Short" />
</svg>
