<svg xmlns="http://www.w3.org/2000/svg" viewBox="0 0 400 600" width="400" height="600">
	<path id="High" d="M221.25 57.51C219.56 58.29 217.41 59.47 216.49 60.12C215.57 60.77 213.07 62.02 210.92 62.9C208.76 63.78 205.79 65.62 204.34 66.99C202.89 68.34 200.4 69.94 198.79 70.55C197.17 71.16 193.2 72.96 189.95 74.52C186.68 76.07 182.7 78.47 181.14 79.84C179.58 81.21 176.98 82.98 175.35 83.79C173.72 84.59 171.86 85.06 171.23 84.83C170.59 84.61 168.32 85.29 166.17 86.35C164.01 87.39 161.32 88.57 160.2 88.96C159.07 89.36 156.63 90.62 154.77 91.76C152.92 92.89 151.07 93.84 150.67 93.88C150.26 93.92 148.47 94.89 146.69 96.04C144.92 97.18 143.3 98.12 143.09 98.14C142.89 98.15 140.66 99.35 138.15 100.79C135.63 102.22 132.41 104.3 130.99 105.41C129.57 106.52 127.75 108.33 126.94 109.43C125.57 111.32 125.26 111.44 121.46 111.53C118.04 111.65 116.81 112.02 113.77 113.81C111.33 115.25 109.74 116.66 108.89 118.16C108.2 119.38 106.21 122.37 104.49 124.8C101.83 128.58 100.31 129.97 93.34 135.02C88.98 138.2 83.68 142.06 81.52 143.59C78.72 145.6 77.23 147.18 76.2 149.2C75.42 150.75 73.98 153.82 73 156.03C72.04 158.23 71.14 160.44 70.97 160.95C70.81 161.45 69.1 163.05 67.21 164.52C64.42 166.7 63.73 167.6 63.3 169.58C63.01 170.9 62.77 172.38 62.75 172.87C62.74 173.35 61.71 174.64 60.49 175.72C59.28 176.81 58.01 178.25 57.64 178.94C57.28 179.62 56.42 182.48 55.75 185.3C55.1 188.12 54.48 191.64 54.36 193.11C54.19 195.37 53.62 196.55 50.87 200.58C49.15 203.22 47.56 206.35 47.28 207.53C47 208.71 46.99 211.11 47.26 212.89C47.69 215.83 47.62 216.35 46.48 218.82C45.81 220.3 45.23 222.54 45.19 223.78C45.15 225.03 45.38 226.82 45.7 227.77C46.21 229.3 46.13 229.82 44.97 232.39C44.27 233.99 43.68 236.05 43.65 236.97C43.62 237.89 43.81 239.36 44.06 240.24C44.31 241.11 44.83 242.18 45.22 242.62C45.67 243.14 45.93 245.17 45.96 248.53C45.98 251.44 45.71 254.9 45.32 256.52C44.85 258.52 44.78 259.74 45.11 260.51C45.37 261.12 45.38 262.07 45.13 262.63C44.88 263.19 44.47 265.54 44.21 267.87C43.91 270.51 43.93 272.58 44.27 273.34C44.58 274.05 44.68 277.44 44.49 281.35C44.23 286.59 44.36 288.81 45.08 290.89C45.62 292.37 46.18 294.88 46.33 296.48C46.48 298.07 47.05 299.68 47.59 300.04C48.14 300.4 49.24 300.42 50.02 300.08C50.81 299.75 52.77 298.17 54.36 296.6C55.94 295.05 57.54 293.68 57.91 293.54C58.28 293.41 59.29 292.41 60.14 291.33C60.99 290.26 61.66 288.96 61.62 288.43C61.59 287.91 62.7 285.97 64.08 284.14C65.46 282.34 66.71 280.4 66.86 279.83C67.01 279.25 67.5 278.68 67.94 278.56C68.39 278.44 69.94 276.76 71.39 274.85C72.85 272.95 74.16 270.71 74.29 269.86C74.43 269 74.92 268.1 75.37 267.86C75.83 267.61 76.71 266.85 77.32 266.17C78 265.43 78.56 263.68 78.74 261.79C78.92 260.05 79.6 257.55 80.27 256.23C80.94 254.92 81.36 253.57 81.2 253.23C81.04 252.89 81.85 251.41 83 249.94C84.71 247.81 85.06 246.97 84.73 245.75C84.5 244.9 84.35 243.84 84.38 243.4C84.41 242.95 84.62 241.7 84.86 240.63C85.1 239.56 85.56 237.55 85.87 236.17C86.21 234.74 87.22 232.91 88.21 231.94C89.22 230.96 90.04 229.54 90.12 228.6C90.2 227.7 89.88 226.1 89.4 225.03C88.93 223.96 88.6 222.76 88.65 222.38C88.7 222 89.6 220.86 90.67 219.86C92.1 218.53 92.69 217.41 92.89 215.7C93.07 214.24 93.65 212.99 94.42 212.42C95.11 211.92 95.76 210.82 95.86 209.99C95.97 209.15 95.83 208.04 95.54 207.52C95.17 206.88 95.53 205.7 96.71 203.71C97.66 202.13 99.68 199.71 101.2 198.34C103.63 196.19 104.25 195.9 105.93 196.16C107 196.32 108.02 196.53 108.21 196.61C108.39 196.7 109.58 196.49 110.86 196.15C112.14 195.82 113.87 195.42 114.72 195.26C115.56 195.11 117.48 194.68 118.99 194.32C120.49 193.96 122.63 193.35 123.74 192.97C125.47 192.37 126.11 192.42 128.18 193.35C129.68 194.01 131.36 194.31 132.57 194.12C133.64 193.95 136.69 194.16 139.34 194.57C143.6 195.23 144.56 195.64 147.23 197.85C149.44 199.62 151.25 200.48 153.56 200.87C155.9 201.26 157.43 201.26 159.04 200.87C160.26 200.58 162.31 199.82 163.59 199.17C165.28 198.32 166.24 198.13 167.2 198.47C167.92 198.73 169.91 199.1 171.61 199.3C173.31 199.5 175.04 199.82 175.45 199.99C175.86 200.17 177.78 200.5 179.7 200.72C181.63 200.94 184.42 201.35 185.91 201.63C187.85 201.99 189.55 201.98 191.82 201.6C193.57 201.3 196.23 200.98 197.74 200.87C199.88 200.73 200.82 200.91 202 201.69C202.83 202.24 204.92 202.86 206.63 203.07C208.75 203.33 210.55 203.24 212.28 202.81C213.67 202.45 215.42 201.58 216.17 200.86C217.04 200.02 218.15 199.57 219.25 199.62C220.19 199.66 221.09 199.85 221.25 200.05C221.41 200.24 222.7 200.58 224.11 200.8C225.74 201.05 228.14 200.96 230.63 200.55C232.79 200.19 234.97 199.93 235.49 199.96C236 199.99 237.57 199.36 238.96 198.56C241.14 197.29 241.7 197.17 243.32 197.67C244.35 197.98 246.01 198.23 247.01 198.23C248.01 198.22 250.58 198.88 252.74 199.69C254.88 200.5 257.45 201.21 258.44 201.27C259.43 201.33 260.95 201.19 261.8 200.95C262.66 200.71 264.33 199.97 265.52 199.31C266.72 198.64 268.06 198.26 268.57 198.47C269.07 198.67 272 199.06 275.06 199.32C279.43 199.7 280.97 199.64 282.49 199.03C284.1 198.38 284.68 198.37 286.16 198.97C287.13 199.36 289 199.99 290.32 200.38C291.64 200.76 293.32 201.22 294.07 201.38C294.81 201.55 296.32 201.97 297.44 202.32C298.55 202.66 299.59 202.89 299.76 202.81C299.92 202.74 300.84 202.59 301.79 202.48C303.28 202.29 303.81 202.57 305.85 204.57C307.13 205.84 308.81 208.08 309.59 209.53C310.56 211.35 310.84 212.42 310.5 213C310.23 213.45 310.07 214.44 310.14 215.2C310.21 215.96 310.76 216.96 311.35 217.44C312.01 217.98 312.5 219.12 312.62 220.44C312.76 221.99 313.26 223.02 314.49 224.27C315.41 225.22 316.19 226.29 316.23 226.63C316.27 226.98 315.95 228.04 315.53 228.99C315.09 229.94 314.79 231.38 314.85 232.19C314.91 233.04 315.61 234.37 316.5 235.31C317.36 236.24 318.24 237.96 318.53 239.27C318.8 240.55 319.19 242.42 319.4 243.41C319.61 244.41 319.79 245.57 319.82 245.98C319.84 246.4 319.71 247.37 319.51 248.14C319.22 249.25 319.53 250.05 321.03 252.11C322.04 253.54 322.76 254.97 322.62 255.27C322.48 255.58 322.85 256.87 323.44 258.14C324.02 259.41 324.63 261.8 324.79 263.45C324.95 265.25 325.44 266.93 326.03 267.67C326.57 268.35 327.32 269.12 327.72 269.38C328.11 269.64 328.53 270.52 328.65 271.33C328.76 272.15 329.88 274.35 331.12 276.23C332.34 278.13 333.64 279.8 334.02 279.94C334.39 280.07 334.8 280.64 334.92 281.19C335.04 281.74 336.06 283.64 337.17 285.4C338.28 287.18 339.14 289.05 339.1 289.54C339.05 290.03 339.57 291.27 340.25 292.31C340.92 293.34 341.69 294.3 341.98 294.43C342.26 294.56 343.49 295.86 344.69 297.32C345.87 298.79 347.33 300.25 347.94 300.57C348.54 300.88 349.42 300.9 349.89 300.61C350.35 300.31 350.93 298.94 351.16 297.56C351.4 296.17 352.03 294.03 352.56 292.79C353.29 291.04 353.54 289.11 353.62 284.47C353.66 280.97 353.91 277.94 354.21 277.36C354.53 276.72 354.63 274.86 354.48 272.41C354.35 270.25 354.07 268.02 353.87 267.46C353.67 266.9 353.71 266.03 353.96 265.51C354.28 264.85 354.26 263.7 353.89 261.76C353.6 260.17 353.44 256.88 353.53 254.12C353.63 250.91 353.9 249 354.32 248.56C354.68 248.19 355.17 247.21 355.41 246.39C355.66 245.57 355.84 244.01 355.82 242.93C355.8 241.85 355.29 239.73 354.67 238.24C353.62 235.76 353.57 235.4 354.11 233.72C354.43 232.71 354.66 230.91 354.62 229.72C354.59 228.53 354.08 226.3 353.48 224.76C352.47 222.22 352.41 221.69 352.8 218.65C353.04 216.79 353.03 214.27 352.79 213.04C352.54 211.81 351.12 208.61 349.6 205.96C347.2 201.95 346.71 200.76 346.55 198.4C346.45 196.85 345.9 193.18 345.34 190.23C344.75 187.29 344 184.31 343.7 183.62C343.39 182.93 342.32 181.57 341.32 180.58C340.31 179.6 339.46 178.37 339.44 177.84C339.43 177.32 339.23 175.74 339.01 174.34C338.65 172.15 338.12 171.38 335.34 169.02C333.54 167.51 331.98 165.84 331.9 165.31C331.82 164.77 331.29 163.73 330.72 162.98C330.15 162.23 329.25 160.17 328.73 158.41C328.09 156.27 327.13 154.58 325.86 153.38C324.78 152.36 323.6 150.44 323.15 148.95C322.7 147.49 321.67 145.67 320.85 144.9C320.03 144.12 318.56 143.18 317.59 142.81C316.62 142.43 315.54 141.39 315.19 140.49C314.84 139.59 313.74 138.18 312.74 137.35C311.75 136.52 310.23 135.91 309.37 135.99C308.5 136.08 307.46 135.75 307.04 135.27C306.63 134.78 305.98 133.42 305.61 132.24C305.24 131.05 303.67 128.63 302.14 126.86C300.62 125.05 298.2 121.91 296.75 119.88C295.34 117.81 293.71 115.88 293.11 115.64C292.51 115.39 291.01 113.57 289.8 111.58C288.36 109.09 286.58 107.06 284.36 105.43C282.57 104.07 280.24 102.56 279.14 102.1C278.06 101.64 276.3 100.77 275.24 100.16C274.18 99.55 272.87 97.95 272.33 96.6C271.8 95.23 271.11 94.07 270.77 94.04C270.44 94 269.7 92.09 269.17 89.76C268.68 87.39 267.85 84.73 267.28 83.88C266.71 83.03 264.85 82.21 263.09 82.05C259.93 81.78 259.87 81.71 258.83 76.71C258.13 72.53 257.68 71.51 256.42 71.56C255.16 71.62 254.76 70.7 254.44 66.8C254.22 62.7 253.89 61.83 252.39 61.64C251.14 61.5 249.86 62.23 248.29 64.01C246.03 66.53 246.02 66.53 246.22 64.23C246.35 62.95 245.75 60.62 244.9 59.07L243.39 56.26L236.68 61.05C234.1 56.81 233.16 56.5 230.59 57.15C228.8 57.61 226.64 57.55 225.82 57.02C224.81 56.39 223.3 56.56 221.25 57.51Z" fill="$[hairColor]" stroke="#000" stroke-width="4"/>
</svg>