<svg xmlns="http://www.w3.org/2000/svg" viewBox="0 0 400 600" width="400" height="600">
	<path id="High" d="M185.23 46.94C183.93 47.91 182.35 49.31 181.73 50.04C181.11 50.78 179.23 52.29 177.55 53.39C175.85 54.5 173.76 56.6 172.89 58.06C172.02 59.51 170.27 61.31 168.99 62.08C167.71 62.85 164.66 65 162.21 66.84C159.73 68.67 156.85 71.35 155.84 72.82C154.82 74.27 152.98 76.21 151.73 77.15C150.49 78.07 148.96 78.7 148.34 78.55C147.72 78.4 145.88 79.27 144.24 80.48C142.59 81.68 140.5 83.05 139.6 83.53C138.7 84.01 136.85 85.43 135.47 86.69C134.09 87.93 132.67 89 132.32 89.07C131.98 89.14 130.61 90.23 129.29 91.48C127.96 92.72 126.72 93.75 126.55 93.78C126.37 93.81 124.65 95.15 122.71 96.74C120.77 98.31 118.3 100.57 117.23 101.76C116.17 102.94 114.84 104.84 114.3 105.98C113.36 107.92 113.1 108.06 109.8 108.41C106.84 108.76 105.82 109.2 103.38 111.16C101.42 112.72 100.19 114.21 99.6 115.76C99.12 117.01 97.67 120.11 96.37 122.63C94.35 126.57 93.11 128.05 87.28 133.51C83.59 136.93 79.06 141.07 77.2 142.72C74.78 144.86 73.5 146.52 72.64 148.62C71.99 150.22 70.78 153.4 69.96 155.69C69.14 157.98 68.37 160.27 68.23 160.79C68.09 161.31 66.58 162.98 64.88 164.51C62.39 166.77 61.77 167.7 61.4 169.73C61.16 171.09 60.96 172.61 60.94 173.11C60.93 173.61 60.01 174.92 58.91 176.02C57.81 177.12 56.66 178.59 56.33 179.28C56.01 179.97 55.24 182.89 54.64 185.75C54.05 188.62 53.5 192.19 53.4 193.69C53.25 195.99 52.74 197.17 50.22 201.12C48.64 203.69 47.18 206.73 46.93 207.9C46.67 209.08 46.67 211.5 46.92 213.32C47.32 216.34 47.25 216.85 46.21 219.22C45.59 220.64 45.06 222.82 45.02 224.07C44.98 225.31 45.19 227.15 45.49 228.15C45.96 229.76 45.89 230.26 44.82 232.69C44.17 234.18 43.62 236.15 43.6 237.07C43.57 237.99 43.74 239.49 43.98 240.41C44.22 241.33 44.7 242.5 45.06 243.01C45.48 243.62 45.72 245.71 45.75 249.11C45.78 252.05 45.53 255.48 45.17 257.03C44.72 258.92 44.66 260.13 44.97 260.99C45.22 261.67 45.23 262.63 45 263.13C44.76 263.63 44.38 265.88 44.13 268.14C43.85 270.71 43.87 272.78 44.19 273.65C44.49 274.45 44.59 277.89 44.41 281.77C44.17 286.93 44.3 289.21 45.01 291.58C45.54 293.28 46.1 296.05 46.26 297.74C46.42 299.42 47 301.3 47.54 301.91C48.1 302.52 49.2 303.03 49.98 303.04C50.76 303.04 52.68 302.25 54.23 301.27C55.77 300.3 57.32 299.51 57.68 299.52C58.05 299.52 59.01 298.86 59.83 298.03C60.63 297.21 61.25 296.05 61.2 295.46C61.15 294.87 62.18 293.17 63.47 291.68C64.76 290.18 65.92 288.48 66.05 287.89C66.18 287.3 66.63 286.83 67.06 286.85C67.49 286.86 68.94 285.5 70.28 283.82C71.63 282.13 72.82 279.98 72.93 279.05C73.04 278.12 73.48 277.24 73.91 277.09C74.34 276.94 75.16 276.32 75.73 275.71C76.35 275.04 76.84 273.18 76.96 271.05C77.08 269.1 77.68 266.4 78.28 265.04C78.88 263.68 79.25 262.22 79.09 261.79C78.94 261.37 79.67 259.84 80.74 258.39C82.32 256.28 82.63 255.38 82.29 253.9C82.06 252.88 81.9 251.63 81.91 251.12C81.93 250.61 82.12 249.21 82.32 248.02C82.53 246.83 82.93 244.59 83.2 243.06C83.5 241.47 84.43 239.52 85.35 238.54C86.29 237.55 87.04 236.02 87.1 234.95C87.16 233.93 86.83 232.04 86.37 230.77C85.91 229.49 85.57 228.09 85.61 227.66C85.65 227.23 86.49 226.03 87.48 224.99C88.81 223.61 89.36 222.39 89.52 220.45C89.66 218.8 90.19 217.42 90.91 216.83C91.55 216.31 92.14 215.1 92.23 214.15C92.32 213.2 92.16 211.93 91.87 211.33C91.52 210.58 91.84 209.26 92.91 207.07C93.77 205.33 95.63 202.68 97.03 201.18C99.26 198.81 99.84 198.51 101.43 198.84C102.44 199.06 103.42 199.32 103.59 199.42C103.77 199.52 104.89 199.31 106.09 198.95C107.29 198.6 108.92 198.17 109.71 198.01C110.51 197.85 112.31 197.39 113.73 196.99C115.15 196.59 117.16 195.9 118.2 195.46C119.82 194.77 120.43 194.84 122.43 195.94C123.89 196.74 125.49 197.1 126.64 196.88C127.66 196.69 130.58 196.94 133.13 197.45C137.24 198.25 138.18 198.74 140.83 201.44C143.01 203.63 144.79 204.7 147.03 205.18C149.31 205.67 150.78 205.68 152.33 205.19C153.5 204.82 155.46 203.85 156.67 203.04C158.28 201.95 159.21 201.7 160.15 202.12C160.86 202.43 162.8 202.87 164.46 203.11C166.13 203.34 167.83 203.71 168.23 203.93C168.64 204.16 170.52 204.54 172.41 204.79C174.3 205.03 177.05 205.5 178.52 205.83C180.43 206.25 182.09 206.2 184.31 205.64C186.02 205.21 188.63 204.71 190.12 204.52C192.22 204.26 193.15 204.47 194.34 205.44C195.18 206.12 197.26 206.85 198.96 207.06C201.06 207.32 202.85 207.13 204.55 206.49C205.92 205.96 207.64 204.74 208.36 203.77C209.2 202.64 210.29 202.01 211.38 202.02C212.33 202.02 213.23 202.23 213.4 202.48C213.57 202.73 214.86 203.1 216.28 203.31C217.91 203.55 220.31 203.3 222.8 202.64C224.96 202.06 227.14 201.6 227.66 201.61C228.17 201.62 229.73 200.73 231.11 199.63C233.27 197.88 233.84 197.7 235.49 198.23C236.53 198.57 238.22 198.79 239.23 198.73C240.24 198.66 242.87 199.34 245.07 200.22C247.27 201.11 249.89 201.83 250.9 201.84C251.91 201.85 253.44 201.57 254.31 201.21C255.18 200.86 256.87 199.83 258.07 198.93C259.29 198.01 260.66 197.46 261.18 197.69C261.7 197.91 264.7 198.19 267.84 198.3C272.34 198.47 273.92 198.3 275.48 197.47C277.13 196.58 277.72 196.53 279.26 197.15C280.27 197.55 282.21 198.18 283.58 198.54C284.94 198.91 286.69 199.32 287.46 199.47C288.22 199.62 289.8 200 290.95 200.32C292.1 200.64 293.19 200.82 293.36 200.73C293.53 200.64 294.48 200.39 295.46 200.19C297.01 199.86 297.56 200.14 299.68 202.29C301.01 203.65 302.76 206.07 303.56 207.67C304.56 209.68 304.85 210.88 304.49 211.58C304.21 212.13 304.03 213.3 304.1 214.17C304.17 215.04 304.73 216.15 305.34 216.63C306.03 217.18 306.52 218.44 306.63 219.96C306.76 221.76 307.27 222.89 308.54 224.17C309.49 225.15 310.29 226.27 310.33 226.67C310.36 227.07 310.02 228.37 309.56 229.55C309.09 230.74 308.75 232.5 308.8 233.46C308.85 234.47 309.57 235.92 310.48 236.87C311.37 237.81 312.27 239.68 312.55 241.19C312.82 242.67 313.2 244.82 313.41 245.98C313.61 247.13 313.79 248.49 313.81 248.99C313.83 249.48 313.67 250.7 313.45 251.69C313.13 253.14 313.44 254.03 315 256.16C316.07 257.63 316.81 259.18 316.66 259.6C316.51 260.02 316.89 261.5 317.51 262.89C318.13 264.28 318.76 267.06 318.92 269.06C319.09 271.26 319.62 273.21 320.26 273.92C320.84 274.58 321.67 275.25 322.1 275.42C322.53 275.59 323 276.53 323.13 277.51C323.27 278.49 324.52 280.8 325.92 282.63C327.33 284.47 328.83 285.97 329.25 285.96C329.68 285.96 330.15 286.47 330.31 287.1C330.46 287.74 331.69 289.59 333.05 291.23C334.41 292.85 335.52 294.7 335.5 295.33C335.48 295.96 336.17 297.21 337.04 298.1C337.91 298.99 338.92 299.71 339.27 299.7C339.62 299.69 341.2 300.53 342.8 301.55C344.41 302.56 346.39 303.35 347.18 303.33C347.97 303.3 349.06 302.76 349.59 302.12C350.11 301.49 350.61 299.57 350.69 297.86C350.77 296.16 351.24 293.39 351.71 291.71C352.34 289.38 352.4 287.12 351.97 281.98C351.67 278.12 351.68 274.71 351.97 273.95C352.28 273.13 352.25 271.08 351.9 268.5C351.59 266.22 351.15 263.93 350.89 263.4C350.64 262.87 350.63 261.92 350.88 261.28C351.19 260.47 351.11 259.25 350.62 257.3C350.22 255.71 349.91 252.25 349.92 249.32C349.92 245.92 350.16 243.84 350.6 243.28C350.97 242.81 351.47 241.68 351.71 240.77C351.95 239.86 352.12 238.22 352.07 237.11C352.03 236 351.45 233.94 350.77 232.54C349.63 230.2 349.58 229.83 350.13 228.02C350.46 226.94 350.69 225.06 350.65 223.87C350.61 222.67 350.06 220.48 349.43 219.01C348.37 216.58 348.31 216.05 348.75 212.94C349.01 211.04 349.02 208.52 348.77 207.31C348.52 206.11 347.07 203.03 345.5 200.49C343.02 196.61 342.52 195.44 342.39 193.07C342.3 191.52 341.78 187.85 341.22 184.92C340.64 181.97 339.9 179 339.58 178.31C339.26 177.62 338.14 176.24 337.08 175.24C336 174.24 335.11 172.98 335.1 172.45C335.09 171.92 334.89 170.32 334.66 168.9C334.3 166.68 333.73 165.88 330.74 163.37C328.78 161.74 327.1 159.95 327.01 159.41C326.92 158.86 326.34 157.75 325.71 156.95C325.08 156.14 324.09 153.97 323.49 152.12C322.77 149.86 321.68 148.03 320.26 146.7C319.05 145.55 317.7 143.45 317.15 141.85C316.62 140.29 315.4 138.28 314.46 137.39C313.52 136.5 311.84 135.37 310.74 134.89C309.64 134.4 308.38 133.19 307.94 132.2C307.5 131.21 306.18 129.6 305.01 128.62C303.84 127.63 302.09 126.83 301.12 126.85C300.16 126.86 298.96 126.42 298.46 125.86C297.96 125.3 297.12 123.77 296.59 122.46C296.07 121.14 294.06 118.38 292.13 116.31C290.2 114.21 287.06 110.57 285.14 108.23C283.22 105.85 281.06 103.62 280.34 103.31C279.61 102.99 277.59 100.9 275.85 98.62C273.74 95.8 271.28 93.48 268.39 91.59C266.05 90.03 263.03 88.31 261.68 87.79C260.33 87.27 258.11 86.3 256.76 85.63C255.41 84.96 253.51 83.23 252.54 81.76C251.58 80.28 250.47 79.04 250.08 79.01C249.69 78.98 248.32 76.93 247.04 74.43C245.77 71.9 243.99 69.09 243.07 68.22C242.15 67.33 239.79 66.56 237.77 66.5C234.18 66.43 234.08 66.36 231.2 61.22C228.89 56.96 228.01 55.96 226.65 56.14C225.3 56.32 224.51 55.42 222.64 51.5C220.74 47.4 220.02 46.57 218.33 46.57C216.93 46.59 215.89 47.49 214.95 49.45C213.58 52.22 213.56 52.23 212.86 49.93C212.47 48.65 210.9 46.44 209.36 45.04L206.6 42.53L201.77 48.1C197.45 44.42 196.39 44.26 194.13 45.25C192.55 45.94 190.43 46.2 189.42 45.82C188.19 45.38 186.81 45.75 185.23 46.94Z" fill="$[hairColor]" stroke="#000" stroke-width="4"/>
</svg>