<svg xmlns="http://www.w3.org/2000/svg" viewBox="0 0 400 600" width="400" height="600">
	<path id="hair-02" d="M171.12 67.43C168.57 68.17 165.97 69.33 165.34 70C164.72 70.68 163.11 71.72 161.78 72.31C160.38 72.94 158 75.46 156.13 78.3C154.36 80.97 151.02 84.85 148.7 86.92C146.39 88.99 142.62 93.42 140.35 96.71C138.1 99.97 135.38 103.14 134.29 103.79C133.21 104.45 130.46 105 128.19 105.01C125.92 105.03 124 105.32 123.93 105.64C123.86 105.97 121.77 107.06 119.29 108.05C116.81 109.02 110.96 110.53 106.28 111.38C101.62 112.22 96.38 113.17 94.63 113.51C92.87 113.85 90.19 114.62 88.66 115.2C87.12 115.78 85.33 116.23 84.67 116.2C84.01 116.16 81.28 117.32 78.61 118.74C75.81 120.18 73.35 121.96 72.75 123C72.19 123.98 70.96 125.89 69.99 127.23C69.03 128.57 67.78 131.43 67.2 133.59C66.62 135.73 66.3 138.22 66.5 139.15C66.69 140.08 66.66 141.7 66.42 142.73C66.17 143.76 65.87 146.3 65.74 148.37C65.6 150.41 65.11 154.07 64.64 156.48C64.15 158.87 63.66 161.53 63.57 162.44C63.46 163.33 63.29 166.38 63.16 169.2C63.04 171.99 63.04 176.28 63.16 178.72C63.31 181.41 62.97 183.9 62.33 185.08C61.74 186.16 61.02 187.36 60.74 187.77C60.47 188.18 59.72 189.1 59.09 189.82C58.45 190.54 56.77 191.93 55.36 192.92C53.93 193.9 50.54 196.51 47.79 198.72C44.97 200.9 41.47 203.57 40.04 204.67C38.6 205.76 37.44 206.83 37.47 207.06C37.5 207.28 37 207.98 36.35 208.62C35.69 209.26 34.55 211.05 33.82 212.62C33.09 214.18 32.26 215.89 32 216.4C31.73 216.92 31.24 218.47 30.9 219.85C30.57 221.23 30.5 223.95 30.74 225.91C30.99 227.85 31.59 230.6 32.07 232.01C32.55 233.42 33.93 236.9 35.14 239.75C36.33 242.59 37.92 246.07 38.66 247.5C39.4 248.93 40.15 251.19 40.31 252.51C40.48 253.83 40.44 256.13 40.24 257.62C40.02 259.1 39.13 261.68 38.23 263.36C37.35 265.06 36.3 268.48 35.91 270.98C35.54 273.48 35.48 276.82 35.75 278.38C36.02 279.95 37.15 283.48 38.23 286.22C39.29 288.94 40.61 291.66 41.18 292.27C41.75 292.88 43.8 294.96 45.71 296.88C47.55 298.79 49.55 300.49 50.24 300.69C50.92 300.9 52.68 300.8 54.15 300.49C55.63 300.17 58.15 299.39 59.75 298.75C61.37 298.12 63.24 296.97 63.89 296.19C64.55 295.4 65.09 294.65 65.1 294.52C65.1 294.38 65.89 293.26 66.84 292.03C67.8 290.8 69.55 287.54 70.73 284.77C71.89 282.02 72.85 279.12 72.85 278.3C72.85 277.49 73.59 274.68 74.45 272.06C75.31 269.45 76.41 265.04 76.88 262.25C77.32 259.48 77.65 256.42 77.6 255.47C77.54 254.51 78.2 250.62 79 246.81C79.75 243 80.31 237.98 80.27 235.67C80.2 233.07 80.61 230.28 81.33 228.41C81.97 226.74 82.94 224.88 83.47 224.29C84.02 223.7 84.56 222.78 84.68 222.24C84.8 221.72 87.65 219.28 90.96 216.82C94.2 214.31 98.64 211.12 100.87 209.75C103.08 208.36 106.6 206.5 108.69 205.64C110.79 204.76 114.22 202.89 116.33 201.48C118.42 200.05 121.69 197.11 123.61 194.94C125.51 192.74 127.6 190.15 128.27 189.21C129.03 188.11 130.01 187.51 130.92 187.58C131.72 187.63 133.02 188 133.81 188.41C134.6 188.83 137.28 190.68 139.76 192.53C142.22 194.36 145.86 196.93 147.85 198.25C149.84 199.57 153.75 202 156.53 203.62C159.29 205.24 162.51 207.07 163.71 207.71C164.9 208.36 166.53 209.22 167.32 209.63C168.12 210.05 170.1 210.86 171.71 211.44C173.32 212.01 177.96 212.98 182 213.57C189.04 214.5 189.39 214.61 193.63 217.06C196.01 218.43 199.1 220.49 200.52 221.65C202.43 223.22 203.28 224.36 203.94 226.27C204.43 227.66 205.1 229.71 205.45 230.82C205.81 231.93 206.74 233.45 207.52 234.2C208.51 235.15 209.54 235.59 210.91 235.64C212.62 235.72 213.76 235.21 219.39 231.84C223 229.66 229.13 225.55 233.05 222.7C236.98 219.8 241.39 216.38 242.81 215.14C244.23 213.89 246.63 211.7 248.15 210.26C249.66 208.82 252.99 205.67 255.55 203.26C259.72 199.32 260.37 198.46 261.29 195.79C262.12 193.38 262.8 192.38 264.62 190.9C266.11 189.7 268.18 188.64 270.45 187.95C272.42 187.33 275.38 186.8 277.2 186.74C278.99 186.68 281.91 186.87 283.68 187.15C285.47 187.43 288.01 188.09 289.34 188.61C290.66 189.14 294.46 191.79 297.8 194.5C303.37 198.98 304.14 199.86 306.13 204C307.34 206.51 308.99 210.7 309.79 213.3C310.59 215.92 311.74 219.34 312.32 220.93C312.9 222.53 313.65 225.17 313.99 226.8C314.33 228.43 315.16 231.2 315.84 232.95C316.66 235.02 317.25 238.25 317.57 242.2C317.85 245.54 318.45 250.84 318.92 254.01C319.41 257.16 320.27 263.56 320.85 268.23C321.77 274.98 322.44 277.69 324.13 281.75C325.31 284.54 326.91 287.77 327.68 288.94C328.45 290.09 329.53 292.08 330.07 293.35C330.63 294.61 331.83 296.19 332.75 296.86C333.67 297.54 334.45 298.33 334.48 298.62C334.51 298.91 335.8 299.82 337.32 300.64C339.56 301.83 340.67 302.08 343.1 301.95C344.75 301.85 347.01 301.49 348.12 301.14C349.84 300.61 350.37 300.05 351.52 297.65C352.3 296.07 353.74 293.77 354.74 292.54C355.74 291.31 357.12 289.41 357.78 288.34C358.45 287.26 359.2 284.89 359.44 283.07C359.71 280.92 360.62 278.39 361.99 275.99C364.13 272.29 364.17 272.07 364.35 264.77C364.45 258.61 364.24 256.63 363.17 254.07C362.43 252.34 361.16 249.91 360.36 248.67C359.54 247.43 358.13 245.55 357.23 244.48C355.99 243.03 355.59 241.83 355.62 239.6C355.63 237.96 356.11 234.86 356.68 232.68C357.24 230.49 358.23 227.97 358.85 227.08C359.8 225.73 360.02 223.83 360.1 216.12C360.19 208.41 360.41 206.35 361.4 204.47C362.23 202.89 362.7 200.28 362.91 196.08L363.21 190C359.96 186.82 357.23 185.08 355.05 184.07C352.89 183.07 350.43 181.95 349.57 181.59C348.72 181.21 346.06 180.09 343.69 179.1C341.35 178.12 338.06 176.11 336.41 174.63C334.75 173.18 333 171.24 332.5 170.32C332 169.41 330.55 167.36 329.3 165.76C328.04 164.16 326.39 161.47 325.63 159.78C324.87 158.08 324.3 156.18 324.35 155.55C324.39 154.92 324.13 153.2 323.76 151.73C323.39 150.26 322.16 148.11 321.04 146.94C319.91 145.77 318.77 144.46 318.48 144.03C318.2 143.59 316.09 140.57 313.8 137.28C311.25 133.57 309.08 129.48 308.19 126.76C307.39 124.3 306.31 121.67 305.78 120.94C305.26 120.19 303.65 117.18 302.18 114.21C299.82 109.42 298.75 108.04 294.09 103.8C290.14 100.13 287.27 98.03 283.82 96.35C279.36 94.13 278.71 93.98 275.35 94.51C273.36 94.83 270.23 95.61 268.4 96.24C266.56 96.88 264.24 97.44 263.23 97.47C262.23 97.51 259.67 96.47 257.52 95.14C254.06 92.96 253.09 92.69 249.14 92.77C246.28 92.84 242.51 92.21 238.69 91.02C235.38 89.97 230.47 87.72 227.79 86.01C225.09 84.28 220.67 81.67 217.97 80.2C215.25 78.71 210.67 76.53 207.79 75.36C204.9 74.19 200.61 72.47 198.25 71.54C195.9 70.62 191.92 69.35 189.4 68.73C186.9 68.09 183.94 67.21 182.84 66.75C181.75 66.29 179.71 65.96 178.31 66.01C176.91 66.08 173.68 66.71 171.12 67.43Z" fill="$[hairColor]" stroke="#000" stroke-width="2"/>
</svg>