<svg xmlns="http://www.w3.org/2000/svg" viewBox="0 0 400 600" width="400" height="600">
	<path id="hair01" d="M186.58 75.85C184.25 76.29 181.83 76.98 181.21 77.39C180.59 77.8 179.06 78.43 177.82 78.78C176.51 79.16 174.13 80.7 172.17 82.46C170.3 84.13 166.87 86.57 164.54 87.88C162.21 89.2 158.26 92.07 155.78 94.25C153.29 96.44 150.37 98.6 149.28 99.04C148.19 99.49 145.58 99.85 143.49 99.84C141.39 99.83 139.58 100.02 139.46 100.25C139.35 100.48 137.25 101.24 134.8 101.94C132.35 102.63 126.66 103.72 122.15 104.36C117.65 105 112.56 105.76 110.85 106.04C109.14 106.32 106.47 106.95 104.92 107.43C103.36 107.92 101.58 108.31 100.96 108.3C100.34 108.28 97.54 109.28 94.74 110.52C91.8 111.82 89.11 113.43 88.34 114.35C87.62 115.22 86.07 116.95 84.89 118.19C83.71 119.44 81.95 122.11 80.97 124.13C80 126.15 79.2 128.5 79.2 129.35C79.2 130.21 78.85 131.74 78.41 132.75C77.97 133.76 77.18 136.24 76.64 138.26C76.1 140.28 74.92 143.96 74 146.45C73.08 148.94 72.11 151.73 71.85 152.67C71.58 153.6 70.84 156.78 70.2 159.73C69.57 162.68 68.79 167.2 68.47 169.76C68.13 172.6 67.4 175.34 66.63 176.76C65.93 178.05 65.1 179.51 64.79 180.02C64.48 180.53 63.68 181.7 63.02 182.63C62.36 183.56 60.7 185.47 59.35 186.88C57.99 188.3 54.79 191.98 52.23 195.08C49.67 198.17 46.55 201.97 45.3 203.53C44.05 205.08 43.03 206.54 43.03 206.78C43.03 207.01 42.57 207.9 42 208.75C41.42 209.61 40.37 211.83 39.66 213.7C38.95 215.56 38.16 217.6 37.91 218.22C37.66 218.84 37.14 220.62 36.76 222.18C36.38 223.73 36.07 226.65 36.07 228.68C36.07 230.7 36.26 233.49 36.48 234.89C36.71 236.29 37.41 239.72 38.05 242.52C38.68 245.32 39.56 248.75 39.99 250.15C40.43 251.55 40.79 253.84 40.79 255.24C40.79 256.63 40.53 259.11 40.22 260.75C39.9 262.38 38.91 265.3 38 267.24C37.1 269.19 35.83 273 35.18 275.72C34.53 278.44 34 282 34 283.63C34 285.27 34.45 288.9 34.99 291.72C35.53 294.53 36.35 297.33 36.8 297.93C37.26 298.54 38.97 300.62 40.62 302.56C42.26 304.51 44.17 306.24 44.87 306.42C45.57 306.6 47.42 306.38 48.97 305.94C50.52 305.49 53.13 304.45 54.76 303.63C56.39 302.81 58.24 301.38 58.86 300.45C59.48 299.51 59.99 298.62 59.99 298.47C59.99 298.31 60.71 296.98 61.59 295.5C62.46 294.02 63.99 290.15 64.99 286.88C65.98 283.62 66.78 280.19 66.77 279.25C66.76 278.32 67.39 275.02 68.15 271.91C68.92 268.8 69.94 263.59 70.42 260.32C70.89 257.06 71.29 253.5 71.29 252.41C71.29 251.32 72.07 246.74 73.01 242.24C73.95 237.73 74.87 231.88 75.06 229.24C75.27 226.28 75.93 223.03 76.78 220.76C77.54 218.74 78.62 216.45 79.17 215.68C79.73 214.9 80.33 213.76 80.51 213.13C80.69 212.51 83.58 209.23 86.94 205.85C90.3 202.47 94.96 198.15 97.29 196.27C99.62 194.39 103.31 191.83 105.48 190.59C107.66 189.35 111.35 186.89 113.68 185.12C116.01 183.35 119.82 179.9 122.15 177.45C124.48 175 127.09 172.18 127.95 171.17C128.93 170.01 130.02 169.34 130.91 169.34C131.69 169.34 132.9 169.63 133.6 169.99C134.3 170.36 136.6 172.07 138.71 173.81C140.82 175.55 144 178.03 145.77 179.32C147.55 180.62 151.11 183.04 153.69 184.69C156.27 186.35 159.32 188.27 160.47 188.95C161.62 189.64 163.2 190.57 163.97 191.02C164.75 191.47 166.72 192.37 168.35 193.02C169.98 193.67 174.82 194.84 179.09 195.63C186.63 197 187 197.14 191.38 200.11C193.87 201.8 197.11 204.34 198.59 205.76C200.61 207.7 201.47 209.06 202.08 211.3C202.53 212.93 203.16 215.35 203.49 216.67C203.83 217.99 204.8 219.85 205.65 220.8C206.73 222 207.89 222.62 209.46 222.82C211.42 223.08 212.75 222.61 219.35 219.34C223.55 217.27 230.67 213.41 235.18 210.76C239.68 208.11 244.67 205.02 246.26 203.89C247.85 202.76 250.52 200.77 252.2 199.47C253.87 198.17 257.5 195.37 260.27 193.25C264.72 189.84 265.41 189.06 266.34 186.43C267.18 184.07 267.88 183.16 269.79 181.97C271.34 181.01 273.5 180.31 275.87 180.02C277.93 179.76 281.02 179.79 282.93 180.08C284.8 180.37 287.85 181.14 289.71 181.78C291.58 182.42 294.25 183.61 295.65 184.42C297.04 185.23 301.08 188.72 304.62 192.17C310.47 197.87 311.28 198.91 313.43 203.53C314.73 206.32 316.5 210.9 317.36 213.7C318.21 216.5 319.4 220.18 319.99 221.89C320.58 223.6 321.34 226.4 321.68 228.11C322.02 229.82 322.83 232.74 323.49 234.61C324.27 236.82 324.82 240.17 325.07 244.22C325.28 247.64 325.73 253.1 326.08 256.37C326.43 259.63 326.96 266.24 327.26 271.06C327.69 278.06 328.13 280.9 329.44 285.19C330.34 288.14 331.61 291.57 332.25 292.82C332.9 294.06 333.76 296.18 334.17 297.53C334.59 298.88 335.62 300.59 336.48 301.34C337.33 302.09 338.03 302.96 338.03 303.27C338.03 303.58 339.24 304.6 340.71 305.54C342.88 306.92 344 307.25 346.51 307.24C348.22 307.23 350.57 306.97 351.73 306.66C353.52 306.19 354.09 305.63 355.33 303.13C356.15 301.5 357.62 299.15 358.61 297.9C359.6 296.66 360.93 294.75 361.55 293.66C362.18 292.58 362.86 290.16 363.05 288.3C363.27 286.12 364.07 283.59 365.27 281.23C367.1 277.63 367.13 277.41 367.13 270.21C367.12 264.22 366.91 262.29 365.97 259.76C365.33 258.05 364.24 255.63 363.55 254.39C362.85 253.14 361.65 251.24 360.88 250.15C359.82 248.66 359.48 247.48 359.5 245.35C359.51 243.79 359.91 240.87 360.39 238.85C360.86 236.83 361.69 234.54 362.21 233.76C363.01 232.59 363.19 230.82 363.24 223.59C363.3 216.38 363.49 214.48 364.32 212.85C365.02 211.49 365.41 209.11 365.59 205.22L365.85 199.57C363.06 196.07 360.68 193.96 358.76 192.63C356.84 191.29 354.63 189.78 353.85 189.27C353.08 188.75 350.65 187.17 348.46 185.76C346.27 184.34 343.15 181.72 341.54 179.93C339.92 178.15 338.17 175.86 337.66 174.85C337.14 173.84 335.65 171.48 334.36 169.62C333.06 167.75 331.31 164.7 330.48 162.84C329.64 160.97 328.97 158.94 328.98 158.32C328.99 157.7 328.63 155.92 328.18 154.36C327.73 152.81 326.39 150.39 325.21 148.98C324.02 147.58 322.8 146.03 322.49 145.54C322.18 145.05 319.9 141.62 317.43 137.92C314.68 133.8 312.3 129.44 311.28 126.67C310.36 124.18 309.17 121.51 308.62 120.74C308.07 119.96 306.36 116.91 304.81 113.96C302.36 109.3 301.28 107.95 296.7 103.77C292.88 100.31 290.14 98.36 286.89 96.8C282.71 94.8 282.11 94.66 278.97 94.99C277.11 95.19 274.19 95.72 272.48 96.17C270.77 96.62 268.6 96.99 267.67 96.98C266.74 96.98 264.39 96.09 262.44 95.01C259.32 93.27 258.44 93.05 254.82 93.04C252.2 93.04 248.78 92.52 245.35 91.6C242.4 90.8 238.07 89.16 235.74 87.95C233.41 86.74 229.6 84.95 227.27 83.96C224.93 82.97 220.99 81.55 218.51 80.8C216.02 80.05 212.33 78.97 210.31 78.39C208.29 77.82 204.86 77.04 202.68 76.66C200.51 76.27 197.96 75.73 197.03 75.45C196.1 75.17 194.32 74.97 193.08 75C191.83 75.04 188.91 75.42 186.58 75.85Z" fill="$[hairColor]" stroke="#000" stroke-width="2"/>
</svg>