<svg xmlns="http://www.w3.org/2000/svg" viewBox="0 0 400 600" width="400" height="600">
	<path id="hair-01" d="M185 76.42C182.52 77.13 179.37 78.16 178 78.72C176.62 79.28 174.15 80.85 172.5 82.2C170.85 83.56 166.8 86.54 163.5 88.84C160.2 91.14 155.25 94.61 152.5 96.55C148.99 99.03 146.46 100.06 144 100.02C142.07 99.99 138.7 100.59 136.5 101.36C134.3 102.14 127.55 103.54 121.5 104.48C115.45 105.43 107.57 106.87 104 107.69C100.42 108.51 95.47 110.21 93 111.47C90.5 112.74 86.82 115.92 84.7 118.63C82.31 121.7 80.16 126.09 78.89 130.5C77.79 134.35 75.56 141.55 73.94 146.5C72.32 151.45 70.09 160.22 68.99 166C67.7 172.71 66.12 177.76 64.62 180C63.33 181.92 58.37 188 53.61 193.5C47.65 200.37 43.65 206.16 40.8 212C37.78 218.22 36.55 222.11 36.23 226.5C35.93 230.71 36.58 235.94 38.43 244C40.61 253.54 40.88 256.27 40.05 260C39.5 262.47 38.14 266.86 37.03 269.75C35.91 272.64 34.72 277.36 34.38 280.25C34.05 283.14 34.26 287.97 34.87 291C35.62 294.73 37.18 298.04 39.74 301.29C41.81 303.92 43.95 306.24 44.5 306.44C45.05 306.64 47.97 305.98 51 304.97C54.02 303.96 57.42 302.09 58.55 300.82C59.67 299.54 61.63 295.8 62.89 292.5C64.15 289.2 65.82 283.57 66.6 280C67.48 275.96 69.05 272.23 70.76 270.16C72.27 268.32 74.26 265.62 75.18 264.16C76.27 262.45 77.98 253.82 79.97 240C81.68 228.17 83.53 216.7 84.09 214.5C84.64 212.3 85.51 209.37 86.02 208C86.53 206.62 89.55 203.22 92.72 200.44C95.9 197.66 102.55 192.64 107.5 189.29C114.41 184.61 117.66 183.05 121.5 182.54C124.69 182.12 129.21 182.45 134 183.45C138.12 184.32 147.57 187.26 155 189.98C162.42 192.71 172.77 195.88 178 197.04C183.22 198.2 188.4 199.31 189.5 199.51C190.6 199.71 193.64 201.7 196.25 203.94C200.07 207.21 201.33 209.12 202.68 213.75C203.61 216.91 205.18 220.29 206.18 221.25C207.18 222.21 208.79 223.01 209.75 223.02C210.71 223.02 215.55 221.05 220.5 218.62C225.45 216.2 233.11 212.03 237.52 209.36C241.93 206.69 249.81 201.27 255.02 197.32C261.12 192.69 265.12 188.86 266.25 186.57C267.57 183.87 268.79 182.86 271.25 182.42C273.04 182.1 277.2 182.33 280.5 182.92C283.8 183.51 289.42 185.44 293 187.21C297.02 189.19 302.02 192.91 306.11 196.96C311.48 202.27 313.03 204.53 314.33 209C315.21 212.02 316.61 218.1 317.45 222.5C318.29 226.9 319.9 237.47 321.04 246C322.35 255.87 323.75 262.59 324.88 264.5C325.86 266.15 326.96 270.54 327.33 274.25C327.7 277.96 329.36 284.71 331.03 289.25C332.69 293.79 335.14 299.07 336.46 301C337.78 302.92 340.44 305.4 342.38 306.5C345.46 308.25 346.37 308.35 349.7 307.3C352.75 306.34 354.34 304.8 357.75 299.55C360.09 295.95 362.45 290.97 363 288.5C363.55 286.02 364.67 282.65 365.5 281C366.47 279.06 367 275.09 367 269.75C366.99 262.28 366.66 260.86 363.5 254.75C361.06 250.04 360.01 246.71 360.04 243.75C360.07 241.41 360.74 237.7 361.53 235.5C362.32 233.3 362.98 228.57 363 225C363.02 221.42 363.68 215.8 364.48 212.5C365.28 209.2 365.95 204.92 365.98 203C366.02 200.33 365.26 198.74 362.77 196.29C360.97 194.53 355.68 190.48 351.01 187.29C344.27 182.69 341.45 179.96 337.3 174C334.42 169.87 331.41 164.7 330.61 162.5C329.8 160.3 328.91 157.37 328.63 156C328.35 154.62 325.23 149.22 321.7 144C318.17 138.77 313.06 130 310.34 124.5C307.62 119 304.17 112.7 302.67 110.5C301.16 108.3 297.81 104.76 295.22 102.62C292.62 100.49 288.56 97.79 286.2 96.62C282.17 94.64 281.42 94.58 274.45 95.75C267.58 96.9 266.63 96.84 262.25 94.98C259.64 93.86 255.92 92.96 254 92.97C252.07 92.98 248.7 92.5 246.5 91.91C244.3 91.31 238.67 89.11 234 87.01C229.32 84.92 221.9 82.05 217.5 80.63C213.1 79.21 206.24 77.36 202.25 76.52C198.26 75.69 193.76 75.03 192.25 75.07C190.74 75.1 187.47 75.71 185 76.42Z" fill="$[hairColor]" stroke="#000" stroke-width="5"/>
</svg>