<svg xmlns="http://www.w3.org/2000/svg" viewBox="0 0 400 600" width="400" height="600">
	<path id="high-02" d="M58.38 301.13L48.21 300.19C48.21 300.19 48.33 295.85 48.45 291.47C48.72 280.99 48.95 270.99 49.16 261.49C49.43 251.95 49.7 242.97 50 234.53C50.38 226.13 50.79 218.29 51.24 211C51.77 203.78 52.34 197.1 52.94 190.94C54.4 178.85 55.91 168.79 57.49 160.43C59.31 152.3 61.06 145.76 62.76 140.47C66.58 130.31 69.59 124.49 72.57 120.86C75.56 117.24 78.35 115.62 82.19 114.34C88.01 112.49 97.87 109.61 109.56 106.58C115.5 105.19 121.9 103.8 128.47 102.49C135.09 101.29 141.87 100.17 148.49 99.19C155.15 98.32 161.63 97.57 167.61 96.97C173.62 96.46 179.11 96.07 183.76 95.79C193.08 95.4 199.02 95.26 199.02 95.26C199.02 95.26 204.96 95.21 214.26 95.3C218.9 95.43 224.38 95.65 230.35 95.98C236.3 96.4 242.74 96.97 249.35 97.67C255.91 98.49 262.62 99.46 269.17 100.53C275.66 101.74 281.98 103.04 287.82 104.37C299.32 107.35 309 110.27 314.69 112.17C318.45 113.51 321.23 115.21 324.41 118.98C327.56 122.76 330.89 128.79 335.21 139.26C337.13 144.69 339.12 151.38 341.19 159.66C342.98 168.17 344.69 178.38 346.32 190.62C346.97 196.84 347.58 203.58 348.14 210.87C348.58 218.21 348.97 226.1 349.3 234.55C349.52 243.04 349.69 252.06 349.81 261.64C349.84 271.18 349.85 281.22 349.86 291.76C349.85 296.15 349.84 300.52 349.84 300.52L339.85 301.43C339.85 301.43 339.87 288.07 339.87 283.58C339.86 279.06 329.79 265.89 324.75 261.47C322.23 259.24 320.75 246.49 318.51 233.13C316.1 219.76 312.85 205.83 307.67 201.13C305.07 198.77 300.13 197.51 293.41 196.95C286.69 196.4 278.18 196.56 268.44 197.03C258.68 197.53 247.69 198.34 236.06 199.03C224.42 199.75 212.14 200.34 199.85 200.35C187.55 200.38 175.26 199.83 163.6 199.15C151.95 198.5 140.94 197.72 131.16 197.26C121.4 196.82 112.86 196.67 106.12 197.23C99.38 197.8 94.43 199.04 91.84 201.38C86.66 206.04 83.43 219.86 80.98 233.15C78.64 246.44 77.04 259.15 74.47 261.36C69.32 265.75 58.91 278.86 58.8 283.36C58.7 287.83 58.38 301.13 58.38 301.13Z" fill="$[hairColor]" stroke="#000" stroke-width="4"/>
</svg>