<svg xmlns="http://www.w3.org/2000/svg" viewBox="0 0 400 600" width="400" height="600">
	<path id="high-01" d="M58.38 301.13L48.21 300.19C48.21 300.19 48.33 295.85 48.45 291.47C48.72 280.96 48.95 270.88 49.18 261.24C49.45 251.48 49.74 242.18 50.06 233.35C50.47 224.44 50.91 216.03 51.39 208.1C51.96 200.12 52.57 192.66 53.21 185.68C54.78 171.72 56.4 159.83 58.07 149.76C60 139.82 61.84 131.71 63.63 125.09C67.62 112.24 70.73 104.86 73.78 100.35C76.84 95.86 79.66 94.03 83.5 92.78C89.34 91.02 99.2 88.36 110.86 85.68C116.77 84.49 123.13 83.34 129.65 82.27C136.21 81.31 142.92 80.45 149.46 79.7C156.03 79.05 162.43 78.5 168.33 78.06C174.24 77.69 179.64 77.41 184.22 77.21C193.39 76.93 199.24 76.82 199.24 76.82C199.24 76.82 205.09 76.78 214.24 76.83C218.82 76.91 224.21 77.05 230.1 77.27C235.97 77.56 242.33 77.96 248.87 78.46C255.37 79.06 262.03 79.78 268.53 80.62C274.99 81.57 281.29 82.63 287.12 83.74C298.64 86.34 308.36 89 314.09 90.8C317.87 92.08 320.69 93.99 323.92 98.61C327.12 103.24 330.51 110.8 334.93 123.91C336.89 130.65 338.92 138.91 341.04 149C342.86 159.21 344.6 171.25 346.25 185.36C346.92 192.4 347.54 199.93 348.1 207.97C348.56 215.96 348.95 224.42 349.28 233.38C349.51 242.26 349.68 251.59 349.8 261.4C349.84 271.08 349.85 281.2 349.86 291.75C349.85 296.15 349.84 300.52 349.84 300.52L339.85 301.43C339.85 301.43 339.87 288.06 339.87 283.56C339.86 279.03 329.79 265.74 324.75 261.26C322.22 259 320.74 245.95 318.48 232.1C316.06 218.02 312.79 203.1 307.59 198.07C304.99 195.54 300.05 194.26 293.33 193.77C286.61 193.28 278.1 193.59 268.38 194.23C258.63 194.87 247.66 195.85 236.05 196.67C224.42 197.49 212.16 198.15 199.89 198.17C187.62 198.18 175.35 197.55 163.71 196.75C152.09 195.96 141.1 195.01 131.33 194.39C121.59 193.78 113.06 193.48 106.33 193.98C99.59 194.48 94.64 195.75 92.04 198.27C86.83 203.27 83.54 218.1 81.04 232.1C78.68 245.89 77.05 258.9 74.48 261.15C69.33 265.6 58.91 278.82 58.8 283.34C58.7 287.83 58.38 301.13 58.38 301.13Z" fill="$[hairColor]" stroke="#000" stroke-width="4"/>
</svg>