<?xml version="1.0" encoding="UTF-8" standalone="no"?>
<svg>

  <path
     	 fill="$[color]"
     d="m 176.15878,87.271484 c -22.08214,0 -39.74799,8.842851 -39.74799,19.896486 0,4.35904 -2.77336,4.99604 -14.08789,3.24023 -12.81406,-1.98855 -15.44976,-0.95565 -29.103581,11.40039 -13.752657,12.44543 -14.63853,14.27557 -10.547808,21.8086 2.456136,4.5229 5.470094,9.00889 6.697788,9.96875 3.370576,2.63517 11.101041,20.69091 10.904031,25.46875 -0.0952,2.30922 -4.917585,-4.72027 -10.716864,-15.6211 -5.799322,-10.90079 -12.325985,-20.88866 -14.504492,-22.19531 -5.692104,-3.41402 -24.9557,15.7238 -24.9557,24.79297 -1e-6,5.13161 -3.397046,9.01496 -10.322402,11.79883 -16.50969,6.63657 -24.059,32.35939 -14.554808,49.59375 3.304882,5.99301 2.896867,6.87139 -2.696825,5.80859 -3.635441,-0.69062 -10.221132,2.53023 -14.6836112,7.17969 -11.0968742,11.56159 -11.5976939,51.61654 -0.8996128,71.98047 3.956088,7.53052 7.192877,16.97309 7.192877,20.98242 0,4.00927 2.023441,9.25065 4.49605,11.64844 0.443305,0.42989 0.862287,1.16831 1.261873,2.13672 0.166891,0.009 0.360025,-0.0909 0.511189,-0.0176 2.569793,1.24698 -0.659727,-0.0406 0.617856,1.19922 0.145539,0.14125 0.433758,-0.0893 0.617854,0 2.569793,1.24699 -0.661741,-0.0406 0.615842,1.19922 0.145542,0.14124 0.472315,-0.14124 0.617855,0 0.14554,0.14124 -0.14554,0.45641 0,0.59765 0.291083,0.28249 0.867517,-0.17866 1.235709,0 0.260352,0.12634 0.357505,0.47328 0.617856,0.59961 1.520816,0.73795 -0.558299,-1.73908 1.851552,0.59961 0.14554,0.14124 -0.145541,0.45837 0,0.59961 0.291082,0.28249 0.867516,-0.17866 1.235709,0 0.260351,0.12633 0.355491,0.47327 0.615842,0.59961 0.184097,0.0893 0.472314,-0.14125 0.617855,0 0.145541,0.14124 -0.145541,0.45837 0,0.59961 0.145541,0.14124 0.412028,0 0.617854,0 0.205827,0 0.472315,-0.14124 0.617856,0 0.291082,0.28249 -0.291082,0.91477 0,1.19726 0.14554,0.14124 0.472314,-0.14125 0.617854,0 0.145541,0.14124 -0.14554,0.45837 0,0.59961 0.291083,0.28248 0.942617,-0.28249 1.233698,0 0.14554,0.14124 0,0.39986 0,0.59961 0.411652,0.19975 0.824057,0.39987 1.235709,0.59961 0.195265,0.0632 0.472315,-0.14124 0.617855,0 0.145541,0.14125 -0.14554,0.45641 0,0.59766 0.145541,0.14124 0.472314,-0.14125 0.617855,0 0.14554,0.14124 -0.145541,0.45837 0,0.59961 0.14554,0.14124 0.431746,-0.0893 0.615842,0 2.569793,1.24699 -0.659727,-0.0406 0.617855,1.19922 0.14554,0.14124 0.472314,-0.14125 0.617854,0 0.145541,0.14124 -0.14554,0.45837 0,0.59961 0.127424,0.12365 0.387491,-0.0623 0.549428,-0.0195 1.430063,-25.32151 4.128147,-49.61176 7.855008,-62.86329 l 6.504582,-23.12695 -11.338742,-16.61134 c -10.35449,-15.17081 -10.921256,-17.4033 -6.540808,-25.73633 2.638058,-5.01842 9.580382,-19.16903 15.428256,-31.44531 l 10.632335,-22.32031 10.561896,10.69531 10.559883,10.69531 31.790346,-2.93945 c 17.48497,-1.61649 32.55174,-3.67641 33.48089,-4.57812 0.92906,-0.90167 -0.69461,-10.05344 -3.6065,-20.33789 -2.91189,-10.28446 -6.32684,-25.76789 -7.58936,-34.40625 -3.38038,-23.12983 4.91846,-12.95195 8.87538,10.88476 1.71489,10.33072 4.49881,24.27934 6.18459,30.99805 l 3.06512,12.2168 23.8186,1.02539 23.8186,1.02343 2.53582,-26.25195 c 1.39378,-14.43881 1.48733,-31.66206 0.20931,-38.27344 -2.43782,-12.61082 2.64636,-20.29002 6.67967,-10.08984 2.15633,5.45336 1.19084,20.82928 -3.7353,59.47851 l -1.8898,14.83204 h 21.798 c 16.84143,0 21.80002,-1.17411 21.80002,-5.16211 0,-2.83903 3.85724,-16.58126 8.57349,-30.53907 12.70392,-37.59705 14.34099,-52.79005 6.43413,-59.734371 -9.74678,-8.560239 -27.47749,-10.698889 -46.29483,-5.585938 -12.79524,3.476612 -17.16755,3.582819 -18.24583,0.44336 -0.87358,-2.543178 -9.40141,-4.128907 -22.21057,-4.128907 z M 290.1862,105.3125 c -0.80343,-0.0152 -1.54127,0.0124 -2.1957,0.0859 -7.88596,0.88614 -10.05161,3.46546 -12.62678,15.03125 -1.70964,7.67853 -4.45977,17.1021 -6.11214,20.94141 -6.5272,15.16633 -14.15632,40.75353 -14.15632,47.48046 0,6.4589 2.04365,7.03675 22.47824,6.41992 12.36278,-0.3732 28.86163,0.53695 36.66475,2.02149 13.16449,2.50444 14.90599,1.8655 24.13862,-8.86719 l 9.95007,-11.56836 3.24022,8.4336 c 1.78196,4.63823 5.24187,14.71604 7.68997,22.39453 2.44808,7.67862 6.75777,18.47512 9.57575,23.99218 4.80312,9.40361 4.42418,11.0867 -6.04773,26.92383 l -11.16969,16.89453 5.68547,18.98633 c 4.14246,13.82876 5.68748,34.28768 5.68748,75.32422 0,2.29075 -0.01,4.00221 -0.0121,6.11524 0.0435,0.002 0.0877,0.002 0.12478,-0.0156 0.26036,-0.12633 0.3575,-0.47133 0.61785,-0.59766 0.1841,-0.0893 0.47031,0.14124 0.61584,0 0.14554,-0.14124 -0.14553,-0.45837 0,-0.59961 0.14554,-0.14124 0.47232,0.14124 0.61786,0 0.14555,-0.14124 -0.14554,-0.45837 0,-0.5996 0.29108,-0.28249 0.94462,0.28248 1.23571,0 1.27758,-1.2399 -1.95193,0.0477 0.61785,-1.19922 0.1841,-0.0893 0.47231,0.14124 0.61786,0 1.27758,-1.23989 -1.95396,0.0497 0.61583,-1.19727 0.85172,-0.41328 0.55308,0.72535 1.23572,-0.59961 0.18408,-0.35732 -0.29109,-0.91673 0,-1.19922 0.14553,-0.14124 0.47231,0.14125 0.61785,0 0.14553,-0.14124 -0.14554,-0.45837 0,-0.59961 0.14553,-0.14124 0.47231,0.14124 0.61786,0 0.14553,-0.14124 -0.092,-0.41899 0,-0.59765 0.13017,-0.25267 0.48567,-0.34694 0.61584,-0.59961 0.1841,-0.35731 -0.29107,-0.91674 0,-1.19922 1.27762,-1.23986 -0.0491,1.89429 1.23571,-0.59961 0.092,-0.17866 -0.14554,-0.45641 0,-0.59766 0.30874,-0.29962 1.54281,0.29962 1.85155,0 0.14554,-0.14124 -0.092,-0.42095 0,-0.59961 1.27356,-2.47182 -0.0114,0.57277 1.20955,-0.58007 0.015,-0.0783 0.0311,-0.15625 0.0463,-0.23438 -0.0369,-0.13993 -0.1113,-0.29629 -0.0201,-0.38476 0.0295,-0.0286 0.0667,-0.0379 0.10465,-0.0469 1.48074,-7.38271 4.07726,-14.05595 8.50707,-23.22266 26.6188,-55.08303 28.05926,-97.66486 3.56022,-105.21093 -6.30477,-1.94199 -6.82578,-4.2328 -4.71138,-20.65625 1.55016,-12.04075 0.99917,-19.2988 -1.57987,-20.84571 -2.1761,-1.3052 -3.95669,-5.30591 -3.95669,-8.89257 0,-3.58668 -3.78751,-9.41407 -8.41852,-12.94922 -4.63097,-3.5352 -10.38396,-9.98826 -12.78376,-14.33985 -2.39977,-4.35158 -8.93498,-8.80025 -14.5226,-9.88476 -8.46619,-1.64324 -10.68378,-4.38014 -13.303,-16.42969 -2.63304,-12.11291 -5.39032,-15.48655 -16.99,-20.78711 -6.66365,-3.04505 -15.54602,-5.23742 -21.17007,-5.34375 z"
  />
</svg>
