<svg xmlns="http://www.w3.org/2000/svg" viewBox="0 0 400 600" width="400" height="600">
	<path id="messy-02" d="M147.78 81.46C147.73 81.87 150.51 84 154.02 86.25L160.26 90.36C157.7 91.98 155.45 93.02 153.61 93.71C151.78 94.4 148.69 95.3 146.74 95.71C144.8 96.12 139.15 97.62 134.19 99.01C129.28 100.36 122.61 102.11 119.35 102.93C116.11 103.72 111.59 104.77 109.29 105.25C107 105.72 102.58 106.54 99.47 107.06C96.35 107.56 92.05 108.37 89.89 108.87C87.73 109.35 85.35 109.95 84.61 110.19C83.8 110.45 83.34 110.97 83.49 111.46C83.63 111.91 85.13 112.89 86.89 113.65C88.62 114.41 91.04 115.51 92.26 116.11C93.49 116.71 94.5 117.5 94.53 117.87C94.55 118.23 93.26 119.9 91.65 121.56C90.04 123.22 87.11 125.84 85.13 127.37C83.14 128.91 80.44 131.01 79.12 132.05C77.8 133.1 75.53 135.12 74.09 136.55C72.62 137.98 70.44 140.49 69.23 142.13C68.01 143.77 65.17 149.01 62.84 153.78C60.43 158.56 58.4 162.86 58.4 163.32C58.4 163.78 58.15 164.18 57.85 164.22C57.55 164.26 57.12 165.19 56.9 166.31C56.51 168.16 56.59 168.4 57.95 169.13C59.13 169.77 59.4 170.27 59.38 171.75C59.36 172.76 58.89 177.34 58.29 181.95C57.66 186.57 56.57 192.88 55.9 195.96C55.2 199.04 54.08 203.84 53.42 206.63C52.74 209.44 51.63 215.09 50.94 219.2C50.24 223.33 48.86 229.88 47.89 233.76C46.23 240.31 46.15 240.95 46.9 242.04C47.41 242.77 47.74 245.33 47.78 248.64C47.8 251.62 47.51 256.77 47.13 260.07C46.75 263.37 46.33 269.23 46.19 273.07C46.05 276.93 46.1 281.88 46.3 284.08C46.5 286.27 46.58 289.93 46.49 292.19C46.32 296.21 46.36 296.34 48.18 297.26C49.21 297.78 50 298.47 49.96 298.8C49.92 299.14 50.85 300.25 52.03 301.27C53.42 302.5 54.82 303.15 56.08 303.17C57.37 303.21 58.47 302.79 59.39 301.92C60.15 301.2 62.63 297.64 64.91 294.05C67.19 290.47 69.57 286.95 70.2 286.19C70.84 285.43 72.79 282.7 74.54 280.13C76.29 277.56 78.66 273.32 79.81 270.71C80.96 268.1 82.29 264.57 82.78 262.85C83.27 261.14 84.63 254.58 85.76 248.3C86.82 242.01 88.33 234.32 89.16 231.23C89.96 228.13 91.36 223.62 92.28 221.2C93.89 216.86 93.94 216.81 96.32 216.32C97.63 216.04 102.12 216.1 106.27 216.44L113.77 217.06C115.17 209.19 115.7 207.56 116.41 207C117.15 206.43 118.06 206.38 119.7 206.81C120.95 207.13 124.13 208.28 126.76 209.35C129.39 210.42 133.81 212.79 136.58 214.62C139.35 216.44 142.63 218.18 143.87 218.48C146.07 219.03 146.14 219 146.6 217.12C146.98 215.58 147.36 215.2 148.54 215.18C149.35 215.16 151.36 215.86 153.02 216.73C154.67 217.6 158.99 220.34 162.6 222.81C166.21 225.27 171.46 229.24 174.26 231.62C177.06 234 180.15 236.81 181.14 237.87C182.12 238.92 184.41 241.14 186.23 242.79C188.04 244.44 189.92 245.83 190.41 245.88C190.99 245.93 191.29 245.51 191.28 244.62C191.28 243.88 190.09 239.92 188.6 235.81C187.09 231.71 185.98 228.25 186.15 228.09C186.33 227.95 187 227.86 187.63 227.9C188.28 227.94 190.5 228.62 192.59 229.41C194.68 230.19 197.6 231.44 199.08 232.19C200.56 232.95 202.33 233.5 203.01 233.44C204.21 233.32 204.26 233.11 204.18 228.84C204.12 226.39 204.31 224.05 204.6 223.64C204.9 223.23 206.16 222.95 207.39 223.01C208.64 223.07 212.05 223.71 215 224.41C217.95 225.11 222.14 226.52 224.3 227.54C226.47 228.55 230.99 230.81 234.36 232.54C237.74 234.26 241.83 236.18 243.45 236.83C245.06 237.46 246.64 238.21 246.95 238.5C247.25 238.79 248.33 239 249.34 238.99C251.13 238.94 251.17 238.89 250.7 236.99C250.44 235.93 248.87 232.67 247.22 229.74C245.55 226.82 243.04 222.5 241.64 220.14C240.24 217.78 239.08 215.71 239.06 215.55C239.05 215.38 240.11 215.08 241.44 214.86C242.76 214.65 244.1 214.15 244.41 213.79C244.73 213.42 244.89 211.04 244.77 208.51L244.54 203.92C247.48 203.28 251.05 203.21 254.37 203.34C257.71 203.46 261.16 203.72 262.03 203.93C263.22 204.22 264.67 205.73 267.92 210.05C270.31 213.18 272.79 216.7 273.43 217.89C274.08 219.08 274.91 220.02 275.28 220C275.69 219.96 275.87 219.17 275.75 218.04C275.63 216.99 275.74 214.93 275.97 213.45C276.22 211.99 277.24 208.43 278.25 205.57C279.82 201.13 280.25 200.44 281.11 200.84C281.67 201.11 284.49 203.43 287.38 205.97C290.28 208.48 293.95 212.19 295.53 214.23C297.1 216.25 299.86 220.43 301.65 223.53C303.43 226.61 305.59 230.94 306.42 233.14C307.26 235.35 308.49 239.04 309.16 241.33C309.83 243.63 311.21 250.59 312.15 256.79C313.03 262.99 314 269.42 314.36 271.1C314.72 272.76 315.77 276.17 316.7 278.64C317.62 281.11 319.63 285 321.18 287.27C322.73 289.52 324.49 291.82 325.09 292.42C325.68 293.03 327.82 295.91 329.85 298.77C331.9 301.56 334.26 304.1 335.07 304.5C336.06 304.97 337.37 304.91 339.02 304.33C340.65 303.76 342.53 302.54 344.49 300.8C346.12 299.34 347.45 297.92 347.44 297.65C347.43 297.37 348.51 296.39 349.85 295.48C352.22 293.84 352.29 293.71 352.42 290.32C352.49 288.4 352.86 285.22 353.24 283.24C353.61 281.27 353.95 276.98 353.98 273.69C353.98 270.4 353.72 265.41 353.41 262.61C353.08 259.8 352.89 255.33 352.99 252.68C353.08 249.72 353.49 247.38 354.04 246.65C354.87 245.55 354.8 245 353.07 239.41C352.04 236.04 350.58 230.22 349.82 226.5C349.04 222.75 347.78 217.57 346.99 215C346.21 212.42 344.86 207.92 344.02 205.01C343.17 202.1 341.72 196.07 340.8 191.62C339.89 187.16 339.1 182.69 339.02 181.71C338.9 180.27 339.18 179.77 340.55 179.16C342.09 178.48 342.17 178.26 341.62 176.44C341.28 175.34 340.72 174.41 340.35 174.37C339.99 174.33 339.67 173.92 339.64 173.47C339.61 173.01 336.78 168.58 333.39 163.58C330.06 158.52 325.34 151.96 322.89 149.03C320.47 146.08 316.35 140.89 313.74 137.49C311.18 134.06 307.96 129.31 306.58 126.96C305.21 124.59 303.81 121.74 303.45 120.62C302.88 118.84 303 118.09 304.31 114.63C305.15 112.47 305.94 109.98 306.02 109.09C306.12 108.21 305.89 107.19 305.51 106.82C305.13 106.46 302.8 105.33 300.35 104.3C297.93 103.27 294.15 101.48 291.95 100.32C289.77 99.17 287.29 97.49 286.41 96.6L284.85 94.97C287.75 88.77 288.75 85.7 289.38 82.67C290.32 78.53 290.34 77.91 289.51 77.9C288.97 77.9 287.33 78.76 285.86 79.85C284.39 80.93 280.88 83.34 278.06 85.21C275.26 87.1 270.42 89.89 267.3 91.43C264.21 92.97 260.14 94.83 258.25 95.56C256.37 96.31 253.58 97.29 252.05 97.77C249.51 98.56 249.15 98.53 247.87 97.49C247.09 96.86 245.69 95.21 244.76 93.82C243.84 92.44 242.52 90.91 241.81 90.44C241.11 89.98 239.88 89.62 239.09 89.63C238.12 89.66 236.81 90.48 235.13 92.11L232.66 94.52C224.91 90.6 220.01 88.56 216.75 87.46C212.65 86.09 209.81 85.52 207.5 85.59C205.17 85.67 204.11 85.93 204.01 86.45C203.94 86.85 204.64 88.24 205.58 89.52C206.52 90.8 207.42 92.25 207.57 92.74C207.78 93.44 207.16 93.34 204.67 92.31C202.94 91.6 197.24 89.82 192.02 88.39C186.78 86.97 178.89 85.26 174.48 84.59C170.06 83.9 165.07 83.09 163.41 82.77C161.74 82.45 158.76 82 156.79 81.77C154.82 81.54 152 81.21 150.55 81.04C148.51 80.8 147.87 80.89 147.78 81.46Z" fill="$[hairColor]" stroke="#000" stroke-width="4"  />
</svg>