<svg xmlns="http://www.w3.org/2000/svg" viewBox="0 0 400 600" width="400" height="600">
	<path id="messy-spikes-02" d="M60 310L50 310C50 310 50.03 305.25 50.05 300.47C50.03 289.6 49.96 280.12 49.86 272.02C49.73 263.85 49.61 257.12 49.5 251.77C49.27 241.01 49.16 235.93 49.16 235.93L43.44 233.91L54.15 212.15L37.28 211.57L58.91 187.44L42.51 183.15L68.75 162.56L52.89 154.73L83.6 138.75L68.11 129.98L101.19 122.69L88.39 114.6L124.04 109.52L116.44 96.14L154.71 98.62L139.52 83.43C139.52 83.43 149.64 85.21 159.81 87.02C170.02 88.88 180.27 90.78 180.27 90.78L175.02 74.19L205.8 88.23L200 70L226.26 88.34L261.15 78.97L247 93.67L277.71 94.14L262.87 104.64C262.87 104.64 273.18 105.49 283.48 106.37C293.78 107.27 304.06 108.19 304.06 108.19L288.92 116.21L325.09 122.31L307.15 130.66C307.15 130.66 316.87 135.6 326.6 140.39C336.38 145.01 346.22 149.42 346.22 149.42L327.7 155.73L356.65 174.81L339.86 187.41C339.86 187.41 346.27 195.58 352.81 203.3C359.47 210.56 366.29 217.43 366.29 217.43L351.83 220.9L359.27 238.36L353.47 239.89C353.47 239.89 353.16 244.75 352.5 254.99C352.19 260.07 351.8 266.46 351.36 274.19C350.96 281.84 350.55 290.78 350.2 301.03C350.08 305.53 350 310 350 310L340 310C340 310 339.81 297.75 339.83 293.52C339.89 289.22 329.39 278.3 324.12 275.08C321.5 273.46 320.76 258.75 319.67 242.56C319.2 234.09 318.61 225.25 317.52 217.89C316.44 210.36 314.84 204.42 312.36 202.01L304.88 215.45C304.88 215.45 301.65 199.96 301.67 199.61C301.69 199.28 287.95 222.26 287.95 222.26L288.67 197.28L263.55 232.53L271.33 192.95L237.28 242.55L245.67 197.61L211.24 240.53L215.67 203.61L185.24 249.23L194.33 202.95L168.19 239.49L174.33 205.95L146.5 241.46L157.33 202.28L125.7 228.02L138.67 196.28L104.54 229.48L113.67 190.61L91.14 211.6L91.01 200.26C88.51 202.56 86.81 208.47 85.56 216.01C84.28 223.4 83.44 232.33 82.7 240.91C81.04 257.37 79.75 272.4 77.07 273.98C71.67 277.14 60.75 288.21 60.66 292.72C60.55 297.16 60 310 60 310Z" fill="$[hairColor]" stroke="#000" stroke-width="4"/>
</svg>