<svg xmlns="http://www.w3.org/2000/svg" viewBox="0 0 400 600" width="400" height="600">
	<path id="messy-spikes-03" d="M60 310L50 310C50 310 49.79 305.58 49.59 301.13C49.25 290.97 49.04 282.09 48.93 274.47C48.89 266.78 48.91 260.44 48.95 255.39C49.13 245.22 49.25 240.4 49.25 240.4L43.87 240.44L55.28 216.01L39.69 221.17L61.18 191.25L47.3 191.81L71.26 166.02L58.86 161.95L85.12 142.33L72.94 136.45L101.19 126.32L90.33 120.28L123 113.12L116.05 101.49L154.3 102.18L138.86 88.49C138.86 88.49 149.22 89.91 159.88 91.42C170.75 93.04 181.79 94.75 181.79 94.75L176.29 78.7L209.73 92.7L203.62 74.73L231 96.95L268.46 87.06L253.68 99.24L284.28 101.94L269.41 109.74C269.41 109.74 279.56 111.29 289.39 112.96C298.85 114.77 307.9 116.72 307.9 116.72L294.13 121.85L325.38 131.72L310.21 136.32C310.21 136.32 318.6 141.99 326.84 147.79C334.99 153.71 343.12 159.74 343.12 159.74L327.82 161.59L353.66 186.17L339.09 193.46C339.09 193.46 345.41 203.04 352.12 212.49C359.23 221.77 366.75 230.84 366.75 230.84L352.06 229.24L360.74 248.6L354.59 248.12C354.59 248.12 354.42 252.67 353.98 262.16C353.72 266.82 353.35 272.62 352.86 279.55C352.32 286.31 351.64 294.05 350.79 302.68C350.4 306.38 350 310 350 310L340 310C340 310 340.13 298.76 340.24 294.85C340.37 290.85 329.2 278.02 323.55 273.46C320.74 271.14 319.97 256.21 318.95 240.02C318.58 231.71 318.14 223.13 317.19 215.89C316.29 208.58 314.88 202.69 312.51 199.88L307.67 204.95C307.67 204.95 300.3 192.59 300.33 192.28C300.37 191.99 292.33 200.61 292.33 200.61L282.67 185.95L274.33 205.95L269.33 184.28L244 211.95L247.67 189.95L232 208.61L229.67 196.61L207.64 218.78L213.67 199.95L181.02 226.31L190 200.28L169.67 208.61L176.33 196.95L152.67 213.61L166.67 194.28L147.67 203.28L154.33 189.95L128 201.28L134.33 185.28L105.67 205.95L114.33 184.28L89.53 205.33L89.65 195.21C87.28 197.81 85.56 203.51 84.22 210.66C82.87 217.78 81.91 226.33 81.09 234.66C79.36 251.13 78.17 266.69 75.58 269.05C70.36 273.74 59.82 287.59 59.86 292.15C59.89 296.67 60 310 60 310Z" fill="$[hairColor]" stroke="#000" stroke-width="4"/>
</svg>