<svg xmlns="http://www.w3.org/2000/svg" viewBox="0 0 400 600" width="400" height="600">
	<path id="messy-03" d="M82.62 79.05C82.96 79.62 87.77 81.6 93.57 83.54L104.25 87.16C102.81 89.78 101.22 91.61 99.8 92.94C98.4 94.26 95.88 96.2 94.17 97.26C92.51 98.33 88.05 101.89 84.36 105.2C80.83 108.54 76.22 113.13 74.05 115.4C71.95 117.67 69.09 120.85 67.67 122.44C66.28 124.04 63.67 127.1 61.89 129.25C60.18 131.42 57.99 134.62 56.97 136.36C55.98 138.09 54.95 140.1 54.65 140.8C54.33 141.54 54.24 142.37 54.45 142.78C54.64 143.16 55.69 143.27 56.88 143.02C58.11 142.79 59.94 142.54 60.92 142.45C61.94 142.37 62.9 142.6 63.06 142.95C63.21 143.29 62.93 145.62 62.41 148.1C61.85 150.57 60.66 154.68 59.74 157.25C58.81 159.82 57.5 163.34 56.86 165.07C56.2 166.81 55.08 170.01 54.36 172.16C53.62 174.34 52.52 177.89 51.92 180.06C51.29 182.23 49.86 188.39 48.6 193.73C47.16 199.09 45.87 203.75 45.9 204.08C45.93 204.41 45.76 204.89 45.52 205.15C45.29 205.4 44.99 206.4 44.88 207.36C44.67 208.97 44.75 209.06 45.92 208.53C46.95 208.08 47.22 208.22 47.32 209.25C47.39 209.96 47.38 213.4 47.26 216.9C47.1 220.37 46.67 225.22 46.32 227.66C45.94 230.11 45.31 233.93 44.92 236.16C44.51 238.39 43.94 242.67 43.66 245.66C43.36 248.68 42.61 253.66 41.99 256.75C40.94 261.96 40.92 262.4 41.84 262.43C42.45 262.46 43.09 263.71 43.48 265.67C43.82 267.46 44.06 270.83 43.99 273.15C43.93 275.5 44.04 279.52 44.26 282.1C44.44 284.73 44.9 288.02 45.27 289.39C45.63 290.78 45.96 293.31 46 294.99C46.04 298.03 46.09 298.1 47.96 297.78C49.02 297.62 49.84 297.73 49.81 298.01C49.78 298.29 50.75 298.68 51.96 298.91C53.37 299.23 54.78 299.1 56.04 298.53C57.32 297.96 58.41 297.1 59.31 295.94C60.05 294.97 62.47 290.77 64.67 286.64C66.86 282.55 69.14 278.48 69.75 277.54C70.36 276.61 72.23 273.44 73.88 270.52C75.53 267.62 77.71 263.13 78.73 260.56C79.74 258 80.86 254.7 81.24 253.18C81.61 251.69 82.48 246.28 83.08 241.31C83.55 236.49 84.25 230.62 84.74 228.18C85.18 225.77 86.03 222.17 86.65 220.17C87.69 216.61 87.73 216.55 90.12 215.11C91.43 214.33 96.09 212.4 100.45 210.92L108.31 208.57C108.57 202.88 108.86 201.61 109.51 201C110.18 200.38 111.12 200.04 112.92 199.8C114.27 199.62 117.8 199.44 120.72 199.44C123.65 199.47 128.62 200.05 131.77 200.73C134.89 201.46 138.53 202.12 139.86 202.14C142.21 202.19 142.27 202.17 142.57 200.77C142.8 199.63 143.15 199.3 144.38 199.13C145.24 199.01 147.43 199.27 149.25 199.71C151.08 200.17 155.83 201.8 159.78 203.4C163.69 205.08 169.31 207.98 172.28 209.81C175.21 211.7 178.43 213.98 179.45 214.84C180.46 215.71 182.8 217.57 184.65 219C186.49 220.44 188.39 221.71 188.88 221.79C189.47 221.89 189.78 221.59 189.78 220.89C189.79 220.32 188.6 217.12 187.09 213.81C185.53 210.54 184.34 207.82 184.53 207.71C184.71 207.62 185.4 207.6 186.06 207.68C186.74 207.77 189.06 208.48 191.23 209.29C193.41 210.11 196.43 211.42 197.95 212.19C199.47 212.97 201.3 213.65 202.01 213.7C203.25 213.78 203.31 213.63 203.34 210.32C203.33 208.41 203.58 206.64 203.89 206.36C204.22 206.09 205.56 206.07 206.86 206.31C208.18 206.55 211.78 207.63 214.88 208.72C217.99 209.84 222.36 211.81 224.59 213.08C226.83 214.36 231.46 217.2 234.89 219.4C238.32 221.62 242.48 224.22 244.13 225.18C245.78 226.13 247.37 227.16 247.67 227.47C247.97 227.78 249.09 228.26 250.15 228.55C252.06 229.04 252.1 229.01 251.8 227.41C251.63 226.51 250.3 223.51 248.83 220.73C247.34 217.95 245.05 213.83 243.74 211.57C242.42 209.3 241.33 207.33 241.33 207.2C241.32 207.06 242.51 207.1 243.98 207.28C245.45 207.47 246.96 207.45 247.33 207.24C247.72 207.03 248.1 205.14 248.17 203.05L248.27 199.21C251.61 199.49 255.62 200.46 259.35 201.56C263.09 202.68 266.96 204 267.91 204.45C269.22 205.09 270.68 206.82 273.81 211.51C276.07 214.9 278.34 218.64 278.89 219.83C279.44 221.01 280.23 222.06 280.64 222.18C281.09 222.3 281.42 221.72 281.45 220.77C281.46 219.88 281.88 218.25 282.35 217.13C282.83 216.02 284.47 213.45 286.01 211.43C288.37 208.24 288.95 207.81 289.88 208.47C290.48 208.91 293.36 211.93 296.27 215.17C299.18 218.39 302.74 222.88 304.19 225.16C305.63 227.41 308.03 231.83 309.52 234.96C311 238.05 312.67 242.19 313.23 244.16C313.79 246.12 314.55 249.29 314.92 251.19C315.29 253.08 315.71 258.44 315.83 262.98C315.96 267.37 316.23 271.81 316.44 272.98C316.65 274.14 317.45 276.58 318.22 278.38C319 280.16 320.83 283.08 322.3 284.88C323.78 286.64 325.46 288.47 326.04 288.99C326.62 289.51 328.64 291.73 330.52 293.88C332.41 295.96 334.58 297.98 335.35 298.43C336.28 298.97 337.56 299.33 339.22 299.54C340.88 299.74 342.87 299.7 345.04 299.43C346.89 299.19 348.46 298.88 348.49 298.74C348.52 298.59 349.8 298.43 351.33 298.38C354.11 298.29 354.2 298.24 355.01 296.51C355.47 295.52 356.51 293.94 357.34 293.01C358.16 292.06 359.44 289.82 360.17 288.01C360.87 286.15 361.61 283.21 361.83 281.47C362.02 279.7 362.71 276.95 363.35 275.36C364.05 273.57 365 272.26 365.8 272.01C367 271.62 367.03 271.24 366.02 267C365.42 264.37 364.73 259.86 364.46 256.96C364.18 253.98 363.54 249.68 363.01 247.42C362.49 245.13 361.6 241.07 361.03 238.41C360.45 235.7 359.57 230.09 359.04 225.9C358.49 221.62 358.02 217.3 358.01 216.37C358 215.01 358.35 214.71 359.9 214.82C361.65 214.95 361.76 214.8 361.26 212.85C360.95 211.68 360.39 210.53 360 210.32C359.6 210.1 359.27 209.56 359.26 209.13C359.25 208.68 356.37 203.08 352.83 196.54C349.25 189.85 343.99 180.83 341.18 176.58C338.33 172.3 333.3 164.77 329.97 159.85C326.58 154.89 322.07 148.11 319.99 144.82C317.86 141.5 315.53 137.57 314.81 136.09C313.66 133.75 313.6 132.89 314.23 129.23C314.61 126.92 314.78 124.14 314.59 123.07C314.41 122.01 313.76 120.63 313.15 120.02C312.55 119.42 309.2 117.09 305.68 114.87C302.14 112.68 296.44 109.07 292.99 106.84C289.52 104.64 285.31 101.68 283.66 100.26L280.63 97.68C281.05 90.37 280.53 86.56 279.43 82.62C277.88 77.19 277.46 76.32 276.26 76.06C275.48 75.89 273.75 76.6 272.41 77.67C271.08 78.75 267.73 81.06 264.95 82.83C262.2 84.64 257.09 87.15 253.59 88.44C250.14 89.76 245.46 91.31 243.21 91.87C240.97 92.46 237.58 93.2 235.68 93.54C232.53 94.11 231.98 94.02 229.43 92.52C227.87 91.61 224.68 89.33 222.32 87.44C219.94 85.56 216.81 83.43 215.4 82.74C213.99 82.06 211.88 81.45 210.72 81.38C209.31 81.32 208.03 82.24 206.86 84.16L205.13 87C190.64 81.51 181.71 78.72 175.98 77.24C168.78 75.44 164.16 74.74 160.92 74.89C157.69 75.06 156.44 75.45 156.8 76.12C157.09 76.64 159.37 78.4 161.87 80C164.36 81.6 166.91 83.39 167.55 84C168.45 84.86 167.49 84.76 163.11 83.55C160.04 82.73 150.55 80.82 142.09 79.43C133.73 78.18 121.83 77.06 115.64 76.9C109.55 76.82 102.85 76.78 100.61 76.73C98.39 76.68 94.63 76.8 92.25 76.99C89.9 77.19 86.64 77.51 84.98 77.69C82.7 77.96 82.16 78.27 82.62 79.05Z" fill="$[hairColor]" stroke="#000" stroke-width="4"  />
</svg>