<svg xmlns="http://www.w3.org/2000/svg" viewBox="0 0 400 600" width="400" height="600">
	<path id="messy_short" d="M60 310L50 310C50 310 50 305 50 300C50 255 50 235 50 235L45 235L55 210L40 215L60 185L45 185L70 160L55 155L85 137.05L70 130L102.5 122.05L90 115L125 110L117.5 97.55L155 100L140 85L180 92.55L175 75L205 90L200 70L225 90L260 80L245 95L275 95L260 105L300 107.55L285 115L320 120L302.5 127.55L340 145L322.5 150L350 170L335 180L360 215L347.5 215L355 235L350 235C350 235 350 255 350 300C350 305 350 310 350 310L340 310C340 310 340 295 340 290C340 285 330 270 325 265C320 260 320 199.7 310 189.7L303.67 200.7C303.67 200.7 299.33 192 299.33 191.7C299.33 191.41 287.67 204.37 287.67 204.37L285 189.7L264 210.37L264.33 192.37L237.67 216.7L241 191.7L210.67 213.7L211 193.37L183.67 221.37L187.5 195L166 213.7L167 198.04L143.67 217.37L147.67 194.04L123 208.37L125 191.7L102 213.37L102.33 191.7L89.67 200.04L90 190C80 200 80 260 75 265C70 270 60 285 60 290C60 295 60 310 60 310Z" fill="$[hairColor]" stroke="#000" stroke-width="4"/>
</svg>