<?xml version="1.0" encoding="UTF-8" standalone="no"?>
<svg>
  <path
     
     d="m 125.42373,193.22034 c 7.38615,9.78853 19.43274,16.54819 31.12797,21.38161 12.21954,7.41319 25.52733,11.30018 39.63474,12.94042 16.67262,4.87588 34.16252,5.35026 51.03475,9.1651 18.57621,2.78443 36.81407,8.44557 55.86036,9.10934 18.48256,4.51479 37.65443,4.34351 56.425,2.39697 11.75951,1.85464 25.91613,0.67411 21.78434,-15.10325 3.36643,-14.04151 4.0443,-29.14183 3.39671,-43.58406 7.30952,-2.42963 -4.40905,-22.07227 -9.37282,-29.34806 -6.89875,-7.5312 -20.68151,-22.38731 -21.97667,-26.19741 13.10544,-0.35714 -9.95403,-13.38078 -12.99222,-17.74916 -14.62627,-8.02386 -29.10489,-17.321814 -45.50797,-22.045172 -9.41343,-3.90388 -27.87538,-10.999312 -31.89328,-11.614177 6.54142,1.476958 19.94777,-1.854305 5.69931,-3.871909 -18.1145,-2.991663 -36.6394,-3.888607 -54.91605,-3.192816 -20.91768,1.261213 -42.0151,-0.420492 -62.68137,3.622504 -14.00554,0.03755 -29.50289,3.541679 -37.48721,16.208713 -5.34279,10.596427 -9.58881,20.015767 -23.28531,17.330187 -15.770125,0.43926 -34.755395,1.46381 -42.448567,17.69528 -6.737311,5.45657 -12.833869,18.36963 -9.893244,21.35214 -9.383607,11.52895 -7.33637,27.38099 -11.018726,41.0474 -2.662112,15.66361 0.908937,32.1379 -2.68255,47.45653 -7.110657,10.50787 -5.547105,24.61735 -7.28177,36.90791 5.261438,-11.49945 20.789621,-18.28425 35.02107,-19.27226 14.990847,0.41559 27.989926,-12.4456 21.758591,-27.77469 -0.650126,-15.96326 20.785068,-17.66919 32.794186,-16.52295 7.70959,-1.57985 20.86158,5.81888 14.15243,-7.75388 2.76478,-7.33622 -9.25822,-24.15659 -7.40709,-21.52794 2.41864,4.64768 9.7266,3.69841 12.15539,8.94363 z"
	 fill="$[color]" />
</svg>
