<svg xmlns="http://www.w3.org/2000/svg" viewBox="0 0 400 600" width="400" height="600">
	<g id="Hair">
		<path id="middle_part" d="M60 310L50 310C50 310 40 300 40 280C30 190 50 150 60 140C70 130 90 120 110 100C131.21 78.79 160 80 170 80C180 80 200 100 200 100C200 100 220 80 230 80C240 80 268.79 78.79 290 100C310 120 330 130 340 140C350 150 370 192.05 360 280C360 300 350 310 350 310L340 310C340 310 340 295 340 290C340 285 330 270 325 265C320 260 310 210 300 200C290 190 245.5 190 245.5 190C245.5 190 220 160 260 210C240 210 200 190 200 190C200 190 160 210 140 210C180 160 154.5 190 154.5 190C154.5 190 110 190 100 200C90 210 80 260 75 265C70 270 60 285 60 290C60 295 60 310 60 310Z" fill="$[hairColor]" stroke="#000" stroke-width="4"/>
	</g>
</svg>