<svg xmlns="http://www.w3.org/2000/svg" viewBox="0 0 400 600" width="400" height="600">
	<g id="Hair">
		<path id="parted" d="M60 310L50 310C50 310 40 300 40 280C40 140 90 81.5 150 86.05L153.5 94.55C153.5 94.55 153 84.05 160 80C240 70 310 90 320 130C360 170 360 140 360 280C360 300 350 310 350 310L340 310C340 310 340 295 340 290C340 285 330 270 325 265C320 260 320 210 310 200C300 190 240 200 200 200C170 200 163 180 160 170C160 180 110 190 100 200C90 210 80 260 75 265C70 270 60 285 60 290C60 295 60 310 60 310Z" fill="$[color]" stroke="#000" stroke-width="4"/>
	</g>
</svg>