<svg xmlns="http://www.w3.org/2000/svg" viewBox="0 0 400 600" width="400" height="600">
	<path id="short-02" d="M160.45 82.18C158.01 83.27 155.23 84.82 154.27 85.62C153.32 86.41 150.1 88.05 147.15 89.25C144.24 90.45 141.21 92.64 140.39 94.11C139.58 95.56 137.28 97.37 135.28 98.15C133.3 98.93 128.97 101.06 125.69 102.86C122.48 104.61 119.34 107.1 118.68 108.43C118.01 109.72 116.32 111.46 114.94 112.29C113.57 113.11 111.53 113.68 110.4 113.57C109.27 113.46 106.97 114.25 105.31 115.29C103.67 116.32 101.53 117.49 100.54 117.9C99.56 118.31 97.91 119.49 96.88 120.52C95.85 121.52 94.66 122.39 94.22 122.45C93.78 122.51 92.72 123.38 91.85 124.36C90.98 125.33 90.1 126.14 89.89 126.16C89.68 126.19 88.4 127.22 87.06 128.43C85.73 129.62 84.26 131.29 83.79 132.16C83.32 133.02 83.03 134.39 83.15 135.2C83.33 136.58 83.12 136.68 79.48 136.95C76.32 137.21 75.46 137.53 74.02 138.9C72.86 139.98 72.43 141 72.71 142.05C72.91 142.9 73.09 145.01 73.07 146.71C72.93 149.36 72.35 150.36 68.75 154.01C66.37 156.32 63.29 159.12 61.97 160.25C60.21 161.73 59.41 162.88 59.11 164.34C58.86 165.47 58.39 167.72 58.05 169.35C57.68 171 57.33 172.66 57.28 173.04C57.23 173.42 55.91 174.68 54.33 175.86C51.95 177.64 51.4 178.36 51.25 179.9C51.14 180.94 51.09 182.1 51.14 182.49C51.18 182.87 50.27 183.94 49.11 184.87C47.94 185.81 46.71 187.05 46.38 187.63C46.05 188.2 45.32 190.6 44.76 192.97C44.19 195.36 43.68 198.36 43.62 199.62C43.53 201.55 42.91 202.62 39.7 206.44C37.61 208.99 35.64 212 35.3 213.09C34.96 214.2 35 216.35 35.39 217.9C36.06 220.48 35.98 220.97 34.52 223.41C33.65 224.9 32.94 227.06 32.93 228.21C32.92 229.36 33.32 230.97 33.81 231.79C34.6 233.1 34.51 233.59 33.04 236.21C32.14 237.84 31.44 239.88 31.46 240.74C31.49 241.61 31.86 242.94 32.29 243.71C32.73 244.48 33.55 245.38 34.13 245.72C34.82 246.13 35.36 248 35.73 251.18C36.07 253.93 36.1 257.26 35.77 258.85C35.38 260.8 35.46 261.97 36.02 262.67C36.47 263.23 36.63 264.13 36.37 264.69C36.11 265.24 35.92 267.51 35.96 269.73C36.03 272.24 36.45 274.2 37.05 274.93C37.61 275.6 38.43 278.84 39.05 282.58C39.96 287.54 40.71 289.69 42.21 291.83C43.31 293.38 44.75 295.98 45.41 297.6C46.09 299.23 47.32 301.02 48.13 301.58C48.95 302.16 50.35 302.6 51.23 302.57C52.12 302.54 54.05 301.63 55.53 300.54C57 299.42 58.55 298.47 58.96 298.45C59.37 298.43 60.29 297.64 61.02 296.69C61.75 295.73 62.2 294.41 62.03 293.77C61.86 293.13 62.7 291.16 63.91 289.37C65.14 287.57 66.2 285.53 66.27 284.86C66.33 284.2 66.79 283.61 67.28 283.57C67.78 283.53 69.26 281.8 70.61 279.73C71.98 277.64 73.15 275.07 73.2 274.03C73.25 272.99 73.69 271.94 74.17 271.71C74.66 271.47 75.56 270.65 76.18 269.88C76.86 269.04 77.32 266.94 77.35 264.62C77.4 262.52 77.98 259.56 78.63 258.03C79.3 256.51 79.68 254.94 79.49 254.54C79.29 254.14 80.11 252.44 81.33 250.78C83.13 248.38 83.48 247.43 83.05 246.04C82.77 245.1 82.55 243.92 82.56 243.43C82.57 242.94 82.76 241.58 82.98 240.42C83.2 239.26 83.63 237.12 83.93 235.66C84.24 234.17 85.3 232.24 86.37 231.21C87.45 230.18 88.29 228.71 88.34 227.77C88.38 226.88 87.93 225.32 87.34 224.32C86.75 223.31 86.29 222.2 86.33 221.84C86.36 221.47 87.3 220.35 88.43 219.34C89.93 218.02 90.51 216.96 90.6 215.38C90.67 214.05 91.21 212.9 92.01 212.35C92.73 211.86 93.34 210.85 93.38 210.11C93.41 209.38 93.13 208.43 92.75 208.01C92.27 207.48 92.53 206.45 93.58 204.7C94.42 203.32 96.31 201.2 97.77 199.99C100.08 198.11 100.71 197.84 102.59 197.95C103.78 198.02 104.93 198.12 105.15 198.18C105.36 198.24 106.62 198.01 107.95 197.67C109.28 197.33 111.09 196.92 111.97 196.76C112.86 196.59 114.85 196.16 116.41 195.8C117.96 195.44 120.15 194.86 121.27 194.51C123.01 193.96 123.7 193.98 126.08 194.61C127.8 195.06 129.63 195.22 130.89 195.02C132 194.85 135.26 194.89 138.14 195.11C142.72 195.47 143.8 195.76 146.89 197.44C149.4 198.8 151.37 199.45 153.81 199.69C156.27 199.94 157.85 199.89 159.49 199.52C160.73 199.25 162.78 198.56 164.04 197.99C165.72 197.25 166.7 197.07 167.72 197.32C168.49 197.5 170.57 197.75 172.34 197.88C174.1 198 175.91 198.21 176.34 198.35C176.78 198.49 178.76 198.71 180.74 198.85C182.73 198.99 185.61 199.27 187.14 199.47C189.13 199.73 190.86 199.69 193.18 199.32C194.96 199.04 197.68 198.72 199.23 198.61C201.42 198.45 202.38 198.59 203.58 199.22C204.43 199.66 206.55 200.15 208.29 200.3C210.44 200.49 212.28 200.39 214.06 200C215.49 199.68 217.31 198.92 218.1 198.32C219.02 197.61 220.18 197.23 221.31 197.26C222.28 197.28 223.2 197.43 223.35 197.59C223.51 197.75 224.82 198.02 226.26 198.18C227.91 198.37 230.38 198.27 232.98 197.92C235.23 197.61 237.5 197.38 238.03 197.41C238.56 197.43 240.22 196.91 241.73 196.26C244.09 195.24 244.69 195.14 246.34 195.53C247.37 195.78 249.08 195.98 250.12 195.98C251.16 195.98 253.77 196.5 255.92 197.16C258.06 197.82 260.65 198.4 261.67 198.46C262.69 198.51 264.28 198.4 265.2 198.21C266.12 198.02 267.96 197.44 269.28 196.92C270.62 196.4 272.08 196.11 272.59 196.28C273.08 196.45 276.09 196.79 279.26 197.03C283.79 197.4 285.4 197.38 287.09 196.93C288.88 196.44 289.48 196.44 290.95 196.95C291.91 197.28 293.78 197.82 295.11 198.15C296.43 198.49 298.13 198.89 298.88 199.05C299.63 199.2 301.17 199.58 302.29 199.88C303.4 200.19 304.46 200.4 304.65 200.35C304.84 200.29 305.82 200.2 306.83 200.14C308.43 200.03 308.95 200.27 310.81 201.96C311.98 203.04 313.45 204.94 314.08 206.17C314.87 207.75 315.02 208.67 314.59 209.14C314.24 209.52 313.94 210.37 313.92 211.03C313.89 211.7 314.34 212.6 314.92 213.04C315.56 213.54 315.94 214.57 315.9 215.76C315.85 217.18 316.27 218.13 317.45 219.33C318.33 220.24 319.05 221.26 319.05 221.58C319.05 221.91 318.57 222.92 317.99 223.82C317.4 224.73 316.88 226.14 316.84 226.95C316.8 227.8 317.4 229.15 318.25 230.1C319.1 231.06 319.85 232.83 320 234.21C320.14 235.56 320.33 237.56 320.43 238.64C320.52 239.73 320.57 241.01 320.54 241.47C320.51 241.93 320.22 243.04 319.88 243.93C319.39 245.23 319.62 246.14 321.02 248.47C321.97 250.09 322.57 251.75 322.36 252.14C322.15 252.53 322.38 254.07 322.85 255.58C323.32 257.1 323.62 260.07 323.51 262.18C323.36 264.53 323.63 266.7 324.19 267.57C324.7 268.38 325.47 269.25 325.9 269.51C326.33 269.76 326.67 270.86 326.64 271.95C326.62 273.05 327.53 275.79 328.67 278.05C329.8 280.31 331.09 282.21 331.54 282.26C332 282.32 332.39 282.96 332.42 283.68C332.45 284.42 333.34 286.67 334.4 288.67C335.46 290.66 336.18 292.86 335.99 293.58C335.8 294.3 336.2 295.78 336.87 296.86C337.55 297.93 338.41 298.8 338.79 298.81C339.16 298.82 340.6 299.84 342 301.05C343.41 302.22 345.27 303.13 346.13 303.12C346.99 303.11 348.33 302.55 349.11 301.9C349.89 301.25 351.04 299.29 351.66 297.55C352.27 295.82 353.58 293.07 354.58 291.45C355.93 289.24 356.58 287.04 357.35 281.96C357.87 278.17 358.59 274.9 359.07 274.24C359.59 273.53 359.94 271.57 359.99 269.02C360.02 266.77 359.86 264.47 359.64 263.89C359.43 263.32 359.56 262.41 359.94 261.88C360.42 261.2 360.49 260.03 360.16 258.04C359.89 256.42 359.93 253.07 360.23 250.32C360.55 247.15 360.99 245.29 361.55 244.9C362.02 244.58 362.69 243.69 363.03 242.92C363.38 242.15 363.67 240.67 363.68 239.63C363.68 238.6 363.1 236.52 362.37 235.03C361.15 232.56 361.1 232.21 361.79 230.71C362.2 229.81 362.5 228.17 362.48 227.07C362.45 225.98 361.86 223.87 361.18 222.4C360.03 219.99 359.97 219.51 360.45 216.85C360.72 215.24 360.71 213.04 360.44 211.94C360.16 210.85 358.62 207.97 357.01 205.59C354.54 202.06 354.06 201.05 353.96 199.12C353.88 197.86 353.43 194.89 352.95 192.53C352.47 190.2 351.86 187.87 351.6 187.34C351.34 186.8 350.41 185.71 349.54 184.92C348.66 184.14 347.96 183.19 347.99 182.79C348.01 182.4 347.94 181.23 347.84 180.19C347.68 178.58 347.27 177.99 345.06 176.18C343.64 175.02 342.48 173.76 342.48 173.38C342.48 173 342.15 172.23 341.76 171.67C341.36 171.12 340.89 169.63 340.71 168.36C340.52 166.84 339.99 165.6 339.13 164.71C338.4 163.94 337.78 162.54 337.7 161.47C337.64 160.43 337.17 159.09 336.64 158.5C336.12 157.91 335.08 157.16 334.32 156.84C333.56 156.52 332.86 155.71 332.79 155.04C332.73 154.38 332.12 153.29 331.44 152.63C330.76 151.96 329.51 151.41 328.65 151.42C327.79 151.43 326.85 151.12 326.59 150.74C326.33 150.35 326.11 149.3 326.11 148.39C326.12 147.47 325.31 145.54 324.29 144.06C323.27 142.55 321.66 139.89 320.7 138.15C319.75 136.36 318.43 134.64 317.77 134.39C317.1 134.14 315.79 132.5 314.85 130.7C313.7 128.43 311.81 126.51 309.06 124.9C306.73 123.56 303.47 122.05 301.84 121.57C300.19 121.1 297.47 120.22 295.8 119.62C294.11 119.01 292.02 117.46 291.18 116.16C290.32 114.83 289.12 113.7 288.51 113.66C287.91 113.62 286.55 111.74 285.48 109.42C284.38 107.03 282.45 104.33 281.18 103.46C279.9 102.59 275.91 101.79 272.23 101.69C265.6 101.57 265.45 101.49 261.32 96.35C257.77 91.97 256.19 90.92 253.36 91.09C250.51 91.27 249.03 90.34 245.67 86.17C242.04 81.73 240.51 80.81 236.66 80.83C233.45 80.86 231.03 81.85 228.86 84C225.82 87 225.78 87 224.18 84.55C223.28 83.16 219.58 80.78 215.92 79.26L209.12 76.53L198.8 82.8C187.78 78.92 185.22 78.79 180.26 79.97C176.86 80.78 172.05 81.15 169.54 80.79C166.48 80.36 163.46 80.83 160.45 82.18Z" fill="$[hairColor]" stroke="#000" stroke-width="4"/>
</svg>