<svg xmlns="http://www.w3.org/2000/svg" viewBox="0 0 400 600" width="400" height="600">
	<path id="short-01" d="M179.26 84.41C177.56 84.8 175.53 85.4 174.75 85.74C173.97 86.09 171.58 86.74 169.44 87.18C167.3 87.63 164.75 88.64 163.78 89.42C162.81 90.21 160.74 91.12 159.18 91.45C157.63 91.78 154.01 92.79 151.14 93.69C148.28 94.6 145.09 96.07 144.07 96.95C143.04 97.84 141.09 98.98 139.73 99.5C138.36 100.01 136.61 100.28 135.83 100.09C135.06 99.9 132.99 100.3 131.23 100.98C129.48 101.66 127.25 102.41 126.28 102.66C125.31 102.9 123.4 103.75 122.04 104.54C120.67 105.33 119.24 105.98 118.85 105.99C118.46 106 117.11 106.68 115.85 107.5C114.58 108.33 113.39 109.01 113.19 109.01C113 109.01 111.33 109.87 109.48 110.92C107.63 111.97 105.36 113.54 104.44 114.41C103.52 115.28 102.49 116.74 102.14 117.66C101.55 119.24 101.3 119.32 97.75 119.18C94.58 119.05 93.57 119.29 91.38 120.7C89.63 121.83 88.65 123.01 88.38 124.34C88.16 125.43 87.32 128.09 86.53 130.27C85.28 133.68 84.3 134.91 79.33 139.32C76.16 142.13 72.23 145.55 70.59 146.91C68.45 148.7 67.42 150.17 66.92 152.13C66.54 153.63 65.85 156.64 65.39 158.81C64.93 160.98 64.51 163.17 64.45 163.67C64.39 164.17 63.01 165.68 61.38 167.01C58.95 169.01 58.4 169.88 58.31 171.87C58.24 173.21 58.24 174.71 58.31 175.21C58.37 175.71 57.5 176.94 56.37 177.95C55.24 178.95 54.07 180.31 53.78 180.98C53.48 181.65 52.93 184.52 52.55 187.36C52.17 190.2 51.89 193.75 51.93 195.26C51.99 197.56 51.45 198.71 48.53 202.55C46.63 205.05 44.84 208.06 44.57 209.23C44.29 210.4 44.46 212.85 44.93 214.69C45.72 217.74 45.66 218.26 44.29 220.62C43.47 222.04 42.81 224.22 42.82 225.47C42.84 226.73 43.27 228.57 43.77 229.57C44.57 231.19 44.49 231.7 43.01 234.13C42.09 235.63 41.35 237.61 41.36 238.53C41.37 239.45 41.72 240.96 42.13 241.87C42.55 242.79 43.36 243.95 43.93 244.46C44.61 245.05 45.09 247.14 45.31 250.53C45.5 253.46 45.3 256.88 44.84 258.43C44.28 260.32 44.25 261.53 44.75 262.37C45.15 263.04 45.22 264 44.9 264.5C44.58 265 44.14 267.26 43.91 269.51C43.65 272.06 43.8 274.13 44.3 274.98C44.77 275.76 45.09 279.18 45.06 283.03C45.03 288.15 45.33 290.41 46.35 292.74C47.09 294.41 47.89 297.15 48.14 298.82C48.39 300.49 49.12 302.34 49.76 302.94C50.4 303.53 51.65 304.01 52.52 304C53.4 303.99 55.55 303.16 57.3 302.16C59.05 301.16 60.81 300.34 61.22 300.34C61.63 300.34 62.74 299.65 63.7 298.82C64.65 297.98 65.42 296.82 65.41 296.24C65.39 295.65 66.67 293.94 68.24 292.44C69.82 290.94 71.26 289.23 71.45 288.64C71.64 288.06 72.2 287.59 72.69 287.6C73.17 287.61 74.92 286.24 76.58 284.56C78.23 282.88 79.74 280.75 79.92 279.84C80.11 278.92 80.67 278.04 81.16 277.89C81.66 277.75 82.62 277.13 83.3 276.53C84.04 275.87 84.7 274.04 84.95 271.94C85.18 270.02 85.96 267.35 86.68 266.02C87.39 264.68 87.84 263.25 87.67 262.83C87.5 262.41 88.35 260.91 89.56 259.49C91.3 257.43 91.65 256.54 91.28 255.08C91.02 254.08 90.83 252.85 90.84 252.35C90.86 251.85 91.03 250.48 91.23 249.31C91.43 248.15 91.8 245.96 92.05 244.46C92.3 242.91 93.23 241 94.18 240.05C95.14 239.1 95.86 237.6 95.86 236.56C95.86 235.56 95.37 233.71 94.78 232.46C94.19 231.21 93.71 229.84 93.72 229.42C93.73 229 94.53 227.84 95.5 226.84C96.8 225.51 97.26 224.33 97.24 222.44C97.22 220.84 97.64 219.51 98.33 218.94C98.95 218.44 99.44 217.28 99.43 216.36C99.41 215.44 99.09 214.21 98.72 213.63C98.25 212.9 98.42 211.63 99.27 209.53C99.95 207.86 101.52 205.33 102.78 203.91C104.76 201.67 105.31 201.38 107 201.72C108.07 201.93 109.11 202.19 109.3 202.29C109.5 202.39 110.61 202.2 111.78 201.87C112.94 201.54 114.54 201.14 115.31 200.99C116.09 200.84 117.84 200.41 119.21 200.04C120.57 199.66 122.48 199.02 123.45 198.6C124.97 197.94 125.58 198.01 127.7 199.06C129.23 199.82 130.85 200.17 131.94 199.96C132.92 199.78 135.78 200.02 138.31 200.49C142.35 201.26 143.3 201.73 146.09 204.33C148.37 206.45 150.14 207.49 152.28 207.96C154.45 208.44 155.83 208.43 157.24 207.96C158.31 207.59 160.06 206.64 161.13 205.83C162.56 204.76 163.4 204.51 164.31 204.91C164.99 205.21 166.82 205.64 168.38 205.86C169.94 206.08 171.53 206.44 171.92 206.66C172.31 206.88 174.06 207.25 175.81 207.48C177.56 207.72 180.11 208.17 181.47 208.49C183.23 208.9 184.76 208.84 186.78 208.27C188.33 207.83 190.72 207.3 192.08 207.11C194.01 206.83 194.87 207.03 195.97 208C196.75 208.69 198.66 209.41 200.22 209.62C202.15 209.87 203.78 209.67 205.35 209C206.61 208.46 208.21 207.19 208.89 206.19C209.68 205.03 210.7 204.37 211.72 204.37C212.59 204.37 213.43 204.57 213.58 204.82C213.73 205.07 214.92 205.44 216.23 205.64C217.74 205.87 219.98 205.6 222.33 204.88C224.37 204.27 226.44 203.77 226.93 203.77C227.42 203.78 228.93 202.84 230.29 201.68C232.44 199.85 233 199.66 234.54 200.19C235.51 200.52 237.1 200.73 238.07 200.65C239.05 200.57 241.51 201.24 243.56 202.13C245.6 203.03 248.07 203.76 249.04 203.76C250.01 203.76 251.53 203.45 252.4 203.06C253.28 202.68 255.03 201.59 256.29 200.63C257.58 199.67 258.98 199.08 259.48 199.31C259.96 199.53 262.91 199.79 266.02 199.89C270.51 200.03 272.12 199.84 273.8 198.96C275.6 198.02 276.2 197.96 277.7 198.6C278.67 199.01 280.58 199.66 281.94 200.03C283.3 200.41 285.05 200.84 285.83 200.99C286.61 201.14 288.2 201.54 289.37 201.87C290.54 202.2 291.65 202.39 291.85 202.29C292.04 202.19 293.08 201.93 294.15 201.72C295.84 201.38 296.39 201.67 298.37 203.91C299.62 205.33 301.2 207.86 301.88 209.53C302.73 211.63 302.9 212.9 302.43 213.63C302.06 214.21 301.74 215.44 301.72 216.36C301.7 217.28 302.19 218.44 302.81 218.94C303.51 219.51 303.93 220.84 303.91 222.44C303.88 224.33 304.35 225.51 305.64 226.84C306.62 227.84 307.42 229 307.43 229.42C307.44 229.84 306.96 231.21 306.37 232.46C305.78 233.71 305.29 235.56 305.29 236.56C305.29 237.6 306.01 239.1 306.97 240.05C307.92 241 308.84 242.91 309.1 244.46C309.35 245.96 309.72 248.15 309.92 249.31C310.12 250.48 310.29 251.85 310.31 252.35C310.32 252.85 310.12 254.08 309.87 255.08C309.5 256.54 309.84 257.43 311.59 259.49C312.8 260.91 313.64 262.41 313.47 262.83C313.31 263.25 313.75 264.68 314.47 266.02C315.19 267.35 315.96 270.02 316.19 271.94C316.44 274.04 317.1 275.87 317.85 276.53C318.53 277.13 319.49 277.75 319.98 277.89C320.48 278.04 321.04 278.92 321.22 279.84C321.41 280.75 322.92 282.88 324.57 284.56C326.22 286.24 327.98 287.61 328.46 287.6C328.95 287.59 329.5 288.06 329.69 288.64C329.89 289.23 331.33 290.94 332.91 292.44C334.48 293.94 335.76 295.65 335.74 296.24C335.73 296.82 336.51 297.98 337.48 298.82C338.46 299.65 339.57 300.34 339.96 300.34C340.35 300.34 342.1 301.16 343.85 302.16C345.6 303.16 347.75 303.99 348.63 304C349.5 304.01 350.74 303.53 351.39 302.94C352.03 302.34 352.76 300.49 353.01 298.82C353.26 297.15 354.06 294.41 354.79 292.74C355.82 290.41 356.12 288.15 356.08 283.03C356.06 279.18 356.38 275.76 356.84 274.98C357.34 274.13 357.49 272.06 357.24 269.51C357.01 267.26 356.57 265 356.25 264.5C355.93 264 356 263.04 356.4 262.37C356.9 261.53 356.87 260.32 356.31 258.43C355.85 256.88 355.65 253.46 355.84 250.53C356.06 247.14 356.53 245.05 357.22 244.46C357.79 243.95 358.6 242.79 359.01 241.87C359.43 240.96 359.77 239.32 359.77 238.23C359.76 237.14 359.01 235.16 358.08 233.83C356.54 231.59 356.48 231.24 357.38 229.42C357.92 228.34 358.36 226.49 358.36 225.32C358.36 224.15 357.68 222.04 356.85 220.62C355.48 218.26 355.43 217.74 356.21 214.69C356.69 212.85 356.85 210.4 356.58 209.23C356.31 208.06 354.52 205.05 352.62 202.55C349.7 198.71 349.16 197.56 349.22 195.26C349.26 193.75 348.98 190.2 348.6 187.36C348.22 184.52 347.66 181.65 347.37 180.98C347.07 180.31 345.91 178.95 344.77 177.95C343.64 176.94 342.77 175.71 342.84 175.21C342.9 174.71 342.91 173.21 342.86 171.87C342.78 169.8 342.25 169.02 339.24 166.56C337.3 164.97 335.71 163.26 335.71 162.76C335.71 162.26 335.26 161.23 334.71 160.48C334.15 159.73 333.46 157.75 333.16 156.08C332.8 154.07 331.96 152.43 330.67 151.22C329.57 150.19 328.53 148.34 328.27 146.97C328.02 145.63 327.12 143.92 326.28 143.16C325.44 142.4 323.85 141.45 322.74 141.04C321.64 140.62 320.53 139.63 320.27 138.82C320.01 138.02 318.92 136.72 317.85 135.94C316.78 135.16 315.03 134.53 313.96 134.54C312.89 134.56 311.66 134.22 311.22 133.78C310.79 133.35 310.2 132.18 309.92 131.18C309.63 130.17 308.01 128.12 306.32 126.62C304.62 125.12 301.86 122.58 300.19 120.97C298.52 119.37 296.52 117.9 295.74 117.71C294.96 117.52 293.05 116.18 291.49 114.73C289.59 112.96 287.15 111.56 284.06 110.47C281.53 109.59 278.19 108.64 276.63 108.37C275.08 108.1 272.53 107.59 270.97 107.24C269.42 106.88 267.35 105.91 266.37 105.08C265.4 104.24 264.21 103.56 263.72 103.55C263.24 103.54 261.8 102.41 260.54 101.03C259.27 99.64 257.36 98.14 256.29 97.69C255.21 97.23 252.22 96.87 249.57 96.88C244.86 96.89 244.75 96.85 241.43 94.14C238.73 91.93 237.62 91.41 235.77 91.5C233.92 91.59 232.92 91.12 230.64 89.1C228.29 87.01 227.34 86.58 224.98 86.54C223.03 86.51 221.54 86.92 220.16 87.88C218.18 89.26 218.16 89.26 217.26 88.05C216.77 87.38 214.64 86.2 212.53 85.42L208.71 84L201.99 86.53C195.95 84.28 194.47 84.11 191.38 84.42C189.24 84.64 186.33 84.57 184.92 84.26C183.21 83.89 181.33 83.93 179.26 84.41Z" fill="$[hairColor]" stroke="#000" stroke-width="4"/>
</svg>