<svg xmlns="http://www.w3.org/2000/svg" viewBox="0 0 400 600" width="400" height="600">
	<path id="shortBangs" class="shortBangs" d="M53.25 329.3C53.25 329.3 50 313.5 50 300C50 160 100 100 200 100C300 100 350 160 350 300C350 312 344.75 340.3 344.75 340.3C339.75 321.8 333.25 288.3 333.25 288.3C333.25 288.3 330 270 325 265C320 260 320 210 310 200C270 160 250 200 200 200C150 200 130 160 90 200C80 210 80 260 75 265C70 270 64.75 284.3 64.75 284.3C64.75 284.3 57.75 314.8 53.25 329.3Z" fill="$[hairColor]" stroke="#000" stroke-width="4"/>
	<path id="bangs" class="bangs" d="M76 199C76 199 67.75 239.3 88 265C93.75 241.3 104 218 104 218C104 218 101.75 240.3 107 255C120.25 240.3 138 188 138 188C138 188 134 230.59 137.75 246.3C143.5 230.59 148 219 148 219C148 219 150.25 241.8 154.25 257.3C166.75 240.8 179 180 179 180C179 180 170.75 237.3 177.75 250.8C186.75 238.3 188 212 188 212C188 212 200 235.3 203.75 256.8C215.75 243.8 220 194 220 194C220 194 230.3 236.72 241 244C246.3 238.12 241 185 241 185C241 185 263.17 243.53 277 252C280.5 239.86 276 217 276 217C276 217 288.17 245.86 299.5 255.2C301.17 245.53 291.83 207.86 291.83 207.86C291.83 207.86 316.5 252.2 319.98 269.11C328.83 248.2 323.17 194.86 323.17 194.86L271 157L135 154L76 199Z" fill="$[hairColor]"/>
	<path id="bangsLine" class="shp2" d="M76 199C76 199 67.75 239.3 88 265C93.75 241.3 104 218 104 218C104 218 101.75 240.3 107 255C120.25 240.3 138 188 138 188C138 188 134 230.59 137.75 246.3C143.5 230.59 148 219 148 219C148 219 150.25 241.8 154.25 257.3C166.75 240.8 179 180 179 180C179 180 170.75 237.3 177.75 250.8C186.75 238.3 191.25 210.3 191.25 210.3C191.25 210.3 200 235.3 203.75 256.8C215.75 243.8 220 194 220 194C220 194 230.3 236.72 241 244C246.3 238.12 241 185 241 185C241 185 263.17 243.53 277 252C280.5 239.86 276 217 276 217C276 217 288.17 245.86 299.5 255.2C301.17 245.53 291.83 207.86 291.83 207.86C291.83 207.86 316.5 252.2 319.98 269.11C328.83 248.2 323.17 194.86 323.17 194.86" stroke="#000" stroke-width="4" fill="none"/>
</svg>