<svg xmlns="http://www.w3.org/2000/svg" viewBox="0 0 400 600" width="400" height="600">
	<path id="short-01" d="M178.27 84.63C176.57 85.02 174.54 85.62 173.76 85.96C172.98 86.31 170.59 86.96 168.45 87.4C166.31 87.84 163.75 88.85 162.78 89.63C161.8 90.42 159.73 91.33 158.16 91.66C156.61 91.99 152.98 92.99 150.1 93.89C147.23 94.8 144.01 96.27 142.98 97.14C141.93 98.03 139.96 99.17 138.59 99.69C137.21 100.2 135.45 100.47 134.67 100.28C133.9 100.09 131.82 100.49 130.05 101.16C128.28 101.84 126.03 102.59 125.05 102.84C124.07 103.08 122.14 103.93 120.75 104.71C119.36 105.5 117.91 106.15 117.52 106.16C117.13 106.17 115.75 106.85 114.47 107.66C113.17 108.49 111.96 109.17 111.76 109.17C111.56 109.17 109.86 110.03 107.98 111.07C106.09 112.12 103.76 113.69 102.81 114.55C101.85 115.42 100.76 116.88 100.38 117.79C99.72 119.37 99.47 119.45 95.93 119.31C92.78 119.18 91.77 119.42 89.53 120.83C87.74 121.96 86.72 123.13 86.39 124.46C86.12 125.54 85.17 128.2 84.28 130.37C82.89 133.77 81.86 135 76.77 139.4C73.55 142.2 69.58 145.62 67.95 146.98C65.82 148.77 64.77 150.24 64.22 152.19C63.79 153.69 63.02 156.69 62.5 158.86C61.98 161.03 61.51 163.21 61.43 163.71C61.36 164.21 60.02 165.72 58.46 167.05C56.16 169.06 55.63 169.93 55.49 171.92C55.39 173.25 55.34 174.75 55.39 175.25C55.43 175.75 54.61 176.98 53.57 177.99C52.53 178.99 51.46 180.36 51.19 181.03C50.91 181.7 50.36 184.57 49.97 187.4C49.59 190.24 49.28 193.79 49.29 195.29C49.3 197.59 48.82 198.74 46.3 202.59C44.7 205.1 43.2 208.12 42.98 209.29C42.74 210.46 42.87 212.91 43.24 214.74C43.87 217.78 43.81 218.3 42.7 220.67C42.05 222.09 41.52 224.28 41.52 225.53C41.54 226.78 41.87 228.62 42.27 229.61C42.89 231.23 42.83 231.74 41.66 234.18C40.94 235.68 40.37 237.66 40.38 238.58C40.38 239.5 40.65 241.01 40.97 241.91C41.3 242.83 41.92 243.98 42.37 244.49C42.9 245.07 43.27 247.16 43.44 250.55C43.59 253.47 43.43 256.89 43.07 258.44C42.64 260.33 42.62 261.54 43.01 262.38C43.32 263.05 43.38 264.01 43.13 264.51C42.88 265.01 42.54 267.27 42.36 269.52C42.16 272.07 42.29 274.14 42.68 274.98C43.06 275.76 43.33 279.18 43.32 283.03C43.33 288.15 43.59 290.41 44.44 292.74C45.08 294.41 45.78 297.15 46.02 298.82C46.26 300.49 46.91 302.35 47.47 302.95C48.04 303.54 49.13 304.03 49.88 304.02C50.65 304.02 52.49 303.19 53.99 302.19C55.48 301.19 57 300.37 57.36 300.37C57.72 300.37 58.67 299.68 59.49 298.85C60.29 298.01 60.92 296.84 60.88 296.26C60.84 295.67 61.89 293.95 63.22 292.45C64.56 290.94 65.77 289.22 65.92 288.63C66.06 288.04 66.54 287.57 66.98 287.58C67.41 287.59 68.93 286.21 70.36 284.52C71.79 282.83 73.08 280.69 73.21 279.77C73.35 278.85 73.83 277.96 74.28 277.81C74.73 277.67 75.59 277.04 76.2 276.44C76.86 275.78 77.41 273.93 77.58 271.82C77.74 269.9 78.41 267.21 79.05 265.88C79.69 264.53 80.08 263.09 79.92 262.67C79.76 262.25 80.53 260.74 81.65 259.32C83.27 257.24 83.6 256.35 83.24 254.89C83 253.89 82.82 252.65 82.83 252.15C82.85 251.65 83.01 250.28 83.21 249.11C83.4 247.94 83.77 245.75 84.02 244.24C84.28 242.69 85.19 240.78 86.12 239.82C87.05 238.87 87.77 237.36 87.79 236.32C87.82 235.32 87.39 233.47 86.86 232.23C86.33 230.98 85.91 229.61 85.94 229.19C85.96 228.77 86.76 227.61 87.72 226.61C89.02 225.27 89.5 224.09 89.56 222.2C89.6 220.6 90.06 219.27 90.75 218.7C91.37 218.2 91.9 217.04 91.93 216.12C91.95 215.2 91.7 213.98 91.36 213.4C90.94 212.67 91.17 211.4 92.1 209.31C92.85 207.64 94.51 205.11 95.83 203.69C97.9 201.45 98.46 201.15 100.12 201.49C101.17 201.69 102.19 201.95 102.38 202.05C102.57 202.15 103.69 201.95 104.88 201.62C106.07 201.29 107.7 200.89 108.49 200.73C109.29 200.58 111.08 200.15 112.5 199.78C113.91 199.39 115.89 198.75 116.91 198.33C118.51 197.67 119.13 197.74 121.26 198.78C122.8 199.53 124.46 199.88 125.6 199.67C126.63 199.48 129.61 199.72 132.23 200.18C136.45 200.94 137.43 201.41 140.27 204C142.6 206.1 144.45 207.14 146.73 207.61C149.04 208.08 150.53 208.07 152.07 207.6C153.23 207.23 155.16 206.28 156.35 205.47C157.93 204.41 158.85 204.16 159.82 204.55C160.55 204.85 162.52 205.28 164.21 205.5C165.91 205.72 167.63 206.07 168.05 206.29C168.47 206.51 170.38 206.88 172.29 207.11C174.2 207.35 176.99 207.8 178.48 208.12C180.41 208.52 182.1 208.47 184.33 207.9C186.04 207.46 188.68 206.93 190.18 206.74C192.31 206.46 193.26 206.66 194.47 207.63C195.33 208.32 197.43 209.04 199.16 209.25C201.29 209.5 203.09 209.3 204.83 208.64C206.22 208.1 207.98 206.84 208.72 205.84C209.58 204.68 210.7 204.03 211.82 204.03C212.78 204.03 213.7 204.23 213.87 204.48C214.04 204.73 215.35 205.1 216.79 205.3C218.45 205.53 220.91 205.27 223.47 204.55C225.69 203.95 227.95 203.45 228.48 203.45C229.01 203.46 230.64 202.53 232.09 201.38C234.37 199.56 234.98 199.37 236.66 199.9C237.72 200.23 239.45 200.44 240.49 200.36C241.55 200.29 244.22 200.96 246.46 201.85C248.69 202.75 251.37 203.49 252.41 203.49C253.44 203.49 255.06 203.18 255.97 202.8C256.89 202.42 258.7 201.34 260 200.39C261.32 199.43 262.77 198.85 263.31 199.08C263.82 199.3 266.94 199.56 270.2 199.67C274.89 199.82 276.54 199.64 278.23 198.77C280.04 197.84 280.65 197.78 282.23 198.42C283.24 198.83 285.23 199.48 286.64 199.86C288.04 200.24 289.84 200.67 290.64 200.83C291.43 200.98 293.06 201.38 294.25 201.72C295.44 202.05 296.56 202.24 296.76 202.14C296.94 202.04 297.96 201.79 299.02 201.58C300.67 201.25 301.23 201.54 303.31 203.78C304.61 205.2 306.28 207.73 307.03 209.4C307.95 211.5 308.18 212.76 307.75 213.49C307.42 214.07 307.16 215.3 307.18 216.21C307.2 217.13 307.72 218.29 308.35 218.79C309.05 219.36 309.5 220.69 309.54 222.29C309.58 224.18 310.07 225.36 311.36 226.69C312.33 227.69 313.13 228.86 313.15 229.27C313.17 229.69 312.75 231.06 312.21 232.31C311.68 233.55 311.25 235.4 311.27 236.4C311.29 237.44 312 238.94 312.94 239.89C313.86 240.85 314.75 242.76 315.02 244.31C315.27 245.81 315.63 248 315.82 249.16C316.01 250.33 316.17 251.7 316.19 252.2C316.2 252.7 316 253.93 315.76 254.93C315.4 256.39 315.71 257.28 317.34 259.35C318.46 260.78 319.22 262.28 319.05 262.7C318.9 263.12 319.28 264.55 319.92 265.9C320.56 267.23 321.21 269.9 321.36 271.83C321.52 273.93 322.07 275.77 322.74 276.43C323.35 277.03 324.21 277.65 324.65 277.8C325.11 277.95 325.59 278.83 325.72 279.75C325.85 280.66 327.14 282.8 328.57 284.49C329.99 286.17 331.53 287.55 331.96 287.54C332.4 287.53 332.88 288 333.02 288.58C333.17 289.17 334.39 290.89 335.73 292.39C337.07 293.9 338.13 295.61 338.08 296.2C338.04 296.78 338.68 297.94 339.5 298.79C340.34 299.62 341.3 300.31 341.65 300.31C341.99 300.31 343.51 301.13 345.02 302.13C346.53 303.13 348.4 303.96 349.17 303.97C349.93 303.99 351.03 303.51 351.61 302.92C352.17 302.32 352.84 300.47 353.08 298.8C353.32 297.13 354.04 294.39 354.67 292.72C355.54 290.4 355.81 288.14 355.81 283.02C355.81 279.18 356.08 275.76 356.45 274.98C356.85 274.14 356.98 272.07 356.79 269.52C356.61 267.27 356.27 265.01 356.02 264.51C355.77 264.01 355.82 263.05 356.14 262.38C356.53 261.55 356.51 260.34 356.07 258.45C355.71 256.9 355.56 253.48 355.71 250.55C355.88 247.17 356.25 245.08 356.79 244.49C357.23 243.99 357.86 242.83 358.18 241.91C358.51 241.01 358.77 239.37 358.77 238.28C358.76 237.19 358.18 235.21 357.45 233.88C356.23 231.64 356.18 231.29 356.89 229.47C357.32 228.39 357.66 226.55 357.66 225.38C357.66 224.21 357.11 222.1 356.45 220.68C355.33 218.32 355.29 217.8 355.91 214.75C356.29 212.92 356.41 210.47 356.18 209.3C355.96 208.13 354.46 205.12 352.86 202.61C350.34 198.77 349.86 197.62 349.87 195.32C349.88 193.81 349.57 190.27 349.19 187.43C348.8 184.59 348.25 181.73 347.98 181.06C347.7 180.39 346.63 179.03 345.59 178.02C344.55 177.01 343.73 175.78 343.77 175.28C343.81 174.78 343.78 173.29 343.69 171.95C343.56 169.88 343.05 169.1 340.2 166.64C338.35 165.05 336.8 163.34 336.78 162.84C336.76 162.34 336.3 161.31 335.75 160.56C335.19 159.81 334.46 157.83 334.1 156.17C333.68 154.16 332.81 152.52 331.52 151.31C330.42 150.28 329.34 148.44 329.03 147.07C328.72 145.73 327.77 144.03 326.93 143.27C326.08 142.51 324.49 141.56 323.38 141.15C322.29 140.73 321.16 139.74 320.86 138.93C320.57 138.13 319.44 136.83 318.35 136.05C317.26 135.27 315.5 134.64 314.45 134.65C313.4 134.67 312.16 134.33 311.71 133.89C311.26 133.46 310.62 132.3 310.29 131.3C309.95 130.29 308.24 128.25 306.49 126.75C304.73 125.25 301.86 122.72 300.12 121.11C298.38 119.51 296.32 118.05 295.53 117.86C294.75 117.67 292.78 116.33 291.16 114.88C289.19 113.12 286.7 111.72 283.56 110.63C281 109.76 277.62 108.81 276.05 108.54C274.49 108.27 271.92 107.76 270.34 107.41C268.78 107.05 266.67 106.08 265.67 105.26C264.68 104.42 263.47 103.74 262.97 103.73C262.49 103.72 261.02 102.59 259.73 101.22C258.43 99.83 256.49 98.33 255.41 97.89C254.32 97.43 251.32 97.07 248.67 97.08C243.95 97.09 243.84 97.05 240.49 94.34C237.77 92.14 236.65 91.62 234.8 91.71C232.95 91.8 231.95 91.33 229.66 89.31C227.3 87.23 226.35 86.8 223.99 86.76C222.04 86.73 220.55 87.14 219.17 88.09C217.19 89.47 217.17 89.47 216.27 88.26C215.78 87.6 213.65 86.42 211.54 85.64L207.72 84.22L201 86.75C194.96 84.5 193.48 84.33 190.39 84.64C188.25 84.86 185.34 84.79 183.93 84.48C182.22 84.11 180.34 84.15 178.27 84.63Z" fill="$[hairColor]" stroke="#000" stroke-width="4"/>
</svg>