<svg xmlns="http://www.w3.org/2000/svg" viewBox="0 0 400 600" width="400" height="600">
	<path id="spike-straight-02" d="M60.24 310L50.26 310C50.26 310 50.19 305.34 50.11 300.75C49.98 293.42 49.76 286.04 49.48 278.75C49.21 271.62 48.87 264.59 48.51 257.78C48.15 251.12 47.76 244.67 47.36 238.57C46.96 232.58 46.54 226.92 46.13 221.7C45.31 211.56 44.49 203.1 43.85 197.1C43.19 191.3 42.74 187.7 42.71 186.91C42.43 180.72 47.31 170.48 47.31 170.48L57.65 169.41L64.42 150.36L78.92 147.33L85.79 128.5L101.03 126.26L108.62 109.07L123.27 108.19L134.38 92.42L145 94.35L155.35 84.07L165.25 87.6L176.59 79.55L184.52 85.07L194.71 78.14L203.48 84.27L212.57 78.14L222.33 85.06L230.46 79.55L241.25 87.57L251.12 84.04L260.78 94.24L271.2 92.29L281.55 109.61L290.43 105.99L302.18 125.54L313.7 125.47L322.8 146.01L336.63 148.62L342.68 167.37L352.57 168.05C352.57 168.05 357.08 178.1 356.75 184.35C356.71 185.15 356.25 188.8 355.58 194.7C354.94 200.83 354.13 209.49 353.32 219.9C352.92 225.26 352.53 231.09 352.15 237.26C351.78 243.54 351.42 250.18 351.1 257.03C350.78 264.01 350.49 271.21 350.26 278.48C350.03 285.88 349.87 293.35 349.78 300.73C349.73 305.34 349.68 310 349.68 310L339.7 310C339.7 310 339.95 297.4 340.04 293.14C340.15 288.87 330.71 277.69 325.97 274.15C323.6 272.33 322.89 259.92 321.59 246.33C320.24 232.06 318.22 216.47 313.48 210.48C303.84 197.52 295.27 189.76 287.06 185.65C278.79 181.53 270.94 181.66 262.67 183.69C254.32 186.06 245.54 190.51 235.47 194.33C225.34 198.48 213.94 201.93 200.47 201.85C187.26 202.01 176.11 198.63 166.17 194.54C156.27 190.78 147.59 186.39 139.22 184.09C130.88 182.15 122.85 182.13 114.23 186.37C105.68 190.61 96.67 198.49 86.55 211.53C81.63 217.54 79.32 232.96 77.81 247.02C76.46 260.39 75.78 272.61 73.45 274.42C68.77 277.92 59.55 288.97 59.7 293.2C59.84 297.43 60.24 310 60.24 310Z" fill="$[hairColor]" stroke="#000" stroke-width="5"/>
</svg>