<svg xmlns="http://www.w3.org/2000/svg" viewBox="0 0 400 600" width="400" height="600">
	<path id="spike-straight-01" d="M57.8 295.27L46.09 300.43C46.09 300.43 46.38 296.34 46.62 292.53C46.9 286.89 46.98 281.77 46.88 277.2C46.7 273.11 46.38 269.41 45.97 266.06C45.53 262.92 45.04 259.95 44.53 257.1C44.04 254.18 43.56 251.24 43.12 248.27C42.35 241.44 41.73 234.19 41.34 227.77C41.01 220.23 40.81 214.69 40.82 213.39C40.9 201.99 44.71 184.75 44.71 184.75L52.59 190.32L56.97 159.41L68.81 165.01L71.62 135.06L85.36 142.49L87.64 113.98L102.95 122.93L109.09 93.35L123.09 106.16L131.99 81.57L146.85 98.56L160.27 75.13L173.04 96.67L186.94 74.69L200.49 95.83L214.1 74.3L228.03 96.09L241.07 73.93L254.49 97.39L269.91 79.52L278.53 104.51L293.21 90.82L298.29 124.19L309.91 110.25L315.98 140.82L327.67 131.66L332.06 163.56L344.13 157.55L347.68 189.12L355.66 183.29C355.66 183.29 359.02 200.8 358.87 212.39C358.86 213.71 358.56 219.33 358.1 226.99C357.62 233.5 356.9 240.86 356.04 247.79C355.57 250.8 355.06 253.8 354.54 256.76C354.01 259.65 353.48 262.67 353.01 265.86C352.57 269.26 352.21 273.02 351.99 277.18C351.84 281.83 351.86 287.05 352.07 292.8C352.26 296.69 352.5 300.88 352.5 300.88L341.1 295.55C341.1 295.55 340.42 285.03 340.32 281.93C340.28 279.01 329.36 267.96 324.14 264.07C321.58 262.16 321.27 255.25 320.7 247.56C320.41 239.21 319.73 229.21 315.4 223.73C313.25 220.91 308.43 217.9 301.6 214.83C294.71 211.96 285.71 209.33 275.29 206.98C264.76 205.07 252.77 203.63 240.05 202.49C233.65 202.2 227.08 202.01 220.42 201.86C213.77 201.67 207.02 201.52 200.28 201.38C193.53 201.54 186.78 201.7 180.11 201.91C173.45 202.08 166.86 202.29 160.45 202.6C147.7 203.78 135.67 205.25 125.08 207.19C114.59 209.59 105.53 212.25 98.56 215.13C91.65 218.22 86.77 221.24 84.56 224.05C80.13 229.52 79.34 239.43 78.95 247.72C78.3 255.35 77.93 262.22 75.32 264.12C69.98 268 58.79 278.97 58.72 281.86C58.59 284.91 57.8 295.27 57.8 295.27Z" fill="$[hairColor]" stroke="#000" stroke-width="4"/>
</svg>