<svg xmlns="http://www.w3.org/2000/svg" viewBox="0 0 400 600" width="400" height="600">
	<path id="spike-round-02" d="M59.1 308.94L49.84 309.82C49.84 309.82 49.85 304.91 49.79 300.09L48.45 277.13L45.16 267.54L46.42 259.75L42.67 250.45L43.84 242.74L39.83 233.55L41.02 225.71L36.42 212.93L43.99 203.05L38.59 189.09L54.04 177.62L52.13 160.64L71.21 154.11L71.77 131.28L94.37 127.05L100.27 103.34L125 101.95L135.31 79.08L157 89.61L166.67 65.95L184.15 84.27L199.98 60.13L217.1 84.07L234.33 64.95L244.67 88.28L266.19 77.9L276 101.61L301.79 102.42L307.21 127L329.6 131.31L329.4 154.89L347.95 161.81L345.61 179.07L360.53 190.68L355.04 204.81L362.46 214.82L357.99 227.28L359.27 235L355.38 243.88L356.7 251.44L353.05 260.42L354.48 268.08L351.25 277.4L350.08 300.03C350.03 304.82 350.05 309.72 350.05 309.72L340.27 308.42C340.27 308.42 339.75 294.52 339.73 290.03C339.78 285.6 329.25 272.15 323.94 267.68C321.29 265.46 320.57 254.73 319.49 243.29C318.65 231.58 317.33 218.89 312.29 213.71C309.78 211.07 304.43 209.04 297.03 207.43C289.72 205.84 280.47 204.75 270.04 203.96C259.77 203.27 248.36 202.96 236.47 202.77C224.71 202.72 212.42 202.81 200.18 202.73C187.93 202.81 175.63 202.7 163.83 202.71C151.89 202.87 140.41 203.12 130.05 203.72C119.51 204.42 110.15 205.41 102.74 206.91C95.22 208.43 89.77 210.39 87.18 213.01C82 218.16 80.45 231.04 79.45 242.96C78.26 254.65 77.47 265.63 74.88 267.86C69.69 272.33 59.56 285.82 59.63 290.33C59.62 294.89 59.1 308.94 59.1 308.94Z" fill="$[hairColor]" stroke="#000" stroke-width="4"/>
</svg>