<svg xmlns="http://www.w3.org/2000/svg" viewBox="0 0 400 600" width="400" height="600">
	<path id="spike2" d="M60 310L50 310C50 310 50 305 50 300L50 275L48 264L50 255L48 244L50 235L48 224L50 215L48 200L55 190L52 174.37L65 165L64 148L80 145L80 124L100 124L104 104L124 108L136 88L156 100L168 80L184 96L200 76L216 96L232 80L244 100L264 88L276 108L296 104L300 124L320 124L320 145L336 148L335 165L348 174.04L345 190L352 200L350 215L352 224L350 235L352 244L350 255L352 264L350 275L350 300C350 305 350 310 350 310L340 310C340 310 340 295 340 290C340 285 330 270 325 265C320 260 320 215 310 205C300 195 250 200 200 200C150 200 100 195 90 205C80 215 80 260 75 265C70 270 60 285 60 290C60 295 60 310 60 310Z" fill="$[hairColor]" stroke="#000" stroke-width="4"/>
</svg>