<svg xmlns="http://www.w3.org/2000/svg" viewBox="0 0 400 600" width="400" height="600">
	<g id="Hair">
		<path id="Spike" class="shp0" d="M60 310L50 310C50 310 50 305 50 300C50 235 45 165 45 160C45 140 50 140 50 140L60 150L70 120L80 140L90 100L100 120L110 90L120 110L130 80L140 100L150 70L160 100L170 70L180 100L190 70L200 100L210 70L220 100L230 70L240 100L250 70L260 100L270 80L280 110L290 90L300 120L310 100L320 140L330 120L340 150L350 140C350 140 355 140 355 160C355 165 350 235 350 300C350 305 350 310 350 310L340 310C340 310 340 295 340 290C340 285 330 270 325 265C320 260 320 200 310 190C300 180 250 200 200 200C150 200 100 180 90 190C80 200 80 260 75 265C70 270 60 285 60 290C60 295 60 310 60 310Z" fill="$[color]" stroke="#000" stroke-width="4"/>
	</g>
</svg>