<svg id="Capa_1" data-name="Capa 1" xmlns="http://www.w3.org/2000/svg" viewBox="0 0 400 600">
  <defs>
    <style>
      .cls-1 {
        fill: #fff;
      }
    </style>
  </defs>
  <title>nosef</title>
  <g>
    <path class="cls-1" d="M222.79,368.14a15.52,15.52,0,0,0-2.1.4c.2,6.2,5.4,11.9,2.9,18.4-7.7-.5-11.2,1.3-12.1,6.7,1.6-.9,2.8-1.7,4.1-2.4a15.86,15.86,0,0,1,4.1-1.6c5.4-.8,7.6-2.8,6.9-8C226,377,224.19,372.64,222.79,368.14Zm-29.3,24.8c-2.9-5.6-7.4-6.9-14.3-5.7,1.5-6.8,2.8-12.8,4.1-18.8a5.07,5.07,0,0,0-1.3-.2c-3.1,5.2-5.3,10.7-3.9,17a6.75,6.75,0,0,0,3.1,4.2C184.89,390.74,188.89,391.64,193.49,392.94Zm19.9-10.5c-.4-6.5-4.3-12.5-10-14.8a3.06,3.06,0,0,0-2.3-.1c-5.3,1.8-10.1,9.2-9.8,14.3,2.3-3.2,4.8-7.1,7.7-10.7,1.9-2.4,4.4-2.3,6.3.1C208.19,374.74,210.79,378.74,213.39,382.44Zm-18.1,11.3c4.6,4.1,9.9,4,13.2,0Z"/>
    <path d="M222.79,368.14c1.3,4.5,3.2,8.9,3.8,13.5.7,5.2-1.6,7.2-6.9,8a15.86,15.86,0,0,0-4.1,1.6,38.68,38.68,0,0,0-4.1,2.4c.8-5.5,4.3-7.3,12.1-6.7,2.6-6.6-2.6-12.2-2.9-18.4C221.49,368.34,222.19,368.24,222.79,368.14Z"/>
    <path d="M193.49,392.94c-4.7-1.3-8.7-2.1-12.4-3.6a6.75,6.75,0,0,1-3.1-4.2c-1.4-6.3.8-11.8,3.9-17a5.07,5.07,0,0,0,1.3.2c-1.3,6-2.6,12-4.1,18.8C186.09,386,190.59,387.34,193.49,392.94Z"/>
    <path d="M213.39,382.44c-2.6-3.7-5.2-7.6-8.1-11.3-1.9-2.4-4.4-2.4-6.3-.1-2.9,3.6-5.5,7.6-7.7,10.7-.2-5,4.5-12.4,9.8-14.3a4.5,4.5,0,0,1,2.3.1C209.09,369.94,213,375.84,213.39,382.44Z"/>
    <path d="M195.29,393.74h13.2C205.19,397.74,199.89,397.84,195.29,393.74Z"/>
  </g>
</svg>
