<svg id="Capa_1" data-name="Capa 1" xmlns="http://www.w3.org/2000/svg" viewBox="0 0 400 600">
  <title>nosef_4</title>
  <g>
    <path d="M194.09,383.36l-7.6-9.7v-2c5.41-4.8,10.81-9.5,16.5-14.5q9,7.5,17.41,14.7c-8.81,14.1-14.7,16.5-26.41,11.3Zm24.7-10.4c-5.3-4.3-9.8-8.1-14.5-11.7a3.2,3.2,0,0,0-3-.1c-4.4,3.9-8.7,8-13.1,12.1,3,2.9,5.5,5.6,8.3,7.8,5.7,4.7,7.7,4.6,13.41,0C212.69,378.76,215.39,376.06,218.79,373Z"/>
    <path d="M218.19,382.56c.4,5.2-.9,5.8-8.1,3.7C213.39,384.66,215.49,383.76,218.19,382.56Z"/>
    <path d="M194,383.26c.6.8,1.1,1.6,2.3,3.1-3,.6-5.6,1.2-8.1,1.7-.2-.7-.4-1.4-.7-2.2,2.2-.9,4.41-1.7,6.6-2.6C194.09,383.36,194,383.26,194,383.26Z"/>
  </g>
</svg>
