<svg id="Capa_1" data-name="Capa 1" xmlns="http://www.w3.org/2000/svg" viewBox="0 0 400 600">
  <defs>
    <style>
      .cls-1 {
        fill: #fff;
      }
    </style>
  </defs>
  <title>nosef_1</title>
  <g>
    <path class="cls-1" d="M178.89,391.29a40.44,40.44,0,0,1,6.1.1c1.9.3,3.7,1.3,5.7,1.6a4.56,4.56,0,0,0,2.9-1.1c.3-.3-.3-1.9-.9-2.5C189.59,386,182.09,386.89,178.89,391.29Zm47.5-.7c-2.3-3.8-10.8-4.5-13.2-.8-.4.6-.7,1.8-.3,2.2a3,3,0,0,0,2.4,1.1C219,392.39,222.69,391.49,226.39,390.59Zm-28.1-26c-.5-.5-.9-1-1.4-1.5l-15.2,14.6a6.47,6.47,0,0,1,.8.9C187.69,373.89,193,369.19,198.29,364.59Zm24.7,13.2c.3-.3.6-.7.9-1-4.9-4.6-9.9-9.2-14.8-13.8a17.88,17.88,0,0,1-1.3,1.4C212.89,369,217.89,373.39,223,377.79Z"/>
    <path d="M178.89,391.29c3.2-4.5,10.7-5.3,13.7-2,.6.6,1.2,2.2.9,2.5a3.56,3.56,0,0,1-2.9,1.1c-1.9-.3-3.7-1.3-5.7-1.6A59.8,59.8,0,0,0,178.89,391.29Z"/>
    <path d="M226.39,390.59c-3.7.9-7.4,1.8-11.1,2.6a3.36,3.36,0,0,1-2.4-1.1c-.3-.4,0-1.6.3-2.2C215.49,386.09,224.09,386.69,226.39,390.59Z"/>
    <path d="M198.29,364.59c-5.3,4.6-10.5,9.3-15.8,13.9a6.47,6.47,0,0,1-.8-.9l15.2-14.6A10.7,10.7,0,0,0,198.29,364.59Z"/>
    <path d="M223,377.79c-5.1-4.4-10.1-8.9-15.2-13.3a17.88,17.88,0,0,1,1.3-1.4c4.9,4.6,9.9,9.2,14.8,13.8Z"/>
  </g>
</svg>
