<svg id="Capa_1" data-name="Capa 1" xmlns="http://www.w3.org/2000/svg" viewBox="0 0 400 600">
  <title>nosef_3</title>
  <g>
    <path d="M189.65,379.88c2.2-5.1,4.4-10.3,6.7-15.4.4.2.7.4,1.09.6-2.4,7.6-9,13.8-5.4,22.9,2.3.4,4.3.7,6.3,1-4.3,3.1-6.8,1.3-8.6-5.1C189.65,382.48,189.65,381.18,189.65,379.88Z"/>
    <path d="M215.15,380.08c-2.21-5.1-4.41-10.3-6.71-15.4-.4.2-.7.4-1.09.6,2.4,7.6,9,13.8,5.4,22.9-2.3.4-4.3.7-6.3,1,4.3,3.1,6.8,1.3,8.6-5.1C215.15,382.68,215.15,381.38,215.15,380.08Z"/>
    <path d="M203.85,382.38c-3.1-3.2-4.3-54.3-2.1-59.8C202.44,343.18,203.15,362.78,203.85,382.38Z"/>
  </g>
</svg>
