<svg id="Capa_1" data-name="Capa 1" xmlns="http://www.w3.org/2000/svg" viewBox="0 0 400 600">
  <defs>
    <style>
      .cls-1 {
        fill: #fff;
      }
    </style>
  </defs>
  <title>nosef_5</title>
  <g>
    <path class="cls-1" d="M177,390.28c2.6-6.4,4.9-12.2,7.2-17.7C178.85,374.88,175.44,382.48,177,390.28Zm21,4.1c-1.5-6.1-7.5-9.3-12.3-7C189.75,389.58,193.85,392,198,394.38Zm34.1-3.2c-.2-8.2-4.6-16.3-8.7-17.3C226.14,379.28,229.14,385.38,232.14,391.18Zm-21.7,3.6c4.7-1.2,8.81-2.3,13.41-3.5C218.85,388.68,214.35,390,210.44,394.78Z"/>
    <path d="M214.35,365.08c-.7.7-1.41,1.9-2.1,1.9-5.4.2-10.9.1-16.2.1,1.1-.5,2.7-1.2,4.3-2Z"/>
    <path d="M177,390.28c-1.6-7.8,1.81-15.4,7.2-17.7C182,378.08,179.64,383.88,177,390.28Z"/>
    <path d="M198,394.38c-4.3-2.4-8.4-4.8-12.3-7C190.54,385.08,196.54,388.28,198,394.38Z"/>
    <path d="M232.14,391.18c-2.9-5.8-6-11.9-8.7-17.3C227.54,374.88,231.94,383,232.14,391.18Z"/>
    <path d="M210.44,394.78c3.81-4.9,8.41-6.1,13.41-3.5C219.35,392.48,215.14,393.58,210.44,394.78Z"/>
  </g>
</svg>
