<svg id="Capa_1" data-name="Capa 1" xmlns="http://www.w3.org/2000/svg" viewBox="0 0 400 600">
  <defs>
    <style>
      .cls-1 {
        fill: #fff;
      }
    </style>
  </defs>
  <title>nosef_2</title>
  <g>
    <path class="cls-1" d="M189,392.43c-1.4-6-3.9-11.2-3.3-16.1s4.1-9.6,6.5-14.8C181.79,369.23,180.39,384.43,189,392.43Zm17.6,0c.1.7.2,1.5.3,2.2,3.4-.4,6.8-.7,10.2-1.1-.1-.9-.3-1.7-.4-2.6C213.39,391.33,210,391.83,206.59,392.43Zm-3.8.6c-3.8-4.5-6.4-4.6-9.7-.8C196.69,392.43,199.69,392.73,202.79,393Z"/>
    <path d="M228.29,381.33c-2.1,4-4.3,8-6.4,12-.7-.4-1.4-.7-2.1-1.1.8-1.8,1.4-3.8,2.6-5.3,3.7-4.6,3.9-9.1,1.1-14.2-1.7-3.1-2.9-6.4-4.4-9.7.5-.2,1-.5,1.4-.7l7.8,15Z"/>
    <path d="M189,392.43c-8.6-8-7.2-23.3,3.1-30.9-2.4,5.2-5.9,9.8-6.5,14.8S187.59,386.43,189,392.43Z"/>
    <path d="M202.79,393c-3.1-.3-6.1-.5-9.7-.8C196.39,388.43,199,388.43,202.79,393Z"/>
    <path d="M206.89,393c3.1-.3,6.1-.5,9.7-.8C213.29,388.43,210.69,388.43,206.89,393Z"/>
  </g>
</svg>
