<?xml version="1.0" encoding="UTF-8" standalone="no"?>
<svg
   xmlns:dc="http://purl.org/dc/elements/1.1/"
   xmlns:cc="http://creativecommons.org/ns#"
   xmlns:rdf="http://www.w3.org/1999/02/22-rdf-syntax-ns#"
   xmlns:svg="http://www.w3.org/2000/svg"
   xmlns="http://www.w3.org/2000/svg"
   xmlns:sodipodi="http://sodipodi.sourceforge.net/DTD/sodipodi-0.dtd"
   xmlns:inkscape="http://www.inkscape.org/namespaces/inkscape"
   inkscape:version="1.0 (4035a4fb49, 2020-05-01)"
   sodipodi:docname="beard3.svg"
   id="svg216"
   version="1.1"
   height="600"
   width="400"
   viewBox="0 0 400 600">
  <metadata
     id="metadata222">
    <rdf:RDF>
      <cc:Work
         rdf:about="">
        <dc:format>image/svg+xml</dc:format>
        <dc:type
           rdf:resource="http://purl.org/dc/dcmitype/StillImage" />
        <dc:title></dc:title>
      </cc:Work>
    </rdf:RDF>
  </metadata>
  <defs
     id="defs220" />
  <sodipodi:namedview
     inkscape:current-layer="svg216"
     inkscape:window-maximized="1"
     inkscape:window-y="-8"
     inkscape:window-x="1912"
     inkscape:cy="445.26369"
     inkscape:cx="224.47007"
     inkscape:zoom="4.7517576"
     showgrid="false"
     id="namedview218"
     inkscape:window-height="1417"
     inkscape:window-width="2560"
     inkscape:pageshadow="2"
     inkscape:pageopacity="0"
     guidetolerance="10"
     gridtolerance="10"
     objecttolerance="10"
     borderopacity="1"
     bordercolor="#666666"
     pagecolor="#ffffff" />
  <path
     sodipodi:nodetypes="scccssssssssssssssssssscccssssssss"
     stroke-width="1"
     stroke="#000000"
     fill="$[hairColor]"
     d="m 200,410 c 55,0 55,15 55,30 70,0 85,-35 85,-140 h 10 c 0,85.95474 -6.62095,123.27593 -13.03091,142.3056 -3.28461,9.75126 -6.33176,14.67773 -7.13742,19.401 -1.06724,6.2567 -8.83751,9.62791 -10.95774,17.54281 -3.01693,11.26232 -8.55604,10.73421 -10.66443,17.83404 -2.63787,8.88282 -7.95225,7.49311 -9.42603,12.68163 -2.07563,7.30739 -10.41253,7.82107 -13.19739,13.59919 -3.54835,7.36225 -10.62959,5.88784 -14.53282,10.15687 -6.30096,6.89148 -15.08845,3.93704 -20.90039,8.55957 -4.79315,3.81224 -10.78054,1.49311 -15.71016,3.42182 -10.58169,4.14007 -20.60433,2.06622 -30.0233,2.06622 -8.63361,0 -19.0183,1.29523 -28.21459,-1.69217 -5.6956,-1.85021 -12.19815,1.07867 -17.97214,-3.63909 -5.88055,-4.80484 -15.90721,-0.8707 -21.48116,-8.59843 -3.31598,-4.59727 -11.25751,-2.68908 -14.29003,-9.81928 -2.19277,-5.15573 -10.91869,-4.41877 -12.12076,-12.14664 C 109.30683,505.0264 98.646817,503.26763 97.033866,496.2678 95.339748,488.91571 86.904941,485.17366 85.08388,479.0923 82.030144,468.89448 76.162979,467.64573 75.489633,460.52302 75.021778,455.57401 70.097959,449.56396 65.932263,439.4659 58.247039,420.83615 50,384.30393 50,300 h 10 c 0,105 15,140 85,140 0,-15 0,-30 55,-30 z m -45,30 c 0,20 5,30 25,30 10,0 9.70238,-5.83333 19.70238,-5.83333 10,0 10.29762,5.83333 20.29762,5.83333 20,0 25,-10 25,-30 0,-20 -15,-20 -45,-20 -30,0 -45,0 -45,20 z"
     class="shp0"
     fill-rule="evenodd"
     id="beard2" />
</svg>
