<svg xmlns="http://www.w3.org/2000/svg" viewBox="0 0 400 600" width="400" height="600">
	<path id="beard1" fill-rule="evenodd" d="M200 410C230 410 250 420 250 420C280 420 340 405 340 300L350 300C350 430 320 450 310 460C300 470 250 520 200 520C150 520 100 470 90 460C80 450 50 430 50 300L60 300C60 405 120 420 150 420C150 420 170 410 200 410ZM160 440C160 460 170 460 180 460C190 460 190 450 200 450C210 450 210 460 220 460C230 460 240 460 240 440C240 420 200 420 200 420C200 420 160 420 160 440Z" fill="$[color]" stroke="#000" stroke-width="1"/>
</svg>