<svg xmlns="http://www.w3.org/2000/svg" viewBox="0 0 400 600" width="400" height="600">
	<path id="beard-point" fill-rule="evenodd" class="shp0" d="M60 300L50 300C50 300 40 370 60 430C70 450 90 485 150 485C160 475 150 440 140 430C130 420 110 430 80 400C60 380 60 330 60 300ZM321 400C291 430 271 420 261 430C251 440 241 475 251 485C311 485 331 450 341 430C361 370 351 300 351 300L341 300C341 330 341 380 321 400Z" fill="$[hairColor]" stroke="#000" stroke-width="1"/>
	<path id="fullgoatee" fill-rule="evenodd" class="shp0" d="M200 405C255 405 265 425 265 440C265 455 266.12 486.94 250 495C240 500 230 500 220 520L220 550L215 560L210 550L205 565C205 565 200.14 555.35 200 555.01C199.98 555.35 195 565 195 565C195 565 190 549.68 190 550C190 550.32 185 560 185 560L180 550L180 520C170 500 160 500 150 495C133.88 486.94 135 455 135 440C135 425 145 405 200 405ZM200 555.01C200 555 200 555 200 555C200 555 200 555 200 555.01ZM150 440C155 460 160 470 180 470C190 470 190 455 200 455C210 455 210 470 220 470C240 470 245 460 250 440C254.85 420.6 230 420 200 420C170 420 145.15 420.6 150 440Z" fill="$[hairColor]" stroke="#000" stroke-width="1"/>
	<path id="band" class="facialHairBand" d="M180 520L220 520L220 540L180 540L180 520Z" fill="$[primary]" stroke="#000" stroke-width="1"/>
</svg>