<svg xmlns="http://www.w3.org/2000/svg" viewBox="0 0 400 600" width="400" height="600">
	<path id="fullgoatee" fill-rule="evenodd" class="shp0" d="M200 410C255 410 255 425 255 440C255 440 260 480 250 495C245 500 215 510 200 510C185 510 153.33 500 150 495C140 480 145 440 145 440C145 425 145 410 200 410ZM155 440C155 460 160 470 180 470C190 470 190 460 200 460C210 460 210 470 220 470C240 470 245 460 245 440C245 420 230 420 200 420C170 420 155 420 155 440Z" fill="$[hairColor]" stroke="#000" stroke-width="1"/>
</svg>