<svg xmlns="http://www.w3.org/2000/svg" viewBox="0 0 400 600" width="400" height="600">
	<path id="fullgoatee" fill-rule="evenodd" class="shp0" d="M200 405C255 405 265 425 265 440C265 455 265 480 255 495C250 505 250 510 250 510L250 540L245 550L240 540L235 550L230 540L230 510L215 510L215 540L210 550L205 540L200 555L195 540L190 550L185 540L185 510L170 510L170 540L165 550L160 540L155 550L150 540L150 510C150 510 150 505 145 495C136.94 478.88 135 455 135 440C135 425 145 405 200 405ZM150 440C155 460 160 470 180 470C190 470 190 455 200 455C210 455 210 470 220 470C240 470 245 460 250 440C254.85 420.6 230 420 200 420C170 420 145.15 420.6 150 440Z" fill="$[hairColor]" stroke="#000" stroke-width="1"/>
	<path id="band" class="facialHairBand" d="M150 510L170 510L170 530L150 530L150 510ZM185 510L215 510L215 530L185 530L185 510ZM230 510L250 510L250 530L230 530L230 510Z" fill="$[primary]" stroke="#000" stroke-width="1"/>
</svg>