<svg xmlns="http://www.w3.org/2000/svg" viewBox="0 0 400 600" width="400" height="600">
	<path id="mustache_thin" d="M205.17 408L205 420M215 405L215 421.28M210 420M225 408.02L225 420M235 410L235 421.28M194.83 408L195 420M185 405L185 421.28M190 420M175 408.02L175 420M165 410L165 421.53" stroke="#000" stroke-width="3" />
	<path id="goatee_thin" d="M165 470L165 495M175 465L175 500M185 460L185 500M195 460L195 500M205 500L205 460M215 460L215 500M225 465L225 500M235 470L235 495" stroke="#000" stroke-width="3" />
</svg>