<svg xmlns="http://www.w3.org/2000/svg" viewBox="0 0 400 600" width="400" height="600">
	<path id="goatee6" class="shp0" d="M188 454C190 452 210 452 212 454C214 456 204 470 200 470C196 470 186 456 188 454ZM200 475C210 475 210 480 220 480C230 480 240 460 240 460C240 460 250 460 250 465C250 505 240 515 200 515C160 515 150 505 150 465C150 460 160 460 160 460C160 460 170 480 180 480C190 480 190 475 200 475ZM150 425C145 420 175 405 185 405C190 405 195 410 200 410C205 410 210 405 215 405C225 405 255 420 250 425C245 430 245 420 200 420C155 420 155 430 150 425Z" fill="$[hairColor]" stroke="#000" stroke-width="1"/>
</svg>