<svg xmlns="http://www.w3.org/2000/svg" viewBox="0 0 400 600" width="400" height="600">
	<path id="goatee9" class="shp0" d="M188 454C190 450 210 450 212 454C216.12 462.25 200 475 200 475C200 475 183.88 462.25 188 454ZM250 485C240 500 226.32 506.84 220 510C210 515 200 525 200 525C200 525 190 515 180 510C173.68 506.84 160 500 150 485C155 480 160 495 190 495C195 495 195 480 200 480C205 480 205 495 210 495C240 495 245 480 250 485Z M150 425C145 420 175 405 185 405C190 405 195 410 200 410C205 410 210 405 215 405C225 405 255 420 250 425C245 430 245 420 200 420C155 420 155 430 150 425Z" fill="$[hairColor]" stroke="#000" stroke-width="1"/>
</svg>