<svg xmlns="http://www.w3.org/2000/svg" viewBox="0 0 400 600" width="400" height="600">
	<path id="goatee2" class="shp0" d="M200 450C220 450 210 480 220 480C230 480 255 475 265 465C285 445 295 435 305 435C305 505 240 515 200 515C160 515 95 505 95 435C105 435 115 445 135 465C145 475 170 480 180 480C190 480 180 450 200 450Z" fill="$[hairColor]" stroke="#000" stroke-width="1"/>
	<path id="sb2" fill-rule="evenodd" class="shp0" d="M60 300L50 300C50 300 46.15 400.38 75 410C90 415 110 425 115 420C135 400 110 395 110 395C110 395 60 375 60 300ZM340 300L350 300C350 300 353.85 400.38 325 410C310 415 290 425 285 420C265 400 290 395 290 395C290 395 340 375 340 300Z" fill="$[hairColor]" stroke="#000" stroke-width="1"/>
</svg>