<svg xmlns="http://www.w3.org/2000/svg" viewBox="0 0 400 600" width="400" height="600">
	<path id="handlebar" d="M205 420C201 420 200 415 204.2 410C210 405 220 405 220 405C235 405 255 420 255 430C255 460 265 485 260 490C255 495 245 495 240 490C235 485 245 450 245 435C245 420 230 420 205 420ZM195 420C199 420 200 415 195 410C190 405 180 405 180 405C164 405 145 420 145 430C145 460 135 485 140 490C145 495 155 495 160 490C165 485 155 450 155 435C155 420 170 420 195 420Z" fill="$[hairColor]" stroke="#000" stroke-width="1"/>
</svg>