<svg xmlns="http://www.w3.org/2000/svg" viewBox="0 0 400 600" width="400" height="600">
	<path id="handlebar" d="M205 420C201 420 200 415 204.2 410C210 405 220 405 220 405C235 405 255 420 255 430C255 460 265 485 260 490C255 495 245 495 240 490C235 485 245 450 245 435C245 420 230 420 205 420ZM195 420C199 420 200 415 195 410C190 405 180 405 180 405C164 405 145 420 145 430C145 460 135 485 140 490C145 495 155 495 160 490C165 485 155 450 155 435C155 420 170 420 195 420Z M200 458.02L190 460C180 470 170 500 170 500C170 500 180 510 200 510C220 510 230 500 230 500C230 500 220 470 210 460L200 458.02Z M60 300L50 300C50 300 46.15 400.38 75 410C90 415 110 425 115 420C135 400 110 395 110 395C110 395 60 375 60 300ZM340 300L350 300C350 300 353.85 400.38 325 410C310 415 290 425 285 420C265 400 290 395 290 395C290 395 340 375 340 300Z" fill="$[hairColor]" stroke="#000" stroke-width="1"/>
</svg>