<svg xmlns="http://www.w3.org/2000/svg" viewBox="0 0 400 600" width="400" height="600">
	<path id="soul_stache" class="shp0" d="M188 458C190 456 210 456 212 458C214 460 204 474 200 474C196 474 186 460 188 458Z M60 300L50 300C50 300 40 370 60 430C70 450 120 500 180 500C190 500 150 471.2 150 450C150 430 160 430 160 420C160 410 130 450 90 410C70 390 60 330 60 300ZM310 410C270 450 240 410 240 420C240 430 250 430 250 450C250 471.2 210 500 220 500C280 500 330 450 340 430C360 370 350 300 350 300L340 300C340 330 330 390 310 410Z" fill="$[hairColor]" stroke="#000" stroke-width="1"/>
</svg>