<svg xmlns="http://www.w3.org/2000/svg" viewBox="0 0 400 600" width="400" height="600">
	<path id="mustache1" class="shp0" d="M150 425C145 420 175 405 185 405C190 405 195 410 200 410C205 410 210 405 215 405C225 405 255 420 250 425C245 430 245 420 200 420C155 420 155 430 150 425Z M60 300L50 300C50 300 46.15 400.38 75 410C90 415 110 425 115 420C135 400 110 395 110 395C110 395 60 375 60 300ZM340 300L350 300C350 300 353.85 400.38 325 410C310 415 290 425 285 420C265 400 290 395 290 395C290 395 340 375 340 300Z" fill="$[hairColor]" stroke="#000" stroke-width="1"/>
</svg>