<svg xmlns="http://www.w3.org/2000/svg" viewBox="0 0 400 600" width="400" height="600">
	<path id="beard-point" fill-rule="evenodd" class="shp0" d="M60 300L50 300C50 300 40 370 60 430C70 450 90 485 150 485C160 475 150 440 140 430C130 420 110 430 80 400C60 380 60 330 60 300ZM321 400C291 430 271 420 261 430C251 440 241 475 251 485C311 485 331 450 341 430C361 370 351 300 351 300L341 300C341 330 341 380 321 400Z" fill="$[hairColor]" stroke="#000" stroke-width="1"/>
	<path id="goatee1" class="shp0" d="M200 457.82L210 460C210 460 210 480 220 480C230 480 250 475 250 480C250 500 220 510 200 510C180 510 150 500 150 480C150 475 170 480 180 480C190 480 190 460 190 460L200 457.82Z" fill="$[hairColor]" stroke="#000" stroke-width="1"/>
	<path id="mustache1" class="shp0" d="M150 425C145 420 175 405 185 405C190 405 195 410 200 410C205 410 210 405 215 405C225 405 255 420 250 425C245 430 245 420 200 420C155 420 155 430 150 425Z" fill="$[hairColor]" stroke="#000" stroke-width="1"/>
</svg>