<svg xmlns="http://www.w3.org/2000/svg" viewBox="0 0 400 600" width="400" height="600">
	<g id="football-ponies">
		<path id="footballPrimary" class="footballPrimary" d="M120 505C120 540 170 530 200 550C230 530 280 540 280 505C310 480 370 490 380 500C390 510 390.07 520.41 395 550C400 580 400 570 400 610L0 610C0 570 0 580.41 5 550.41C9.93 520.82 10 511.03 20 500C29.5 489.52 90 480 120 505Z" fill="$[primary]" stroke="#000000" stroke-width="6" />
		<g id="throwback">
			<path id="throwback" class="throwback" d="M172.5 545.53C62.5 541.03 30 555 30 555C30 555 10.5 556 5 550C10 505 20 500 20 500C55 480 95 490 120 505C120 540 172.5 545.53 172.5 545.53ZM227.5 545.53C337.5 541.03 370 555 370 555C370 555 389.5 556 395 550C390 510 385 505 385 505C355 480 305 490 280 505C280 540 227.5 545.53 227.5 545.53Z" fill="$[secondary]" stroke="#000000" stroke-width="2"/>
		</g>
		<path id="collarPrimary" class="collarSecondary" d="M120 505C120 540 170 530 200 550C230 530 280 540 280 505L295 495C300 555 240 540 200 570C160 540 100 555 105 495L120 505Z" fill="$[primary]" stroke="#000000" stroke-width="2"/>
		<path id="footballStroke" class="footballStroke" d="M120 505C120 540 170 530 200 550C230 530 280 540 280 505C310 480 370 490 380 500C390 510 390.07 520.41 395 550C400 580 400 570 400 610L0 610C0 570 0 580 5 550C9.93 520.41 10 511.03 20 500C29.5 489.52 90 480 120 505Z" fill="none" stroke="#000000" stroke-width="6"/>
		<path id="shoulderpads" class="shp3" d="M19.5 570C19.5 570 92 567.89 101 550 M381 570C381 570 310 567.89 301 550" fill="none" stroke="#000000" stroke-width="2" />
	</g>
</svg>