<svg xmlns="http://www.w3.org/2000/svg" viewBox="0 0 400 600" width="400" height="600">
    	<g id="football">
    		<path id="football" class="football" d="M100 500C100 500 170 590 200 590C230 590 300 500 300 500C300 500 330 510 360 510C360 510 390 520 390 550C390 580 400 610 400 610L0 610C0 610 10 580 10 550C10 520 40 510 40 510C70 510 100 500 100 500" fill="$[primary]" stroke="#000000" stroke-width="6"/>
        <g id="Shoulder-Strip"  transform="matrix(1.2,0,0,1.575,-6.72614,-293.25)">
            <g id="accent-stripes" style='fill:$[accent];'>
                <g  transform="matrix(0.833333,0,0,0.634921,-4.70263,482.708)">
                    <rect x="58" y="42.985" width="12" height="63" style="fill-rule:nonzero;"/>
                </g>
                <g  transform="matrix(0.833333,0,0,0.634921,-4.70263,482.708)">
                    <rect x="356" y="42.985" width="12" height="63" style="fill-rule:nonzero;"/>
                </g>
            </g>
            <g id="secondary-stripes" style='fill:$[secondary];'>
                <g  transform="matrix(0.833333,0,0,0.634921,-4.70263,482.708)">
                    <rect x="70" y="42.985" width="12" height="63" style="fill-rule:nonzero;"/>
                </g>
                <g  transform="matrix(0.833333,0,0,0.634921,-4.70263,482.708)">
                    <path d="M52.369,42.985L58,42.985L58,105.985L46,105.985L46,45.895C49.721,43.868 52.369,42.985 52.369,42.985Z" style="fill-rule:nonzero;"/>
                </g>
                <g  transform="matrix(0.833333,0,0,0.634921,-4.70263,482.708)">
                    <rect x="344" y="42.985" width="12" height="63" style="fill-rule:nonzero;"/>
                </g>
                <g  transform="matrix(0.833333,0,0,0.634921,-4.70263,482.708)">
                    <path d="M372.369,42.985C372.369,42.985 375.628,44.071 380,46.603L380,105.985L368,105.985L368,42.985L372.369,42.985Z" style="fill-rule:nonzero;"/>
                </g>
            </g>
        </g>
    		<path id="football-outline" class="football" d="M100 500C100 500 170 590 200 590C230 590 300 500 300 500C300 500 330 510 360 510C360 510 390 520 390 550C390 580 400 610 400 610L0 610C0 610 10 580 10 550C10 520 40 510 40 510C70 510 100 500 100 500" fill-opacity="0" stroke="#000000" stroke-width="6"/>
    		<path id="shoulderpads" class="shoulderpads" d="M370 560C370 560 309 567.89 300 550M30 560C30 560 91 567.89 100 550" fill="none" stroke="#000000" stroke-width="3"/>
    		<path id="collar-outline" class="collar-outline" d="M100 500C100 500 170 590 200 590C230 590 300 500 300 500" fill="none" stroke="#000000" stroke-width="16"/>
    		<path id="collar-accent" class="collar-accent" d="M100 500C100 500 170 590 200 590C230 590 300 500 300 500" fill="none" stroke="$[accent]" stroke-width="12"/>
    		<path id="collar-secondary" class="collar-secondary" d="M100 500C100 500 170 590 200 590C230 590 300 500 300 500" fill="none" stroke="$[secondary]" stroke-width="6"/>
    	</g>
    </svg>