<svg xmlns="http://www.w3.org/2000/svg" viewBox="0 0 400 600" width="400" height="600">
	<style>
		tspan { white-space:pre }
		.hockey--primary { fill: $[primary] } 
		.hockey--accent { fill: $[accent];stroke: #000000;stroke-width: 2 } 
		.hockey-secondary { fill: $[secondary];stroke: #000000;stroke-width: 2 } 
		.collar-primary { fill: $[primary];stroke: #000000;stroke-width: 4 } 
		.hockey-stroke { fill: none;stroke: #000000;stroke-width: 6 } 
	</style>
	<g id="Hockey">
		<path id="Hockey-Primary" class="hockey--primary" d="M120 500C120 520 170 520 200 540C230 520 280 520 280 500C280 500 330 500 360 510C360 510 380 520 390 550C400 580 400 610 400 610L0 610C0 610 0 580 10 550C20 520 40 510 40 510L120 500Z" />
		<path id="Hockey-Accent" class="hockey--accent" d="M4.5 577.03C4.5 577.03 10 580 20 580C50 565 130 560 200 560C290 560 350 565 380 580C390 580 397 577.03 397 577.03L398 590C398 590 390 595 380 595C340 575 270 572.52 200 572.52C120 572.52 50 575 20 595C10 595 2 590 2 590L4.5 577.03Z" />
		<path id="Hockey-Secondary" class="hockey-secondary" d="M172.5 545.53C62.5 541.03 20.5 568.03 20.5 568.03C20.5 568.03 11.5 569.03 6 563.03C21 515.03 40 510 40 510C40 510 90 500 120 500C120 520 172.5 545.53 172.5 545.53ZM227.5 545.53C337.5 541.03 379.5 568.03 379.5 568.03C379.5 568.03 388.5 569.03 394 563.03C379 515.03 360 510 360 510C360 510 310 500 280 500C280 520 227.5 545.53 227.5 545.53Z" />
		<path id="Collar-Primary" class="collar-primary" d="M111 501.04C109.07 501.5 105.72 502.15 103.55 502.49C100.12 503.01 99.63 503.41 99.8 505.55C99.91 506.9 100.84 509.69 101.87 511.75C102.89 513.81 105.05 516.85 106.66 518.5C108.27 520.15 112.04 522.88 115.04 524.57C118.04 526.26 125 529.29 130.5 531.3C136 533.31 145.9 536.81 152.5 539.09C159.1 541.37 168.55 545.13 173.5 547.45C178.45 549.76 185.84 553.87 189.91 556.58C193.99 559.29 197.82 561.89 198.41 562.37C199.09 562.91 202.33 561.34 207 558.2C211.12 555.43 218.55 551.16 223.5 548.71C228.45 546.26 236.32 542.88 241 541.2C245.67 539.51 255.57 536.03 263 533.46C270.42 530.88 279.42 527.29 283 525.48C286.57 523.66 291.17 520.45 293.2 518.34C295.24 516.23 297.6 512.81 298.45 510.75C299.3 508.69 300 506.1 300 505C300 503.45 299.15 502.87 296.25 502.45C294.19 502.14 290.59 501.47 288.25 500.95C285.91 500.43 283.1 500 282 500C280.6 500 279.85 500.83 279.51 502.75C279.23 504.26 277.77 506.72 276.26 508.21C274.74 509.7 270.69 512.28 267.25 513.96C263.81 515.63 253.69 519.23 244.75 521.95C235.81 524.68 226.02 527.78 223 528.85C219.97 529.91 215.47 531.66 213 532.74C210.52 533.81 206.7 535.85 204.5 537.27L200.5 539.84C185 532.19 175.77 528.45 170 526.6C164.22 524.74 154.1 521.55 147.5 519.5C140.9 517.45 133.81 514.92 131.75 513.89C129.69 512.85 126.41 510.54 124.46 508.75C122.52 506.96 120.72 504.26 120.46 502.75C120.08 500.5 119.5 500.02 117.25 500.1C115.74 500.16 112.92 500.58 111 501.04Z" />
		<path id="Collar-Accent" class="hockey--accent" d="M107 505.67C107 506.87 107.79 509.3 108.75 511.06C109.71 512.82 112.41 515.78 114.75 517.64C117.09 519.5 122.04 522.34 125.75 523.96C129.46 525.58 141.72 529.77 153 533.27C164.27 536.76 176.65 540.89 180.5 542.44C184.35 543.99 189.97 547 193 549.14C196.02 551.27 199.17 553.01 200 553C200.82 552.99 203.97 551.25 207 549.14C210.02 547.02 215.65 544.02 219.5 542.46C223.35 540.9 235.72 536.76 247 533.27C258.27 529.77 270.54 525.58 274.25 523.96C277.96 522.34 282.91 519.5 285.25 517.64C287.59 515.78 290.29 512.82 291.25 511.06C292.21 509.3 293 506.87 293 505.67C293 503.92 292.5 503.48 290.5 503.48C288.67 503.48 288 503.94 288 505.23C288 506.2 287.38 508.07 286.63 509.4C285.87 510.72 283.62 513.09 281.63 514.66C279.63 516.22 275.64 518.54 272.75 519.81C269.86 521.08 263.9 523.28 259.5 524.7C255.1 526.13 244.52 529.47 236 532.14C227.47 534.8 218.02 538.08 215 539.42C211.97 540.75 207.36 543.28 204.75 545.02L200 548.2C192.64 543.28 188.02 540.75 185 539.42C181.97 538.08 172.52 534.8 164 532.14C155.47 529.47 144.9 526.13 140.5 524.7C136.1 523.28 130.14 521.08 127.25 519.81C124.36 518.54 120.37 516.22 118.37 514.66C116.38 513.09 114.13 510.72 113.37 509.4C112.62 508.07 112 506.2 112 505.23C112 503.94 111.33 503.48 109.5 503.48C107.5 503.48 107 503.92 107 505.67Z" />
		<path id="Hockey-stroke" class="hockey-stroke" d="M120 500C120 520 170 520 200 540C230 520 280 520 280 500C280 500 330 500 360 510C360 510 380.51 521.54 390 550C400 580 400 610 400 610L0 610C0 610 0 580 10 550C19.49 521.54 40 510 40 510L120 500Z" />
		<path id="Collar-Shield-Secondary" class="hockey--accent" d="M180 528.21L220 528.21L230 545.26L200 564L170 545.26L180 528.21Z" />
	</g>
</svg>