<svg xmlns="http://www.w3.org/2000/svg" viewBox="0 0 400 600" width="400" height="600">
	<g id="Hockey">
		<path id="hockeyPrimary" class="hockeyPrimary" d="M120 505C120 525 170 520 200 540C230 520 280 525 280 505C280 505 330 500 360 510C360 510 380 520 390 550C400 580 400 610 400 610L0 610C0 610 0 580 10 550C20 520 40 510 40 510C70 500 120 505 120 505Z" fill="#f9f9f9" stroke="#000000" stroke-width="6" />
		<path id="lowStripe" class="lowStripe" d="M0 600L400 601.8L398 590C398 590 390 595 380 595C340 575 310 565 200 565C80 565 2 590 2 590L0 600Z" fill="$[primary]" stroke="#000" stroke-width="none"/>
		<path id="stripeAccent" class="stripeAccent" d="M4.5 577.03C4.5 577.03 10 580 20 580C50 565 130 560 200 560C290 560 350 565 380 580C390 580 397 577.03 397 577.03L398 590C398 590 390 595 380 595C340 575 270 572.52 200 572.52C120 572.52 50 575 20 595C10 595 2 590 2 590L4.5 577.03Z" fill="$[secondary]" stroke="#000" stroke-width="1" />
		<path id="collarAccent" class="collarAccent" d="M120 505C120 525 170 520 200 535C230 520 280 525 280 505L295 504C295 545 255 525 200 560C145 525 105 545 105 504L120 505Z" fill="$[primary]" stroke="#000000" stroke-width="2"/>
		<path id="hockeyStroke" class="hockeyStroke" d="M120 505C120 525 170 520 200 540C230 520 280 525 280 505C280 505 330 500 360 510C360 510 380 520 390 550C400 580 400 610 400 610L0 610C0 610 0 580 10 550C20 520 40 510 40 510C70 500 120 505 120 505Z" fill="none" stroke="#000000" stroke-width="6"/>
		<path id="shieldSecondary" class="shieldSecondary" d="M180 528.21L220 528.21L230 545.26L200 564L170 545.26L180 528.21Z" fill="$[secondary]" stroke="#000000" stroke-width="2"/>
	</g>
</svg>