<svg xmlns="http://www.w3.org/2000/svg" viewBox="0 0 400 600" width="400" height="600">
	<g id="Hockey">
		<path id="hockeyPrimary" class="hockeyPrimary" d="M120 505C120 525 170 520 200 540C230 520 280 525 280 505C280 505 330 500 360 510C360 510 380 520 390 550C400 580 400 610 400 610L0 610C0 610 0 580 10 550C20 520 40 510 40 510C70 500 120 505 120 505Z" fill="$[primary]" stroke="#000000" stroke-width="6" />
		<path id="shoulderSecondary" class="shoulderSecondary" d="M172.5 545.53C62.5 541.03 20.5 568.03 20.5 568.03C20.5 568.03 11.5 569.03 6 563.03C21 515.03 40 510 40 510C40 510 90 505 120 505C120 525 172.5 545.53 172.5 545.53ZM227.5 545.53C337.5 541.03 379.5 568.03 379.5 568.03C379.5 568.03 388.5 569.03 394 563.03C379 515.03 360 510 360 510C360 510 310 505 280 505C280 525 227.5 545.53 227.5 545.53Z" fill="$[secondary]" stroke="#000000" stroke-width="2" />
		<path id="collarAccent" class="collarAccent" d="M120 505C120 525 170 520 200 535C230 520 280 525 280 505L295 504C295 545 255 525 200 560C145 525 105 545 105 504L120 505Z" fill="$[accent]" stroke="#000000" stroke-width="2"/>
		<path id="hockeyStroke" class="hockeyStroke" d="M120 505C120 525 170 520 200 540C230 520 280 525 280 505C280 505 330 500 360 510C360 510 380 520 390 550C400 580 400 610 400 610L0 610C0 610 0 580 10 550C20 520 40 510 40 510C70 500 120 505 120 505Z" fill="none" stroke="#000000" stroke-width="6"/>
		<path id="shieldSecondary" class="shieldSecondary" d="M180 528.21L220 528.21L230 545.26L200 564L170 545.26L180 528.21Z" fill="$[secondary]" stroke="#000000" stroke-width="2"/>
	</g>
</svg>