<svg xmlns="http://www.w3.org/2000/svg" viewBox="0 0 400 600" width="400" height="600">
	<defs>
		<linearGradient id="blizz" gradientUnits="userSpaceOnUse"  x1="200" y1="610" x2="200" y2="510">
			<stop offset="0" stop-color="$[secondary]"  />
			<stop offset="1" stop-color="$[primary]"  />
		</linearGradient>
	</defs>
	<style>
		tspan { white-space:pre }
		.blizz { fill: url(#blizz);stroke: none} 
	</style>
	<path id="primary" class="blizz" d="M80 610C80 610 90 580 90 520C110 510 110 510 110 510C110 510 120 590 200 590C280 590 290 510 290 510C290 510 290 510 310 520C310 580 320 610 320 610L80 610Z" />
	<path id="flakes2" class="flakes2" d="M298.01 534.85L298.51 534.46L298.66 534.41L298.62 534.38L298.86 534.19L299.22 534.66L298.6 535.14L299.18 535.42L300.62 533.95L301.2 534.23L299.77 535.7L300.35 535.99L301.51 535.1L302.09 535.38L300.94 536.27L301.52 536.55L302.96 535.08L303.55 535.36L302.11 536.84L302.69 537.12L302.41 537.71L301.83 537.42L301.56 539.46L300.97 539.18L301.24 537.14L300.65 536.86L300.67 538.31L300.09 538.03L300.07 536.57L299.48 536.29L299.22 538.33L298.63 538.05L298.9 536L298.31 535.72L298.32 536.51L298.38 536.51L298.54 536.95L298.33 536.96L298.33 537.18L297.89 536.96L297.05 536.97L297.2 537.42L298.25 537.55L298.4 538L297.36 537.86L297.51 538.31L299 538.29L299.16 538.74L297.67 538.76L297.82 539.2L297.38 539.36L297.22 538.91L296.04 539.82L295.88 539.37L297.07 538.46L296.91 538.02L296.17 538.77L296.02 538.33L296.76 537.57L296.6 537.13L295.94 537.64L295.72 538.08L295.59 537.91L295.42 538.04L295.26 537.59L295.31 537.55L294.83 536.93L294.55 537.51L296.02 538.95L295.74 539.54L294.27 538.1L293.98 538.69L294.87 539.84L294.59 540.42L293.7 539.27L293.41 539.86L294.89 541.29L294.6 541.88L293.13 540.44L292.85 541.03L292.26 540.74L292.54 540.16L290.5 539.89L290.79 539.31L292.83 539.57L293.11 538.99L291.66 539.01L291.94 538.42L293.4 538.4L293.68 537.82L291.64 537.55L291.92 536.96L293.96 537.23L294.25 536.64L293.46 536.65L293.46 536.72L293.02 536.87L293.01 536.66L292.79 536.66L293.01 536.22L293 535.38L292.55 535.54L292.41 536.58L291.97 536.74L292.11 535.69L291.66 535.84L291.68 537.34L291.23 537.49L291.21 536L290.77 536.15L290.61 535.71L291.06 535.55L290.15 534.37L290.59 534.22L291.5 535.4L291.95 535.24L291.2 534.51L291.64 534.35L292.4 535.09L292.84 534.93L292.33 534.27L291.89 534.05L292.06 533.92L291.93 533.75L292.38 533.6L292.42 533.65L293.04 533.17L292.45 532.88L291.02 534.36L290.43 534.07L291.87 532.6L291.28 532.32L290.13 533.2L289.54 532.92L290.7 532.03L290.11 531.75L288.67 533.22L288.09 532.94L289.53 531.46L288.94 531.18L289.22 530.59L289.81 530.88L290.08 528.84L290.66 529.12L290.4 531.16L290.98 531.45L290.96 529.99L291.55 530.27L291.57 531.73L292.15 532.01L292.42 529.97L293 530.26L292.74 532.3L293.32 532.58L293.31 531.79L293.9 531.79L293.9 532.09L293.85 532.09L293.9 532.23L293.91 532.86L294.5 533.15L295.14 532.92L295.21 533.11L295.65 532.96L295.59 532.77L296.23 532.54L296.52 531.96L296.13 531.46L296.08 531.31L296.05 531.35L295.86 531.1L296.32 530.75L296.8 531.37L297.09 530.79L295.61 529.35L295.9 528.77L297.37 530.2L297.65 529.62L296.77 528.46L297.05 527.88L297.94 529.03L298.22 528.45L296.75 527.01L297.03 526.42L298.5 527.86L298.79 527.27L299.37 527.56L299.09 528.14L301.13 528.41L300.85 528.99L298.81 528.73L298.52 529.31L299.98 529.3L299.69 529.88L298.24 529.9L297.96 530.49L300 530.75L299.71 531.34L297.67 531.07L297.39 531.66L298.17 531.65L298.18 532.23L297.88 532.23L297.88 532.18L297.74 532.24L297.1 532.24L296.82 532.83L297.04 533.48L296.85 533.54L297.01 533.99L297.2 533.92L297.42 534.57L298.01 534.85ZM298.86 534.19L298.35 533.52L297.9 533.68L298.62 534.38L298.51 534.46L298.21 534.57L297.46 533.83L297.2 533.92L297.04 533.48L297.3 533.39L297.44 532.34L297.74 532.24L297.88 532.23L297.75 533.23L298.19 533.08L298.18 532.23L298.56 532.22L298.63 532.08L298.64 532.92L299.08 532.77L299.22 531.72L299.67 531.57L299.53 532.61L299.98 532.46L299.96 530.97L300.4 530.81L300.42 532.3L300.87 532.15L301.02 532.59L300.58 532.75L301.49 533.93L301.04 534.09L300.13 532.9L299.68 533.06L300.44 533.8L299.99 533.95L299.24 533.21L298.79 533.37L299.31 534.03L299.16 533.96L298.86 534.19ZM299.75 534.25L299.57 534.38L299.31 534.03L299.75 534.25ZM298.84 531.64L298.63 532.08L298.62 531.64L298.84 531.64ZM293.31 531.13L293.75 531.34L293.31 531.35L293.31 531.13ZM293.75 531.34L294.59 531.33L294.43 530.88L293.39 530.75L293.23 530.3L294.28 530.44L294.12 529.99L292.63 530.01L292.48 529.57L293.97 529.55L293.81 529.1L294.26 528.95L294.42 529.39L295.6 528.48L295.75 528.93L294.57 529.84L294.72 530.28L295.46 529.53L295.62 529.97L294.88 530.73L295.03 531.18L295.7 530.66L295.63 530.81L295.86 531.1L295.19 531.62L295.34 532.07L296.05 531.35L296.13 531.46L296.24 531.76L295.5 532.51L295.59 532.77L295.14 532.92L295.05 532.67L294.01 532.53L293.9 532.23L293.9 532.09L294.9 532.22L294.74 531.78L293.9 531.79L293.89 531.41L293.75 531.34ZM295.91 530.22L296.05 530.39L295.7 530.66L295.91 530.22ZM294.53 536.06L294.82 535.47L294.59 534.83L294.33 534.92L294.2 535.96L293.9 536.07L294.53 536.06ZM294.21 533.73L293.63 533.45L293.12 533.84L293.42 533.73L294.18 534.47L294.44 534.38L294.21 533.73ZM297.73 535.44L297.14 535.15L296.49 535.38L296.58 535.63L297.63 535.77L297.73 536.07L297.73 535.44ZM295.4 535.76L295.12 536.34L295.5 536.85L295.4 536.54L296.14 535.79L296.05 535.53L295.4 535.76ZM296.74 536.08L296.89 536.53L297.74 536.52L297.74 536.21L296.74 536.08ZM296.45 536.68L296.29 536.23L295.59 536.96L295.77 537.2L296.45 536.68ZM293.89 535.07L293.44 535.23L293.45 536.07L293.76 536.07L293.89 535.07ZM293.29 534.78L293.73 534.62L293.01 533.92L292.77 534.11L293.29 534.78ZM296.32 530.75L296.05 530.39L296.22 530.27L296.37 530.71L296.32 530.75ZM293.31 531.35L293.31 531.79L293.25 531.79L293.1 531.35L293.31 531.35ZM299.22 534.66L299.57 534.38L299.7 534.55L299.26 534.71L299.22 534.66ZM298.62 531.64L298.17 531.65L298.17 531.58L298.62 531.43L298.62 531.64ZM107.01 530.85L107.51 530.46L107.66 530.41L107.62 530.38L107.86 530.19L108.22 530.66L107.6 531.14L108.18 531.42L109.62 529.95L110.2 530.23L108.77 531.7L109.35 531.99L110.51 531.1L111.09 531.38L109.94 532.27L110.52 532.55L111.96 531.08L112.55 531.36L111.11 532.84L111.69 533.12L111.41 533.71L110.83 533.42L110.56 535.46L109.97 535.18L110.24 533.14L109.65 532.86L109.67 534.31L109.09 534.03L109.07 532.57L108.48 532.29L108.22 534.33L107.63 534.05L107.9 532L107.31 531.72L107.32 532.51L107.38 532.51L107.54 532.95L107.33 532.96L107.33 533.18L106.89 532.96L106.05 532.97L106.2 533.42L107.25 533.55L107.4 534L106.36 533.86L106.51 534.31L108 534.29L108.16 534.74L106.67 534.76L106.82 535.2L106.38 535.36L106.22 534.91L105.04 535.82L104.88 535.37L106.07 534.46L105.91 534.02L105.17 534.77L105.02 534.33L105.76 533.57L105.6 533.13L104.94 533.64L104.72 534.08L104.59 533.91L104.42 534.04L104.26 533.59L104.31 533.55L103.83 532.93L103.55 533.51L105.02 534.95L104.74 535.54L103.27 534.1L102.98 534.69L103.87 535.84L103.59 536.42L102.7 535.27L102.41 535.86L103.89 537.29L103.6 537.88L102.13 536.44L101.85 537.03L101.26 536.74L101.54 536.16L99.5 535.89L99.79 535.31L101.83 535.57L102.11 534.99L100.66 535.01L100.94 534.42L102.4 534.4L102.68 533.82L100.64 533.55L100.92 532.96L102.96 533.23L103.25 532.64L102.46 532.65L102.46 532.72L102.02 532.87L102.01 532.66L101.79 532.66L102.01 532.22L102 531.38L101.55 531.54L101.41 532.58L100.97 532.74L101.11 531.69L100.66 531.84L100.68 533.34L100.23 533.49L100.21 532L99.77 532.15L99.61 531.71L100.06 531.55L99.15 530.37L99.59 530.22L100.5 531.4L100.95 531.24L100.2 530.51L100.64 530.35L101.4 531.09L101.84 530.93L101.33 530.27L100.89 530.05L101.06 529.92L100.93 529.75L101.38 529.6L101.42 529.65L102.04 529.17L101.45 528.88L100.02 530.36L99.43 530.07L100.87 528.6L100.28 528.32L99.13 529.2L98.54 528.92L99.7 528.03L99.11 527.75L97.67 529.22L97.09 528.94L98.53 527.46L97.94 527.18L98.22 526.59L98.81 526.88L99.08 524.84L99.66 525.12L99.4 527.16L99.98 527.45L99.96 525.99L100.55 526.27L100.57 527.73L101.15 528.01L101.42 525.97L102 526.26L101.74 528.3L102.32 528.58L102.31 527.79L102.9 527.79L102.9 528.09L102.85 528.09L102.9 528.23L102.91 528.86L103.5 529.15L104.14 528.92L104.21 529.11L104.65 528.96L104.59 528.77L105.23 528.54L105.52 527.96L105.13 527.46L105.08 527.31L105.05 527.35L104.86 527.1L105.32 526.75L105.8 527.37L106.09 526.79L104.61 525.35L104.9 524.77L106.37 526.2L106.65 525.62L105.77 524.46L106.05 523.88L106.94 525.03L107.22 524.45L105.75 523.01L106.03 522.42L107.5 523.86L107.79 523.27L108.37 523.56L108.09 524.14L110.13 524.41L109.85 524.99L107.81 524.73L107.52 525.31L108.98 525.3L108.69 525.88L107.24 525.9L106.96 526.49L109 526.75L108.71 527.34L106.67 527.07L106.39 527.66L107.17 527.65L107.18 528.23L106.88 528.23L106.88 528.18L106.74 528.24L106.1 528.24L105.82 528.83L106.04 529.48L105.85 529.54L106.01 529.99L106.2 529.92L106.42 530.57L107.01 530.85ZM107.86 530.19L107.35 529.52L106.9 529.68L107.62 530.38L107.51 530.46L107.21 530.57L106.46 529.83L106.2 529.92L106.04 529.48L106.3 529.39L106.44 528.34L106.74 528.24L106.88 528.23L106.75 529.23L107.19 529.08L107.18 528.23L107.56 528.22L107.63 528.08L107.64 528.92L108.08 528.77L108.22 527.72L108.67 527.57L108.53 528.61L108.98 528.46L108.96 526.97L109.4 526.81L109.42 528.3L109.87 528.15L110.02 528.59L109.58 528.75L110.49 529.93L110.04 530.09L109.13 528.9L108.68 529.06L109.44 529.8L108.99 529.95L108.24 529.21L107.79 529.37L108.31 530.03L108.16 529.96L107.86 530.19ZM108.75 530.25L108.57 530.38L108.31 530.03L108.75 530.25ZM107.84 527.64L107.63 528.08L107.62 527.64L107.84 527.64ZM102.31 527.13L102.75 527.34L102.31 527.35L102.31 527.13ZM102.75 527.34L103.59 527.33L103.43 526.88L102.39 526.75L102.23 526.3L103.28 526.44L103.12 525.99L101.63 526.01L101.48 525.57L102.97 525.55L102.81 525.1L103.26 524.95L103.42 525.39L104.6 524.48L104.75 524.93L103.57 525.84L103.72 526.28L104.46 525.53L104.62 525.97L103.88 526.73L104.03 527.18L104.7 526.66L104.63 526.81L104.86 527.1L104.19 527.62L104.34 528.07L105.05 527.35L105.13 527.46L105.24 527.76L104.5 528.51L104.59 528.77L104.14 528.92L104.05 528.67L103.01 528.53L102.9 528.23L102.9 528.09L103.9 528.22L103.74 527.78L102.9 527.79L102.89 527.41L102.75 527.34ZM104.91 526.22L105.05 526.39L104.7 526.66L104.91 526.22ZM103.53 532.06L103.82 531.47L103.59 530.83L103.33 530.92L103.2 531.96L102.9 532.07L103.53 532.06ZM103.21 529.73L102.63 529.45L102.12 529.84L102.42 529.73L103.18 530.47L103.44 530.38L103.21 529.73ZM106.73 531.44L106.14 531.15L105.49 531.38L105.58 531.63L106.63 531.77L106.73 532.07L106.73 531.44ZM104.4 531.76L104.12 532.34L104.5 532.85L104.4 532.54L105.14 531.79L105.05 531.53L104.4 531.76ZM105.74 532.08L105.89 532.53L106.74 532.52L106.74 532.21L105.74 532.08ZM105.45 532.68L105.29 532.23L104.59 532.96L104.77 533.2L105.45 532.68ZM102.89 531.07L102.44 531.23L102.45 532.07L102.76 532.07L102.89 531.07ZM102.29 530.78L102.73 530.62L102.01 529.92L101.77 530.11L102.29 530.78ZM105.32 526.75L105.05 526.39L105.22 526.27L105.37 526.71L105.32 526.75ZM102.31 527.35L102.31 527.79L102.25 527.79L102.1 527.35L102.31 527.35ZM108.22 530.66L108.57 530.38L108.7 530.55L108.26 530.71L108.22 530.66ZM107.62 527.64L107.17 527.65L107.17 527.58L107.62 527.43L107.62 527.64ZM265.4 586.24L265.66 585.37L265.79 585.19L265.72 585.18L265.84 584.76L266.64 584.99L266.32 586.08L267.24 585.91L267.67 582.99L268.59 582.83L268.16 585.75L269.08 585.59L269.67 583.59L270.59 583.42L270 585.42L270.91 585.26L271.34 582.34L272.26 582.18L271.83 585.1L272.75 584.93L272.91 585.85L272 586.01L273.4 588.61L272.49 588.77L271.08 586.18L270.16 586.34L271.4 588.01L270.49 588.18L269.24 586.5L268.32 586.67L269.73 589.26L268.81 589.42L267.4 586.83L266.49 587L267.16 587.9L267.23 587.85L267.79 588.23L267.54 588.42L267.73 588.67L267.04 588.79L266.07 589.51L266.63 589.9L267.95 589.18L268.51 589.56L267.18 590.28L267.74 590.67L269.45 589.39L270.01 589.78L268.29 591.06L268.84 591.45L268.46 592L267.9 591.61L267.3 593.67L266.74 593.28L267.35 591.23L266.79 590.84L266.57 592.34L266.02 591.95L266.24 590.45L265.68 590.07L265.34 591.22L265.47 591.91L265.16 591.82L265.08 592.12L264.52 591.73L264.55 591.64L263.47 591.32L263.63 592.24L266.55 592.67L266.71 593.59L263.79 593.16L263.96 594.08L265.96 594.67L266.12 595.59L264.12 595L264.28 595.91L267.2 596.34L267.37 597.26L264.45 596.83L264.61 597.75L263.69 597.91L263.53 597L260.94 598.4L260.77 597.49L263.36 596.08L263.2 595.16L261.53 596.4L261.36 595.49L263.04 594.24L262.87 593.32L260.28 594.73L260.12 593.81L262.71 592.4L262.55 591.49L261.64 592.16L261.7 592.23L261.31 592.79L261.13 592.54L260.87 592.73L260.75 592.04L260.03 591.07L259.65 591.63L260.37 592.95L259.98 593.51L259.26 592.18L258.87 592.74L260.15 594.45L259.76 595.01L258.48 593.29L258.1 593.84L257.54 593.46L257.93 592.9L255.88 592.3L256.26 591.74L258.32 592.35L258.7 591.79L257.21 591.57L257.59 591.02L259.09 591.24L259.48 590.68L258.32 590.34L257.63 590.47L257.72 590.16L257.43 590.08L257.81 589.52L257.9 589.55L258.22 588.47L257.3 588.63L256.87 591.55L255.96 591.71L256.38 588.79L255.47 588.96L254.87 590.96L253.96 591.12L254.55 589.12L253.63 589.28L253.2 592.2L252.28 592.37L252.71 589.45L251.79 589.61L251.63 588.69L252.55 588.53L251.14 585.94L252.06 585.77L253.46 588.36L254.38 588.2L253.14 586.53L254.06 586.36L255.3 588.04L256.22 587.87L254.81 585.28L255.73 585.12L257.14 587.71L258.06 587.55L257.38 586.64L258.05 586.14L258.31 586.5L258.25 586.53L258.43 586.65L258.98 587.38L259.89 587.22L260.46 586.42L260.69 586.58L261.08 586.03L260.84 585.86L261.4 585.06L261.24 584.14L260.37 583.88L260.19 583.76L260.18 583.82L259.76 583.7L259.99 582.9L261.08 583.22L260.91 582.3L257.99 581.87L257.83 580.96L260.75 581.38L260.59 580.47L258.59 579.87L258.42 578.96L260.42 579.55L260.26 578.63L257.34 578.2L257.18 577.28L260.1 577.71L259.93 576.79L260.85 576.63L261.01 577.55L263.61 576.14L263.77 577.06L261.18 578.46L261.34 579.38L263.01 578.14L263.18 579.06L261.5 580.3L261.67 581.22L264.26 579.81L264.42 580.73L261.83 582.14L262 583.06L262.9 582.38L263.4 583.05L263.05 583.31L263.01 583.25L262.89 583.43L262.16 583.98L262.32 584.89L263.13 585.46L262.96 585.69L263.52 586.08L263.68 585.84L264.49 586.4L265.4 586.24ZM265.84 584.76L264.68 584.41L264.29 584.97L265.72 585.18L265.66 585.37L265.4 585.74L263.9 585.52L263.68 585.84L263.13 585.46L263.35 585.14L262.63 583.81L262.89 583.43L263.05 583.31L263.74 584.58L264.12 584.03L263.4 583.05L263.83 582.73L263.79 582.51L264.51 583.47L264.9 582.92L264.18 581.59L264.56 581.03L265.28 582.36L265.67 581.81L264.39 580.09L264.78 579.54L266.06 581.25L266.45 580.7L267 581.09L266.61 581.64L268.67 582.25L268.28 582.8L266.23 582.19L265.84 582.75L267.34 582.97L266.95 583.52L265.45 583.3L265.07 583.86L266.22 584.2L266 584.24L265.84 584.76ZM266.91 584.08L266.82 584.38L266.22 584.2L266.91 584.08ZM263.67 581.81L263.79 582.51L263.42 582L263.67 581.81ZM256.81 585.87L257.51 585.75L257 586.13L256.81 585.87ZM257.51 585.75L258.47 585.03L257.92 584.65L256.59 585.37L256.03 584.98L257.36 584.26L256.81 583.87L255.09 585.15L254.54 584.76L256.25 583.48L255.7 583.1L256.09 582.54L256.64 582.93L257.25 580.88L257.8 581.26L257.19 583.32L257.75 583.7L257.97 582.21L258.52 582.59L258.3 584.09L258.86 584.48L259.2 583.32L259.24 583.55L259.76 583.7L259.41 584.86L259.97 585.25L260.18 583.82L260.37 583.88L260.74 584.14L260.52 585.64L260.84 585.86L260.46 586.42L260.14 586.19L258.81 586.92L258.43 586.65L258.31 586.5L259.58 585.81L259.03 585.42L258.05 586.14L257.73 585.71L257.51 585.75ZM259.08 582.63L259.38 582.72L259.2 583.32L259.08 582.63ZM262.38 590.57L262.22 589.65L261.42 589.09L261.19 589.41L261.92 590.74L261.65 591.11L262.38 590.57ZM260.06 588.14L259.14 588.3L258.88 589.17L259.14 588.8L260.64 589.02L260.86 588.7L260.06 588.14ZM265.57 587.16L264.65 587.32L264.09 588.13L264.41 588.35L265.74 587.63L266.11 587.89L265.57 587.16ZM263.14 589.49L263.3 590.4L264.17 590.66L263.8 590.4L264.02 588.9L263.7 588.68L263.14 589.49ZM264.96 588.74L265.52 589.12L266.49 588.4L266.23 588.05L264.96 588.74ZM265.13 589.68L264.57 589.29L264.36 590.72L264.78 590.84L265.13 589.68ZM260.81 589.96L260.42 590.52L261.14 591.49L261.5 591.23L260.81 589.96ZM259.86 590.13L260.25 589.57L258.82 589.36L258.7 589.78L259.86 590.13ZM259.99 582.9L259.38 582.72L259.47 582.43L260.02 582.81L259.99 582.9ZM257 586.13L257.38 586.64L257.31 586.7L256.76 586.31L257 586.13ZM266.64 584.99L266.82 584.38L267.12 584.47L266.73 585.02L266.64 584.99ZM263.42 582L262.9 582.38L262.85 582.31L263.23 581.76L263.42 582ZM118.3 598.75L119.02 598.31L119.22 598.27L119.18 598.22L119.53 598.01L119.93 598.67L119.03 599.22L119.77 599.68L121.89 597.94L122.62 598.4L120.5 600.14L121.24 600.6L122.89 599.6L123.63 600.06L121.97 601.07L122.7 601.53L124.82 599.79L125.56 600.25L123.44 601.99L124.17 602.45L123.71 603.19L122.97 602.73L122.32 605.39L121.59 604.93L122.24 602.26L121.51 601.8L121.31 603.73L120.58 603.27L120.77 601.34L120.04 600.87L119.38 603.54L118.65 603.08L119.3 600.41L118.57 599.95L118.47 600.99L118.55 601L118.69 601.62L118.41 601.59L118.38 601.88L117.82 601.53L116.71 601.42L116.85 602.03L118.22 602.37L118.35 602.98L116.99 602.65L117.13 603.26L119.11 603.46L119.25 604.07L117.27 603.87L117.41 604.49L116.79 604.63L116.65 604.01L114.95 605.04L114.81 604.43L116.51 603.4L116.37 602.79L115.29 603.68L115.15 603.06L116.24 602.17L116.1 601.56L115.14 602.14L114.79 602.69L114.64 602.44L114.39 602.59L114.26 601.97L114.33 601.93L113.78 601.03L113.32 601.77L115.06 603.89L114.6 604.62L112.86 602.5L112.4 603.24L113.4 604.89L112.94 605.63L111.93 603.97L111.47 604.7L113.21 606.82L112.75 607.56L111.01 605.44L110.55 606.17L109.81 605.71L110.27 604.97L107.61 604.32L108.07 603.59L110.74 604.24L111.2 603.51L109.27 603.31L109.73 602.58L111.66 602.77L112.13 602.04L109.46 601.38L109.92 600.65L112.59 601.3L113.05 600.57L112.01 600.47L112 600.55L111.38 600.69L111.41 600.41L111.12 600.38L111.47 599.82L111.58 598.71L110.97 598.85L110.63 600.22L110.02 600.35L110.35 598.99L109.74 599.13L109.54 601.11L108.93 601.25L109.13 599.27L108.51 599.41L108.37 598.79L108.99 598.65L107.96 596.95L108.57 596.81L109.6 598.51L110.21 598.37L109.32 597.29L109.94 597.15L110.83 598.24L111.44 598.1L110.86 597.14L110.31 596.79L110.56 596.64L110.41 596.39L111.03 596.26L111.07 596.33L111.97 595.78L111.23 595.32L109.11 597.06L108.38 596.6L110.5 594.86L109.76 594.4L108.11 595.4L107.37 594.94L109.03 593.93L108.3 593.47L106.18 595.21L105.44 594.75L107.56 593.01L106.83 592.55L107.29 591.81L108.03 592.27L108.68 589.61L109.41 590.07L108.76 592.74L109.49 593.2L109.69 591.27L110.42 591.73L110.23 593.66L110.96 594.13L111.62 591.46L112.35 591.92L111.7 594.59L112.43 595.05L112.53 594.01L113.31 594.08L113.26 594.49L113.2 594.47L113.25 594.67L113.16 595.51L113.9 595.98L114.79 595.77L114.85 596.04L115.46 595.9L115.4 595.64L116.29 595.43L116.75 594.7L116.31 593.98L116.27 593.78L116.22 593.82L116.01 593.47L116.67 593.07L117.22 593.97L117.68 593.23L115.94 591.11L116.4 590.38L118.14 592.5L118.6 591.76L117.6 590.11L118.06 589.37L119.07 591.03L119.53 590.3L117.79 588.18L118.25 587.44L119.99 589.56L120.45 588.83L121.19 589.29L120.73 590.03L123.39 590.68L122.93 591.41L120.26 590.76L119.8 591.49L121.73 591.69L121.27 592.42L119.34 592.23L118.87 592.96L121.54 593.62L121.08 594.35L118.41 593.7L117.95 594.43L118.99 594.53L118.92 595.31L118.51 595.26L118.53 595.2L118.33 595.25L117.49 595.16L117.02 595.9L117.23 596.79L116.96 596.85L117.1 597.46L117.36 597.4L117.57 598.29L118.3 598.75ZM119.96 597.75L120.14 597.86L119.56 596.9L120.17 596.76L121.06 597.85L121.68 597.71L120.79 596.63L121.4 596.49L122.43 598.19L123.04 598.05L122.01 596.35L122.63 596.21L122.49 595.59L121.87 595.73L122.07 593.75L121.46 593.89L121.26 595.87L120.65 596.01L120.98 594.65L120.37 594.78L120.03 596.15L119.42 596.29L119.53 595.18L119.42 595.35L118.92 595.31L118.81 596.43L118.19 596.57L118.51 595.26L118.33 595.25L117.91 595.34L117.58 596.71L117.23 596.79L117.36 597.4L117.72 597.32L118.61 598.41L119.02 598.31L119.18 598.22L118.33 597.18L118.94 597.04L119.53 598.01L119.96 597.75ZM120.69 598.21L120.44 598.36L120.14 597.86L120.69 598.21ZM119.88 594.62L119.53 595.18L119.59 594.59L119.88 594.62ZM112.62 593.12L113.18 593.47L112.59 593.41L112.62 593.12ZM113.18 593.47L114.29 593.58L114.15 592.97L112.78 592.63L112.65 592.02L114.01 592.35L113.87 591.74L111.89 591.54L111.75 590.93L113.73 591.13L113.59 590.51L114.21 590.37L114.35 590.99L116.05 589.96L116.19 590.57L114.49 591.6L114.63 592.21L115.71 591.32L115.85 591.94L114.76 592.83L114.9 593.44L115.86 592.86L115.75 593.04L116.01 593.47L115.04 594.06L115.18 594.67L116.22 593.82L116.31 593.98L116.41 594.39L115.32 595.28L115.4 595.64L114.79 595.77L114.71 595.42L113.34 595.09L113.25 594.67L113.26 594.49L114.57 594.81L114.43 594.19L113.31 594.08L113.35 593.58L113.18 593.47ZM116.21 592.31L116.36 592.56L115.86 592.86L116.21 592.31ZM113.51 599.84L113.98 599.1L113.77 598.21L113.42 598.29L113.09 599.66L112.67 599.75L113.51 599.84ZM113.43 596.71L112.7 596.25L111.98 596.69L112.39 596.59L113.28 597.68L113.64 597.6L113.43 596.71ZM117.84 599.49L117.1 599.02L116.21 599.23L116.29 599.58L117.66 599.91L117.75 600.33L117.84 599.49ZM114.71 599.57L114.25 600.3L114.69 601.02L114.59 600.61L115.68 599.72L115.6 599.36L114.71 599.57ZM116.43 600.19L116.57 600.81L117.69 600.92L117.74 600.51L116.43 600.19ZM115.96 600.94L115.82 600.33L114.78 601.18L114.99 601.53L115.96 600.94ZM112.81 598.43L112.19 598.57L112.08 599.69L112.49 599.74L112.81 598.43ZM112.06 597.96L112.67 597.82L111.82 596.78L111.47 596.99L112.06 597.96ZM116.67 593.07L116.36 592.56L116.61 592.41L116.74 593.03L116.67 593.07ZM112.59 593.41L112.53 594.01L112.45 594L112.31 593.38L112.59 593.41ZM119.97 598.74L120.59 598.61L120.44 598.36L119.93 598.67L119.97 598.74ZM119.62 594.31L119 594.45L118.99 594.53L119.59 594.59L119.62 594.31Z" fill="#fff" stroke="none"/>
	<path id="flakes" fill-rule="evenodd" class="flakes" d="M97.99 562.04L107.73 565.69M104.69 558.99L101.04 568.73M107.6 561.71L98.13 566.01M100.71 559.13L105.01 568.6M111.17 548.85L116.55 550.87M114.87 547.17L112.85 552.55M116.48 548.67L111.25 551.05M112.67 547.25L115.05 552.48M119.86 565.45L125 567.41M123.47 564L121.39 568.86M124.98 565.41L119.88 567.45M121.35 564.02L123.51 568.85M98.86 578.45L104 580.41M102.47 577L100.39 581.86M103.98 578.41L98.88 580.45M100.35 577.02L102.51 581.85M138.48 580.68L142.38 582.18M141.22 579.59L139.64 583.28M142.37 580.65L138.49 582.21M139.61 579.6L141.25 583.26M272.35 562.87L280.51 565.99M278.08 560.57L274.78 568.29M280.49 562.8L272.38 566.06M274.71 560.59L278.15 568.27M297.47 576.3L303.39 578.56M301.63 574.63L299.23 580.23M303.37 576.25L297.5 578.61M299.19 574.65L301.67 580.21M289.24 567.86L292.59 569.91M291.94 567.24L289.89 570.53M292.83 568.45L289 569.33M290.46 567L291.37 570.77M300.24 591.86L303.59 593.91M302.94 591.24L300.89 594.53M303.83 592.45L300 593.33M301.46 591L302.37 594.77M293.12 594.41L294.88 595.37M294.54 594.11L293.46 595.66M295 594.68L293 595.09M293.76 594L294.24 595.77M280.28 583.21L284.58 583.65M282.72 581.38L282.14 585.49M284.16 582.14L280.7 584.73M281.12 581.82L283.74 585.04M116 578.86L119.72 578.86M117.86 577L117.86 580.72M119.18 577.55L116.55 580.18M116.55 577.55L119.18 580.18M96.5 593.98L99.78 595.74M99.02 593.22L97.26 596.5M99.92 594.32L96.36 595.4M97.6 593.08L98.68 596.64M147.5 594.98L150.78 596.74M150.02 594.22L148.26 597.5M150.92 595.32L147.36 596.4M148.6 594.08L149.68 597.64M132.5 594.98L135.78 596.74M135.02 594.22L133.26 597.5M135.92 595.32L132.36 596.4M133.6 594.08L134.68 597.64M167.5 597.98L170.78 599.74M170.02 597.22L168.26 600.5M170.92 598.32L167.36 599.4M168.6 597.08L169.68 600.64M227.5 597.98L230.78 599.74M230.02 597.22L228.26 600.5M230.92 598.32L227.36 599.4M228.6 597.08L229.68 600.64M244.5 594.98L247.78 596.74M247.02 594.22L245.26 597.5M247.92 595.32L244.36 596.4M245.6 594.08L246.68 597.64M280.5 598.98L283.78 600.74M283.02 598.22L281.26 601.5M283.92 599.32L280.36 600.4M281.6 598.08L282.68 601.64M298.5 559.98L301.78 561.74M301.02 559.22L299.26 562.5M301.92 560.32L298.36 561.4M299.6 559.08L300.68 562.64M299.5 518.98L302.78 520.74M302.02 518.22L300.26 521.5M302.92 519.32L299.36 520.4M300.6 518.08L301.68 521.64M294.14 549.9L297.42 551.66M296.66 549.14L294.9 552.42M297.56 550.24L294 551.32M295.24 549L296.32 552.56" fill="none" stroke="#ffffff" stroke-width="1"/>
	<path id="outline" class="shp2" d="M90 520C90 580 80 610 80 610M310 520C310 580 320 610 320 610M110 510C110 510 120 590 200 590C280 590 290 510 290 510" fill="none" stroke="$[secondary]" stroke-width="16"/>
	<path id="accent" class="shp3" d="M90 520C90 580 80 610 80 610M310 520C310 580 320 610 320 610M110 510C110 510 120 590 200 590C280 590 290 510 290 510" fill="none" stroke="$[primary]" stroke-width="8"/>
</svg>