<svg xmlns="http://www.w3.org/2000/svg" viewBox="0 0 400 600">
  <defs>
    <style>
      .cls-1 {
        fill: #fff;
      }
    </style>
  </defs>
  <title>cute eye</title>
  <g id="Capa_2" data-name="Capa 2">
    <path class="cls-1" d="M107.8,303.55s9.19,25.64,22.45,31c1.23-.9,18.11,5,44-3.8,0,0-2.88-15-6.78-19s-15.78-9.39-15.78-9.39L133.3,300Z"/>
    <g>
      <path d="M177.41,332.32c-2.24,1.91-2.47.28-3.13-1.53-1.7-4.65-3.62-9.23-5.62-13.77a37.68,37.68,0,0,0-3.24-4.91c-2,14.89-10.19,22.23-21.5,20.24-12.59-2.21-19.46-14.43-15.81-29.68-4.7,1.56-8.93,2.77-12.94,4.5-.7.31-1.12,3.23-.51,4.25a171.85,171.85,0,0,0,10.83,16.47c2.47,3.21,6,5.63,9,8.41l-.39,1.44c-1.49-.08-3.2.31-4.43-.3-11.46-5.6-19.52-13.83-22.45-26.91-.74-3.33-5.2-5.81-7.92-8.72-1-1.08-1.91-2.27-2.86-3.42a18.76,18.76,0,0,1,4-.93c9.61-.08,19.23,0,28.55,0l-1.61-6.1h2a63.31,63.31,0,0,0,6.62,3.13c8.18,2.79,16.46,5.27,24.6,8.15,5.62,2,9.45,5.57,11,11.85,1.3,5.44,3.84,10.59,5.83,15.87Zm-37-29.87c-8.11-.11-9,.74-10,6.83-1.09,6.71,3.71,10.34,7.56,14.32,5,5.16,14.77,5.07,19.91.08,3.9-3.78,3.07-8.54,2.36-13.13-.64-4.14-3.88-5.53-7.51-6.16C148,303.57,143.23,302.89,140.43,302.45Z"/>
      <path d="M142.41,291.32l26.91,10.34-.76,1.89-29.15-12.23Z"/>
      <path fill="$[hairColor]" d="M140.43,302.45c2.8.44,7.56,1.12,12.29,1.94,3.63.63,6.87,2,7.51,6.16.71,4.59,1.54,9.35-2.36,13.13-5.14,5-14.91,5.08-19.91-.08-3.85-4-8.65-7.61-7.56-14.32C131.4,303.19,132.32,302.34,140.43,302.45Zm6.32,15.34c2.44-3.11,4.73-4.73,4.94-6.58a4.63,4.63,0,0,0-5.59-5.27c-1.79.29-4.62,3.08-4.46,4.46C141.88,312.54,144.27,314.44,146.75,317.79Z"/>
      <path d="M146.75,317.79c-2.48-3.35-4.87-5.25-5.11-7.39-.16-1.38,2.67-4.17,4.46-4.46a4.63,4.63,0,0,1,5.59,5.27C151.48,313.06,149.19,314.68,146.75,317.79Z"/>
    </g>
  </g>
</svg>
