<?xml version="1.0" encoding="iso-8859-1"?>
<!-- Generator: Adobe Illustrator 23.0.5, SVG Export Plug-In . SVG Version: 6.00 Build 0)  -->
<svg version="1.1" id="Capa_1" xmlns="http://www.w3.org/2000/svg" xmlns:xlink="http://www.w3.org/1999/xlink" x="0px" y="0px"
	 width="66px" height="56px" viewBox="0 0 66 56" style="enable-background:new 0 0 66 56;" xml:space="preserve">
<path style="fill:#FFFFFF;" d="M62.037,31.165c0,3.938-10.266,15.11-23.4,14.104C25.85,44.29,1.977,37.864,3.425,34.202
	c3.563-9.01,13.127-23.681,34.763-15.412C50.795,23.608,62.037,24.33,62.037,31.165z"/>
<g>
	<path d="M48.119,45.062c-0.102-0.29-0.204-0.579-0.326-0.927c0.35-0.189,0.656-0.347,0.955-0.516
		c1.751-0.988,3.382-2.059,4.875-3.495c2.549-2.452,5.273-4.722,7.156-7.756c0.517-0.833,0.968-1.962,0.832-2.862
		c-0.1-0.666-1.108-1.396-1.872-1.727c-3.574-1.548-7.198-2.984-10.819-4.42c-0.823-0.326-1.707-0.496-2.738-0.787
		c0.235,0.735,0.372,1.37,0.634,1.947c0.859,1.891,1.136,3.859,0.476,5.819c-0.782,2.322-2.377,4.134-4.237,5.673
		c-3.136,2.594-6.801,3.867-10.845,3.968c-1.815,0.045-3.687,0.106-5.442-0.269c-2.242-0.479-4.412-1.4-6.06-3.103
		c-0.914-0.945-1.73-2.02-2.415-3.143c-0.732-1.199-1.41-2.475-1.841-3.805c-0.968-2.983-0.412-5.871,0.955-8.627
		c0.384-0.775,0.842-1.514,1.425-2.554c-0.629,0.253-1.032,0.355-1.372,0.56C11.707,22.52,7.295,27.255,4.315,33.286
		c-0.335,0.678-0.454,1.509-0.489,2.277c-0.041,0.899-0.581,1.073-1.25,1.069c-0.734-0.004,0.192-6.044,1.742-8.027
		c2.429-3.106,4.817-6.282,7.586-9.067c1.473-1.482,3.648-2.342,5.617-3.239c2.972-1.353,6.212-1.299,9.396-1.285
		c4.18,0.018,8.317,0.547,12.383,1.507c4.811,1.137,9.498,2.667,14.037,4.648c3.107,1.355,6.111,2.872,8.759,5.02
		c0.153,0.124,0.329,0.223,0.471,0.359c0.971,0.924,1.606,1.792,1.1,3.376c-0.987,3.09-2.293,5.928-4.558,8.289
		c-2.838,2.959-6.337,4.87-10.061,6.44c-0.245,0.103-0.462,0.271-0.692,0.408C48.278,45.062,48.198,45.062,48.119,45.062z
		 M31.427,39.16c3.858-0.235,8.845-1.941,11.803-4.897c3.731-3.729,3.909-6.316,2.128-10.592c-0.309-0.741-0.993-1.509-1.704-1.86
		c-1.25-0.619-2.633-1.016-3.999-1.345c-3.169-0.763-6.361-1.426-9.542-2.137c-2.871-0.641-5.75-1.129-8.68-0.405
		c-0.312,0.077-0.674,0.228-0.867,0.465c-3.295,4.05-4.23,8.447-2.046,13.369c1.361,3.067,3.615,5.225,6.689,6.303
		C27.17,38.747,29.347,38.815,31.427,39.16z"/>
	<path d="M5.187,21.331c-0.392-1.504,0.34-2.537,1.166-3.417c1.939-2.067,3.849-4.194,6.012-6.009
		c1.993-1.673,4.204-3.15,6.496-4.383c2.298-1.236,4.956-1.24,7.479-0.875C30,7.175,33.674,7.781,37.241,8.732
		c4.6,1.226,9.122,2.766,13.636,4.292c1.766,0.597,3.439,1.486,5.109,2.331c0.354,0.18,0.785,0.825,0.703,1.128
		c-0.209,0.783-0.766,0.295-1.233,0.128c-4.498-1.613-8.957-3.353-13.516-4.77c-4.036-1.254-8.157-2.283-12.298-3.132
		c-1.947-0.399-4.091-0.393-5.969-0.808c-2.741-0.605-4.413,0.978-6.192,2.045c-2.821,1.693-5.535,3.748-7.796,6.123
		c-1.453,1.525-3.454,2.767-4.107,5.008C5.554,21.158,5.396,21.199,5.187,21.331z"/>
	<path style="stroke:#000000;stroke-width:2;" d="M31.427,38.798c-2.08-0.345-4.257-0.412-6.217-1.099
		c-3.074-1.078-5.328-3.235-6.689-6.303c-2.184-4.923-1.249-9.319,2.046-13.369c0.192-0.236,0.555-0.388,0.867-0.465
		c2.93-0.724,5.809-0.236,8.68,0.405c3.181,0.711,6.374,1.374,9.542,2.137c1.366,0.329,2.749,0.726,3.999,1.345
		c0.711,0.352,1.395,1.119,1.704,1.86c1.781,4.276,1.602,6.863-2.128,10.592C40.272,36.858,35.285,38.563,31.427,38.798z"/>
</g>
</svg>
