<svg xmlns="http://www.w3.org/2000/svg" viewBox="0 0 75 50" width="75" height="50">
	<style>
		.white { fill: #f5f3ee } 
		.black { fill: #000000 } 
		.blackLine { fill: none;stroke: #000000;stroke-width: 6 } 
	</style>
	<g id="eye">
		<path id="white" class="white" d="M10 35L5 20C5 20 20 15 35 15C50 15 70 25 70 25L65 35C65 35 62.92 35 40 35C17.08 35 10 35 10 35Z" />
		<path id="black" class="black" d="M37.93 32.78C33.4 32.78 29.73 29.12 29.73 24.58C29.73 20.05 33.4 16.39 37.93 16.39C42.46 16.39 46.12 20.05 46.12 24.58C46.12 29.12 42.46 32.78 37.93 32.78Z" />
		<path id="blackLine" class="blackLine" d="M10 35L5 20.72C5 20.72 25 15 35 15C45 15 70 25 70 25L65 35" />
	</g>
</svg>