<svg xmlns="http://www.w3.org/2000/svg" viewBox="0 0 75 50" width="75" height="50">
	<style>
		.white { fill: #f5f3ee } 
		.black { fill: #000000 } 
	</style>
	<g id="eye">
		<path id="Shape 1" class="white" d="M5.55 33.46C5.55 33.46 17.01 4.81 39.93 4.81C62.85 4.81 68.58 33.46 68.58 33.46C68.58 33.46 62.85 44.92 39.93 44.92C17.01 44.92 5.55 33.46 5.55 33.46Z" />
		<path id="Layer 2" class="black" d="M5.55 33.46C2.68 30.6 17.08 4.1 40 4.1C62.92 4.1 71.44 30.6 68.58 33.46C65.71 36.33 62.85 16.27 39.93 16.27C17.01 16.27 8.41 36.33 5.55 33.46Z" />
		<path id="Shape 2" class="black" d="M39.93 38.04C33.59 38.04 28.47 32.92 28.47 26.58C28.47 20.25 33.59 15.12 39.93 15.12C46.27 15.12 51.39 20.25 51.39 26.58C51.39 32.92 46.27 38.04 39.93 38.04Z" />
		<path id="Shape 3" class="black" d="" />
	</g>
</svg>