<svg xmlns="http://www.w3.org/2000/svg" viewBox="0 0 75 50" width="75" height="50">
	<style>
		.white { fill: #f5f3ee } 
		.shp1 { fill: #000000 } 
	</style>
	<g id="eye">
		<path id="white" class="white" d="M5 20C5 20 17.08 11.77 40 11.77C62.92 11.77 70 30 70 30C70 30 62.85 39.92 39.93 39.92C17.01 39.92 5 20 5 20Z" />
		<path id="black" class="black" d="M5 20C2.13 17.13 17.2 10.45 40 8.1C70 5 72.87 27.13 70 30C67.13 32.87 62.92 16.27 40 16.27C17.08 16.27 7.87 22.87 5 20Z" />
		<path id="black" class="black" d="M39.93 33.04C33.59 33.04 28.47 27.92 28.47 21.58C28.47 15.25 33.59 10.12 39.93 10.12C46.27 10.12 51.39 15.25 51.39 21.58C51.39 27.92 46.27 33.04 39.93 33.04Z" />
	</g>
</svg>