<svg xmlns="http://www.w3.org/2000/svg" viewBox="0 0 75 50" width="75" height="50">
	<style>
		.white { fill: #f5f3ee } 
		.black { fill: #000000 } 
		.blackLine { fill: none;stroke: #000000;stroke-width: 6 } 
	</style>
	<g id="eye">
		<path id="white" class="white" d="M5 35L10 20C10 20 14.24 15 29.3 15C59.3 15 65 20 65 20L70 35C70 35 62.92 35 40 35C17.08 35 5 35 5 35Z" />
		<path id="black" class="black" d="M37.93 33.78C33.4 33.78 29.73 30.12 29.73 25.58C29.73 21.05 33.4 17.39 37.93 17.39C42.46 17.39 46.12 21.05 46.12 25.58C46.12 30.12 42.46 33.78 37.93 33.78Z" />
		<path id="Shape 1" class="blackLine" d="M5 35C5 35 5 25 10 20C15 15 65 20 65 20L70 35" />
	</g>
</svg>