<svg xmlns="http://www.w3.org/2000/svg" viewBox="0 0 85 50" width="85" height="50">
	<style>
		.shp0 { fill: #ffffff } 
		.shp1 { fill: #000000 } 
		.shp2 { fill: none;stroke: #000000;stroke-width: 5 } 
	</style>
	<g id="eye5">
		<path class="shp0" d="M73.67 39.73C77.59 29.26 76.02 14.35 76.02 14.35C76.02 14.35 40.16 8.08 30.22 9.13C20.27 10.17 5.88 16.72 5.88 16.72C5.88 16.72 4.44 26.93 13.48 41.06L73.67 39.73Z" />
		<path class="shp1" d="M45.8 37.65C41.67 38.08 37.63 31.77 36.76 23.52C35.89 15.27 38.52 8.25 42.65 7.81C46.77 7.38 50.81 13.69 51.68 21.94C52.55 30.19 49.92 37.21 45.8 37.65Z" />
		<path class="shp2" d="M73.67 39.73C78.12 34.24 76.02 14.35 76.02 14.35C76.02 14.35 40.16 8.08 30.22 9.13C20.27 10.17 5.88 16.72 5.88 16.72C5.88 16.72 7.45 31.64 13.48 41.06" />
	</g>
</svg>