<svg id="Capa_1" data-name="Capa 1" xmlns="http://www.w3.org/2000/svg" viewBox="0 0 400 600">
  <defs>
    <style>
      .cls-1 {
        fill: #fff;
       
      }
      .cls-2{
         stroke:#000000;stroke-width:1;
      }
    </style>
  </defs>
  <title>eyef_1</title>
  <g>
    <path class="cls-1" d="M125.75,323.74s-21.1-16.8-19.3-17.2,24.8-5.4,37.7-3.1a97.45,97.45,0,0,1,28.4,9.9l10.3,8.6s-27.7,9.1-41.3,6.2-12-3.6-12-3.6Z"/>
    <path class="cls-2" d="M144.15,300.54c9,1.5,18,3,25.9,8.1a115.5,115.5,0,0,1,12,8.8c1.4,1.2,1.9,3.4,2.8,5.1-.5.5-1.1,1-1.6,1.5-4.8-3.4-9.6-6.8-15-10.5-4.4,10.6-12,14.1-22.2,11.4-8.9-2.4-17.1-6-18.2-17-4.2.3-8.3.5-12.8.8,3.9,6.4,12,8.9,14.6,15.7-.5.6-1,1.1-1.5,1.7-9.9-6.6-19.8-13.2-29.6-19.8.2-.8.4-1.6.6-2.5,10.4-1.1,20.7-2.3,31.1-3.4C134.85,300.54,139.45,300.54,144.15,300.54Zm-14.8,6.1c1.5,8.7,10,14.5,20.1,15.3,7.8.6,11.7-1.9,14.3-9.7C152.35,310.34,141.25,308.54,129.35,306.64Z"/>
    <path fill="$[hairColor]"  d="M129.35,306.64c11.9,1.9,23,3.8,34.3,5.6-2.6,7.8-6.5,10.2-14.3,9.7C139.35,321.14,130.85,315.34,129.35,306.64Z"/>
  </g>
</svg>
