<svg id="Capa_1" data-name="Capa 1" xmlns="http://www.w3.org/2000/svg" viewBox="0 0 400 600">
  <defs>
    <style>
      .cls-1 {
        fill: #fff;
      }
    </style>
  </defs>
  <title>eyef_2</title>
  <path class="cls-1" d="M103.6,309.69s38.1-11.1,58.8,0c.3.6,9.3,8.7,9.3,8.7l3.3,5.4s-24.8,14.8-41.7,9.2-16.9-5.5-16.9-5.5Z"/>
  <g>
    <path class="cls-1" d="M124.5,307.09c1.2,18.1,9.4,27.4,22.4,25.7,5-.6,9.2-2.7,12.1-7,2.8-4.1,3.6-8.5,2.7-14,4.4,4,8.9,8,13.3,11.9.4-.3.7-.7,1.1-1-4-9.4-9.5-17.9-18.9-23.1-10.5-5.7-39-6.8-45-1.8,17.9-.8,36-3.8,51,8.8-.6.6-1.1.6-1.5.4-18.7-8.1-37.5-4.8-56.2-.5-1.9.4-3.5,2.4-4.9,3.5,5.8,6.3,10.8,11.9,15.9,17.5.4-.4.9-.8,1.3-1.2-1.1-1.4-2.1-2.8-3.2-4.1l-6.6-8.1c-2.1-2.6-1.2-4.4,1.9-4.9C114.7,308.39,119.6,307.79,124.5,307.09Zm44.4-23.5,20.9,23,1.1-1.1C185.1,296.79,178.2,289.09,168.9,283.59Z"/>
    <path d="M124.5,307.09c-4.9.7-9.8,1.2-14.6,2.1-3,.5-4,2.3-1.9,4.9l6.6,8.1c1.1,1.3,2.1,2.7,3.2,4.1-.4.4-.9.8-1.3,1.2-5.1-5.6-10.1-11.2-15.9-17.5,1.5-1.1,3-3,4.9-3.5,18.8-4.3,37.6-7.6,56.2.5.4.2.9.2,1.5-.4-15.1-12.6-33.1-9.6-51-8.8,6-5,34.5-3.9,45,1.8,9.5,5.1,14.9,13.6,18.9,23.1-.4.3-.7.7-1.1,1-4.4-4-8.9-8-13.3-11.9a17.85,17.85,0,0,1-2.7,14c-2.9,4.3-7.2,6.4-12.1,7C133.9,334.49,125.7,325.19,124.5,307.09Zm29.3,6c-1.8-1.7-2.9-3.5-3.9-3.4s-2.7,1.8-2.9,3c-.2.9,1.4,2.9,2.4,3S151.7,314.39,153.8,313.09Z"/>
    <path d="M168.9,283.59c9.3,5.5,16.2,13.2,22,21.9l-1.1,1.1Z"/>
    <path class="cls-1" d="M153.8,313.09c-2,1.3-3.3,2.7-4.4,2.6a4.08,4.08,0,0,1-2.4-3c.2-1.2,1.8-2.9,2.9-3C150.8,309.59,152,311.39,153.8,313.09Z"/>
  </g>
</svg>
