<svg id="Capa_1" data-name="Capa 1" xmlns="http://www.w3.org/2000/svg" viewBox="0 0 400 600">
  <defs>
    <style>
      .cls-1 {
        fill: #fff;
      }
    </style>
  </defs>
  <title>eyef_5</title>
  <g>
    <path d="M111.55,319c7.7-8.4,16-16.2,26.5-20.8,8.8-3.8,16.1,1.1,21.8,7.1,5.1,5.4,9.2,11.8,13.1,18.2,2.5,4-.3,7.3-3.8,8.9-11.5,5.2-23,9.3-35.8,3.2C125.15,331.64,117.75,326.94,111.55,319Zm17.2-12.2c-3.5,3.2-7.1,6.4-10.6,9.6-3.1,2.7-2.9,4.8.2,7.7,13.9,12.6,32.8,15.4,49.4,6.8,1.8-.9,3.3-2.5,5.1-3.9-4.3-6-8.3-11.5-12.3-16.9.9,6.5,1,12.1-4.9,16.1-5.7,3.8-11.8,5.2-17.8,1.6C130.35,323.24,127.75,316.14,128.75,306.84Zm22.4,4.5c.4-.5,2-1.6,2.3-2.9.7-3.2-2.7-6.5-6.6-6.3-1.3.1-3.4,1.5-3.6,2.7C142.45,308,146,311.14,151.15,311.34Z"/>
    <path d="M163.35,301.24c10.7,7.8,22.2,15.5,20.1,31.2-2.1-5.8-3.2-12.4-6.6-17.5S168,305.84,163.35,301.24Z"/>
    <path class="cls-1" d="M128.75,306.84c-1,9.3,1.5,16.4,9.1,20.8,6,3.6,12.2,2.2,17.8-1.6,5.9-4,5.8-9.6,4.9-16.1l12.3,16.9c-1.8,1.39-3.3,3-5.1,3.89-16.6,8.61-35.5,5.81-49.4-6.8-3.1-2.8-3.3-5-.2-7.7C121.75,313.24,125.25,310,128.75,306.84Z"/>
    <path class="cls-1" d="M151.15,311.34c-5.2-.2-8.7-3.3-7.9-6.5.3-1.2,2.3-2.6,3.6-2.7,3.9-.2,7.2,3,6.6,6.3C153.15,309.74,151.55,310.74,151.15,311.34Z"/>
  </g>
</svg>
