<svg id="Capa_1" data-name="Capa 1" xmlns="http://www.w3.org/2000/svg" viewBox="0 0 400 600">
  <defs>
    <style>
      .cls-1 {
        fill: #fff;
      }
    </style>
  </defs>
  <title>eyef_3</title>
  <path class="cls-1" d="M141.26,328.77s18.1,4.3,33.8-4.8c.3.1,5.2-3.6,5.2-3.6l-12.8-12-4.2-.9-6,11.6Z"/>
  <g>
    <path class="cls-1" d="M171.06,324.07a3.55,3.55,0,0,1,.2,1c1.4,0,3.1.5,4.2-.1,2.2-1.2,4.5-2.8,5.7-4.8.5-.8-1.8-3.4-3-5-1.1-1.4-2.7-2.5-3.9-3.8-8-8.8-18.3-12-29.7-11.3-9,.5-17.9,1.9-26.8,2.9a9.37,9.37,0,0,0-3.4.7c-1,.6-1.6,1.8-2.5,2.7,1,.8,1.8,1.9,2.9,2.3,1.4.5,3,.4,5.6.7-5.5,4.4-10,8.1-14.5,11.8.3.5.4.9.7,1a3.39,3.39,0,0,0,1.9.5c6.6-1.2,12,2.2,17.9,3.9,5.7,1.6,11.9,3.6,17.5,2.7,6.7-1.1,13.5-4.3,19.3-8.1,2.2-1.4,1.8-6.9,2.7-11.1,3.9,3,8.2,6.3,13.5,10.4C175.46,322.17,173.26,323.17,171.06,324.07Z"/>
    <path d="M156.66,295c1.5.9,3,1.7,4.6,2.6,0,.3-.1.5-.1.8h-29.1c-.1-.4-.2-.7-.3-1.1,4.6-.7,9.3-1.5,13.9-2.2C149.26,295,153,295,156.66,295Z"/>
    <path d="M171.06,324.07c2.2-.9,4.4-1.9,8.2-3.5-5.3-4.1-9.6-7.4-13.5-10.4-.9,4.1-.5,9.6-2.7,11.1-5.8,3.8-12.5,7-19.3,8.1-5.6.9-11.8-1.1-17.5-2.7-5.9-1.7-11.4-5.1-17.9-3.9a3.39,3.39,0,0,1-1.9-.5c-.2-.1-.4-.5-.7-1,4.5-3.7,9.1-7.4,14.5-11.8-2.6-.3-4.2-.2-5.6-.7-1.1-.4-1.9-1.5-2.9-2.3a12.94,12.94,0,0,1,2.5-2.7,7.39,7.39,0,0,1,3.4-.7c8.9-1,17.8-2.4,26.8-2.9,11.5-.7,21.7,2.5,29.7,11.3,1.2,1.3,2.8,2.4,3.9,3.8,1.3,1.6,3.5,4.2,3,5-1.2,2-3.5,3.6-5.7,4.8-1.1.6-2.8.1-4.2.1A4.1,4.1,0,0,0,171.06,324.07Zm-26.6,4c-4.3-3.6-8.8-5.7-10.3-9.1-1.4-3.2.2-7.8.4-11.6-8.3,3-13.2,7.3-15.1,14.5C127.66,324,135.66,326,144.46,328.07Zm-2-13.1c1.3-1.8,2.6-2.9,2.8-4.2.1-.8-1.8-2.7-2.4-2.5-1.5.5-2.8,1.8-4.1,2.7C139.76,312.17,140.76,313.27,142.46,315Z"/>
    <path class="cls-1" d="M144.46,328.07c-8.8-2.2-16.9-4.1-24.9-6.1,1.9-7.2,6.8-11.5,15.1-14.5-.3,3.7-1.9,8.3-.4,11.6S140.16,324.47,144.46,328.07Z"/>
    <path class="cls-1" d="M142.46,315c-1.6-1.8-2.7-2.8-3.7-3.9,1.4-1,2.6-2.2,4.1-2.7.5-.2,2.5,1.7,2.4,2.5C145.06,312.07,143.76,313.17,142.46,315Z"/>
  </g>
</svg>
