<svg id="Capa_1" data-name="Capa 1" xmlns="http://www.w3.org/2000/svg" viewBox="0 0 400 600">
  <defs>
    <style>
      .cls-1 {
        fill: #fff;
      }
    </style>
  </defs>
  <title>eyef_6</title>
  <g>
    <path d="M100,320.72c8-6.7,16.4-13.1,27.4-14.6,12.5-1.6,24.6.1,34.5,8.1,1.6,1.3,2.5,3.4,3.7,5.1l-1.4,1.1c-2.7-2-5.3-4-8.1-6-5,9.9-10.4,12.8-20.5,11.8-9.9-1-15.1-5.3-17.3-14.9-4.7,3.6-9,6.8-13.1,10.3-2,1.7-3.4,2.9-5.3.1A3.75,3.75,0,0,0,100,320.72Zm54.2-7.7a47,47,0,0,0-28.6-3.5c-5.4,1.1-6.8,4.4-3.3,8.5,5,5.8,12,7.3,19.6,6.4C148.56,323.62,152.86,319.92,154.16,313Z"/>
    <path d="M152.46,286.82c7.5,5.9,15.2,11.6,22.3,17.8,4.2,3.7,5,8.4,3.5,13.9,0-9.1-6.4-14.4-13-19.9-4.5-3.8-8.4-8.1-12.6-12.2C152.56,286.62,152.56,286.72,152.46,286.82Z"/>
    <path d="M105,306.92c8.2-13.5,37.4-15.9,46.2-6.9C133.86,293.32,118.86,295.32,105,306.92Z"/>
    <path fill="$[hairColor]" d="M154.16,313c-1.3,6.9-5.5,10.5-12.3,11.3-7.6.9-14.7-.6-19.6-6.4-3.5-4.1-2.1-7.4,3.3-8.5A47.92,47.92,0,0,1,154.16,313Z"/>
  </g>
</svg>
