<svg id="Capa_1" data-name="Capa 1" xmlns="http://www.w3.org/2000/svg" viewBox="0 0 400 600">
  <defs>
    <style>
      .cls-1 {
        fill: #fff;
      }
    </style>
  </defs>
  <title>eyef_8</title>
  <g>
    <path d="M115,291.82c6.64,1.87,13.24,3.83,19.91,5.58,9.27,2.44,18.82,4.08,27.82,7.28,6.81,2.41,13.78,5.88,15.9,14a4.78,4.78,0,0,1-1.79,4c-17.59,11.29-38,9.83-54-3.61-5.34-4.48-10.92-8.7-16.19-13.27-1.12-1-1.36-3-2-4.51,1.62-.3,3.27-1,4.86-.85,4.11.31,8.2,1,12.3,1.48l.64-1.6c-2.41-1.17-4.91-2.18-7.2-3.55-1.78-1.07-5.72-1.05-3.2-5Zm48.09,19.08-1.34,1.3c2.24,4,1.89,7.59-1.54,10.37-4.86,3.95-10.48,4.31-16,1.94-6.24-2.69-10.57-7.18-10.32-14.95a48.29,48.29,0,0,1-6.07.8c-4.17,0-4.27,2.15-2.17,4.63,2.78,3.29,5.5,7.33,9.18,9.06,12.62,5.94,25.51,4.26,38.13-.66,2.83-1.1,3.55-3.29,1-5.26C170.56,315.48,166.77,313.29,163.13,310.9Z"/>
    <path class="cls-1" d="M163.13,310.9c3.64,2.39,7.43,4.58,10.87,7.23,2.56,2,1.84,4.16-1,5.26-12.62,4.92-25.51,6.6-38.13.66-3.68-1.73-6.4-5.77-9.18-9.06-2.1-2.48-2-4.59,2.17-4.63a48.29,48.29,0,0,0,6.07-.8c-.25,7.77,4.08,12.26,10.32,14.95,5.51,2.37,11.13,2,16-1.94,3.43-2.78,3.78-6.39,1.54-10.37Z"/>
  </g>
</svg>
