<?xml version="1.0" encoding="utf-8"?>
<!-- Generator: Adobe Illustrator 27.2.0, SVG Export Plug-In . SVG Version: 6.00 Build 0)  -->
<svg version="1.1" id="Layer_2" xmlns="http://www.w3.org/2000/svg" xmlns:xlink="http://www.w3.org/1999/xlink" x="0px" y="0px"
	 viewBox="0 0 400 600" style="enable-background:new 0 0 400 600;" xml:space="preserve">
<style type="text/css">
	.female16-st0{fill:#FFFFFF;stroke:#000000;stroke-width:5;stroke-miterlimit:10;}
	.female16-st1{stroke:#000000;stroke-width:5;stroke-miterlimit:10;}
</style>
<path class="female16-st0" d="M209.3,209.3c-0.3,2.7-2.3,16.9-10.9,20.3c-1.4,0.6-2.9,0.8-17-2.9c-13-3.4-14.9-4.3-16.4-6.5
	c-3.1-4.6-2-11-0.7-15.2"/>
<path class="female16-st1" d="M212,209.3c-17.3-1.7-34.5-3.4-51.8-5.1"/>
<path class="female16-st0" d="M153.4,197c0.1,0.7,0.6,3.1,2.7,5.1c2.2,2.1,4.8,2.2,5.5,2.2"/>
<path class="female16-st0" d="M151,206.1c0.4,0.8,1.7,3.5,4.7,5.1c3.2,1.7,6.1,0.9,6.9,0.7"/>
<path class="female16-st1" d="M189.8,226.1l-8.3-1.3c-2.9-0.5-4.9-3.2-4.4-6.1l1-6.3c0.5-2.9,3.2-4.9,6.1-4.4l8.3,1.3
	c2.9,0.5,4.9,3.2,4.4,6.1l-1,6.3C195.4,224.6,192.7,226.5,189.8,226.1z"/>
</svg>
