<?xml version="1.0" encoding="utf-8"?>
<!-- Generator: Adobe Illustrator 27.2.0, SVG Export Plug-In . SVG Version: 6.00 Build 0)  -->
<svg version="1.1" id="Layer_1" xmlns="http://www.w3.org/2000/svg" xmlns:xlink="http://www.w3.org/1999/xlink" x="0px" y="0px"
	 viewBox="0 0 400 600" style="enable-background:new 0 0 400 600;" xml:space="preserve">
<style type="text/css">
	.female2-st0{fill:#FFFFFF;stroke:#000000;stroke-width:5;}
	.female2-st1{stroke:#000000;stroke-width:5;}
	.female2-st2{fill:none;stroke:#000000;stroke-width:5;}
</style>
<g id="eye2">
	<path id="Shape_10" class="female2-st0" d="M207.5,315.9c0,0,3-32.4-26.8-29.6c-29.9,2.8-21.3,30.1-21.3,30.1"/>
	<path id="Shape_10_00000148645914038651856210000009052183354090859929_" class="female2-st1" d="M182.9,310.2c-3.3,0.3-6.2-2.1-6.5-5.4
		c-0.3-3.3,2.1-6.2,5.4-6.5c3.3-0.3,6.2,2.1,6.5,5.4C188.6,307,186.2,309.9,182.9,310.2z"/>
</g>
<path class="female2-st2" d="M137.5,310.5c1,1.2,3.3,3.6,7,5c0.9,0.3,3.5,1.2,7,1c3.2-0.2,5.7-1.3,7-2"/>
<path class="female2-st2" d="M141.5,293.5c0.6,2.2,1.4,3.8,2,5c0.7,1.3,1.5,2.6,3,4c0.2,0.2,1.4,1.2,3,2c3.7,1.8,7.5,1.3,9,1"/>
</svg>
