<?xml version="1.0" encoding="utf-8"?>
<!-- Generator: Adobe Illustrator 27.2.0, SVG Export Plug-In . SVG Version: 6.00 Build 0)  -->
<svg version="1.1" id="Layer_1" xmlns="http://www.w3.org/2000/svg" xmlns:xlink="http://www.w3.org/1999/xlink" x="0px" y="0px"
	 viewBox="0 0 400 600" style="enable-background:new 0 0 400 600;" xml:space="preserve">
<style type="text/css">
	.st0{fill:#FFFFFF;stroke:#000000;stroke-width:5;}
	.st1{stroke:#000000;stroke-width:5;}
</style>
<g id="eye1">
	<path id="Shape_7" class="st0" d="M208,315.3c0,0-5,10-35,10s-25-10-25-10s0-40,30-40S208,315.3,208,315.3z"/>
	<path id="Shape_7_00000125567265549625066290000000622694421772662198_" class="st1" d="M178,310.3c-10,0-10-20,0-20
		S188,310.3,178,310.3z"/>
</g>
<g>
	<path class="st0" d="M132.4,309.7c1.5,1.3,3.5,2.7,6,4c3.5,1.8,6.7,2.6,9,3"/>
	<path class="st0" d="M138.4,292.7c1.1,1.8,2.2,3.1,3,4c2.1,2.5,4,4.2,5.3,5.3c1.2,1,2.2,1.9,3,2.4"/>
</g>
</svg>
