<svg id="Capa_1" data-name="Capa 1" xmlns="http://www.w3.org/2000/svg" viewBox="0 0 400 600">
  <defs>
    <style>
      .cls-1 {
        fill: #fff;
      }
    </style>
  </defs>
  <title>eyef</title>
  <path class="cls-1" d="M107.39,303.27s9.2,25.6,22.4,31c1.2-.9,18.1,5,44-3.8,0,0-2.9-15-6.8-19s-15.8-9.4-15.8-9.4l-18.4-2.4Z"/>
  <g>
    <path d="M177,332.07c-2.2,1.9-2.5.3-3.1-1.5-1.7-4.7-3.6-9.2-5.6-13.8a49.45,49.45,0,0,0-3.2-4.9c-2,14.9-10.2,22.2-21.5,20.2-12.6-2.2-19.5-14.4-15.8-29.7-4.7,1.6-8.9,2.8-12.9,4.5-.7.3-1.1,3.2-.5,4.2a179.91,179.91,0,0,0,10.8,16.5c2.5,3.2,6,5.6,9,8.4-.1.5-.3,1-.4,1.4-1.5-.1-3.2.3-4.4-.3-11.5-5.6-19.5-13.8-22.4-26.9-.7-3.3-5.2-5.8-7.9-8.7-1-1.1-1.9-2.3-2.9-3.4a19.2,19.2,0,0,1,4-.9c9.6-.1,19.2,0,28.6,0-.4-1.6-1-3.9-1.6-6.1h2a56.49,56.49,0,0,0,6.6,3.1c8.2,2.8,16.5,5.3,24.6,8.2,5.6,2,9.4,5.6,10.9,11.9,1.3,5.4,3.8,10.6,5.8,15.9A12.1,12.1,0,0,0,177,332.07Zm-37-29.8c-8.1-.1-9,.7-10,6.8-1.1,6.7,3.7,10.3,7.6,14.3,5,5.2,14.8,5.1,19.9.1,3.9-3.8,3.1-8.5,2.4-13.1-.6-4.1-3.9-5.5-7.5-6.2C147.59,303.37,142.79,302.67,140,302.27Z"/>
    <path d="M142,291.07c9,3.4,17.9,6.9,26.9,10.3-.3.6-.5,1.3-.8,1.9-9.7-4.1-19.4-8.2-29.1-12.2Z"/>
    <path class="cls-1" d="M140,302.27c2.8.4,7.6,1.1,12.3,1.9,3.6.6,6.9,2,7.5,6.2.7,4.6,1.5,9.3-2.4,13.1-5.1,5-14.9,5.1-19.9-.1-3.8-4-8.6-7.6-7.6-14.3C131,303,131.89,302.07,140,302.27Zm6.3,15.3c2.4-3.1,4.7-4.7,4.9-6.6a4.66,4.66,0,0,0-5.6-5.3c-1.8.3-4.6,3.1-4.5,4.5C141.49,312.27,143.89,314.17,146.29,317.57Z"/>
    <path d="M146.29,317.57c-2.5-3.4-4.9-5.3-5.1-7.4-.2-1.4,2.7-4.2,4.5-4.5a4.66,4.66,0,0,1,5.6,5.3C151.09,312.87,148.79,314.47,146.29,317.57Z"/>
  </g>
</svg>
