<?xml version="1.0" encoding="utf-8"?>
<!-- Generator: Adobe Illustrator 27.2.0, SVG Export Plug-In . SVG Version: 6.00 Build 0)  -->
<svg version="1.1" id="Layer_1" xmlns="http://www.w3.org/2000/svg" xmlns:xlink="http://www.w3.org/1999/xlink" x="0px" y="0px"
	 viewBox="0 0 400 600" style="enable-background:new 0 0 400 600;" xml:space="preserve">
<style type="text/css">
	.female4-st0{fill:#FFFFFF;stroke:#000000;stroke-width:5;}
	.female4-st1{stroke:#000000;stroke-width:4;stroke-linecap:round;stroke-linejoin:round;}
	.female4-st2{stroke:#000000;}
</style>
<g id="eye4">
	<path id="Shape_9" class="female4-st0" d="M230.8,299.3c0,0,1.9,14.9-27.9,18.7c-24.8,3.2-33.6-26-34.2-30.9
		C188.6,284.5,228.3,279.5,230.8,299.3z"/>
	<path id="Shape_7_copy" class="female4-st1" d="M201.8,293c9.9-1.3,11.8,13.6,1.9,14.9C193.8,309.1,191.9,294.2,201.8,293z"/>
</g>
<path class="female4-st2" d="M149.5,276.5c3.9,5.5,6.9,9.9,9,13c2.2,3.2,3.1,4.7,5,7c2,2.4,4,4.3,8,8c3.7,3.5,5.6,5.2,6,5
	c1.4-0.8-12.8-18.5-9-23c1.4-1.7,4.5-0.4,12,0c7.2,0.4,8.6-0.9,16-1c3.5-0.1,8.7,0.1,15,1"/>
</svg>
