<svg id="Capa_1" data-name="Capa 1" xmlns="http://www.w3.org/2000/svg" viewBox="0 0 400 600">
  <defs>
    <style>
      .cls-1 {
        fill: #fff;
      }
    </style>
  </defs>
  <title>eyef_9</title>
  <g>
    <path class="cls-1" d="M176.91,329.64c-1.66-4.27-4-9-5.32-14-1.86-7.25-7-10.6-13.33-12.84-3-1.05-6-1.84-9.08-2.69-6.14-1.7-12.3-3.37-19.58-5.36l2.57,5.81c-9.81,0-19.38-.05-28.94.05a15.06,15.06,0,0,0-3.9,1.11c.89,1,1.56,2.5,2.68,3.05,4.89,2.38,8.28,5.58,9.34,11.34a18.9,18.9,0,0,0,9.8,13.26c15.92,8.8,32.25,9.18,48.87,1.87C171.79,330.48,173.85,330.34,176.91,329.64Zm7.12-18c-.15-6.92-5.69-14.68-10.46-15.75Zm-39.75-16.52,25.16,10C162.09,298.86,153.09,296.93,144.28,295.12Z"/>
    <path d="M176.91,329.64c-3.06.7-5.12.84-6.89,1.62-16.62,7.31-33,6.93-48.87-1.87a18.9,18.9,0,0,1-9.8-13.26c-1.06-5.76-4.45-9-9.34-11.34-1.12-.55-1.79-2-2.68-3.05a15.06,15.06,0,0,1,3.9-1.11c9.56-.1,19.13-.05,28.94-.05l-2.57-5.81c7.28,2,13.44,3.66,19.58,5.36,3,.85,6.11,1.64,9.08,2.69,6.35,2.24,11.47,5.59,13.33,12.84C172.87,320.66,175.25,325.37,176.91,329.64Zm-11.17-17c-3.27,13-10.58,18.27-21.43,15.31a29.47,29.47,0,0,1-12-7.24c-4.14-4-3.65-9.56-.89-15.81-4.7,1.63-8.23,3-11.83,4.06-3,.91-2.82,2.75-1.94,5.05a27.82,27.82,0,0,0,19.06,17.12c12.23,3.33,24.29.18,36.27-5.69ZM144.5,304.3l0,.24c-1.49,0-3-.06-4.47,0a7.38,7.38,0,0,0-6.07,10.95c3.92,7.09,14.16,10.74,21.67,7.72,4.19-1.68,6-5.41,5.55-11.12-.31-4.35-3.05-6-6.82-6.53C151.07,305.07,147.78,304.72,144.5,304.3Z"/>
    <path d="M184,311.64l-10.46-15.75C178.34,297,183.88,304.72,184,311.64Z"/>
    <path d="M144.28,295.12c8.81,1.81,17.81,3.74,25.16,10Z"/>
    <path class="cls-1" d="M165.74,312.68l7.2,12.8c-12,5.87-24,9-36.27,5.69a27.82,27.82,0,0,1-19.06-17.12c-.88-2.3-1-4.14,1.94-5.05,3.6-1.1,7.13-2.43,11.83-4.06-2.76,6.25-3.25,11.79.89,15.81a29.47,29.47,0,0,0,12,7.24C155.16,331,162.47,325.7,165.74,312.68Z"/>
    <path class="cls-1" d="M144.5,304.3c3.28.42,6.57.77,9.83,1.27,3.77.57,6.51,2.18,6.82,6.53.4,5.71-1.36,9.44-5.55,11.12-7.51,3-17.75-.63-21.67-7.72A7.38,7.38,0,0,1,140,304.55c1.49-.07,3,0,4.47,0Zm4.86,12,4.38-5.65c-1.65-1.27-3.35-3.57-5-3.5s-3.13,2.48-4.68,3.86Z"/>
    <path d="M149.36,316.32,144.11,311c1.55-1.38,3.07-3.8,4.68-3.86s3.3,2.23,5,3.5Z"/>
  </g>
</svg>
