<svg id="Capa_1" data-name="Capa 1" xmlns="http://www.w3.org/2000/svg" viewBox="0 0 400 600">
  <defs>
    <style>
      .cls-1 {
        fill: #fff;
      }
    </style>
  </defs>
  <title>eyef_4</title>
  <path class="cls-1" d="M114.49,322.54s28.4,31,56.3-1.3l-4.4-8.3c-5.1-3-14.8-11.7-24.6-9.9S114.49,322.54,114.49,322.54Z"/>
  <g>
    <path class="cls-1" d="M140,335.94c-7.9-3.9-17.8-4.3-23.2-13.5,1.9-1.7,3.8-3.3,5.7-5,6.3,9.3,15,12.9,25.2,12.1,9.9-.7,12-9,14.7-17.9,3.1,3.5,5.6,6.4,8.4,9.5-6.6,4.7-12.4,8.9-19,13.6,10.8-.3,15.6-9.9,23.8-12.3-1.7-11.8-8.7-19.1-18.4-24.5-10.3-5.8-23.5-6.5-30.4-1.6,7.3.3,14.7.2,22,1.1,8,1,13.4,6.4,18.1,12.4-2.9-1.5-5.5-3.7-8.5-5-4.6-2-9.6-5.1-14.3-4.9-15.9.7-28.2,8.3-35.6,22.7-1,1.9-.1,4.7,0,7.1,1.9-1.3,3.8-2.5,5.7-3.8.4-.3.8-.6,1.3-1C121.59,333.14,129.79,336.84,140,335.94Z"/>
    <path d="M140,335.94c-10.2.9-18.4-2.7-24.5-11-.6.4-.9.7-1.3,1-1.9,1.3-3.8,2.5-5.7,3.8,0-2.4-.9-5.2,0-7.1,7.4-14.4,19.7-22,35.6-22.7,4.7-.2,9.7,2.8,14.3,4.9,3,1.3,5.6,3.5,8.5,5-4.8-6-10.2-11.4-18.1-12.4-7.3-.9-14.6-.8-22-1.1,6.8-4.9,20-4.2,30.4,1.7,9.6,5.4,16.7,12.8,18.4,24.5-8.2,2.4-13,12-23.8,12.3,6.6-4.7,12.4-8.9,19-13.6-2.8-3.2-5.3-6-8.4-9.5-2.7,8.8-4.8,17.1-14.7,17.9-10.3.8-18.9-2.8-25.2-12.1-1.9,1.7-3.8,3.3-5.7,5C122.19,331.64,132.09,332,140,335.94ZM125,316c3.4,7,13.5,11.9,22.3,10.9,6.3-.7,12.3-8.6,11-14.8a5.44,5.44,0,0,0-2.9-3.4C145.49,304.74,132.49,307.94,125,316Z"/>
    <path class="cls-1" d="M125,316c7.4-8.1,20.4-11.4,30.4-7.4a5.75,5.75,0,0,1,2.9,3.4c1.3,6.2-4.7,14.1-11,14.8C138.49,327.94,128.39,323,125,316Z"/>
  </g>
</svg>
