<?xml version="1.0" encoding="utf-8"?>
<!-- Generator: Adobe Illustrator 27.2.0, SVG Export Plug-In . SVG Version: 6.00 Build 0)  -->
<svg version="1.1" xmlns="http://www.w3.org/2000/svg" xmlns:xlink="http://www.w3.org/1999/xlink" x="0px" y="0px"
	 viewBox="0 0 400 600" style="enable-background:new 0 0 400 600;" xml:space="preserve">
<style type="text/css">
	.st0{fill:#FFFFFF;stroke:#000000;stroke-width:5;stroke-miterlimit:10;}
	.st1{stroke:#000000;stroke-width:5;stroke-miterlimit:10;}
</style>
<g id="Layer_3">
	<path class="st0" d="M212.9,211.3c-0.5,4.1-4.5,7.6-8,9.1c-5.4,2.3-8-0.8-18.5-1.7c-11.3-0.9-14.7,2.1-19.7-1.2
		c-3.3-2.2-6.4-6.6-5.9-10.8c1-8.4,15.8-14.7,27.8-13.6C203,194.4,213.9,202.5,212.9,211.3z"/>
	<path class="st0" d="M161.5,211.5c-2.6,1.6-5.1,3.2-7.7,4.8"/>
	<path class="st0" d="M165.4,216.1c-2.4,2.1-4.9,4.2-7.3,6.3"/>
	
		<ellipse transform="matrix(0.2011 -0.9796 0.9796 0.2011 -49.6206 349.6834)" class="st1" cx="189.6" cy="205.3" rx="11" ry="13.9"/>
</g>
<g id="Layer_2">
</g>
</svg>
